<svg width="512" height="512" viewBox="0 0 512 512" fill="none" xmlns="http://www.w3.org/2000/svg">
<path d="M233.5 294.022C237.333 291.848 244 285 256.5 285C268 285 274.667 291.202 278 293.053C276.667 297.869 270.7 305.1 257.5 305.5C244.3 305.9 236 298.848 233.5 294.022Z" fill="#FF0900"/>
<path d="M233.5 294.022C237.333 291.848 244 285 256.5 285C268 285 274.667 291.202 278 293.053M233.5 294.022C245.5 294.5 266 294.022 278 293.053M233.5 294.022C236 298.848 244.3 305.9 257.5 305.5C270.7 305.1 276.667 297.869 278 293.053" stroke="#121212" stroke-width="6" stroke-linecap="round" stroke-linejoin="round"/>
</svg>
