<svg width="512" height="512" viewBox="0 0 512 512" fill="none" xmlns="http://www.w3.org/2000/svg">
<path d="M189.5 139C180.5 139 165.5 178.873 165.5 214.5C165.5 224.524 147.5 199.535 147.5 178.5C147.5 105.62 164.758 71.9172 221 62.0001C260.841 54.9751 309.5 62.0001 330 94.5C386 80 361.195 231.294 350 218.5C351.333 198 346 157.5 330 151C321.859 147.693 317.5 154 312.5 154C307.859 154 312.5 143.318 309.5 142.5C304 141 294 158.5 283 157C276.809 156.156 287 143.5 283 141C279.09 138.557 240.758 162.71 236 157C231 151 245.277 145.055 246 136C246.723 126.945 194 165.5 189.5 157C185 148.5 198.5 139 189.5 139Z" fill="#121212"/>
</svg>
