<svg xmlns="http://www.w3.org/2000/svg" viewBox="0 0 500 500"><g id="layer1"><svg width="512" height="512" viewBox="0 0 512 512" fill="none" xmlns="http://www.w3.org/2000/svg">
<rect width="512" height="512" fill="#7000FF"/>
<path d="M134 178H167V242H146L134 178Z" fill="#E24713"/>
<path d="M378 178H345V242H366L378 178Z" fill="#E24713"/>
<rect x="207" y="346" width="98" height="54" fill="#E24713"/>
<path d="M64 400H448L480 512H32L64 400Z" fill="#F15824"/>
<rect x="166" y="106" width="180" height="240" fill="#F15824"/>
</svg>
</g><g id="layer2"><svg width="512" height="512" viewBox="0 0 512 512" fill="none" xmlns="http://www.w3.org/2000/svg">
<path d="M134 178H166V242H146L134 178Z" fill="#80573E"/>
<path d="M378 178H346V242H366L378 178Z" fill="#80573E"/>
<rect x="207" y="346" width="98" height="54" fill="#80573E"/>
<path d="M64 400H448L480 512H32L64 400Z" fill="#8B634A"/>
<rect x="136" y="456" width="240" height="56" fill="#AE7B5C"/>
<rect x="166" y="106" width="180" height="240" fill="#8B634A"/>
<rect x="207" y="242" width="98" height="104" fill="#AE7B5C"/>
<rect x="182" y="178" width="148" height="64" fill="#AE7B5C"/>
<path d="M232 252L240 238H272L280 252" stroke="#121212" stroke-width="6"/>
<path d="M260 266L272 258M252 266L240 258" stroke="#121212" stroke-width="6"/>
</svg>
</g><g id="layer3"><svg width="512" height="512" viewBox="0 0 512 512" fill="none" xmlns="http://www.w3.org/2000/svg">
<rect width="180" height="88" transform="matrix(1 0 0 -1 166 178)" fill="white"/>
<circle cx="256" cy="60" r="44" fill="white"/>
<circle cx="188" cy="84" r="44" fill="white"/>
<circle cx="324" cy="84" r="44" fill="white"/>
</svg>
</g><g id="layer4"><svg width="512" height="512" viewBox="0 0 512 512" fill="none" xmlns="http://www.w3.org/2000/svg">
<path d="M207 512H305V439H257H207V512Z" fill="#A7DAFF"/>
<path d="M207 439V400L257 439H207Z" fill="#D4EDFE"/>
<path d="M305 439V400L257 439H305Z" fill="#D4EDFE"/>
<path d="M241 439H273L265 463H249L241 439Z" fill="#FFD600"/>
<path d="M241 512H273L265 463H249L241 512Z" fill="#FFD600"/>
<path d="M64 400H176V512H32L64 400Z" fill="#4A00A9"/>
<path d="M448 400H336V512H480L448 400Z" fill="#4A00A9"/>
<path d="M137 400H207V512H166L137 456.5L166 435L137 400Z" fill="#8D53D8"/>
<path d="M375 400H305V512H346L375 456.5L346 435L375 400Z" fill="#8D53D8"/>
<path d="M207 512H305V439L257 479L207 439V512Z" fill="#42B06C"/>
<path d="M257 476L257 512" stroke="#94EDB6" stroke-width="6"/>
</svg>
</g><g id="layer5"><svg></svg></g><g id="layer6"><svg width="512" height="512" viewBox="0 0 512 512" fill="none" xmlns="http://www.w3.org/2000/svg">
<path d="M230 302H280" stroke="#121212" stroke-width="6"/>
<path d="M360 348L346 368.131L284.112 321.294L258.419 301.978L298.556 302.127L360 348Z" fill="white"/>
<path d="M360 348L363 350.769L364.912 348.373L362.516 346.568L360 348ZM346 368.131L344.462 370.527L346.858 372.332L348.663 369.937L346 368.131ZM284.112 321.294L285.918 318.898L285.915 318.896L284.112 321.294ZM298.556 302.127L300.361 299.731L299.565 299.13L298.567 299.127L298.556 302.127ZM258.419 301.978L258.43 298.978C257.137 298.973 255.987 299.797 255.575 301.022C255.163 302.248 255.583 303.599 256.616 304.376L258.419 301.978ZM358.315 347.158L343.871 366.326L348.663 369.937L363 350.769L358.315 347.158ZM348.073 365.735L285.918 318.898L282.307 323.69L344.462 370.527L348.073 365.735ZM296.75 304.523L358.905 351.36L362.516 346.568L300.361 299.731L296.75 304.523ZM285.915 318.896L260.222 299.58L256.616 304.376L282.31 323.692L285.915 318.896ZM258.408 304.978L298.545 305.127L298.567 299.127L258.43 298.978L258.408 304.978Z" fill="#121212"/>
<path d="M258.42 301.978L284.113 321.294L290.501 326.142L306.501 308.156L298.557 302.127L258.42 301.978Z" fill="#FFB74A"/>
<path d="M284.113 321.294L285.927 318.904L285.916 318.896L284.113 321.294ZM258.42 301.978L258.431 298.978C257.138 298.973 255.988 299.797 255.576 301.022C255.164 302.248 255.584 303.599 256.617 304.376L258.42 301.978ZM298.557 302.127L300.37 299.737L299.571 299.13L298.568 299.127L298.557 302.127ZM306.501 308.156L308.742 310.15L310.898 307.727L308.314 305.766L306.501 308.156ZM290.501 326.142L288.687 328.532L290.898 330.209L292.742 328.136L290.501 326.142ZM285.916 318.896L260.222 299.58L256.617 304.376L282.31 323.692L285.916 318.896ZM258.408 304.978L298.546 305.126L298.568 299.127L258.431 298.978L258.408 304.978ZM296.743 304.516L304.687 310.546L308.314 305.766L300.37 299.737L296.743 304.516ZM292.314 323.752L285.927 318.904L282.299 323.683L288.687 328.532L292.314 323.752ZM304.259 306.162L288.259 324.148L292.742 328.136L308.742 310.15L304.259 306.162Z" fill="#121212"/>
<path d="M381 365C409.5 372 440 360.5 447 318.5C454 276.5 391 246 422 200" stroke="white" stroke-width="6">
<animate attributeName="stroke" dur="4s" repeatCount="indefinite" keyTimes="0;0.8;1" values="white;transparent;white" />
</path>
<rect x="365" y="352" width="24" height="10" transform="rotate(127 365 352)" fill="#D22D27" stroke="#121212" stroke-width="6">
<animate attributeName="fill" dur="4s" repeatCount="indefinite" keyTimes="0;0.8;1" values="#6C0400;#FF0900;#6C0400" />
</rect>
</svg>
</g><g id="layer7"><svg width="512" height="512" viewBox="0 0 512 512" fill="none" xmlns="http://www.w3.org/2000/svg">
<path d="M206 162H238" stroke="#121212" stroke-width="6"/>
<path d="M210.687 217.313L233.314 194.686" stroke="#121212" stroke-width="6"/>
<path d="M279 217.313L301.627 194.686" stroke="#121212" stroke-width="6"/>
<path d="M210.687 194.687L233.314 217.314" stroke="#121212" stroke-width="6"/>
<path d="M279 194.687L301.627 217.314" stroke="#121212" stroke-width="6"/>
<path d="M274 162H306" stroke="#121212" stroke-width="6"/>
</svg>
</g><g id="layer8"><svg width="512" height="512" viewBox="0 0 512 512" fill="none" xmlns="http://www.w3.org/2000/svg">
<path d="M190 175H246V231H190V175Z" fill="#FFFFFF" fill-opacity="0.6"/>
<path d="M190 175H246V231H190V175ZM190 175H166" stroke="#BBBBBB" stroke-width="6"/>
<path d="M247 184H266" stroke="#BBBBBB" stroke-width="6"/>
<path d="M266 175H322V231H266V175Z" fill="#FFFFFF" fill-opacity="0.6"/>
<path d="M322 175H266V231H322V175ZM322 175H346" stroke="#BBBBBB" stroke-width="6"/>
<mask id="mask0_139_2" style="mask-type:alpha" maskUnits="userSpaceOnUse" x="269" y="178" width="50" height="50">
<path d="M269 178H319V228H309.625H269V178Z" fill="#BBBBBB"/>
</mask>
<g mask="url(#mask0_139_2)">
<path d="M279.545 178H290L277.455 228H267L279.545 178Z" fill="#DDD">
<animateTransform attributeName="transform" type="translate" dur="4s" repeatCount="indefinite" keyTimes="0;0.8;1" values="-32 0;-32 0;48 0" />
</path>
</g>
<mask id="mask1_139_2" style="mask-type:alpha" maskUnits="userSpaceOnUse" x="193" y="178" width="50" height="50">
<path d="M193 178H243V228H233.625H193V178Z" fill="#BBBBBB"/>
</mask>
<g mask="url(#mask1_139_2)">
<path d="M203.545 178H214L201.455 228H191L203.545 178Z" fill="#DDD">
<animateTransform attributeName="transform" type="translate" dur="4s" repeatCount="indefinite" keyTimes="0;0.8;1" values="-32 0;-32 0;48 0" />
</path>
</g>
</svg>
</g></svg>