<svg xmlns="http://www.w3.org/2000/svg" viewBox="0 0 500 500"><g id="layer1"><svg width="512" height="512" viewBox="0 0 512 512" fill="none" xmlns="http://www.w3.org/2000/svg">
<rect width="512" height="512" fill="#FF9900"/>
<path d="M134 178H167V242H146L134 178Z" fill="#E24713"/>
<path d="M378 178H345V242H366L378 178Z" fill="#E24713"/>
<rect x="207" y="346" width="98" height="54" fill="#E24713"/>
<path d="M64 400H448L480 512H32L64 400Z" fill="#F15824"/>
<rect x="166" y="106" width="180" height="240" fill="#F15824"/>
</svg>
</g><g id="layer2"><svg width="512" height="512" viewBox="0 0 512 512" fill="none" xmlns="http://www.w3.org/2000/svg">
<mask id="mask0_34_133" style="mask-type:alpha" maskUnits="userSpaceOnUse" x="32" y="106" width="448" height="406">
<path fill-rule="evenodd" clip-rule="evenodd" d="M207 346H166V242H146L134 178H166L166 106L346 106V178H378L366 242H346V346L305 346V400H448L480 512H32L64 400H207V346Z" fill="#F15824"/>
</mask>
<g mask="url(#mask0_34_133)">
<circle cx="256" cy="-40" r="950" fill="#F15824">
<animate attributeName="cy" values="-40;-400;-40" keyTimes="0;0.5;1" dur="20s" repeatCount="indefinite"/>
</circle>
<circle cx="256" cy="-40" r="900" fill="#C2FD52">
<animate attributeName="cy" values="-40;-400;-40" keyTimes="0;0.5;1" dur="20s" repeatCount="indefinite"/>
</circle>
<circle cx="256" cy="-40" r="850" fill="#AD00FF">
<animate attributeName="cy" values="-40;-400;-40" keyTimes="0;0.5;1" dur="20s" repeatCount="indefinite"/>
</circle>
<circle cx="256" cy="-40" r="800" fill="#00A8FF">
<animate attributeName="cy" values="-40;-400;-40" keyTimes="0;0.5;1" dur="20s" repeatCount="indefinite"/>
</circle>
<circle cx="256" cy="-40" r="750" fill="#C2FD52">
<animate attributeName="cy" values="-40;-400;-40" keyTimes="0;0.5;1" dur="20s" repeatCount="indefinite"/>
</circle>
<circle cx="256" cy="-40" r="700" fill="#D22D27">
<animate attributeName="cy" values="-40;-400;-40" keyTimes="0;0.5;1" dur="20s" repeatCount="indefinite"/>
</circle>
<circle cx="256" cy="-40" r="650" fill="#FFB74A">
<animate attributeName="cy" values="-40;-400;-40" keyTimes="0;0.5;1" dur="20s" repeatCount="indefinite"/>
</circle>
<circle cx="256" cy="-40" r="600" fill="#F15824">
<animate attributeName="cy" values="-40;-400;-40" keyTimes="0;0.5;1" dur="20s" repeatCount="indefinite"/>
</circle>
<circle cx="256" cy="-40" r="550" fill="#C2FD52">
<animate attributeName="cy" values="-40;-400;-40" keyTimes="0;0.5;1" dur="20s" repeatCount="indefinite"/>
</circle>
<circle cx="256" cy="-40" r="500" fill="#FF00B1">
<animate attributeName="cy" values="-40;-400;-40" keyTimes="0;0.5;1" dur="20s" repeatCount="indefinite"/>
</circle>
<circle cx="256" cy="-40" r="450" fill="#AD00FF">
<animate attributeName="cy" values="-40;-400;-40" keyTimes="0;0.5;1" dur="20s" repeatCount="indefinite"/>
</circle>
<circle cx="256" cy="-40" r="400" fill="#00A8FF">
<animate attributeName="cy" values="-40;-400;-40" keyTimes="0;0.5;1" dur="20s" repeatCount="indefinite"/>
</circle>
<circle cx="256" cy="-40" r="350" fill="#C2FD52">
<animate attributeName="cy" values="-40;-400;-40" keyTimes="0;0.5;1" dur="20s" repeatCount="indefinite"/>
</circle>
<circle cx="256" cy="-40" r="300" fill="#D22D27">
<animate attributeName="cy" values="-40;-400;-40" keyTimes="0;0.5;1" dur="20s" repeatCount="indefinite"/>
</circle>
<circle cx="256" cy="-40" r="250" fill="#FFB74A">
<animate attributeName="cy" values="-40;-400;-40" keyTimes="0;0.5;1" dur="20s" repeatCount="indefinite"/>
</circle>
<circle cx="256" cy="-40" r="200" fill="#F15824">
<animate attributeName="cy" values="-40;-400;-40" keyTimes="0;0.5;1" dur="20s" repeatCount="indefinite"/>
</circle>
</g>
<path d="M256 218L266 258H246" stroke="#121212" stroke-width="6"/>
</svg>
</g><g id="layer3"><svg width="512" height="512" viewBox="0 0 512 512" fill="none" xmlns="http://www.w3.org/2000/svg">
<rect x="166" y="146" width="240" height="16" fill="#00892F"/>
<rect x="166" y="74" width="60" height="72" fill="#FEED59"/>
<rect x="226" y="74" width="60" height="72" fill="#D22D27"/>
<rect x="286" y="74" width="60" height="72" fill="#0032B4"/>
<rect x="210" y="50" width="92" height="12" fill="#D22D27"/>
<rect x="250" y="50" width="12" height="24" fill="#121212"/>
</svg>
</g><g id="layer4"><svg width="512" height="512" viewBox="0 0 512 512" fill="none" xmlns="http://www.w3.org/2000/svg">
<path d="M64 400H448L480 512H32L64 400Z" fill="#F15824"/>
<rect x="207" y="372" width="98" height="28" fill="#121212"/>
<path d="M64 400H448L480 512H32L64 400Z" fill="#121212"/>
</svg>
</g><g id="layer5"><svg></svg></g><g id="layer6"><svg width="512" height="512" viewBox="0 0 512 512" fill="none" xmlns="http://www.w3.org/2000/svg">
<path d="M230.711 302H280" stroke="#121212" stroke-width="6"/>
<path d="M279.001 302C279.001 302 367.883 367.5 373.191 370.5L385.191 349.999L279.001 302Z" fill="#D22D27" stroke="#121212" stroke-width="6"/>
<path d="M276.75 301.825L342.223 348.641L360.478 339.021L276.75 301.825Z" fill="#00FF94" stroke="#121212" stroke-width="6"/>
<path d="M279.5 302L324.971 336.304L339.801 329.835L279.5 302Z" fill="#00A8FF"/>
<path d="M324.971 336.304L323.164 338.699L324.564 339.755L326.171 339.054L324.971 336.304ZM279.5 302L280.757 299.276C279.366 298.634 277.713 299.144 276.926 300.459C276.139 301.774 276.47 303.472 277.693 304.395L279.5 302ZM339.801 329.835L341.001 332.584L347.127 329.912L341.059 327.111L339.801 329.835ZM326.778 333.909L281.307 299.605L277.693 304.395L323.164 338.699L326.778 333.909ZM278.243 304.724L338.544 332.558L341.059 327.111L280.757 299.276L278.243 304.724ZM326.171 339.054L341.001 332.584L338.602 327.085L323.772 333.554L326.171 339.054Z" fill="#121212"/>
<rect x="391.396" y="335" width="21" height="37.7025" rx="10.5" transform="rotate(42.3433 391.396 335)" fill="#FFB74A" stroke="#121212" stroke-width="6"/>
<path d="M390 363C390 366.701 387.989 369.933 385 371.662C383.529 372.513 381.821 373 380 373C374.477 373 370 368.523 370 363C370 357.477 374.477 353 380 353C385.523 353 390 357.477 390 363Z" fill="#FFB74A" stroke="#121212" stroke-width="6"/>
</svg>
</g><g id="layer7"><svg width="512" height="512" viewBox="0 0 512 512" fill="none" xmlns="http://www.w3.org/2000/svg">
    <rect x="212" y="194" width="20" height="20" rx="10" fill="#121212"/>
    <rect x="280" y="194" width="20" height="20" rx="10" fill="#121212">
        <animate attributeName="y" dur="4s" repeatCount="indefinite" keyTimes="0;0.475;0.5;0.575;0.6;1" values="194;194;203;203;194;194" />
        <animate attributeName="height" dur="4s" repeatCount="indefinite" keyTimes="0;0.475;0.5;0.575;0.6;1" values="20;20;2;2;20;20" />
        <animate attributeName="rx" dur="4s" repeatCount="indefinite" keyTimes="0;0.475;0.5;0.575;0.6;1" values="10;10;1;1;10;10" />
    </rect>
    <path id="path1" d="M206 162H238" stroke="#121212" stroke-width="6"/>
    <g transform="translate(0,0)">
        <path id="path2" d="M274 162H306" stroke="#121212" stroke-width="6">
            <animateTransform attributeName="transform" type="translate" begin="0s" dur="4s" repeatCount="indefinite" keyTimes="0;0.475;0.5;0.575;0.6;1" values="0 0;0 0;0 5;0 5;0 0;0 0" />
            <animateTransform attributeName="transform" type="rotate" begin="0s" dur="4s" repeatCount="indefinite" keyTimes="0;0.475;0.5;0.575;0.6;1" values="0 274 162;0 274 162;10 274 162;10 274 162;0 274 162;0 274 162" additive="sum" />
        </path>
    </g>
</svg>
</g><g id="layer8"><svg width="512" height="512" viewBox="0 0 512 512" fill="none" xmlns="http://www.w3.org/2000/svg">
<rect x="166" y="190" width="84" height="12" fill="#121212"/>
<rect x="262" y="190" width="84" height="12" fill="#121212"/>
<rect x="274" y="202" width="60" height="12" fill="#121212"/>
<rect x="286" y="214" width="36" height="12" fill="#121212"/>
<rect x="178" y="202" width="60" height="12" fill="#121212"/>
<rect x="190" y="214" width="36" height="12" fill="#121212"/>
<rect x="166" y="178" width="180" height="12" fill="#121212"/>
<mask id="mask0_146_35" style="mask-type:alpha" maskUnits="userSpaceOnUse" x="166" y="190" width="84" height="36">
<rect x="166" y="190" width="84" height="12" fill="#121212"/>
<rect x="178" y="202" width="60" height="12" fill="#121212"/>
<rect x="190" y="214" width="36" height="12" fill="#121212"/>
</mask>
<g mask="url(#mask0_146_35)">
<g>
<animateTransform attributeName="transform" type="translate" dur="4s" repeatCount="indefinite" keyTimes="0;0.8;1" values="-32 0;-32 0;68 0" />
<rect x="178" y="190" width="12" height="12" fill="white"/>
<rect x="190" y="202" width="12" height="12" fill="white"/>
<rect x="202" y="214" width="12" height="12" fill="white"/>
</g>
</g>
<mask id="mask1_146_35" style="mask-type:alpha" maskUnits="userSpaceOnUse" x="262" y="190" width="84" height="36">
<rect x="262" y="190" width="84" height="12" fill="#121212"/>
<rect x="274" y="202" width="60" height="12" fill="#121212"/>
<rect x="286" y="214" width="36" height="12" fill="#121212"/>
</mask>
<g mask="url(#mask1_146_35)">
<g>
<animateTransform attributeName="transform" type="translate" dur="4s" repeatCount="indefinite" keyTimes="0;0.8;1" values="-32 0;-32 0;68 0" />
<rect x="274" y="190" width="12" height="12" fill="white"/>
<rect x="286" y="202" width="12" height="12" fill="white"/>
<rect x="298" y="214" width="12" height="12" fill="white"/>
</g>
</g>
</svg>
</g></svg>