<svg xmlns="http://www.w3.org/2000/svg" viewBox="0 0 500 500"><g id="layer1"><svg width="512" height="512" viewBox="0 0 512 512" fill="none" xmlns="http://www.w3.org/2000/svg">
<rect width="512" height="512" fill="#A7FF00"/>
<path d="M134 178H167V242H146L134 178Z" fill="#E24713"/>
<path d="M378 178H345V242H366L378 178Z" fill="#E24713"/>
<rect x="207" y="346" width="98" height="54" fill="#E24713"/>
<path d="M64 400H448L480 512H32L64 400Z" fill="#F15824"/>
<rect x="166" y="106" width="180" height="240" fill="#F15824"/>
</svg>
</g><g id="layer2"><svg width="512" height="512" viewBox="0 0 512 512" fill="none" xmlns="http://www.w3.org/2000/svg">
<path d="M134 178H166V242H146L134 178Z" fill="#80573E"/>
<path d="M378 178H346V242H366L378 178Z" fill="#80573E"/>
<rect x="207" y="346" width="98" height="54" fill="#80573E"/>
<path d="M64 400H448L480 512H32L64 400Z" fill="#8B634A"/>
<rect x="136" y="456" width="240" height="56" fill="#AE7B5C"/>
<rect x="166" y="106" width="180" height="240" fill="#8B634A"/>
<rect x="207" y="242" width="98" height="104" fill="#AE7B5C"/>
<rect x="182" y="178" width="148" height="64" fill="#AE7B5C"/>
<path d="M232 252L240 238H272L280 252" stroke="#121212" stroke-width="6"/>
<path d="M260 266L272 258M252 266L240 258" stroke="#121212" stroke-width="6"/>
</svg>
</g><g id="layer3"><svg></svg></g><g id="layer4"><svg width="512" height="512" viewBox="0 0 512 512" fill="none" xmlns="http://www.w3.org/2000/svg">
<path d="M64 400H448L480 512H32L64 400Z" fill="#F15824"/>
<path fill-rule="evenodd" clip-rule="evenodd" d="M116 69H396V400H116V69ZM207 363V346H166V179L254.5 145.5L346 179V346H305V364L256 379.5L207 363Z" fill="#121212"/>
<path d="M64 400H448L480 512H32L64 400Z" fill="#121212"/>
<path d="M326 456L333.629 480H337.857L330.292 456H326ZM362.078 456L354.068 480H358.36L366.307 456H362.079H362.078ZM339.653 468.652H345.853L339.113 477.139V480H352.591V475.899H346.018L352.814 467.412V464.551H339.653V468.652Z" fill="#2D2D2D"/>
<path d="M227 400V431" stroke="#5B6062" stroke-width="6"/>
<path d="M285 400V456" stroke="#5B6062" stroke-width="6"/>
<rect x="270.857" y="466" width="20" height="20" transform="rotate(-45 270.857 466)" fill="#5B6062"/>
<rect x="212.857" y="438" width="20" height="20" transform="rotate(-45 212.857 438)" fill="#5B6062"/>
</svg>
</g><g id="layer5"><svg width="512" height="512" viewBox="0 0 512 512" fill="none" xmlns="http://www.w3.org/2000/svg">
<rect x="236" y="322" width="40" height="24" fill="#121212"/>
<path d="M166 286H207V346H166V286Z" fill="#121212"/>
<path d="M346 286H305V346H346V286Z" fill="#121212"/>
</svg>
</g><g id="layer6"><svg width="512" height="512" viewBox="0 0 512 512" fill="none" xmlns="http://www.w3.org/2000/svg">
<path d="M228 282H261.5H284" stroke="#121212" stroke-width="6"/>
<path d="M284 301.25V282H261.5V301.25C261.5 307.463 266.537 312.5 272.75 312.5C278.963 312.5 284 307.463 284 301.25Z" fill="#D22D27" stroke="#121212" stroke-width="6"/>
</svg>
</g><g id="layer7"><svg width="512" height="512" viewBox="0 0 512 512" fill="none" xmlns="http://www.w3.org/2000/svg">
<circle cx="10" cy="10" r="10" transform="matrix(1 0 0 -1 212 214)" fill="#121212"/>
<circle cx="10" cy="10" r="10" transform="matrix(1 0 0 -1 280 214)" fill="#121212"/>
<g>
<animateTransform attributeName="transform" type="translate" values="0 0; 0 0; 0 -16;0 0;0 -16; 0 0;0 0" keyTimes="0;0;0.04;0.08;0.12;0.16;1" dur="4s" repeatCount="indefinite"/>
<path d="M206 178H238" stroke="#121212" stroke-width="6"/>
<path d="M274 178H306" stroke="#121212" stroke-width="6"/>
</g>
</svg>
</g><g id="layer8"><svg width="512" height="512" viewBox="0 0 512 512" fill="none" xmlns="http://www.w3.org/2000/svg">
<path d="M192 203V203C192 218.464 204.536 231 220 231V231C235.464 231 248 218.464 248 203V203C248 187.536 235.464 175 220 175V175V175C204.536 175 192 187.536 192 203V203ZM192 203L164 176" stroke="#121212" fill="#FFD600" fill-opacity="40%" stroke-width="6"/>
<path d="M248 202H264" stroke="#121212" stroke-width="6"/>
<path d="M320 203V203C320 187.536 307.464 175 292 175V175V175C276.536 175 264 187.536 264 203V203C264 218.464 276.536 231 292 231V231C307.464 231 320 218.464 320 203V203ZM320 203L348 176" stroke="#121212" fill="#FFD600" fill-opacity="40%" stroke-width="6"/>
<mask id="mask0_140_21" style="mask-type:alpha" maskUnits="userSpaceOnUse" x="267" y="178" width="50" height="50">
<circle cx="292" cy="203" r="25" fill="#FFD600" />
</mask>
<g mask="url(#mask0_140_21)">
<path d="M275.545 178H286L273.455 228H263L275.545 178Z" fill="#FFFFFF">
<animateTransform attributeName="transform" type="translate" dur="4s" repeatCount="indefinite" keyTimes="0;0.8;1" values="-32 0;-32 0;48 0" />
</path>
</g>
<mask id="mask1_140_21" style="mask-type:alpha" maskUnits="userSpaceOnUse" x="195" y="178" width="50" height="50">
<circle cx="220" cy="203" r="25" fill="#FFD600" />
</mask>
<g mask="url(#mask1_140_21)">
<path d="M203.545 178H214L201.455 228H191L203.545 178Z" fill="#FFFFFF">
<animateTransform attributeName="transform" type="translate" dur="4s" repeatCount="indefinite" keyTimes="0;0.8;1" values="-32 0;-32 0;48 0" />
</path>
</g>
</svg>
</g></svg>