<svg xmlns="http://www.w3.org/2000/svg" viewBox="0 0 500 500"><g id="layer1"><svg width="512" height="512" viewBox="0 0 512 512" fill="none" xmlns="http://www.w3.org/2000/svg">
<rect width="512" height="512" fill="#0047FF"/>
<path d="M134 178H167V242H146L134 178Z" fill="#E24713"/>
<path d="M378 178H345V242H366L378 178Z" fill="#E24713"/>
<rect x="207" y="346" width="98" height="54" fill="#E24713"/>
<path d="M64 400H448L480 512H32L64 400Z" fill="#F15824"/>
<rect x="166" y="106" width="180" height="240" fill="#F15824"/>
</svg>
</g><g id="layer2"><svg width="512" height="512" viewBox="0 0 512 512" fill="none" xmlns="http://www.w3.org/2000/svg">
<path d="M134 178H166V242H146L134 178Z" fill="#E24713"/>
<path d="M378 178H346V242H366L378 178Z" fill="#E24713"/>
<rect x="207" y="346" width="98" height="54" fill="#E24713"/>
<path d="M64 400H448L480 512H32L64 400Z" fill="#F15824"/>
<rect x="166" y="106" width="180" height="240" fill="#F15824"/>
<path d="M256 218L266 258H246" stroke="#121212" stroke-width="6"/>
</svg>
</g><g id="layer3"><svg width="512" height="512" viewBox="0 0 512 512" fill="none" xmlns="http://www.w3.org/2000/svg">
<path d="M256 76C218.997 76 189 105.997 189 143H323C323 105.997 293.003 76 256 76Z" fill="#ECECEC"/>
<path d="M142 106H370L346 162H166L142 106Z" fill="white"/>
</svg>
</g><g id="layer4"><svg width="512" height="512" viewBox="0 0 512 512" fill="none" xmlns="http://www.w3.org/2000/svg">
<path d="M64 400H448L480 512H32L64 400Z" fill="#F15824"/>
<path d="M207 400H305V374H257H207V400Z" fill="#ECECEC"/>
<path d="M207 512H305V400H257H207V512Z" fill="white"/>
<path d="M256 374V512" stroke="#D8D8D8" stroke-width="6"/>
<circle cx="274" cy="442" r="6" fill="#121212"/>
<circle cx="274" cy="482" r="6" fill="#121212"/>
<path d="M256 400L215 378V422L256 400Z" fill="#121212"/>
<path d="M256 400L297 378V422L256 400Z" fill="#121212"/>
<path d="M64 400H176V512H32L64 400Z" fill="#121212"/>
<path d="M448 400H336V512H480L448 400Z" fill="#121212"/>
<path d="M137 400H207V512H166L137 456.5L166 435L137 400Z" fill="#202020"/>
<path d="M375 400H305V512H346L375 456.5L346 435L375 400Z" fill="#202020"/>
<rect x="344" y="451" width="20" height="24" transform="rotate(30 344 451)" fill="#D22D27"/>
<path d="M340.66 476.784L328.66 497.569" stroke="#42B06C" stroke-width="6"/>
</svg>
</g><g id="layer5"><svg></svg></g><g id="layer6"><svg width="512" height="512" viewBox="0 0 512 512" fill="none" xmlns="http://www.w3.org/2000/svg">
<path d="M230.711 302H280" stroke="#121212" stroke-width="6"/>
<path d="M271 325C282.046 325 291 316.046 291 305H251C251 316.046 259.954 325 271 325Z" fill="#FF00B1"/>
<path d="M271 319C278.732 319 285 312.732 285 305H257C257 312.732 263.268 319 271 319Z" fill="#AD00FF"/>
<path d="M271 313C275.418 313 279 309.418 279 305H263C263 309.418 266.582 313 271 313Z" fill="#FFB039"/>
<path d="M251 302H248V305C248 317.703 258.297 328 271 328C283.703 328 294 317.703 294 305V302H291H251Z" stroke="#1D1D1D" stroke-width="6"/>
<path d="M284.229 320L330 369" stroke="#1D1D1D" stroke-width="6">
<animateTransform attributeName="transform" type="rotate" dur="4s" repeatCount="indefinite" keyTimes="0;0.1;0.5;0.6;1" values="0 270 300;90 270 300;90 270 300; 0 270 300; 0 270 300;" />
</path>
</svg>
</g><g id="layer7"><svg width="512" height="512" viewBox="0 0 512 512" fill="none" xmlns="http://www.w3.org/2000/svg">
    <rect x="212" y="194" width="20" height="20" rx="10" fill="#121212"/>
    <rect x="280" y="194" width="20" height="20" rx="10" fill="#121212">
        <animate attributeName="y" dur="4s" repeatCount="indefinite" keyTimes="0;0.475;0.5;0.575;0.6;1" values="194;194;203;203;194;194" />
        <animate attributeName="height" dur="4s" repeatCount="indefinite" keyTimes="0;0.475;0.5;0.575;0.6;1" values="20;20;2;2;20;20" />
        <animate attributeName="rx" dur="4s" repeatCount="indefinite" keyTimes="0;0.475;0.5;0.575;0.6;1" values="10;10;1;1;10;10" />
    </rect>
    <path id="path1" d="M206 162H238" stroke="#121212" stroke-width="6"/>
    <g transform="translate(0,0)">
        <path id="path2" d="M274 162H306" stroke="#121212" stroke-width="6">
            <animateTransform attributeName="transform" type="translate" begin="0s" dur="4s" repeatCount="indefinite" keyTimes="0;0.475;0.5;0.575;0.6;1" values="0 0;0 0;0 5;0 5;0 0;0 0" />
            <animateTransform attributeName="transform" type="rotate" begin="0s" dur="4s" repeatCount="indefinite" keyTimes="0;0.475;0.5;0.575;0.6;1" values="0 274 162;0 274 162;10 274 162;10 274 162;0 274 162;0 274 162" additive="sum" />
        </path>
    </g>
</svg>
</g><g id="layer8"><svg width="512" height="512" viewBox="0 0 512 512" fill="none" xmlns="http://www.w3.org/2000/svg">
<path d="M192 203V203C192 218.464 204.536 231 220 231V231C235.464 231 248 218.464 248 203V203C248 187.536 235.464 175 220 175V175V175C204.536 175 192 187.536 192 203V203ZM192 203L164 176" stroke="#121212" stroke-width="6"/>
<path d="M248 202H264" stroke="#121212" stroke-width="6"/>
<path d="M320 203V203C320 187.536 307.464 175 292 175V175V175C276.536 175 264 187.536 264 203V203C264 218.464 276.536 231 292 231V231C307.464 231 320 218.464 320 203V203ZM320 203L348 176" stroke="#121212" stroke-width="6"/>
<mask id="mask0_140_21" style="mask-type:alpha" maskUnits="userSpaceOnUse" x="267" y="178" width="50" height="50">
<circle cx="292" cy="203" r="25" fill="#D9D9D9"/>
</mask>
<g mask="url(#mask0_140_21)">
<path d="M275.545 178H286L273.455 228H263L275.545 178Z" fill="#D9D9D9">
<animateTransform attributeName="transform" type="translate" dur="4s" repeatCount="indefinite" keyTimes="0;0.8;1" values="-32 0;-32 0;48 0" />
</path>
</g>
<mask id="mask1_140_21" style="mask-type:alpha" maskUnits="userSpaceOnUse" x="195" y="178" width="50" height="50">
<circle cx="220" cy="203" r="25" fill="#D9D9D9"/>
</mask>
<g mask="url(#mask1_140_21)">
<path d="M203.545 178H214L201.455 228H191L203.545 178Z" fill="#D9D9D9">
<animateTransform attributeName="transform" type="translate" dur="4s" repeatCount="indefinite" keyTimes="0;0.8;1" values="-32 0;-32 0;48 0" />
</path>
</g>
</svg>
</g></svg>