<svg xmlns="http://www.w3.org/2000/svg" viewBox="0 0 500 500"><g id="layer1"><svg width="512" height="512" viewBox="0 0 512 512" fill="none" xmlns="http://www.w3.org/2000/svg">
<rect width="512" height="512" fill="#FF9900"/>
<path d="M134 178H167V242H146L134 178Z" fill="#E24713"/>
<path d="M378 178H345V242H366L378 178Z" fill="#E24713"/>
<rect x="207" y="346" width="98" height="54" fill="#E24713"/>
<path d="M64 400H448L480 512H32L64 400Z" fill="#F15824"/>
<rect x="166" y="106" width="180" height="240" fill="#F15824"/>
</svg>
</g><g id="layer2"><svg width="512" height="512" viewBox="0 0 512 512" fill="none" xmlns="http://www.w3.org/2000/svg">
<mask id="mask0_34_133" style="mask-type:alpha" maskUnits="userSpaceOnUse" x="32" y="106" width="448" height="406">
<path fill-rule="evenodd" clip-rule="evenodd" d="M207 346H166V242H146L134 178H166L166 106L346 106V178H378L366 242H346V346L305 346V400H448L480 512H32L64 400H207V346Z" fill="#F15824"/>
</mask>
<g mask="url(#mask0_34_133)">
<circle cx="256" cy="-40" r="950" fill="#F15824">
<animate attributeName="cy" values="-40;-400;-40" keyTimes="0;0.5;1" dur="20s" repeatCount="indefinite"/>
</circle>
<circle cx="256" cy="-40" r="900" fill="#C2FD52">
<animate attributeName="cy" values="-40;-400;-40" keyTimes="0;0.5;1" dur="20s" repeatCount="indefinite"/>
</circle>
<circle cx="256" cy="-40" r="850" fill="#AD00FF">
<animate attributeName="cy" values="-40;-400;-40" keyTimes="0;0.5;1" dur="20s" repeatCount="indefinite"/>
</circle>
<circle cx="256" cy="-40" r="800" fill="#00A8FF">
<animate attributeName="cy" values="-40;-400;-40" keyTimes="0;0.5;1" dur="20s" repeatCount="indefinite"/>
</circle>
<circle cx="256" cy="-40" r="750" fill="#C2FD52">
<animate attributeName="cy" values="-40;-400;-40" keyTimes="0;0.5;1" dur="20s" repeatCount="indefinite"/>
</circle>
<circle cx="256" cy="-40" r="700" fill="#D22D27">
<animate attributeName="cy" values="-40;-400;-40" keyTimes="0;0.5;1" dur="20s" repeatCount="indefinite"/>
</circle>
<circle cx="256" cy="-40" r="650" fill="#FFB74A">
<animate attributeName="cy" values="-40;-400;-40" keyTimes="0;0.5;1" dur="20s" repeatCount="indefinite"/>
</circle>
<circle cx="256" cy="-40" r="600" fill="#F15824">
<animate attributeName="cy" values="-40;-400;-40" keyTimes="0;0.5;1" dur="20s" repeatCount="indefinite"/>
</circle>
<circle cx="256" cy="-40" r="550" fill="#C2FD52">
<animate attributeName="cy" values="-40;-400;-40" keyTimes="0;0.5;1" dur="20s" repeatCount="indefinite"/>
</circle>
<circle cx="256" cy="-40" r="500" fill="#FF00B1">
<animate attributeName="cy" values="-40;-400;-40" keyTimes="0;0.5;1" dur="20s" repeatCount="indefinite"/>
</circle>
<circle cx="256" cy="-40" r="450" fill="#AD00FF">
<animate attributeName="cy" values="-40;-400;-40" keyTimes="0;0.5;1" dur="20s" repeatCount="indefinite"/>
</circle>
<circle cx="256" cy="-40" r="400" fill="#00A8FF">
<animate attributeName="cy" values="-40;-400;-40" keyTimes="0;0.5;1" dur="20s" repeatCount="indefinite"/>
</circle>
<circle cx="256" cy="-40" r="350" fill="#C2FD52">
<animate attributeName="cy" values="-40;-400;-40" keyTimes="0;0.5;1" dur="20s" repeatCount="indefinite"/>
</circle>
<circle cx="256" cy="-40" r="300" fill="#D22D27">
<animate attributeName="cy" values="-40;-400;-40" keyTimes="0;0.5;1" dur="20s" repeatCount="indefinite"/>
</circle>
<circle cx="256" cy="-40" r="250" fill="#FFB74A">
<animate attributeName="cy" values="-40;-400;-40" keyTimes="0;0.5;1" dur="20s" repeatCount="indefinite"/>
</circle>
<circle cx="256" cy="-40" r="200" fill="#F15824">
<animate attributeName="cy" values="-40;-400;-40" keyTimes="0;0.5;1" dur="20s" repeatCount="indefinite"/>
</circle>
</g>
<path d="M256 218L266 258H246" stroke="#121212" stroke-width="6"/>
</svg>
</g><g id="layer3"><svg width="512" height="512" viewBox="0 0 512 512" fill="none" xmlns="http://www.w3.org/2000/svg">
<path d="M166 120H346L358 104L346 72L256 48L166 72L154 104L166 120Z" fill="#121212"/>
<rect width="180" height="12" transform="matrix(1 0 0 -1 166 132)" fill="#525252"/>
<path d="M185.998 156H365.999L345.999 132H165.998L185.998 156Z" fill="#121212"/>
<ellipse cx="257.033" cy="64.6934" rx="12" ry="6" fill="#525252"/>
</svg>
</g><g id="layer4"><svg width="512" height="512" viewBox="0 0 512 512" fill="none" xmlns="http://www.w3.org/2000/svg">
<g clip-path="url(#clip0_611_17134)">
<path d="M207 512H305V439H257H207V512Z" fill="white"/>
<path d="M207 439V400L257 439H207Z" fill="#C9C9C9"/>
<path d="M305 439V400L257 439H305Z" fill="#C9C9C9"/>
<path d="M241 439H273L265 455H249L241 439Z" fill="#001D55"/>
<path d="M241 512H273L265 455H249L241 512Z" fill="#001D55"/>
<path d="M64 400H192L252 512H32L64 400Z" fill="white"/>
<path d="M176.5 400V512" stroke="#121221" stroke-width="6"/>
<path d="M174 400H207L252 512H239.5L151 450.5L166 432L151 419.5L174 400Z" fill="#ECECEC"/>
<path d="M448 400H326L258 512H480L448 400Z" fill="white"/>
<path d="M340 400L340 494" stroke="#121221" stroke-width="6"/>
<path d="M376 531.5V528C376 508.118 359.882 492 340 492V492C320.118 492 304 508.118 304 528V531.5" stroke="#121221" stroke-width="6"/>
<path d="M344 400H305L258 512H278.5L367 455.5L352 432L367 419.5L344 400Z" fill="#ECECEC"/>
<circle cx="177" cy="512" r="16" fill="#112211"/>
</g>
<defs>
<clipPath id="clip0_611_17134">
<rect width="512" height="512" fill="white"/>
</clipPath>
</defs>
</svg>
</g><g id="layer5"><svg></svg></g><g id="layer6"><svg width="512" height="512" viewBox="0 0 512 512" fill="none" xmlns="http://www.w3.org/2000/svg">
<path d="M246 289.391C246 289.391 258.823 284.011 262 289.391C265.153 294.732 254.5 303.391 254.5 303.391C254.5 303.391 267.632 299.309 270.5 304.891C273.719 311.156 258 317.891 258 317.891" stroke="#121212" stroke-width="6"/>
</svg>
</g><g id="layer7"><svg width="512" height="512" viewBox="0 0 512 512" fill="none" xmlns="http://www.w3.org/2000/svg">
    <rect x="212" y="194" width="20" height="20" rx="10" fill="#121212">
        <animate attributeName="rx" values="10;10;1;10;10;1;10;10" keyTimes="0;0.275;0.3;0.325;0.725;0.75;0.775;1" dur="4s" repeatCount="indefinite" />
    <animate attributeName="height" values="20;20;2;20;20;2;20;20" keyTimes="0;0.275;0.3;0.325;0.725;0.75;0.775;1" dur="4s" repeatCount="indefinite" />
    <animate attributeName="y" values="194;194;203;194;194;203;194;194" keyTimes="0;0.275;0.3;0.325;0.725;0.75;0.775;1" dur="4s" repeatCount="indefinite" />
    </rect>
    <rect x="280" y="194" width="20" height="20" rx="10" fill="#121212">
        <animate attributeName="rx" values="10;10;1;10;10;1;10;10;" keyTimes="0;0.275;0.3;0.325;0.725;0.75;0.775;1" dur="4s" repeatCount="indefinite" />
    <animate attributeName="height" values="20;20;2;20;20;2;20;20" keyTimes="0;0.275;0.3;0.325;0.725;0.75;0.775;1" dur="4s" repeatCount="indefinite" />
    <animate attributeName="y" values="194;194;203;194;194;203;194;194" keyTimes="0;0.275;0.3;0.325;0.725;0.75;0.775;1" dur="4s" repeatCount="indefinite" />
    </rect>
    <path d="M206 197H238" stroke="#121212" stroke-width="6"/>
    <path d="M274 197H306" stroke="#121212" stroke-width="6"/>
</svg>
</g><g id="layer8"><svg width="512" height="512" viewBox="0 0 512 512" fill="none" xmlns="http://www.w3.org/2000/svg">
<path d="M192 203V203C192 218.464 204.536 231 220 231V231C235.464 231 248 218.464 248 203V203C248 187.536 235.464 175 220 175V175V175C204.536 175 192 187.536 192 203V203ZM192 203L164 176" stroke="#121212" stroke-width="6"/>
<path d="M248 202H264" stroke="#121212" stroke-width="6"/>
<path d="M320 203V203C320 187.536 307.464 175 292 175V175V175C276.536 175 264 187.536 264 203V203C264 218.464 276.536 231 292 231V231C307.464 231 320 218.464 320 203V203ZM320 203L348 176" stroke="#121212" stroke-width="6"/>
<mask id="mask0_140_21" style="mask-type:alpha" maskUnits="userSpaceOnUse" x="267" y="178" width="50" height="50">
<circle cx="292" cy="203" r="25" fill="#D9D9D9"/>
</mask>
<g mask="url(#mask0_140_21)">
<path d="M275.545 178H286L273.455 228H263L275.545 178Z" fill="#D9D9D9">
<animateTransform attributeName="transform" type="translate" dur="4s" repeatCount="indefinite" keyTimes="0;0.8;1" values="-32 0;-32 0;48 0" />
</path>
</g>
<mask id="mask1_140_21" style="mask-type:alpha" maskUnits="userSpaceOnUse" x="195" y="178" width="50" height="50">
<circle cx="220" cy="203" r="25" fill="#D9D9D9"/>
</mask>
<g mask="url(#mask1_140_21)">
<path d="M203.545 178H214L201.455 228H191L203.545 178Z" fill="#D9D9D9">
<animateTransform attributeName="transform" type="translate" dur="4s" repeatCount="indefinite" keyTimes="0;0.8;1" values="-32 0;-32 0;48 0" />
</path>
</g>
</svg>
</g></svg>