<svg xmlns="http://www.w3.org/2000/svg" viewBox="0 0 500 500"><g id="layer1"><svg width="512" height="512" viewBox="0 0 512 512" fill="none" xmlns="http://www.w3.org/2000/svg">
<rect width="512" height="512" fill="#FF9900"/>
<path d="M134 178H167V242H146L134 178Z" fill="#E24713"/>
<path d="M378 178H345V242H366L378 178Z" fill="#E24713"/>
<rect x="207" y="346" width="98" height="54" fill="#E24713"/>
<path d="M64 400H448L480 512H32L64 400Z" fill="#F15824"/>
<rect x="166" y="106" width="180" height="240" fill="#F15824"/>
</svg>
</g><g id="layer2"><svg width="512" height="512" viewBox="0 0 512 512" fill="none" xmlns="http://www.w3.org/2000/svg">
<path d="M134 178H166V242H146L134 178Z" fill="#E24713"/>
<path d="M378 178H346V242H366L378 178Z" fill="#E24713"/>
<rect x="207" y="346" width="98" height="54" fill="#E24713"/>
<path d="M64 400H448L480 512H32L64 400Z" fill="#F15824"/>
<rect x="166" y="106" width="180" height="240" fill="#F15824"/>
<path d="M256 218L266 258H246" stroke="#121212" stroke-width="6"/>
</svg>
</g><g id="layer3"><svg width="512" height="512" viewBox="0 0 512 512" fill="none" xmlns="http://www.w3.org/2000/svg">
<rect width="180" height="80" transform="matrix(1 0 0 -1 166 166)" fill="#EBEBEB"/>
<rect width="180" height="24" transform="matrix(1 0 0 -1 166 242)" fill="#EBEBEB"/>
<path d="M244 166H268V270H256H244V166Z" fill="#EBEBEB"/>
<path d="M166 166H190V306H166V241.423V166Z" fill="#EBEBEB"/>
<path d="M346 166H322V306H346V241.423V166Z" fill="#EBEBEB"/>
</svg>
</g><g id="layer4"><svg width="512" height="512" viewBox="0 0 512 512" fill="none" xmlns="http://www.w3.org/2000/svg">
<rect x="207" y="372" width="36" height="28" fill="#121212"/>
<rect x="235" y="372" width="8" height="28" fill="white"/>
<rect x="269" y="372" width="36" height="28" fill="#121212"/>
<path d="M64 400H448L480 512H32L64 400Z" fill="#F15824"/>
<path d="M64 400H448L480 512H32L64 400Z" fill="#121212"/>
<path d="M203 400L203 512" stroke="#42B06C" stroke-width="6"/>
<path d="M309 400L309 512" stroke="#42B06C" stroke-width="6"/>
<path d="M64 400H207V512H32L64 400Z" fill="#42B06C"/>
<path d="M448 400H305V512H480L448 400Z" fill="#42B06C"/>
<path d="M103 400H151V456H103V400Z" fill="#121212"/>
<path d="M409 400H361V456H409V400Z" fill="#121212"/>
<path d="M55 456H103V512H55V456Z" fill="#121212"/>
<path d="M457 456H409V512H457V456Z" fill="#121212"/>
<path d="M151 456H199V512H151V456Z" fill="#121212"/>
<path d="M361 456H313V512H361V456Z" fill="#121212"/>
<circle cx="256" cy="430" r="6" fill="#FFD600"/>
<circle cx="256" cy="466" r="6" fill="#FFD600"/>
<circle cx="256" cy="502" r="6" fill="#FFD600"/>
<rect x="269" y="372" width="8" height="28" fill="white"/>
</svg>
</g><g id="layer5"><svg width="512" height="512" viewBox="0 0 512 512" fill="none" xmlns="http://www.w3.org/2000/svg">
<path fill-rule="evenodd" clip-rule="evenodd" d="M207 346V271H305V346H256H207ZM219 283H293V315H219V283Z" fill="#121212"/>
</svg>
</g><g id="layer6"><svg width="512" height="512" viewBox="0 0 512 512" fill="none" xmlns="http://www.w3.org/2000/svg">
<rect x="238" y="298" width="36" height="4" rx="2" fill="white">
  <animate attributeName="y" dur="4s" repeatCount="indefinite" keyTimes="0;0.05;0.1;0.75;0.8;1" values="298;298;282;282;298;298" />
  <animate attributeName="height" dur="4s" repeatCount="indefinite" keyTimes="0;0.05;0.1;0.75;0.8;1" values="4;4;36;36;4;4" />
  <animate attributeName="rx" dur="4s" repeatCount="indefinite" keyTimes="0;0.05;0.1;0.75;0.8;1" values="2;2;18;18;2;2" />
</rect>
</svg>
</g><g id="layer7"><svg width="512" height="512" viewBox="0 0 512 512" fill="none" xmlns="http://www.w3.org/2000/svg">
    <rect x="212" y="194" width="20" height="20" rx="10" fill="#121212">
        <animate attributeName="x" values="206;218;218;206;206" keyTimes="0;0.05;0.5;0.55;1" dur="4s" repeatCount="indefinite" />
    </rect>
    <rect x="280" y="194" width="20" height="20" rx="10" fill="#121212">
        <animate attributeName="x" values="274;286;286;274;274" keyTimes="0;0.05;0.5;0.55;1" dur="4s" repeatCount="indefinite" />
    </rect>
    <path d="M206 197H238" stroke="#121212" stroke-width="6"/>
    <path d="M274 197H306" stroke="#121212" stroke-width="6"/>
</svg>
</g><g id="layer8"><svg width="512" height="512" viewBox="0 0 512 512" fill="none" xmlns="http://www.w3.org/2000/svg">
<path d="M166 178H242L250 186L234 231L166 211V178Z" fill="#121212"/>
<path d="M346 178H270L262 186L278 231L346 211V178Z" fill="#121212"/>
<rect x="242" y="178" width="28" height="12" fill="#121212"/>
<mask id="mask0_147_68" style="mask-type:alpha" maskUnits="userSpaceOnUse" x="171" y="187" width="74" height="38">
<path d="M171 187H245L239.02 202.647L231.545 225L171 207.863V187Z" fill="#121212"/>
</mask>
<g mask="url(#mask0_147_68)">
<path d="M178.202 182.842H189.685L175.905 238.104H164.422L178.202 182.842Z" fill="#D9D9D9">
<animateTransform attributeName="transform" type="translate" dur="4s" repeatCount="indefinite" keyTimes="0;0.8;1" values="-32 0;-32 0;68 0" />
</path>
</g>
<mask id="mask1_147_68" style="mask-type:alpha" maskUnits="userSpaceOnUse" x="267" y="187" width="74" height="39">
<path d="M341 187.118H267.185L273.15 202.776L280.606 225.144L341 207.995V187.118Z" fill="#121212"/>
</mask>
<g mask="url(#mask1_147_68)">
<path d="M285.951 185.627H275.106L288.12 237.819H298.965L285.951 185.627Z" fill="#D9D9D9">
<animateTransform attributeName="transform" type="translate" dur="4s" repeatCount="indefinite" keyTimes="0;0.8;1" values="-32 0;-32 0;68 0" />
</path>
</g>
</svg>
</g></svg>