<svg width="512" height="512" viewBox="0 0 512 512" fill="none" xmlns="http://www.w3.org/2000/svg">
<path d="M120.5 230.5C113.7 112.5 162.5 37.5 254 37.5C365 37.5 402.914 117.805 395.5 230.5C393.102 266.953 394.841 343.582 395.364 363.943C395.431 366.541 393.076 368.479 390.532 367.948C375.31 364.772 329.101 355.5 308.5 355.5V334C308.5 334 337.841 314.643 346 295C353.715 276.426 348 245 348 245C348 245 361.89 249.451 365 242.5C373.5 223.5 382 200.5 373.5 184C368.224 173.759 345 182 345 182C345 182 341.5 148 330.5 152.5C275.277 175.091 225.5 166 179.5 154C169.34 151.35 166.5 187.774 165.5 187C150 175 137.56 182.5 137 184.5C133.5 197 137.887 236.494 147.5 242.5C154.455 246.845 162.5 245 162.5 245C162.5 245 157.744 277.623 166 296C174.659 315.273 204.5 334 204.5 334V355.5C185.529 355.5 140.443 364.743 125.446 367.933C122.91 368.472 120.552 366.548 120.602 363.956C121.008 343.12 122.392 263.323 120.5 230.5Z" fill="#121212"/>
</svg>
