<svg xmlns="http://www.w3.org/2000/svg" viewBox="0 0 500 500"><g id="layer1"><svg width="512" height="512" viewBox="0 0 512 512" fill="none" xmlns="http://www.w3.org/2000/svg">
<rect width="512" height="512" fill="#007089"/>
<path d="M134 178H167V242H146L134 178Z" fill="#E24713"/>
<path d="M378 178H345V242H366L378 178Z" fill="#E24713"/>
<rect x="207" y="346" width="98" height="54" fill="#E24713"/>
<path d="M64 400H448L480 512H32L64 400Z" fill="#F15824"/>
<rect x="166" y="106" width="180" height="240" fill="#F15824"/>
</svg>
</g><g id="layer2"><svg width="512" height="512" viewBox="0 0 512 512" fill="none" xmlns="http://www.w3.org/2000/svg">
<path d="M134 178H166V242H146L134 178Z" fill="#0097D8"/>
<path d="M378 178H346V242H366L378 178Z" fill="#0097D8"/>
<rect x="207" y="346" width="98" height="54" fill="#0097D8"/>
<path d="M64 400H448L480 512H32L64 400Z" fill="#00B2FF"/>
<path d="M42.0001 477L35.4287 500L105 477H42.0001Z" fill="#2C71A3"/>
<path d="M476.286 499L470.286 478H405L476.286 499Z" fill="#2C71A3"/>
<path d="M466.429 464.5L460.857 445H425.5L466.429 464.5Z" fill="#2C71A3"/>
<path d="M51.1427 445L45.5713 464.5L86 445H51.1427Z" fill="#2C71A3"/>
<rect x="166" y="106" width="180" height="240" fill="#00B2FF"/>
<path d="M96 400H80L96 425V400Z" fill="#2C71A3"/>
<path d="M198 106H182L198 130V106Z" fill="#2C71A3"/>
<path d="M230 106H214L230 146V106Z" fill="#2C71A3"/>
<path d="M342 400H326V440L342 400Z" fill="#2C71A3"/>
<path d="M141 400H125L141 432V400Z" fill="#2C71A3"/>
<path d="M264 106H248L256 212L264 106Z" fill="#2C71A3"/>
<path d="M387 400H371V430.5L387 400Z" fill="#2C71A3"/>
<path d="M186 400H170L186 440V400Z" fill="#2C71A3"/>
<path d="M330 106H314V130L330 106Z" fill="#2C71A3"/>
<path d="M298 106H282V146L298 106Z" fill="#2C71A3"/>
<path d="M432 400H416V424L432 400Z" fill="#2C71A3"/>
<path d="M197.5 224.5L166 194V210L197.5 224.5Z" fill="#2C71A3"/>
<path d="M190 176.5L166 146V162L190 176.5Z" fill="#2C71A3"/>
<path d="M192 289L166 281V297L192 289Z" fill="#2C71A3"/>
<path d="M320 289L346 281V297L320 289Z" fill="#2C71A3"/>
<path d="M295 358L207 352V364L295 358Z" fill="#2C71A3"/>
<path d="M295 388L207 382V394L295 388Z" fill="#2C71A3"/>
<path d="M217 373L305 367V379L217 373Z" fill="#2C71A3"/>
<path d="M314 223.5L346 193V209L314 223.5Z" fill="#2C71A3"/>
<path d="M322 176.5L346 146V162L322 176.5Z" fill="#2C71A3"/>
<path d="M206 277.5L166 242V258L206 277.5Z" fill="#2C71A3"/>
<path d="M206 301L166 333V320.2L206 301Z" fill="#2C71A3"/>
<path d="M306 277.5L346 242V258L306 277.5Z" fill="#2C71A3"/>
<path d="M306 301L346 333V320.2L306 301Z" fill="#2C71A3"/>
<path d="M256 218L266 258H246" stroke="#121212" stroke-width="6"/>
</svg>
</g><g id="layer3"><svg width="512" height="512" viewBox="0 0 512 512" fill="none" xmlns="http://www.w3.org/2000/svg">
<path d="M166 106H346V178L332 167C332 167 334.663 154.05 332 146.5C327.172 132.813 315.514 126 301 126C278.5 126 256 155 256 155C256 155 229 126 211 126C196.971 126 186.176 133.273 181.5 146.5C178.832 154.048 181.5 167 181.5 167L166 178V106Z" fill="#121212"/>
</svg>
</g><g id="layer4"><svg width="512" height="512" viewBox="0 0 512 512" fill="none" xmlns="http://www.w3.org/2000/svg">
<path d="M157 400H207L372 512H319L157 400Z" fill="white"/>
<path d="M448 400H336L171 512H480L448 400Z" fill="#454545"/>
<path d="M355 400H305L140 512H193L355 400Z" fill="white"/>
<path d="M386 400H336L171 512H224L386 400Z" fill="#202020"/>
<path d="M64 400H176L341 512H32L64 400Z" fill="#454545"/>
<path d="M126 400H176L341 512H288L126 400Z" fill="#202020"/>
<path d="M64 400H176V512H32L64 400Z" fill="#121212"/>
<path d="M140 400L140 512" stroke="#202020" stroke-width="6"/>
<path d="M448 400H336V512H480L448 400Z" fill="#121212"/>
<path d="M372 400L372 512" stroke="#202020" stroke-width="6"/>
</svg>
</g><g id="layer5"><svg width="512" height="512" viewBox="0 0 512 512" fill="none" xmlns="http://www.w3.org/2000/svg">
<path d="M166 266L206 286V346H166V266Z" fill="#121212"/>
<path d="M346 266L306 286V346H346V266Z" fill="#121212"/>
<rect x="206" y="322" width="100" height="24" fill="#121212"/>
</svg>
</g><g id="layer6"><svg width="512" height="512" viewBox="0 0 512 512" fill="none" xmlns="http://www.w3.org/2000/svg">
<path d="M230.711 302H280" stroke="#121212" stroke-width="6"/>
</svg>
</g><g id="layer7"><svg width="512" height="512" viewBox="0 0 512 512" fill="none" xmlns="http://www.w3.org/2000/svg">
  <path d="M206 162H238" stroke="#121212" stroke-width="6"/>
  <path d="M274 162H306" stroke="#121212" stroke-width="6"/>
  <g transform="translate(222,206.429)">
    <path d="M-10 -8.572L-3.571 -11.429L0 -8.513L3.571 -11.429L10 -8.572V-6.183V0L0 8.571L-10 0V-8.572Z" fill="#BA120C">
      <animateTransform attributeName="transform" type="scale" additive="sum" values="0.9 0.9; 1.25 1.25; 0.9 0.9" begin="0s;2s" dur="1s" repeatCount="indefinite" />
    </path>
  </g>
  <g transform="translate(290,205.429)">
    <path d="M-10 -8.572L-3.571 -11.429L0 -8.513L3.571 -11.429L10 -8.572V-6.183V0L0 8.571L-10 0V-8.572Z" fill="#BA120C">
      <animateTransform attributeName="transform" type="scale" additive="sum" values="0.9 0.9; 1.3 1.3; 0.9 0.9" begin="0s;2s" dur="1s" repeatCount="indefinite" />
    </path>
  </g>
</svg>
</g><g id="layer8"><svg width="512" height="512" viewBox="0 0 512 512" fill="none" xmlns="http://www.w3.org/2000/svg">
<path fill-rule="evenodd" clip-rule="evenodd" d="M191.902 149.155C164.845 153.718 148 178.232 148 205.67C148 235.178 167.302 262.947 196.81 263C209.076 263.022 221.301 261.094 230.328 255.247C235.39 251.968 238.114 248.026 240.554 244.494C244.141 239.303 247.114 235 256 235C264.886 235 267.859 239.303 271.446 244.494C273.886 248.026 276.61 251.968 281.672 255.247C290.699 261.094 302.924 263.022 315.19 263C344.698 262.947 364 235.178 364 205.67C364 178.232 347.155 153.718 320.098 149.155C303.115 146.291 281.547 144 256 144C230.453 144 208.885 146.291 191.902 149.155ZM198.719 172.11C184.104 174.524 174 187.405 174 202.218C174 216.943 183.992 230.025 198.65 231.425C210.777 232.584 224.446 232.359 232.311 227.244C234.953 225.526 237.508 223.034 240.099 220.508C245.002 215.727 250.03 210.824 256 210.824C261.97 210.824 266.998 215.727 271.901 220.508C274.492 223.034 277.047 225.526 279.689 227.244C287.554 232.359 301.223 232.584 313.35 231.425C328.008 230.025 338 216.943 338 202.218C338 187.405 327.896 174.524 313.281 172.11C297.921 169.574 277.129 167 256 167C234.871 167 214.079 169.574 198.719 172.11Z" fill="#121212"/>
<path d="M174 202.218C174 187.405 184.104 174.524 198.719 172.11C214.079 169.574 234.871 167 256 167C277.129 167 297.921 169.574 313.281 172.11C327.896 174.524 338 187.405 338 202.218C338 216.943 328.008 230.025 313.35 231.425C301.223 232.584 287.554 232.359 279.689 227.244C272.047 222.275 265.124 210.824 256 210.824C246.876 210.824 239.953 222.275 232.311 227.244C224.446 232.359 210.777 232.584 198.65 231.425C183.992 230.025 174 216.943 174 202.218Z" fill="#0047FF" fill-opacity="0.6">
<animate attributeName="fill" dur="4s" repeatCount="indefinite" keyTimes="0;0.25;0.5;0.75;1" values="#0732A0;#9129E3;#4378FF;#0732A0;#0732A0" />
</path>
</svg>
</g></svg>