<svg xmlns="http://www.w3.org/2000/svg" viewBox="0 0 500 500"><g id="layer1"><svg width="512" height="512" viewBox="0 0 512 512" fill="none" xmlns="http://www.w3.org/2000/svg">
<rect width="512" height="512" fill="#572828"/>
<path d="M134 178H167V242H146L134 178Z" fill="#E24713"/>
<path d="M378 178H345V242H366L378 178Z" fill="#E24713"/>
<rect x="207" y="346" width="98" height="54" fill="#E24713"/>
<path d="M64 400H448L480 512H32L64 400Z" fill="#F15824"/>
<rect x="166" y="106" width="180" height="240" fill="#F15824"/>
</svg>
</g><g id="layer2"><svg width="512" height="512" viewBox="0 0 512 512" fill="none" xmlns="http://www.w3.org/2000/svg">
<path d="M134 178H166V242H146L134 178Z" fill="#D5A300"/>
<path d="M378 178H346V242H366L378 178Z" fill="#D5A300"/>
<rect x="207" y="346" width="98" height="54" fill="#D5A300"/>
<path d="M64 400H448L480 512H32L64 400Z" fill="#E3B41A"/>
<rect x="166" y="106" width="180" height="240" fill="#E3B41A"/>
<path d="M256 218L266 258H246" stroke="#121212" stroke-width="6"/>
<mask id="mask0_151_133" style="mask-type:alpha" maskUnits="userSpaceOnUse" x="32" y="106" width="448" height="406">
<path d="M166 106H346.5V177.5H378L365.5 241.5H346.5V345.5H305V400.5H448L479.5 512H326.966H32L64 400.5H206.5V345.5H166V241.5H145.5L134 177.5H166V106Z" fill="#121212"/>
</mask>
<g mask="url(#mask0_151_133)">
<path d="M121 106H160L16.5454 512H-26L121 106Z" fill="#FFFFFF" fill-opacity="0.4">
<animateTransform attributeName="transform" type="translate" dur="4s" repeatCount="indefinite" keyTimes="0;0.8;1" values="0 0;0 0;500 0" />
</path>
</g>
</svg>
</g><g id="layer3"><svg width="512" height="512" viewBox="0 0 512 512" fill="none" xmlns="http://www.w3.org/2000/svg">
<rect width="180" height="68" transform="matrix(1 0 0 -1 166 142)" fill="#FFEE59"/>
<rect width="180" height="24" transform="matrix(1 0 0 -1 166 166)" fill="#E5C000"/>
<path d="M244 166H268V198L256 210L244 198V166Z" fill="#FFEE59"/>
<path d="M166 166H190V308C176.745 308 166 297.255 166 284V242.5V166Z" fill="#FFEE59"/>
<path d="M346 166H322V308C335.255 308 346 297.255 346 284V242.5V166Z" fill="#FFEE59"/>
<rect x="244" y="34" width="24" height="80" fill="#D22D27"/>
</svg>
</g><g id="layer4"><svg width="512" height="512" viewBox="0 0 512 512" fill="none" xmlns="http://www.w3.org/2000/svg">
<path d="M64 400H176V512H32L64 400Z" fill="white"/>
<path d="M448 400H336V512H480L448 400Z" fill="white"/>
<path d="M137 400H207V512H166L137 456.5L166 435L137 400Z" fill="#C9C9C9"/>
<path d="M375 400H305V512H346L375 456.5L346 435L375 400Z" fill="#C9C9C9"/>
<path d="M108 441L207 374.5V441V471L173 441H108Z" fill="#D22D27"/>
<path d="M404 441L305 374.5V441V471L339 441H404Z" fill="#D22D27"/>
</svg>
</g><g id="layer5"><svg></svg></g><g id="layer6"><svg width="512" height="512" viewBox="0 0 512 512" fill="none" xmlns="http://www.w3.org/2000/svg">
<path d="M230.711 302H280" stroke="#121212" stroke-width="6"/>
<path d="M271 325C282.046 325 291 316.046 291 305H251C251 316.046 259.954 325 271 325Z" fill="#FF00B1"/>
<path d="M271 319C278.732 319 285 312.732 285 305H257C257 312.732 263.268 319 271 319Z" fill="#AD00FF"/>
<path d="M271 313C275.418 313 279 309.418 279 305H263C263 309.418 266.582 313 271 313Z" fill="#FFB039"/>
<path d="M251 302H248V305C248 317.703 258.297 328 271 328C283.703 328 294 317.703 294 305V302H291H251Z" stroke="#1D1D1D" stroke-width="6"/>
<path d="M284.229 320L330 369" stroke="#1D1D1D" stroke-width="6">
<animateTransform attributeName="transform" type="rotate" dur="4s" repeatCount="indefinite" keyTimes="0;0.1;0.5;0.6;1" values="0 270 300;90 270 300;90 270 300; 0 270 300; 0 270 300;" />
</path>
</svg>
</g><g id="layer7"><svg width="512" height="512" viewBox="0 0 512 512" fill="none" xmlns="http://www.w3.org/2000/svg">
    <rect x="212" y="194" width="20" height="20" rx="10" fill="#121212">
        <animate attributeName="fill" dur="4s" repeatCount="indefinite" keyTimes="0;0.05;0.1;0.75;0.8;1" values="#121212;#121212;#BA120C;#BA120C;#121212;#121212" />
    </rect>
    <rect x="280" y="194" width="20" height="20" rx="10" fill="#121212">
        <animate attributeName="fill" dur="4s" repeatCount="indefinite" keyTimes="0;0.05;0.1;0.75;0.8;1" values="#121212;#121212;#BA120C;#BA120C;#121212;#121212" />
    </rect>
    <g transform="translate(0,0)">
        <path d="M206 162H238" stroke="#121212" stroke-width="6">
            <animateTransform attributeName="transform" type="translate" begin="0s" dur="4s" repeatCount="indefinite" keyTimes="0;0.05;0.1;0.75;0.8;1" values="0 0;0 0;2 12;2 12;0 0;0 0" />
            <animateTransform attributeName="transform" type="rotate" begin="0s" dur="4s" repeatCount="indefinite" keyTimes="0;0.05;0.1;0.75;0.8;1" values="0 222 162;0 222 162;30 222 162;30 222 162;0 222 162;0 222 162" additive="sum" />
        </path>
    </g>
    <g transform="translate(0,0)">
        <path d="M274 162H306" stroke="#121212" stroke-width="6">
            <animateTransform attributeName="transform" type="translate" begin="0s" dur="4s" repeatCount="indefinite" keyTimes="0;0.05;0.1;0.75;0.8;1" values="0 0;0 0;-2 12;-2 12;0 0;0 0" />
            <animateTransform attributeName="transform" type="rotate" begin="0s" dur="4s" repeatCount="indefinite" keyTimes="0;0.05;0.1;0.75;0.8;1" values="0 290 162;0 290 162;-30 290 162;-30 290 162;0 290 162;0 290 162" additive="sum" />
        </path>
    </g>
</svg>
</g><g id="layer8"><svg width="512" height="512" viewBox="0 0 512 512" fill="none" xmlns="http://www.w3.org/2000/svg">
<path d="M166 178H346V234H277L256 218L235 234H166V178Z" fill="#425824" fill-opacity="0.6"/>
<path d="M199 224H225.5L229.5 229" stroke="#42B06C" stroke-width="2"/>
<path d="M312.5 224H286L282 229" stroke="#42B06C" stroke-width="2"/>
<path d="M174 194V218" stroke="#42B06C" stroke-width="2"/>
<path d="M182 222V226" stroke="#42B06C" stroke-width="2"/>
<path d="M329.5 222V226" stroke="#42B06C" stroke-width="2"/>
<path d="M186 222V226" stroke="#42B06C" stroke-width="2"/>
<path d="M325.5 222V226" stroke="#42B06C" stroke-width="2"/>
<path d="M190 222V226" stroke="#42B06C" stroke-width="2"/>
<path d="M321.5 222V226" stroke="#42B06C" stroke-width="2"/>
<path d="M194 222V226" stroke="#42B06C" stroke-width="2"/>
<path d="M317.5 222V226" stroke="#42B06C" stroke-width="2"/>
<path d="M338 194V218" stroke="#42B06C" stroke-width="2"/>
<path d="M178 190H237.5L242 185.5H250.5" stroke="#42B06C" stroke-width="2"/>
<path d="M334 190H274.5L270 185.5H261.5" stroke="#42B06C" stroke-width="2"/>
<path d="M247 194L251.5 199H260.5L265 194" stroke="#42B06C" stroke-width="2"/>
</svg>
</g></svg>