<svg xmlns="http://www.w3.org/2000/svg" viewBox="0 0 500 500"><g id="layer1"><svg width="512" height="512" viewBox="0 0 512 512" fill="none" xmlns="http://www.w3.org/2000/svg">
<rect width="512" height="512" fill="#FF9900"/>
<path d="M134 178H167V242H146L134 178Z" fill="#E24713"/>
<path d="M378 178H345V242H366L378 178Z" fill="#E24713"/>
<rect x="207" y="346" width="98" height="54" fill="#E24713"/>
<path d="M64 400H448L480 512H32L64 400Z" fill="#F15824"/>
<rect x="166" y="106" width="180" height="240" fill="#F15824"/>
</svg>
</g><g id="layer2"><svg width="512" height="512" viewBox="0 0 512 512" fill="none" xmlns="http://www.w3.org/2000/svg">
<path d="M134 178H166V242H146L134 178Z" fill="#36CF00"/>
<path d="M378 178H346V242H366L378 178Z" fill="#36CF00"/>
<path d="M64 400H448L480 512H32L64 400Z" fill="#3BE200"/>
<rect x="207" y="346" width="98" height="54" fill="#36CF00"/>
<rect x="166" y="106" width="180" height="240" fill="#3BE200"/>
</svg>
</g><g id="layer3"><svg width="512" height="512" viewBox="0 0 512 512" fill="none" xmlns="http://www.w3.org/2000/svg">
<path d="M166 106L219.5 73V106L288.5 73V106L346 73V106V154L166 154V106Z" fill="#121212"/>
<rect x="166" y="154" width="12" height="40" fill="#121212"/>
<rect x="334" y="154" width="12" height="40" fill="#121212"/>
</svg>
</g><g id="layer4"><svg width="512" height="512" viewBox="0 0 512 512" fill="none" xmlns="http://www.w3.org/2000/svg">
<g clip-path="url(#clip0_611_17134)">
<path d="M207 512H305V439H257H207V512Z" fill="white"/>
<path d="M207 439V400L257 439H207Z" fill="#C9C9C9"/>
<path d="M305 439V400L257 439H305Z" fill="#C9C9C9"/>
<path d="M241 439H273L265 455H249L241 439Z" fill="#001D55"/>
<path d="M241 512H273L265 455H249L241 512Z" fill="#001D55"/>
<path d="M64 400H192L252 512H32L64 400Z" fill="white"/>
<path d="M176.5 400V512" stroke="#121221" stroke-width="6"/>
<path d="M174 400H207L252 512H239.5L151 450.5L166 432L151 419.5L174 400Z" fill="#ECECEC"/>
<path d="M448 400H326L258 512H480L448 400Z" fill="white"/>
<path d="M340 400L340 494" stroke="#121221" stroke-width="6"/>
<path d="M376 531.5V528C376 508.118 359.882 492 340 492V492C320.118 492 304 508.118 304 528V531.5" stroke="#121221" stroke-width="6"/>
<path d="M344 400H305L258 512H278.5L367 455.5L352 432L367 419.5L344 400Z" fill="#ECECEC"/>
<circle cx="177" cy="512" r="16" fill="#112211"/>
</g>
<defs>
<clipPath id="clip0_611_17134">
<rect width="512" height="512" fill="white"/>
</clipPath>
</defs>
</svg>
</g><g id="layer5"><svg width="512" height="512" viewBox="0 0 512 512" fill="none" xmlns="http://www.w3.org/2000/svg">
<path fill-rule="evenodd" clip-rule="evenodd" d="M207 346V271H305V346H256H207ZM219 283H293V315H219V283Z" fill="#121212"/>
</svg>
</g><g id="layer6"><svg width="512" height="512" viewBox="0 0 512 512" fill="none" xmlns="http://www.w3.org/2000/svg">
<path d="M230.711 302H280" stroke="#121212" stroke-width="6"/>
<g>
<animateTransform attributeName="transform" type="translate" dur="8s" repeatCount="indefinite" keyTimes="0;0.12;0.5;0.51;0.75;1" values="0 0;-130 -151;-130 -151;250 302;250 302;0 0" />
<path d="M376 302C376 331.271 352.271 355 323 355C293.729 355 271.5 309 256 302C272 295 293.729 249 323 249C352.271 249 376 272.729 376 302Z" fill="#FF008A" fill-opacity="0.8" stroke="#121212" stroke-width="6">
<animateTransform attributeName="transform" type="scale" dur="8s" repeatCount="indefinite" keyTimes="0;0.12;0.5;0.51;0.75;1" values="1;1.5;1.5;0;0;1" />
</path>
</g>
</svg>
</g><g id="layer7"><svg width="512" height="512" viewBox="0 0 512 512" fill="none" xmlns="http://www.w3.org/2000/svg">
  <rect x="212" y="194" width="20" height="20" rx="10" fill="#121212">
    <animate attributeName="rx" values="10;10;1;10;10;1;10;10;" keyTimes="0;0.275;0.3;0.325;0.725;0.75;0.775;1" dur="4s" repeatCount="indefinite" />
    <animate attributeName="height" values="20;20;2;20;20;2;20;20" keyTimes="0;0.275;0.3;0.325;0.725;0.75;0.775;1" dur="4s" repeatCount="indefinite" />
    <animate attributeName="y" values="194;194;203;194;194;203;194;194" keyTimes="0;0.275;0.3;0.325;0.725;0.75;0.775;1" dur="4s" repeatCount="indefinite" />
  </rect>
  <rect x="280" y="194" width="20" height="20" rx="10" fill="#121212">
    <animate attributeName="rx" values="10;10;1;10;10;1;10;10" keyTimes="0;0.275;0.3;0.325;0.725;0.75;0.775;1" dur="4s" repeatCount="indefinite" />
    <animate attributeName="height" values="20;20;2;20;20;2;20;20" keyTimes="0;0.275;0.3;0.325;0.725;0.75;0.775;1" dur="4s" repeatCount="indefinite" />
    <animate attributeName="y" values="194;194;203;194;194;203;194;194" keyTimes="0;0.275;0.3;0.325;0.725;0.75;0.775;1" dur="4s" repeatCount="indefinite" />
  </rect>
  <path d="M206 162H238" stroke="#121212" stroke-width="6"/>
  <path d="M274 162H306" stroke="#121212" stroke-width="6"/>
</svg>
</g><g id="layer8"><svg width="512" height="512" viewBox="0 0 512 512" fill="none" xmlns="http://www.w3.org/2000/svg">
<path d="M189.583 182.714L209.163 174L220.041 182.893L230.919 174L250.5 182.714V190V208.857L220.041 235L189.583 208.857V182.714Z" fill="#D22D27" fill-opacity="0.6">
<animate attributeName="fill-opacity" dur="2s" repeatCount="indefinite" keyTimes="0;0.1;0.2;0.3;0.4;1" values="0.6;1;0.6;1;0.6;0.6" />
</path>
<path d="M189.583 182.714V208.857L220.041 235L250.5 208.857V190M189.583 182.714L209.163 174L220.041 182.893L230.919 174L250.5 182.714V190M189.583 182.714L163 175.5M250.5 190H262" stroke="#D22D27" stroke-width="6"/>
<path d="M322.417 183.214L302.837 174.5L291.959 183.393L281.081 174.5L261.5 183.214V209.357L291.959 235.5L322.417 209.357V183.214Z" fill="#D22D27" fill-opacity="0.6">
<animate attributeName="fill-opacity" dur="2s" repeatCount="indefinite" keyTimes="0;0.1;0.2;0.3;0.4;1" values="0.6;1;0.6;1;0.6;0.6" />
</path>
<path d="M322.417 183.214V209.357L291.959 235.5L261.5 209.357V183.214L281.081 174.5L291.959 183.393L302.837 174.5L322.417 183.214ZM322.417 183.214L349 176" stroke="#D22D27" stroke-width="6"/>
</svg>
</g></svg>