<svg xmlns="http://www.w3.org/2000/svg" viewBox="0 0 500 500"><g id="layer1"><svg width="512" height="512" viewBox="0 0 512 512" fill="none" xmlns="http://www.w3.org/2000/svg">
<rect width="512" height="512" fill="#186450"/>
<path d="M134 178H167V242H146L134 178Z" fill="#E24713"/>
<path d="M378 178H345V242H366L378 178Z" fill="#E24713"/>
<rect x="207" y="346" width="98" height="54" fill="#E24713"/>
<path d="M64 400H448L480 512H32L64 400Z" fill="#F15824"/>
<rect x="166" y="106" width="180" height="240" fill="#F15824"/>
</svg>
</g><g id="layer2"><svg width="512" height="512" viewBox="0 0 512 512" fill="none" xmlns="http://www.w3.org/2000/svg">
<path d="M134 178H166V242H146L134 178Z" fill="#D5A300"/>
<path d="M378 178H346V242H366L378 178Z" fill="#D5A300"/>
<rect x="207" y="346" width="98" height="54" fill="#D5A300"/>
<path d="M64 400H448L480 512H32L64 400Z" fill="#E3B41A"/>
<rect x="166" y="106" width="180" height="240" fill="#E3B41A"/>
<path d="M256 218L266 258H246" stroke="#121212" stroke-width="6"/>
<mask id="mask0_151_133" style="mask-type:alpha" maskUnits="userSpaceOnUse" x="32" y="106" width="448" height="406">
<path d="M166 106H346.5V177.5H378L365.5 241.5H346.5V345.5H305V400.5H448L479.5 512H326.966H32L64 400.5H206.5V345.5H166V241.5H145.5L134 177.5H166V106Z" fill="#121212"/>
</mask>
<g mask="url(#mask0_151_133)">
<path d="M121 106H160L16.5454 512H-26L121 106Z" fill="#FFFFFF" fill-opacity="0.4">
<animateTransform attributeName="transform" type="translate" dur="4s" repeatCount="indefinite" keyTimes="0;0.8;1" values="0 0;0 0;500 0" />
</path>
</g>
</svg>
</g><g id="layer3"><svg width="512" height="512" viewBox="0 0 512 512" fill="none" xmlns="http://www.w3.org/2000/svg">
<path d="M166 64H346V154L166 154V64Z" fill="#121212"/>
<path d="M334 135H364V178H334V135Z" fill="#121212"/>
<path d="M178 135H148V178H178V135Z" fill="#121212"/>
<rect x="166" y="154" width="12" height="104" fill="#121212"/>
<rect x="334" y="154" width="12" height="104" fill="#121212"/>
</svg>
</g><g id="layer4"><svg width="512" height="512" viewBox="0 0 512 512" fill="none" xmlns="http://www.w3.org/2000/svg">
<path d="M255.5 440L221 400H288L255.5 440Z" fill="white"/>
<path d="M64 400H221L255.5 440L288 400H448L480 512H32L64 400Z" fill="#00153E"/>
<path d="M434 440L457.429 433L470 477L443 473L434 440Z" fill="#FFB74A"/>
<rect x="96" y="463" width="80" height="16" fill="#001030"/>
<rect x="336" y="479" width="80" height="33" fill="#001030"/>
<rect x="96" y="400" width="80" height="32" fill="#001030"/>
<rect x="336" y="400" width="80" height="32" fill="#001030"/>
<circle cx="354" cy="416" r="6" fill="#002469"/>
<circle cx="158" cy="416" r="6" fill="#002469"/>
<path d="M255.5 439L214 466.5L178 400L205.5 380L255.5 439Z" fill="#001030"/>
<path d="M255.5 439L297 466.5L333 400L303.5 380L255.5 439Z" fill="#001030"/>
<path d="M255.5 439V512" stroke="#001030" stroke-width="6"/>
</svg>
</g><g id="layer5"><svg></svg></g><g id="layer6"><svg width="512" height="512" viewBox="0 0 512 512" fill="none" xmlns="http://www.w3.org/2000/svg">
<path d="M228 282H261.5H284" stroke="#121212" stroke-width="6"/>
<path d="M284 301.25V282H261.5V301.25C261.5 307.463 266.537 312.5 272.75 312.5C278.963 312.5 284 307.463 284 301.25Z" fill="#D22D27" stroke="#121212" stroke-width="6"/>
</svg>
</g><g id="layer7"><svg width="512" height="512" viewBox="0 0 512 512" fill="none" xmlns="http://www.w3.org/2000/svg">
  <path d="M206 162H238" stroke="#121212" stroke-width="6"/>
  <path d="M274 162H306" stroke="#121212" stroke-width="6"/>
  <g transform="translate(222,206.429)">
    <path d="M-10 -8.572L-3.571 -11.429L0 -8.513L3.571 -11.429L10 -8.572V-6.183V0L0 8.571L-10 0V-8.572Z" fill="#BA120C">
      <animateTransform attributeName="transform" type="scale" additive="sum" values="0.9 0.9; 1.25 1.25; 0.9 0.9" begin="0s;2s" dur="1s" repeatCount="indefinite" />
    </path>
  </g>
  <g transform="translate(290,205.429)">
    <path d="M-10 -8.572L-3.571 -11.429L0 -8.513L3.571 -11.429L10 -8.572V-6.183V0L0 8.571L-10 0V-8.572Z" fill="#BA120C">
      <animateTransform attributeName="transform" type="scale" additive="sum" values="0.9 0.9; 1.3 1.3; 0.9 0.9" begin="0s;2s" dur="1s" repeatCount="indefinite" />
    </path>
  </g>
</svg>
</g><g id="layer8"><svg width="512" height="512" viewBox="0 0 512 512" fill="none" xmlns="http://www.w3.org/2000/svg">
<path d="M166 178H242L250 186L234 231L166 211V178Z" fill="#121212"/>
<path d="M346 178H270L262 186L278 231L346 211V178Z" fill="#121212"/>
<rect x="242" y="178" width="28" height="12" fill="#121212"/>
<mask id="mask0_147_68" style="mask-type:alpha" maskUnits="userSpaceOnUse" x="171" y="187" width="74" height="38">
<path d="M171 187H245L239.02 202.647L231.545 225L171 207.863V187Z" fill="#121212"/>
</mask>
<g mask="url(#mask0_147_68)">
<path d="M178.202 182.842H189.685L175.905 238.104H164.422L178.202 182.842Z" fill="#D9D9D9">
<animateTransform attributeName="transform" type="translate" dur="4s" repeatCount="indefinite" keyTimes="0;0.8;1" values="-32 0;-32 0;68 0" />
</path>
</g>
<mask id="mask1_147_68" style="mask-type:alpha" maskUnits="userSpaceOnUse" x="267" y="187" width="74" height="39">
<path d="M341 187.118H267.185L273.15 202.776L280.606 225.144L341 207.995V187.118Z" fill="#121212"/>
</mask>
<g mask="url(#mask1_147_68)">
<path d="M285.951 185.627H275.106L288.12 237.819H298.965L285.951 185.627Z" fill="#D9D9D9">
<animateTransform attributeName="transform" type="translate" dur="4s" repeatCount="indefinite" keyTimes="0;0.8;1" values="-32 0;-32 0;68 0" />
</path>
</g>
</svg>
</g></svg>