<svg xmlns="http://www.w3.org/2000/svg" viewBox="0 0 500 500"><g id="layer1"><svg width="512" height="512" viewBox="0 0 512 512" fill="none" xmlns="http://www.w3.org/2000/svg">
<rect width="512" height="512" fill="#A7FF00"/>
<path d="M134 178H167V242H146L134 178Z" fill="#E24713"/>
<path d="M378 178H345V242H366L378 178Z" fill="#E24713"/>
<rect x="207" y="346" width="98" height="54" fill="#E24713"/>
<path d="M64 400H448L480 512H32L64 400Z" fill="#F15824"/>
<rect x="166" y="106" width="180" height="240" fill="#F15824"/>
</svg>
</g><g id="layer2"><svg width="512" height="512" viewBox="0 0 512 512" fill="none" xmlns="http://www.w3.org/2000/svg">
    <path d="M134 178H166V242H146L134 178Z" fill="#E24713"/>
    <path d="M378 178H346V242H366L378 178Z" fill="#E24713"/>
    <rect x="207" y="346" width="98" height="9" fill="#1D1D1D"/>
    <rect x="207" y="355" width="98" height="9" fill="#2D2D2D"/>
    <rect x="207" y="364" width="98" height="9" fill="#1D1D1D"/>
    <rect x="207" y="373" width="98" height="9" fill="#2D2D2D"/>
    <rect x="207" y="382" width="98" height="9" fill="#1D1D1D"/>
    <rect x="207" y="391" width="98" height="9" fill="#2D2D2D"/>
    <path d="M64 400H448L480 512H32L64 400Z" fill="#F15824"/>
    <path d="M64 400H120V488H76V512H32L64 400Z" fill="#2D2D2D"/>
    <rect x="166" y="106" width="180" height="240" fill="#F15824"/>
    <path d="M166 172H246V236L166 278V172Z" fill="#2D2D2D"/>
    <rect id="rect1" x="182" y="184" width="8" height="8" rx="4" fill="#D22D27">
    <animate attributeName="fill" values="#D22D27;#FF0900;#FF0900;#D22D27;#D22D27;#FF0900;#FF0900;#D22D27;#D22D27;#FF0900;#FF0900;#D22D27;#D22D27" keyTimes="0;0.01;0.05;0.09;0.2;0.21;0.25;0.29;0.8;0.81;0.85;0.89;1" dur="3s" repeatCount="indefinite" />
    </rect>
    <rect id="rect2" x="182" y="200" width="8" height="8" rx="4" fill="#D22D27">
    <animate attributeName="fill" values="#D22D27;#C2FD52;#C2FD52;#D22D27;#D22D27;#C2FD52;#C2FD52;#D22D27;#D22D27;#C2FD52;#C2FD52;#D22D27;#D22D27" keyTimes="0;0.01;0.05;0.09;0.4;0.41;0.45;0.49;0.6;0.61;0.65;0.69;1" dur="3.2s" repeatCount="indefinite" />
    </rect>
    <circle id="circle1" cx="92" cy="436" r="12" fill="#D22D27">
       <animate attributeName="fill" values="#D22D27;#FF0900;#FF0900;#D22D27;#D22D27;#FF0900;#FF0900;#D22D27;#D22D27;#FF0900;#FF0900;#D22D27;#D22D27" keyTimes="0;0.01;0.05;0.09;0.4;0.41;0.45;0.49;0.6;0.61;0.65;0.69;1" dur="2.8s" repeatCount="indefinite" />
    </circle>
    <rect x="302" y="106" width="44" height="48" fill="#2D2D2D"/>
    <rect x="166" y="242" width="12" height="104" fill="#2D2D2D"/>
    <circle id="circle2" cx="148" cy="436" r="12" fill="#7B0000">
       <animate attributeName="fill" values="#D22D27;#C2FD52;#C2FD52;#D22D27;#D22D27;#C2FD52;#C2FD52;#D22D27;#D22D27;#C2FD52;#C2FD52;#D22D27;#D22D27" keyTimes="0;0.01;0.05;0.09;0.2;0.21;0.25;0.29;0.8;0.81;0.85;0.89;1" dur="2.9s" repeatCount="indefinite" />
    </circle>
    <path d="M256 218L266 258H246" stroke="#121212" stroke-width="6"/>
</svg>
</g><g id="layer3"><svg width="512" height="512" viewBox="0 0 512 512" fill="none" xmlns="http://www.w3.org/2000/svg">
<rect width="180" height="68" transform="matrix(1 0 0 -1 166 142)" fill="#FFEE59"/>
<rect width="180" height="24" transform="matrix(1 0 0 -1 166 166)" fill="#E5C000"/>
<path d="M244 166H268V198L256 210L244 198V166Z" fill="#FFEE59"/>
<path d="M166 166H190V308C176.745 308 166 297.255 166 284V242.5V166Z" fill="#FFEE59"/>
<path d="M346 166H322V308C335.255 308 346 297.255 346 284V242.5V166Z" fill="#FFEE59"/>
<rect x="244" y="34" width="24" height="80" fill="#D22D27"/>
</svg>
</g><g id="layer4"><svg></svg></g><g id="layer5"><svg width="512" height="512" viewBox="0 0 512 512" fill="none" xmlns="http://www.w3.org/2000/svg">
<path fill-rule="evenodd" clip-rule="evenodd" d="M346 266H166V349L256 382L346 349V266ZM297 281H215V323H297V281Z" fill="#121212"/>
</svg>
</g><g id="layer6"><svg width="512" height="512" viewBox="0 0 512 512" fill="none" xmlns="http://www.w3.org/2000/svg">
<path d="M246 289.391C246 289.391 258.823 284.011 262 289.391C265.153 294.732 254.5 303.391 254.5 303.391C254.5 303.391 267.632 299.309 270.5 304.891C273.719 311.156 258 317.891 258 317.891" stroke="#121212" stroke-width="6"/>
</svg>
</g><g id="layer7"><svg width="512" height="512" viewBox="0 0 512 512" fill="none" xmlns="http://www.w3.org/2000/svg">
<circle cx="10" cy="10" r="10" transform="matrix(1 0 0 -1 212 214)" fill="#121212"/>
<circle cx="10" cy="10" r="10" transform="matrix(1 0 0 -1 280 214)" fill="#121212"/>
<g>
<animateTransform attributeName="transform" type="translate" values="0 0; 0 0; 0 -16;0 0;0 -16; 0 0;0 0" keyTimes="0;0;0.04;0.08;0.12;0.16;1" dur="4s" repeatCount="indefinite"/>
<path d="M206 178H238" stroke="#121212" stroke-width="6"/>
<path d="M274 178H306" stroke="#121212" stroke-width="6"/>
</g>
</svg>
</g><g id="layer8"><svg width="512" height="512" viewBox="0 0 512 512" fill="none" xmlns="http://www.w3.org/2000/svg">
<path d="M192 203V203C192 218.464 204.536 231 220 231V231C235.464 231 248 218.464 248 203V203C248 187.536 235.464 175 220 175V175V175C204.536 175 192 187.536 192 203V203ZM192 203L164 176" stroke="#121212" fill="#FFD600" fill-opacity="40%" stroke-width="6"/>
<path d="M248 202H264" stroke="#121212" stroke-width="6"/>
<path d="M320 203V203C320 187.536 307.464 175 292 175V175V175C276.536 175 264 187.536 264 203V203C264 218.464 276.536 231 292 231V231C307.464 231 320 218.464 320 203V203ZM320 203L348 176" stroke="#121212" fill="#FFD600" fill-opacity="40%" stroke-width="6"/>
<mask id="mask0_140_21" style="mask-type:alpha" maskUnits="userSpaceOnUse" x="267" y="178" width="50" height="50">
<circle cx="292" cy="203" r="25" fill="#FFD600" />
</mask>
<g mask="url(#mask0_140_21)">
<path d="M275.545 178H286L273.455 228H263L275.545 178Z" fill="#FFFFFF">
<animateTransform attributeName="transform" type="translate" dur="4s" repeatCount="indefinite" keyTimes="0;0.8;1" values="-32 0;-32 0;48 0" />
</path>
</g>
<mask id="mask1_140_21" style="mask-type:alpha" maskUnits="userSpaceOnUse" x="195" y="178" width="50" height="50">
<circle cx="220" cy="203" r="25" fill="#FFD600" />
</mask>
<g mask="url(#mask1_140_21)">
<path d="M203.545 178H214L201.455 228H191L203.545 178Z" fill="#FFFFFF">
<animateTransform attributeName="transform" type="translate" dur="4s" repeatCount="indefinite" keyTimes="0;0.8;1" values="-32 0;-32 0;48 0" />
</path>
</g>
</svg>
</g></svg>