<svg xmlns="http://www.w3.org/2000/svg" viewBox="0 0 500 500"><g id="layer1"><svg width="512" height="512" viewBox="0 0 512 512" fill="none" xmlns="http://www.w3.org/2000/svg">
<rect width="512" height="512" fill="#A7FF00"/>
<path d="M134 178H167V242H146L134 178Z" fill="#E24713"/>
<path d="M378 178H345V242H366L378 178Z" fill="#E24713"/>
<rect x="207" y="346" width="98" height="54" fill="#E24713"/>
<path d="M64 400H448L480 512H32L64 400Z" fill="#F15824"/>
<rect x="166" y="106" width="180" height="240" fill="#F15824"/>
</svg>
</g><g id="layer2"><svg width="512" height="512" viewBox="0 0 512 512" fill="none" xmlns="http://www.w3.org/2000/svg">
<path d="M134 178H166V242H146L134 178Z" fill="#0097D8"/>
<path d="M378 178H346V242H366L378 178Z" fill="#0097D8"/>
<rect x="207" y="346" width="98" height="54" fill="#0097D8"/>
<path d="M64 400H448L480 512H32L64 400Z" fill="#00B2FF"/>
<path d="M42.0001 477L35.4287 500L105 477H42.0001Z" fill="#2C71A3"/>
<path d="M476.286 499L470.286 478H405L476.286 499Z" fill="#2C71A3"/>
<path d="M466.429 464.5L460.857 445H425.5L466.429 464.5Z" fill="#2C71A3"/>
<path d="M51.1427 445L45.5713 464.5L86 445H51.1427Z" fill="#2C71A3"/>
<rect x="166" y="106" width="180" height="240" fill="#00B2FF"/>
<path d="M96 400H80L96 425V400Z" fill="#2C71A3"/>
<path d="M198 106H182L198 130V106Z" fill="#2C71A3"/>
<path d="M230 106H214L230 146V106Z" fill="#2C71A3"/>
<path d="M342 400H326V440L342 400Z" fill="#2C71A3"/>
<path d="M141 400H125L141 432V400Z" fill="#2C71A3"/>
<path d="M264 106H248L256 212L264 106Z" fill="#2C71A3"/>
<path d="M387 400H371V430.5L387 400Z" fill="#2C71A3"/>
<path d="M186 400H170L186 440V400Z" fill="#2C71A3"/>
<path d="M330 106H314V130L330 106Z" fill="#2C71A3"/>
<path d="M298 106H282V146L298 106Z" fill="#2C71A3"/>
<path d="M432 400H416V424L432 400Z" fill="#2C71A3"/>
<path d="M197.5 224.5L166 194V210L197.5 224.5Z" fill="#2C71A3"/>
<path d="M190 176.5L166 146V162L190 176.5Z" fill="#2C71A3"/>
<path d="M192 289L166 281V297L192 289Z" fill="#2C71A3"/>
<path d="M320 289L346 281V297L320 289Z" fill="#2C71A3"/>
<path d="M295 358L207 352V364L295 358Z" fill="#2C71A3"/>
<path d="M295 388L207 382V394L295 388Z" fill="#2C71A3"/>
<path d="M217 373L305 367V379L217 373Z" fill="#2C71A3"/>
<path d="M314 223.5L346 193V209L314 223.5Z" fill="#2C71A3"/>
<path d="M322 176.5L346 146V162L322 176.5Z" fill="#2C71A3"/>
<path d="M206 277.5L166 242V258L206 277.5Z" fill="#2C71A3"/>
<path d="M206 301L166 333V320.2L206 301Z" fill="#2C71A3"/>
<path d="M306 277.5L346 242V258L306 277.5Z" fill="#2C71A3"/>
<path d="M306 301L346 333V320.2L306 301Z" fill="#2C71A3"/>
<path d="M256 218L266 258H246" stroke="#121212" stroke-width="6"/>
</svg>
</g><g id="layer3"><svg width="512" height="512" viewBox="0 0 512 512" fill="none" xmlns="http://www.w3.org/2000/svg">
<path d="M166 106H346V178L332 167C332 167 334.663 154.05 332 146.5C327.172 132.813 315.514 126 301 126C278.5 126 256 155 256 155C256 155 229 126 211 126C196.971 126 186.176 133.273 181.5 146.5C178.832 154.048 181.5 167 181.5 167L166 178V106Z" fill="#121212"/>
</svg>
</g><g id="layer4"><svg width="512" height="512" viewBox="0 0 512 512" fill="none" xmlns="http://www.w3.org/2000/svg">
<path d="M64 400H448L480 512H32L64 400Z" fill="#454545"/>
<path d="M448 400H336L171 512H480L448 400Z" fill="#121212"/>
<path d="M370 400H336L171 512H208L370 400Z" fill="#202020"/>
<path d="M64 400H176L341 512H32L64 400Z" fill="#121212"/>
<path d="M142 400H176L341 512H304L142 400Z" fill="#202020"/>
<path d="M207 364L305 360V390L207 382V364Z" fill="#202020"/>
<path d="M207 346H305V360L207 368V346Z" fill="#454545"/>
<path d="M207 378L305 386V400H207V378Z" fill="#121212"/>
</svg>
</g><g id="layer5"><svg width="512" height="512" viewBox="0 0 512 512" fill="none" xmlns="http://www.w3.org/2000/svg">
<path fill-rule="evenodd" clip-rule="evenodd" d="M346 266H166V349L256 382L346 349V266ZM297 281H215V323H297V281Z" fill="#121212"/>
</svg>
</g><g id="layer6"><svg width="512" height="512" viewBox="0 0 512 512" fill="none" xmlns="http://www.w3.org/2000/svg">
<path d="M230.711 302H280" stroke="#121212" stroke-width="6"/>
<path d="M360.711 348.964L346.268 368.131L284.113 321.294L258.419 301.978L298.556 302.127L360.711 348.964Z" fill="#77492D"/>
<path d="M360.711 348.964L363.107 350.77L364.913 348.374L362.517 346.568L360.711 348.964ZM346.268 368.131L344.462 370.527L346.858 372.333L348.664 369.937L346.268 368.131ZM284.113 321.294L285.918 318.898L285.916 318.896L284.113 321.294ZM298.556 302.127L300.362 299.731L299.565 299.131L298.568 299.127L298.556 302.127ZM258.419 301.978L258.43 298.978C257.138 298.973 255.987 299.797 255.576 301.023C255.164 302.248 255.583 303.599 256.617 304.376L258.419 301.978ZM358.316 347.159L343.872 366.326L348.664 369.937L363.107 350.77L358.316 347.159ZM348.073 365.735L285.918 318.898L282.307 323.69L344.462 370.527L348.073 365.735ZM296.751 304.523L358.906 351.36L362.517 346.568L300.362 299.731L296.751 304.523ZM285.916 318.896L260.222 299.58L256.617 304.376L282.31 323.692L285.916 318.896ZM258.408 304.978L298.545 305.127L298.568 299.127L258.43 298.978L258.408 304.978Z" fill="#121212"/>
<rect x="361.184" y="349.32" width="24" height="12.1288" transform="rotate(127 361.184 349.32)" fill="#D22D27" stroke="#121212" stroke-width="6">
<animate attributeName="fill" dur="4s" repeatCount="indefinite" keyTimes="0;0.8;1" values="#2d2d2d;red;#2d2d2d" />
</rect>
<rect x="328.896" y="324.989" width="24" height="24.2576" transform="rotate(127 328.896 324.989)" fill="#FF9900" stroke="#121212" stroke-width="6"/>
<path d="M375 366C403.5 373 434 361.5 441 319.5C448 277.5 385 247 416 201" stroke="white" stroke-width="6">
<animate attributeName="stroke" dur="4s" repeatCount="indefinite" keyTimes="0;0.8;1" values="white;transparent;white" />
</path>
</svg>
</g><g id="layer7"><svg width="512" height="512" viewBox="0 0 512 512" fill="none" xmlns="http://www.w3.org/2000/svg">
    <rect x="212" y="194" width="20" height="20" rx="10" fill="#121212"/>
    <rect x="280" y="194" width="20" height="20" rx="10" fill="#121212">
        <animate attributeName="y" dur="4s" repeatCount="indefinite" keyTimes="0;0.475;0.5;0.575;0.6;1" values="194;194;203;203;194;194" />
        <animate attributeName="height" dur="4s" repeatCount="indefinite" keyTimes="0;0.475;0.5;0.575;0.6;1" values="20;20;2;2;20;20" />
        <animate attributeName="rx" dur="4s" repeatCount="indefinite" keyTimes="0;0.475;0.5;0.575;0.6;1" values="10;10;1;1;10;10" />
    </rect>
    <path id="path1" d="M206 162H238" stroke="#121212" stroke-width="6"/>
    <g transform="translate(0,0)">
        <path id="path2" d="M274 162H306" stroke="#121212" stroke-width="6">
            <animateTransform attributeName="transform" type="translate" begin="0s" dur="4s" repeatCount="indefinite" keyTimes="0;0.475;0.5;0.575;0.6;1" values="0 0;0 0;0 5;0 5;0 0;0 0" />
            <animateTransform attributeName="transform" type="rotate" begin="0s" dur="4s" repeatCount="indefinite" keyTimes="0;0.475;0.5;0.575;0.6;1" values="0 274 162;0 274 162;10 274 162;10 274 162;0 274 162;0 274 162" additive="sum" />
        </path>
    </g>
</svg>
</g><g id="layer8"><svg width="512" height="512" viewBox="0 0 512 512" fill="none" xmlns="http://www.w3.org/2000/svg">
<path d="M189.583 182.714L209.163 174L220.041 182.893L230.919 174L250.5 182.714V190V208.857L220.041 235L189.583 208.857V182.714Z" fill="#D22D27" fill-opacity="0.6">
<animate attributeName="fill-opacity" dur="2s" repeatCount="indefinite" keyTimes="0;0.1;0.2;0.3;0.4;1" values="0.6;1;0.6;1;0.6;0.6" />
</path>
<path d="M189.583 182.714V208.857L220.041 235L250.5 208.857V190M189.583 182.714L209.163 174L220.041 182.893L230.919 174L250.5 182.714V190M189.583 182.714L163 175.5M250.5 190H262" stroke="#D22D27" stroke-width="6"/>
<path d="M322.417 183.214L302.837 174.5L291.959 183.393L281.081 174.5L261.5 183.214V209.357L291.959 235.5L322.417 209.357V183.214Z" fill="#D22D27" fill-opacity="0.6">
<animate attributeName="fill-opacity" dur="2s" repeatCount="indefinite" keyTimes="0;0.1;0.2;0.3;0.4;1" values="0.6;1;0.6;1;0.6;0.6" />
</path>
<path d="M322.417 183.214V209.357L291.959 235.5L261.5 209.357V183.214L281.081 174.5L291.959 183.393L302.837 174.5L322.417 183.214ZM322.417 183.214L349 176" stroke="#D22D27" stroke-width="6"/>
</svg>
</g></svg>