<svg width="512" height="512" viewBox="0 0 512 512" fill="none" xmlns="http://www.w3.org/2000/svg">
<path d="M353.5 397.5H373.5C373.5 397.5 368.94 410.858 359.337 428C353.5 438.42 345.799 450.238 336.126 461.303C326.217 472.638 314.239 483.183 300.075 490.626C287.344 497.316 272.848 501.5 256.5 501.5C240.152 501.5 225.877 497.316 213.5 490.626C199.73 483.183 188.309 472.638 179 461.303C169.912 450.238 162.836 438.42 157.55 428C148.853 410.858 145 397.5 145 397.5H163C163 397.5 166.94 405.951 174.841 416.828C180.418 424.504 187.968 433.388 197.5 441.363C205.821 448.325 215.653 454.593 227 458.759C235.9 462.026 245.733 464 256.5 464C267.87 464 278.202 462.026 287.515 458.759C299.389 454.593 309.607 448.325 318.213 441.363C328.07 433.388 335.811 424.504 341.5 416.828C349.56 405.951 353.5 397.5 353.5 397.5Z" fill="#FF0900"/>
<path d="M256.5 464V501.5M256.5 464C245.733 464 235.9 462.026 227 458.759M256.5 464C267.87 464 278.202 462.026 287.515 458.759M256.5 501.5C240.152 501.5 225.877 497.316 213.5 490.626M256.5 501.5C272.848 501.5 287.344 497.316 300.075 490.626M341.5 416.828C349.56 405.951 353.5 397.5 353.5 397.5H373.5C373.5 397.5 368.94 410.858 359.337 428M341.5 416.828L359.337 428M341.5 416.828C335.811 424.504 328.07 433.388 318.213 441.363M359.337 428C353.5 438.42 345.799 450.238 336.126 461.303M174.841 416.828C166.94 405.951 163 397.5 163 397.5H145C145 397.5 148.853 410.858 157.55 428M174.841 416.828L157.55 428M174.841 416.828C180.418 424.504 187.968 433.388 197.5 441.363M157.55 428C162.836 438.42 169.912 450.238 179 461.303M197.5 441.363L179 461.303M197.5 441.363C205.821 448.325 215.653 454.593 227 458.759M179 461.303C188.309 472.638 199.73 483.183 213.5 490.626M318.213 441.363L336.126 461.303M318.213 441.363C309.607 448.325 299.389 454.593 287.515 458.759M336.126 461.303C326.217 472.638 314.239 483.183 300.075 490.626M227 458.759L213.5 490.626M287.515 458.759L300.075 490.626" stroke="#121212" stroke-width="6" stroke-linecap="round" stroke-linejoin="round"/>
</svg>
