<svg width="512" height="512" viewBox="0 0 512 512" fill="none" xmlns="http://www.w3.org/2000/svg">
<path d="M165.465 384.206C158.2 386.85 154.453 394.884 157.098 402.15L161.202 413.426C163.847 420.692 171.88 424.438 179.146 421.794C186.412 419.149 190.158 411.115 187.514 403.85L183.409 392.573C180.765 385.308 172.731 381.561 165.465 384.206ZM168.374 398.046C167.996 397.008 168.532 395.86 169.57 395.482C170.608 395.104 171.755 395.64 172.133 396.677L176.237 407.954C176.615 408.992 176.08 410.139 175.042 410.517C174.004 410.895 172.856 410.36 172.478 409.322L168.374 398.046Z" fill="#FBA834" stroke="black" stroke-width="6" stroke-linejoin="round"/>
<path d="M347.394 384.098C354.66 386.743 358.406 394.777 355.761 402.042L351.657 413.319C349.013 420.584 340.979 424.331 333.713 421.686C326.448 419.042 322.701 411.008 325.346 403.742L329.45 392.466C332.095 385.2 340.128 381.454 347.394 384.098ZM344.485 397.938C344.863 396.9 344.328 395.752 343.29 395.375C342.252 394.997 341.104 395.532 340.726 396.57L336.622 407.846C336.244 408.884 336.78 410.032 337.817 410.41C338.855 410.788 340.003 410.252 340.381 409.214L344.485 397.938Z" fill="#FBA834" stroke="black" stroke-width="6" stroke-linejoin="round"/>
<path d="M168.233 417.804C161.537 421.67 159.242 430.232 163.108 436.928L169.108 447.32C172.974 454.017 181.537 456.311 188.233 452.445C194.929 448.579 197.223 440.017 193.357 433.32L187.357 422.928C183.491 416.232 174.929 413.938 168.233 417.804ZM173.501 430.928C172.948 429.972 173.276 428.748 174.233 428.196C175.189 427.644 176.413 427.972 176.965 428.928L182.965 439.32C183.517 440.277 183.189 441.5 182.233 442.052C181.276 442.605 180.053 442.277 179.501 441.32L173.501 430.928Z" fill="#FBA834" stroke="black" stroke-width="6" stroke-linejoin="round"/>
<path d="M344.627 417.696C351.323 421.562 353.617 430.125 349.751 436.821L343.751 447.213C339.885 453.909 331.323 456.203 324.627 452.337C317.93 448.471 315.636 439.909 319.502 433.213L325.502 422.821C329.368 416.125 337.93 413.83 344.627 417.696ZM339.359 430.821C339.911 429.864 339.583 428.641 338.627 428.089C337.67 427.536 336.447 427.864 335.895 428.821L329.895 439.213C329.342 440.17 329.67 441.393 330.627 441.945C331.583 442.497 332.806 442.17 333.359 441.213L339.359 430.821Z" fill="#FBA834" stroke="black" stroke-width="6" stroke-linejoin="round"/>
<path d="M186.576 442.547C180.653 447.517 179.881 456.347 184.851 462.27L192.564 471.463C197.534 477.386 206.365 478.159 212.288 473.189C218.211 468.218 218.983 459.388 214.013 453.465L206.3 444.272C201.33 438.349 192.499 437.577 186.576 442.547ZM194.043 454.557C193.333 453.711 193.444 452.449 194.29 451.739C195.136 451.029 196.397 451.14 197.107 451.986L204.821 461.178C205.531 462.024 205.42 463.286 204.574 463.996C203.728 464.706 202.467 464.596 201.757 463.749L194.043 454.557Z" fill="#FBA834" stroke="black" stroke-width="6" stroke-linejoin="round"/>
<path d="M326.283 442.439C332.206 447.409 332.979 456.24 328.009 462.163L320.295 471.355C315.325 477.279 306.495 478.051 300.572 473.081C294.649 468.111 293.876 459.28 298.846 453.357L306.559 444.165C311.529 438.242 320.36 437.469 326.283 442.439ZM318.816 454.45C319.526 453.603 319.416 452.342 318.57 451.632C317.724 450.922 316.462 451.032 315.752 451.878L308.039 461.071C307.329 461.917 307.439 463.179 308.285 463.889C309.131 464.599 310.393 464.488 311.103 463.642L318.816 454.45Z" fill="#FBA834" stroke="black" stroke-width="6" stroke-linejoin="round"/>
<path d="M209.11 463.867C205.244 470.563 207.539 479.125 214.235 482.991L224.627 488.991C231.323 492.857 239.885 490.563 243.751 483.867C247.617 477.171 245.323 468.608 238.627 464.742L228.235 458.742C221.539 454.876 212.976 457.171 209.11 463.867ZM220.235 472.599C219.278 472.047 218.95 470.823 219.503 469.867C220.055 468.91 221.278 468.582 222.235 469.135L232.627 475.135C233.584 475.687 233.911 476.91 233.359 477.867C232.807 478.823 231.584 479.151 230.627 478.599L220.235 472.599Z" fill="#FBA834" stroke="black" stroke-width="6" stroke-linejoin="round"/>
<path d="M303.749 463.759C307.615 470.455 305.321 479.018 298.625 482.884L288.232 488.884C281.536 492.75 272.974 490.455 269.108 483.759C265.242 477.063 267.536 468.501 274.232 464.635L284.625 458.635C291.321 454.769 299.883 457.063 303.749 463.759ZM292.625 472.491C293.581 471.939 293.909 470.716 293.357 469.759C292.804 468.803 291.581 468.475 290.625 469.027L280.232 475.027C279.276 475.58 278.948 476.803 279.5 477.759C280.053 478.716 281.276 479.044 282.232 478.491L292.625 472.491Z" fill="#FBA834" stroke="black" stroke-width="6" stroke-linejoin="round"/>
<path d="M236.305 482C236.305 489.732 242.573 496 250.305 496H262.305C270.037 496 276.305 489.732 276.305 482C276.305 474.268 270.037 468 262.305 468H250.305C242.573 468 236.305 474.268 236.305 482ZM250.305 484C249.2 484 248.305 483.105 248.305 482C248.305 480.895 249.2 480 250.305 480H262.305C263.409 480 264.305 480.895 264.305 482C264.305 483.105 263.409 484 262.305 484H250.305Z" fill="#FBA834" stroke="black" stroke-width="6" stroke-linejoin="round"/>
</svg>
