<svg width="512" height="512" viewBox="0 0 512 512" fill="none" xmlns="http://www.w3.org/2000/svg">
<g clip-path="url(#clip0_3724_1621)">
<path d="M205.572 397.445C205.099 397.154 204.555 397 204 397H112.275C82.3611 397 56.0712 416.831 47.8532 445.594L29.1154 511.176C28.8568 512.081 29.0381 513.055 29.605 513.807C30.1718 514.558 31.0586 515 32 515H480C480.941 515 481.828 514.558 482.395 513.807C482.962 513.055 483.143 512.081 482.885 511.176L464.147 445.594C455.929 416.83 429.639 397 399.725 397H308C307.445 397 306.901 397.154 306.428 397.445L256 428.477L205.572 397.445Z" fill="#FF0900" stroke="#121212" stroke-width="6" stroke-linecap="round" stroke-linejoin="round"/>
<path d="M256 428L256 519" stroke="#121212" stroke-width="6" stroke-linecap="round" stroke-linejoin="round"/>
<mask id="path-3-outside-1_3724_1621" maskUnits="userSpaceOnUse" x="70.3916" y="67.5" width="358" height="337" fill="black">
<rect fill="white" x="70.3916" y="67.5" width="358" height="337"/>
<path fill-rule="evenodd" clip-rule="evenodd" d="M199.659 397H180.5C168.573 397 158.222 397.451 149.169 397.845C115.806 399.299 100.069 399.984 88.0001 374.5C41.9784 277.323 139.95 73.5 256 73.5C369.623 73.5 450.657 277.323 412 374.5C401.84 400.041 387.894 399.296 360.581 397.836C353.246 397.444 344.948 397 335.5 397H309.134C316.258 391.646 322.836 386.354 328.238 382.007C330.559 380.141 332.662 378.448 334.5 377C359.53 357.27 357.811 335.803 354.131 289.86C353.253 278.902 352.264 266.552 351.5 252.5C341.416 67.1099 186 14.9998 159.499 252.5C151.596 323.332 148.5 363.088 170 377C174.349 379.814 179.601 383.395 185.366 387.326C189.879 390.403 194.706 393.695 199.659 397Z"/>
</mask>
<path fill-rule="evenodd" clip-rule="evenodd" d="M199.659 397H180.5C168.573 397 158.222 397.451 149.169 397.845C115.806 399.299 100.069 399.984 88.0001 374.5C41.9784 277.323 139.95 73.5 256 73.5C369.623 73.5 450.657 277.323 412 374.5C401.84 400.041 387.894 399.296 360.581 397.836C353.246 397.444 344.948 397 335.5 397H309.134C316.258 391.646 322.836 386.354 328.238 382.007C330.559 380.141 332.662 378.448 334.5 377C359.53 357.27 357.811 335.803 354.131 289.86C353.253 278.902 352.264 266.552 351.5 252.5C341.416 67.1099 186 14.9998 159.499 252.5C151.596 323.332 148.5 363.088 170 377C174.349 379.814 179.601 383.395 185.366 387.326C189.879 390.403 194.706 393.695 199.659 397Z" fill="#FF0900"/>
<path d="M199.659 397V403C202.303 403 204.635 401.27 205.402 398.74C206.168 396.21 205.189 393.476 202.99 392.009L199.659 397ZM149.169 397.845L148.908 391.851H148.908L149.169 397.845ZM88.0001 374.5L82.5774 377.068H82.5774L88.0001 374.5ZM412 374.5L417.575 376.718L412 374.5ZM360.581 397.836L360.901 391.844L360.581 397.836ZM309.134 397L305.529 392.203C303.465 393.754 302.625 396.451 303.442 398.9C304.26 401.349 306.552 403 309.134 403V397ZM328.238 382.007L324.477 377.333V377.333L328.238 382.007ZM334.5 377L338.214 381.712H338.214L334.5 377ZM354.131 289.86L360.112 289.381L354.131 289.86ZM351.5 252.5L345.509 252.826L351.5 252.5ZM159.499 252.5L153.536 251.835L159.499 252.5ZM170 377L173.259 371.962L170 377ZM185.366 387.326L181.986 392.283H181.986L185.366 387.326ZM180.5 403H199.659V391H180.5V403ZM149.43 403.84C158.487 403.445 168.718 403 180.5 403V391C168.427 391 157.957 391.457 148.908 391.851L149.43 403.84ZM82.5774 377.068C89.1436 390.933 97.2504 398.596 108.903 402.03C119.698 405.21 133.154 404.549 149.43 403.84L148.908 391.851C131.821 392.595 120.727 393.003 112.295 390.519C104.722 388.288 98.9256 383.552 93.4227 371.932L82.5774 377.068ZM256 67.5C225.18 67.5 195.986 81.0287 170.482 102.254C144.969 123.486 122.822 152.672 105.915 184.762C89.0021 216.863 77.2031 252.116 72.5716 285.651C67.9502 319.113 70.4026 351.36 82.5774 377.068L93.4227 371.932C82.5867 349.051 80.0274 319.379 84.4587 287.293C88.8799 255.281 100.198 221.357 116.532 190.355C132.871 159.343 154.1 131.499 178.158 111.478C202.224 91.4491 228.795 79.5 256 79.5V67.5ZM417.575 376.718C427.734 351.179 429.876 319.125 425.869 285.757C421.853 252.315 411.609 217.11 396.536 185.008C381.474 152.929 361.467 123.694 337.755 102.401C314.029 81.0973 286.294 67.5 256 67.5V79.5C282.518 79.5 307.52 91.3806 329.737 111.33C351.967 131.291 371.107 159.085 385.674 190.109C400.231 221.11 410.099 255.081 413.955 287.188C417.819 319.368 415.594 349.232 406.425 372.282L417.575 376.718ZM360.26 403.827C373.465 404.533 385.152 405.258 394.683 401.964C405.064 398.376 412.107 390.463 417.575 376.718L406.425 372.282C401.733 384.078 396.723 388.563 390.763 390.622C383.953 392.976 375.01 392.598 360.901 391.844L360.26 403.827ZM335.5 403C344.769 403 352.92 403.435 360.26 403.827L360.901 391.844C353.573 391.452 345.128 391 335.5 391V403ZM309.134 403H335.5V391H309.134V403ZM312.738 401.797C319.953 396.375 326.603 391.024 331.999 386.682L324.477 377.333C319.069 381.684 312.564 386.917 305.529 392.203L312.738 401.797ZM331.999 386.682C334.327 384.81 336.405 383.138 338.214 381.712L330.785 372.288C328.92 373.758 326.791 375.471 324.477 377.333L331.999 386.682ZM338.214 381.712C351.858 370.957 358.509 359.346 361.001 344.236C363.388 329.768 361.928 312.058 360.112 289.381L348.15 290.339C350.014 313.605 351.253 329.6 349.161 342.284C347.175 354.325 342.171 363.313 330.785 372.288L338.214 381.712ZM360.112 289.381C359.234 278.42 358.251 266.14 357.491 252.174L345.509 252.826C346.278 266.963 347.273 279.384 348.15 290.339L360.112 289.381ZM357.491 252.174C354.928 205.052 343.116 166.039 326.113 137.795C309.175 109.661 286.657 91.599 262.546 87.9825C238.044 84.3074 213.789 95.8033 194.393 122.727C175.103 149.503 160.222 191.918 153.536 251.835L165.462 253.165C172.027 194.332 186.511 154.198 204.13 129.741C221.642 105.432 241.841 97.0111 260.766 99.8498C280.082 102.747 299.965 117.629 315.832 143.985C331.633 170.231 343.03 207.253 345.509 252.826L357.491 252.174ZM153.536 251.835C149.599 287.119 146.778 315.27 147.729 336.365C148.671 357.251 153.378 373.391 166.74 382.037L173.259 371.962C165.123 366.697 160.627 356.003 159.717 335.825C158.817 315.857 161.496 288.714 165.462 253.165L153.536 251.835ZM166.74 382.037C171.016 384.804 176.201 388.339 181.986 392.283L188.746 382.369C183.002 378.452 177.683 374.825 173.259 371.962L166.74 382.037ZM181.986 392.283C186.495 395.358 191.347 398.667 196.329 401.991L202.99 392.009C198.065 388.723 193.263 385.449 188.746 382.369L181.986 392.283Z" fill="#121212" mask="url(#path-3-outside-1_3724_1621)"/>
<path d="M256 428C239.667 426.167 207.8 426.7 217 439.5C226.2 452.3 247.333 436.833 256 428ZM256 428C256 428 243 453.5 243 482" stroke="#121212" stroke-width="6" stroke-linecap="round" stroke-linejoin="round"/>
<path d="M256 428C272.333 426.167 304.2 426.7 295 439.5C285.8 452.3 264.667 436.833 256 428ZM256 428C256 428 266 445.5 266 458.5" stroke="#121212" stroke-width="6" stroke-linecap="round" stroke-linejoin="round"/>
</g>
<defs>
<clipPath id="clip0_3724_1621">
<rect width="512" height="512" fill="white"/>
</clipPath>
</defs>
</svg>
