<svg width="512" height="512" viewBox="0 0 512 512" fill="none" xmlns="http://www.w3.org/2000/svg">
<g clip-path="url(#clip0_3720_1119)">
<path d="M488 516L477.317 484.217C463.165 442.117 456.09 421.067 439.35 409.033C422.61 397 400.403 397 355.988 397H328H184H156.012C111.598 397 89.3901 397 72.6502 409.033C55.9103 421.067 48.8347 442.117 34.6833 484.217L24 516H488Z" fill="#202020" stroke="#121212" stroke-width="6"/>
<rect x="239" y="372" width="34" height="154" fill="white" stroke="#121212" stroke-width="6" stroke-linejoin="round"/>
<circle cx="256" cy="438" r="6" fill="#121212"/>
<circle cx="97" cy="426" r="12" fill="white"/>
<circle cx="72" cy="490" r="12" fill="white"/>
<circle cx="161" cy="490" r="12" fill="white"/>
<circle cx="350" cy="490" r="12" fill="white"/>
<circle cx="440" cy="490" r="12" fill="white"/>
<circle cx="128" cy="459" r="12" fill="white"/>
<circle cx="210" cy="466" r="12" fill="white"/>
<circle cx="302" cy="466" r="12" fill="white"/>
<circle cx="384" cy="459" r="12" fill="white"/>
<circle cx="350" cy="426" r="12" fill="white"/>
<circle cx="161" cy="426" r="12" fill="white"/>
<circle cx="414" cy="426" r="12" fill="white"/>
<circle cx="256" cy="466" r="6" fill="#121212"/>
<circle cx="256" cy="494" r="6" fill="#121212"/>
<path d="M256.5 372C256.5 372 252.375 449.591 215 434.5C188.202 423.68 187 398 187 398L202.5 372H256.5Z" fill="white" stroke="#121212" stroke-width="6" stroke-linejoin="round"/>
<path d="M253 372C253 372 258.042 449.806 295.5 434.5C322.252 423.568 323.5 398 323.5 398L308 372H253Z" fill="white" stroke="#121212" stroke-width="6" stroke-linejoin="round"/>
</g>
<defs>
<clipPath id="clip0_3720_1119">
<rect width="512" height="512" fill="white"/>
</clipPath>
</defs>
</svg>
