<svg width="512" height="512" viewBox="0 0 512 512" fill="none" xmlns="http://www.w3.org/2000/svg">
<path d="M344.794 39.3531L343.194 41.8908L344.794 39.3531C338.907 35.6416 331.119 32.7062 322.474 30.4009C305.023 25.7473 281.525 23 256 23C230.475 23 206.977 25.7473 189.526 30.4009C180.881 32.7062 173.093 35.6416 167.206 39.3531C161.884 42.7084 155 48.7321 155 58C155 67.2679 161.884 73.2916 167.206 76.6469C173.093 80.3584 180.881 83.2938 189.526 85.5991C206.977 90.2527 230.475 93 256 93C281.525 93 305.023 90.2527 322.474 85.5991C331.119 83.2938 338.907 80.3584 344.794 76.6469C350.116 73.2916 357 67.2679 357 58C357 48.7321 350.116 42.7084 344.794 39.3531ZM178.939 58.0369C178.92 58.0245 178.9 58.0122 178.881 58C178.9 57.9878 178.92 57.9755 178.939 57.9631C182.16 55.9323 187.552 53.696 195.195 51.658C210.317 47.6253 231.82 45 256 45C280.18 45 301.683 47.6253 316.805 51.658C324.448 53.696 329.84 55.9323 333.061 57.9631C333.08 57.9755 333.1 57.9878 333.119 58C333.1 58.0122 333.08 58.0245 333.061 58.0369C329.84 60.0677 324.448 62.304 316.805 64.342C301.683 68.3747 280.18 71 256 71C231.82 71 210.317 68.3747 195.195 64.342C187.552 62.304 182.16 60.0677 178.939 58.0369Z" fill="#FFD600" stroke="#121212" stroke-width="6" stroke-linecap="round" stroke-linejoin="round"/>
</svg>
