<svg width="512" height="512" viewBox="0 0 512 512" fill="none" xmlns="http://www.w3.org/2000/svg">
<g clip-path="url(#clip0_1727_265)">
<path d="M163 399.997V399.995V397H160H159.8C137.005 397 119.639 397 105.86 398.598C91.9635 400.209 81.3983 403.474 72.3235 410.215C72.0593 410.411 71.7964 410.609 71.5351 410.809C62.5607 417.683 56.5191 426.945 51.152 439.864C45.8303 452.674 41.0595 469.372 34.797 491.29L34.7422 491.482L29.1154 511.176L28.0228 515H32H480H483.977L482.885 511.176L477.258 491.482L477.203 491.291C470.941 469.372 466.17 452.674 460.848 439.864C455.481 426.945 449.44 417.683 440.465 410.81C440.204 410.609 439.941 410.411 439.677 410.215L437.888 412.623L439.677 410.215C430.602 403.474 420.037 400.209 406.14 398.598C392.361 397 374.996 397 352.2 397H352H349V399.995V399.997V399.997V400L349 400.02C349 400.044 348.999 400.085 348.998 400.142C348.995 400.256 348.99 400.435 348.98 400.675C348.958 401.156 348.915 401.878 348.826 402.809C348.649 404.672 348.291 407.361 347.572 410.599C346.131 417.084 343.25 425.717 337.504 434.336C326.128 451.399 303.126 469 256 469C208.874 469 185.872 451.399 174.496 434.336C168.75 425.717 165.87 417.084 164.429 410.599C163.709 407.361 163.351 404.672 163.174 402.809C163.085 401.878 163.042 401.156 163.021 400.675C163.01 400.435 163.005 400.256 163.002 400.142C163.001 400.085 163 400.044 163 400.02L163 400V399.997V399.997Z" fill="#202020" stroke="#121212" stroke-width="6"/>
<path d="M129.352 397.493C128.639 397.961 128.16 398.712 128.033 399.555C127.907 400.399 128.146 401.257 128.69 401.914L155.67 434.476L129.213 454.09C128.027 454.969 127.657 456.581 128.341 457.889L157.341 513.389C157.858 514.379 158.883 515 160 515H201C202.657 515 204 513.657 204 512V354C204 352.897 203.395 351.883 202.424 351.36C201.454 350.836 200.274 350.887 199.352 351.493L129.352 397.493Z" fill="#121212" stroke="#121212" stroke-width="6" stroke-linejoin="round"/>
<circle cx="153" cy="400" r="6" fill="white"/>
<circle cx="153" cy="458" r="6" fill="white"/>
<path d="M382.648 397.493C383.361 397.961 383.84 398.712 383.967 399.555C384.093 400.399 383.854 401.257 383.31 401.914L356.33 434.476L382.787 454.09C383.973 454.969 384.343 456.581 383.659 457.889L354.659 513.389C354.142 514.379 353.117 515 352 515H311C309.343 515 308 513.657 308 512V354C308 352.897 308.605 351.883 309.576 351.36C310.546 350.836 311.726 350.887 312.648 351.493L382.648 397.493Z" fill="#121212" stroke="#121212" stroke-width="6" stroke-linejoin="round"/>
<circle cx="359" cy="400" r="6" fill="white"/>
<circle cx="359" cy="458" r="6" fill="white"/>
</g>
<defs>
<clipPath id="clip0_1727_265">
<rect width="512" height="512" fill="white"/>
</clipPath>
</defs>
</svg>
