<svg width="512" height="512" viewBox="0 0 512 512" fill="none" xmlns="http://www.w3.org/2000/svg">
<g clip-path="url(#clip0_1735_826)">
<path d="M201.5 522L166 398H130L163 522H201.5Z" fill="#77492D" stroke="#121212" stroke-width="6" stroke-linecap="round" stroke-linejoin="round"/>
<path d="M254.941 550.347L254.959 550.347L254.976 550.348C255.064 550.352 255.194 550.359 255.365 550.367C255.708 550.383 256.213 550.406 256.87 550.434C258.185 550.49 260.106 550.565 262.54 550.642C267.408 550.797 274.333 550.959 282.569 550.994C299.031 551.062 320.783 550.616 341.851 548.552C362.826 546.497 383.477 542.807 397.524 536.22C404.54 532.93 410.29 528.744 413.437 523.314C416.695 517.692 416.908 511.188 413.724 504.028C404.456 483.187 391.603 469.445 376.927 461.34C362.272 453.247 346.021 450.896 330.128 452.451C300.065 455.392 270.816 472.351 254.96 491.873C239.929 473.833 213.901 457.845 185.779 455.04C155.773 452.047 123.682 464.102 100.323 503.724C96.4618 510.273 95.971 516.452 98.8162 521.942C101.528 527.175 106.988 531.202 113.685 534.38C127.128 540.763 147.44 544.592 168.218 546.918C189.094 549.255 210.809 550.11 227.282 550.382C235.524 550.518 242.466 550.509 247.349 550.465C249.791 550.444 251.72 550.413 253.039 550.389C253.699 550.376 254.206 550.365 254.55 550.357C254.722 550.353 254.853 550.35 254.941 550.347Z" fill="#FBA834" stroke="#121212" stroke-width="6" stroke-linejoin="round"/>
<path d="M256.388 554.593C254.658 549.224 251.926 542.02 247.836 534.327C239.462 518.574 225.233 500.48 202.003 492.237C181.796 485.066 155.933 481.141 134.906 486.007C124.347 488.45 114.823 493.157 107.935 500.979C101.014 508.838 96.9998 519.567 97 533.564C97.0002 549.017 108.13 559.254 123.157 565.933C138.231 572.633 158.119 576.211 177.72 578.053C197.377 579.901 217.003 580.024 231.694 579.689C239.044 579.521 245.172 579.238 249.465 578.997C251.612 578.876 253.301 578.766 254.456 578.686C255.034 578.645 255.478 578.613 255.779 578.59C255.859 578.584 255.929 578.579 255.988 578.574C256.051 578.579 256.125 578.585 256.21 578.593C256.519 578.618 256.974 578.655 257.566 578.701C258.75 578.793 260.482 578.919 262.684 579.06C267.087 579.341 273.371 579.679 280.909 579.908C295.975 580.366 316.101 580.39 336.259 578.641C356.36 576.897 376.751 573.371 392.204 566.598C407.615 559.845 419 549.412 419 533.564C419 519.384 414.423 508.095 406.792 499.607C399.201 491.162 388.752 485.668 377.245 482.706C354.311 476.803 326.498 480.778 306.486 492.474C286.602 504.094 273.275 521.969 264.948 536.781C261.101 543.622 258.296 549.854 256.388 554.593Z" fill="#FFD600" stroke="#121212" stroke-width="6" stroke-linejoin="round"/>
<path d="M482.885 510.176C483.143 511.081 482.962 512.055 482.395 512.807C481.828 513.558 480.941 514 480 514H438C436.343 514 435 512.657 435 511V479C435 464.088 447.088 452 462 452H464C465.339 452 466.517 452.888 466.885 454.176L482.885 510.176Z" fill="#FFD600" stroke="#121212" stroke-width="6" stroke-linejoin="round"/>
<path d="M475.885 484.176C476.143 485.081 475.962 486.055 475.395 486.807C474.828 487.558 473.941 488 473 488H427C425.343 488 424 486.657 424 485V453C424 438.088 436.088 426 451 426H457C458.339 426 459.517 426.888 459.885 428.176L475.885 484.176Z" fill="#FFD600" stroke="#121212" stroke-width="6" stroke-linejoin="round"/>
<path d="M364 395.488C364 394.051 365.019 392.815 366.43 392.542C392.487 387.499 414.633 390.015 433.798 399.601C452.92 409.166 468.771 425.617 482.552 447.91C485.355 452.444 486.899 456.539 486.41 460.025C486.149 461.888 485.317 463.488 483.975 464.723C482.682 465.913 481.057 466.637 479.358 467.072C476.014 467.926 471.711 467.823 467.001 467.196C462.222 466.559 456.731 465.337 450.867 463.737C427.461 457.349 397.039 444.619 379.681 436.996C370.021 432.754 364 423.194 364 412.721V395.488Z" fill="#FBA834" stroke="#121212" stroke-width="6" stroke-linejoin="round"/>
<circle cx="256" cy="483" r="20" fill="white" stroke="#121212" stroke-width="6"/>
</g>
<defs>
<clipPath id="clip0_1735_826">
<rect width="512" height="512" fill="white"/>
</clipPath>
</defs>
</svg>
