<svg xmlns="http://www.w3.org/2000/svg" viewBox="0 0 500 500"><g id="layer1"><svg width="512" height="512" viewBox="0 0 512 512" fill="none" xmlns="http://www.w3.org/2000/svg">
<rect width="512" height="512" fill="#00FF94"/>
<path d="M134 178H167V242H146L134 178Z" fill="#E24713"/>
<path d="M378 178H345V242H366L378 178Z" fill="#E24713"/>
<rect x="207" y="346" width="98" height="54" fill="#E24713"/>
<path d="M64 400H448L480 512H32L64 400Z" fill="#F15824"/>
<rect x="166" y="106" width="180" height="240" fill="#F15824"/>
</svg>
</g><g id="layer2"><svg width="512" height="512" viewBox="0 0 512 512" fill="none" xmlns="http://www.w3.org/2000/svg">
<mask id="mask0_34_133" style="mask-type:alpha" maskUnits="userSpaceOnUse" x="32" y="106" width="448" height="406">
<path fill-rule="evenodd" clip-rule="evenodd" d="M207 346H166V242H146L134 178H166L166 106L346 106V178H378L366 242H346V346L305 346V400H448L480 512H32L64 400H207V346Z" fill="#F15824"/>
</mask>
<g mask="url(#mask0_34_133)">
<circle cx="256" cy="-40" r="950" fill="#F15824">
<animate attributeName="cy" values="-40;-400;-40" keyTimes="0;0.5;1" dur="20s" repeatCount="indefinite"/>
</circle>
<circle cx="256" cy="-40" r="900" fill="#C2FD52">
<animate attributeName="cy" values="-40;-400;-40" keyTimes="0;0.5;1" dur="20s" repeatCount="indefinite"/>
</circle>
<circle cx="256" cy="-40" r="850" fill="#AD00FF">
<animate attributeName="cy" values="-40;-400;-40" keyTimes="0;0.5;1" dur="20s" repeatCount="indefinite"/>
</circle>
<circle cx="256" cy="-40" r="800" fill="#00A8FF">
<animate attributeName="cy" values="-40;-400;-40" keyTimes="0;0.5;1" dur="20s" repeatCount="indefinite"/>
</circle>
<circle cx="256" cy="-40" r="750" fill="#C2FD52">
<animate attributeName="cy" values="-40;-400;-40" keyTimes="0;0.5;1" dur="20s" repeatCount="indefinite"/>
</circle>
<circle cx="256" cy="-40" r="700" fill="#D22D27">
<animate attributeName="cy" values="-40;-400;-40" keyTimes="0;0.5;1" dur="20s" repeatCount="indefinite"/>
</circle>
<circle cx="256" cy="-40" r="650" fill="#FFB74A">
<animate attributeName="cy" values="-40;-400;-40" keyTimes="0;0.5;1" dur="20s" repeatCount="indefinite"/>
</circle>
<circle cx="256" cy="-40" r="600" fill="#F15824">
<animate attributeName="cy" values="-40;-400;-40" keyTimes="0;0.5;1" dur="20s" repeatCount="indefinite"/>
</circle>
<circle cx="256" cy="-40" r="550" fill="#C2FD52">
<animate attributeName="cy" values="-40;-400;-40" keyTimes="0;0.5;1" dur="20s" repeatCount="indefinite"/>
</circle>
<circle cx="256" cy="-40" r="500" fill="#FF00B1">
<animate attributeName="cy" values="-40;-400;-40" keyTimes="0;0.5;1" dur="20s" repeatCount="indefinite"/>
</circle>
<circle cx="256" cy="-40" r="450" fill="#AD00FF">
<animate attributeName="cy" values="-40;-400;-40" keyTimes="0;0.5;1" dur="20s" repeatCount="indefinite"/>
</circle>
<circle cx="256" cy="-40" r="400" fill="#00A8FF">
<animate attributeName="cy" values="-40;-400;-40" keyTimes="0;0.5;1" dur="20s" repeatCount="indefinite"/>
</circle>
<circle cx="256" cy="-40" r="350" fill="#C2FD52">
<animate attributeName="cy" values="-40;-400;-40" keyTimes="0;0.5;1" dur="20s" repeatCount="indefinite"/>
</circle>
<circle cx="256" cy="-40" r="300" fill="#D22D27">
<animate attributeName="cy" values="-40;-400;-40" keyTimes="0;0.5;1" dur="20s" repeatCount="indefinite"/>
</circle>
<circle cx="256" cy="-40" r="250" fill="#FFB74A">
<animate attributeName="cy" values="-40;-400;-40" keyTimes="0;0.5;1" dur="20s" repeatCount="indefinite"/>
</circle>
<circle cx="256" cy="-40" r="200" fill="#F15824">
<animate attributeName="cy" values="-40;-400;-40" keyTimes="0;0.5;1" dur="20s" repeatCount="indefinite"/>
</circle>
</g>
<path d="M256 218L266 258H246" stroke="#121212" stroke-width="6"/>
</svg>
</g><g id="layer3"><svg width="512" height="512" viewBox="0 0 512 512" fill="none" xmlns="http://www.w3.org/2000/svg">
<path d="M166 106L219.5 73V106L288.5 73V106L346 73V106V154L166 154V106Z" fill="#121212"/>
<rect x="166" y="154" width="12" height="40" fill="#121212"/>
<rect x="334" y="154" width="12" height="40" fill="#121212"/>
</svg>
</g><g id="layer4"><svg width="512" height="512" viewBox="0 0 512 512" fill="none" xmlns="http://www.w3.org/2000/svg">
<path d="M64 400H448L480 512H32L64 400Z" fill="#D22D27"/>
<path d="M460 400H52L36 456H476L460 400Z" fill="#BF0700"/>
<rect x="207" y="376" width="98" height="24" fill="#FFB74A"/>
<circle cx="221" cy="388" r="6" fill="white"/>
<circle cx="244" cy="388" r="6" fill="white"/>
<circle cx="267" cy="388" r="6" fill="white"/>
<circle cx="290" cy="388" r="6" fill="white"/>
<path d="M37.1373 452H474.854L482.867 480H29.1445L37.1373 452Z" fill="#FFB74A"/>
<rect x="244" y="400" width="24" height="112" fill="#FFB74A"/>
<circle cx="256" cy="414" r="6" fill="white"/>
<circle cx="256" cy="438" r="6" fill="white"/>
<circle cx="256" cy="466" r="6" fill="white"/>
<circle cx="60" cy="466" r="6" fill="white"/>
<circle cx="296" cy="466" r="6" fill="white"/>
<circle cx="99" cy="466" r="6" fill="white"/>
<circle cx="334" cy="466" r="6" fill="white"/>
<circle cx="138" cy="466" r="6" fill="white"/>
<circle cx="372" cy="466" r="6" fill="white"/>
<circle cx="177" cy="466" r="6" fill="white"/>
<circle cx="410" cy="466" r="6" fill="white"/>
<circle cx="216" cy="466" r="6" fill="white"/>
<circle cx="448" cy="466" r="6" fill="white"/>
</svg>
</g><g id="layer5"><svg></svg></g><g id="layer6"><svg width="512" height="512" viewBox="0 0 512 512" fill="none" xmlns="http://www.w3.org/2000/svg">
<path d="M216 284H296L292 301L288 317H224L220 301L216 284Z" fill="white"/>
<path d="M220 301L224 317H288L292 301M220 301L216 284H296L292 301M220 301H292" stroke="#121212" stroke-width="6"/>
<g>
<animateTransform attributeName="transform" type="translate" dur="2s" repeatCount="indefinite" keyTimes="0;0.20;0.6;0.8;1" values="-8 0;16 0;16 0;-8 0;-8 0" />
<rect width="24" height="64" transform="matrix(0 -1 -1 0 185 313)" fill="#2D2D2D"/>
<path d="M199.785 325H187.83V301M199.785 277H187.83V301M187.83 301H319" stroke="#2D2D2D" stroke-width="6"/>
<path d="M118 317V301V285" stroke="#2D2D2D" stroke-width="6"/>
</g>
</svg>
</g><g id="layer7"><svg width="512" height="512" viewBox="0 0 512 512" fill="none" xmlns="http://www.w3.org/2000/svg">
<circle cx="10" cy="10" r="10" transform="matrix(1 0 0 -1 212 214)" fill="#121212"/>
<circle cx="10" cy="10" r="10" transform="matrix(1 0 0 -1 280 214)" fill="#121212"/>
<g>
<animateTransform attributeName="transform" type="translate" values="0 0; 0 0; 0 -16;0 0;0 -16; 0 0;0 0" keyTimes="0;0;0.04;0.08;0.12;0.16;1" dur="4s" repeatCount="indefinite"/>
<path d="M206 178H238" stroke="#121212" stroke-width="6"/>
<path d="M274 178H306" stroke="#121212" stroke-width="6"/>
</g>
</svg>
</g><g id="layer8"><svg width="512" height="512" viewBox="0 0 512 512" fill="none" xmlns="http://www.w3.org/2000/svg">
<path d="M166 178H242L250 186L234 231L166 211V178Z" fill="#121212"/>
<path d="M346 178H270L262 186L278 231L346 211V178Z" fill="#121212"/>
<rect x="242" y="178" width="28" height="12" fill="#121212"/>
<mask id="mask0_147_68" style="mask-type:alpha" maskUnits="userSpaceOnUse" x="171" y="187" width="74" height="38">
<path d="M171 187H245L239.02 202.647L231.545 225L171 207.863V187Z" fill="#121212"/>
</mask>
<g mask="url(#mask0_147_68)">
<path d="M178.202 182.842H189.685L175.905 238.104H164.422L178.202 182.842Z" fill="#D9D9D9">
<animateTransform attributeName="transform" type="translate" dur="4s" repeatCount="indefinite" keyTimes="0;0.8;1" values="-32 0;-32 0;68 0" />
</path>
</g>
<mask id="mask1_147_68" style="mask-type:alpha" maskUnits="userSpaceOnUse" x="267" y="187" width="74" height="39">
<path d="M341 187.118H267.185L273.15 202.776L280.606 225.144L341 207.995V187.118Z" fill="#121212"/>
</mask>
<g mask="url(#mask1_147_68)">
<path d="M285.951 185.627H275.106L288.12 237.819H298.965L285.951 185.627Z" fill="#D9D9D9">
<animateTransform attributeName="transform" type="translate" dur="4s" repeatCount="indefinite" keyTimes="0;0.8;1" values="-32 0;-32 0;68 0" />
</path>
</g>
</svg>
</g></svg>