<svg xmlns="http://www.w3.org/2000/svg" viewBox="0 0 500 500"><g id="layer1"><svg width="512" height="512" viewBox="0 0 512 512" fill="none" xmlns="http://www.w3.org/2000/svg">
<rect width="512" height="512" fill="#FFD600"/>
<path d="M134 178H167V242H146L134 178Z" fill="#E24713"/>
<path d="M378 178H345V242H366L378 178Z" fill="#E24713"/>
<rect x="207" y="346" width="98" height="54" fill="#E24713"/>
<path d="M64 400H448L480 512H32L64 400Z" fill="#F15824"/>
<rect x="166" y="106" width="180" height="240" fill="#F15824"/>
</svg>
</g><g id="layer2"><svg width="512" height="512" viewBox="0 0 512 512" fill="none" xmlns="http://www.w3.org/2000/svg">
<path d="M134 178H166V242H146L134 178Z" fill="#E24713"/>
<path d="M378 178H346V242H366L378 178Z" fill="#E24713"/>
<rect x="207" y="346" width="98" height="54" fill="#E24713"/>
<path d="M64 400H448L480 512H32L64 400Z" fill="#F15824"/>
<path d="M42.0001 477L35.4287 500L106 489L42.0001 477Z" fill="#1D1D1D"/>
<path d="M476.286 499L470.286 478L405 488.5L476.286 499Z" fill="#1D1D1D"/>
<path d="M466.429 464.5L460.857 445L425.5 456.5L466.429 464.5Z" fill="#1D1D1D"/>
<path d="M51.1427 445L45.5713 464.5L87 456.5L51.1427 445Z" fill="#1D1D1D"/>
<rect x="136" y="456" width="240" height="56" fill="#FF6F3F"/>
<rect x="166" y="106" width="180" height="240" fill="#F15824"/>
<path d="M96 400H80L88 424L96 400Z" fill="#1D1D1D"/>
<path d="M158 178H142L150 194L158 178Z" fill="#1D1D1D"/>
<path d="M370 178H354L362 194L370 178Z" fill="#1D1D1D"/>
<path d="M210 106H194L202 130L210 106Z" fill="#1D1D1D"/>
<path d="M342 400H326L334 440L342 400Z" fill="#1D1D1D"/>
<path d="M141 400H125L133 432L141 400Z" fill="#1D1D1D"/>
<path d="M264 106H248L256 146L264 106Z" fill="#1D1D1D"/>
<path d="M387 400H371L379 432L387 400Z" fill="#1D1D1D"/>
<path d="M186 400H170L178 440L186 400Z" fill="#1D1D1D"/>
<path d="M318 106H302L310 130L318 106Z" fill="#1D1D1D"/>
<path d="M432 400H416L424 424L432 400Z" fill="#1D1D1D"/>
<path d="M190 262L166 254V270L190 262Z" fill="#1D1D1D"/>
<path d="M190 154L166 146V162L190 154Z" fill="#1D1D1D"/>
<path d="M231 362L207 354V370L231 362Z" fill="#1D1D1D"/>
<path d="M281 362L305 354V370L281 362Z" fill="#1D1D1D"/>
<path d="M231 385L207 377V393L231 385Z" fill="#1D1D1D"/>
<path d="M281 385L305 377V393L281 385Z" fill="#1D1D1D"/>
<path d="M322 262L346 254V270L322 262Z" fill="#1D1D1D"/>
<path d="M322 154L346 146V162L322 154Z" fill="#1D1D1D"/>
<path d="M198 294L166 286V302L198 294Z" fill="#1D1D1D"/>
<path d="M314 294L346 286V302L314 294Z" fill="#1D1D1D"/>
<path d="M214 326L166 318V334L214 326Z" fill="#1D1D1D"/>
<path d="M298 326L346 318V334L298 326Z" fill="#1D1D1D"/>
<path d="M256 218L266 258H246" stroke="#121212" stroke-width="6"/>
</svg>
</g><g id="layer3"><svg width="512" height="512" viewBox="0 0 512 512" fill="none" xmlns="http://www.w3.org/2000/svg">
<rect x="106" y="146" width="300" height="16" fill="#FFB74A"/>
<rect x="166" y="82" width="180" height="64" fill="#FFB74A"/>
<rect x="166" y="130" width="180" height="16" fill="#D22D27"/>
</svg>
</g><g id="layer4"><svg width="512" height="512" viewBox="0 0 512 512" fill="none" xmlns="http://www.w3.org/2000/svg">
<path d="M64 400H207L257 467L305 400H448L480 512H32L64 400Z" fill="#8B634A"/>
<circle cx="6" cy="6" r="6" transform="matrix(1 0 0 -1 251 486)" fill="#77492D"/>
<circle cx="6" cy="6" r="6" transform="matrix(1 0 0 -1 251 506)" fill="#77492D"/>
<rect x="80" y="400" width="76" height="112" fill="#77492D"/>
<rect x="356" y="400" width="76" height="112" fill="#77492D"/>
<path d="M257 467L191.5 439.5L199 429L171.5 421L179.5 400H207L257 467Z" fill="#77492D"/>
<path d="M257 467L322.5 439.5L315 429L342.5 421L334.5 400H305L257 467Z" fill="#77492D"/>
</svg>
</g><g id="layer5"><svg width="512" height="512" viewBox="0 0 512 512" fill="none" xmlns="http://www.w3.org/2000/svg">
<rect x="236" y="322" width="40" height="24" fill="#121212"/>
<path d="M166 286H207V346H166V286Z" fill="#121212"/>
<path d="M346 286H305V346H346V286Z" fill="#121212"/>
</svg>
</g><g id="layer6"><svg width="512" height="512" viewBox="0 0 512 512" fill="none" xmlns="http://www.w3.org/2000/svg">
<path d="M230.711 302H280" stroke="#121212" stroke-width="6"/>
<path d="M279.001 302C279.001 302 367.883 367.5 373.191 370.5L385.191 349.999L279.001 302Z" fill="#D22D27" stroke="#121212" stroke-width="6"/>
<path d="M276.75 301.825L342.223 348.641L360.478 339.021L276.75 301.825Z" fill="#00FF94" stroke="#121212" stroke-width="6"/>
<path d="M279.5 302L324.971 336.304L339.801 329.835L279.5 302Z" fill="#00A8FF"/>
<path d="M324.971 336.304L323.164 338.699L324.564 339.755L326.171 339.054L324.971 336.304ZM279.5 302L280.757 299.276C279.366 298.634 277.713 299.144 276.926 300.459C276.139 301.774 276.47 303.472 277.693 304.395L279.5 302ZM339.801 329.835L341.001 332.584L347.127 329.912L341.059 327.111L339.801 329.835ZM326.778 333.909L281.307 299.605L277.693 304.395L323.164 338.699L326.778 333.909ZM278.243 304.724L338.544 332.558L341.059 327.111L280.757 299.276L278.243 304.724ZM326.171 339.054L341.001 332.584L338.602 327.085L323.772 333.554L326.171 339.054Z" fill="#121212"/>
<rect x="391.396" y="335" width="21" height="37.7025" rx="10.5" transform="rotate(42.3433 391.396 335)" fill="#FFB74A" stroke="#121212" stroke-width="6"/>
<path d="M390 363C390 366.701 387.989 369.933 385 371.662C383.529 372.513 381.821 373 380 373C374.477 373 370 368.523 370 363C370 357.477 374.477 353 380 353C385.523 353 390 357.477 390 363Z" fill="#FFB74A" stroke="#121212" stroke-width="6"/>
</svg>
</g><g id="layer7"><svg width="512" height="512" viewBox="0 0 512 512" fill="none" xmlns="http://www.w3.org/2000/svg">
  <rect x="212" y="194" width="20" height="20" rx="10" fill="#121212">
    <animate attributeName="rx" values="10;10;1;10;10;1;10;10;" keyTimes="0;0.275;0.3;0.325;0.725;0.75;0.775;1" dur="4s" repeatCount="indefinite" />
    <animate attributeName="height" values="20;20;2;20;20;2;20;20" keyTimes="0;0.275;0.3;0.325;0.725;0.75;0.775;1" dur="4s" repeatCount="indefinite" />
    <animate attributeName="y" values="194;194;203;194;194;203;194;194" keyTimes="0;0.275;0.3;0.325;0.725;0.75;0.775;1" dur="4s" repeatCount="indefinite" />
  </rect>
  <rect x="280" y="194" width="20" height="20" rx="10" fill="#121212">
    <animate attributeName="rx" values="10;10;1;10;10;1;10;10" keyTimes="0;0.275;0.3;0.325;0.725;0.75;0.775;1" dur="4s" repeatCount="indefinite" />
    <animate attributeName="height" values="20;20;2;20;20;2;20;20" keyTimes="0;0.275;0.3;0.325;0.725;0.75;0.775;1" dur="4s" repeatCount="indefinite" />
    <animate attributeName="y" values="194;194;203;194;194;203;194;194" keyTimes="0;0.275;0.3;0.325;0.725;0.75;0.775;1" dur="4s" repeatCount="indefinite" />
  </rect>
  <path d="M206 162H238" stroke="#121212" stroke-width="6"/>
  <path d="M274 162H306" stroke="#121212" stroke-width="6"/>
</svg>
</g><g id="layer8"><svg width="512" height="512" viewBox="0 0 512 512" fill="none" xmlns="http://www.w3.org/2000/svg">
<path d="M235 250L256 234L277 250H346V226V210.5V195V178H269H166V195V210.5V226V250H235Z" fill="#121212"/>
<circle cx="176" cy="190" r="4" fill="#0047FF"/>
<circle cx="176" cy="206" r="4" fill="#0047FF"/>
<circle cx="176" cy="222" r="4" fill="#0047FF"/>
<circle cx="176" cy="238" r="4" fill="#0047FF"/>
<circle cx="192" cy="206" r="4" fill="#0047FF"/>
<circle cx="208" cy="222" r="4" fill="#0047FF"/>
<circle cx="224" cy="206" r="4" fill="#0047FF"/>
<circle cx="224" cy="222" r="4" fill="#0047FF"/>
<circle cx="240" cy="190" r="4" fill="#0047FF"/>
<circle cx="240" cy="206" r="4" fill="#0047FF"/>
<circle cx="240" cy="222" r="4" fill="#0047FF"/>
<circle cx="240" cy="238" r="4" fill="#0047FF"/>
<circle cx="256" cy="190" r="4" fill="#0047FF"/>
<circle cx="256" cy="206" r="4" fill="#0047FF"/>
<circle cx="256" cy="222" r="4" fill="#0047FF"/>
<circle cx="272" cy="190" r="4" fill="#0047FF"/>
<circle cx="272" cy="206" r="4" fill="#0047FF"/>
<circle cx="272" cy="222" r="4" fill="#0047FF"/>
<circle cx="272" cy="238" r="4" fill="#0047FF"/>
<circle cx="304" cy="206" r="4" fill="#0047FF"/>
<circle cx="336" cy="190" r="4" fill="#0047FF"/>
<circle cx="336" cy="206" r="4" fill="#0047FF"/>
<circle cx="336" cy="222" r="4" fill="#0047FF"/>
<circle cx="336" cy="238" r="4" fill="#0047FF"/>
<circle cx="304" cy="222" r="4" fill="#0047FF"/>
<g>
<animate attributeName="fill" dur="8s" repeatCount="indefinite" keyTimes="0;0.05;0.075;0.1;0.12;0.15;0.5;0.55;1" values="#6C0400;#FF0900;#6C0400;#FF0900;#6C0400;#FF0900;#FF0900;#6C0400;#6C0400" />
<circle cx="192" cy="190" r="4" fill="#79CBDC" />
<circle cx="192" cy="222" r="4" fill="#79CBDC"/>
<circle cx="192" cy="238" r="4" fill="#79CBDC"/>
<circle cx="208" cy="190" r="4" fill="#79CBDC"/>
<circle cx="208" cy="206" r="4" fill="#79CBDC"/>
<circle cx="208" cy="238" r="4" fill="#79CBDC"/>
<circle cx="224" cy="190" r="4" fill="#79CBDC"/>
<circle cx="224" cy="238" r="4" fill="#79CBDC"/>
<circle cx="288" cy="190" r="4" fill="#79CBDC"/>
<circle cx="288" cy="206" r="4" fill="#79CBDC"/>
<circle cx="288" cy="222" r="4" fill="#79CBDC"/>
<circle cx="288" cy="238" r="4" fill="#79CBDC"/>
<circle cx="304" cy="190" r="4" fill="#79CBDC"/>
<circle cx="304" cy="238" r="4" fill="#79CBDC"/>
<circle cx="320" cy="190" r="4" fill="#79CBDC"/>
<circle cx="320" cy="206" r="4" fill="#79CBDC"/>
<circle cx="320" cy="222" r="4" fill="#79CBDC"/>
<circle cx="320" cy="238" r="4" fill="#79CBDC"/>
</g>
</svg>
</g></svg>