<svg xmlns="http://www.w3.org/2000/svg" viewBox="0 0 500 500"><g id="layer1"><svg width="512" height="512" viewBox="0 0 512 512" fill="none" xmlns="http://www.w3.org/2000/svg">
<rect width="512" height="512" fill="#A7FF00"/>
<path d="M134 178H167V242H146L134 178Z" fill="#E24713"/>
<path d="M378 178H345V242H366L378 178Z" fill="#E24713"/>
<rect x="207" y="346" width="98" height="54" fill="#E24713"/>
<path d="M64 400H448L480 512H32L64 400Z" fill="#F15824"/>
<rect x="166" y="106" width="180" height="240" fill="#F15824"/>
</svg>
</g><g id="layer2"><svg width="512" height="512" viewBox="0 0 512 512" fill="none" xmlns="http://www.w3.org/2000/svg">
<path d="M134 178H166V242H146L134 178Z" fill="#CACACA"/>
<path d="M378 178H346V242H366L378 178Z" fill="#CACACA"/>
<rect x="207" y="346" width="98" height="54" fill="#CACACA"/>
<path d="M64 400H448L480 512H32L64 400Z" fill="#E3E3E3"/>
<rect x="136" y="456" width="240" height="56" fill="white"/>
<rect x="166" y="106" width="180" height="240" fill="#E3E3E3"/>
<path d="M272 236H240L232 250L256 262L280 250L272 236Z" fill="#121212" stroke="#121212" stroke-width="6"/>
<rect x="79" y="455" width="16" height="16" rx="8" fill="#1D1D1D"/>
<rect x="100" y="484" width="16" height="16" rx="8" fill="#1D1D1D"/>
<rect x="139" y="424" width="16" height="16" rx="8" fill="#1D1D1D"/>
<rect x="215" y="351" width="16" height="16" rx="8" fill="#1D1D1D"/>
<rect x="326" y="153" width="16" height="16" rx="8" fill="#1D1D1D"/>
<rect x="174" y="153" width="16" height="16" rx="8" fill="#1D1D1D"/>
<rect x="277" y="113" width="16" height="16" rx="8" fill="#1D1D1D"/>
<rect x="310" y="413" width="16" height="16" rx="8" fill="#1D1D1D"/>
<rect x="410" y="455" width="16" height="16" rx="8" fill="#1D1D1D"/>
<rect x="448" y="484" width="16" height="16" rx="8" fill="#1D1D1D"/>
<rect x="79" y="409" width="24" height="24" rx="12" fill="#1D1D1D"/>
<rect x="414" y="412" width="24" height="24" rx="12" fill="#1D1D1D"/>
<rect x="197" y="415" width="24" height="24" rx="12" fill="#1D1D1D"/>
<rect x="232" y="369" width="24" height="24" rx="12" fill="#1D1D1D"/>
<rect x="174" y="115" width="24" height="24" rx="12" fill="#1D1D1D"/>
<rect x="285" y="378" width="12" height="12" rx="6" fill="#1D1D1D"/>
<rect x="326" y="115" width="12" height="12" rx="6" fill="#1D1D1D"/>
<rect x="231" y="115" width="12" height="12" rx="6" fill="#1D1D1D"/>
<rect x="141" y="185" width="12" height="12" rx="6" fill="#1D1D1D"/>
<rect x="154" y="198" width="12" height="12" rx="6" fill="#1D1D1D"/>
<rect x="356" y="185" width="12" height="12" rx="6" fill="#1D1D1D"/>
<rect x="256" y="431" width="12" height="12" rx="6" fill="#1D1D1D"/>
<rect x="390" y="488" width="12" height="12" rx="6" fill="#1D1D1D"/>
<rect x="364" y="431" width="12" height="12" rx="6" fill="#1D1D1D"/>
<rect x="52" y="492" width="12" height="12" rx="6" fill="#1D1D1D"/>
</svg>
</g><g id="layer3"><svg width="512" height="512" viewBox="0 0 512 512" fill="none" xmlns="http://www.w3.org/2000/svg">
<path d="M181.729 133.565C179.509 137.627 174.417 139.12 170.355 136.901C166.293 134.681 164.8 129.589 167.019 125.527C169.239 121.465 182.859 114.019 182.859 114.019C182.859 114.019 183.949 129.503 181.729 133.565Z" fill="#00CA4D"/>
<path d="M216.729 120.565C214.509 124.627 209.417 126.12 205.355 123.901C201.293 121.681 199.8 116.589 202.019 112.527C204.239 108.465 217.859 101.019 217.859 101.019C217.859 101.019 218.949 116.503 216.729 120.565Z" fill="#00CA4D"/>
<path d="M229.716 144.65C226.007 142.319 224.89 137.424 227.221 133.715C229.551 130.006 234.447 128.889 238.156 131.22C241.864 133.551 248.112 146.844 248.112 146.844C248.112 146.844 233.424 146.981 229.716 144.65Z" fill="#00CA4D"/>
<path d="M192.716 158.65C189.007 156.319 187.89 151.424 190.221 147.715C192.551 144.006 197.447 142.889 201.156 145.22C204.864 147.551 211.112 160.844 211.112 160.844C211.112 160.844 196.424 160.981 192.716 158.65Z" fill="#00CA4D"/>
<path d="M164.716 169.65C161.007 167.319 159.89 162.424 162.221 158.715C164.551 155.006 169.447 153.889 173.156 156.22C176.864 158.551 183.112 171.844 183.112 171.844C183.112 171.844 168.424 171.981 164.716 169.65Z" fill="#00CA4D"/>
<path d="M154.5 152L186.5 140L202.5 134L218.5 128L234.5 122" stroke="#00772D" stroke-width="6"/>
<path d="M334.603 133.565C336.823 137.627 341.915 139.12 345.977 136.901C350.039 134.681 351.533 129.589 349.313 125.527C347.093 121.465 333.473 114.019 333.473 114.019C333.473 114.019 332.383 129.503 334.603 133.565Z" fill="#00CA4D"/>
<path d="M299.603 120.565C301.823 124.627 306.915 126.12 310.977 123.901C315.039 121.681 316.533 116.589 314.313 112.527C312.093 108.465 298.473 101.019 298.473 101.019C298.473 101.019 297.383 116.503 299.603 120.565Z" fill="#00CA4D"/>
<path d="M286.617 144.65C290.325 142.319 291.442 137.424 289.111 133.715C286.781 130.006 281.885 128.889 278.176 131.22C274.468 133.551 268.22 146.844 268.22 146.844C268.22 146.844 282.908 146.981 286.617 144.65Z" fill="#00CA4D"/>
<path d="M323.617 158.65C327.325 156.319 328.442 151.424 326.111 147.715C323.781 144.006 318.885 142.889 315.176 145.22C311.468 147.551 305.22 160.844 305.22 160.844C305.22 160.844 319.908 160.981 323.617 158.65Z" fill="#00CA4D"/>
<path d="M351.617 169.65C355.325 167.319 356.442 162.424 354.111 158.715C351.781 155.006 346.885 153.889 343.176 156.22C339.468 158.551 333.22 171.844 333.22 171.844C333.22 171.844 347.908 171.981 351.617 169.65Z" fill="#00CA4D"/>
<path d="M361.832 152L329.832 140L313.832 134L297.832 128L281.832 122" stroke="#00772D" stroke-width="6"/>
</svg>
</g><g id="layer4"><svg width="512" height="512" viewBox="0 0 512 512" fill="none" xmlns="http://www.w3.org/2000/svg">
<path d="M64 400H160C160 400 160 472 256 472C352 472 352 400 352 400H448L480 512H32L64 400Z" fill="#121212"/>
<path d="M137 400L207 346V512H166L137 456.5L166 435L137 400Z" fill="#2D2D2D"/>
<circle cx="159" cy="400" r="6" fill="white"/>
<circle cx="159" cy="458" r="6" fill="white"/>
<path d="M375 400L305 346V512H346L375 456.5L346 435L375 400Z" fill="#2D2D2D"/>
<circle cx="353" cy="400" r="6" fill="white"/>
<circle cx="353" cy="458" r="6" fill="white"/>
<path d="M72 408H84L78 384L72 408Z" fill="white"/>
<path d="M72 440H84L78 416L72 440Z" fill="white"/>
<path d="M388 440H400L394 416L388 440Z" fill="white"/>
<path d="M388 408H400L394 384L388 408Z" fill="white"/>
<path d="M92 408H104L98 384L92 408Z" fill="white"/>
<path d="M92 440H104L98 416L92 440Z" fill="white"/>
<path d="M408 440H420L414 416L408 440Z" fill="white"/>
<path d="M408 408H420L414 384L408 408Z" fill="white"/>
<path d="M112 408H124L118 384L112 408Z" fill="white"/>
<path d="M112 440H124L118 416L112 440Z" fill="white"/>
<path d="M428 440H440L434 416L428 440Z" fill="white"/>
<path d="M428 408H440L434 384L428 408Z" fill="white"/>
</svg>
</g><g id="layer5"><svg></svg></g><g id="layer6"><svg width="512" height="512" viewBox="0 0 512 512" fill="none" xmlns="http://www.w3.org/2000/svg">
<path d="M230.711 302H280" stroke="#121212" stroke-width="6"/>
<g>
<animateTransform attributeName="transform" type="translate" dur="8s" repeatCount="indefinite" keyTimes="0;0.12;0.5;0.51;0.75;1" values="0 0;-130 -151;-130 -151;250 302;250 302;0 0" />
<path d="M376 302C376 331.271 352.271 355 323 355C293.729 355 271.5 309 256 302C272 295 293.729 249 323 249C352.271 249 376 272.729 376 302Z" fill="#FF008A" fill-opacity="0.8" stroke="#121212" stroke-width="6">
<animateTransform attributeName="transform" type="scale" dur="8s" repeatCount="indefinite" keyTimes="0;0.12;0.5;0.51;0.75;1" values="1;1.5;1.5;0;0;1" />
</path>
</g>
</svg>
</g><g id="layer7"><svg width="512" height="512" viewBox="0 0 512 512" fill="none" xmlns="http://www.w3.org/2000/svg">
    <rect x="212" y="194" width="20" height="20" rx="10" fill="#121212">
        <animate attributeName="x" values="206;218;218;206;206" keyTimes="0;0.05;0.5;0.55;1" dur="4s" repeatCount="indefinite" />
    </rect>
    <rect x="280" y="194" width="20" height="20" rx="10" fill="#121212">
        <animate attributeName="x" values="274;286;286;274;274" keyTimes="0;0.05;0.5;0.55;1" dur="4s" repeatCount="indefinite" />
    </rect>
    <path d="M206 197H238" stroke="#121212" stroke-width="6"/>
    <path d="M274 197H306" stroke="#121212" stroke-width="6"/>
</svg>
</g><g id="layer8"><svg width="512" height="512" viewBox="0 0 512 512" fill="none" xmlns="http://www.w3.org/2000/svg">
<path d="M166 178H346V230L277 234L256 218L235 234L166 230V178Z" fill="#121212"/>
<rect x="182" y="194" width="148" height="20" fill="#D22D27">
<animate attributeName="fill" dur="8s" repeatCount="indefinite" keyTimes="0;0.05;0.075;0.1;0.12;0.15;0.5;0.55;1" values="#6C0400;#FF0900;#6C0400;#FF0900;#6C0400;#FF0900;#FF0900;#6C0400;#6C0400" />
</rect>
</svg>
</g></svg>