<svg xmlns="http://www.w3.org/2000/svg" viewBox="0 0 500 500"><g id="layer1"><svg width="512" height="512" viewBox="0 0 512 512" fill="none" xmlns="http://www.w3.org/2000/svg">
<rect width="512" height="512" fill="#00FF94"/>
<path d="M134 178H167V242H146L134 178Z" fill="#E24713"/>
<path d="M378 178H345V242H366L378 178Z" fill="#E24713"/>
<rect x="207" y="346" width="98" height="54" fill="#E24713"/>
<path d="M64 400H448L480 512H32L64 400Z" fill="#F15824"/>
<rect x="166" y="106" width="180" height="240" fill="#F15824"/>
</svg>
</g><g id="layer2"><svg width="512" height="512" viewBox="0 0 512 512" fill="none" xmlns="http://www.w3.org/2000/svg">
<mask id="mask0_34_133" style="mask-type:alpha" maskUnits="userSpaceOnUse" x="32" y="106" width="448" height="406">
<path fill-rule="evenodd" clip-rule="evenodd" d="M207 346H166V242H146L134 178H166L166 106L346 106V178H378L366 242H346V346L305 346V400H448L480 512H32L64 400H207V346Z" fill="#F15824"/>
</mask>
<g mask="url(#mask0_34_133)">
<circle cx="256" cy="-40" r="950" fill="#F15824">
<animate attributeName="cy" values="-40;-400;-40" keyTimes="0;0.5;1" dur="20s" repeatCount="indefinite"/>
</circle>
<circle cx="256" cy="-40" r="900" fill="#C2FD52">
<animate attributeName="cy" values="-40;-400;-40" keyTimes="0;0.5;1" dur="20s" repeatCount="indefinite"/>
</circle>
<circle cx="256" cy="-40" r="850" fill="#AD00FF">
<animate attributeName="cy" values="-40;-400;-40" keyTimes="0;0.5;1" dur="20s" repeatCount="indefinite"/>
</circle>
<circle cx="256" cy="-40" r="800" fill="#00A8FF">
<animate attributeName="cy" values="-40;-400;-40" keyTimes="0;0.5;1" dur="20s" repeatCount="indefinite"/>
</circle>
<circle cx="256" cy="-40" r="750" fill="#C2FD52">
<animate attributeName="cy" values="-40;-400;-40" keyTimes="0;0.5;1" dur="20s" repeatCount="indefinite"/>
</circle>
<circle cx="256" cy="-40" r="700" fill="#D22D27">
<animate attributeName="cy" values="-40;-400;-40" keyTimes="0;0.5;1" dur="20s" repeatCount="indefinite"/>
</circle>
<circle cx="256" cy="-40" r="650" fill="#FFB74A">
<animate attributeName="cy" values="-40;-400;-40" keyTimes="0;0.5;1" dur="20s" repeatCount="indefinite"/>
</circle>
<circle cx="256" cy="-40" r="600" fill="#F15824">
<animate attributeName="cy" values="-40;-400;-40" keyTimes="0;0.5;1" dur="20s" repeatCount="indefinite"/>
</circle>
<circle cx="256" cy="-40" r="550" fill="#C2FD52">
<animate attributeName="cy" values="-40;-400;-40" keyTimes="0;0.5;1" dur="20s" repeatCount="indefinite"/>
</circle>
<circle cx="256" cy="-40" r="500" fill="#FF00B1">
<animate attributeName="cy" values="-40;-400;-40" keyTimes="0;0.5;1" dur="20s" repeatCount="indefinite"/>
</circle>
<circle cx="256" cy="-40" r="450" fill="#AD00FF">
<animate attributeName="cy" values="-40;-400;-40" keyTimes="0;0.5;1" dur="20s" repeatCount="indefinite"/>
</circle>
<circle cx="256" cy="-40" r="400" fill="#00A8FF">
<animate attributeName="cy" values="-40;-400;-40" keyTimes="0;0.5;1" dur="20s" repeatCount="indefinite"/>
</circle>
<circle cx="256" cy="-40" r="350" fill="#C2FD52">
<animate attributeName="cy" values="-40;-400;-40" keyTimes="0;0.5;1" dur="20s" repeatCount="indefinite"/>
</circle>
<circle cx="256" cy="-40" r="300" fill="#D22D27">
<animate attributeName="cy" values="-40;-400;-40" keyTimes="0;0.5;1" dur="20s" repeatCount="indefinite"/>
</circle>
<circle cx="256" cy="-40" r="250" fill="#FFB74A">
<animate attributeName="cy" values="-40;-400;-40" keyTimes="0;0.5;1" dur="20s" repeatCount="indefinite"/>
</circle>
<circle cx="256" cy="-40" r="200" fill="#F15824">
<animate attributeName="cy" values="-40;-400;-40" keyTimes="0;0.5;1" dur="20s" repeatCount="indefinite"/>
</circle>
</g>
<path d="M256 218L266 258H246" stroke="#121212" stroke-width="6"/>
</svg>
</g><g id="layer3"><svg width="512" height="512" viewBox="0 0 512 512" fill="none" xmlns="http://www.w3.org/2000/svg">
<rect width="180" height="68" transform="matrix(1 0 0 -1 166 142)" fill="#FFEE59"/>
<rect width="180" height="24" transform="matrix(1 0 0 -1 166 166)" fill="#E5C000"/>
<path d="M244 166H268V198L256 210L244 198V166Z" fill="#FFEE59"/>
<path d="M166 166H190V308C176.745 308 166 297.255 166 284V242.5V166Z" fill="#FFEE59"/>
<path d="M346 166H322V308C335.255 308 346 297.255 346 284V242.5V166Z" fill="#FFEE59"/>
<rect x="244" y="34" width="24" height="80" fill="#D22D27"/>
</svg>
</g><g id="layer4"><svg width="512" height="512" viewBox="0 0 512 512" fill="none" xmlns="http://www.w3.org/2000/svg">
<g clip-path="url(#clip0_273_4114)">
<path d="M64 400H160C160 400 160 472 256 472C352 472 352 400 352 400H448L480 512H32L64 400Z" fill="#121212"/>
<path d="M150.5 400H207V533.5H185L133 443.5H164L150.5 400Z" fill="#2D2D2D"/>
<path d="M361.5 400H305V533.5H327L379 443.5H348L361.5 400Z" fill="#2D2D2D"/>
</g>
<defs>
<clipPath id="clip0_273_4114">
<rect width="512" height="512" fill="white"/>
</clipPath>
</defs>
</svg>
</g><g id="layer5"><svg></svg></g><g id="layer6"><svg width="512" height="512" viewBox="0 0 512 512" fill="none" xmlns="http://www.w3.org/2000/svg">
<path d="M230.711 302H280" stroke="#121212" stroke-width="6"/>
</svg>
</g><g id="layer7"><svg width="512" height="512" viewBox="0 0 512 512" fill="none" xmlns="http://www.w3.org/2000/svg">
    <rect x="212" y="194" width="20" height="20" rx="10" fill="#121212">
        <animate attributeName="fill" dur="4s" repeatCount="indefinite" keyTimes="0;0.05;0.1;0.75;0.8;1" values="#121212;#121212;#BA120C;#BA120C;#121212;#121212" />
    </rect>
    <rect x="280" y="194" width="20" height="20" rx="10" fill="#121212">
        <animate attributeName="fill" dur="4s" repeatCount="indefinite" keyTimes="0;0.05;0.1;0.75;0.8;1" values="#121212;#121212;#BA120C;#BA120C;#121212;#121212" />
    </rect>
    <g transform="translate(0,0)">
        <path d="M206 162H238" stroke="#121212" stroke-width="6">
            <animateTransform attributeName="transform" type="translate" begin="0s" dur="4s" repeatCount="indefinite" keyTimes="0;0.05;0.1;0.75;0.8;1" values="0 0;0 0;2 12;2 12;0 0;0 0" />
            <animateTransform attributeName="transform" type="rotate" begin="0s" dur="4s" repeatCount="indefinite" keyTimes="0;0.05;0.1;0.75;0.8;1" values="0 222 162;0 222 162;30 222 162;30 222 162;0 222 162;0 222 162" additive="sum" />
        </path>
    </g>
    <g transform="translate(0,0)">
        <path d="M274 162H306" stroke="#121212" stroke-width="6">
            <animateTransform attributeName="transform" type="translate" begin="0s" dur="4s" repeatCount="indefinite" keyTimes="0;0.05;0.1;0.75;0.8;1" values="0 0;0 0;-2 12;-2 12;0 0;0 0" />
            <animateTransform attributeName="transform" type="rotate" begin="0s" dur="4s" repeatCount="indefinite" keyTimes="0;0.05;0.1;0.75;0.8;1" values="0 290 162;0 290 162;-30 290 162;-30 290 162;0 290 162;0 290 162" additive="sum" />
        </path>
    </g>
</svg>
</g><g id="layer8"><svg width="512" height="512" viewBox="0 0 512 512" fill="none" xmlns="http://www.w3.org/2000/svg">
<path d="M166 178H346V234H277L256 218L235 234H166V178Z" fill="#425824" fill-opacity="0.6"/>
<path d="M199 224H225.5L229.5 229" stroke="#42B06C" stroke-width="2"/>
<path d="M312.5 224H286L282 229" stroke="#42B06C" stroke-width="2"/>
<path d="M174 194V218" stroke="#42B06C" stroke-width="2"/>
<path d="M182 222V226" stroke="#42B06C" stroke-width="2"/>
<path d="M329.5 222V226" stroke="#42B06C" stroke-width="2"/>
<path d="M186 222V226" stroke="#42B06C" stroke-width="2"/>
<path d="M325.5 222V226" stroke="#42B06C" stroke-width="2"/>
<path d="M190 222V226" stroke="#42B06C" stroke-width="2"/>
<path d="M321.5 222V226" stroke="#42B06C" stroke-width="2"/>
<path d="M194 222V226" stroke="#42B06C" stroke-width="2"/>
<path d="M317.5 222V226" stroke="#42B06C" stroke-width="2"/>
<path d="M338 194V218" stroke="#42B06C" stroke-width="2"/>
<path d="M178 190H237.5L242 185.5H250.5" stroke="#42B06C" stroke-width="2"/>
<path d="M334 190H274.5L270 185.5H261.5" stroke="#42B06C" stroke-width="2"/>
<path d="M247 194L251.5 199H260.5L265 194" stroke="#42B06C" stroke-width="2"/>
</svg>
</g></svg>