<svg xmlns="http://www.w3.org/2000/svg" viewBox="0 0 500 500"><g id="layer1"><svg width="512" height="512" viewBox="0 0 512 512" fill="none" xmlns="http://www.w3.org/2000/svg">
<rect width="512" height="512" fill="#0047FF"/>
<path d="M134 178H167V242H146L134 178Z" fill="#E24713"/>
<path d="M378 178H345V242H366L378 178Z" fill="#E24713"/>
<rect x="207" y="346" width="98" height="54" fill="#E24713"/>
<path d="M64 400H448L480 512H32L64 400Z" fill="#F15824"/>
<rect x="166" y="106" width="180" height="240" fill="#F15824"/>
</svg>
</g><g id="layer2"><svg width="512" height="512" viewBox="0 0 512 512" fill="none" xmlns="http://www.w3.org/2000/svg">
<path d="M134 178H166V242H146L134 178Z" fill="#E24713"/>
<path d="M378 178H346V242H366L378 178Z" fill="#E24713"/>
<rect x="207" y="346" width="98" height="54" fill="#E24713"/>
<path d="M64 400H448L480 512H32L64 400Z" fill="#F15824"/>
<rect x="166" y="106" width="180" height="240" fill="#F15824"/>
<path d="M256 218L266 258H246" stroke="#121212" stroke-width="6"/>
</svg>
</g><g id="layer3"><svg width="512" height="512" viewBox="0 0 512 512" fill="none" xmlns="http://www.w3.org/2000/svg">
<path d="M134 178H166V242H146L134 178Z" fill="#121212"/>
<path d="M378 178H346V242H366L378 178Z" fill="#121212"/>
<rect x="166" y="106" width="180" height="56" fill="#121212"/>
<rect x="166" y="242" width="180" height="104" fill="#121212"/>
</svg>
</g><g id="layer4"><svg width="512" height="512" viewBox="0 0 512 512" fill="none" xmlns="http://www.w3.org/2000/svg">
<g clip-path="url(#clip0_434_10844)">
<path d="M64 400H207L257 439L305 400H448L480 512H32L64 400Z" fill="#D22D27"/>
<circle cx="404" cy="426" r="12" fill="#FF9900"/>
<circle cx="428" cy="426" r="12" fill="#FF9900"/>
<circle cx="428" cy="450" r="12" fill="#FF9900"/>
<circle cx="404" cy="450" r="12" fill="#FF9900"/>
<circle cx="416" cy="438" r="12" fill="#FFD600"/>
<circle cx="85.7607" cy="425.76" r="12" fill="#FF9900"/>
<circle cx="109.761" cy="425.76" r="12" fill="#FF9900"/>
<circle cx="109.761" cy="449.76" r="12" fill="#FF9900"/>
<circle cx="85.7607" cy="449.76" r="12" fill="#FF9900"/>
<circle cx="97.7607" cy="437.76" r="12" fill="#FFD600"/>
<circle cx="144" cy="489" r="12" fill="#FF9900"/>
<circle cx="168" cy="489" r="12" fill="#FF9900"/>
<circle cx="168" cy="513" r="12" fill="#FF9900"/>
<circle cx="144" cy="513" r="12" fill="#FF9900"/>
<circle cx="156" cy="501" r="12" fill="#FFD600"/>
<circle cx="344" cy="489" r="12" fill="#FF9900"/>
<circle cx="368" cy="489" r="12" fill="#FF9900"/>
<circle cx="368" cy="513" r="12" fill="#FF9900"/>
<circle cx="344" cy="513" r="12" fill="#FF9900"/>
<circle cx="356" cy="501" r="12" fill="#FFD600"/>
<circle cx="243.761" cy="488.761" r="12" fill="#FF9900"/>
<circle cx="267.761" cy="488.761" r="12" fill="#FF9900"/>
<circle cx="267.761" cy="512.761" r="12" fill="#FF9900"/>
<circle cx="243.761" cy="512.761" r="12" fill="#FF9900"/>
<circle cx="255.761" cy="500.761" r="12" fill="#FFD600"/>
<path d="M257 439L215.5 466.5L179.5 400L207 380L257 439Z" fill="#FF9490"/>
<path d="M257 439L298.5 466.5L334.5 400L305 380L257 439Z" fill="#FF9490"/>
</g>
<defs>
<clipPath id="clip0_434_10844">
<rect width="512" height="512" fill="white"/>
</clipPath>
</defs>
</svg>
</g><g id="layer5"><svg></svg></g><g id="layer6"><svg width="512" height="512" viewBox="0 0 512 512" fill="none" xmlns="http://www.w3.org/2000/svg">
<rect x="238" y="298" width="36" height="4" rx="2" fill="white">
  <animate attributeName="y" dur="4s" repeatCount="indefinite" keyTimes="0;0.05;0.1;0.75;0.8;1" values="298;298;282;282;298;298" />
  <animate attributeName="height" dur="4s" repeatCount="indefinite" keyTimes="0;0.05;0.1;0.75;0.8;1" values="4;4;36;36;4;4" />
  <animate attributeName="rx" dur="4s" repeatCount="indefinite" keyTimes="0;0.05;0.1;0.75;0.8;1" values="2;2;18;18;2;2" />
</rect>
</svg>
</g><g id="layer7"><svg width="512" height="512" viewBox="0 0 512 512" fill="none" xmlns="http://www.w3.org/2000/svg">
    <rect x="212" y="194" width="20" height="20" rx="10" fill="#121212">
        <animate attributeName="x" values="206;218;218;206;206" keyTimes="0;0.05;0.5;0.55;1" dur="4s" repeatCount="indefinite" />
    </rect>
    <rect x="280" y="194" width="20" height="20" rx="10" fill="#121212">
        <animate attributeName="x" values="274;286;286;274;274" keyTimes="0;0.05;0.5;0.55;1" dur="4s" repeatCount="indefinite" />
    </rect>
    <path d="M206 197H238" stroke="#121212" stroke-width="6"/>
    <path d="M274 197H306" stroke="#121212" stroke-width="6"/>
</svg>
</g><g id="layer8"><svg width="512" height="512" viewBox="0 0 512 512" fill="none" xmlns="http://www.w3.org/2000/svg">
<path d="M190 175H246V231H190V175Z" fill="#FF00B1" fill-opacity="0.6"/>
<path d="M190 175H246V231H190V175ZM190 175H166" stroke="#121212" stroke-width="6"/>
<path d="M247 184H266" stroke="#121212" stroke-width="6"/>
<path d="M266 175H322V231H266V175Z" fill="#FF00B1" fill-opacity="0.6"/>
<path d="M322 175H266V231H322V175ZM322 175H346" stroke="#121212" stroke-width="6"/>
<mask id="mask0_139_2" style="mask-type:alpha" maskUnits="userSpaceOnUse" x="269" y="178" width="50" height="50">
<path d="M269 178H319V228H309.625H269V178Z" fill="#121212"/>
</mask>
<g mask="url(#mask0_139_2)">
<path d="M279.545 178H290L277.455 228H267L279.545 178Z" fill="#FFF">
<animateTransform attributeName="transform" type="translate" dur="4s" repeatCount="indefinite" keyTimes="0;0.8;1" values="-32 0;-32 0;48 0" />
</path>
</g>
<mask id="mask1_139_2" style="mask-type:alpha" maskUnits="userSpaceOnUse" x="193" y="178" width="50" height="50">
<path d="M193 178H243V228H233.625H193V178Z" fill="#121212"/>
</mask>
<g mask="url(#mask1_139_2)">
<path d="M203.545 178H214L201.455 228H191L203.545 178Z" fill="#FFF">
<animateTransform attributeName="transform" type="translate" dur="4s" repeatCount="indefinite" keyTimes="0;0.8;1" values="-32 0;-32 0;48 0" />
</path>
</g>
</svg>
</g></svg>