<svg xmlns="http://www.w3.org/2000/svg" viewBox="0 0 500 500"><g id="layer1"><svg width="512" height="512" viewBox="0 0 512 512" fill="none" xmlns="http://www.w3.org/2000/svg">
<rect width="512" height="512" fill="#0047FF"/>
<path d="M134 178H167V242H146L134 178Z" fill="#E24713"/>
<path d="M378 178H345V242H366L378 178Z" fill="#E24713"/>
<rect x="207" y="346" width="98" height="54" fill="#E24713"/>
<path d="M64 400H448L480 512H32L64 400Z" fill="#F15824"/>
<rect x="166" y="106" width="180" height="240" fill="#F15824"/>
</svg>
</g><g id="layer2"><svg width="512" height="512" viewBox="0 0 512 512" fill="none" xmlns="http://www.w3.org/2000/svg">
<path d="M134 178H166V242H146L134 178Z" fill="#E24713"/>
<path d="M378 178H346V242H366L378 178Z" fill="#E24713"/>
<rect x="207" y="346" width="98" height="54" fill="#E24713"/>
<path d="M64 400H448L480 512H32L64 400Z" fill="#F15824"/>
<rect x="166" y="106" width="180" height="240" fill="#F15824"/>
<path d="M256 218L266 258H246" stroke="#121212" stroke-width="6"/>
</svg>
</g><g id="layer3"><svg width="512" height="512" viewBox="0 0 512 512" fill="none" xmlns="http://www.w3.org/2000/svg">
<path d="M165.999 106V346H104.999C74.9998 300 128.999 278.25 128.999 278.25C128.999 278.25 104.999 271.5 104.999 244.375C104.999 217.25 128.999 210.5 128.999 210.5C128.999 210.5 104.999 200.5 104.999 176.625C104.999 152.75 128.999 142.75 128.999 142.75C128.999 142.75 117.308 103.5 137.5 84.5C157.692 65.5 192.749 75 192.749 75C192.749 75 201.499 35 256.499 35C311.499 35 320.249 75 320.249 75C320.249 75 357.5 66.215 377 84.5C396.5 102.785 384.249 142.75 384.249 142.75C384.249 142.75 408.469 146.5 408.749 176.625C408.999 203.5 384.749 210.5 384.749 210.5C384.749 210.5 409.249 217.75 408.999 244.375C408.749 271 384.749 278.25 384.749 278.25C384.749 278.25 441 299 408.999 346H345.999V106H165.999Z" fill="#121212"/>
<ellipse cx="174.5" cy="124.5" rx="37.5" ry="33.5" fill="#121212"/>
<ellipse cx="256" cy="106" rx="61" ry="45" fill="#121212"/>
<ellipse cx="335" cy="124.5" rx="40" ry="33.5" fill="#121212"/>
</svg>
</g><g id="layer4"><svg width="512" height="512" viewBox="0 0 512 512" fill="none" xmlns="http://www.w3.org/2000/svg">
<path d="M64 400H207C207 400 223 426 257 426C293 426 305 400 305 400H448L480 512H32L64 400Z" fill="white"/>
<path d="M196 400V478H244.5H270.75H316V400" stroke="#121212" stroke-width="12"/>
<path d="M243 506V490H269.25V512" stroke="#121212" stroke-width="12"/>
<path d="M207 400L257 467L135 400H207Z" fill="#ECECEC"/>
<path d="M305 400L257 467L379 400H305Z" fill="#ECECEC"/>
</svg>
</g><g id="layer5"><svg></svg></g><g id="layer6"><svg width="512" height="512" viewBox="0 0 512 512" fill="none" xmlns="http://www.w3.org/2000/svg">
<path d="M230.711 302H280" stroke="#121212" stroke-width="6"/>
</svg>
</g><g id="layer7"><svg width="512" height="512" viewBox="0 0 512 512" fill="none" xmlns="http://www.w3.org/2000/svg">
    <circle cx="222" cy="194" r="10" fill="#121212">
      </circle>
    <circle cx="290" cy="194" r="10" fill="#121212">
      </circle>
  
        <path d="M206 162H238" stroke="#121212" stroke-width="6">
            <animateTransform attributeName="transform" type="translate" begin="0s" dur="4s" repeatCount="indefinite" keyTimes="0;0.05;0.1;0.75;0.8;1" values="0 0;0 0;0 24;0 24;0 0;0 0" />
        </path>
    <g transform="translate(0,0)">
        <path d="M274 162H306" stroke="#121212" stroke-width="6">
            <animateTransform attributeName="transform" type="translate" begin="0s" dur="4s" repeatCount="indefinite" keyTimes="0;0.05;0.1;0.75;0.8;1" values="0 0;0 0;2 -16;2 -16;0 0;0 0" />
            <animateTransform attributeName="transform" type="rotate" begin="0s" dur="4s" repeatCount="indefinite" keyTimes="0;0.05;0.1;0.75;0.8;1" values="0 290 162;0 290 162;30 290 162;30 290 162;0 290 162;0 290 162" additive="sum" />
        </path>
    </g>
</svg>
</g><g id="layer8"><svg width="512" height="512" viewBox="0 0 512 512" fill="none" xmlns="http://www.w3.org/2000/svg">
<path fill-rule="evenodd" clip-rule="evenodd" d="M166 170H346V226L277 238L256 222L235 238L166 226V170ZM243 204C243 215.598 233.598 225 222 225C210.402 225 201 215.598 201 204C201 192.402 210.402 183 222 183C233.598 183 243 192.402 243 204ZM290 225C301.598 225 311 215.598 311 204C311 192.402 301.598 183 290 183C278.402 183 269 192.402 269 204C269 215.598 278.402 225 290 225Z" fill="#121212"/>
</svg>
</g></svg>