<svg xmlns="http://www.w3.org/2000/svg" width="512" height="512" fill="none"><rect width="512" height="512" fill="#FF9900"/><rect x="84" y="340" width="344" height="160" fill="#36CF00"/><g id="ling"><animateTransform attributeName="transform" type="translate" dur="0.4s" repeatCount="indefinite" keyTimes="0;0.5;1" values="0 0;0 28;0 0" /><rect x="196" y="176" width="120" height="296" fill="#3BE200"/><rect width="120" height="80" x="196" y="96" fill="#36CF00"/><rect x="250" y="96" width="12" height="36" fill="#3BE200"><animate attributeName="fill" values="#3BE200; #3BE200; #fff; #3BE200;#fff; #3BE200;#fff; #3BE200;#fff; #3BE200;#fff; #3BE200;#fff; #3BE200;#3BE200" keyTimes="0; 0.74; 0.76; 0.78;0.8;0.82;0.84;0.86;0.88;0.9;0.92;0.94;0.96;0.98;1" dur="5s" repeatCount="indefinite" /></rect><rect width="120" height="48" transform="matrix(1 0 0 -1 196 144)" fill="#121212"/><path d="M292 104L296.702 113.528L307.217 115.056L299.608 122.472L301.405 132.944L292 128L282.595 132.944L284.392 122.472L276.783 115.056L287.298 113.528L292 104Z" fill="#525252"/><rect width="120" height="12" transform="matrix(1 0 0 -1 196 156)" fill="#525252"/><path d="M152 149.5L182.271 96H284L196.165 177L152 149.5Z" fill="#121212"/><path d="M230.711 340H280" stroke="#121212" stroke-width="6"/><g><animateTransform attributeName="transform" type="translate" dur="4s" repeatCount="indefinite" keyTimes="0;0.5;1" values="0 0;-124 -170;0 0" /><path d="M376 340C376 369 352 393 323 393C293 393 271.5 347 256 340C272 333 293 287 323 287C352 287 376 310 376 340Z" fill="#FF008A" fill-opacity="0.8" stroke="#121212" stroke-width="6"><animateTransform attributeName="transform" type="scale" dur="4s" repeatCount="indefinite" keyTimes="0;0.5;1" values="1;1.5;1" /></path></g></g></svg>