<svg xmlns="http://www.w3.org/2000/svg" width="512" height="512" fill="none"><rect width="512" height="512" fill="#FF9900"/><rect x="84" y="340" width="344" height="160" fill="#0097D8"/><path d="M388 407L428 375V387L388 407Z" fill="#2C71A3"/><path d="M124 407L84 375V387L124 407Z" fill="#2C71A3"/><path d="M124 430L84 466V450L124 430Z" fill="#2C71A3"/><path d="M388 430L428 466V450L388 430Z" fill="#2C71A3"/><g id="ling"><animateTransform attributeName="transform" type="translate" dur="0.4s" repeatCount="indefinite" keyTimes="0;0.5;1" values="0 0;0 28;0 0" /><rect x="196" y="176" width="120" height="296" fill="#00B2FF"/><path d="M227 400L196 431V415L227 400Z" fill="#2C71A3"/><path d="M222 336L196 344V328L222 336Z" fill="#2C71A3"/><path d="M276 347L316 383V367L276 347Z" fill="#2C71A3"/><path d="M276 324L316 292V304L276 324Z" fill="#2C71A3"/><rect width="120" height="80" x="196" y="96" fill="#0097D8"/><rect x="250" y="96" width="12" height="36" fill="#00B2FF"><animate attributeName="fill" values="#00B2FF; #00B2FF; #fff; #00B2FF;#fff; #00B2FF;#fff; #00B2FF;#fff; #00B2FF;#fff; #00B2FF;#fff; #00B2FF;#00B2FF" keyTimes="0; 0.74; 0.76; 0.78;0.8;0.82;0.84;0.86;0.88;0.9;0.92;0.94;0.96;0.98;1" dur="5s" repeatCount="indefinite" /></rect><rect x="316" y="149" width="12" height="55" fill="#121212"/><rect x="184" y="149" width="12" height="55" fill="#121212"/><path d="M184 52L328 97.0237V149H184V52Z" fill="#121212"/><path d="M196 176H246.667L252 181.333L241 211L196 198V176Z" fill="#121212"/><path d="M316 176H265.333L260 181.333L271 211L316 198V176Z" fill="#121212"/><rect x="246.666" y="176" width="18.6667" height="8" fill="#121212"/><mask id="mask0_180_184" style="mask-type:alpha" maskUnits="userSpaceOnUse" x="196" y="184" width="55" height="27"><path d="M196 184H251L241 211L196 198V184Z" fill="#121212"/></mask><g mask="url(#mask0_180_184)"><path d="M204.112 180H212.882L202.358 223.235H193.588L204.112 180Z" fill="#FFF"><animateTransform attributeName="transform" type="translate" dur="4s" repeatCount="indefinite" keyTimes="0;0.1;0.3;1" values="-32 0;-32 0;54 0;54 0" /></path></g><mask id="mask1_180_184" style="mask-type:alpha" maskUnits="userSpaceOnUse" x="261" y="184" width="55" height="27"><path d="M316 184H261L271 211L316 198V184Z" fill="#121212"/></mask><g mask="url(#mask1_180_184)"><path d="M269.641 180H278.411L267.887 223.235H259.117L269.641 180Z" fill="#FFF"><animateTransform attributeName="transform" type="translate" dur="4s" repeatCount="indefinite" keyTimes="0;0.1;0.3;1" values="-32 0;-32 0;54 0;54 0" /></path></g><path d="M246 327.391C246 327.391 258.823 322.011 262 327.391C265.153 332.732 254.5 341.391 254.5 341.391C254.5 341.391 267.632 337.309 270.5 342.891C273.719 349.156 258 355.891 258 355.891" stroke="#121212" stroke-width="6"/></g></svg>