<svg xmlns="http://www.w3.org/2000/svg" width="512" height="512" fill="none"><rect width="512" height="512" fill="#FF9900"/><rect x="84" y="340" width="344" height="160" fill="#CACACA"/><rect x="343" y="377" width="16" height="16" rx="8" fill="#1D1D1D"/><rect x="120" y="412" width="12" height="12" rx="6" fill="#1D1D1D"/><rect x="370" y="425" width="16" height="16" rx="8" fill="#1D1D1D"/><rect x="148" y="450" width="16" height="16" rx="8" fill="#1D1D1D"/><g id="ling"><animateTransform attributeName="transform" type="translate" dur="0.4s" repeatCount="indefinite" keyTimes="0;0.5;1" values="0 0;0 28;0 0" /><rect x="196" y="176" width="120" height="296" fill="#E3E3E3"/><rect width="120" height="80" x="196" y="96" fill="#CACACA"/><rect x="250" y="96" width="12" height="36" fill="#E3E3E3"><animate attributeName="fill" values="#E3E3E3; #E3E3E3; #fff; #E3E3E3;#fff; #E3E3E3;#fff; #E3E3E3;#fff; #E3E3E3;#fff; #E3E3E3;#fff; #E3E3E3;#E3E3E3" keyTimes="0; 0.74; 0.76; 0.78;0.8;0.82;0.84;0.86;0.88;0.9;0.92;0.94;0.96;0.98;1" dur="5s" repeatCount="indefinite" /></rect><rect x="280" y="330" width="16" height="16" rx="8" fill="#1D1D1D"/><rect x="280" y="404" width="16" height="16" rx="8" fill="#1D1D1D"/><rect x="210" y="287" width="24" height="24" rx="12" fill="#1D1D1D"/><rect x="210" y="417" width="24" height="24" rx="12" fill="#1D1D1D"/><path d="M224 238L208 134V96H196V134V238H224Z" fill="#121212"/><path d="M288 238L304 134V96H316V134V238H288Z" fill="#121212"/><rect x="166" y="136" width="180" height="16" fill="#8B634A"/><rect x="330" y="112" width="16" height="24" fill="#8B634A"/><rect x="166" y="112" width="16" height="24" fill="#8B634A"/><rect x="196" y="108" width="120" height="28" fill="#77492D"/><rect x="196" y="44" width="120" height="64" fill="#8B634A"/><path d="M202 179H250V199L238 227H202V179Z" fill="#121212"/><path d="M202 179H250V199L238 227H202V179ZM202 179H196" stroke="#FFB74A" stroke-width="6"/><path d="M247 179H266" stroke="#FFB74A" stroke-width="6"/><path d="M247 197H266" stroke="#FFB74A" stroke-width="6"/><path d="M310 179H262V199L274 227H310V179Z" fill="#121212"/><path d="M310 179H262V199L274 227H310V179ZM310 179H316" stroke="#FFB74A" stroke-width="6"/><mask id="mask0_180_157" style="mask-type:alpha" maskUnits="userSpaceOnUse" x="205" y="182" width="42" height="42"><path d="M205 182H247V198.336L242 210L236 224H205V182Z" fill="#121212"/></mask><g mask="url(#mask0_180_157)"><path d="M213.112 182H221.882L211.358 225.235H202.588L213.112 182Z" fill="#FFF"><animateTransform attributeName="transform" type="translate" dur="4s" repeatCount="indefinite" keyTimes="0;0.1;0.3;1" values="-32 0;-32 0;48 0;48 0" /></path></g><mask id="mask1_180_157" style="mask-type:alpha" maskUnits="userSpaceOnUse" x="265" y="182" width="42" height="42"><path d="M265 182H307V197V224H299.125H276L265 198.5V182Z" fill="#121212"/></mask><g mask="url(#mask1_180_157)"><path d="M271.112 182H279.882L269.358 225.235H260.588L271.112 182Z" fill="#FFF"><animateTransform attributeName="transform" type="translate" dur="4s" repeatCount="indefinite" keyTimes="0;0.1;0.3;1" values="-32 0;-32 0;48 0;48 0" /></path></g><path d="M230.711 344H280" stroke="#121212" stroke-width="6"/><path d="M368.922 415.44L330.374 380.483L297.904 361.551L280.414 344.06L266.914 344.06L305.04 390.384L321.89 409.262L353.496 433.825L368.922 415.44Z" fill="white"/><path d="M321.89 409.262L353.496 433.825L368.922 415.44L330.374 380.483M321.89 409.262L330.374 380.483M321.89 409.262L305.04 390.384M330.374 380.483L297.904 361.551M305.04 390.384L266.914 344.06L280.414 344.06L297.904 361.551M305.04 390.384L297.904 361.551" stroke="#121212" stroke-width="6"/><path d="M368.922 415.44L353.495 433.825L345 427.223L361 408.256L368.922 415.44Z" fill="#2D2D2D" stroke="#121212" stroke-width="6"><animate attributeName="fill" dur="4s" repeatCount="indefinite" keyTimes="0;0.8;1" values="#2d2d2d;red;#2d2d2d" /></path><path d="M383 432C411.5 439 442 427.5 449 385.5C456 343.5 393 313 424 267" stroke="white" stroke-width="6"><animate attributeName="stroke" dur="4s" repeatCount="indefinite" keyTimes="0;0.8;1" values="white;transparent;white" /></path></g></svg>