<svg xmlns="http://www.w3.org/2000/svg" width="512" height="512" fill="none"><rect width="512" height="512" fill="#FF9900"/><rect x="84" y="340" width="344" height="160" fill="#CACACA"/><rect x="343" y="377" width="16" height="16" rx="8" fill="#1D1D1D"/><rect x="120" y="412" width="12" height="12" rx="6" fill="#1D1D1D"/><rect x="370" y="425" width="16" height="16" rx="8" fill="#1D1D1D"/><rect x="148" y="450" width="16" height="16" rx="8" fill="#1D1D1D"/><g id="ling"><animateTransform attributeName="transform" type="translate" dur="0.4s" repeatCount="indefinite" keyTimes="0;0.5;1" values="0 0;0 28;0 0" /><rect x="196" y="176" width="120" height="296" fill="#E3E3E3"/><rect width="120" height="80" x="196" y="96" fill="#CACACA"/><rect x="250" y="96" width="12" height="36" fill="#E3E3E3"><animate attributeName="fill" values="#E3E3E3; #E3E3E3; #fff; #E3E3E3;#fff; #E3E3E3;#fff; #E3E3E3;#fff; #E3E3E3;#fff; #E3E3E3;#fff; #E3E3E3;#E3E3E3" keyTimes="0; 0.74; 0.76; 0.78;0.8;0.82;0.84;0.86;0.88;0.9;0.92;0.94;0.96;0.98;1" dur="5s" repeatCount="indefinite" /></rect><rect x="280" y="330" width="16" height="16" rx="8" fill="#1D1D1D"/><rect x="280" y="404" width="16" height="16" rx="8" fill="#1D1D1D"/><rect x="210" y="287" width="24" height="24" rx="12" fill="#1D1D1D"/><rect x="210" y="417" width="24" height="24" rx="12" fill="#1D1D1D"/><path d="M208.24 129.465L230.931 102.363L171.114 53.4545L120 104.569L158.024 142.592L179.841 120.775L162.075 122.334L145.245 105.504L168.309 82.4399L208.24 129.465Z" fill="#121212"/><path d="M301.896 129.465L279.206 102.363L339.023 53.4545L390.137 104.569L352.113 142.592L330.296 120.775L348.061 122.334L364.892 105.504L341.828 82.4399L301.896 129.465Z" fill="#121212"/><path fill-rule="evenodd" clip-rule="evenodd" d="M196 176H316V213.333L270 221.333L256 210.667L242 221.333L196 213.333V176ZM247.333 198.667C247.333 206.399 241.065 212.667 233.333 212.667C225.601 212.667 219.333 206.399 219.333 198.667C219.333 190.935 225.601 184.667 233.333 184.667C241.065 184.667 247.333 190.935 247.333 198.667ZM278.667 212.667C286.399 212.667 292.667 206.399 292.667 198.667C292.667 190.935 286.399 184.667 278.667 184.667C270.935 184.667 264.667 190.935 264.667 198.667C264.667 206.399 270.935 212.667 278.667 212.667Z" fill="#121212"/><path d="M228 340H261.5H284" stroke="#121212" stroke-width="6"/><path d="M268 359.25V340H245.5V359.25C245.5 365.463 250.537 370.5 256.75 370.5C262.963 370.5 268 365.463 268 359.25Z" fill="#D22D27" stroke="#121212" stroke-width="6"/></g></svg>