<svg xmlns="http://www.w3.org/2000/svg" width="512" height="512" fill="none"><rect width="512" height="512" fill="#FF9900"/><rect x="84" y="340" width="344" height="160" fill="#CACACA"/><rect x="343" y="377" width="16" height="16" rx="8" fill="#1D1D1D"/><rect x="120" y="412" width="12" height="12" rx="6" fill="#1D1D1D"/><rect x="370" y="425" width="16" height="16" rx="8" fill="#1D1D1D"/><rect x="148" y="450" width="16" height="16" rx="8" fill="#1D1D1D"/><g id="ling"><animateTransform attributeName="transform" type="translate" dur="0.4s" repeatCount="indefinite" keyTimes="0;0.5;1" values="0 0;0 28;0 0" /><rect x="196" y="176" width="120" height="296" fill="#E3E3E3"/><rect width="120" height="80" x="196" y="96" fill="#CACACA"/><rect x="250" y="96" width="12" height="36" fill="#E3E3E3"><animate attributeName="fill" values="#E3E3E3; #E3E3E3; #fff; #E3E3E3;#fff; #E3E3E3;#fff; #E3E3E3;#fff; #E3E3E3;#fff; #E3E3E3;#fff; #E3E3E3;#E3E3E3" keyTimes="0; 0.74; 0.76; 0.78;0.8;0.82;0.84;0.86;0.88;0.9;0.92;0.94;0.96;0.98;1" dur="5s" repeatCount="indefinite" /></rect><rect x="280" y="330" width="16" height="16" rx="8" fill="#1D1D1D"/><rect x="280" y="404" width="16" height="16" rx="8" fill="#1D1D1D"/><rect x="210" y="287" width="24" height="24" rx="12" fill="#1D1D1D"/><rect x="210" y="417" width="24" height="24" rx="12" fill="#1D1D1D"/><rect width="120" height="48" transform="matrix(1 0 0 -1 196 144)" fill="#D22D27"/><rect x="286.7" y="104" width="4.26666" height="31.9999" fill="#FF9490"/><rect x="290.966" y="117.867" width="11.7333" height="4.26666" fill="#FF9490"/><rect x="283.5" y="127.467" width="19.2" height="4.26666" fill="#FF9490"/><rect x="283.5" y="108.267" width="19.2" height="4.26666" fill="#FF9490"/><rect x="302.7" y="112.533" width="4.26666" height="5.33332" fill="#FF9490"/><rect x="293.306" y="104" width="4.26666" height="4.26666" fill="#FF9490"/><rect x="293.366" y="131.733" width="4.26666" height="4.26666" fill="#FF9490"/><rect x="302.7" y="122.133" width="4.26666" height="5.33332" fill="#FF9490"/><rect width="120" height="12" transform="matrix(1 0 0 -1 196 156)" fill="#FF9490"/><path d="M152 149.5L182.271 96H284L196.165 177L152 149.5Z" fill="#D22D27"/><rect x="260" y="184" width="56" height="8" fill="#121212"/><rect x="268" y="192" width="40" height="8" fill="#121212"/><rect x="276" y="200" width="24" height="8" fill="#121212"/><rect x="196" y="176" width="120" height="8" fill="#121212"/><rect x="204" y="192" width="40" height="8" fill="#121212"/><rect x="196" y="184" width="56" height="8" fill="#121212"/><rect x="212" y="200" width="24" height="8" fill="#121212"/><mask id="mask0_180_163" style="mask-type:alpha" maskUnits="userSpaceOnUse" x="196" y="184" width="56" height="24"><rect x="204" y="192" width="40" height="8" fill="#121212"/><rect x="196" y="184" width="56" height="8" fill="#121212"/><rect x="212" y="200" width="24" height="8" fill="#121212"/></mask><g mask="url(#mask0_180_163)"><g><animateTransform attributeName="transform" type="translate" dur="4s" repeatCount="indefinite" keyTimes="0;0.1;0.3;1" values="-32 0;-32 0;48 0;48 0" /><rect x="204" y="184" width="8" height="8" fill="white"/><rect x="212" y="192" width="8" height="8" fill="white"/><rect x="220" y="200" width="8" height="8" fill="white"/></g></g><mask id="mask1_180_163" style="mask-type:alpha" maskUnits="userSpaceOnUse" x="260" y="184" width="56" height="24"><rect x="268" y="192" width="40" height="8" fill="#121212"/><rect x="260" y="184" width="56" height="8" fill="#121212"/><rect x="276" y="200" width="24" height="8" fill="#121212"/></mask><g mask="url(#mask1_180_163)"><g><animateTransform attributeName="transform" type="translate" dur="4s" repeatCount="indefinite" keyTimes="0;0.1;0.3;1" values="-32 0;-32 0;48 0;48 0" /><rect x="268" y="184" width="8" height="8" fill="white"/><rect x="276" y="192" width="8" height="8" fill="white"/><rect x="284" y="200" width="8" height="8" fill="white"/></g></g><path d="M230.711 343H280" stroke="#121212" stroke-width="6"/><path d="M279.001 343.001C279.001 343.001 367.883 408.501 373.191 411.501L385.191 391L279.001 343.001Z" fill="#D22D27" stroke="#121212" stroke-width="6"/><path d="M276.75 342.826L342.223 389.641L360.478 380.022L276.75 342.826Z" fill="#00FF94" stroke="#121212" stroke-width="6"/><path d="M279.5 343.001L324.971 377.305L339.801 370.836L279.5 343.001Z" fill="#00A8FF"/><path d="M324.971 377.305L323.164 379.7L324.564 380.756L326.171 380.055L324.971 377.305ZM279.5 343.001L280.757 340.277C279.366 339.635 277.713 340.145 276.926 341.46C276.139 342.775 276.47 344.473 277.693 345.396L279.5 343.001ZM339.801 370.836L341.001 373.585L347.127 370.913L341.059 368.112L339.801 370.836ZM326.778 374.91L281.307 340.606L277.693 345.396L323.164 379.7L326.778 374.91ZM278.243 345.725L338.544 373.559L341.059 368.112L280.757 340.277L278.243 345.725ZM326.171 380.055L341.001 373.585L338.602 368.086L323.772 374.555L326.171 380.055Z" fill="#121212"/><rect x="391.396" y="376" width="21" height="37.7025" rx="10.5" transform="rotate(42.3433 391.396 376)" fill="#FFB74A" stroke="#121212" stroke-width="6"/><path d="M390 404.001C390 407.702 387.989 410.934 385 412.663C383.529 413.514 381.821 414.001 380 414.001C374.477 414.001 370 409.524 370 404.001C370 398.478 374.477 394.001 380 394.001C385.523 394.001 390 398.478 390 404.001Z" fill="#FFB74A" stroke="#121212" stroke-width="6"/></g></svg>