<svg xmlns="http://www.w3.org/2000/svg" width="512" height="512" fill="none"><rect width="512" height="512" fill="#FF9900"/><rect x="84" y="340" width="344" height="160" fill="#CACACA"/><rect x="343" y="377" width="16" height="16" rx="8" fill="#1D1D1D"/><rect x="120" y="412" width="12" height="12" rx="6" fill="#1D1D1D"/><rect x="370" y="425" width="16" height="16" rx="8" fill="#1D1D1D"/><rect x="148" y="450" width="16" height="16" rx="8" fill="#1D1D1D"/><g id="ling"><animateTransform attributeName="transform" type="translate" dur="0.4s" repeatCount="indefinite" keyTimes="0;0.5;1" values="0 0;0 28;0 0" /><rect x="196" y="176" width="120" height="296" fill="#E3E3E3"/><rect width="120" height="80" x="196" y="96" fill="#CACACA"/><rect x="250" y="96" width="12" height="36" fill="#E3E3E3"><animate attributeName="fill" values="#E3E3E3; #E3E3E3; #fff; #E3E3E3;#fff; #E3E3E3;#fff; #E3E3E3;#fff; #E3E3E3;#fff; #E3E3E3;#fff; #E3E3E3;#E3E3E3" keyTimes="0; 0.74; 0.76; 0.78;0.8;0.82;0.84;0.86;0.88;0.9;0.92;0.94;0.96;0.98;1" dur="5s" repeatCount="indefinite" /></rect><rect x="280" y="330" width="16" height="16" rx="8" fill="#1D1D1D"/><rect x="280" y="404" width="16" height="16" rx="8" fill="#1D1D1D"/><rect x="210" y="287" width="24" height="24" rx="12" fill="#1D1D1D"/><rect x="210" y="417" width="24" height="24" rx="12" fill="#1D1D1D"/><path d="M316 151V95L170 52L196 95V151H316Z" fill="#00B2FE"/><path d="M196 176H246.667L252 181.333L241 211L196 198V176Z" fill="#121212"/><path d="M316 176H265.333L260 181.333L271 211L316 198V176Z" fill="#121212"/><rect x="246.666" y="176" width="18.6667" height="8" fill="#121212"/><mask id="mask0_180_184" style="mask-type:alpha" maskUnits="userSpaceOnUse" x="196" y="184" width="55" height="27"><path d="M196 184H251L241 211L196 198V184Z" fill="#121212"/></mask><g mask="url(#mask0_180_184)"><path d="M204.112 180H212.882L202.358 223.235H193.588L204.112 180Z" fill="#FFF"><animateTransform attributeName="transform" type="translate" dur="4s" repeatCount="indefinite" keyTimes="0;0.1;0.3;1" values="-32 0;-32 0;54 0;54 0" /></path></g><mask id="mask1_180_184" style="mask-type:alpha" maskUnits="userSpaceOnUse" x="261" y="184" width="55" height="27"><path d="M316 184H261L271 211L316 198V184Z" fill="#121212"/></mask><g mask="url(#mask1_180_184)"><path d="M269.641 180H278.411L267.887 223.235H259.117L269.641 180Z" fill="#FFF"><animateTransform attributeName="transform" type="translate" dur="4s" repeatCount="indefinite" keyTimes="0;0.1;0.3;1" values="-32 0;-32 0;54 0;54 0" /></path></g><path d="M216 323.5H296L292 340.5L288 356.5H224L220 340.5L216 323.5Z" fill="white"/><path d="M220 340.5L224 356.5H288L292 340.5M220 340.5L216 323.5H296L292 340.5M220 340.5H292" stroke="#121212" stroke-width="6"/><g><animateTransform attributeName="transform" type="translate" dur="4s" repeatCount="indefinite" keyTimes="0;0.25;0.5;0.75;1" values="-8 0;10 0;10 0;-8 0;-8 0" /><path d="M311 340.5L311 315M311 340.5L311 364.5M311 340.5H192.5M180 340.5H192.5M192.5 340.5L201 324.5M192.5 340.5L201 355.5" stroke="#42B16C" stroke-width="6"/><rect x="362" y="320.5" width="40" height="48" transform="rotate(90 362 320.5)" fill="#D22D27"/><path d="M362 348.5V360.5H314V332.5L362 348.5Z" fill="#7B0000"/></g></g></svg>