<svg xmlns="http://www.w3.org/2000/svg" width="512" height="512" fill="none"><rect width="512" height="512" fill="#FF9900"/><rect x="84" y="340" width="344" height="160" fill="#CACACA"/><rect x="343" y="377" width="16" height="16" rx="8" fill="#1D1D1D"/><rect x="120" y="412" width="12" height="12" rx="6" fill="#1D1D1D"/><rect x="370" y="425" width="16" height="16" rx="8" fill="#1D1D1D"/><rect x="148" y="450" width="16" height="16" rx="8" fill="#1D1D1D"/><g id="ling"><animateTransform attributeName="transform" type="translate" dur="0.4s" repeatCount="indefinite" keyTimes="0;0.5;1" values="0 0;0 28;0 0" /><rect x="196" y="176" width="120" height="296" fill="#E3E3E3"/><rect width="120" height="80" x="196" y="96" fill="#CACACA"/><rect x="250" y="96" width="12" height="36" fill="#E3E3E3"><animate attributeName="fill" values="#E3E3E3; #E3E3E3; #fff; #E3E3E3;#fff; #E3E3E3;#fff; #E3E3E3;#fff; #E3E3E3;#fff; #E3E3E3;#fff; #E3E3E3;#E3E3E3" keyTimes="0; 0.74; 0.76; 0.78;0.8;0.82;0.84;0.86;0.88;0.9;0.92;0.94;0.96;0.98;1" dur="5s" repeatCount="indefinite" /></rect><rect x="280" y="330" width="16" height="16" rx="8" fill="#1D1D1D"/><rect x="280" y="404" width="16" height="16" rx="8" fill="#1D1D1D"/><rect x="210" y="287" width="24" height="24" rx="12" fill="#1D1D1D"/><rect x="210" y="417" width="24" height="24" rx="12" fill="#1D1D1D"/><path d="M316 135.5H196V95.5L240 5H317L272 27V69L316 95.5V135.5Z" fill="#AD00FF"/><rect x="156" y="135.5" width="200" height="16" fill="#AD00FF"/><rect x="196" y="119.5" width="120" height="16" fill="#FFB039"/><path d="M257 11.5L259.694 19.7918H268.413L261.359 24.9164L264.053 33.2082L257 28.0836L249.947 33.2082L252.641 24.9164L245.587 19.7918H254.306L257 11.5Z" fill="#FFB039"/><path d="M236 46.5L238.694 54.7918H247.413L240.359 59.9164L243.053 68.2082L236 63.0836L228.947 68.2082L231.641 59.9164L224.587 54.7918H233.306L236 46.5Z" fill="#FFB039"/><path d="M251 79.5L253.694 87.7918H262.413L255.359 92.9164L258.053 101.208L251 96.0836L243.947 101.208L246.641 92.9164L239.587 87.7918H248.306L251 79.5Z" fill="#FFB039"/><path d="M207 88.5L209.694 96.7918H218.413L211.359 101.916L214.053 110.208L207 105.084L199.947 110.208L202.641 101.916L195.587 96.7918H204.306L207 88.5Z" fill="#FFB039"/><path d="M294 91.5L296.694 99.7918H305.413L298.359 104.916L301.053 113.208L294 108.084L286.947 113.208L289.641 104.916L282.587 99.7918H291.306L294 91.5Z" fill="#FFB039"/><path fill-rule="evenodd" clip-rule="evenodd" d="M213.488 163.428C195.296 166.503 184 182.999 184 201.449C184 221.302 196.967 240.037 216.82 240C224.903 239.985 232.936 238.674 238.885 234.788C242.26 232.584 244.076 229.933 245.703 227.559C248.094 224.069 250.076 221.176 256 221.176C261.924 221.176 263.906 224.069 266.297 227.559C267.924 229.933 269.74 232.584 273.115 234.788C279.064 238.674 287.097 239.985 295.18 240C315.033 240.037 328 221.302 328 201.449C328 182.999 316.704 166.503 298.512 163.428C287.224 161.52 272.921 160 256 160C239.079 160 224.776 161.52 213.488 163.428ZM217.949 178.875C208.121 180.507 201.333 189.176 201.333 199.138C201.333 209.042 208.043 217.851 217.902 218.786C225.953 219.551 234.993 219.382 240.208 215.962C241.969 214.808 243.672 213.132 245.399 211.434C248.668 208.22 252.02 204.923 256 204.923C259.98 204.923 263.332 208.22 266.601 211.434C268.328 213.132 270.031 214.808 271.792 215.962C277.007 219.382 286.047 219.551 294.098 218.786C303.957 217.851 310.667 209.042 310.667 199.138C310.667 189.176 303.879 180.507 294.051 178.875C283.825 177.177 270.024 175.462 256 175.462C241.976 175.462 228.175 177.177 217.949 178.875Z" fill="#121212"/><path d="M201.333 199.138C201.333 189.176 208.121 180.507 217.949 178.875C228.176 177.177 241.976 175.462 256 175.462C270.024 175.462 283.825 177.177 294.051 178.875C303.879 180.507 310.667 189.176 310.667 199.138V199.138C310.667 209.042 303.957 217.851 294.098 218.786C286.047 219.551 277.007 219.382 271.793 215.962C266.698 212.622 262.083 204.923 256 204.923C249.918 204.923 245.302 212.622 240.208 215.962C234.993 219.382 225.953 219.551 217.902 218.786C208.043 217.851 201.333 209.042 201.333 199.138V199.138Z" fill="#0047FF"><animate attributeName="fill" dur="4s" repeatCount="indefinite" keyTimes="0;0.25;0.5;0.75;1" values="#0732A0;#9129E3;#4378FF;#0732A0;#0732A0" /></path><path d="M230.711 340H280" stroke="#121212" stroke-width="6"/><g><animateTransform attributeName="transform" type="translate" dur="4s" repeatCount="indefinite" keyTimes="0;0.5;1" values="0 0;-124 -170;0 0" /><path d="M376 340C376 369 352 393 323 393C293 393 271.5 347 256 340C272 333 293 287 323 287C352 287 376 310 376 340Z" fill="#FF008A" fill-opacity="0.8" stroke="#121212" stroke-width="6"><animateTransform attributeName="transform" type="scale" dur="4s" repeatCount="indefinite" keyTimes="0;0.5;1" values="1;1.5;1" /></path></g></g></svg>