<svg xmlns="http://www.w3.org/2000/svg" width="512" height="512" fill="none"><rect width="512" height="512" fill="#FF9900"/><rect x="84" y="340" width="344" height="160" fill="#B7009A"/><g id="ling"><animateTransform attributeName="transform" type="translate" dur="0.4s" repeatCount="indefinite" keyTimes="0;0.5;1" values="0 0;0 28;0 0" /><rect x="196" y="176" width="120" height="296" fill="#D800B5"/><rect width="120" height="80" transform="matrix(1 0 0 -1 196 176)" fill="#B7009A"/><rect x="250" y="96" width="12" height="36" fill="#D800B5"><animate attributeName="fill" values="#D800B5; #D800B5; #fff; #D800B5;#fff; #D800B5;#fff; #D800B5;#fff; #D800B5;#fff; #D800B5;#fff; #D800B5;#D800B5" keyTimes="0; 0.74; 0.76; 0.78;0.8;0.82;0.84;0.86;0.88;0.9;0.92;0.94;0.96;0.98;1" dur="5s" repeatCount="indefinite" /></rect><path d="M256 272L243.839 244L256 216L268.161 244L256 272Z" fill="white"/><circle cx="256" cy="244" r="8" transform="rotate(-90 256 244)" fill="#007089"><animate attributeName="cx" values="250;264;264;250;250" keyTimes="0;0.1;0.7;0.8;1" dur="2s" repeatCount="indefinite"/></circle><path d="M228 444L256 431.839L284 444L256 456.161L228 444Z" fill="white"/><circle cx="256" cy="444" r="8" fill="#007089"><animate attributeName="cx" values="264;250;250;264;264" keyTimes="0;0.05;0.65;0.75;1" dur="3s" repeatCount="indefinite"/></circle><path d="M228 388L256 375.839L284 388L256 400.161L228 388Z" fill="white"/><circle cx="256" cy="388" r="8" fill="#007089"><animate attributeName="cx" values="264;250;250;264;264" keyTimes="0;0.15;0.75;0.85;1" dur="3s" repeatCount="indefinite"/></circle><path d="M234 130.25L196 119V96L316 96V132L277 110.5V130.25L234 110.5V130.25Z" fill="#121212"/><rect x="145" y="145" width="51" height="95" fill="white"/><rect x="316" y="145" width="51" height="95" fill="white"/><path d="M196 96V145H168V67H344V145H316V96H196Z" fill="white"/><path fill-rule="evenodd" clip-rule="evenodd" d="M196 176H316V213.333L270 221.333L256 210.667L242 221.333L196 213.333V176ZM247.333 198.667C247.333 206.399 241.065 212.667 233.333 212.667C225.601 212.667 219.333 206.399 219.333 198.667C219.333 190.935 225.601 184.667 233.333 184.667C241.065 184.667 247.333 190.935 247.333 198.667ZM278.667 212.667C286.399 212.667 292.667 206.399 292.667 198.667C292.667 190.935 286.399 184.667 278.667 184.667C270.935 184.667 264.667 190.935 264.667 198.667C264.667 206.399 270.935 212.667 278.667 212.667Z" fill="#121212"/><path d="M230.711 341H280" stroke="#121212" stroke-width="6"/><path d="M360.711 387.964L346.268 407.131L284.113 360.294L258.419 340.978L298.556 341.127L360.711 387.964Z" fill="#77492D"/><path d="M360.711 387.964L363.107 389.77L364.913 387.374L362.517 385.568L360.711 387.964ZM346.268 407.131L344.462 409.527L346.858 411.333L348.664 408.937L346.268 407.131ZM284.113 360.294L285.918 357.898L285.916 357.896L284.113 360.294ZM298.556 341.127L300.362 338.731L299.565 338.131L298.568 338.127L298.556 341.127ZM258.419 340.978L258.43 337.978C257.138 337.973 255.987 338.797 255.576 340.023C255.164 341.248 255.583 342.599 256.617 343.376L258.419 340.978ZM358.316 386.159L343.872 405.326L348.664 408.937L363.107 389.77L358.316 386.159ZM348.073 404.735L285.918 357.898L282.307 362.69L344.462 409.527L348.073 404.735ZM296.751 343.523L358.906 390.36L362.517 385.568L300.362 338.731L296.751 343.523ZM285.916 357.896L260.222 338.58L256.617 343.376L282.31 362.692L285.916 357.896ZM258.408 343.978L298.545 344.127L298.568 338.127L258.43 337.978L258.408 343.978Z" fill="#121212"/><rect x="361.184" y="388.32" width="24" height="12.1288" transform="rotate(127 361.184 388.32)" fill="#D22D27" stroke="#121212" stroke-width="6"><animate attributeName="fill" dur="4s" repeatCount="indefinite" keyTimes="0;0.8;1" values="#2d2d2d;red;#2d2d2d" /></rect><rect x="328.896" y="363.989" width="24" height="24.2576" transform="rotate(127 328.896 363.989)" fill="#FF9900" stroke="#121212" stroke-width="6" /><path d="M375 405C403.5 412 434 400.5 441 358.5C448 316.5 385 286 416 240" stroke="white" stroke-width="6"><animate attributeName="stroke" dur="4s" repeatCount="indefinite" keyTimes="0;0.8;1" values="white;transparent;white" /></path></g></svg>