<svg xmlns="http://www.w3.org/2000/svg" width="512" height="512" fill="none"><rect width="512" height="512" fill="#FF9900"/><rect x="84" y="340" width="344" height="160" fill="#B7009A"/><g id="ling"><animateTransform attributeName="transform" type="translate" dur="0.4s" repeatCount="indefinite" keyTimes="0;0.5;1" values="0 0;0 28;0 0" /><rect x="196" y="176" width="120" height="296" fill="#D800B5"/><rect width="120" height="80" transform="matrix(1 0 0 -1 196 176)" fill="#B7009A"/><rect x="250" y="96" width="12" height="36" fill="#D800B5"><animate attributeName="fill" values="#D800B5; #D800B5; #fff; #D800B5;#fff; #D800B5;#fff; #D800B5;#fff; #D800B5;#fff; #D800B5;#fff; #D800B5;#D800B5" keyTimes="0; 0.74; 0.76; 0.78;0.8;0.82;0.84;0.86;0.88;0.9;0.92;0.94;0.96;0.98;1" dur="5s" repeatCount="indefinite" /></rect><path d="M256 272L243.839 244L256 216L268.161 244L256 272Z" fill="white"/><circle cx="256" cy="244" r="8" transform="rotate(-90 256 244)" fill="#007089"><animate attributeName="cx" values="250;264;264;250;250" keyTimes="0;0.1;0.7;0.8;1" dur="2s" repeatCount="indefinite"/></circle><path d="M228 444L256 431.839L284 444L256 456.161L228 444Z" fill="white"/><circle cx="256" cy="444" r="8" fill="#007089"><animate attributeName="cx" values="264;250;250;264;264" keyTimes="0;0.05;0.65;0.75;1" dur="3s" repeatCount="indefinite"/></circle><path d="M228 388L256 375.839L284 388L256 400.161L228 388Z" fill="white"/><circle cx="256" cy="388" r="8" fill="#007089"><animate attributeName="cx" values="264;250;250;264;264" keyTimes="0;0.15;0.75;0.85;1" dur="3s" repeatCount="indefinite"/></circle><path d="M226 80L198 108H254L226 80Z" fill="#C9BBC3"/><path d="M286 80L258 108H314L286 80Z" fill="#C9BBC3"/><rect width="120" height="24" transform="matrix(1 0 0 -1 196 162)" fill="#C9BBC3"/><path d="M196 138H316V102V72.5L286 102L255.333 72.5L226 102L196 72.5V102V138Z" fill="#D8D8D8"/><path d="M238 112.439L256.486 94L274 112.439L256.486 130L238 112.439Z" fill="#00A8FF"/><path d="M305 112.268L316 101V123L305 112.268Z" fill="#D22D27"/><path d="M207 112.268L196 101V123L207 112.268Z" fill="#D22D27"/><circle cx="196" cy="70" r="8" fill="#C9BBC3"/><circle cx="256" cy="70" r="8" fill="#C9BBC3"/><circle cx="314" cy="70" r="8" fill="#C9BBC3"/><path d="M204 179H251V227H204V179Z" fill="#FF0000"/><path d="M204 179H251V227H204V179ZM204 179H196" stroke="#121212" stroke-width="6"/><path d="M251 188H261" stroke="#121212" stroke-width="6"/><path d="M308 179H261V227H308V179Z" fill="#0075FF"/><path d="M308 179H261V227H308V179ZM308 179H316" stroke="#121212" stroke-width="6"/><mask id="mask0_180_133" style="mask-type:alpha" maskUnits="userSpaceOnUse" x="207" y="182" width="41" height="42"><path d="M207 182H248V197V224H240.312H207V182Z" fill="#121212"/></mask><g mask="url(#mask0_180_133)"><path d="M215.112 182H223.882L213.358 225.235H204.588L215.112 182Z" fill="#FFF"><animateTransform attributeName="transform" type="translate" dur="4s" repeatCount="indefinite" keyTimes="0;0.1;0.3;1" values="-32 0;-32 0;48 0;48 0" /></path></g><mask id="mask1_180_133" style="mask-type:alpha" maskUnits="userSpaceOnUse" x="264" y="182" width="41" height="42"><path d="M264 182H305V197V224H297.312H264V182Z" fill="#121212"/></mask><g mask="url(#mask1_180_133)"><path d="M271.112 182H279.882L269.358 225.235H260.588L271.112 182Z" fill="#FFF"><animateTransform attributeName="transform" type="translate" dur="4s" repeatCount="indefinite" keyTimes="0;0.1;0.3;1" values="-32 0;-32 0;48 0;48 0" /></path></g><path d="M216 324H296L292 341L288 357H224L220 341L216 324Z" fill="white"/><path d="M220 341L224 357H288L292 341M220 341L216 324H296L292 341M220 341H292" stroke="#121212" stroke-width="6"/><path d="M256.25 441.5C219 441.5 199 417.5 199 417.5L245.841 341H266.659L313.5 417.5C313.5 417.5 293.5 441.5 256.25 441.5Z" fill="#FFB74A" stroke="#121212" stroke-width="6"/><path d="M256.25 441.5C219 441.5 199 417.5 199 417.5L206.654 405C206.654 405 224.5 424 256.25 424C285 424 305.846 405 305.846 405L313.5 417.5C313.5 417.5 293.5 441.5 256.25 441.5Z" fill="#FF9900" stroke="#121212" stroke-width="6"/><circle cx="241" cy="399" r="12" fill="#D22D27"/><circle cx="257" cy="361" r="10" fill="#D22D27"/><circle cx="273" cy="391" r="10" fill="#D22D27"/></g></svg>