<svg xmlns="http://www.w3.org/2000/svg" width="512" height="512" fill="none"><rect width="512" height="512" fill="#FF9900"/><rect x="84" y="340" width="344" height="160" fill="#B7009A"/><g id="ling"><animateTransform attributeName="transform" type="translate" dur="0.4s" repeatCount="indefinite" keyTimes="0;0.5;1" values="0 0;0 28;0 0" /><rect x="196" y="176" width="120" height="296" fill="#D800B5"/><rect width="120" height="80" transform="matrix(1 0 0 -1 196 176)" fill="#B7009A"/><rect x="250" y="96" width="12" height="36" fill="#D800B5"><animate attributeName="fill" values="#D800B5; #D800B5; #fff; #D800B5;#fff; #D800B5;#fff; #D800B5;#fff; #D800B5;#fff; #D800B5;#fff; #D800B5;#D800B5" keyTimes="0; 0.74; 0.76; 0.78;0.8;0.82;0.84;0.86;0.88;0.9;0.92;0.94;0.96;0.98;1" dur="5s" repeatCount="indefinite" /></rect><path d="M256 272L243.839 244L256 216L268.161 244L256 272Z" fill="white"/><circle cx="256" cy="244" r="8" transform="rotate(-90 256 244)" fill="#007089"><animate attributeName="cx" values="250;264;264;250;250" keyTimes="0;0.1;0.7;0.8;1" dur="2s" repeatCount="indefinite"/></circle><path d="M228 444L256 431.839L284 444L256 456.161L228 444Z" fill="white"/><circle cx="256" cy="444" r="8" fill="#007089"><animate attributeName="cx" values="264;250;250;264;264" keyTimes="0;0.05;0.65;0.75;1" dur="3s" repeatCount="indefinite"/></circle><path d="M228 388L256 375.839L284 388L256 400.161L228 388Z" fill="white"/><circle cx="256" cy="388" r="8" fill="#007089"><animate attributeName="cx" values="264;250;250;264;264" keyTimes="0;0.15;0.75;0.85;1" dur="3s" repeatCount="indefinite"/></circle><path d="M316 151V95L170 52L196 95V151H316Z" fill="#00B2FE"/><path d="M202 179H250V199L238 227H202V179Z" fill="#121212"/><path d="M202 179H250V199L238 227H202V179ZM202 179H196" stroke="#FFB74A" stroke-width="6"/><path d="M247 179H266" stroke="#FFB74A" stroke-width="6"/><path d="M247 197H266" stroke="#FFB74A" stroke-width="6"/><path d="M310 179H262V199L274 227H310V179Z" fill="#121212"/><path d="M310 179H262V199L274 227H310V179ZM310 179H316" stroke="#FFB74A" stroke-width="6"/><mask id="mask0_180_157" style="mask-type:alpha" maskUnits="userSpaceOnUse" x="205" y="182" width="42" height="42"><path d="M205 182H247V198.336L242 210L236 224H205V182Z" fill="#121212"/></mask><g mask="url(#mask0_180_157)"><path d="M213.112 182H221.882L211.358 225.235H202.588L213.112 182Z" fill="#FFF"><animateTransform attributeName="transform" type="translate" dur="4s" repeatCount="indefinite" keyTimes="0;0.1;0.3;1" values="-32 0;-32 0;48 0;48 0" /></path></g><mask id="mask1_180_157" style="mask-type:alpha" maskUnits="userSpaceOnUse" x="265" y="182" width="42" height="42"><path d="M265 182H307V197V224H299.125H276L265 198.5V182Z" fill="#121212"/></mask><g mask="url(#mask1_180_157)"><path d="M271.112 182H279.882L269.358 225.235H260.588L271.112 182Z" fill="#FFF"><animateTransform attributeName="transform" type="translate" dur="4s" repeatCount="indefinite" keyTimes="0;0.1;0.3;1" values="-32 0;-32 0;48 0;48 0" /></path></g><path d="M298.785 326.892L220 313C220 313 213.054 352.392 252.474 359.343C291.895 366.294 298.785 326.892 298.785 326.892Z" fill="white"/></g></svg>