<svg xmlns="http://www.w3.org/2000/svg" width="512" height="512" fill="none"><rect width="512" height="512" fill="#FF9900"/><rect x="84" y="340" width="344" height="160" fill="#2D2D2D"/><g id="ling"><animateTransform attributeName="transform" type="translate" dur="0.4s" repeatCount="indefinite" keyTimes="0;0.5;1" values="0 0;0 28;0 0" /><rect x="196" y="176" width="120" height="296" fill="#E3E3E3"/><rect width="120" height="80" x="196" y="96" fill="#2D2D2D"/><rect x="250" y="96" width="12" height="36" fill="#E3E3E3"><animate attributeName="fill" values="#E3E3E3; #E3E3E3; #fff; #E3E3E3;#fff; #E3E3E3;#fff; #E3E3E3;#fff; #E3E3E3;#fff; #E3E3E3;#fff; #E3E3E3;#E3E3E3" keyTimes="0; 0.74; 0.76; 0.78;0.8;0.82;0.84;0.86;0.88;0.9;0.92;0.94;0.96;0.98;1" dur="5s" repeatCount="indefinite" /></rect><path d="M196 96C196 78.3269 210.327 64 228 64H284C301.673 64 316 78.3269 316 96V96H196V96Z" fill="#96469A"/><rect width="120" height="24" transform="matrix(1 0 0 -1 196 120)" fill="#96469A"/><rect width="120" height="24" transform="matrix(1 0 0 -1 196 144)" fill="#704B9F"/><path d="M246 327.391C246 327.391 258.823 322.011 262 327.391C265.153 332.732 254.5 341.391 254.5 341.391C254.5 341.391 267.632 337.309 270.5 342.891C273.719 349.156 258 355.891 258 355.891" stroke="#121212" stroke-width="6"/></g></svg>