<svg xmlns="http://www.w3.org/2000/svg" width="512" height="512" fill="none"><rect width="512" height="512" fill="#FF9900"/><rect x="84" y="340" width="344" height="160" fill="#2D2D2D"/><g id="ling"><animateTransform attributeName="transform" type="translate" dur="0.4s" repeatCount="indefinite" keyTimes="0;0.5;1" values="0 0;0 28;0 0" /><rect x="196" y="176" width="120" height="296" fill="#E3E3E3"/><rect width="120" height="80" x="196" y="96" fill="#2D2D2D"/><rect x="250" y="96" width="12" height="36" fill="#E3E3E3"><animate attributeName="fill" values="#E3E3E3; #E3E3E3; #fff; #E3E3E3;#fff; #E3E3E3;#fff; #E3E3E3;#fff; #E3E3E3;#fff; #E3E3E3;#fff; #E3E3E3;#E3E3E3" keyTimes="0; 0.74; 0.76; 0.78;0.8;0.82;0.84;0.86;0.88;0.9;0.92;0.94;0.96;0.98;1" dur="5s" repeatCount="indefinite" /></rect><path d="M208.24 129.465L230.931 102.363L171.114 53.4545L120 104.569L158.024 142.592L179.841 120.775L162.075 122.334L145.245 105.504L168.309 82.4399L208.24 129.465Z" fill="#121212"/><path d="M301.896 129.465L279.206 102.363L339.023 53.4545L390.137 104.569L352.113 142.592L330.296 120.775L348.061 122.334L364.892 105.504L341.828 82.4399L301.896 129.465Z" fill="#121212"/><path d="M204 179H251V227H204V179Z" fill="#121212"/><path d="M204 179H251V227H204V179ZM204 179H196" stroke="#121212" stroke-width="6"/><path d="M251 188H261" stroke="#121212" stroke-width="6"/><path d="M308 179H261V227H308V179Z" fill="#121212"/><path d="M308 179H261V227H308V179ZM308 179H316" stroke="#121212" stroke-width="6"/><mask id="mask0_180_128" style="mask-type:alpha" maskUnits="userSpaceOnUse" x="207" y="182" width="41" height="42"><path d="M207 182H248V197V224H240.312H207V182Z" fill="#121212"/></mask><g mask="url(#mask0_180_128)"><path d="M215.112 182H223.882L213.358 225.235H204.588L215.112 182Z" fill="#FFF"><animateTransform attributeName="transform" type="translate" dur="4s" repeatCount="indefinite" keyTimes="0;0.1;0.3;1" values="-32 0;-32 0;48 0;48 0" /></path></g><mask id="mask1_180_128" style="mask-type:alpha" maskUnits="userSpaceOnUse" x="264" y="182" width="41" height="42"><path d="M264 182H305V197V224H297.312H264V182Z" fill="#121212"/></mask><g mask="url(#mask1_180_128)"><path d="M271.112 182H279.882L269.358 225.235H260.588L271.112 182Z" fill="#FFF"><animateTransform attributeName="transform" type="translate" dur="4s" repeatCount="indefinite" keyTimes="0;0.1;0.3;1" values="-32 0;-32 0;48 0;48 0" /></path></g><path d="M298.785 326.892L220 313C220 313 213.054 352.392 252.474 359.343C291.895 366.294 298.785 326.892 298.785 326.892Z" fill="white"/></g></svg>