<svg xmlns="http://www.w3.org/2000/svg" width="512" height="512" fill="none"><rect width="512" height="512" fill="#FF9900"/><rect x="84" y="340" width="344" height="160" fill="#2D2D2D"/><g id="ling"><animateTransform attributeName="transform" type="translate" dur="0.4s" repeatCount="indefinite" keyTimes="0;0.5;1" values="0 0;0 28;0 0" /><rect x="196" y="176" width="120" height="296" fill="#E3E3E3"/><rect width="120" height="80" x="196" y="96" fill="#2D2D2D"/><rect x="250" y="96" width="12" height="36" fill="#E3E3E3"><animate attributeName="fill" values="#E3E3E3; #E3E3E3; #fff; #E3E3E3;#fff; #E3E3E3;#fff; #E3E3E3;#fff; #E3E3E3;#fff; #E3E3E3;#fff; #E3E3E3;#E3E3E3" keyTimes="0; 0.74; 0.76; 0.78;0.8;0.82;0.84;0.86;0.88;0.9;0.92;0.94;0.96;0.98;1" dur="5s" repeatCount="indefinite" /></rect><path d="M184 95L226.8 74V95L282 74V95L328 74V95V143L184 143V95Z" fill="#121212"/><rect x="184" y="143" width="12" height="40" fill="#121212"/><rect x="316" y="143" width="12" height="40" fill="#121212"/><path d="M250 202L262 202" stroke="#121212" stroke-width="6"/><line x1="178.027" y1="179.789" x2="202.027" y2="201.789" stroke="#121212" stroke-width="6"/><circle cx="226" cy="203" r="24" stroke="#121212" stroke-width="6"/><line y1="-3" x2="32.5576" y2="-3" transform="matrix(-0.737154 0.675725 0.675725 0.737154 336 182)" stroke="#121212" stroke-width="6"/><circle cx="27" cy="27" r="24" transform="matrix(-1 0 0 1 313 176)" stroke="#121212" stroke-width="6"/><mask id="mask0_180_141" style="mask-type:alpha" maskUnits="userSpaceOnUse" x="265" y="182" width="42" height="42"><circle cx="286" cy="203" r="21" fill="#D9D9D9"/></mask><g mask="url(#mask0_180_141)"><path d="M272.179 182H280.961L270.422 224H261.641L272.179 182Z" fill="#D9D9D9"><animateTransform attributeName="transform" type="translate" dur="4s" repeatCount="indefinite" keyTimes="0;0.1;0.3;1" values="-32 0;-32 0;48 0;48 0" /></path></g><mask id="mask1_180_141" style="mask-type:alpha" maskUnits="userSpaceOnUse" x="205" y="182" width="42" height="42"><circle cx="226" cy="203" r="21" fill="#D9D9D9"/></mask><g mask="url(#mask1_180_141)"><path d="M212.179 182H220.961L210.422 224H201.641L212.179 182Z" fill="#D9D9D9"><animateTransform attributeName="transform" type="translate" dur="4s" repeatCount="indefinite" keyTimes="0;0.1;0.3;1" values="-32 0;-32 0;48 0;48 0" /></path></g><path d="M230.711 343H280" stroke="#121212" stroke-width="6"/><path d="M279.001 343.001C279.001 343.001 367.883 408.501 373.191 411.501L385.191 391L279.001 343.001Z" fill="#D22D27" stroke="#121212" stroke-width="6"/><path d="M276.75 342.826L342.223 389.641L360.478 380.022L276.75 342.826Z" fill="#00FF94" stroke="#121212" stroke-width="6"/><path d="M279.5 343.001L324.971 377.305L339.801 370.836L279.5 343.001Z" fill="#00A8FF"/><path d="M324.971 377.305L323.164 379.7L324.564 380.756L326.171 380.055L324.971 377.305ZM279.5 343.001L280.757 340.277C279.366 339.635 277.713 340.145 276.926 341.46C276.139 342.775 276.47 344.473 277.693 345.396L279.5 343.001ZM339.801 370.836L341.001 373.585L347.127 370.913L341.059 368.112L339.801 370.836ZM326.778 374.91L281.307 340.606L277.693 345.396L323.164 379.7L326.778 374.91ZM278.243 345.725L338.544 373.559L341.059 368.112L280.757 340.277L278.243 345.725ZM326.171 380.055L341.001 373.585L338.602 368.086L323.772 374.555L326.171 380.055Z" fill="#121212"/><rect x="391.396" y="376" width="21" height="37.7025" rx="10.5" transform="rotate(42.3433 391.396 376)" fill="#FFB74A" stroke="#121212" stroke-width="6"/><path d="M390 404.001C390 407.702 387.989 410.934 385 412.663C383.529 413.514 381.821 414.001 380 414.001C374.477 414.001 370 409.524 370 404.001C370 398.478 374.477 394.001 380 394.001C385.523 394.001 390 398.478 390 404.001Z" fill="#FFB74A" stroke="#121212" stroke-width="6"/></g></svg>