<svg xmlns="http://www.w3.org/2000/svg" width="512" height="512" fill="none"><rect width="512" height="512" fill="#FF9900"/><rect x="84" y="340" width="344" height="160" fill="#36CF00"/><g id="ling"><animateTransform attributeName="transform" type="translate" dur="0.4s" repeatCount="indefinite" keyTimes="0;0.5;1" values="0 0;0 28;0 0" /><rect x="196" y="176" width="120" height="296" fill="#3BE200"/><rect width="120" height="80" x="196" y="96" fill="#36CF00"/><rect x="250" y="96" width="12" height="36" fill="#3BE200"><animate attributeName="fill" values="#3BE200; #3BE200; #fff; #3BE200;#fff; #3BE200;#fff; #3BE200;#fff; #3BE200;#fff; #3BE200;#fff; #3BE200;#3BE200" keyTimes="0; 0.74; 0.76; 0.78;0.8;0.82;0.84;0.86;0.88;0.9;0.92;0.94;0.96;0.98;1" dur="5s" repeatCount="indefinite" /></rect><rect width="120" height="48" transform="matrix(1 0 0 -1 196 144)" fill="#D22D27"/><rect x="286.7" y="104" width="4.26666" height="31.9999" fill="#FF9490"/><rect x="290.966" y="117.867" width="11.7333" height="4.26666" fill="#FF9490"/><rect x="283.5" y="127.467" width="19.2" height="4.26666" fill="#FF9490"/><rect x="283.5" y="108.267" width="19.2" height="4.26666" fill="#FF9490"/><rect x="302.7" y="112.533" width="4.26666" height="5.33332" fill="#FF9490"/><rect x="293.306" y="104" width="4.26666" height="4.26666" fill="#FF9490"/><rect x="293.366" y="131.733" width="4.26666" height="4.26666" fill="#FF9490"/><rect x="302.7" y="122.133" width="4.26666" height="5.33332" fill="#FF9490"/><rect width="120" height="12" transform="matrix(1 0 0 -1 196 156)" fill="#FF9490"/><path d="M152 149.5L182.271 96H284L196.165 177L152 149.5Z" fill="#D22D27"/><path d="M204 179H251V227H204V179Z" fill="#121212"/><path d="M204 179H251V227H204V179ZM204 179H196" stroke="#121212" stroke-width="6"/><path d="M251 188H261" stroke="#121212" stroke-width="6"/><path d="M308 179H261V227H308V179Z" fill="#121212"/><path d="M308 179H261V227H308V179ZM308 179H316" stroke="#121212" stroke-width="6"/><mask id="mask0_180_128" style="mask-type:alpha" maskUnits="userSpaceOnUse" x="207" y="182" width="41" height="42"><path d="M207 182H248V197V224H240.312H207V182Z" fill="#121212"/></mask><g mask="url(#mask0_180_128)"><path d="M215.112 182H223.882L213.358 225.235H204.588L215.112 182Z" fill="#FFF"><animateTransform attributeName="transform" type="translate" dur="4s" repeatCount="indefinite" keyTimes="0;0.1;0.3;1" values="-32 0;-32 0;48 0;48 0" /></path></g><mask id="mask1_180_128" style="mask-type:alpha" maskUnits="userSpaceOnUse" x="264" y="182" width="41" height="42"><path d="M264 182H305V197V224H297.312H264V182Z" fill="#121212"/></mask><g mask="url(#mask1_180_128)"><path d="M271.112 182H279.882L269.358 225.235H260.588L271.112 182Z" fill="#FFF"><animateTransform attributeName="transform" type="translate" dur="4s" repeatCount="indefinite" keyTimes="0;0.1;0.3;1" values="-32 0;-32 0;48 0;48 0" /></path></g><path d="M216 323.5H296L292 340.5L288 356.5H224L220 340.5L216 323.5Z" fill="white"/><path d="M220 340.5L224 356.5H288L292 340.5M220 340.5L216 323.5H296L292 340.5M220 340.5H292" stroke="#121212" stroke-width="6"/><g><animateTransform attributeName="transform" type="translate" dur="4s" repeatCount="indefinite" keyTimes="0;0.25;0.5;0.75;1" values="-8 0;10 0;10 0;-8 0;-8 0" /><path d="M311 340.5L311 315M311 340.5L311 364.5M311 340.5H192.5M180 340.5H192.5M192.5 340.5L201 324.5M192.5 340.5L201 355.5" stroke="#42B16C" stroke-width="6"/><rect x="362" y="320.5" width="40" height="48" transform="rotate(90 362 320.5)" fill="#D22D27"/><path d="M362 348.5V360.5H314V332.5L362 348.5Z" fill="#7B0000"/></g></g></svg>