<svg xmlns="http://www.w3.org/2000/svg" width="512" height="512" fill="none"><rect width="512" height="512" fill="#FF9900"/><rect x="84" y="340" width="344" height="160" fill="#DA420F"/><g id="ling"><animateTransform attributeName="transform" type="translate" dur="0.4s" repeatCount="indefinite" keyTimes="0;0.5;1" values="0 0;0 28;0 0" /><rect x="196" y="176" width="120" height="296" fill="#F15824"/><rect width="120" height="80" x="196" y="96" fill="#DA420F"/><rect x="250" y="96" width="12" height="36" fill="#F15824"><animate attributeName="fill" values="#F15824; #F15824; #fff; #F15824;#fff; #F15824;#fff; #F15824;#fff; #F15824;#fff; #F15824;#fff; #F15824;#F15824" keyTimes="0; 0.74; 0.76; 0.78;0.8;0.82;0.84;0.86;0.88;0.9;0.92;0.94;0.96;0.98;1" dur="5s" repeatCount="indefinite" /></rect><path d="M196.059 120H315.941L323 104L315.941 72L256 48L196.059 72L189 104L196.059 120Z" fill="#121212"/><rect width="120" height="12" transform="matrix(1 0 0 -1 196 132)" fill="#525252"/><path d="M216 156H336.001L316.001 132H196L216 156Z" fill="#121212"/><ellipse cx="256" cy="68" rx="12" ry="6" fill="#525252"/><path d="M204 179H251V227H204V179Z" fill="#FF00B1"/><path d="M204 179H251V227H204V179ZM204 179H196" stroke="#121212" stroke-width="6"/><path d="M251 188H261" stroke="#121212" stroke-width="6"/><path d="M308 179H261V227H308V179Z" fill="#FF00B1"/><path d="M308 179H261V227H308V179ZM308 179H316" stroke="#121212" stroke-width="6"/><mask id="mask0_180_118" style="mask-type:alpha" maskUnits="userSpaceOnUse" x="207" y="182" width="41" height="42"><path d="M207 182H248V197V224H240.312H207V182Z" fill="#121212"/></mask><g mask="url(#mask0_180_118)"><path d="M215.112 182H223.882L213.358 225.235H204.588L215.112 182Z" fill="#FFF"><animateTransform attributeName="transform" type="translate" dur="4s" repeatCount="indefinite" keyTimes="0;0.1;0.3;1" values="-32 0;-32 0;48 0;48 0" /></path></g><mask id="mask1_180_118" style="mask-type:alpha" maskUnits="userSpaceOnUse" x="264" y="182" width="41" height="42"><path d="M264 182H305V197V224H297.312H264V182Z" fill="#121212"/></mask><g mask="url(#mask1_180_118)"><path d="M271.112 182H279.882L269.358 225.235H260.588L271.112 182Z" fill="#FFF"><animateTransform attributeName="transform" type="translate" dur="4s" repeatCount="indefinite" keyTimes="0;0.1;0.3;1" values="-32 0;-32 0;48 0;48 0" /></path></g><path d="M216 324H296L292 341L288 357H224L220 341L216 324Z" fill="white"/><path d="M220 341L224 357H288L292 341M220 341L216 324H296L292 341M220 341H292" stroke="#121212" stroke-width="6"/><path d="M256.25 441.5C219 441.5 199 417.5 199 417.5L245.841 341H266.659L313.5 417.5C313.5 417.5 293.5 441.5 256.25 441.5Z" fill="#FFB74A" stroke="#121212" stroke-width="6"/><path d="M256.25 441.5C219 441.5 199 417.5 199 417.5L206.654 405C206.654 405 224.5 424 256.25 424C285 424 305.846 405 305.846 405L313.5 417.5C313.5 417.5 293.5 441.5 256.25 441.5Z" fill="#FF9900" stroke="#121212" stroke-width="6"/><circle cx="241" cy="399" r="12" fill="#D22D27"/><circle cx="257" cy="361" r="10" fill="#D22D27"/><circle cx="273" cy="391" r="10" fill="#D22D27"/></g></svg>