<svg xmlns="http://www.w3.org/2000/svg" width="512" height="512" fill="none"><rect width="512" height="512" fill="#FF9900"/><rect x="84" y="340" width="344" height="160" fill="#DA420F"/><path d="M108 400L84 392V408L108 400Z" fill="#1D1D1D"/><path d="M404 400L428 392V408L404 400Z" fill="#1D1D1D"/><path d="M116 432L84 424V440L116 432Z" fill="#1D1D1D"/><path d="M396 432L428 424V440L396 432Z" fill="#1D1D1D"/><path d="M132 464L84 456V472L132 464Z" fill="#1D1D1D"/><path d="M380 464L428 456V472L380 464Z" fill="#1D1D1D"/><path d="M125 340H109L117 364L125 340Z" fill="#1D1D1D"/><path d="M387 340H403L395 364L387 340Z" fill="#1D1D1D"/><path d="M342 340H358L350 372L342 340Z" fill="#1D1D1D"/><path d="M170 340H154L162 372L170 340Z" fill="#1D1D1D"/><g id="ling"><animateTransform attributeName="transform" type="translate" dur="0.4s" repeatCount="indefinite" keyTimes="0;0.5;1" values="0 0;0 28;0 0" /><rect x="196" y="176" width="120" height="296" fill="#F15824"/><path d="M292 276L316 268V284L292 276Z" fill="#1D1D1D"/><path d="M292 244L316 236V252L292 244Z" fill="#1D1D1D"/><path d="M220 276L196 268V284L220 276Z" fill="#1D1D1D"/><path d="M228 308L196 300V316L228 308Z" fill="#1D1D1D"/><path d="M284 308L316 300V316L284 308Z" fill="#1D1D1D"/><path d="M220 244L196 236V252L220 244Z" fill="#1D1D1D"/><rect width="120" height="80" x="196" y="96" fill="#DA420F"/><rect x="250" y="96" width="12" height="36" fill="#F15824"><animate attributeName="fill" values="#F15824; #F15824; #fff; #F15824;#fff; #F15824;#fff; #F15824;#fff; #F15824;#fff; #F15824;#fff; #F15824;#F15824" keyTimes="0; 0.74; 0.76; 0.78;0.8;0.82;0.84;0.86;0.88;0.9;0.92;0.94;0.96;0.98;1" dur="5s" repeatCount="indefinite" /></rect><rect x="196" y="136" width="160" height="16" fill="#00892F"/><rect x="196" y="96" width="40" height="40" fill="#FEED59"/><rect x="236" y="96" width="40" height="40" fill="#D22D27"/><rect x="276" y="96" width="40" height="40" fill="#0032B4"/><rect x="210" y="72" width="92" height="12" fill="#D22D27"/><rect x="250" y="72" width="12" height="24" fill="#121212"/><rect x="260" y="184" width="56" height="8" fill="#121212"/><rect x="268" y="192" width="40" height="8" fill="#121212"/><rect x="276" y="200" width="24" height="8" fill="#121212"/><rect x="196" y="176" width="120" height="8" fill="#121212"/><rect x="204" y="192" width="40" height="8" fill="#121212"/><rect x="196" y="184" width="56" height="8" fill="#121212"/><rect x="212" y="200" width="24" height="8" fill="#121212"/><mask id="mask0_180_163" style="mask-type:alpha" maskUnits="userSpaceOnUse" x="196" y="184" width="56" height="24"><rect x="204" y="192" width="40" height="8" fill="#121212"/><rect x="196" y="184" width="56" height="8" fill="#121212"/><rect x="212" y="200" width="24" height="8" fill="#121212"/></mask><g mask="url(#mask0_180_163)"><g><animateTransform attributeName="transform" type="translate" dur="4s" repeatCount="indefinite" keyTimes="0;0.1;0.3;1" values="-32 0;-32 0;48 0;48 0" /><rect x="204" y="184" width="8" height="8" fill="white"/><rect x="212" y="192" width="8" height="8" fill="white"/><rect x="220" y="200" width="8" height="8" fill="white"/></g></g><mask id="mask1_180_163" style="mask-type:alpha" maskUnits="userSpaceOnUse" x="260" y="184" width="56" height="24"><rect x="268" y="192" width="40" height="8" fill="#121212"/><rect x="260" y="184" width="56" height="8" fill="#121212"/><rect x="276" y="200" width="24" height="8" fill="#121212"/></mask><g mask="url(#mask1_180_163)"><g><animateTransform attributeName="transform" type="translate" dur="4s" repeatCount="indefinite" keyTimes="0;0.1;0.3;1" values="-32 0;-32 0;48 0;48 0" /><rect x="268" y="184" width="8" height="8" fill="white"/><rect x="276" y="192" width="8" height="8" fill="white"/><rect x="284" y="200" width="8" height="8" fill="white"/></g></g><path d="M230.711 340H280" stroke="#121212" stroke-width="6"/></g></svg>