<svg xmlns="http://www.w3.org/2000/svg" width="512" height="512" fill="none"><rect width="512" height="512" fill="#FF9900"/><mask id="mask0_1502_110" style="mask-type:alpha" maskUnits="userSpaceOnUse" x="84" y="340" width="344" height="160"><rect x="84" y="340" width="344" height="160" fill="#DA420F"/></mask><g mask="url(#mask0_1502_110)"><g><animateTransform attributeName="transform" type="translate" values="0 0; 0 -90; 0 0" keyTimes="0;0.5;1" dur="10s" repeatCount="indefinite"/><circle cx="256" cy="336" r="327" fill="#C2FD52"/><circle cx="256" cy="336" r="287" fill="#FF00B1"/><circle cx="256" cy="336" r="253" fill="#AD00FF"/><circle cx="256" cy="336" r="213" fill="#00A8FF"/><circle cx="256" cy="336" r="180" fill="#C2FD52"/><circle cx="256" cy="336" r="148" fill="#D22D27"/><circle cx="256" cy="336" r="120" fill="#FFB74A"/><circle cx="256" cy="336" r="87" fill="#AD00FF"/><circle cx="256" cy="336" r="53" fill="#FF00B1"/><circle cx="256" cy="336" r="25" fill="#C2FD52"/></g></g><g id="ling"><animateTransform attributeName="transform" type="translate" dur="0.4s" repeatCount="indefinite" keyTimes="0;0.5;1" values="0 0;0 28;0 0" /><mask id="mask1_1502_110" style="mask-type:alpha" maskUnits="userSpaceOnUse" x="196" y="96" width="120" height="376"><rect x="196" y="96" width="120" height="376" fill="#F15824"/></mask><g mask="url(#mask1_1502_110)"><g><animateTransform attributeName="transform" type="translate" values="0 0; 0 100; 0 0" keyTimes="0;0.5;1" dur="10s" repeatCount="indefinite"/><circle cx="256" cy="269" r="335" fill="#C2FD52"/><circle cx="256" cy="269" r="294" fill="#FF00B1"/><circle cx="256" cy="269" r="259" fill="#AD00FF"/><circle cx="256" cy="269" r="218" fill="#00A8FF"/><circle cx="256" cy="269" r="185" fill="#C2FD52"/><circle cx="256" cy="269" r="152" fill="#D22D27"/><circle cx="256" cy="269" r="123" fill="#FFB74A"/><circle cx="256" cy="269" r="89" fill="#AD00FF"/><circle cx="256" cy="270" r="55" fill="#FF00B1"/></g></g><rect x="250" y="96" width="12" height="36" fill="#F15824"><animate attributeName="fill" values="#F15824; #F15824; #fff; #F15824;#fff; #F15824;#fff; #F15824;#fff; #F15824;#fff; #F15824;#fff; #F15824;#F15824" keyTimes="0; 0.74; 0.76; 0.78;0.8;0.82;0.84;0.86;0.88;0.9;0.92;0.94;0.96;0.98;1" dur="5s" repeatCount="indefinite" /></rect><path d="M184 96H328V144L184 144V96Z" fill="#121212"/><rect x="184" y="144" width="12" height="24" fill="#121212"/><rect x="316" y="144" width="12" height="24" fill="#121212"/><path d="M204 179H251V227H204V179Z" fill="#FF00B1"/><path d="M204 179H251V227H204V179ZM204 179H196" stroke="#121212" stroke-width="6"/><path d="M251 188H261" stroke="#121212" stroke-width="6"/><path d="M308 179H261V227H308V179Z" fill="#FF00B1"/><path d="M308 179H261V227H308V179ZM308 179H316" stroke="#121212" stroke-width="6"/><mask id="mask0_180_118" style="mask-type:alpha" maskUnits="userSpaceOnUse" x="207" y="182" width="41" height="42"><path d="M207 182H248V197V224H240.312H207V182Z" fill="#121212"/></mask><g mask="url(#mask0_180_118)"><path d="M215.112 182H223.882L213.358 225.235H204.588L215.112 182Z" fill="#FFF"><animateTransform attributeName="transform" type="translate" dur="4s" repeatCount="indefinite" keyTimes="0;0.1;0.3;1" values="-32 0;-32 0;48 0;48 0" /></path></g><mask id="mask1_180_118" style="mask-type:alpha" maskUnits="userSpaceOnUse" x="264" y="182" width="41" height="42"><path d="M264 182H305V197V224H297.312H264V182Z" fill="#121212"/></mask><g mask="url(#mask1_180_118)"><path d="M271.112 182H279.882L269.358 225.235H260.588L271.112 182Z" fill="#FFF"><animateTransform attributeName="transform" type="translate" dur="4s" repeatCount="indefinite" keyTimes="0;0.1;0.3;1" values="-32 0;-32 0;48 0;48 0" /></path></g><path d="M298.785 326.892L220 313C220 313 213.054 352.392 252.474 359.343C291.895 366.294 298.785 326.892 298.785 326.892Z" fill="white"/></g></svg>