<svg xmlns="http://www.w3.org/2000/svg" width="512" height="512" fill="none"><rect width="512" height="512" fill="#FF9900"/><mask id="mask0_1502_110" style="mask-type:alpha" maskUnits="userSpaceOnUse" x="84" y="340" width="344" height="160"><rect x="84" y="340" width="344" height="160" fill="#DA420F"/></mask><g mask="url(#mask0_1502_110)"><g><animateTransform attributeName="transform" type="translate" values="0 0; 0 -90; 0 0" keyTimes="0;0.5;1" dur="10s" repeatCount="indefinite"/><circle cx="256" cy="336" r="327" fill="#C2FD52"/><circle cx="256" cy="336" r="287" fill="#FF00B1"/><circle cx="256" cy="336" r="253" fill="#AD00FF"/><circle cx="256" cy="336" r="213" fill="#00A8FF"/><circle cx="256" cy="336" r="180" fill="#C2FD52"/><circle cx="256" cy="336" r="148" fill="#D22D27"/><circle cx="256" cy="336" r="120" fill="#FFB74A"/><circle cx="256" cy="336" r="87" fill="#AD00FF"/><circle cx="256" cy="336" r="53" fill="#FF00B1"/><circle cx="256" cy="336" r="25" fill="#C2FD52"/></g></g><g id="ling"><animateTransform attributeName="transform" type="translate" dur="0.4s" repeatCount="indefinite" keyTimes="0;0.5;1" values="0 0;0 28;0 0" /><mask id="mask1_1502_110" style="mask-type:alpha" maskUnits="userSpaceOnUse" x="196" y="96" width="120" height="376"><rect x="196" y="96" width="120" height="376" fill="#F15824"/></mask><g mask="url(#mask1_1502_110)"><g><animateTransform attributeName="transform" type="translate" values="0 0; 0 100; 0 0" keyTimes="0;0.5;1" dur="10s" repeatCount="indefinite"/><circle cx="256" cy="269" r="335" fill="#C2FD52"/><circle cx="256" cy="269" r="294" fill="#FF00B1"/><circle cx="256" cy="269" r="259" fill="#AD00FF"/><circle cx="256" cy="269" r="218" fill="#00A8FF"/><circle cx="256" cy="269" r="185" fill="#C2FD52"/><circle cx="256" cy="269" r="152" fill="#D22D27"/><circle cx="256" cy="269" r="123" fill="#FFB74A"/><circle cx="256" cy="269" r="89" fill="#AD00FF"/><circle cx="256" cy="270" r="55" fill="#FF00B1"/></g></g><rect x="250" y="96" width="12" height="36" fill="#F15824"><animate attributeName="fill" values="#F15824; #F15824; #fff; #F15824;#fff; #F15824;#fff; #F15824;#fff; #F15824;#fff; #F15824;#fff; #F15824;#F15824" keyTimes="0; 0.74; 0.76; 0.78;0.8;0.82;0.84;0.86;0.88;0.9;0.92;0.94;0.96;0.98;1" dur="5s" repeatCount="indefinite" /></rect><path d="M183 96H329V231.5L316 232V120L256 148L196 120V232H183V96Z" fill="#121212"/><path d="M236 28L276 44L268 108L244 108L236 28Z" fill="#121212"/><path d="M232 76H280" stroke="#121212" stroke-width="6"/><path d="M204 179H251V227H204V179Z" fill="#121212"/><path d="M204 179H251M204 179V227H251V179M204 179H196M251 179H316" stroke="#121212" stroke-width="6"/><path d="M228 340H261.5H284" stroke="#121212" stroke-width="6"/><path d="M268 359.25V340H245.5V359.25C245.5 365.463 250.537 370.5 256.75 370.5C262.963 370.5 268 365.463 268 359.25Z" fill="#D22D27" stroke="#121212" stroke-width="6"/></g></svg>