<svg xmlns="http://www.w3.org/2000/svg" width="512" height="512" fill="none"><rect width="512" height="512" fill="#FF9900"/><rect x="84" y="340" width="344" height="160" fill="#56C399"/><g id="ling"><animateTransform attributeName="transform" type="translate" dur="0.4s" repeatCount="indefinite" keyTimes="0;0.5;1" values="0 0;0 28;0 0" /><rect x="196" y="176" width="120" height="296" fill="#82DCB9"/><path d="M264 403L316 415V425L264 403Z" fill="#D22D27"/><rect x="283" y="401" width="4" height="16" transform="rotate(25 283 401)" fill="white"/><rect x="301" y="408" width="4" height="16" transform="rotate(15 301 408)" fill="white"/><path d="M196 300L316 284V288L196 304V300Z" fill="#56C399"/><rect x="212" y="292" width="4" height="16" transform="rotate(-5 212 292)" fill="white"/><rect x="240" y="288" width="4" height="16" transform="rotate(-5 240 288)" fill="white"/><rect x="268" y="284" width="4" height="16" transform="rotate(-5 268 284)" fill="white"/><rect x="296" y="280" width="4" height="16" transform="rotate(-5 296 280)" fill="white"/><rect width="120" height="80" x="196" y="96" fill="#56C399"/><rect x="250" y="96" width="12" height="36" fill="#82DCB9"><animate attributeName="fill" values="#82DCB9; #82DCB9; #fff; #82DCB9;#fff; #82DCB9;#fff; #82DCB9;#fff; #82DCB9;#fff; #82DCB9;#fff; #82DCB9;#82DCB9" keyTimes="0; 0.74; 0.76; 0.78;0.8;0.82;0.84;0.86;0.88;0.9;0.92;0.94;0.96;0.98;1" dur="5s" repeatCount="indefinite" /></rect><path d="M224 238L208 134V96H196V134V238H224Z" fill="#121212"/><path d="M288 238L304 134V96H316V134V238H288Z" fill="#121212"/><rect x="166" y="136" width="180" height="16" fill="#8B634A"/><rect x="330" y="112" width="16" height="24" fill="#8B634A"/><rect x="166" y="112" width="16" height="24" fill="#8B634A"/><rect x="196" y="108" width="120" height="28" fill="#77492D"/><rect x="196" y="44" width="120" height="64" fill="#8B634A"/><path d="M250 202L262 202" stroke="#121212" stroke-width="6"/><line x1="178.027" y1="179.789" x2="202.027" y2="201.789" stroke="#121212" stroke-width="6"/><circle cx="226" cy="203" r="24" stroke="#121212" stroke-width="6"/><line y1="-3" x2="32.5576" y2="-3" transform="matrix(-0.737154 0.675725 0.675725 0.737154 336 182)" stroke="#121212" stroke-width="6"/><circle cx="27" cy="27" r="24" transform="matrix(-1 0 0 1 313 176)" stroke="#121212" stroke-width="6"/><mask id="mask0_180_141" style="mask-type:alpha" maskUnits="userSpaceOnUse" x="265" y="182" width="42" height="42"><circle cx="286" cy="203" r="21" fill="#D9D9D9"/></mask><g mask="url(#mask0_180_141)"><path d="M272.179 182H280.961L270.422 224H261.641L272.179 182Z" fill="#D9D9D9"><animateTransform attributeName="transform" type="translate" dur="4s" repeatCount="indefinite" keyTimes="0;0.1;0.3;1" values="-32 0;-32 0;48 0;48 0" /></path></g><mask id="mask1_180_141" style="mask-type:alpha" maskUnits="userSpaceOnUse" x="205" y="182" width="42" height="42"><circle cx="226" cy="203" r="21" fill="#D9D9D9"/></mask><g mask="url(#mask1_180_141)"><path d="M212.179 182H220.961L210.422 224H201.641L212.179 182Z" fill="#D9D9D9"><animateTransform attributeName="transform" type="translate" dur="4s" repeatCount="indefinite" keyTimes="0;0.1;0.3;1" values="-32 0;-32 0;48 0;48 0" /></path></g><path d="M230.711 344H280" stroke="#121212" stroke-width="6"/><path d="M368.922 415.44L330.374 380.483L297.904 361.551L280.414 344.06L266.914 344.06L305.04 390.384L321.89 409.262L353.496 433.825L368.922 415.44Z" fill="white"/><path d="M321.89 409.262L353.496 433.825L368.922 415.44L330.374 380.483M321.89 409.262L330.374 380.483M321.89 409.262L305.04 390.384M330.374 380.483L297.904 361.551M305.04 390.384L266.914 344.06L280.414 344.06L297.904 361.551M305.04 390.384L297.904 361.551" stroke="#121212" stroke-width="6"/><path d="M368.922 415.44L353.495 433.825L345 427.223L361 408.256L368.922 415.44Z" fill="#2D2D2D" stroke="#121212" stroke-width="6"><animate attributeName="fill" dur="4s" repeatCount="indefinite" keyTimes="0;0.8;1" values="#2d2d2d;red;#2d2d2d" /></path><path d="M383 432C411.5 439 442 427.5 449 385.5C456 343.5 393 313 424 267" stroke="white" stroke-width="6"><animate attributeName="stroke" dur="4s" repeatCount="indefinite" keyTimes="0;0.8;1" values="white;transparent;white" /></path></g></svg>