<svg xmlns="http://www.w3.org/2000/svg" width="512" height="512" fill="none"><rect width="512" height="512" fill="#FF9900"/><rect x="84" y="340" width="344" height="160" fill="#8B634A"/><g id="ling"><animateTransform attributeName="transform" type="translate" dur="0.4s" repeatCount="indefinite" keyTimes="0;0.5;1" values="0 0;0 28;0 0" /><rect x="196" y="176" width="120" height="296" fill="#AE7B5C"/><rect width="120" height="80"  x="196" y="96" fill="#8B634A"/><rect x="250" y="96" width="12" height="36" fill="#AE7B5C"><animate attributeName="fill" values="#AE7B5C; #AE7B5C; #fff; #AE7B5C;#fff; #AE7B5C;#fff; #AE7B5C;#fff; #AE7B5C;#fff; #AE7B5C;#fff; #AE7B5C;#AE7B5C" keyTimes="0; 0.74; 0.76; 0.78;0.8;0.82;0.84;0.86;0.88;0.9;0.92;0.94;0.96;0.98;1" dur="5s" repeatCount="indefinite" /></rect><rect x="244" y="52" width="24" height="80" fill="#121212"/><path d="M202 179H250V199L238 227H202V179Z" fill="#121212"/><path d="M202 179H250V199L238 227H202V179ZM202 179H196" stroke="#FFB74A" stroke-width="6"/><path d="M247 179H266" stroke="#FFB74A" stroke-width="6"/><path d="M247 197H266" stroke="#FFB74A" stroke-width="6"/><path d="M310 179H262V199L274 227H310V179Z" fill="#121212"/><path d="M310 179H262V199L274 227H310V179ZM310 179H316" stroke="#FFB74A" stroke-width="6"/><mask id="mask0_180_157" style="mask-type:alpha" maskUnits="userSpaceOnUse" x="205" y="182" width="42" height="42"><path d="M205 182H247V198.336L242 210L236 224H205V182Z" fill="#121212"/></mask><g mask="url(#mask0_180_157)"><path d="M213.112 182H221.882L211.358 225.235H202.588L213.112 182Z" fill="#FFF"><animateTransform attributeName="transform" type="translate" dur="4s" repeatCount="indefinite" keyTimes="0;0.1;0.3;1" values="-32 0;-32 0;48 0;48 0" /></path></g><mask id="mask1_180_157" style="mask-type:alpha" maskUnits="userSpaceOnUse" x="265" y="182" width="42" height="42"><path d="M265 182H307V197V224H299.125H276L265 198.5V182Z" fill="#121212"/></mask><g mask="url(#mask1_180_157)"><path d="M271.112 182H279.882L269.358 225.235H260.588L271.112 182Z" fill="#FFF"><animateTransform attributeName="transform" type="translate" dur="4s" repeatCount="indefinite" keyTimes="0;0.1;0.3;1" values="-32 0;-32 0;48 0;48 0" /></path></g><path d="M230.711 341H280" stroke="#121212" stroke-width="6"/><path d="M360.711 387.964L346.268 407.131L284.113 360.294L258.419 340.978L298.556 341.127L360.711 387.964Z" fill="#77492D"/><path d="M360.711 387.964L363.107 389.77L364.913 387.374L362.517 385.568L360.711 387.964ZM346.268 407.131L344.462 409.527L346.858 411.333L348.664 408.937L346.268 407.131ZM284.113 360.294L285.918 357.898L285.916 357.896L284.113 360.294ZM298.556 341.127L300.362 338.731L299.565 338.131L298.568 338.127L298.556 341.127ZM258.419 340.978L258.43 337.978C257.138 337.973 255.987 338.797 255.576 340.023C255.164 341.248 255.583 342.599 256.617 343.376L258.419 340.978ZM358.316 386.159L343.872 405.326L348.664 408.937L363.107 389.77L358.316 386.159ZM348.073 404.735L285.918 357.898L282.307 362.69L344.462 409.527L348.073 404.735ZM296.751 343.523L358.906 390.36L362.517 385.568L300.362 338.731L296.751 343.523ZM285.916 357.896L260.222 338.58L256.617 343.376L282.31 362.692L285.916 357.896ZM258.408 343.978L298.545 344.127L298.568 338.127L258.43 337.978L258.408 343.978Z" fill="#121212"/><rect x="361.184" y="388.32" width="24" height="12.1288" transform="rotate(127 361.184 388.32)" fill="#D22D27" stroke="#121212" stroke-width="6"><animate attributeName="fill" dur="4s" repeatCount="indefinite" keyTimes="0;0.8;1" values="#2d2d2d;red;#2d2d2d" /></rect><rect x="328.896" y="363.989" width="24" height="24.2576" transform="rotate(127 328.896 363.989)" fill="#FF9900" stroke="#121212" stroke-width="6" /><path d="M375 405C403.5 412 434 400.5 441 358.5C448 316.5 385 286 416 240" stroke="white" stroke-width="6"><animate attributeName="stroke" dur="4s" repeatCount="indefinite" keyTimes="0;0.8;1" values="white;transparent;white" /></path></g></svg>