<svg width="512" height="512" viewBox="0 0 512 512" fill="none" xmlns="http://www.w3.org/2000/svg">
<path d="M361.727 249L363.834 246.864C363.267 246.305 362.501 245.994 361.705 246C360.909 246.006 360.147 246.328 359.589 246.896L361.727 249ZM361.727 249C359.589 246.896 359.588 246.896 359.588 246.897L359.586 246.898L359.582 246.903L359.57 246.915L359.527 246.96C359.49 246.997 359.438 247.051 359.372 247.12C359.24 247.258 359.049 247.459 358.81 247.717C358.331 248.233 357.653 248.98 356.843 249.919C355.225 251.793 353.064 254.449 350.898 257.575C346.669 263.677 342 272.153 342 280.273C342 291.168 350.832 300 361.727 300C372.622 300 381.455 291.168 381.455 280.273C381.455 271.91 376.796 263.441 372.548 257.376C370.377 254.276 368.212 251.663 366.591 249.824C365.778 248.904 365.099 248.173 364.618 247.668C364.377 247.416 364.186 247.22 364.053 247.084C363.986 247.017 363.934 246.964 363.897 246.927L363.854 246.884L363.841 246.871L363.837 246.867L363.835 246.865C363.835 246.865 363.834 246.864 361.727 249Z" fill="#1FE4FF" stroke="#121212" stroke-width="6" stroke-linejoin="round"/>
<path d="M150.727 249L152.834 246.864C152.267 246.305 151.501 245.994 150.705 246C149.909 246.006 149.147 246.328 148.589 246.896L150.727 249ZM150.727 249C148.589 246.896 148.588 246.896 148.588 246.897L148.586 246.898L148.582 246.903L148.57 246.915L148.527 246.96C148.49 246.997 148.438 247.051 148.372 247.12C148.24 247.258 148.049 247.459 147.81 247.717C147.331 248.233 146.653 248.98 145.843 249.919C144.225 251.793 142.064 254.449 139.898 257.575C135.669 263.677 131 272.153 131 280.273C131 291.168 139.832 300 150.727 300C161.622 300 170.455 291.168 170.455 280.273C170.455 271.91 165.796 263.441 161.548 257.376C159.377 254.276 157.212 251.663 155.591 249.824C154.778 248.904 154.099 248.173 153.618 247.668C153.377 247.416 153.186 247.22 153.053 247.084C152.986 247.017 152.934 246.964 152.897 246.927L152.854 246.884L152.841 246.871L152.837 246.867L152.835 246.865C152.835 246.865 152.834 246.864 150.727 249Z" fill="#1FE4FF" stroke="#121212" stroke-width="6" stroke-linejoin="round"/>
<path d="M350 263C354 265.5 364.4 269 374 263" stroke="#121212" stroke-width="6" stroke-linecap="round" stroke-linejoin="round"/>
<path d="M139 263C143 265.5 153.4 269 163 263" stroke="#121212" stroke-width="6" stroke-linecap="round" stroke-linejoin="round"/>
<circle cx="362" cy="241" r="11" fill="#1FE4FF" stroke="#121212" stroke-width="6" stroke-linejoin="round"/>
<circle cx="151" cy="241" r="11" fill="#1FE4FF" stroke="#121212" stroke-width="6" stroke-linejoin="round"/>
<path d="M343 278C350 282.333 367.3 288.4 380.5 278" stroke="#121212" stroke-width="6" stroke-linecap="round" stroke-linejoin="round"/>
<path d="M132 278C139 282.333 156.3 288.4 169.5 278" stroke="#121212" stroke-width="6" stroke-linecap="round" stroke-linejoin="round"/>
</svg>
