<svg xmlns="http://www.w3.org/2000/svg" viewBox="0 0 512 512"><g id="layer1" transform="translate(0, 0)"><svg width="512" height="512" viewBox="0 0 512 512" fill="none" xmlns="http://www.w3.org/2000/svg">
<g clip-path="url(#clip0_75_1422)">
<path d="M512 0H0V512H512V0Z" fill="#FF9900"/>
<path d="M428 340H84V500H428V340Z" fill="#36CF00"/>
<g>
<animateTransform attributeName="transform" type="translate" dur="0.4s" repeatCount="indefinite" keyTimes="0;0.5;1" values="0 0;0 28;0 0" />
<path d="M316 176H196V472H316V176Z" fill="#3BE200"/>
<path d="M316 176H196V96H316V176Z" fill="#36CF00"/>
<path d="M262 96H250V132H262V96Z" fill="#3BE200">
<animate attributeName="fill" values="#3BE200; #3BE200; #fff; #3BE200;#fff; #3BE200;#fff; #3BE200;#fff; #3BE200;#fff; #3BE200;#fff; #3BE200;#3BE200" keyTimes="0; 0.74; 0.76; 0.78;0.8;0.82;0.84;0.86;0.88;0.9;0.92;0.94;0.96;0.98;1" dur="5s" repeatCount="indefinite" />
</path>
</g>
</g>
<defs>
<clipPath id="clip0_75_1422">
<rect width="512" height="512" fill="white"/>
</clipPath>
</defs>
</svg>
</g><g id="layer2" transform="translate(84, 22)"><svg width="344" height="344" viewBox="0 0 344 344" fill="none" xmlns="http://www.w3.org/2000/svg"><g>
<animateTransform attributeName="transform" type="translate" dur="0.4s" repeatCount="indefinite" keyTimes="0;0.5;1" values="0 0;0 28;0 0" />
<path d="M226.46 81.7402L245.487 89.2442L252.991 108.271L233.964 100.767L226.46 81.7402Z" fill="#004A1C"/>
<path d="M226.46 89.5107L245.487 82.0067L252.991 62.9801L233.964 70.4841L226.46 89.5107Z" fill="#004A1C"/>
<rect x="111.22" y="60.2998" width="120.6" height="48.24" fill="#006727"/>
</g></svg>
</g><g id="layer3" transform="translate(84, 55)"><svg width="344" height="344" viewBox="0 0 344 344" fill="none" xmlns="http://www.w3.org/2000/svg">
<g>
<animateTransform attributeName="transform" type="translate" dur="0.4s" repeatCount="indefinite" keyTimes="0;0.5;1" values="0 0;0 28;0 0" />
<path d="M166 123L178 123" stroke="#BBB" stroke-width="4"/>
<path d="M166 123L178 123" stroke="#BBB" stroke-width="4"/>
<path d="M178 117H216V155H178V117Z" fill="white"/>
<path d="M216 117H178V155H216V117ZM216 117H232" stroke="#BBB" stroke-width="4"/>
<path d="M128 117H166V155H128V117Z" fill="white"/>
<path d="M128 117H166V155H128V117ZM128 117H112" stroke="#BBB" stroke-width="4"/>
<mask id="mask0_112_6" style="mask-type:alpha" maskUnits="userSpaceOnUse" x="130" y="119" width="34" height="34">
<path d="M130 119H164V131V153H130V119Z" fill="#BBB"/>
</mask>
<g mask="url(#mask0_112_6)">
<path d="M136 119H143L135 153H127L136 119Z" fill="#BBB">
<animateTransform attributeName="transform" type="translate" dur="4s" repeatCount="indefinite" keyTimes="0;0.8;1" values="-32 0;-32 0;48 0" />
</path>
</g>
<mask id="mask1_112_6" style="mask-type:alpha" maskUnits="userSpaceOnUse" x="180" y="119" width="34" height="34">
<path d="M180 119H214V131V153H180V119Z" fill="#BBB"/>
</mask>
<g mask="url(#mask1_112_6)">
<path d="M186 119H193L185 153H177L186 119Z" fill="#BBB">
<animateTransform attributeName="transform" type="translate" dur="4s" repeatCount="indefinite" keyTimes="0;0.8;1" values="-32 0;-32 0;48 0" />
</path>
</g>
</g>
</svg>
</g><g id="layer4" transform="translate(84, 140)"><svg width="344" height="344" viewBox="0 0 344 344" fill="none" xmlns="http://www.w3.org/2000/svg"><g>
<animateTransform attributeName="transform" type="translate" dur="0.4s" repeatCount="indefinite" keyTimes="0;0.5;1" values="0 0;0 28;0 0" />
<path d="M154.737 202.82H187.76" stroke="#121212" stroke-width="4.02"/>
<path d="M187.09 202.821C187.09 202.821 246.641 246.706 250.198 248.716L258.238 234.981L187.09 202.821Z" fill="#D22D27" stroke="#121212" stroke-width="4.02"/>
<path d="M185.582 202.703L229.449 234.07L241.68 227.625L185.582 202.703Z" fill="#00FF94" stroke="#121212" stroke-width="4.02"/>
<path d="M187.425 202.82L217.89 225.804L227.827 221.47L187.425 202.82Z" fill="#00A8FF"/>
<path d="M217.89 225.804L216.68 227.409L217.618 228.116L218.694 227.647L217.89 225.804ZM187.425 202.82L188.267 200.995C187.335 200.565 186.228 200.907 185.7 201.788C185.173 202.669 185.394 203.806 186.214 204.425L187.425 202.82ZM227.827 221.47L228.63 223.312L232.735 221.521L228.669 219.645L227.827 221.47ZM219.101 224.2L188.635 201.216L186.214 204.425L216.68 227.409L219.101 224.2ZM186.582 204.645L226.984 223.295L228.669 219.645L188.267 200.995L186.582 204.645ZM218.694 227.647L228.63 223.312L227.023 219.627L217.087 223.962L218.694 227.647Z" fill="#121212"/>
<rect x="262.395" y="224.93" width="14.07" height="25.2607" rx="7.035" transform="rotate(42.3433 262.395 224.93)" fill="#FFB74A" stroke="#121212" stroke-width="4.02"/>
<path d="M261.46 243.69C261.46 246.17 260.113 248.335 258.11 249.494C257.125 250.064 255.98 250.39 254.76 250.39C251.06 250.39 248.06 247.391 248.06 243.69C248.06 239.99 251.06 236.99 254.76 236.99C258.46 236.99 261.46 239.99 261.46 243.69Z" fill="#FFB74A" stroke="#121212" stroke-width="4.02"/>
</g></svg>
</g></svg>