<svg xmlns="http://www.w3.org/2000/svg" viewBox="0 0 512 512"><g id="layer1" transform="translate(0, 0)"><svg width="512" height="512" viewBox="0 0 512 512" fill="none" xmlns="http://www.w3.org/2000/svg">
<g clip-path="url(#clip0_75_1405)">
<path d="M512 0H0V512H512V0Z" fill="#FF9900"/>
<path d="M428 340H84V500H428V340Z" fill="#0097D8"/>
<path d="M388 429.5L428 465V449L388 429.5Z" fill="#2C71A3"/>
<path d="M124 406L84 374V386.8L124 406Z" fill="#2C71A3"/>
<path d="M388 406L428 374V386.8L388 406Z" fill="#2C71A3"/>
<path d="M124 429.5L84 465V449L124 429.5Z" fill="#2C71A3"/>
<g>
<animateTransform attributeName="transform" type="translate" dur="0.4s" repeatCount="indefinite" keyTimes="0;0.5;1" values="0 0;0 28;0 0" />
<path d="M316 176H196V472H316V176Z" fill="#00B2FF"/>
<path d="M276 347.5L316 383V367L276 347.5Z" fill="#2C71A3"/>
<path d="M227.5 400.5L196 431V415L227.5 400.5Z" fill="#2C71A3"/>
<path d="M276 324L316 292V304.8L276 324Z" fill="#2C71A3"/>
<path d="M228 176H212L228 216V176Z" fill="#2C71A3"/>
<path d="M264 176H248L256 282L264 176Z" fill="#2C71A3"/>
<path d="M222 336L196 344V328L222 336Z" fill="#2C71A3"/>
<path d="M300 176H284V216L300 176Z" fill="#2C71A3"/>
<path d="M316 176H196V96H316V176Z" fill="#0097D8"/>
<path d="M262 96H250V132H262V96Z" fill="#00B2FF">
<animate attributeName="fill" values="#00B2FF; #00B2FF; #fff; #00B2FF;#fff; #00B2FF;#fff; #00B2FF;#fff; #00B2FF;#fff; #00B2FF;#fff; #00B2FF;#00B2FF" keyTimes="0; 0.74; 0.76; 0.78;0.8;0.82;0.84;0.86;0.88;0.9;0.92;0.94;0.96;0.98;1" dur="5s" repeatCount="indefinite" />
</path>
</g>
</g>
<defs>
<clipPath id="clip0_75_1405">
<rect width="512" height="512" fill="white"/>
</clipPath>
</defs>
</svg>
</g><g id="layer2" transform="translate(84, 22)"><svg width="344" height="344" viewBox="0 0 344 344" fill="none" xmlns="http://www.w3.org/2000/svg"><g>
<animateTransform attributeName="transform" type="translate" dur="0.4s" repeatCount="indefinite" keyTimes="0;0.5;1" values="0 0;0 28;0 0" />
<path d="M110.88 94.96H231.88V72.46C231.88 60.0336 221.806 49.96 209.38 49.96H133.38C120.953 49.96 110.88 60.0336 110.88 72.46V94.96Z" fill="#96469A"/>
<rect width="121" height="16" transform="matrix(1 0 0 -1 110.88 110.96)" fill="#704B9F"/>
</g></svg>
</g><g id="layer3" transform="translate(84, 55)"><svg width="344" height="344" viewBox="0 0 344 344" fill="none" xmlns="http://www.w3.org/2000/svg">
<g>
<animateTransform attributeName="transform" type="translate" dur="0.4s" repeatCount="indefinite" keyTimes="0;0.5;1" values="0 0;0 28;0 0" />
<path d="M112 119.26H162.667L168 124.62L157.333 154.77L112 141.37V119.26Z" fill="#121212"/>
<path d="M232 119.26H181.333L176 124.62L186.667 154.77L232 141.37V119.26Z" fill="#121212"/>
<rect x="162.666" y="119.26" width="18.6667" height="8.04" fill="#121212"/>
<mask id="mask0_134_606" style="mask-type:alpha" maskUnits="userSpaceOnUse" x="115" y="125" width="50" height="26">
<path d="M115 125H164.5L160.5 135.5L155.5 150.5L115 139V125Z" fill="#121212"/>
</mask>
<g mask="url(#mask0_134_606)">
<path d="M122.727 123H130L121.273 158H114L122.727 123Z" fill="#D9D9D9">
<animateTransform attributeName="transform" type="translate" dur="4s" repeatCount="indefinite" keyTimes="0;0.8;1" values="-32 0;-32 0;48 0" />
</path>
</g>
<mask id="mask1_134_606" style="mask-type:alpha" maskUnits="userSpaceOnUse" x="179" y="125" width="51" height="26">
<path d="M229.002 125H179.502L183.502 135.5L188.502 150.5L229.002 139V125Z" fill="#121212"/>
</mask>
<g mask="url(#mask1_134_606)">
<path d="M224.275 124H217.002L225.729 159H233.002L224.275 124Z" fill="#D9D9D9">
<animateTransform attributeName="transform" type="translate" dur="4s" repeatCount="indefinite" keyTimes="0;0.8;1" values="-48 0;-48 0;48 0" />
</path>
</g>
</g>
</svg>
</g><g id="layer4" transform="translate(84, 140)"><svg width="344" height="344" viewBox="0 0 344 344" fill="none" xmlns="http://www.w3.org/2000/svg"><g>
<animateTransform attributeName="transform" type="translate" dur="0.4s" repeatCount="indefinite" keyTimes="0;0.5;1" values="0 0;0 28;0 0" />
<path d="M195.44 194.277L142.654 184.97C142.654 184.97 138.001 211.363 164.412 216.02C190.824 220.677 195.44 194.277 195.44 194.277Z" fill="white"/>
</g></svg>
</g></svg>