<svg xmlns="http://www.w3.org/2000/svg" viewBox="0 0 512 512"><g id="layer1" transform="translate(0, 0)"><svg width="512" height="512" viewBox="0 0 512 512" fill="none" xmlns="http://www.w3.org/2000/svg">
<g clip-path="url(#clip0_75_1405)">
<path d="M512 0H0V512H512V0Z" fill="#FF9900"/>
<path d="M428 340H84V500H428V340Z" fill="#0097D8"/>
<path d="M388 429.5L428 465V449L388 429.5Z" fill="#2C71A3"/>
<path d="M124 406L84 374V386.8L124 406Z" fill="#2C71A3"/>
<path d="M388 406L428 374V386.8L388 406Z" fill="#2C71A3"/>
<path d="M124 429.5L84 465V449L124 429.5Z" fill="#2C71A3"/>
<g>
<animateTransform attributeName="transform" type="translate" dur="0.4s" repeatCount="indefinite" keyTimes="0;0.5;1" values="0 0;0 28;0 0" />
<path d="M316 176H196V472H316V176Z" fill="#00B2FF"/>
<path d="M276 347.5L316 383V367L276 347.5Z" fill="#2C71A3"/>
<path d="M227.5 400.5L196 431V415L227.5 400.5Z" fill="#2C71A3"/>
<path d="M276 324L316 292V304.8L276 324Z" fill="#2C71A3"/>
<path d="M228 176H212L228 216V176Z" fill="#2C71A3"/>
<path d="M264 176H248L256 282L264 176Z" fill="#2C71A3"/>
<path d="M222 336L196 344V328L222 336Z" fill="#2C71A3"/>
<path d="M300 176H284V216L300 176Z" fill="#2C71A3"/>
<path d="M316 176H196V96H316V176Z" fill="#0097D8"/>
<path d="M262 96H250V132H262V96Z" fill="#00B2FF">
<animate attributeName="fill" values="#00B2FF; #00B2FF; #fff; #00B2FF;#fff; #00B2FF;#fff; #00B2FF;#fff; #00B2FF;#fff; #00B2FF;#fff; #00B2FF;#00B2FF" keyTimes="0; 0.74; 0.76; 0.78;0.8;0.82;0.84;0.86;0.88;0.9;0.92;0.94;0.96;0.98;1" dur="5s" repeatCount="indefinite" />
</path>
</g>
</g>
<defs>
<clipPath id="clip0_75_1405">
<rect width="512" height="512" fill="white"/>
</clipPath>
</defs>
</svg>
</g><g id="layer2" transform="translate(84, 22)"><svg width="344" height="344" viewBox="0 0 344 344" fill="none" xmlns="http://www.w3.org/2000/svg"><g>
<animateTransform attributeName="transform" type="translate" dur="0.4s" repeatCount="indefinite" keyTimes="0;0.5;1" values="0 0;0 28;0 0" />
<rect x="111.22" y="71.02" width="120.6" height="26.8" fill="#001D55"/>
<path d="M111.22 71.0199C111.22 57.6988 122.019 46.8999 135.34 46.8999H207.7C221.021 46.8999 231.82 57.6988 231.82 71.0199V71.0199H111.22V71.0199Z" fill="#001D55"/>
<rect x="97.8198" y="97.8198" width="147.4" height="10.72" fill="#001235"/>
<rect x="163.48" y="33.5" width="16.08" height="37.52" fill="#001235"/>
<path d="M146.06 60.3L171.855 41.54L197.65 60.3L186.93 97.82H156.78L146.06 60.3Z" fill="#C2FD52"/>
</g></svg>
</g><g id="layer3" transform="translate(84, 55)"><svg width="344" height="344" viewBox="0 0 344 344" fill="none" xmlns="http://www.w3.org/2000/svg">
<g>
<animateTransform attributeName="transform" type="translate" dur="0.4s" repeatCount="indefinite" keyTimes="0;0.5;1" values="0 0;0 28;0 0" />
<rect x="111" y="127" width="56" height="8" fill="#121212"/>
<rect x="119" y="127" width="8" height="8" fill="white"/>
<rect x="174" y="127" width="56" height="8" fill="#121212"/>
<rect x="182" y="135" width="40" height="8" fill="#121212"/>
<rect x="190" y="143" width="24" height="8" fill="#121212"/>
<rect x="119" y="135" width="40" height="8" fill="#121212"/>
<rect x="127" y="143" width="24" height="8" fill="#121212"/>
<rect x="111" y="119" width="120" height="8" fill="#121212"/>
<rect x="127" y="135" width="8" height="8" fill="white"/>
<rect x="135" y="143" width="8" height="8" fill="white"/>
<rect x="182" y="127" width="8" height="8" fill="white"/>
<rect x="190" y="135" width="8" height="8" fill="white"/>
<rect x="198" y="143" width="8" height="8" fill="white"/>
</g>
</svg>
</g><g id="layer4" transform="translate(84, 140)"><svg width="344" height="344" viewBox="0 0 344 344" fill="none" xmlns="http://www.w3.org/2000/svg"><g>
<animateTransform attributeName="transform" type="translate" dur="0.4s" repeatCount="indefinite" keyTimes="0;0.5;1" values="0 0;0 28;0 0" />
<path d="M154.817 202.82H187.84" stroke="#121212" stroke-width="4.02"/>
<path d="M241.917 234.286L232.239 247.128L190.596 215.747L173.381 202.806L200.273 202.905L241.917 234.286Z" fill="#77492D"/>
<path d="M241.917 234.286L243.522 235.496L244.732 233.891L243.126 232.681L241.917 234.286ZM232.239 247.128L231.03 248.733L232.635 249.943L233.845 248.338L232.239 247.128ZM190.596 215.747L191.805 214.142L191.803 214.141L190.596 215.747ZM200.273 202.905L201.482 201.3L200.949 200.898L200.28 200.895L200.273 202.905ZM173.381 202.806L173.388 200.796C172.522 200.792 171.751 201.344 171.476 202.165C171.2 202.986 171.481 203.892 172.173 204.412L173.381 202.806ZM240.311 233.076L230.634 245.919L233.845 248.338L243.522 235.496L240.311 233.076ZM233.449 245.523L191.805 214.142L189.386 217.353L231.03 248.733L233.449 245.523ZM199.063 204.51L240.707 235.891L243.126 232.681L201.482 201.3L199.063 204.51ZM191.803 214.141L174.589 201.199L172.173 204.412L189.388 217.354L191.803 214.141ZM173.373 204.816L200.265 204.915L200.28 200.895L173.388 200.796L173.373 204.816Z" fill="#121212"/>
<rect x="242.233" y="234.524" width="16.08" height="8.1263" transform="rotate(127 242.233 234.524)" fill="#2d2d2d" stroke="#121212" stroke-width="4.02">
<animate attributeName="fill" dur="4s" repeatCount="indefinite" keyTimes="0;0.8;1" values="#2d2d2d;red;#2d2d2d" />
</rect>
<rect x="220.6" y="218.223" width="16.08" height="16.2526" transform="rotate(127 220.6 218.223)" fill="#FF9900" stroke="#121212" stroke-width="4.02"/>
<path d="M251.49 245.7C270.585 250.39 291.02 242.685 295.71 214.545C300.4 186.405 258.19 165.97 278.96 135.15" stroke="white" stroke-width="4.02">
<animate attributeName="stroke" dur="4s" repeatCount="indefinite" keyTimes="0;0.8;1" values="white;transparent;white" />
</path>
</g></svg>
</g></svg>