<svg xmlns="http://www.w3.org/2000/svg" viewBox="0 0 512 512"><g id="layer1" transform="translate(0, 0)"><svg width="512" height="512" viewBox="0 0 512 512" fill="none" xmlns="http://www.w3.org/2000/svg">
<g clip-path="url(#clip0_75_1379)">
<path d="M512 0H0V512H512V0Z" fill="#FF9900"/>
<path d="M428 340H84V500H428V340Z" fill="#CACACA"/>
<path d="M164 468C164 463.582 160.418 460 156 460C151.582 460 148 463.582 148 468C148 472.418 151.582 476 156 476C160.418 476 164 472.418 164 468Z" fill="#1D1D1D"/>
<path d="M346 374C346 378.418 349.582 382 354 382C358.418 382 362 378.418 362 374C362 369.582 358.418 366 354 366C349.582 366 346 369.582 346 374Z" fill="#1D1D1D"/>
<path d="M364 431C364 435.418 367.582 439 372 439C376.418 439 380 435.418 380 431C380 426.582 376.418 423 372 423C367.582 423 364 426.582 364 431Z" fill="#1D1D1D"/>
<path d="M118 442C118 438.686 115.314 436 112 436C108.686 436 106 438.686 106 442C106 445.314 108.686 448 112 448C115.314 448 118 445.314 118 442Z" fill="#1D1D1D"/>
<g>
<animateTransform attributeName="transform" type="translate" dur="0.4s" repeatCount="indefinite" keyTimes="0;0.5;1" values="0 0;0 28;0 0" />
<path d="M316 176H196V472H316V176Z" fill="#E3E3E3"/>
<path d="M316 176H196V96H316V176Z" fill="#CACACA"/>
<path d="M300 294C300 289.582 296.418 286 292 286C287.582 286 284 289.582 284 294C284 298.418 287.582 302 292 302C296.418 302 300 298.418 300 294Z" fill="#1D1D1D"/>
<path d="M296 423C296 418.582 292.418 415 288 415C283.582 415 280 418.582 280 423C280 427.418 283.582 431 288 431C292.418 431 296 427.418 296 423Z" fill="#1D1D1D"/>
<path d="M234 443C234 436.373 228.627 431 222 431C215.373 431 210 436.373 210 443C210 449.627 215.373 455 222 455C228.627 455 234 449.627 234 443Z" fill="#1D1D1D"/>
<path d="M234 264C234 257.373 228.627 252 222 252C215.373 252 210 257.373 210 264C210 270.627 215.373 276 222 276C228.627 276 234 270.627 234 264Z" fill="#1D1D1D"/>
<path d="M262 96H250V132H262V96Z" fill="#E3E3E3">
<animate attributeName="fill" values="#E3E3E3; #E3E3E3; #fff; #E3E3E3;#fff; #E3E3E3;#fff; #E3E3E3;#fff; #E3E3E3;#fff; #E3E3E3;#fff; #E3E3E3;#E3E3E3" keyTimes="0; 0.74; 0.76; 0.78;0.8;0.82;0.84;0.86;0.88;0.9;0.92;0.94;0.96;0.98;1" dur="5s" repeatCount="indefinite" />
</path>
</g>
</g>
<defs>
<clipPath id="clip0_75_1379">
<rect width="512" height="512" fill="white"/>
</clipPath>
</defs>
</svg>
</g><g id="layer2" transform="translate(84, 22)"><svg width="344" height="344" viewBox="0 0 344 344" fill="none" xmlns="http://www.w3.org/2000/svg"><g>
<animateTransform attributeName="transform" type="translate" dur="0.4s" repeatCount="indefinite" keyTimes="0;0.5;1" values="0 0;0 28;0 0" />
<path d="M142.04 99.3275L111.22 86.43V71.02L231.82 71.02V100.5L192.29 80.735V99.3275L142.04 80.735V99.3275Z" fill="#121212"/>
<rect x="77.0503" y="103.85" width="34.17" height="63.65" fill="white"/>
<rect x="231.82" y="103.85" width="34.17" height="63.65" fill="white"/>
<path d="M111.22 71.0198V103.85H92.4598V51.5898H250.58V103.85H231.82V71.0198H111.22Z" fill="white"/>
</g></svg>
</g><g id="layer3" transform="translate(84, 55)"><svg width="344" height="344" viewBox="0 0 344 344" fill="none" xmlns="http://www.w3.org/2000/svg">
<g>
<animateTransform attributeName="transform" type="translate" dur="0.4s" repeatCount="indefinite" keyTimes="0;0.5;1" values="0 0;0 28;0 0" />
<path fill-rule="evenodd" clip-rule="evenodd" d="M112.18 113.9H232.78V151.42L186.55 159.46L172.48 148.74L158.41 159.46L112.18 151.42V113.9ZM163.77 136.68C163.77 144.451 157.471 150.75 149.7 150.75C141.929 150.75 135.63 144.451 135.63 136.68C135.63 128.91 141.929 122.61 149.7 122.61C157.471 122.61 163.77 128.91 163.77 136.68ZM195.26 150.75C203.031 150.75 209.33 144.451 209.33 136.68C209.33 128.91 203.031 122.61 195.26 122.61C187.489 122.61 181.19 128.91 181.19 136.68C181.19 144.451 187.489 150.75 195.26 150.75Z" fill="#121212"/>
</g>
</svg>
</g><g id="layer4" transform="translate(84, 140)"><svg width="344" height="344" viewBox="0 0 344 344" fill="none" xmlns="http://www.w3.org/2000/svg"><g>
<animateTransform attributeName="transform" type="translate" dur="0.4s" repeatCount="indefinite" keyTimes="0;0.5;1" values="0 0;0 28;0 0" />
<path d="M154.737 202.82H187.76" stroke="#121212" stroke-width="4.02"/>
<path d="M187.09 202.821C187.09 202.821 246.641 246.706 250.198 248.716L258.238 234.981L187.09 202.821Z" fill="#D22D27" stroke="#121212" stroke-width="4.02"/>
<path d="M185.582 202.703L229.449 234.07L241.68 227.625L185.582 202.703Z" fill="#00FF94" stroke="#121212" stroke-width="4.02"/>
<path d="M187.425 202.82L217.89 225.804L227.827 221.47L187.425 202.82Z" fill="#00A8FF"/>
<path d="M217.89 225.804L216.68 227.409L217.618 228.116L218.694 227.647L217.89 225.804ZM187.425 202.82L188.267 200.995C187.335 200.565 186.228 200.907 185.7 201.788C185.173 202.669 185.394 203.806 186.214 204.425L187.425 202.82ZM227.827 221.47L228.63 223.312L232.735 221.521L228.669 219.645L227.827 221.47ZM219.101 224.2L188.635 201.216L186.214 204.425L216.68 227.409L219.101 224.2ZM186.582 204.645L226.984 223.295L228.669 219.645L188.267 200.995L186.582 204.645ZM218.694 227.647L228.63 223.312L227.023 219.627L217.087 223.962L218.694 227.647Z" fill="#121212"/>
<rect x="262.395" y="224.93" width="14.07" height="25.2607" rx="7.035" transform="rotate(42.3433 262.395 224.93)" fill="#FFB74A" stroke="#121212" stroke-width="4.02"/>
<path d="M261.46 243.69C261.46 246.17 260.113 248.335 258.11 249.494C257.125 250.064 255.98 250.39 254.76 250.39C251.06 250.39 248.06 247.391 248.06 243.69C248.06 239.99 251.06 236.99 254.76 236.99C258.46 236.99 261.46 239.99 261.46 243.69Z" fill="#FFB74A" stroke="#121212" stroke-width="4.02"/>
</g></svg>
</g></svg>