<svg xmlns="http://www.w3.org/2000/svg" viewBox="0 0 512 512"><g id="layer1" transform="translate(0, 0)"><svg width="512" height="512" viewBox="0 0 512 512" fill="none" xmlns="http://www.w3.org/2000/svg">
<g clip-path="url(#clip0_75_1465)">
<path d="M512 0H0V512H512V0Z" fill="#FF9900"/>
<path d="M428 340H84V500H428V340Z" fill="#2D2D2D"/>
<g>
<animateTransform attributeName="transform" type="translate" dur="0.4s" repeatCount="indefinite" keyTimes="0;0.5;1" values="0 0;0 28;0 0" />
<path d="M316 176H196V472H316V176Z" fill="#E3E3E3"/>
<path d="M316 176H196V96H316V176Z" fill="#2D2D2D"/>
<path d="M262 96H250V132H262V96Z" fill="#E3E3E3">
<animate attributeName="fill" values="#E3E3E3; #E3E3E3; #fff; #E3E3E3;#fff; #E3E3E3;#fff; #E3E3E3;#fff; #E3E3E3;#fff; #E3E3E3;#fff; #E3E3E3;#E3E3E3" keyTimes="0; 0.74; 0.76; 0.78;0.8;0.82;0.84;0.86;0.88;0.9;0.92;0.94;0.96;0.98;1" dur="5s" repeatCount="indefinite" />
</path>
</g>
</g>
<defs>
<clipPath id="clip0_75_1465">
<rect width="512" height="512" fill="white"/>
</clipPath>
</defs>
</svg>
</g><g id="layer2" transform="translate(84, 22)"><svg width="344" height="344" viewBox="0 0 344 344" fill="none" xmlns="http://www.w3.org/2000/svg"><g>
<animateTransform attributeName="transform" type="translate" dur="0.4s" repeatCount="indefinite" keyTimes="0;0.5;1" values="0 0;0 28;0 0" />
<path d="M111.22 71.02H231.82V103.18L111.22 103.18V71.02Z" fill="#121212"/>
<rect x="111.22" y="103.18" width="8.04" height="16.08" fill="#121212"/>
<rect x="223.78" y="103.18" width="8.04" height="16.08" fill="#121212"/>
</g></svg>
</g><g id="layer3" transform="translate(84, 55)"><svg width="344" height="344" viewBox="0 0 344 344" fill="none" xmlns="http://www.w3.org/2000/svg">
<g>
<animateTransform attributeName="transform" type="translate" dur="0.4s" repeatCount="indefinite" keyTimes="0;0.5;1" values="0 0;0 28;0 0" />
<path d="M121 117L164 117V130.28L156 155H121V117Z" fill="#121212"/>
<path d="M121 117L164 117V130.28L156 155H121V117ZM121 117H111" stroke="#FFB74A" stroke-width="4.02"/>
<path d="M165 117H178" stroke="#FFB74A" stroke-width="4"/>
<path d="M165 129.214H177.667" stroke="#FFB74A" stroke-width="4.02"/>
<path d="M178 117H220V155H186L178 130.252V117Z" fill="#121212"/>
<path d="M220 117H178V130.252L186 155H220V117ZM220 117H231" stroke="#FFB74A" stroke-width="4.02"/>
<mask id="mask0_59_950" style="mask-type:alpha" maskUnits="userSpaceOnUse" x="180" y="119" width="38" height="34">
<path d="M180 119H218V131V153H187.5L180 130V119Z" fill="#121212"/>
</mask>
<g mask="url(#mask0_59_950)">
<path d="M183.727 119H191L182.273 153H175L183.727 119Z" fill="white">
<animateTransform attributeName="transform" type="translate" dur="4s" repeatCount="indefinite" keyTimes="0;0.8;1" values="-32 0;-32 0;48 0" />
</path>
</g>
<mask id="mask1_59_950" style="mask-type:alpha" maskUnits="userSpaceOnUse" x="123" y="119" width="39" height="34">
<path d="M123 119H162V130L154.5 153H123V119Z" fill="#121212"/>
</mask>
<g mask="url(#mask1_59_950)">
<path d="M126.727 119H134L125.273 153H118L126.727 119Z" fill="white">
<animateTransform attributeName="transform" type="translate" dur="4s" repeatCount="indefinite" keyTimes="0;0.8;1" values="-32 0;-32 0;48 0" />
</path>
</g>
</g>
</svg>
</g><g id="layer4" transform="translate(84, 140)"><svg width="344" height="344" viewBox="0 0 344 344" fill="none" xmlns="http://www.w3.org/2000/svg"><g>
<animateTransform attributeName="transform" type="translate" dur="0.4s" repeatCount="indefinite" keyTimes="0;0.5;1" values="0 0;0 28;0 0" />
<path d="M198.72 189.42H145.12C145.12 189.42 145.12 216.22 171.939 216.22C198.758 216.22 198.72 189.42 198.72 189.42Z" fill="white"/>
</g></svg>
</g></svg>