<svg xmlns="http://www.w3.org/2000/svg" viewBox="0 0 512 512"><g id="layer1" transform="translate(0, 0)"><svg width="512" height="512" viewBox="0 0 512 512" fill="none" xmlns="http://www.w3.org/2000/svg">
<rect width="512" height="512" fill="#FF9900"/>
<rect x="84" y="340" width="344" height="160" fill="#DA420F"/>
<g>
<animateTransform attributeName="transform" type="translate" dur="0.4s" repeatCount="indefinite" keyTimes="0;0.5;1" values="0 0;0 28;0 0" />
<rect x="196" y="176" width="120" height="296" fill="#F15824"/>
<rect width="120" height="80" transform="matrix(1 0 0 -1 196 176)" fill="#DA420F"/>
<path d="M262 96H250V132H262V96Z" fill="#F15824">
<animate attributeName="fill" values="#F15824; #F15824; #fff; #F15824;#fff; #F15824;#fff; #F15824;#fff; #F15824;#fff; #F15824;#fff; #F15824;#F15824" keyTimes="0; 0.74; 0.76; 0.78;0.8;0.82;0.84;0.86;0.88;0.9;0.92;0.94;0.96;0.98;1" dur="5s" repeatCount="indefinite" />
</path>
</g>
</svg>
</g><g id="layer2" transform="translate(84, 22)"><svg width="344" height="344" viewBox="0 0 344 344" fill="none" xmlns="http://www.w3.org/2000/svg"><g>
<animateTransform attributeName="transform" type="translate" dur="0.4s" repeatCount="indefinite" keyTimes="0;0.5;1" values="0 0;0 28;0 0" />
<path d="M201.67 44.2202L179.56 69.0102H223.78L201.67 44.2202Z" fill="#C9BBC3"/>
<path d="M140.7 44.2202L118.59 69.0102H162.81L140.7 44.2202Z" fill="#C9BBC3"/>
<rect width="120.6" height="16.08" transform="matrix(1 0 0 -1 111.22 108.54)" fill="#C9BBC3"/>
<path d="M111.22 92.46H231.82V68.34V35.175L201.67 68.34L170.85 35.175L141.37 68.34L111.22 35.175V68.34V92.46Z" fill="#D8D8D8"/>
<path d="M159.46 75.3341L171.846 62.98L183.58 75.3341L171.846 87.1L159.46 75.3341Z" fill="#00A8FF"/>
<path d="M224.45 75.2197L231.82 67.6699V82.4099L224.45 75.2197Z" fill="#D22D27"/>
<path d="M118.59 75.2197L111.22 67.6699V82.4099L118.59 75.2197Z" fill="#D22D27"/>
<circle cx="111.89" cy="32.1601" r="8.04" fill="#C9BBC3"/>
<circle cx="171.52" cy="32.1601" r="8.04" fill="#C9BBC3"/>
<circle cx="231.15" cy="32.1601" r="8.04" fill="#C9BBC3"/>
</g></svg>
</g><g id="layer3" transform="translate(84, 55)"><svg width="344" height="344" viewBox="0 0 344 344" fill="none" xmlns="http://www.w3.org/2000/svg">
<g>
<animateTransform attributeName="transform" type="translate" dur="0.4s" repeatCount="indefinite" keyTimes="0;0.5;1" values="0 0;0 28;0 0" />
<path d="M166 123L178 123" stroke="#BBB" stroke-width="4"/>
<path d="M166 123L178 123" stroke="#BBB" stroke-width="4"/>
<path d="M178 117H216V155H178V117Z" fill="white"/>
<path d="M216 117H178V155H216V117ZM216 117H232" stroke="#BBB" stroke-width="4"/>
<path d="M128 117H166V155H128V117Z" fill="white"/>
<path d="M128 117H166V155H128V117ZM128 117H112" stroke="#BBB" stroke-width="4"/>
<mask id="mask0_112_6" style="mask-type:alpha" maskUnits="userSpaceOnUse" x="130" y="119" width="34" height="34">
<path d="M130 119H164V131V153H130V119Z" fill="#BBB"/>
</mask>
<g mask="url(#mask0_112_6)">
<path d="M136 119H143L135 153H127L136 119Z" fill="#BBB">
<animateTransform attributeName="transform" type="translate" dur="4s" repeatCount="indefinite" keyTimes="0;0.8;1" values="-32 0;-32 0;48 0" />
</path>
</g>
<mask id="mask1_112_6" style="mask-type:alpha" maskUnits="userSpaceOnUse" x="180" y="119" width="34" height="34">
<path d="M180 119H214V131V153H180V119Z" fill="#BBB"/>
</mask>
<g mask="url(#mask1_112_6)">
<path d="M186 119H193L185 153H177L186 119Z" fill="#BBB">
<animateTransform attributeName="transform" type="translate" dur="4s" repeatCount="indefinite" keyTimes="0;0.8;1" values="-32 0;-32 0;48 0" />
</path>
</g>
</g>
</svg>
</g><g id="layer4" transform="translate(84, 140)"><svg width="344" height="344" viewBox="0 0 344 344" fill="none" xmlns="http://www.w3.org/2000/svg"><g>
<animateTransform attributeName="transform" type="translate" dur="0.4s" repeatCount="indefinite" keyTimes="0;0.5;1" values="0 0;0 28;0 0" />
<path d="M154.577 202.34H187.6" stroke="#121212" stroke-width="4.02"/>
<path d="M247.178 250.204L221.35 226.783L199.596 214.099L187.877 202.38L178.832 202.38L204.377 233.417L215.666 246.065L236.842 262.522L247.178 250.204Z" fill="white"/>
<path d="M215.666 246.065L236.842 262.522L247.178 250.204L221.35 226.783M215.666 246.065L221.35 226.783M215.666 246.065L204.377 233.417M221.35 226.783L199.596 214.099M204.377 233.417L178.832 202.38L187.877 202.38L199.596 214.099M204.377 233.417L199.596 214.099" stroke="#121212" stroke-width="4.02"/>
<path d="M244.494 250.363L236.203 260.244L232 257L240.597 246.804L244.494 250.363Z" fill="#2d2d2d">
<animate attributeName="fill" dur="4s" repeatCount="indefinite" keyTimes="0;0.8;1" values="#2d2d2d;red;#2d2d2d" />
</path>
<path d="M256.61 259.3C275.705 263.99 296.14 256.285 300.83 228.145C305.52 200.005 263.31 179.57 284.08 148.75" stroke="white" stroke-width="4.02">
<animate attributeName="stroke" dur="4s" repeatCount="indefinite" keyTimes="0;0.8;1" values="white;transparent;white" />
</path>
<line x1="230.513" y1="255.662" x2="239.513" y2="245.662" stroke="#121212" stroke-width="4"/>
</g></svg>
</g></svg>