<svg xmlns="http://www.w3.org/2000/svg" viewBox="0 0 512 512"><g id="layer1" transform="translate(0, 0)"><svg width="512" height="512" viewBox="0 0 512 512" fill="none" xmlns="http://www.w3.org/2000/svg">
<rect width="512" height="512" fill="#FF9900"/>
<rect x="84" y="340" width="344" height="160" fill="#DA420F"/>
<g>
<animateTransform attributeName="transform" type="translate" dur="0.4s" repeatCount="indefinite" keyTimes="0;0.5;1" values="0 0;0 28;0 0" />
<rect x="196" y="176" width="120" height="296" fill="#F15824"/>
<rect width="120" height="80" transform="matrix(1 0 0 -1 196 176)" fill="#DA420F"/>
<path d="M262 96H250V132H262V96Z" fill="#F15824">
<animate attributeName="fill" values="#F15824; #F15824; #fff; #F15824;#fff; #F15824;#fff; #F15824;#fff; #F15824;#fff; #F15824;#fff; #F15824;#F15824" keyTimes="0; 0.74; 0.76; 0.78;0.8;0.82;0.84;0.86;0.88;0.9;0.92;0.94;0.96;0.98;1" dur="5s" repeatCount="indefinite" />
</path>
</g>
</svg>
</g><g id="layer2" transform="translate(84, 22)"><svg width="344" height="344" viewBox="0 0 344 344" fill="none" xmlns="http://www.w3.org/2000/svg"><g>
<animateTransform attributeName="transform" type="translate" dur="0.4s" repeatCount="indefinite" keyTimes="0;0.5;1" values="0 0;0 28;0 0" />
<path d="M111.22 80.4004H231.82L239.86 69.6804L231.82 48.2404L171.52 32.1604L111.22 48.2404L103.18 69.6804L111.22 80.4004Z" fill="#121212"/>
<rect width="120.6" height="8.04" transform="matrix(1 0 0 -1 111.22 88.4399)" fill="#525252"/>
<path d="M124.619 104.52H245.219L231.819 88.44H111.219L124.619 104.52Z" fill="#121212"/>
<ellipse cx="172.212" cy="43.3447" rx="8.04" ry="4.02" fill="#525252"/>
</g></svg>
</g><g id="layer3" transform="translate(84, 55)"><svg width="344" height="344" viewBox="0 0 344 344" fill="none" xmlns="http://www.w3.org/2000/svg">
<g>
<animateTransform attributeName="transform" type="translate" dur="0.4s" repeatCount="indefinite" keyTimes="0;0.5;1" values="0 0;0 28;0 0" />
<path d="M166 123L178 123" stroke="#121212" stroke-width="4"/>
<path d="M166 123L178 123" stroke="#121212" stroke-width="4"/>
<path d="M178 117H216V155H178V117Z" fill="#FF00B1"/>
<path d="M216 117H178V155H216V117ZM216 117H232" stroke="#121212" stroke-width="4"/>
<path d="M128 117H166V155H128V117Z" fill="#FF00B1"/>
<path d="M128 117H166V155H128V117ZM128 117H112" stroke="#121212" stroke-width="4"/>
<mask id="mask0_112_6" style="mask-type:alpha" maskUnits="userSpaceOnUse" x="130" y="119" width="34" height="34">
<path d="M130 119H164V131V153H130V119Z" fill="#121212"/>
</mask>
<g mask="url(#mask0_112_6)">
<path d="M136 119H143L135 153H127L136 119Z" fill="#FFF">
<animateTransform attributeName="transform" type="translate" dur="4s" repeatCount="indefinite" keyTimes="0;0.8;1" values="-32 0;-32 0;48 0" />
</path>
</g>
<mask id="mask1_112_6" style="mask-type:alpha" maskUnits="userSpaceOnUse" x="180" y="119" width="34" height="34">
<path d="M180 119H214V131V153H180V119Z" fill="#121212"/>
</mask>
<g mask="url(#mask1_112_6)">
<path d="M186 119H193L185 153H177L186 119Z" fill="#FFF">
<animateTransform attributeName="transform" type="translate" dur="4s" repeatCount="indefinite" keyTimes="0;0.8;1" values="-32 0;-32 0;48 0" />
</path>
</g>
</g>
</svg>
</g><g id="layer4" transform="translate(84, 140)"><svg width="344" height="344" viewBox="0 0 344 344" fill="none" xmlns="http://www.w3.org/2000/svg"><g>
<animateTransform attributeName="transform" type="translate" dur="0.4s" repeatCount="indefinite" keyTimes="0;0.5;1" values="0 0;0 28;0 0" />
<path d="M144.8 190.76H198.4L195.72 202.15L193.04 212.87H150.16L147.48 202.15L144.8 190.76Z" fill="white"/>
<path d="M147.48 202.15L150.16 212.87H193.04L195.72 202.15M147.48 202.15L144.8 190.76H198.4L195.72 202.15M147.48 202.15H195.72" stroke="#121212" stroke-width="4.02"/>
<path d="M171.767 269.484C146.81 269.484 133.41 253.404 133.41 253.404L164.793 202.149H178.741L210.125 253.404C210.125 253.404 196.725 269.484 171.767 269.484Z" fill="#FFB74A" stroke="#121212" stroke-width="4.02"/>
<path d="M171.767 269.484C146.81 269.484 133.41 253.404 133.41 253.404L138.538 245.029C138.538 245.029 150.495 257.759 171.767 257.759C191.03 257.759 204.997 245.029 204.997 245.029L210.125 253.404C210.125 253.404 196.725 269.484 171.767 269.484Z" fill="#FF9900" stroke="#121212" stroke-width="4.02"/>
<circle cx="161.55" cy="241.01" r="8.04" fill="#D22D27"/>
<circle cx="172.27" cy="215.55" r="6.7" fill="#D22D27"/>
<circle cx="182.99" cy="235.649" r="6.7" fill="#D22D27"/>
</g></svg>
</g></svg>