<svg xmlns="http://www.w3.org/2000/svg" viewBox="0 0 512 512"><g id="layer1" transform="translate(0, 0)"><svg width="512" height="512" viewBox="0 0 512 512" fill="none" xmlns="http://www.w3.org/2000/svg">
<rect width="512" height="512" fill="#FF9900"/>
<rect x="84" y="340" width="344" height="160" fill="#DA420F"/>
<g>
<animateTransform attributeName="transform" type="translate" dur="0.4s" repeatCount="indefinite" keyTimes="0;0.5;1" values="0 0;0 28;0 0" />
<rect x="196" y="176" width="120" height="296" fill="#F15824"/>
<rect width="120" height="80" transform="matrix(1 0 0 -1 196 176)" fill="#DA420F"/>
<path d="M262 96H250V132H262V96Z" fill="#F15824">
<animate attributeName="fill" values="#F15824; #F15824; #fff; #F15824;#fff; #F15824;#fff; #F15824;#fff; #F15824;#fff; #F15824;#fff; #F15824;#F15824" keyTimes="0; 0.74; 0.76; 0.78;0.8;0.82;0.84;0.86;0.88;0.9;0.92;0.94;0.96;0.98;1" dur="5s" repeatCount="indefinite" />
</path>
</g>
</svg>
</g><g id="layer2" transform="translate(84, 22)"><svg width="344" height="344" viewBox="0 0 344 344" fill="none" xmlns="http://www.w3.org/2000/svg"><g>
<animateTransform attributeName="transform" type="translate" dur="0.4s" repeatCount="indefinite" keyTimes="0;0.5;1" values="0 0;0 28;0 0" />
<path d="M111.22 71.0195H231.82V71.0195C231.82 37.7168 204.823 10.7195 171.52 10.7195V10.7195C138.217 10.7195 111.22 37.7168 111.22 71.0195V71.0195Z" fill="#D22D27"/>
<path d="M45.5601 108.54H297.48L308.2 71.0195H34.8401L45.5601 108.54Z" fill="#FFB74A"/>
<path d="M88.4401 108.54L74.6214 81.7397L61.6401 108.54H88.4401Z" fill="#D22D27"/>
<path d="M136.68 108.54L122.861 81.7397L109.88 108.54H136.68Z" fill="#D22D27"/>
<path d="M184.92 108.54L171.101 81.7397L158.12 108.54H184.92Z" fill="#D22D27"/>
<path d="M233.16 108.54L219.341 81.7397L206.36 108.54H233.16Z" fill="#D22D27"/>
<path d="M281.4 108.54L267.581 81.7397L254.6 108.54H281.4Z" fill="#D22D27"/>
</g></svg>
</g><g id="layer3" transform="translate(84, 55)"><svg width="344" height="344" viewBox="0 0 344 344" fill="none" xmlns="http://www.w3.org/2000/svg">
<g>
<animateTransform attributeName="transform" type="translate" dur="0.4s" repeatCount="indefinite" keyTimes="0;0.5;1" values="0 0;0 28;0 0" />
<path d="M112 119.26H162.667L168 124.62L157.333 154.77L112 141.37V119.26Z" fill="#121212"/>
<path d="M232 119.26H181.333L176 124.62L186.667 154.77L232 141.37V119.26Z" fill="#121212"/>
<rect x="162.666" y="119.26" width="18.6667" height="8.04" fill="#121212"/>
<mask id="mask0_134_606" style="mask-type:alpha" maskUnits="userSpaceOnUse" x="115" y="125" width="50" height="26">
<path d="M115 125H164.5L160.5 135.5L155.5 150.5L115 139V125Z" fill="#121212"/>
</mask>
<g mask="url(#mask0_134_606)">
<path d="M122.727 123H130L121.273 158H114L122.727 123Z" fill="#D9D9D9">
<animateTransform attributeName="transform" type="translate" dur="4s" repeatCount="indefinite" keyTimes="0;0.8;1" values="-32 0;-32 0;48 0" />
</path>
</g>
<mask id="mask1_134_606" style="mask-type:alpha" maskUnits="userSpaceOnUse" x="179" y="125" width="51" height="26">
<path d="M229.002 125H179.502L183.502 135.5L188.502 150.5L229.002 139V125Z" fill="#121212"/>
</mask>
<g mask="url(#mask1_134_606)">
<path d="M224.275 124H217.002L225.729 159H233.002L224.275 124Z" fill="#D9D9D9">
<animateTransform attributeName="transform" type="translate" dur="4s" repeatCount="indefinite" keyTimes="0;0.8;1" values="-48 0;-48 0;48 0" />
</path>
</g>
</g>
</svg>
</g><g id="layer4" transform="translate(84, 140)"><svg width="344" height="344" viewBox="0 0 344 344" fill="none" xmlns="http://www.w3.org/2000/svg"><g>
<animateTransform attributeName="transform" type="translate" dur="0.4s" repeatCount="indefinite" keyTimes="0;0.5;1" values="0 0;0 28;0 0" />
<path d="M155.097 202.82H188.12" stroke="#121212" stroke-width="4.02"/>
<g>
<animateTransform attributeName="transform" type="translate" dur="4s" repeatCount="indefinite" keyTimes="0;0.5;1" values="0 0;-80 -100;0 0" />
<path d="M252.44 202.82C252.44 222.431 236.542 238.33 216.93 238.33C197.318 238.33 182.425 207.51 172.04 202.82C182.76 198.13 197.318 167.31 216.93 167.31C236.542 167.31 252.44 183.208 252.44 202.82Z" fill="#FF008A" fill-opacity="0.8" stroke="#121212" stroke-width="4.02">
<animateTransform attributeName="transform" type="scale" dur="4s" repeatCount="indefinite" keyTimes="0;0.5;1" values="1;1.5;1" />
</path>
</g>
</g></svg>
</g></svg>