<svg xmlns="http://www.w3.org/2000/svg" viewBox="0 0 512 512"><g id="layer1" transform="translate(0, 0)"><svg width="512" height="512" viewBox="0 0 512 512" fill="none" xmlns="http://www.w3.org/2000/svg">
<rect width="512" height="512" fill="#FF9900"/>
<rect x="84" y="340" width="344" height="160" fill="#DA420F"/>
<g>
<animateTransform attributeName="transform" type="translate" dur="0.4s" repeatCount="indefinite" keyTimes="0;0.5;1" values="0 0;0 28;0 0" />
<rect x="196" y="176" width="120" height="296" fill="#F15824"/>
<rect width="120" height="80" transform="matrix(1 0 0 -1 196 176)" fill="#DA420F"/>
<path d="M262 96H250V132H262V96Z" fill="#F15824">
<animate attributeName="fill" values="#F15824; #F15824; #fff; #F15824;#fff; #F15824;#fff; #F15824;#fff; #F15824;#fff; #F15824;#fff; #F15824;#F15824" keyTimes="0; 0.74; 0.76; 0.78;0.8;0.82;0.84;0.86;0.88;0.9;0.92;0.94;0.96;0.98;1" dur="5s" repeatCount="indefinite" />
</path>
</g>
</svg>
</g><g id="layer2" transform="translate(84, 22)"><svg width="344" height="344" viewBox="0 0 344 344" fill="none" xmlns="http://www.w3.org/2000/svg"><g>
<animateTransform attributeName="transform" type="translate" dur="0.4s" repeatCount="indefinite" keyTimes="0;0.5;1" values="0 0;0 28;0 0" />
<path d="M111.22 71.0202L147.065 48.9102V71.0202L193.295 48.9102V71.0202L231.82 48.9102V71.0202V103.18L111.22 103.18V71.0202Z" fill="#121212"/>
<rect x="111.22" y="103.18" width="8.04" height="26.8" fill="#121212"/>
<rect x="223.78" y="103.18" width="8.04" height="26.8" fill="#121212"/>
<rect x="111.22" y="81.7402" width="120.6" height="21.44" fill="#00B2FE"/>
</g></svg>
</g><g id="layer3" transform="translate(84, 55)"><svg width="344" height="344" viewBox="0 0 344 344" fill="none" xmlns="http://www.w3.org/2000/svg">
<g>
<animateTransform attributeName="transform" type="translate" dur="0.4s" repeatCount="indefinite" keyTimes="0;0.5;1" values="0 0;0 28;0 0" />
<path d="M145 97.6879C105.4 99.6879 99 123.688 101 144.688C112.5 191.188 153.5 175.188 160 166.188C163.611 161.188 167.5 157.188 173 157.188C178.5 157.188 181.5 162.188 184.5 166.188C200.5 182.688 240 181.188 244 144.688C247.2 115.488 228.333 102.855 218.5 100.188C210.5 98.5212 184.6 95.6879 145 97.6879Z" fill="#121212"/>
<path d="M117.42 135.174C117.42 125.25 124.19 116.619 133.981 115.002C144.273 113.303 158.203 111.578 172.36 111.578C186.517 111.578 200.447 113.303 210.739 115.002C220.53 116.619 227.3 125.25 227.3 135.174C227.3 145.04 220.606 153.805 210.784 154.743C202.659 155.519 193.501 155.369 188.231 151.942C183.112 148.612 178.473 140.94 172.36 140.94C166.247 140.94 161.609 148.612 156.489 151.942C151.219 155.369 142.061 155.519 133.936 154.743C124.115 153.805 117.42 145.04 117.42 135.174Z" fill="#0732A0">
<animate attributeName="fill" dur="4s" repeatCount="indefinite" keyTimes="0;0.25;0.5;0.75;1" values="#0732A0;#9129E3;#4378FF;#0732A0;#0732A0" />
</path>
</g>
</svg>
</g><g id="layer4" transform="translate(84, 140)"><svg width="344" height="344" viewBox="0 0 344 344" fill="none" xmlns="http://www.w3.org/2000/svg"><g>
<animateTransform attributeName="transform" type="translate" dur="0.4s" repeatCount="indefinite" keyTimes="0;0.5;1" values="0 0;0 28;0 0" />
<path d="M155.097 202.82H188.12" stroke="#121212" stroke-width="4.02"/>
<g>
<animateTransform attributeName="transform" type="translate" dur="4s" repeatCount="indefinite" keyTimes="0;0.5;1" values="0 0;-80 -100;0 0" />
<path d="M252.44 202.82C252.44 222.431 236.542 238.33 216.93 238.33C197.318 238.33 182.425 207.51 172.04 202.82C182.76 198.13 197.318 167.31 216.93 167.31C236.542 167.31 252.44 183.208 252.44 202.82Z" fill="#FF008A" fill-opacity="0.8" stroke="#121212" stroke-width="4.02">
<animateTransform attributeName="transform" type="scale" dur="4s" repeatCount="indefinite" keyTimes="0;0.5;1" values="1;1.5;1" />
</path>
</g>
</g></svg>
</g></svg>