<svg xmlns="http://www.w3.org/2000/svg" viewBox="0 0 512 512"><g id="layer1" transform="translate(0, 0)"><svg width="512" height="512" viewBox="0 0 512 512" fill="none" xmlns="http://www.w3.org/2000/svg">
<g clip-path="url(#clip0_75_1357)">
<path d="M512 0H0V512H512V0Z" fill="#FF9900"/>
<path d="M428 340H84V500H428V340Z" fill="#DA420F"/>
<path d="M125 340H109L117 364L125 340Z" fill="#1D1D1D"/>
<path d="M170 340H154L162 372L170 340Z" fill="#1D1D1D"/>
<path d="M108 400L84 392V408L108 400Z" fill="#1D1D1D"/>
<path d="M404 400L428 392V408L404 400Z" fill="#1D1D1D"/>
<path d="M116 432L84 424V440L116 432Z" fill="#1D1D1D"/>
<path d="M396 432L428 424V440L396 432Z" fill="#1D1D1D"/>
<path d="M132 464L84 456V472L132 464Z" fill="#1D1D1D"/>
<path d="M380 464L428 456V472L380 464Z" fill="#1D1D1D"/>
<path d="M387 340H403L395 364L387 340Z" fill="#1D1D1D"/>
<path d="M342 340H358L350 372L342 340Z" fill="#1D1D1D"/>
<g>
<animateTransform attributeName="transform" type="translate" dur="0.4s" repeatCount="indefinite" keyTimes="0;0.5;1" values="0 0;0 28;0 0" />
<path d="M316 176H196V472H316V176Z" fill="#F15824"/>
<path d="M220 276L196 268V284L220 276Z" fill="#1D1D1D"/>
<path d="M220 244L196 236V252L220 244Z" fill="#1D1D1D"/>
<path d="M292 276L316 268V284L292 276Z" fill="#1D1D1D"/>
<path d="M292 244L316 236V252L292 244Z" fill="#1D1D1D"/>
<path d="M228 308L196 300V316L228 308Z" fill="#1D1D1D"/>
<path d="M284 308L316 300V316L284 308Z" fill="#1D1D1D"/>
<path d="M316 176H196V96H316V176Z" fill="#DA420F"/>
<path d="M262 96H250V132H262V96Z" fill="#F15824">
<animate attributeName="fill" values="#F15824; #F15824; #fff; #F15824;#fff; #F15824;#fff; #F15824;#fff; #F15824;#fff; #F15824;#fff; #F15824;#F15824" keyTimes="0; 0.74; 0.76; 0.78;0.8;0.82;0.84;0.86;0.88;0.9;0.92;0.94;0.96;0.98;1" dur="5s" repeatCount="indefinite" />
</path>
</g>
</g>
<defs>
<clipPath id="clip0_75_1357">
<rect width="512" height="512" fill="white"/>
</clipPath>
</defs>
</svg>
</g><g id="layer2" transform="translate(84, 22)"><svg width="344" height="344" viewBox="0 0 344 344" fill="none" xmlns="http://www.w3.org/2000/svg"><g>
<animateTransform attributeName="transform" type="translate" dur="0.4s" repeatCount="indefinite" keyTimes="0;0.5;1" values="0 0;0 28;0 0" />
<circle cx="171.52" cy="71.0197" r="26.8" fill="#121212"/>
<path d="M111.22 71.0195H231.82V119.26L217.75 92.4595L171.52 105.86L125.29 92.4595L111.22 119.26V71.0195Z" fill="#121212"/>
</g></svg>
</g><g id="layer3" transform="translate(84, 55)"><svg width="344" height="344" viewBox="0 0 344 344" fill="none" xmlns="http://www.w3.org/2000/svg">
<g>
<animateTransform attributeName="transform" type="translate" dur="0.4s" repeatCount="indefinite" keyTimes="0;0.5;1" values="0 0;0 28;0 0" />
<path d="M111.7 119.26H232.3V154.1L186.07 156.78L172 146.06L157.93 156.78L111.7 154.1V119.26Z" fill="#121212"/>
<rect x="122.42" y="129.979" width="99.16" height="13.4" fill="#6C0400">
<animate attributeName="fill" dur="8s" repeatCount="indefinite" keyTimes="0;0.05;0.075;0.1;0.12;0.15;0.5;0.55;1" values="#6C0400;#FF0900;#6C0400;#FF0900;#6C0400;#FF0900;#FF0900;#6C0400;#6C0400" />
</rect>
</g>
</svg>
</g><g id="layer4" transform="translate(84, 140)"><svg width="344" height="344" viewBox="0 0 344 344" fill="none" xmlns="http://www.w3.org/2000/svg"><g>
<animateTransform attributeName="transform" type="translate" dur="0.4s" repeatCount="indefinite" keyTimes="0;0.5;1" values="0 0;0 28;0 0" />
<path d="M155.206 202.82H188.23L196 194.78" stroke="#121212" stroke-width="4.02"/>
</g></svg>
</g></svg>