<svg xmlns="http://www.w3.org/2000/svg" viewBox="0 0 512 512"><g id="layer1" transform="translate(0, 0)"><svg width="512" height="512" viewBox="0 0 512 512" fill="none" xmlns="http://www.w3.org/2000/svg">
<g clip-path="url(#clip0_75_1445)">
<path d="M512 0H0V512H512V0Z" fill="#FF9900"/>
<path d="M428 340H84V500H428V340Z" fill="#56C399"/>
<g>
<animateTransform attributeName="transform" type="translate" dur="0.4s" repeatCount="indefinite" keyTimes="0;0.5;1" values="0 0;0 28;0 0" />
<path d="M316 176H196V472H316V176Z" fill="#82DCB9"/>
<path d="M264 403.5L316 415.5V425L264 403.5Z" fill="#D22D27"/>
<path d="M287.387 402.69L283.762 401L277 415.501L280.625 417.191L287.387 402.69Z" fill="white"/>
<path d="M305.004 409.035L301.141 408L297 423.455L300.863 424.49L305.004 409.035Z" fill="white"/>
<path d="M196 300L316 284V288L196 304V300Z" fill="#56C399"/>
<path d="M215.985 292L212 292.349L213.394 308.288L217.379 307.939L215.985 292Z" fill="white"/>
<path d="M243.985 288L240 288.349L241.394 304.288L245.379 303.939L243.985 288Z" fill="white"/>
<path d="M271.985 284L268 284.349L269.394 300.288L273.379 299.939L271.985 284Z" fill="white"/>
<path d="M299.985 280L296 280.349L297.394 296.288L301.379 295.939L299.985 280Z" fill="white"/>
<path d="M316 176H196V96H316V176Z" fill="#56C399"/>
<path d="M262 96H250V132H262V96Z" fill="#82DCB9">
<animate attributeName="fill" values="#82DCB9; #82DCB9; #fff; #82DCB9;#fff; #82DCB9;#fff; #82DCB9;#fff; #82DCB9;#fff; #82DCB9;#fff; #82DCB9;#82DCB9" keyTimes="0; 0.74; 0.76; 0.78;0.8;0.82;0.84;0.86;0.88;0.9;0.92;0.94;0.96;0.98;1" dur="5s" repeatCount="indefinite" />
</path>
</g>
</g>
<defs>
<clipPath id="clip0_75_1445">
<rect width="512" height="512" fill="white"/>
</clipPath>
</defs>
</svg>
</g><g id="layer2" transform="translate(84, 22)"><svg width="344" height="344" viewBox="0 0 344 344" fill="none" xmlns="http://www.w3.org/2000/svg"><g>
<animateTransform attributeName="transform" type="translate" dur="0.4s" repeatCount="indefinite" keyTimes="0;0.5;1" values="0 0;0 28;0 0" />
<circle cx="88.5" cy="193.5" r="23.5" fill="#121212"/>
<circle cx="89.5" cy="152.5" r="22.5" fill="#121212"/>
<circle cx="92" cy="115" r="20" fill="#121212"/>
<circle cx="255.5" cy="193.5" r="23.5" fill="#121212"/>
<circle cx="254.5" cy="152.5" r="22.5" fill="#121212"/>
<circle cx="252" cy="115" r="20" fill="#121212"/>
<circle cx="112" cy="75" r="29" fill="#121212"/>
<circle cx="230" cy="75" r="29" fill="#121212"/>
<circle cx="172" cy="63" r="41" fill="#121212"/>
<rect x="87" y="102" width="25" height="115" fill="#121212"/>
<rect x="232" y="102" width="25" height="115" fill="#121212"/>
</g></svg>
</g><g id="layer3" transform="translate(256, 227)"><svg></svg></g><g id="layer4" transform="translate(84, 140)"><svg width="344" height="344" viewBox="0 0 344 344" fill="none" xmlns="http://www.w3.org/2000/svg"><g>
<animateTransform attributeName="transform" type="translate" dur="0.4s" repeatCount="indefinite" keyTimes="0;0.5;1" values="0 0;0 28;0 0" />
<path d="M155.206 202.82H188.23L196 194.78" stroke="#121212" stroke-width="4.02"/>
</g></svg>
</g></svg>