<svg xmlns="http://www.w3.org/2000/svg" viewBox="0 0 512 512"><g id="layer1" transform="translate(0, 0)"><svg width="512" height="512" viewBox="0 0 512 512" fill="none" xmlns="http://www.w3.org/2000/svg">
<g clip-path="url(#clip0_75_1445)">
<path d="M512 0H0V512H512V0Z" fill="#FF9900"/>
<path d="M428 340H84V500H428V340Z" fill="#56C399"/>
<g>
<animateTransform attributeName="transform" type="translate" dur="0.4s" repeatCount="indefinite" keyTimes="0;0.5;1" values="0 0;0 28;0 0" />
<path d="M316 176H196V472H316V176Z" fill="#82DCB9"/>
<path d="M264 403.5L316 415.5V425L264 403.5Z" fill="#D22D27"/>
<path d="M287.387 402.69L283.762 401L277 415.501L280.625 417.191L287.387 402.69Z" fill="white"/>
<path d="M305.004 409.035L301.141 408L297 423.455L300.863 424.49L305.004 409.035Z" fill="white"/>
<path d="M196 300L316 284V288L196 304V300Z" fill="#56C399"/>
<path d="M215.985 292L212 292.349L213.394 308.288L217.379 307.939L215.985 292Z" fill="white"/>
<path d="M243.985 288L240 288.349L241.394 304.288L245.379 303.939L243.985 288Z" fill="white"/>
<path d="M271.985 284L268 284.349L269.394 300.288L273.379 299.939L271.985 284Z" fill="white"/>
<path d="M299.985 280L296 280.349L297.394 296.288L301.379 295.939L299.985 280Z" fill="white"/>
<path d="M316 176H196V96H316V176Z" fill="#56C399"/>
<path d="M262 96H250V132H262V96Z" fill="#82DCB9">
<animate attributeName="fill" values="#82DCB9; #82DCB9; #fff; #82DCB9;#fff; #82DCB9;#fff; #82DCB9;#fff; #82DCB9;#fff; #82DCB9;#fff; #82DCB9;#82DCB9" keyTimes="0; 0.74; 0.76; 0.78;0.8;0.82;0.84;0.86;0.88;0.9;0.92;0.94;0.96;0.98;1" dur="5s" repeatCount="indefinite" />
</path>
</g>
</g>
<defs>
<clipPath id="clip0_75_1445">
<rect width="512" height="512" fill="white"/>
</clipPath>
</defs>
</svg>
</g><g id="layer2" transform="translate(84, 22)"><svg width="344" height="344" viewBox="0 0 344 344" fill="none" xmlns="http://www.w3.org/2000/svg"><g>
<animateTransform attributeName="transform" type="translate" dur="0.4s" repeatCount="indefinite" keyTimes="0;0.5;1" values="0 0;0 28;0 0" />
<rect x="223.78" y="103.18" width="8.04" height="34.84" fill="#121212"/>
<rect x="111.22" y="103.18" width="8.04" height="34.84" fill="#121212"/>
<path d="M111.22 38.8306L231.82 68.3399V103.18H111.22V38.8306Z" fill="#121212"/>
</g></svg>
</g><g id="layer3" transform="translate(84, 55)"><svg width="344" height="344" viewBox="0 0 344 344" fill="none" xmlns="http://www.w3.org/2000/svg">
<g>
<animateTransform attributeName="transform" type="translate" dur="0.4s" repeatCount="indefinite" keyTimes="0;0.5;1" values="0 0;0 28;0 0" />
<path d="M145 97.6879C105.4 99.6879 99 123.688 101 144.688C112.5 191.188 153.5 175.188 160 166.188C163.611 161.188 167.5 157.188 173 157.188C178.5 157.188 181.5 162.188 184.5 166.188C200.5 182.688 240 181.188 244 144.688C247.2 115.488 228.333 102.855 218.5 100.188C210.5 98.5212 184.6 95.6879 145 97.6879Z" fill="#121212"/>
<path d="M117.42 135.174C117.42 125.25 124.19 116.619 133.981 115.002C144.273 113.303 158.203 111.578 172.36 111.578C186.517 111.578 200.447 113.303 210.739 115.002C220.53 116.619 227.3 125.25 227.3 135.174C227.3 145.04 220.606 153.805 210.784 154.743C202.659 155.519 193.501 155.369 188.231 151.942C183.112 148.612 178.473 140.94 172.36 140.94C166.247 140.94 161.609 148.612 156.489 151.942C151.219 155.369 142.061 155.519 133.936 154.743C124.115 153.805 117.42 145.04 117.42 135.174Z" fill="#0732A0">
<animate attributeName="fill" dur="4s" repeatCount="indefinite" keyTimes="0;0.25;0.5;0.75;1" values="#0732A0;#9129E3;#4378FF;#0732A0;#0732A0" />
</path>
</g>
</svg>
</g><g id="layer4" transform="translate(84, 140)"><svg width="344" height="344" viewBox="0 0 344 344" fill="none" xmlns="http://www.w3.org/2000/svg"><g>
<animateTransform attributeName="transform" type="translate" dur="0.4s" repeatCount="indefinite" keyTimes="0;0.5;1" values="0 0;0 28;0 0" />
<path d="M154.577 202.34H187.6" stroke="#121212" stroke-width="4.02"/>
<rect width="10.72" height="10.72" transform="matrix(1 0 0 -1 174.87 213.059)" fill="#2D2D2D" stroke="#121212" stroke-width="4.02"/>
<rect width="16.08" height="42.88" transform="matrix(1 0 0 -1 172.19 255.938)" fill="#2D2D2D" stroke="#121212" stroke-width="4.02"/>
<rect width="16.08" height="8.04" transform="matrix(1 0 0 -1 172.19 221.099)" fill="white" stroke="#121212" stroke-width="4.02"/>
<rect width="5.36" height="5.36" transform="matrix(1 0 0 -1 177.55 234.798)" fill="#6C0400">
<animate attributeName="fill" dur="4s" repeatCount="indefinite" keyTimes="0;0.8;1" values="#6C0400;#FF0900;#6C0400" />
</rect>
</g></svg>
</g></svg>