<svg xmlns="http://www.w3.org/2000/svg" viewBox="0 0 512 512"><g id="layer1" transform="translate(0, 0)"><svg width="512" height="512" viewBox="0 0 512 512" fill="none" xmlns="http://www.w3.org/2000/svg">
<g clip-path="url(#clip0_75_1445)">
<path d="M512 0H0V512H512V0Z" fill="#FF9900"/>
<path d="M428 340H84V500H428V340Z" fill="#56C399"/>
<g>
<animateTransform attributeName="transform" type="translate" dur="0.4s" repeatCount="indefinite" keyTimes="0;0.5;1" values="0 0;0 28;0 0" />
<path d="M316 176H196V472H316V176Z" fill="#82DCB9"/>
<path d="M264 403.5L316 415.5V425L264 403.5Z" fill="#D22D27"/>
<path d="M287.387 402.69L283.762 401L277 415.501L280.625 417.191L287.387 402.69Z" fill="white"/>
<path d="M305.004 409.035L301.141 408L297 423.455L300.863 424.49L305.004 409.035Z" fill="white"/>
<path d="M196 300L316 284V288L196 304V300Z" fill="#56C399"/>
<path d="M215.985 292L212 292.349L213.394 308.288L217.379 307.939L215.985 292Z" fill="white"/>
<path d="M243.985 288L240 288.349L241.394 304.288L245.379 303.939L243.985 288Z" fill="white"/>
<path d="M271.985 284L268 284.349L269.394 300.288L273.379 299.939L271.985 284Z" fill="white"/>
<path d="M299.985 280L296 280.349L297.394 296.288L301.379 295.939L299.985 280Z" fill="white"/>
<path d="M316 176H196V96H316V176Z" fill="#56C399"/>
<path d="M262 96H250V132H262V96Z" fill="#82DCB9">
<animate attributeName="fill" values="#82DCB9; #82DCB9; #fff; #82DCB9;#fff; #82DCB9;#fff; #82DCB9;#fff; #82DCB9;#fff; #82DCB9;#fff; #82DCB9;#82DCB9" keyTimes="0; 0.74; 0.76; 0.78;0.8;0.82;0.84;0.86;0.88;0.9;0.92;0.94;0.96;0.98;1" dur="5s" repeatCount="indefinite" />
</path>
</g>
</g>
<defs>
<clipPath id="clip0_75_1445">
<rect width="512" height="512" fill="white"/>
</clipPath>
</defs>
</svg>
</g><g id="layer2" transform="translate(84, 22)"><svg width="344" height="344" viewBox="0 0 344 344" fill="none" xmlns="http://www.w3.org/2000/svg"><g>
<animateTransform attributeName="transform" type="translate" dur="0.4s" repeatCount="indefinite" keyTimes="0;0.5;1" values="0 0;0 28;0 0" />
<path d="M111.22 71.0195H231.82V71.0195C231.82 37.7168 204.823 10.7195 171.52 10.7195V10.7195C138.217 10.7195 111.22 37.7168 111.22 71.0195V71.0195Z" fill="#D22D27"/>
<path d="M45.5601 108.54H297.48L308.2 71.0195H34.8401L45.5601 108.54Z" fill="#FFB74A"/>
<path d="M88.4401 108.54L74.6214 81.7397L61.6401 108.54H88.4401Z" fill="#D22D27"/>
<path d="M136.68 108.54L122.861 81.7397L109.88 108.54H136.68Z" fill="#D22D27"/>
<path d="M184.92 108.54L171.101 81.7397L158.12 108.54H184.92Z" fill="#D22D27"/>
<path d="M233.16 108.54L219.341 81.7397L206.36 108.54H233.16Z" fill="#D22D27"/>
<path d="M281.4 108.54L267.581 81.7397L254.6 108.54H281.4Z" fill="#D22D27"/>
</g></svg>
</g><g id="layer3" transform="translate(84, 55)"><svg width="344" height="344" viewBox="0 0 344 344" fill="none" xmlns="http://www.w3.org/2000/svg">
<g>
<animateTransform attributeName="transform" type="translate" dur="0.4s" repeatCount="indefinite" keyTimes="0;0.5;1" values="0 0;0 28;0 0" />
<path d="M166 123L178 123" stroke="#000" stroke-width="4"/>
<path d="M166 123L178 123" stroke="#000" stroke-width="4"/>
<path d="M178 117H216V155H178V117Z" fill="#FF0000"/>
<path d="M216 117H178V155H216V117ZM216 117H232" stroke="#000" stroke-width="4"/>
<path d="M128 117H166V155H128V117Z" fill="#0075FF"/>
<path d="M128 117H166V155H128V117ZM128 117H112" stroke="#000" stroke-width="4"/>
<mask id="mask0_112_6" style="mask-type:alpha" maskUnits="userSpaceOnUse" x="130" y="119" width="34" height="34">
<path d="M130 119H164V131V153H130V119Z" fill="#FF0000"/>
</mask>
<g mask="url(#mask0_112_6)">
<path d="M136 119H143L135 153H127L136 119Z" fill="#FFF">
<animateTransform attributeName="transform" type="translate" dur="4s" repeatCount="indefinite" keyTimes="0;0.8;1" values="-32 0;-32 0;48 0" />
</path>
</g>
<mask id="mask1_112_6" style="mask-type:alpha" maskUnits="userSpaceOnUse" x="180" y="119" width="34" height="34">
<path d="M180 119H214V131V153H180V119Z" fill="#0075FF"/>
</mask>
<g mask="url(#mask1_112_6)">
<path d="M186 119H193L185 153H177L186 119Z" fill="#FFF">
<animateTransform attributeName="transform" type="translate" dur="4s" repeatCount="indefinite" keyTimes="0;0.8;1" values="-32 0;-32 0;48 0" />
</path>
</g>
</g>
</svg></g><g id="layer4" transform="translate(84, 140)"><svg width="344" height="344" viewBox="0 0 344 344" fill="none" xmlns="http://www.w3.org/2000/svg"><g>
<animateTransform attributeName="transform" type="translate" dur="0.4s" repeatCount="indefinite" keyTimes="0;0.5;1" values="0 0;0 28;0 0" />
<rect x="160.1" y="189.42" width="24.12" height="24.12" rx="12.06" fill="white"/>
</g></svg>
</g></svg>