<svg width="512" height="512" viewBox="0 0 512 512" fill="none" xmlns="http://www.w3.org/2000/svg">
<g clip-path="url(#clip0_1688_5877)">
<path d="M170 186C170 184.615 169.052 183.411 167.707 183.084L152.75 179.459C142.169 176.894 132.466 186.1 134.473 196.801L141.216 232.764C142.546 239.859 148.741 245 155.959 245H167C168.657 245 170 243.657 170 242V186Z" fill="#FFC7A8" stroke="#121212" stroke-width="6" stroke-linecap="round" stroke-linejoin="round"/>
<path d="M342 186C342 184.615 342.948 183.411 344.293 183.084L359.25 179.459C369.831 176.894 379.534 186.1 377.527 196.801L370.784 232.764C369.454 239.859 363.259 245 356.041 245H345C343.343 245 342 243.657 342 242V186Z" fill="#FFC7A8" stroke="#121212" stroke-width="6" stroke-linecap="round" stroke-linejoin="round"/>
<mask id="path-3-outside-1_1688_5877" maskUnits="userSpaceOnUse" x="26" y="324" width="460" height="194" fill="black">
<rect fill="white" x="26" y="324" width="460" height="194"/>
<path fill-rule="evenodd" clip-rule="evenodd" d="M305 330H207V400H160.551C114.08 400 90.8442 400 73.7348 412.906C56.6253 425.811 50.2421 448.153 37.4755 492.836L32 512H480L474.524 492.836C461.758 448.153 455.375 425.811 438.265 412.906C421.156 400 397.92 400 351.449 400H305V330Z"/>
</mask>
<path fill-rule="evenodd" clip-rule="evenodd" d="M305 330H207V400H160.551C114.08 400 90.8442 400 73.7348 412.906C56.6253 425.811 50.2421 448.153 37.4755 492.836L32 512H480L474.524 492.836C461.758 448.153 455.375 425.811 438.265 412.906C421.156 400 397.92 400 351.449 400H305V330Z" fill="#FFC7A8"/>
<path d="M207 330V324C203.686 324 201 326.686 201 330H207ZM305 330H311C311 326.686 308.314 324 305 324V330ZM207 400V406C210.314 406 213 403.314 213 400H207ZM73.7348 412.906L77.348 417.696L73.7348 412.906ZM37.4755 492.836L31.7064 491.187H31.7064L37.4755 492.836ZM32 512L26.2309 510.352C25.7136 512.162 26.0761 514.11 27.2099 515.613C28.3437 517.116 30.1173 518 32 518V512ZM480 512V518C481.883 518 483.656 517.116 484.79 515.613C485.924 514.11 486.286 512.162 485.769 510.352L480 512ZM474.524 492.836L468.755 494.484L474.524 492.836ZM438.265 412.906L441.878 408.116H441.878L438.265 412.906ZM305 400H299C299 403.314 301.686 406 305 406V400ZM207 336H305V324H207V336ZM213 400V330H201V400H213ZM160.551 406H207V394H160.551V406ZM77.348 417.696C84.7403 412.12 93.6618 409.117 106.831 407.572C120.157 406.01 137.172 406 160.551 406V394C137.458 394 119.62 393.99 105.433 395.654C91.0896 397.336 79.8387 400.786 70.1216 408.116L77.348 417.696ZM43.2447 494.484C49.6671 472.005 54.3507 455.648 59.5144 443.263C64.6172 431.025 69.9556 423.272 77.348 417.696L70.1216 408.116C60.4045 415.445 53.9965 425.316 48.4387 438.645C42.9418 451.829 38.0504 468.983 31.7064 491.187L43.2447 494.484ZM37.7691 513.648L43.2447 494.484L31.7064 491.187L26.2309 510.352L37.7691 513.648ZM480 506H32V518H480V506ZM468.755 494.484L474.231 513.648L485.769 510.352L480.294 491.187L468.755 494.484ZM434.652 417.696C442.044 423.272 447.383 431.025 452.486 443.263C457.649 455.648 462.333 472.005 468.755 494.484L480.294 491.187C473.95 468.983 469.058 451.829 463.561 438.645C458.003 425.316 451.595 415.445 441.878 408.116L434.652 417.696ZM351.449 406C374.828 406 391.843 406.01 405.169 407.572C418.338 409.117 427.26 412.12 434.652 417.696L441.878 408.116C432.161 400.786 420.91 397.336 406.567 395.654C392.38 393.99 374.542 394 351.449 394V406ZM305 406H351.449V394H305V406ZM299 330V400H311V330H299Z" fill="#121212" mask="url(#path-3-outside-1_1688_5877)"/>
<path d="M256 87C204.638 87 163 128.638 163 180V267.868L163 268.389C163 279.226 162.999 285.272 164.563 290.912C165.824 295.462 167.826 299.772 170.488 303.671C173.789 308.504 178.408 312.405 186.688 319.397L187.086 319.733L187.187 319.818C199.277 330.027 208.482 337.8 216.376 343.473C224.324 349.186 231.123 352.906 238.451 354.894C249.942 358.013 262.058 358.013 273.549 354.894C280.877 352.906 287.676 349.186 295.624 343.473C303.518 337.8 312.723 330.027 324.812 319.818L324.914 319.733L325.312 319.396C333.592 312.405 338.212 308.504 341.512 303.671C344.174 299.772 346.176 295.462 347.437 290.912C349.001 285.272 349 279.226 349 268.389V267.868V180C349 128.638 307.362 87 256 87Z" fill="#FFC7A8" stroke="#121212" stroke-width="6" stroke-linecap="round" stroke-linejoin="round"/>
<path d="M256 218L263.515 248.06C264.777 253.109 260.958 258 255.754 258H246" stroke="#121212" stroke-width="6" stroke-linecap="round" stroke-linejoin="round"/>
</g>
<defs>
<clipPath id="clip0_1688_5877">
<rect width="512" height="512" fill="white"/>
</clipPath>
</defs>
</svg>
