<svg xmlns="http://www.w3.org/2000/svg" viewBox="0 0 500 500"><g id="layer1"><svg width="512" height="512" viewBox="0 0 512 512" fill="none" xmlns="http://www.w3.org/2000/svg">
<rect width="512" height="512" fill="#FF9900"/>
<path d="M134 178H167V242H146L134 178Z" fill="#E24713"/>
<path d="M378 178H345V242H366L378 178Z" fill="#E24713"/>
<rect x="207" y="346" width="98" height="54" fill="#E24713"/>
<path d="M64 400H448L480 512H32L64 400Z" fill="#F15824"/>
<rect x="166" y="106" width="180" height="240" fill="#F15824"/>
</svg>
</g><g id="layer2"><svg width="512" height="512" viewBox="0 0 512 512" fill="none" xmlns="http://www.w3.org/2000/svg">
<path d="M134 178H166V242H146L134 178Z" fill="#B7009A"/>
<path d="M378 178H346V242H366L378 178Z" fill="#B7009A"/>
<path d="M64 400H448L480 512H32L64 400Z" fill="#D800B5"/>
<rect x="207" y="346" width="98" height="54" fill="#B7009A"/>
<rect x="166" y="106" width="180" height="240" fill="#D800B5"/>
<path d="M256 218L266 258H246" stroke="#121212" stroke-width="6"/>
<path d="M256 186L243.839 158L256 130L268.161 158L256 186Z" fill="white"/>
<path d="M256 444L268.161 472L256 500L243.839 472L256 444Z" fill="white"/>
<path d="M292 484L320 471.839L348 484L320 496.161L292 484Z" fill="white"/>
<path d="M164 484L192 471.839L220 484L192 496.161L164 484Z" fill="white"/>
<path d="M132 484L104 496.161L76 484L104 471.839L132 484Z" fill="white"/>
<path d="M436 484L408 496.161L380 484L408 471.839L436 484Z" fill="white"/>
<path d="M229.936 449.061L200.025 442.962L184.064 416.94L213.975 423.039L229.936 449.061Z" fill="white"/>
<path d="M102.751 419L133.08 422.468L151.249 447L120.92 443.531L102.751 419Z" fill="white"/>
<path d="M329.249 419L311.08 443.532L280.751 447L298.92 422.469L329.249 419Z" fill="white"/>
<path d="M366.064 449.06L382.025 423.039L411.936 416.94L395.975 442.962L366.064 449.06Z" fill="white"/>
<path d="M284 372L256 384.161L228 372L256 359.839L284 372Z" fill="white"/>
<circle cx="256" cy="151.92" r="7.9196" fill="#007089">
  <animate attributeName="cy" values="151.92;164.08;164.08;151.92;151.92" keyTimes="0;0.1;0.7;0.8;1" dur="4s" repeatCount="indefinite"/>
</circle>
<circle cx="256" cy="478.08" r="7.9196" fill="#007089">
  <animate attributeName="cy" values="478.08;465.92;465.92;478.08;478.08" keyTimes="0;0.05;0.65;0.75;1" dur="4s" repeatCount="indefinite"/>
</circle>
<circle cx="326.08" cy="484" r="7.9196" fill="#007089">
  <animate attributeName="cx" values="326.08;313.92;313.92;326.08;326.08" keyTimes="0;0.15;0.75;0.85;1" dur="4s" repeatCount="indefinite"/>
</circle>
<circle cx="198.08" cy="484" r="7.9196" fill="#007089">
  <animate attributeName="cx" values="198.08;185.92;185.92;198.08;198.08" keyTimes="0;0.1;0.6;0.7;1" dur="4s" repeatCount="indefinite"/>
</circle>
<circle cx="97.9196" cy="484" r="7.9196" fill="#007089">
  <animate attributeName="cx" values="97.9196;110.08;110.08;97.9196;97.9196" keyTimes="0;0.2;0.8;0.9;1" dur="4s" repeatCount="indefinite"/>
</circle>
<circle cx="401.92" cy="484" r="7.9196" fill="#007089">
  <animate attributeName="cx" values="401.92;414.08;414.08;401.92;401.92" keyTimes="0;0.05;0.55;0.6;1" dur="4s" repeatCount="indefinite"/>
</circle>
<circle cx="202.019" cy="429.513" r="7.9196" fill="#007089">
  <animate attributeName="cx" values="202.019;211.3;211.3;202.019;202.019" keyTimes="0;0.1;0.6;0.7;1" dur="4s" repeatCount="indefinite"/>
  <animate attributeName="cy" values="429.513;437.299;437.299;429.513;429.513" keyTimes="0;0.1;0.6;0.7;1" dur="4s" repeatCount="indefinite"/>
</circle>
<circle cx="132.266" cy="436.04" r="7.9196" fill="#007089">
  <animate attributeName="cx" values="132.266;122.019;122.019;132.266;132.266" keyTimes="0;0.15;0.65;0.75;1" dur="4s" repeatCount="indefinite"/>
  <animate attributeName="cy" values="436.04;429.512;429.512;436.04;436.04" keyTimes="0;0.2;0.7;0.8;1" dur="4s" repeatCount="indefinite"/>
</circle>
<circle cx="299.734" cy="436.041" r="7.9196" fill="#007089">
  <animate attributeName="cx" values="299.734;309.981;309.981;299.734;299.734" keyTimes="0;0.2;0.7;0.8;1" dur="4s" repeatCount="indefinite"/>
  <animate attributeName="cy" values="436.041;429.512;429.512;436.041;436.041" keyTimes="0;0.2;0.7;0.8;1" dur="4s" repeatCount="indefinite"/>
</circle>
<circle cx="393.981" cy="429.512" r="7.9196" fill="#007089">
  <animate attributeName="cx" values="393.981;384.701;384.701;393.981;393.981" keyTimes="0;0.05;0.55;0.6;1" dur="4s" repeatCount="indefinite"/>
  <animate attributeName="cy" values="429.512;437.3;437.3;429.512;429.512" keyTimes="0;0.05;0.55;0.6;1" dur="4s" repeatCount="indefinite"/>
</circle>
<circle cx="249.92" cy="372" r="7.9196" fill="#007089">
  <animate attributeName="cx" values="249.92;262.08;262.08;249.92;249.92" keyTimes="0;0.2;0.7;0.8;1" dur="4s" repeatCount="indefinite"/>
</circle>
</svg>
</g><g id="layer3"><svg width="512" height="512" viewBox="0 0 512 512" fill="none" xmlns="http://www.w3.org/2000/svg">
<path d="M239 82.9706L255.971 42L272.941 82.9706L255.971 99.9411L239 82.9706Z" fill="#D22D27"/>
<path d="M239 82.9706L255.971 42L272.941 82.9706L255.971 99.9411L239 82.9706Z" fill="#D22D27"/>
<path d="M246.31 85.8101L256.022 62.4778L265.62 85.7627L255.941 95.4411L246.31 85.8101Z" fill="#FF9900"/>
<path d="M277 82.9706L293.971 42L310.941 82.9706L293.971 99.9411L277 82.9706Z" fill="#D22D27"/>
<path d="M312.723 76.7817L325.059 47L337.395 76.7817L325.059 89.1177L312.723 76.7817Z" fill="#D22D27"/>
<path d="M202 82.9706L218.971 42L235.941 82.9706L218.971 99.9411L202 82.9706Z" fill="#D22D27"/>
<path d="M177.723 73.7817L190.059 44L202.395 73.7817L190.059 86.1177L177.723 73.7817Z" fill="#D22D27"/>
<path d="M159.664 61.7522L169.088 39L178.513 61.7522L169.088 71.1765L159.664 61.7522Z" fill="#D22D27"/>
<path d="M249.611 35.7436L256.132 20L262.654 35.7436L256.132 42.2649L249.611 35.7436Z" fill="#D22D27"/>
<path d="M234.611 35.7436L241.132 20L247.654 35.7436L241.132 42.2649L234.611 35.7436Z" fill="#D22D27"/>
<path d="M219.611 37.7436L226.132 22L232.654 37.7436L226.132 44.2649L219.611 37.7436Z" fill="#D22D27"/>
<path d="M204.611 38.7436L211.132 23L217.654 38.7436L211.132 45.2649L204.611 38.7436Z" fill="#D22D27"/>
<path d="M191.611 41.7436L198.132 26L204.654 41.7436L198.132 48.2649L191.611 41.7436Z" fill="#D22D27"/>
<path d="M174.611 44.7436L181.132 29L187.654 44.7436L181.132 51.2649L174.611 44.7436Z" fill="#D22D27"/>
<path d="M264.611 35.7436L271.132 20L277.654 35.7436L271.132 42.2649L264.611 35.7436Z" fill="#D22D27"/>
<path d="M279.611 36.7436L286.132 21L292.654 36.7436L286.132 43.2649L279.611 36.7436Z" fill="#D22D27"/>
<path d="M295.611 39.7436L302.132 24L308.654 39.7436L302.132 46.2649L295.611 39.7436Z" fill="#D22D27"/>
<path d="M310.611 41.7436L317.132 26L323.654 41.7436L317.132 48.2649L310.611 41.7436Z" fill="#D22D27"/>
<path d="M326.611 46.7436L333.132 31L339.654 46.7436L333.132 53.2649L326.611 46.7436Z" fill="#D22D27"/>
<path d="M336.664 61.7522L346.088 39L355.513 61.7522L346.088 71.1765L336.664 61.7522Z" fill="#D22D27"/>
<path d="M283.81 85.3324L293.522 62L303.12 85.2849L293.441 94.9634L283.81 85.3324Z" fill="#FF9900"/>
<path d="M208.81 85.3324L218.522 62L228.12 85.2849L218.441 94.9634L208.81 85.3324Z" fill="#FF9900"/>
<path d="M182.054 75.3149L189.261 58L196.383 75.2797L189.201 82.4621L182.054 75.3149Z" fill="#FF9900"/>
<path d="M163.658 62.5331L168.875 50L174.03 62.5076L168.831 67.7065L163.658 62.5331Z" fill="#FF9900"/>
<path d="M177.447 45.3848L180.938 37L184.386 45.3678L180.908 48.8459L177.447 45.3848Z" fill="#FF9900"/>
<path d="M194.447 42.3848L197.938 34L201.386 42.3678L197.908 45.8459L194.447 42.3848Z" fill="#FF9900"/>
<path d="M207.447 39.3848L210.938 31L214.386 39.3678L210.908 42.8459L207.447 39.3848Z" fill="#FF9900"/>
<path d="M222.447 38.3848L225.938 30L229.386 38.3678L225.908 41.8459L222.447 38.3848Z" fill="#FF9900"/>
<path d="M237.447 36.3848L240.938 28L244.386 36.3678L240.908 39.8459L237.447 36.3848Z" fill="#FF9900"/>
<path d="M252.447 36.3848L255.938 28L259.386 36.3678L255.908 39.8459L252.447 36.3848Z" fill="#FF9900"/>
<path d="M267.447 36.3848L270.938 28L274.386 36.3678L270.908 39.8459L267.447 36.3848Z" fill="#FF9900"/>
<path d="M282.447 37.3848L285.938 29L289.386 37.3678L285.908 40.8459L282.447 37.3848Z" fill="#FF9900"/>
<path d="M298.447 40.3848L301.938 32L305.386 40.3678L301.908 43.8459L298.447 40.3848Z" fill="#FF9900"/>
<path d="M313.447 42.3848L316.938 34L320.386 42.3678L316.908 45.8459L313.447 42.3848Z" fill="#FF9900"/>
<path d="M329.447 47.3848L332.938 39L336.386 47.3678L332.908 50.8459L329.447 47.3848Z" fill="#FF9900"/>
<path d="M318.054 77.3149L325.261 60L332.383 77.2797L325.201 84.4621L318.054 77.3149Z" fill="#FF9900"/>
<path d="M340.658 63.5331L345.875 51L351.03 63.5076L345.831 68.7065L340.658 63.5331Z" fill="#FF9900"/>
</svg>
</g><g id="layer4"><svg width="512" height="512" viewBox="0 0 512 512" fill="none" xmlns="http://www.w3.org/2000/svg">
<path d="M64 400H207L257 439L305 400H448L480 512H32L64 400Z" fill="#42B16C"/>
<path d="M257 439L215.5 466.5L179.5 400H207L257 439Z" fill="#94EDB6"/>
<path d="M257 439L298.5 466.5L334.5 400H305L257 439Z" fill="#94EDB6"/>
<circle cx="6" cy="6" r="6" transform="matrix(1 0 0 -1 251 467)" fill="#94EDB6"/>
<circle cx="6" cy="6" r="6" transform="matrix(1 0 0 -1 251 495)" fill="#94EDB6"/>
</svg>
</g><g id="layer5"><svg width="512" height="512" viewBox="0 0 512 512" fill="none" xmlns="http://www.w3.org/2000/svg">
<rect x="236" y="322" width="40" height="24" fill="#121212"/>
<path d="M166 286H207V346H166V286Z" fill="#121212"/>
<path d="M346 286H305V346H346V286Z" fill="#121212"/>
</svg>
</g><g id="layer6"><svg width="512" height="512" viewBox="0 0 512 512" fill="none" xmlns="http://www.w3.org/2000/svg">
<path d="M230.711 302H280" stroke="#121212" stroke-width="6"/>
</svg>
</g><g id="layer7"><svg width="512" height="512" viewBox="0 0 512 512" fill="none" xmlns="http://www.w3.org/2000/svg">
  <rect x="212" y="194" width="20" height="20" rx="10" fill="#121212">
    <animate attributeName="rx" values="10;10;1;10;10;1;10;10;" keyTimes="0;0.275;0.3;0.325;0.725;0.75;0.775;1" dur="4s" repeatCount="indefinite" />
    <animate attributeName="height" values="20;20;2;20;20;2;20;20" keyTimes="0;0.275;0.3;0.325;0.725;0.75;0.775;1" dur="4s" repeatCount="indefinite" />
    <animate attributeName="y" values="194;194;203;194;194;203;194;194" keyTimes="0;0.275;0.3;0.325;0.725;0.75;0.775;1" dur="4s" repeatCount="indefinite" />
  </rect>
  <rect x="280" y="194" width="20" height="20" rx="10" fill="#121212">
    <animate attributeName="rx" values="10;10;1;10;10;1;10;10" keyTimes="0;0.275;0.3;0.325;0.725;0.75;0.775;1" dur="4s" repeatCount="indefinite" />
    <animate attributeName="height" values="20;20;2;20;20;2;20;20" keyTimes="0;0.275;0.3;0.325;0.725;0.75;0.775;1" dur="4s" repeatCount="indefinite" />
    <animate attributeName="y" values="194;194;203;194;194;203;194;194" keyTimes="0;0.275;0.3;0.325;0.725;0.75;0.775;1" dur="4s" repeatCount="indefinite" />
  </rect>
  <path d="M206 162H238" stroke="#121212" stroke-width="6"/>
  <path d="M274 162H306" stroke="#121212" stroke-width="6"/>
</svg>
</g><g id="layer8"><svg width="512" height="512" viewBox="0 0 512 512" fill="none" xmlns="http://www.w3.org/2000/svg">
<path d="M190 175H246V231H190V175Z" fill="#FFFFFF" fill-opacity="0.6"/>
<path d="M190 175H246V231H190V175ZM190 175H166" stroke="#BBBBBB" stroke-width="6"/>
<path d="M247 184H266" stroke="#BBBBBB" stroke-width="6"/>
<path d="M266 175H322V231H266V175Z" fill="#FFFFFF" fill-opacity="0.6"/>
<path d="M322 175H266V231H322V175ZM322 175H346" stroke="#BBBBBB" stroke-width="6"/>
<mask id="mask0_139_2" style="mask-type:alpha" maskUnits="userSpaceOnUse" x="269" y="178" width="50" height="50">
<path d="M269 178H319V228H309.625H269V178Z" fill="#BBBBBB"/>
</mask>
<g mask="url(#mask0_139_2)">
<path d="M279.545 178H290L277.455 228H267L279.545 178Z" fill="#DDD">
<animateTransform attributeName="transform" type="translate" dur="4s" repeatCount="indefinite" keyTimes="0;0.8;1" values="-32 0;-32 0;48 0" />
</path>
</g>
<mask id="mask1_139_2" style="mask-type:alpha" maskUnits="userSpaceOnUse" x="193" y="178" width="50" height="50">
<path d="M193 178H243V228H233.625H193V178Z" fill="#BBBBBB"/>
</mask>
<g mask="url(#mask1_139_2)">
<path d="M203.545 178H214L201.455 228H191L203.545 178Z" fill="#DDD">
<animateTransform attributeName="transform" type="translate" dur="4s" repeatCount="indefinite" keyTimes="0;0.8;1" values="-32 0;-32 0;48 0" />
</path>
</g>
</svg>
</g></svg>