<svg xmlns="http://www.w3.org/2000/svg" viewBox="0 0 500 500"><g id="layer1"><svg width="512" height="512" viewBox="0 0 512 512" fill="none" xmlns="http://www.w3.org/2000/svg">
<rect width="512" height="512" fill="#00FF94"/>
<path d="M134 178H167V242H146L134 178Z" fill="#E24713"/>
<path d="M378 178H345V242H366L378 178Z" fill="#E24713"/>
<rect x="207" y="346" width="98" height="54" fill="#E24713"/>
<path d="M64 400H448L480 512H32L64 400Z" fill="#F15824"/>
<rect x="166" y="106" width="180" height="240" fill="#F15824"/>
</svg>
</g><g id="layer2"><svg width="512" height="512" viewBox="0 0 512 512" fill="none" xmlns="http://www.w3.org/2000/svg">
<path d="M134 178H166V242H146L134 178Z" fill="#CACACA"/>
<path d="M378 178H346V242H366L378 178Z" fill="#CACACA"/>
<rect x="207" y="346" width="98" height="54" fill="#CACACA"/>
<path d="M64 400H448L480 512H32L64 400Z" fill="#E3E3E3"/>
<rect x="136" y="456" width="240" height="56" fill="white"/>
<rect x="166" y="106" width="180" height="240" fill="#E3E3E3"/>
<path d="M272 236H240L232 250L256 262L280 250L272 236Z" fill="#121212" stroke="#121212" stroke-width="6"/>
<rect x="79" y="455" width="16" height="16" rx="8" fill="#1D1D1D"/>
<rect x="100" y="484" width="16" height="16" rx="8" fill="#1D1D1D"/>
<rect x="139" y="424" width="16" height="16" rx="8" fill="#1D1D1D"/>
<rect x="215" y="351" width="16" height="16" rx="8" fill="#1D1D1D"/>
<rect x="326" y="153" width="16" height="16" rx="8" fill="#1D1D1D"/>
<rect x="174" y="153" width="16" height="16" rx="8" fill="#1D1D1D"/>
<rect x="277" y="113" width="16" height="16" rx="8" fill="#1D1D1D"/>
<rect x="310" y="413" width="16" height="16" rx="8" fill="#1D1D1D"/>
<rect x="410" y="455" width="16" height="16" rx="8" fill="#1D1D1D"/>
<rect x="448" y="484" width="16" height="16" rx="8" fill="#1D1D1D"/>
<rect x="79" y="409" width="24" height="24" rx="12" fill="#1D1D1D"/>
<rect x="414" y="412" width="24" height="24" rx="12" fill="#1D1D1D"/>
<rect x="197" y="415" width="24" height="24" rx="12" fill="#1D1D1D"/>
<rect x="232" y="369" width="24" height="24" rx="12" fill="#1D1D1D"/>
<rect x="174" y="115" width="24" height="24" rx="12" fill="#1D1D1D"/>
<rect x="285" y="378" width="12" height="12" rx="6" fill="#1D1D1D"/>
<rect x="326" y="115" width="12" height="12" rx="6" fill="#1D1D1D"/>
<rect x="231" y="115" width="12" height="12" rx="6" fill="#1D1D1D"/>
<rect x="141" y="185" width="12" height="12" rx="6" fill="#1D1D1D"/>
<rect x="154" y="198" width="12" height="12" rx="6" fill="#1D1D1D"/>
<rect x="356" y="185" width="12" height="12" rx="6" fill="#1D1D1D"/>
<rect x="256" y="431" width="12" height="12" rx="6" fill="#1D1D1D"/>
<rect x="390" y="488" width="12" height="12" rx="6" fill="#1D1D1D"/>
<rect x="364" y="431" width="12" height="12" rx="6" fill="#1D1D1D"/>
<rect x="52" y="492" width="12" height="12" rx="6" fill="#1D1D1D"/>
</svg>
</g><g id="layer3"><svg width="512" height="512" viewBox="0 0 512 512" fill="none" xmlns="http://www.w3.org/2000/svg">
<path d="M166 106L219.5 73V106L288.5 73V106L346 73V106V154L166 154V106Z" fill="#121212"/>
<rect x="166" y="154" width="12" height="40" fill="#121212"/>
<rect x="334" y="154" width="12" height="40" fill="#121212"/>
<rect x="166" y="122" width="180" height="32" fill="#00B2FE"/>
</svg>
</g><g id="layer4"><svg width="512" height="512" viewBox="0 0 512 512" fill="none" xmlns="http://www.w3.org/2000/svg">
<rect x="207" y="346" width="98" height="54" fill="#42B06C"/>
<path d="M64 400H448L480 512H32L64 400Z" fill="#42B06C"/>
<path d="M338 456L345.629 480H349.857L342.292 456H338ZM374.078 456L366.068 480H370.36L378.307 456H374.079H374.078ZM351.653 468.652H357.853L351.113 477.139V480H364.591V475.899H358.018L364.814 467.412V464.551H351.653V468.652Z" fill="#94EDB6"/>
<path d="M256 362V512" stroke="#94EDB6" stroke-width="6"/>
<rect x="248" y="346" width="16" height="16" fill="#94EDB6"/>
</svg>
</g><g id="layer5"><svg width="512" height="512" viewBox="0 0 512 512" fill="none" xmlns="http://www.w3.org/2000/svg">
<path d="M166 266L206 286V346H166V266Z" fill="#121212"/>
<path d="M346 266L306 286V346H346V266Z" fill="#121212"/>
<rect x="206" y="322" width="100" height="24" fill="#121212"/>
</svg>
</g><g id="layer6"><svg width="512" height="512" viewBox="0 0 512 512" fill="none" xmlns="http://www.w3.org/2000/svg">
<path d="M216 284H296L292 301L288 317H224L220 301L216 284Z" fill="white"/>
<path d="M220 301L224 317H288L292 301M220 301L216 284H296L292 301M220 301H292" stroke="#121212" stroke-width="6"/>
<path d="M256.25 401.5C219 401.5 199 377.5 199 377.5L245.841 301H266.659L313.5 377.5C313.5 377.5 293.5 401.5 256.25 401.5Z" fill="#FFB74A" stroke="#121212" stroke-width="6"/>
<path d="M256.25 401.5C219 401.5 199 377.5 199 377.5L206.654 365C206.654 365 224.5 384 256.25 384C285 384 305.846 365 305.846 365L313.5 377.5C313.5 377.5 293.5 401.5 256.25 401.5Z" fill="#FF9900" stroke="#121212" stroke-width="6"/>
<circle cx="241" cy="359" r="12" fill="#D22D27"/>
<circle cx="257" cy="321" r="10" fill="#D22D27"/>
<circle cx="273" cy="351" r="10" fill="#D22D27"/>
</svg>
</g><g id="layer7"><svg width="512" height="512" viewBox="0 0 512 512" fill="none" xmlns="http://www.w3.org/2000/svg">
    <rect x="212" y="194" width="20" height="20" rx="10" fill="#121212"/>
    <rect x="280" y="194" width="20" height="20" rx="10" fill="#121212">
        <animate attributeName="y" dur="4s" repeatCount="indefinite" keyTimes="0;0.475;0.5;0.575;0.6;1" values="194;194;203;203;194;194" />
        <animate attributeName="height" dur="4s" repeatCount="indefinite" keyTimes="0;0.475;0.5;0.575;0.6;1" values="20;20;2;2;20;20" />
        <animate attributeName="rx" dur="4s" repeatCount="indefinite" keyTimes="0;0.475;0.5;0.575;0.6;1" values="10;10;1;1;10;10" />
    </rect>
    <path id="path1" d="M206 162H238" stroke="#121212" stroke-width="6"/>
    <g transform="translate(0,0)">
        <path id="path2" d="M274 162H306" stroke="#121212" stroke-width="6">
            <animateTransform attributeName="transform" type="translate" begin="0s" dur="4s" repeatCount="indefinite" keyTimes="0;0.475;0.5;0.575;0.6;1" values="0 0;0 0;0 5;0 5;0 0;0 0" />
            <animateTransform attributeName="transform" type="rotate" begin="0s" dur="4s" repeatCount="indefinite" keyTimes="0;0.475;0.5;0.575;0.6;1" values="0 274 162;0 274 162;10 274 162;10 274 162;0 274 162;0 274 162" additive="sum" />
        </path>
    </g>
</svg>
</g><g id="layer8"><svg width="512" height="512" viewBox="0 0 512 512" fill="none" xmlns="http://www.w3.org/2000/svg">
<path d="M166 172H246V236L166 278V172Z" fill="#2D2D2D"/>
<circle cx="214" cy="204" r="20" fill="#D22D27" />
<circle cx="186" cy="188" r="4" fill="#D22D27">
<animate attributeName="fill" dur="8s" repeatCount="indefinite" keyTimes="0;0.05;0.12;0.5;0.55;1" values="#6C0400;#FF0900;#FF0900;#FF0900;#6C0400;#6C0400" />
</circle>
<circle cx="186" cy="204" r="4" fill="#D22D27"/>
<circle cx="214" cy="204" r="10" fill="#7B0000">
<animate attributeName="fill" dur="8s" repeatCount="indefinite" keyTimes="0;0.05;0.075;0.1;0.12;0.15;0.5;0.55;1" values="#6C0400;#FF0900;#6C0400;#FF0900;#6C0400;#FF0900;#FF0900;#6C0400;#6C0400" />
</circle>
</svg>
</g></svg>