<svg xmlns="http://www.w3.org/2000/svg" viewBox="0 0 500 500"><g id="layer1"><svg width="512" height="512" viewBox="0 0 512 512" fill="none" xmlns="http://www.w3.org/2000/svg">
<rect width="512" height="512" fill="#7000FF"/>
<path d="M134 178H167V242H146L134 178Z" fill="#E24713"/>
<path d="M378 178H345V242H366L378 178Z" fill="#E24713"/>
<rect x="207" y="346" width="98" height="54" fill="#E24713"/>
<path d="M64 400H448L480 512H32L64 400Z" fill="#F15824"/>
<rect x="166" y="106" width="180" height="240" fill="#F15824"/>
</svg>
</g><g id="layer2"><svg width="512" height="512" viewBox="0 0 512 512" fill="none" xmlns="http://www.w3.org/2000/svg">
<path d="M134 178H166V242H146L134 178Z" fill="#E24713"/>
<path d="M378 178H346V242H366L378 178Z" fill="#E24713"/>
<rect x="207" y="346" width="98" height="54" fill="#E24713"/>
<path d="M64 400H448L480 512H32L64 400Z" fill="#F15824"/>
<rect x="166" y="106" width="180" height="240" fill="#F15824"/>
<path d="M256 218L266 258H246" stroke="#121212" stroke-width="6"/>
</svg>
</g><g id="layer3"><svg width="512" height="512" viewBox="0 0 512 512" fill="none" xmlns="http://www.w3.org/2000/svg">
<path d="M181.729 133.565C179.509 137.627 174.417 139.12 170.355 136.901C166.293 134.681 164.8 129.589 167.019 125.527C169.239 121.465 182.859 114.019 182.859 114.019C182.859 114.019 183.949 129.503 181.729 133.565Z" fill="#00CA4D"/>
<path d="M216.729 120.565C214.509 124.627 209.417 126.12 205.355 123.901C201.293 121.681 199.8 116.589 202.019 112.527C204.239 108.465 217.859 101.019 217.859 101.019C217.859 101.019 218.949 116.503 216.729 120.565Z" fill="#00CA4D"/>
<path d="M229.716 144.65C226.007 142.319 224.89 137.424 227.221 133.715C229.551 130.006 234.447 128.889 238.156 131.22C241.864 133.551 248.112 146.844 248.112 146.844C248.112 146.844 233.424 146.981 229.716 144.65Z" fill="#00CA4D"/>
<path d="M192.716 158.65C189.007 156.319 187.89 151.424 190.221 147.715C192.551 144.006 197.447 142.889 201.156 145.22C204.864 147.551 211.112 160.844 211.112 160.844C211.112 160.844 196.424 160.981 192.716 158.65Z" fill="#00CA4D"/>
<path d="M164.716 169.65C161.007 167.319 159.89 162.424 162.221 158.715C164.551 155.006 169.447 153.889 173.156 156.22C176.864 158.551 183.112 171.844 183.112 171.844C183.112 171.844 168.424 171.981 164.716 169.65Z" fill="#00CA4D"/>
<path d="M154.5 152L186.5 140L202.5 134L218.5 128L234.5 122" stroke="#00772D" stroke-width="6"/>
<path d="M334.603 133.565C336.823 137.627 341.915 139.12 345.977 136.901C350.039 134.681 351.533 129.589 349.313 125.527C347.093 121.465 333.473 114.019 333.473 114.019C333.473 114.019 332.383 129.503 334.603 133.565Z" fill="#00CA4D"/>
<path d="M299.603 120.565C301.823 124.627 306.915 126.12 310.977 123.901C315.039 121.681 316.533 116.589 314.313 112.527C312.093 108.465 298.473 101.019 298.473 101.019C298.473 101.019 297.383 116.503 299.603 120.565Z" fill="#00CA4D"/>
<path d="M286.617 144.65C290.325 142.319 291.442 137.424 289.111 133.715C286.781 130.006 281.885 128.889 278.176 131.22C274.468 133.551 268.22 146.844 268.22 146.844C268.22 146.844 282.908 146.981 286.617 144.65Z" fill="#00CA4D"/>
<path d="M323.617 158.65C327.325 156.319 328.442 151.424 326.111 147.715C323.781 144.006 318.885 142.889 315.176 145.22C311.468 147.551 305.22 160.844 305.22 160.844C305.22 160.844 319.908 160.981 323.617 158.65Z" fill="#00CA4D"/>
<path d="M351.617 169.65C355.325 167.319 356.442 162.424 354.111 158.715C351.781 155.006 346.885 153.889 343.176 156.22C339.468 158.551 333.22 171.844 333.22 171.844C333.22 171.844 347.908 171.981 351.617 169.65Z" fill="#00CA4D"/>
<path d="M361.832 152L329.832 140L313.832 134L297.832 128L281.832 122" stroke="#00772D" stroke-width="6"/>
</svg>
</g><g id="layer4"><svg width="512" height="512" viewBox="0 0 512 512" fill="none" xmlns="http://www.w3.org/2000/svg">
<path d="M64 400H160L256 472L352 400H448L480 512H32L64 400Z" fill="#A7DAFF"/>
</svg>
</g><g id="layer5"><svg width="512" height="512" viewBox="0 0 512 512" fill="none" xmlns="http://www.w3.org/2000/svg">
<rect x="204" y="286" width="12" height="60" fill="#121212"/>
<rect x="296" y="286" width="12" height="60" fill="#121212"/>
<rect x="244" y="322" width="24" height="12" fill="#121212"/>
<path d="M204 334H308V346L256 370L204 346V334Z" fill="#121212"/>
</svg>
</g><g id="layer6"><svg width="512" height="512" viewBox="0 0 512 512" fill="none" xmlns="http://www.w3.org/2000/svg">
<path d="M216 284H296L292 301L288 317H224L220 301L216 284Z" fill="white"/>
<path d="M220 301L224 317H288L292 301M220 301L216 284H296L292 301M220 301H292" stroke="#121212" stroke-width="6"/>
<g>
<animateTransform attributeName="transform" type="translate" dur="2s" repeatCount="indefinite" keyTimes="0;0.20;0.6;0.8;1" values="-8 0;16 0;16 0;-8 0;-8 0" />
<rect width="24" height="64" transform="matrix(0 -1 -1 0 185 313)" fill="#2D2D2D"/>
<path d="M199.785 325H187.83V301M199.785 277H187.83V301M187.83 301H319" stroke="#2D2D2D" stroke-width="6"/>
<path d="M118 317V301V285" stroke="#2D2D2D" stroke-width="6"/>
</g>
</svg>
</g><g id="layer7"><svg width="512" height="512" viewBox="0 0 512 512" fill="none" xmlns="http://www.w3.org/2000/svg">
    <circle cx="222" cy="194" r="10" fill="#121212">
      </circle>
    <circle cx="290" cy="194" r="10" fill="#121212">
      </circle>
  
        <path d="M206 162H238" stroke="#121212" stroke-width="6">
            <animateTransform attributeName="transform" type="translate" begin="0s" dur="4s" repeatCount="indefinite" keyTimes="0;0.05;0.1;0.75;0.8;1" values="0 0;0 0;0 24;0 24;0 0;0 0" />
        </path>
    <g transform="translate(0,0)">
        <path d="M274 162H306" stroke="#121212" stroke-width="6">
            <animateTransform attributeName="transform" type="translate" begin="0s" dur="4s" repeatCount="indefinite" keyTimes="0;0.05;0.1;0.75;0.8;1" values="0 0;0 0;2 -16;2 -16;0 0;0 0" />
            <animateTransform attributeName="transform" type="rotate" begin="0s" dur="4s" repeatCount="indefinite" keyTimes="0;0.05;0.1;0.75;0.8;1" values="0 290 162;0 290 162;30 290 162;30 290 162;0 290 162;0 290 162" additive="sum" />
        </path>
    </g>
</svg>
</g><g id="layer8"><svg></svg></g></svg>