<svg xmlns="http://www.w3.org/2000/svg" viewBox="0 0 500 500"><g id="layer1"><svg width="512" height="512" viewBox="0 0 512 512" fill="none" xmlns="http://www.w3.org/2000/svg">
<rect width="512" height="512" fill="#00FF94"/>
<path d="M134 178H167V242H146L134 178Z" fill="#E24713"/>
<path d="M378 178H345V242H366L378 178Z" fill="#E24713"/>
<rect x="207" y="346" width="98" height="54" fill="#E24713"/>
<path d="M64 400H448L480 512H32L64 400Z" fill="#F15824"/>
<rect x="166" y="106" width="180" height="240" fill="#F15824"/>
</svg>
</g><g id="layer2"><svg width="512" height="512" viewBox="0 0 512 512" fill="none" xmlns="http://www.w3.org/2000/svg">
<path d="M134 178H166V242H146L134 178Z" fill="#2D2D2D"/>
<path d="M378 178H346V242H366L378 178Z" fill="#2D2D2D"/>
<path d="M64 400H448L480 512H32L64 400Z" fill="#2D2D2D"/>
<rect x="136" y="456" width="240" height="56" fill="#E3E3E3"/>
<rect x="207" y="346" width="98" height="54" fill="#2D2D2D"/>
<rect x="166" y="106" width="180" height="240" fill="#E3E3E3"/>
<path d="M272 236H240L232 250L256 262L280 250L272 236Z" fill="#121212"/>
<path d="M256 262L232 250L240 236H272L280 250L256 262ZM256 262V285.5" stroke="#121212" stroke-width="6"/>
<path d="M246 204C246 220.016 233.016 235.5 217 235.5C200.984 235.5 182 220.016 182 204C182 187.984 205.484 174.5 221.5 174.5C237.516 174.5 246 187.984 246 204Z" fill="#2D2D2D"/>
<path d="M266 204.5C266 220.516 278.984 236 295 236C311.016 236 330 220.516 330 204.5C330 188.484 306.516 175 290.5 175C274.484 175 266 188.484 266 204.5Z" fill="#2D2D2D"/>
</svg>
</g><g id="layer3"><svg width="512" height="512" viewBox="0 0 512 512" fill="none" xmlns="http://www.w3.org/2000/svg">
<path d="M194 238L178 134V62H166V134V238H194Z" fill="#121212"/>
<path d="M318 238L334 134V62H346V134V238H318Z" fill="#121212"/>
<rect x="236" y="62" width="40" height="12" fill="#121212"/>
<rect x="106" y="146" width="300" height="16" fill="#8B634A"/>
<rect x="390" y="122" width="16" height="24" fill="#8B634A"/>
<rect x="106" y="122" width="16" height="24" fill="#8B634A"/>
<rect x="166" y="26" width="180" height="120" fill="#8B634A"/>
<rect x="166" y="106" width="180" height="40" fill="#77492D"/>
</svg>
</g><g id="layer4"><svg width="512" height="512" viewBox="0 0 512 512" fill="none" xmlns="http://www.w3.org/2000/svg">
<path d="M64 400H448L480 512H32L64 400Z" fill="white"/>
<rect x="207" y="372" width="36" height="28" fill="#FFB74A"/>
<rect x="269" y="372" width="36" height="28" fill="#FFB74A"/>
<path d="M96 400H416V512H96V400Z" fill="#FFB74A"/>
<path d="M256 400L256 512" stroke="white" stroke-width="6"/>
<circle cx="274" cy="427" r="6" fill="white"/>
<circle cx="274" cy="459" r="6" fill="white"/>
<circle cx="274" cy="491" r="6" fill="white"/>
<rect x="328" y="472" width="64" height="16" fill="white"/>
</svg>
</g><g id="layer5"><svg width="512" height="512" viewBox="0 0 512 512" fill="none" xmlns="http://www.w3.org/2000/svg">
<rect x="201" y="286" width="12" height="40" fill="#121212"/>
<rect x="299" y="286" width="12" height="40" fill="#121212"/>
<rect x="201" y="274" width="110" height="12" fill="#121212"/>
</svg>
</g><g id="layer6"><svg width="512" height="512" viewBox="0 0 512 512" fill="none" xmlns="http://www.w3.org/2000/svg">
<path d="M296 282H216C216 282 216 322 256.028 322C296.057 322 296 282 296 282Z" fill="white"/>
</svg>
</g><g id="layer7"><svg width="512" height="512" viewBox="0 0 512 512" fill="none" xmlns="http://www.w3.org/2000/svg">
  <rect x="212" y="194" width="20" height="20" rx="10" fill="#121212">
    <animate attributeName="rx" values="10;10;1;10;10;1;10;10;" keyTimes="0;0.275;0.3;0.325;0.725;0.75;0.775;1" dur="4s" repeatCount="indefinite" />
    <animate attributeName="height" values="20;20;2;20;20;2;20;20" keyTimes="0;0.275;0.3;0.325;0.725;0.75;0.775;1" dur="4s" repeatCount="indefinite" />
    <animate attributeName="y" values="194;194;203;194;194;203;194;194" keyTimes="0;0.275;0.3;0.325;0.725;0.75;0.775;1" dur="4s" repeatCount="indefinite" />
  </rect>
  <rect x="280" y="194" width="20" height="20" rx="10" fill="#121212">
    <animate attributeName="rx" values="10;10;1;10;10;1;10;10" keyTimes="0;0.275;0.3;0.325;0.725;0.75;0.775;1" dur="4s" repeatCount="indefinite" />
    <animate attributeName="height" values="20;20;2;20;20;2;20;20" keyTimes="0;0.275;0.3;0.325;0.725;0.75;0.775;1" dur="4s" repeatCount="indefinite" />
    <animate attributeName="y" values="194;194;203;194;194;203;194;194" keyTimes="0;0.275;0.3;0.325;0.725;0.75;0.775;1" dur="4s" repeatCount="indefinite" />
  </rect>
  <path d="M206 162H238" stroke="#121212" stroke-width="6"/>
  <path d="M274 162H306" stroke="#121212" stroke-width="6"/>
</svg>
</g><g id="layer8"><svg width="512" height="512" viewBox="0 0 512 512" fill="none" xmlns="http://www.w3.org/2000/svg">
<path fill-rule="evenodd" clip-rule="evenodd" d="M191.902 149.155C164.845 153.718 148 178.232 148 205.67C148 235.178 167.302 262.947 196.81 263C209.076 263.022 221.301 261.094 230.328 255.247C235.39 251.968 238.114 248.026 240.554 244.494C244.141 239.303 247.114 235 256 235C264.886 235 267.859 239.303 271.446 244.494C273.886 248.026 276.61 251.968 281.672 255.247C290.699 261.094 302.924 263.022 315.19 263C344.698 262.947 364 235.178 364 205.67C364 178.232 347.155 153.718 320.098 149.155C303.115 146.291 281.547 144 256 144C230.453 144 208.885 146.291 191.902 149.155ZM198.719 172.11C184.104 174.524 174 187.405 174 202.218C174 216.943 183.992 230.025 198.65 231.425C210.777 232.584 224.446 232.359 232.311 227.244C234.953 225.526 237.508 223.034 240.099 220.508C245.002 215.727 250.03 210.824 256 210.824C261.97 210.824 266.998 215.727 271.901 220.508C274.492 223.034 277.047 225.526 279.689 227.244C287.554 232.359 301.223 232.584 313.35 231.425C328.008 230.025 338 216.943 338 202.218C338 187.405 327.896 174.524 313.281 172.11C297.921 169.574 277.129 167 256 167C234.871 167 214.079 169.574 198.719 172.11Z" fill="#121212"/>
<path d="M174 202.218C174 187.405 184.104 174.524 198.719 172.11C214.079 169.574 234.871 167 256 167C277.129 167 297.921 169.574 313.281 172.11C327.896 174.524 338 187.405 338 202.218C338 216.943 328.008 230.025 313.35 231.425C301.223 232.584 287.554 232.359 279.689 227.244C272.047 222.275 265.124 210.824 256 210.824C246.876 210.824 239.953 222.275 232.311 227.244C224.446 232.359 210.777 232.584 198.65 231.425C183.992 230.025 174 216.943 174 202.218Z" fill="#0047FF" fill-opacity="0.6">
<animate attributeName="fill" dur="4s" repeatCount="indefinite" keyTimes="0;0.25;0.5;0.75;1" values="#0732A0;#9129E3;#4378FF;#0732A0;#0732A0" />
</path>
</svg>
</g></svg>