<svg xmlns="http://www.w3.org/2000/svg" viewBox="0 0 500 500"><g id="layer1"><svg width="512" height="512" viewBox="0 0 512 512" fill="none" xmlns="http://www.w3.org/2000/svg">
<rect width="512" height="512" fill="#007089"/>
<path d="M134 178H167V242H146L134 178Z" fill="#E24713"/>
<path d="M378 178H345V242H366L378 178Z" fill="#E24713"/>
<rect x="207" y="346" width="98" height="54" fill="#E24713"/>
<path d="M64 400H448L480 512H32L64 400Z" fill="#F15824"/>
<rect x="166" y="106" width="180" height="240" fill="#F15824"/>
</svg>
</g><g id="layer2"><svg width="512" height="512" viewBox="0 0 512 512" fill="none" xmlns="http://www.w3.org/2000/svg">
<path d="M134 178H166V242H146L134 178Z" fill="#E24713"/>
<path d="M378 178H346V242H366L378 178Z" fill="#E24713"/>
<rect x="207" y="346" width="98" height="54" fill="#E24713"/>
<path d="M64 400H448L480 512H32L64 400Z" fill="#F15824"/>
<rect x="166" y="106" width="180" height="240" fill="#F15824"/>
<path d="M256 218L266 258H246" stroke="#121212" stroke-width="6"/>
</svg>
</g><g id="layer3"><svg width="512" height="512" viewBox="0 0 512 512" fill="none" xmlns="http://www.w3.org/2000/svg">
<path d="M166 106H346V154L166 154V106Z" fill="#121212"/>
<rect x="166" y="154" width="12" height="24" fill="#121212"/>
<rect x="334" y="154" width="12" height="24" fill="#121212"/>
</svg>
</g><g id="layer4"><svg></svg></g><g id="layer5"><svg width="512" height="512" viewBox="0 0 512 512" fill="none" xmlns="http://www.w3.org/2000/svg">
<rect x="201" y="286" width="12" height="40" fill="#121212"/>
<rect x="299" y="286" width="12" height="40" fill="#121212"/>
<rect x="201" y="274" width="110" height="12" fill="#121212"/>
</svg>
</g><g id="layer6"><svg width="512" height="512" viewBox="0 0 512 512" fill="none" xmlns="http://www.w3.org/2000/svg">
<path d="M230.711 302H280" stroke="#121212" stroke-width="6"/>
<rect width="16" height="16" transform="matrix(1 0 0 -1 261 318)" fill="#2D2D2D" stroke="#121212" stroke-width="6"/>
<rect width="24" height="64" transform="matrix(1 0 0 -1 257 382)" fill="#2D2D2D" stroke="#121212" stroke-width="6"/>
<rect width="24" height="12" transform="matrix(1 0 0 -1 257 330)" fill="white" stroke="#121212" stroke-width="6"/>
<rect width="8" height="8" transform="matrix(1 0 0 -1 265 350.446)" fill="#D22D27">
<animate attributeName="fill" dur="4s" repeatCount="indefinite" keyTimes="0;0.8;1" values="#6C0400;#FF0900;#6C0400" />
</rect>
</svg>
</g><g id="layer7"><svg width="512" height="512" viewBox="0 0 512 512" fill="none" xmlns="http://www.w3.org/2000/svg">
<path d="M206 162H238" stroke="#121212" stroke-width="6"/>
<path d="M206 202C206 202 212 194 222 194C232 194 238 202 238 202" stroke="#121212" stroke-width="6"/>
<path d="M274 202C274 202 280 194 290 194C300 194 306 202 306 202" stroke="#121212" stroke-width="6"/>
<path d="M274 162H306" stroke="#121212" stroke-width="6"/>
</svg>
</g><g id="layer8"><svg></svg></g></svg>