<svg xmlns="http://www.w3.org/2000/svg" viewBox="0 0 500 500"><g id="layer1"><svg width="512" height="512" viewBox="0 0 512 512" fill="none" xmlns="http://www.w3.org/2000/svg">
<rect width="512" height="512" fill="#A7FF00"/>
<path d="M134 178H167V242H146L134 178Z" fill="#E24713"/>
<path d="M378 178H345V242H366L378 178Z" fill="#E24713"/>
<rect x="207" y="346" width="98" height="54" fill="#E24713"/>
<path d="M64 400H448L480 512H32L64 400Z" fill="#F15824"/>
<rect x="166" y="106" width="180" height="240" fill="#F15824"/>
</svg>
</g><g id="layer2"><svg width="512" height="512" viewBox="0 0 512 512" fill="none" xmlns="http://www.w3.org/2000/svg">
<path d="M134 178H166V242H146L134 178Z" fill="#E24713"/>
<path d="M378 178H346V242H366L378 178Z" fill="#E24713"/>
<rect x="207" y="346" width="98" height="54" fill="#E24713"/>
<path d="M64 400H448L480 512H32L64 400Z" fill="#F15824"/>
<rect x="166" y="106" width="180" height="240" fill="#F15824"/>
<path d="M256 218L266 258H246" stroke="#121212" stroke-width="6"/>
</svg>
</g><g id="layer3"><svg width="512" height="512" viewBox="0 0 512 512" fill="none" xmlns="http://www.w3.org/2000/svg">
<rect width="180" height="88" transform="matrix(1 0 0 -1 166 138)" fill="#D22D27"/>
<rect width="212" height="24" transform="matrix(1 0 0 -1 150 162)" fill="#FFB74A"/>
<rect x="230" y="24" width="52" height="114" fill="#FFB74A"/>
<path d="M238 50.439L256.486 32L274 50.439L256.486 68L238 50.439Z" fill="#00A8FF"/>
<path d="M256.486 32L274 50.439H256.486V32Z" fill="#0097D8"/>
<path d="M238 50.439L256.486 32V50.439H238Z" fill="#79CBDC"/>
<circle cx="256" cy="150" r="6" fill="#D22D27"/>
<circle cx="256" cy="116" r="6" fill="#D22D27"/>
<circle cx="256" cy="88" r="6" fill="#D22D27"/>
<circle cx="220" cy="150" r="6" fill="#D22D27"/>
<circle cx="184" cy="150" r="6" fill="#D22D27"/>
<circle cx="328" cy="150" r="6" fill="#D22D27"/>
<circle cx="292" cy="150" r="6" fill="#D22D27"/>
<rect x="166" y="50" width="24" height="88" fill="#FFB74A"/>
<rect x="322" y="50" width="24" height="88" fill="#FFB74A"/>
<circle cx="334" cy="116" r="6" fill="#D22D27"/>
<circle cx="178" cy="116" r="6" fill="#D22D27"/>
<circle cx="334" cy="88" r="6" fill="#D22D27"/>
<circle cx="334" cy="60" r="6" fill="#D22D27"/>
<circle cx="178" cy="88" r="6" fill="#D22D27"/>
<circle cx="178" cy="60" r="6" fill="#D22D27"/>
</svg>
</g><g id="layer4"><svg width="512" height="512" viewBox="0 0 512 512" fill="none" xmlns="http://www.w3.org/2000/svg">
<path d="M256 422L215 400V444L256 422Z" fill="#121212"/>
<path d="M256 422L297 400V444L256 422Z" fill="#121212"/>
</svg>
</g><g id="layer5"><svg width="512" height="512" viewBox="0 0 512 512" fill="none" xmlns="http://www.w3.org/2000/svg">
<rect x="236" y="322" width="40" height="24" fill="#121212"/>
<path d="M166 286H207V346H166V286Z" fill="#121212"/>
<path d="M346 286H305V346H346V286Z" fill="#121212"/>
</svg>
</g><g id="layer6"><svg width="512" height="512" viewBox="0 0 512 512" fill="none" xmlns="http://www.w3.org/2000/svg">
<path d="M230.711 302H280" stroke="#121212" stroke-width="6"/>
<path d="M271 325C282.046 325 291 316.046 291 305H251C251 316.046 259.954 325 271 325Z" fill="#FF00B1"/>
<path d="M271 319C278.732 319 285 312.732 285 305H257C257 312.732 263.268 319 271 319Z" fill="#AD00FF"/>
<path d="M271 313C275.418 313 279 309.418 279 305H263C263 309.418 266.582 313 271 313Z" fill="#FFB039"/>
<path d="M251 302H248V305C248 317.703 258.297 328 271 328C283.703 328 294 317.703 294 305V302H291H251Z" stroke="#1D1D1D" stroke-width="6"/>
<path d="M284.229 320L330 369" stroke="#1D1D1D" stroke-width="6">
<animateTransform attributeName="transform" type="rotate" dur="4s" repeatCount="indefinite" keyTimes="0;0.1;0.5;0.6;1" values="0 270 300;90 270 300;90 270 300; 0 270 300; 0 270 300;" />
</path>
</svg>
</g><g id="layer7"><svg width="512" height="512" viewBox="0 0 512 512" fill="none" xmlns="http://www.w3.org/2000/svg">
<path d="M206 162H238" stroke="#121212" stroke-width="6"/>
<path d="M210.687 217.313L233.314 194.686" stroke="#121212" stroke-width="6"/>
<path d="M279 217.313L301.627 194.686" stroke="#121212" stroke-width="6"/>
<path d="M210.687 194.687L233.314 217.314" stroke="#121212" stroke-width="6"/>
<path d="M279 194.687L301.627 217.314" stroke="#121212" stroke-width="6"/>
<path d="M274 162H306" stroke="#121212" stroke-width="6"/>
</svg>
</g><g id="layer8"><svg width="512" height="512" viewBox="0 0 512 512" fill="none" xmlns="http://www.w3.org/2000/svg">
<path d="M190 175H246V231H190V175Z" fill="#121212"/>
<path d="M190 175H246V231H190V175ZM190 175H166" stroke="#121212" stroke-width="6"/>
<path d="M247 184H266" stroke="#121212" stroke-width="6"/>
<path d="M266 175H322V231H266V175Z" fill="#121212"/>
<path d="M322 175H266V231H322V175ZM322 175H346" stroke="#121212" stroke-width="6"/>
<mask id="mask0_139_2" style="mask-type:alpha" maskUnits="userSpaceOnUse" x="269" y="178" width="50" height="50">
<path d="M269 178H319V228H309.625H269V178Z" fill="#121212"/>
</mask>
<g mask="url(#mask0_139_2)">
<path d="M279.545 178H290L277.455 228H267L279.545 178Z" fill="#FFF">
<animateTransform attributeName="transform" type="translate" dur="4s" repeatCount="indefinite" keyTimes="0;0.8;1" values="-32 0;-32 0;48 0" />
</path>
</g>
<mask id="mask1_139_2" style="mask-type:alpha" maskUnits="userSpaceOnUse" x="193" y="178" width="50" height="50">
<path d="M193 178H243V228H233.625H193V178Z" fill="#121212"/>
</mask>
<g mask="url(#mask1_139_2)">
<path d="M203.545 178H214L201.455 228H191L203.545 178Z" fill="#FFF">
<animateTransform attributeName="transform" type="translate" dur="4s" repeatCount="indefinite" keyTimes="0;0.8;1" values="-32 0;-32 0;48 0" />
</path>
</g>
</svg>
</g></svg>