<svg xmlns="http://www.w3.org/2000/svg" viewBox="0 0 500 500"><g id="layer1"><svg width="512" height="512" viewBox="0 0 512 512" fill="none" xmlns="http://www.w3.org/2000/svg">
<rect width="512" height="512" fill="#00FF94"/>
<path d="M134 178H167V242H146L134 178Z" fill="#E24713"/>
<path d="M378 178H345V242H366L378 178Z" fill="#E24713"/>
<rect x="207" y="346" width="98" height="54" fill="#E24713"/>
<path d="M64 400H448L480 512H32L64 400Z" fill="#F15824"/>
<rect x="166" y="106" width="180" height="240" fill="#F15824"/>
</svg>
</g><g id="layer2"><svg width="512" height="512" viewBox="0 0 512 512" fill="none" xmlns="http://www.w3.org/2000/svg">
<path d="M134 178H166V242H146L134 178Z" fill="#E24713"/>
<path d="M378 178H346V242H366L378 178Z" fill="#E24713"/>
<rect x="207" y="346" width="98" height="54" fill="#E24713"/>
<path d="M64 400H448L480 512H32L64 400Z" fill="#F15824"/>
<rect x="166" y="106" width="180" height="240" fill="#F15824"/>
<path d="M256 218L266 258H246" stroke="#121212" stroke-width="6"/>
</svg>
</g><g id="layer3"><svg width="512" height="512" viewBox="0 0 512 512" fill="none" xmlns="http://www.w3.org/2000/svg">
<path d="M166 64H346V154L166 154V64Z" fill="#121212"/>
<rect x="166" y="154" width="12" height="104" fill="#121212"/>
<rect x="334" y="154" width="12" height="104" fill="#121212"/>
</svg>
</g><g id="layer4"><svg width="512" height="512" viewBox="0 0 512 512" fill="none" xmlns="http://www.w3.org/2000/svg">
<rect x="160" y="404.58" width="16" height="28" transform="rotate(-20 160 404.58)" stroke="#FFB74A" stroke-width="6"/>
<rect width="16" height="28" transform="matrix(-0.939693 -0.34202 -0.34202 0.939693 352.859 404.473)" stroke="#FFB74A" stroke-width="6"/>
<rect x="164.305" y="439" width="16" height="28" transform="rotate(-30 164.305 439)" stroke="#FFB74A" stroke-width="6"/>
<rect width="16" height="28" transform="matrix(-0.866025 -0.5 -0.5 0.866025 348.555 438.893)" stroke="#FFB74A" stroke-width="6"/>
<rect x="184.305" y="464.285" width="16" height="28" transform="rotate(-40 184.305 464.285)" stroke="#FFB74A" stroke-width="6"/>
<rect width="16" height="28" transform="matrix(-0.766044 -0.642788 -0.642788 0.766044 328.555 464.178)" stroke="#FFB74A" stroke-width="6"/>
<rect x="210.307" y="485.795" width="16" height="28" transform="rotate(-60 210.307 485.795)" stroke="#FFB74A" stroke-width="6"/>
<rect width="16" height="28" transform="matrix(-0.5 -0.866025 -0.866025 0.5 302.553 485.688)" stroke="#FFB74A" stroke-width="6"/>
<rect x="242.305" y="502" width="16" height="28" transform="rotate(-90 242.305 502)" stroke="#FFB74A" stroke-width="6"/>
</svg>
</g><g id="layer5"><svg width="512" height="512" viewBox="0 0 512 512" fill="none" xmlns="http://www.w3.org/2000/svg">
<path fill-rule="evenodd" clip-rule="evenodd" d="M346 266H166V349L256 382L346 349V266ZM297 281H215V323H297V281Z" fill="#121212"/>
</svg>
</g><g id="layer6"><svg width="512" height="512" viewBox="0 0 512 512" fill="none" xmlns="http://www.w3.org/2000/svg">
<path d="M216 284H296L292 301L288 317H224L220 301L216 284Z" fill="white"/>
<path d="M220 301L224 317H288L292 301M220 301L216 284H296L292 301M220 301H292" stroke="#121212" stroke-width="6"/>
<g>
<animateTransform attributeName="transform" type="translate" dur="2s" repeatCount="indefinite" keyTimes="0;0.20;0.6;0.8;1" values="-6 0;8 0;8 0;-6 0;-6 0" />
<path d="M311 301L311 275.5M311 301L311 325M311 301H192.5M180 301H192.5M192.5 301L201 285M192.5 301L201 316" stroke="#42B16C" stroke-width="6"/>
<rect x="362" y="281" width="40" height="48" transform="rotate(90 362 281)" fill="#D22D27"/>
<path d="M362 309V321H314V293L362 309Z" fill="#7B0000"/>
</g>
</svg>
</g><g id="layer7"><svg width="512" height="512" viewBox="0 0 512 512" fill="none" xmlns="http://www.w3.org/2000/svg">
    <circle cx="222" cy="194" r="10" fill="#121212">
       
        <animate attributeName="r" dur="4s" repeatCount="indefinite" keyTimes="0;0.05;0.1;0.75;0.8;1" values="10;10;15;15;10;10" />
    </circle>
    <circle cx="290" cy="194" r="10" fill="#121212">
       
        <animate attributeName="r" dur="4s" repeatCount="indefinite" keyTimes="0;0.05;0.1;0.75;0.8;1" values="10;10;15;15;10;10" />
    </circle>
  
    <g transform="translate(0,0)">
        <path d="M206 162H238" stroke="#121212" stroke-width="6">
            <animateTransform attributeName="transform" type="translate" begin="0s" dur="4s" repeatCount="indefinite" keyTimes="0;0.05;0.1;0.75;0.8;1" values="0 0;0 0;-2 -20;-2 -20;0 0;0 0" />
            <animateTransform attributeName="transform" type="rotate" begin="0s" dur="4s" repeatCount="indefinite" keyTimes="0;0.05;0.1;0.75;0.8;1" values="0 222 162;0 222 162;-30 222 162;-30 222 162;0 222 162;0 222 162" additive="sum" />
        </path>
    </g>
    <g transform="translate(0,0)">
        <path d="M274 162H306" stroke="#121212" stroke-width="6">
            <animateTransform attributeName="transform" type="translate" begin="0s" dur="4s" repeatCount="indefinite" keyTimes="0;0.05;0.1;0.75;0.8;1" values="0 0;0 0;2 -20;2 -20;0 0;0 0" />
            <animateTransform attributeName="transform" type="rotate" begin="0s" dur="4s" repeatCount="indefinite" keyTimes="0;0.05;0.1;0.75;0.8;1" values="0 290 162;0 290 162;30 290 162;30 290 162;0 290 162;0 290 162" additive="sum" />
        </path>
    </g>
</svg>
</g><g id="layer8"><svg width="512" height="512" viewBox="0 0 512 512" fill="none" xmlns="http://www.w3.org/2000/svg">
<path d="M182 175H246V195L234 231H182V175Z" fill="#121212"/>
<path d="M182 175H246V195L234 231H182V175ZM182 175H166" stroke="#FFB74A" stroke-width="6"/>
<path d="M247 175H266" stroke="#FFB74A" stroke-width="6"/>
<path d="M247 193H266" stroke="#FFB74A" stroke-width="6"/>
<path d="M266 175H330V231H278L266 195.5V175Z" fill="#121212"/>
<path d="M330 175H266V195.5L278 231H330V175ZM330 175H346" stroke="#FFB74A" stroke-width="6"/>
<mask id="mask0_143_2" style="mask-type:alpha" maskUnits="userSpaceOnUse" x="185" y="178" width="58" height="50">
<path d="M185 178H243V195L232 228H223.188H185V178Z" fill="#121212"/>
</mask>
<g mask="url(#mask0_143_2)">
<path d="M195.545 178H206L193.455 228H183L195.545 178Z" fill="#D9D9D9">
<animateTransform attributeName="transform" type="translate" dur="4s" repeatCount="indefinite" keyTimes="0;0.8;1" values="-32 0;-32 0;48 0" />
</path>
</g>
<mask id="mask1_143_2" style="mask-type:alpha" maskUnits="userSpaceOnUse" x="269" y="178" width="58" height="50">
<path d="M327 178H269V195L280 228H288.812H327V178Z" fill="#121212"/>
</mask>
<g mask="url(#mask1_143_2)">
<path d="M287.545 178H298L285.455 228H275L287.545 178Z" fill="#D9D9D9">
<animateTransform attributeName="transform" type="translate" dur="4s" repeatCount="indefinite" keyTimes="0;0.8;1" values="-32 0;-32 0;48 0" />
</path>
</g>
</svg>
</g></svg>