<svg xmlns="http://www.w3.org/2000/svg" viewBox="0 0 500 500"><g id="layer1"><svg width="512" height="512" viewBox="0 0 512 512" fill="none" xmlns="http://www.w3.org/2000/svg">
<rect width="512" height="512" fill="#0047FF"/>
<path d="M134 178H167V242H146L134 178Z" fill="#E24713"/>
<path d="M378 178H345V242H366L378 178Z" fill="#E24713"/>
<rect x="207" y="346" width="98" height="54" fill="#E24713"/>
<path d="M64 400H448L480 512H32L64 400Z" fill="#F15824"/>
<rect x="166" y="106" width="180" height="240" fill="#F15824"/>
</svg>
</g><g id="layer2"><svg width="512" height="512" viewBox="0 0 512 512" fill="none" xmlns="http://www.w3.org/2000/svg">
<path d="M134 178H166V242H146L134 178Z" fill="#E24713"/>
<path d="M378 178H346V242H366L378 178Z" fill="#E24713"/>
<rect x="207" y="346" width="98" height="54" fill="#E24713"/>
<path d="M64 400H448L480 512H32L64 400Z" fill="#F15824"/>
<rect x="166" y="106" width="180" height="240" fill="#F15824"/>
<path d="M235 118H240L248 142H243L235 118Z" fill="#C13100"/>
<path d="M272 118H277L269 142H264L272 118Z" fill="#C13100"/>
<rect x="250" y="128" width="12" height="4" fill="#C13100"/>
<path d="M250 138L256 132H262L256 138H250Z" fill="#C13100"/>
<rect x="250" y="138" width="12" height="4" fill="#C13100"/>
<path d="M346 126H325V169H302V257.354V346" stroke="#C13100" stroke-width="6"/>
<path d="M166 126H187V169H210V257.354V346" stroke="#C13100" stroke-width="6"/>
<rect x="290.515" y="142" width="12" height="12" transform="rotate(-45 290.515 142)" stroke="#C13100" stroke-width="6"/>
<rect x="316.515" y="305" width="12" height="12" transform="rotate(-45 316.515 305)" stroke="#C13100" stroke-width="6"/>
<rect x="178.515" y="305" width="12" height="12" transform="rotate(-45 178.515 305)" stroke="#C13100" stroke-width="6"/>
<rect x="316.515" y="256" width="12" height="12" transform="rotate(-45 316.515 256)" stroke="#C13100" stroke-width="6"/>
<rect x="178.515" y="256" width="12" height="12" transform="rotate(-45 178.515 256)" stroke="#C13100" stroke-width="6"/>
<rect x="246.515" y="424" width="12" height="12" transform="rotate(-45 246.515 424)" stroke="#C13100" stroke-width="6"/>
<rect x="59.5146" y="486" width="12" height="12" transform="rotate(-45 59.5146 486)" stroke="#C13100" stroke-width="6"/>
<rect x="192.515" y="447" width="12" height="12" transform="rotate(-45 192.515 447)" stroke="#C13100" stroke-width="6"/>
<rect x="301.515" y="447" width="12" height="12" transform="rotate(-45 301.515 447)" stroke="#C13100" stroke-width="6"/>
<rect x="433.515" y="486" width="12" height="12" transform="rotate(-45 433.515 486)" stroke="#C13100" stroke-width="6"/>
<path d="M419.971 483H316.971V489H419.971V483Z" fill="#C13100"/>
<rect width="12" height="12" transform="matrix(-0.707107 -0.707107 -0.707107 0.707107 318.971 486.486)" stroke="#C13100" stroke-width="6"/>
<path d="M92 484H195V490H92V484Z" fill="#C13100"/>
<rect x="193" y="487.486" width="12" height="12" transform="rotate(-45 193 487.486)" stroke="#C13100" stroke-width="6"/>
<rect x="204.515" y="142" width="12" height="12" transform="rotate(-45 204.515 142)" stroke="#C13100" stroke-width="6"/>
<path d="M238 373V363H250V346M238 373V384H250V373H238Z" stroke="#C13100" stroke-width="6"/>
<path d="M274 374V384H262V400M274 374V363H262V374H274Z" stroke="#C13100" stroke-width="6"/>
<path d="M384 428L394 424L400 429L406 424L416 428V438L400 452L384 438V428Z" stroke="#C13100" stroke-width="6"/>
<path d="M250 452V496" stroke="#C13100" stroke-width="6"/>
<path d="M258 452V456" stroke="#C13100" stroke-width="6"/>
<path d="M258 492V496" stroke="#C13100" stroke-width="6"/>
<path d="M270 462L270 471" stroke="#C13100" stroke-width="6"/>
<path d="M270 477L270 486" stroke="#C13100" stroke-width="6"/>
<path d="M243 459H267" stroke="#C13100" stroke-width="6"/>
<path d="M250 474H267" stroke="#C13100" stroke-width="6"/>
<path d="M243 489H267" stroke="#C13100" stroke-width="6"/>
<rect x="124" y="431" width="6" height="6" fill="#C13100"/>
<rect x="118" y="437" width="6" height="6" fill="#C13100"/>
<rect x="104" y="437" width="6" height="6" fill="#C13100"/>
<rect x="130" y="437" width="6" height="6" fill="#C13100"/>
<rect x="124" y="443" width="6" height="6" fill="#C13100"/>
<rect x="96" y="424" width="48" height="32" stroke="#C13100" stroke-width="6"/>
<path d="M256 218L266 258H246" stroke="#121212" stroke-width="6"/>
</svg>
</g><g id="layer3"><svg width="512" height="512" viewBox="0 0 512 512" fill="none" xmlns="http://www.w3.org/2000/svg">
<rect width="180" height="48" transform="matrix(1 0 0 -1 166 154)" fill="#121212"/>
<path d="M322 114L326.702 123.528L337.217 125.056L329.608 132.472L331.405 142.944L322 138L312.595 142.944L314.392 132.472L306.783 125.056L317.298 123.528L322 114Z" fill="#525252"/>
<rect width="180" height="12" transform="matrix(1 0 0 -1 166 166)" fill="#525252"/>
<path d="M135.5 159.5L166 106H268.5L180 187L135.5 159.5Z" fill="#121212"/>
</svg>
</g><g id="layer4"><svg width="512" height="512" viewBox="0 0 512 512" fill="none" xmlns="http://www.w3.org/2000/svg">
<g clip-path="url(#clip0_434_10569)">
<path d="M64 400H165C165 400 157.5 442 207 456C207 478 207 512 207 512H32L64 400Z" fill="#D22D27"/>
<circle cx="185" cy="476" r="6" fill="#FFD600"/>
<circle cx="185" cy="504" r="6" fill="#FFD600"/>
<path d="M448 400H347C347 400 354.5 442 305 456C305 478 305 512 305 512H480L448 400Z" fill="#D22D27"/>
<path d="M251.914 471.778L214.064 421.003L264.377 459.315L298.997 505.936L251.914 471.778Z" fill="#FF784A"/>
<path d="M248.222 459.313L298.997 421.462L260.685 471.776L214.064 506.395L248.222 459.313Z" fill="#FF784A"/>
</g>
<defs>
<clipPath id="clip0_434_10569">
<rect width="512" height="512" fill="white"/>
</clipPath>
</defs>
</svg>
</g><g id="layer5"><svg width="512" height="512" viewBox="0 0 512 512" fill="none" xmlns="http://www.w3.org/2000/svg">
<path d="M204 270H308L324 290H188L204 270Z" fill="#121212"/>
</svg>
</g><g id="layer6"><svg width="512" height="512" viewBox="0 0 512 512" fill="none" xmlns="http://www.w3.org/2000/svg">
<path d="M230.711 302H280" stroke="#121212" stroke-width="6"/>
<path d="M271 325C282.046 325 291 316.046 291 305H251C251 316.046 259.954 325 271 325Z" fill="#FF00B1"/>
<path d="M271 319C278.732 319 285 312.732 285 305H257C257 312.732 263.268 319 271 319Z" fill="#AD00FF"/>
<path d="M271 313C275.418 313 279 309.418 279 305H263C263 309.418 266.582 313 271 313Z" fill="#FFB039"/>
<path d="M251 302H248V305C248 317.703 258.297 328 271 328C283.703 328 294 317.703 294 305V302H291H251Z" stroke="#1D1D1D" stroke-width="6"/>
<path d="M284.229 320L330 369" stroke="#1D1D1D" stroke-width="6">
<animateTransform attributeName="transform" type="rotate" dur="4s" repeatCount="indefinite" keyTimes="0;0.1;0.5;0.6;1" values="0 270 300;90 270 300;90 270 300; 0 270 300; 0 270 300;" />
</path>
</svg>
</g><g id="layer7"><svg width="512" height="512" viewBox="0 0 512 512" fill="none" xmlns="http://www.w3.org/2000/svg">
  <rect x="212" y="194" width="20" height="20" rx="10" fill="#121212">
    <animate attributeName="rx" values="10;10;1;10;10;1;10;10;" keyTimes="0;0.275;0.3;0.325;0.725;0.75;0.775;1" dur="4s" repeatCount="indefinite" />
    <animate attributeName="height" values="20;20;2;20;20;2;20;20" keyTimes="0;0.275;0.3;0.325;0.725;0.75;0.775;1" dur="4s" repeatCount="indefinite" />
    <animate attributeName="y" values="194;194;203;194;194;203;194;194" keyTimes="0;0.275;0.3;0.325;0.725;0.75;0.775;1" dur="4s" repeatCount="indefinite" />
  </rect>
  <rect x="280" y="194" width="20" height="20" rx="10" fill="#121212">
    <animate attributeName="rx" values="10;10;1;10;10;1;10;10" keyTimes="0;0.275;0.3;0.325;0.725;0.75;0.775;1" dur="4s" repeatCount="indefinite" />
    <animate attributeName="height" values="20;20;2;20;20;2;20;20" keyTimes="0;0.275;0.3;0.325;0.725;0.75;0.775;1" dur="4s" repeatCount="indefinite" />
    <animate attributeName="y" values="194;194;203;194;194;203;194;194" keyTimes="0;0.275;0.3;0.325;0.725;0.75;0.775;1" dur="4s" repeatCount="indefinite" />
  </rect>
  <path d="M206 162H238" stroke="#121212" stroke-width="6"/>
  <path d="M274 162H306" stroke="#121212" stroke-width="6"/>
</svg>
</g><g id="layer8"><svg width="512" height="512" viewBox="0 0 512 512" fill="none" xmlns="http://www.w3.org/2000/svg">
<rect x="166" y="190" width="84" height="12" fill="#121212"/>
<rect x="262" y="190" width="84" height="12" fill="#121212"/>
<rect x="274" y="202" width="60" height="12" fill="#121212"/>
<rect x="286" y="214" width="36" height="12" fill="#121212"/>
<rect x="178" y="202" width="60" height="12" fill="#121212"/>
<rect x="190" y="214" width="36" height="12" fill="#121212"/>
<rect x="166" y="178" width="180" height="12" fill="#121212"/>
<mask id="mask0_146_35" style="mask-type:alpha" maskUnits="userSpaceOnUse" x="166" y="190" width="84" height="36">
<rect x="166" y="190" width="84" height="12" fill="#121212"/>
<rect x="178" y="202" width="60" height="12" fill="#121212"/>
<rect x="190" y="214" width="36" height="12" fill="#121212"/>
</mask>
<g mask="url(#mask0_146_35)">
<g>
<animateTransform attributeName="transform" type="translate" dur="4s" repeatCount="indefinite" keyTimes="0;0.8;1" values="-32 0;-32 0;68 0" />
<rect x="178" y="190" width="12" height="12" fill="white"/>
<rect x="190" y="202" width="12" height="12" fill="white"/>
<rect x="202" y="214" width="12" height="12" fill="white"/>
</g>
</g>
<mask id="mask1_146_35" style="mask-type:alpha" maskUnits="userSpaceOnUse" x="262" y="190" width="84" height="36">
<rect x="262" y="190" width="84" height="12" fill="#121212"/>
<rect x="274" y="202" width="60" height="12" fill="#121212"/>
<rect x="286" y="214" width="36" height="12" fill="#121212"/>
</mask>
<g mask="url(#mask1_146_35)">
<g>
<animateTransform attributeName="transform" type="translate" dur="4s" repeatCount="indefinite" keyTimes="0;0.8;1" values="-32 0;-32 0;68 0" />
<rect x="274" y="190" width="12" height="12" fill="white"/>
<rect x="286" y="202" width="12" height="12" fill="white"/>
<rect x="298" y="214" width="12" height="12" fill="white"/>
</g>
</g>
</svg>
</g></svg>