<svg xmlns="http://www.w3.org/2000/svg" viewBox="0 0 500 500"><g id="layer1"><svg width="512" height="512" viewBox="0 0 512 512" fill="none" xmlns="http://www.w3.org/2000/svg">
<rect width="512" height="512" fill="#007089"/>
<path d="M134 178H167V242H146L134 178Z" fill="#E24713"/>
<path d="M378 178H345V242H366L378 178Z" fill="#E24713"/>
<rect x="207" y="346" width="98" height="54" fill="#E24713"/>
<path d="M64 400H448L480 512H32L64 400Z" fill="#F15824"/>
<rect x="166" y="106" width="180" height="240" fill="#F15824"/>
</svg>
</g><g id="layer2"><svg width="512" height="512" viewBox="0 0 512 512" fill="none" xmlns="http://www.w3.org/2000/svg">
<path d="M134 178H166V242H146L134 178Z" fill="#E24713"/>
<path d="M378 178H346V242H366L378 178Z" fill="#E24713"/>
<rect x="207" y="346" width="98" height="54" fill="#E24713"/>
<path d="M64 400H448L480 512H32L64 400Z" fill="#F15824"/>
<path d="M42.0001 477L35.4287 500L106 489L42.0001 477Z" fill="#1D1D1D"/>
<path d="M476.286 499L470.286 478L405 488.5L476.286 499Z" fill="#1D1D1D"/>
<path d="M466.429 464.5L460.857 445L425.5 456.5L466.429 464.5Z" fill="#1D1D1D"/>
<path d="M51.1427 445L45.5713 464.5L87 456.5L51.1427 445Z" fill="#1D1D1D"/>
<rect x="136" y="456" width="240" height="56" fill="#FF6F3F"/>
<rect x="166" y="106" width="180" height="240" fill="#F15824"/>
<path d="M96 400H80L88 424L96 400Z" fill="#1D1D1D"/>
<path d="M158 178H142L150 194L158 178Z" fill="#1D1D1D"/>
<path d="M370 178H354L362 194L370 178Z" fill="#1D1D1D"/>
<path d="M210 106H194L202 130L210 106Z" fill="#1D1D1D"/>
<path d="M342 400H326L334 440L342 400Z" fill="#1D1D1D"/>
<path d="M141 400H125L133 432L141 400Z" fill="#1D1D1D"/>
<path d="M264 106H248L256 146L264 106Z" fill="#1D1D1D"/>
<path d="M387 400H371L379 432L387 400Z" fill="#1D1D1D"/>
<path d="M186 400H170L178 440L186 400Z" fill="#1D1D1D"/>
<path d="M318 106H302L310 130L318 106Z" fill="#1D1D1D"/>
<path d="M432 400H416L424 424L432 400Z" fill="#1D1D1D"/>
<path d="M190 262L166 254V270L190 262Z" fill="#1D1D1D"/>
<path d="M190 154L166 146V162L190 154Z" fill="#1D1D1D"/>
<path d="M231 362L207 354V370L231 362Z" fill="#1D1D1D"/>
<path d="M281 362L305 354V370L281 362Z" fill="#1D1D1D"/>
<path d="M231 385L207 377V393L231 385Z" fill="#1D1D1D"/>
<path d="M281 385L305 377V393L281 385Z" fill="#1D1D1D"/>
<path d="M322 262L346 254V270L322 262Z" fill="#1D1D1D"/>
<path d="M322 154L346 146V162L322 154Z" fill="#1D1D1D"/>
<path d="M198 294L166 286V302L198 294Z" fill="#1D1D1D"/>
<path d="M314 294L346 286V302L314 294Z" fill="#1D1D1D"/>
<path d="M214 326L166 318V334L214 326Z" fill="#1D1D1D"/>
<path d="M298 326L346 318V334L298 326Z" fill="#1D1D1D"/>
<path d="M256 218L266 258H246" stroke="#121212" stroke-width="6"/>
</svg>
</g><g id="layer3"><svg width="512" height="512" viewBox="0 0 512 512" fill="none" xmlns="http://www.w3.org/2000/svg">
<path d="M166 64H346V154L166 154V64Z" fill="#121212"/>
<path d="M334 135H364V178H334V135Z" fill="#121212"/>
<path d="M178 135H148V178H178V135Z" fill="#121212"/>
<rect x="166" y="154" width="12" height="104" fill="#121212"/>
<rect x="334" y="154" width="12" height="104" fill="#121212"/>
</svg>
</g><g id="layer4"><svg width="512" height="512" viewBox="0 0 512 512" fill="none" xmlns="http://www.w3.org/2000/svg">
<path d="M64 400H207L257 439L305 400H448L480 512H32L64 400Z" fill="white"/>
<path d="M65.5 457L50.5 512H114L98 485.5L80 493.5L65.5 457Z" fill="#00FF94"/>
<path d="M121.5 413H91.5L84 445H127L116 433L121.5 413Z" fill="#FFD600"/>
<path d="M143 462.5V436.5L163 439.5L167 419L200.5 472.5L177.5 485.5H114.5L143 462.5Z" fill="#D22D27"/>
<path d="M263.5 495.5L252 471L186 512H279.5L294.5 486L263.5 495.5Z" fill="#00B2FE"/>
<path d="M365 417L351 435L370 454.5H410.5L444 478L421.5 417H365Z" fill="#42B06C"/>
<path d="M342.5 448L328.5 474.5L379 500.5L403.5 469H359.5L342.5 448Z" fill="#FF9900"/>
<path d="M416 482L399.5 502.5H454.5L416 482Z" fill="#F15824"/>
<path d="M257 439L215.5 466.5L179.5 400L207 380L257 439Z" fill="#D8D8D8"/>
<path d="M257 439L298.5 466.5L334.5 400L305 380L257 439Z" fill="#D8D8D8"/>
</svg>
</g><g id="layer5"><svg></svg></g><g id="layer6"><svg width="512" height="512" viewBox="0 0 512 512" fill="none" xmlns="http://www.w3.org/2000/svg">
<path d="M216 284H296L292 301L288 317H224L220 301L216 284Z" fill="white"/>
<path d="M220 301L224 317H288L292 301M220 301L216 284H296L292 301M220 301H292" stroke="#121212" stroke-width="6"/>
<g>
<animateTransform attributeName="transform" type="translate" dur="2s" repeatCount="indefinite" keyTimes="0;0.20;0.6;0.8;1" values="-8 0;16 0;16 0;-8 0;-8 0" />
<rect width="24" height="64" transform="matrix(0 -1 -1 0 185 313)" fill="#2D2D2D"/>
<path d="M199.785 325H187.83V301M199.785 277H187.83V301M187.83 301H319" stroke="#2D2D2D" stroke-width="6"/>
<path d="M118 317V301V285" stroke="#2D2D2D" stroke-width="6"/>
</g>
</svg>
</g><g id="layer7"><svg width="512" height="512" viewBox="0 0 512 512" fill="none" xmlns="http://www.w3.org/2000/svg">
    <rect x="212" y="194" width="20" height="20" rx="10" fill="#121212"/>
    <rect x="280" y="194" width="20" height="20" rx="10" fill="#121212">
        <animate attributeName="y" dur="4s" repeatCount="indefinite" keyTimes="0;0.475;0.5;0.575;0.6;1" values="194;194;203;203;194;194" />
        <animate attributeName="height" dur="4s" repeatCount="indefinite" keyTimes="0;0.475;0.5;0.575;0.6;1" values="20;20;2;2;20;20" />
        <animate attributeName="rx" dur="4s" repeatCount="indefinite" keyTimes="0;0.475;0.5;0.575;0.6;1" values="10;10;1;1;10;10" />
    </rect>
    <path id="path1" d="M206 162H238" stroke="#121212" stroke-width="6"/>
    <g transform="translate(0,0)">
        <path id="path2" d="M274 162H306" stroke="#121212" stroke-width="6">
            <animateTransform attributeName="transform" type="translate" begin="0s" dur="4s" repeatCount="indefinite" keyTimes="0;0.475;0.5;0.575;0.6;1" values="0 0;0 0;0 5;0 5;0 0;0 0" />
            <animateTransform attributeName="transform" type="rotate" begin="0s" dur="4s" repeatCount="indefinite" keyTimes="0;0.475;0.5;0.575;0.6;1" values="0 274 162;0 274 162;10 274 162;10 274 162;0 274 162;0 274 162" additive="sum" />
        </path>
    </g>
</svg>
</g><g id="layer8"><svg width="512" height="512" viewBox="0 0 512 512" fill="none" xmlns="http://www.w3.org/2000/svg">
<path d="M192 203V203C192 218.464 204.536 231 220 231V231C235.464 231 248 218.464 248 203V203C248 187.536 235.464 175 220 175V175V175C204.536 175 192 187.536 192 203V203ZM192 203L164 176" stroke="#121212" stroke-width="6"/>
<path d="M248 202H264" stroke="#121212" stroke-width="6"/>
<path d="M320 203V203C320 187.536 307.464 175 292 175V175V175C276.536 175 264 187.536 264 203V203C264 218.464 276.536 231 292 231V231C307.464 231 320 218.464 320 203V203ZM320 203L348 176" stroke="#121212" stroke-width="6"/>
<mask id="mask0_140_21" style="mask-type:alpha" maskUnits="userSpaceOnUse" x="267" y="178" width="50" height="50">
<circle cx="292" cy="203" r="25" fill="#D9D9D9"/>
</mask>
<g mask="url(#mask0_140_21)">
<path d="M275.545 178H286L273.455 228H263L275.545 178Z" fill="#D9D9D9">
<animateTransform attributeName="transform" type="translate" dur="4s" repeatCount="indefinite" keyTimes="0;0.8;1" values="-32 0;-32 0;48 0" />
</path>
</g>
<mask id="mask1_140_21" style="mask-type:alpha" maskUnits="userSpaceOnUse" x="195" y="178" width="50" height="50">
<circle cx="220" cy="203" r="25" fill="#D9D9D9"/>
</mask>
<g mask="url(#mask1_140_21)">
<path d="M203.545 178H214L201.455 228H191L203.545 178Z" fill="#D9D9D9">
<animateTransform attributeName="transform" type="translate" dur="4s" repeatCount="indefinite" keyTimes="0;0.8;1" values="-32 0;-32 0;48 0" />
</path>
</g>
</svg>
</g></svg>