<svg xmlns="http://www.w3.org/2000/svg" viewBox="0 0 500 500"><g id="layer1"><svg width="512" height="512" viewBox="0 0 512 512" fill="none" xmlns="http://www.w3.org/2000/svg">
<rect width="512" height="512" fill="#7B0000"/>
<path d="M134 178H167V242H146L134 178Z" fill="#E24713"/>
<path d="M378 178H345V242H366L378 178Z" fill="#E24713"/>
<rect x="207" y="346" width="98" height="54" fill="#E24713"/>
<path d="M64 400H448L480 512H32L64 400Z" fill="#F15824"/>
<rect x="166" y="106" width="180" height="240" fill="#F15824"/>
</svg>
</g><g id="layer2"><svg width="512" height="512" viewBox="0 0 512 512" fill="none" xmlns="http://www.w3.org/2000/svg">
<mask id="mask0_34_133" style="mask-type:alpha" maskUnits="userSpaceOnUse" x="32" y="106" width="448" height="406">
<path fill-rule="evenodd" clip-rule="evenodd" d="M207 346H166V242H146L134 178H166L166 106L346 106V178H378L366 242H346V346L305 346V400H448L480 512H32L64 400H207V346Z" fill="#F15824"/>
</mask>
<g mask="url(#mask0_34_133)">
<circle cx="256" cy="-40" r="950" fill="#F15824">
<animate attributeName="cy" values="-40;-400;-40" keyTimes="0;0.5;1" dur="20s" repeatCount="indefinite"/>
</circle>
<circle cx="256" cy="-40" r="900" fill="#C2FD52">
<animate attributeName="cy" values="-40;-400;-40" keyTimes="0;0.5;1" dur="20s" repeatCount="indefinite"/>
</circle>
<circle cx="256" cy="-40" r="850" fill="#AD00FF">
<animate attributeName="cy" values="-40;-400;-40" keyTimes="0;0.5;1" dur="20s" repeatCount="indefinite"/>
</circle>
<circle cx="256" cy="-40" r="800" fill="#00A8FF">
<animate attributeName="cy" values="-40;-400;-40" keyTimes="0;0.5;1" dur="20s" repeatCount="indefinite"/>
</circle>
<circle cx="256" cy="-40" r="750" fill="#C2FD52">
<animate attributeName="cy" values="-40;-400;-40" keyTimes="0;0.5;1" dur="20s" repeatCount="indefinite"/>
</circle>
<circle cx="256" cy="-40" r="700" fill="#D22D27">
<animate attributeName="cy" values="-40;-400;-40" keyTimes="0;0.5;1" dur="20s" repeatCount="indefinite"/>
</circle>
<circle cx="256" cy="-40" r="650" fill="#FFB74A">
<animate attributeName="cy" values="-40;-400;-40" keyTimes="0;0.5;1" dur="20s" repeatCount="indefinite"/>
</circle>
<circle cx="256" cy="-40" r="600" fill="#F15824">
<animate attributeName="cy" values="-40;-400;-40" keyTimes="0;0.5;1" dur="20s" repeatCount="indefinite"/>
</circle>
<circle cx="256" cy="-40" r="550" fill="#C2FD52">
<animate attributeName="cy" values="-40;-400;-40" keyTimes="0;0.5;1" dur="20s" repeatCount="indefinite"/>
</circle>
<circle cx="256" cy="-40" r="500" fill="#FF00B1">
<animate attributeName="cy" values="-40;-400;-40" keyTimes="0;0.5;1" dur="20s" repeatCount="indefinite"/>
</circle>
<circle cx="256" cy="-40" r="450" fill="#AD00FF">
<animate attributeName="cy" values="-40;-400;-40" keyTimes="0;0.5;1" dur="20s" repeatCount="indefinite"/>
</circle>
<circle cx="256" cy="-40" r="400" fill="#00A8FF">
<animate attributeName="cy" values="-40;-400;-40" keyTimes="0;0.5;1" dur="20s" repeatCount="indefinite"/>
</circle>
<circle cx="256" cy="-40" r="350" fill="#C2FD52">
<animate attributeName="cy" values="-40;-400;-40" keyTimes="0;0.5;1" dur="20s" repeatCount="indefinite"/>
</circle>
<circle cx="256" cy="-40" r="300" fill="#D22D27">
<animate attributeName="cy" values="-40;-400;-40" keyTimes="0;0.5;1" dur="20s" repeatCount="indefinite"/>
</circle>
<circle cx="256" cy="-40" r="250" fill="#FFB74A">
<animate attributeName="cy" values="-40;-400;-40" keyTimes="0;0.5;1" dur="20s" repeatCount="indefinite"/>
</circle>
<circle cx="256" cy="-40" r="200" fill="#F15824">
<animate attributeName="cy" values="-40;-400;-40" keyTimes="0;0.5;1" dur="20s" repeatCount="indefinite"/>
</circle>
</g>
<path d="M256 218L266 258H246" stroke="#121212" stroke-width="6"/>
</svg>
</g><g id="layer3"><svg width="512" height="512" viewBox="0 0 512 512" fill="none" xmlns="http://www.w3.org/2000/svg">
<path d="M301 66L268 103H334L301 66Z" fill="#C9BBC3"/>
<path d="M210 66L177 103H243L210 66Z" fill="#C9BBC3"/>
<rect width="180" height="24" transform="matrix(1 0 0 -1 166 162)" fill="#C9BBC3"/>
<path d="M166 138H346V102V52.5L301 102L255 52.5L211 102L166 52.5V102V138Z" fill="#D8D8D8"/>
<path d="M238 112.439L256.486 94L274 112.439L256.486 130L238 112.439Z" fill="#00A8FF"/>
<path d="M335 112.268L346 101V123L335 112.268Z" fill="#D22D27"/>
<path d="M177 112.268L166 101V123L177 112.268Z" fill="#D22D27"/>
<circle cx="167" cy="48" r="12" fill="#C9BBC3"/>
<circle cx="256" cy="48" r="12" fill="#C9BBC3"/>
<circle cx="345" cy="48" r="12" fill="#C9BBC3"/>
</svg>
</g><g id="layer4"><svg width="512" height="512" viewBox="0 0 512 512" fill="none" xmlns="http://www.w3.org/2000/svg">
<path d="M64 400H448L480 512H32L64 400Z" fill="#F15824"/>
<rect x="207" y="372" width="36" height="28" fill="#121212"/>
<rect x="269" y="372" width="36" height="28" fill="#121212"/>
<path d="M64 400H448L480 512H32L64 400Z" fill="#121212"/>
<path d="M340 448L347.629 472H351.857L344.292 448H340ZM376.078 448L368.068 472H372.36L380.307 448H376.079H376.078ZM353.653 460.652H359.853L353.113 469.139V472H366.591V467.899H360.018L366.814 459.412V456.551H353.653V460.652Z" fill="#D22D27"/>
<path d="M256 400L256 512" stroke="#2D2D2D" stroke-width="6"/>
<circle cx="274" cy="427" r="6" fill="#D22D27"/>
<circle cx="274" cy="459" r="6" fill="#D22D27"/>
<circle cx="274" cy="491" r="6" fill="#D22D27"/>
<rect x="328" y="472" width="64" height="16" fill="#2D2D2D"/>
</svg>
</g><g id="layer5"><svg></svg></g><g id="layer6"><svg width="512" height="512" viewBox="0 0 512 512" fill="none" xmlns="http://www.w3.org/2000/svg">
<path d="M228 282H261.5H284" stroke="#121212" stroke-width="6"/>
<path d="M284 301.25V282H261.5V301.25C261.5 307.463 266.537 312.5 272.75 312.5C278.963 312.5 284 307.463 284 301.25Z" fill="#D22D27" stroke="#121212" stroke-width="6"/>
</svg>
</g><g id="layer7"><svg width="512" height="512" viewBox="0 0 512 512" fill="none" xmlns="http://www.w3.org/2000/svg">
    <circle cx="222" cy="194" r="10" fill="#121212">
       
        <animate attributeName="r" dur="4s" repeatCount="indefinite" keyTimes="0;0.05;0.1;0.75;0.8;1" values="10;10;15;15;10;10" />
    </circle>
    <circle cx="290" cy="194" r="10" fill="#121212">
       
        <animate attributeName="r" dur="4s" repeatCount="indefinite" keyTimes="0;0.05;0.1;0.75;0.8;1" values="10;10;15;15;10;10" />
    </circle>
  
    <g transform="translate(0,0)">
        <path d="M206 162H238" stroke="#121212" stroke-width="6">
            <animateTransform attributeName="transform" type="translate" begin="0s" dur="4s" repeatCount="indefinite" keyTimes="0;0.05;0.1;0.75;0.8;1" values="0 0;0 0;-2 -20;-2 -20;0 0;0 0" />
            <animateTransform attributeName="transform" type="rotate" begin="0s" dur="4s" repeatCount="indefinite" keyTimes="0;0.05;0.1;0.75;0.8;1" values="0 222 162;0 222 162;-30 222 162;-30 222 162;0 222 162;0 222 162" additive="sum" />
        </path>
    </g>
    <g transform="translate(0,0)">
        <path d="M274 162H306" stroke="#121212" stroke-width="6">
            <animateTransform attributeName="transform" type="translate" begin="0s" dur="4s" repeatCount="indefinite" keyTimes="0;0.05;0.1;0.75;0.8;1" values="0 0;0 0;2 -20;2 -20;0 0;0 0" />
            <animateTransform attributeName="transform" type="rotate" begin="0s" dur="4s" repeatCount="indefinite" keyTimes="0;0.05;0.1;0.75;0.8;1" values="0 290 162;0 290 162;30 290 162;30 290 162;0 290 162;0 290 162" additive="sum" />
        </path>
    </g>
</svg>
</g><g id="layer8"><svg width="512" height="512" viewBox="0 0 512 512" fill="none" xmlns="http://www.w3.org/2000/svg">
<path fill-rule="evenodd" clip-rule="evenodd" d="M191.902 149.155C164.845 153.718 148 178.232 148 205.67C148 235.178 167.302 262.947 196.81 263C209.076 263.022 221.301 261.094 230.328 255.247C235.39 251.968 238.114 248.026 240.554 244.494C244.141 239.303 247.114 235 256 235C264.886 235 267.859 239.303 271.446 244.494C273.886 248.026 276.61 251.968 281.672 255.247C290.699 261.094 302.924 263.022 315.19 263C344.698 262.947 364 235.178 364 205.67C364 178.232 347.155 153.718 320.098 149.155C303.115 146.291 281.547 144 256 144C230.453 144 208.885 146.291 191.902 149.155ZM198.719 172.11C184.104 174.524 174 187.405 174 202.218C174 216.943 183.992 230.025 198.65 231.425C210.777 232.584 224.446 232.359 232.311 227.244C234.953 225.526 237.508 223.034 240.099 220.508C245.002 215.727 250.03 210.824 256 210.824C261.97 210.824 266.998 215.727 271.901 220.508C274.492 223.034 277.047 225.526 279.689 227.244C287.554 232.359 301.223 232.584 313.35 231.425C328.008 230.025 338 216.943 338 202.218C338 187.405 327.896 174.524 313.281 172.11C297.921 169.574 277.129 167 256 167C234.871 167 214.079 169.574 198.719 172.11Z" fill="#121212"/>
<path d="M174 202.218C174 187.405 184.104 174.524 198.719 172.11C214.079 169.574 234.871 167 256 167C277.129 167 297.921 169.574 313.281 172.11C327.896 174.524 338 187.405 338 202.218C338 216.943 328.008 230.025 313.35 231.425C301.223 232.584 287.554 232.359 279.689 227.244C272.047 222.275 265.124 210.824 256 210.824C246.876 210.824 239.953 222.275 232.311 227.244C224.446 232.359 210.777 232.584 198.65 231.425C183.992 230.025 174 216.943 174 202.218Z" fill="#0047FF" fill-opacity="0.6">
<animate attributeName="fill" dur="4s" repeatCount="indefinite" keyTimes="0;0.25;0.5;0.75;1" values="#0732A0;#9129E3;#4378FF;#0732A0;#0732A0" />
</path>
</svg>
</g></svg>