<svg xmlns="http://www.w3.org/2000/svg" viewBox="0 0 500 500"><g id="layer1"><svg width="512" height="512" viewBox="0 0 512 512" fill="none" xmlns="http://www.w3.org/2000/svg">
<rect width="512" height="512" fill="#007089"/>
<path d="M134 178H167V242H146L134 178Z" fill="#E24713"/>
<path d="M378 178H345V242H366L378 178Z" fill="#E24713"/>
<rect x="207" y="346" width="98" height="54" fill="#E24713"/>
<path d="M64 400H448L480 512H32L64 400Z" fill="#F15824"/>
<rect x="166" y="106" width="180" height="240" fill="#F15824"/>
</svg>
</g><g id="layer2"><svg width="512" height="512" viewBox="0 0 512 512" fill="none" xmlns="http://www.w3.org/2000/svg">
<path d="M134 178H166V242H146L134 178Z" fill="#E24713"/>
<path d="M378 178H346V242H366L378 178Z" fill="#E24713"/>
<rect x="207" y="346" width="98" height="54" fill="#E24713"/>
<path d="M64 400H448L480 512H32L64 400Z" fill="#F15824"/>
<rect x="166" y="106" width="180" height="240" fill="#F15824"/>
<path d="M256 218L266 258H246" stroke="#121212" stroke-width="6"/>
</svg>
</g><g id="layer3"><svg width="512" height="512" viewBox="0 0 512 512" fill="none" xmlns="http://www.w3.org/2000/svg">
<path d="M239 82.9706L255.971 42L272.941 82.9706L255.971 99.9411L239 82.9706Z" fill="#D22D27"/>
<path d="M239 82.9706L255.971 42L272.941 82.9706L255.971 99.9411L239 82.9706Z" fill="#D22D27"/>
<path d="M246.31 85.8101L256.022 62.4778L265.62 85.7627L255.941 95.4411L246.31 85.8101Z" fill="#FF9900"/>
<path d="M277 82.9706L293.971 42L310.941 82.9706L293.971 99.9411L277 82.9706Z" fill="#D22D27"/>
<path d="M312.723 76.7817L325.059 47L337.395 76.7817L325.059 89.1177L312.723 76.7817Z" fill="#D22D27"/>
<path d="M202 82.9706L218.971 42L235.941 82.9706L218.971 99.9411L202 82.9706Z" fill="#D22D27"/>
<path d="M177.723 73.7817L190.059 44L202.395 73.7817L190.059 86.1177L177.723 73.7817Z" fill="#D22D27"/>
<path d="M159.664 61.7522L169.088 39L178.513 61.7522L169.088 71.1765L159.664 61.7522Z" fill="#D22D27"/>
<path d="M249.611 35.7436L256.132 20L262.654 35.7436L256.132 42.2649L249.611 35.7436Z" fill="#D22D27"/>
<path d="M234.611 35.7436L241.132 20L247.654 35.7436L241.132 42.2649L234.611 35.7436Z" fill="#D22D27"/>
<path d="M219.611 37.7436L226.132 22L232.654 37.7436L226.132 44.2649L219.611 37.7436Z" fill="#D22D27"/>
<path d="M204.611 38.7436L211.132 23L217.654 38.7436L211.132 45.2649L204.611 38.7436Z" fill="#D22D27"/>
<path d="M191.611 41.7436L198.132 26L204.654 41.7436L198.132 48.2649L191.611 41.7436Z" fill="#D22D27"/>
<path d="M174.611 44.7436L181.132 29L187.654 44.7436L181.132 51.2649L174.611 44.7436Z" fill="#D22D27"/>
<path d="M264.611 35.7436L271.132 20L277.654 35.7436L271.132 42.2649L264.611 35.7436Z" fill="#D22D27"/>
<path d="M279.611 36.7436L286.132 21L292.654 36.7436L286.132 43.2649L279.611 36.7436Z" fill="#D22D27"/>
<path d="M295.611 39.7436L302.132 24L308.654 39.7436L302.132 46.2649L295.611 39.7436Z" fill="#D22D27"/>
<path d="M310.611 41.7436L317.132 26L323.654 41.7436L317.132 48.2649L310.611 41.7436Z" fill="#D22D27"/>
<path d="M326.611 46.7436L333.132 31L339.654 46.7436L333.132 53.2649L326.611 46.7436Z" fill="#D22D27"/>
<path d="M336.664 61.7522L346.088 39L355.513 61.7522L346.088 71.1765L336.664 61.7522Z" fill="#D22D27"/>
<path d="M283.81 85.3324L293.522 62L303.12 85.2849L293.441 94.9634L283.81 85.3324Z" fill="#FF9900"/>
<path d="M208.81 85.3324L218.522 62L228.12 85.2849L218.441 94.9634L208.81 85.3324Z" fill="#FF9900"/>
<path d="M182.054 75.3149L189.261 58L196.383 75.2797L189.201 82.4621L182.054 75.3149Z" fill="#FF9900"/>
<path d="M163.658 62.5331L168.875 50L174.03 62.5076L168.831 67.7065L163.658 62.5331Z" fill="#FF9900"/>
<path d="M177.447 45.3848L180.938 37L184.386 45.3678L180.908 48.8459L177.447 45.3848Z" fill="#FF9900"/>
<path d="M194.447 42.3848L197.938 34L201.386 42.3678L197.908 45.8459L194.447 42.3848Z" fill="#FF9900"/>
<path d="M207.447 39.3848L210.938 31L214.386 39.3678L210.908 42.8459L207.447 39.3848Z" fill="#FF9900"/>
<path d="M222.447 38.3848L225.938 30L229.386 38.3678L225.908 41.8459L222.447 38.3848Z" fill="#FF9900"/>
<path d="M237.447 36.3848L240.938 28L244.386 36.3678L240.908 39.8459L237.447 36.3848Z" fill="#FF9900"/>
<path d="M252.447 36.3848L255.938 28L259.386 36.3678L255.908 39.8459L252.447 36.3848Z" fill="#FF9900"/>
<path d="M267.447 36.3848L270.938 28L274.386 36.3678L270.908 39.8459L267.447 36.3848Z" fill="#FF9900"/>
<path d="M282.447 37.3848L285.938 29L289.386 37.3678L285.908 40.8459L282.447 37.3848Z" fill="#FF9900"/>
<path d="M298.447 40.3848L301.938 32L305.386 40.3678L301.908 43.8459L298.447 40.3848Z" fill="#FF9900"/>
<path d="M313.447 42.3848L316.938 34L320.386 42.3678L316.908 45.8459L313.447 42.3848Z" fill="#FF9900"/>
<path d="M329.447 47.3848L332.938 39L336.386 47.3678L332.908 50.8459L329.447 47.3848Z" fill="#FF9900"/>
<path d="M318.054 77.3149L325.261 60L332.383 77.2797L325.201 84.4621L318.054 77.3149Z" fill="#FF9900"/>
<path d="M340.658 63.5331L345.875 51L351.03 63.5076L345.831 68.7065L340.658 63.5331Z" fill="#FF9900"/>
</svg>
</g><g id="layer4"><svg width="512" height="512" viewBox="0 0 512 512" fill="none" xmlns="http://www.w3.org/2000/svg">
<rect x="207" y="346" width="98" height="54" fill="#121212"/>
<path d="M64 400H448L480 512H32L64 400Z" fill="#121212"/>
<path d="M338 456L345.629 480H349.857L342.292 456H338ZM374.078 456L366.068 480H370.36L378.307 456H374.079H374.078ZM351.653 468.652H357.853L351.113 477.139V480H364.591V475.899H358.018L364.814 467.412V464.551H351.653V468.652Z" fill="#2D2D2D"/>
<path d="M256 362V512" stroke="#5B6062" stroke-width="6"/>
<rect x="248" y="346" width="16" height="16" fill="#5B6062"/>
</svg>
</g><g id="layer5"><svg></svg></g><g id="layer6"><svg width="512" height="512" viewBox="0 0 512 512" fill="none" xmlns="http://www.w3.org/2000/svg">
<path d="M230.711 302H280" stroke="#121212" stroke-width="6"/>
<path d="M360.711 348.964L346.268 368.131L284.113 321.294L258.419 301.978L298.556 302.127L360.711 348.964Z" fill="#77492D"/>
<path d="M360.711 348.964L363.107 350.77L364.913 348.374L362.517 346.568L360.711 348.964ZM346.268 368.131L344.462 370.527L346.858 372.333L348.664 369.937L346.268 368.131ZM284.113 321.294L285.918 318.898L285.916 318.896L284.113 321.294ZM298.556 302.127L300.362 299.731L299.565 299.131L298.568 299.127L298.556 302.127ZM258.419 301.978L258.43 298.978C257.138 298.973 255.987 299.797 255.576 301.023C255.164 302.248 255.583 303.599 256.617 304.376L258.419 301.978ZM358.316 347.159L343.872 366.326L348.664 369.937L363.107 350.77L358.316 347.159ZM348.073 365.735L285.918 318.898L282.307 323.69L344.462 370.527L348.073 365.735ZM296.751 304.523L358.906 351.36L362.517 346.568L300.362 299.731L296.751 304.523ZM285.916 318.896L260.222 299.58L256.617 304.376L282.31 323.692L285.916 318.896ZM258.408 304.978L298.545 305.127L298.568 299.127L258.43 298.978L258.408 304.978Z" fill="#121212"/>
<rect x="361.184" y="349.32" width="24" height="12.1288" transform="rotate(127 361.184 349.32)" fill="#D22D27" stroke="#121212" stroke-width="6">
<animate attributeName="fill" dur="4s" repeatCount="indefinite" keyTimes="0;0.8;1" values="#2d2d2d;red;#2d2d2d" />
</rect>
<rect x="328.896" y="324.989" width="24" height="24.2576" transform="rotate(127 328.896 324.989)" fill="#FF9900" stroke="#121212" stroke-width="6"/>
<path d="M375 366C403.5 373 434 361.5 441 319.5C448 277.5 385 247 416 201" stroke="white" stroke-width="6">
<animate attributeName="stroke" dur="4s" repeatCount="indefinite" keyTimes="0;0.8;1" values="white;transparent;white" />
</path>
</svg>
</g><g id="layer7"><svg width="512" height="512" viewBox="0 0 512 512" fill="none" xmlns="http://www.w3.org/2000/svg">
    <rect x="212" y="194" width="20" height="20" rx="10" fill="#121212">
        <animate attributeName="fill" dur="4s" repeatCount="indefinite" keyTimes="0;0.05;0.1;0.75;0.8;1" values="#121212;#121212;#BA120C;#BA120C;#121212;#121212" />
    </rect>
    <rect x="280" y="194" width="20" height="20" rx="10" fill="#121212">
        <animate attributeName="fill" dur="4s" repeatCount="indefinite" keyTimes="0;0.05;0.1;0.75;0.8;1" values="#121212;#121212;#BA120C;#BA120C;#121212;#121212" />
    </rect>
    <g transform="translate(0,0)">
        <path d="M206 162H238" stroke="#121212" stroke-width="6">
            <animateTransform attributeName="transform" type="translate" begin="0s" dur="4s" repeatCount="indefinite" keyTimes="0;0.05;0.1;0.75;0.8;1" values="0 0;0 0;2 12;2 12;0 0;0 0" />
            <animateTransform attributeName="transform" type="rotate" begin="0s" dur="4s" repeatCount="indefinite" keyTimes="0;0.05;0.1;0.75;0.8;1" values="0 222 162;0 222 162;30 222 162;30 222 162;0 222 162;0 222 162" additive="sum" />
        </path>
    </g>
    <g transform="translate(0,0)">
        <path d="M274 162H306" stroke="#121212" stroke-width="6">
            <animateTransform attributeName="transform" type="translate" begin="0s" dur="4s" repeatCount="indefinite" keyTimes="0;0.05;0.1;0.75;0.8;1" values="0 0;0 0;-2 12;-2 12;0 0;0 0" />
            <animateTransform attributeName="transform" type="rotate" begin="0s" dur="4s" repeatCount="indefinite" keyTimes="0;0.05;0.1;0.75;0.8;1" values="0 290 162;0 290 162;-30 290 162;-30 290 162;0 290 162;0 290 162" additive="sum" />
        </path>
    </g>
</svg>
</g><g id="layer8"><svg width="512" height="512" viewBox="0 0 512 512" fill="none" xmlns="http://www.w3.org/2000/svg">
<path d="M189.583 182.714L209.163 174L220.041 182.893L230.919 174L250.5 182.714V190V208.857L220.041 235L189.583 208.857V182.714Z" fill="#D22D27" fill-opacity="0.6">
<animate attributeName="fill-opacity" dur="2s" repeatCount="indefinite" keyTimes="0;0.1;0.2;0.3;0.4;1" values="0.6;1;0.6;1;0.6;0.6" />
</path>
<path d="M189.583 182.714V208.857L220.041 235L250.5 208.857V190M189.583 182.714L209.163 174L220.041 182.893L230.919 174L250.5 182.714V190M189.583 182.714L163 175.5M250.5 190H262" stroke="#D22D27" stroke-width="6"/>
<path d="M322.417 183.214L302.837 174.5L291.959 183.393L281.081 174.5L261.5 183.214V209.357L291.959 235.5L322.417 209.357V183.214Z" fill="#D22D27" fill-opacity="0.6">
<animate attributeName="fill-opacity" dur="2s" repeatCount="indefinite" keyTimes="0;0.1;0.2;0.3;0.4;1" values="0.6;1;0.6;1;0.6;0.6" />
</path>
<path d="M322.417 183.214V209.357L291.959 235.5L261.5 209.357V183.214L281.081 174.5L291.959 183.393L302.837 174.5L322.417 183.214ZM322.417 183.214L349 176" stroke="#D22D27" stroke-width="6"/>
</svg>
</g></svg>