<svg xmlns="http://www.w3.org/2000/svg" viewBox="0 0 500 500"><g id="layer1"><svg width="512" height="512" viewBox="0 0 512 512" fill="none" xmlns="http://www.w3.org/2000/svg">
<rect width="512" height="512" fill="#A7FF00"/>
<path d="M134 178H167V242H146L134 178Z" fill="#E24713"/>
<path d="M378 178H345V242H366L378 178Z" fill="#E24713"/>
<rect x="207" y="346" width="98" height="54" fill="#E24713"/>
<path d="M64 400H448L480 512H32L64 400Z" fill="#F15824"/>
<rect x="166" y="106" width="180" height="240" fill="#F15824"/>
</svg>
</g><g id="layer2"><svg width="512" height="512" viewBox="0 0 512 512" fill="none" xmlns="http://www.w3.org/2000/svg">
    <path d="M134 178H166V242H146L134 178Z" fill="#E24713"/>
    <path d="M378 178H346V242H366L378 178Z" fill="#E24713"/>
    <rect x="207" y="346" width="98" height="9" fill="#1D1D1D"/>
    <rect x="207" y="355" width="98" height="9" fill="#2D2D2D"/>
    <rect x="207" y="364" width="98" height="9" fill="#1D1D1D"/>
    <rect x="207" y="373" width="98" height="9" fill="#2D2D2D"/>
    <rect x="207" y="382" width="98" height="9" fill="#1D1D1D"/>
    <rect x="207" y="391" width="98" height="9" fill="#2D2D2D"/>
    <path d="M64 400H448L480 512H32L64 400Z" fill="#F15824"/>
    <path d="M64 400H120V488H76V512H32L64 400Z" fill="#2D2D2D"/>
    <rect x="166" y="106" width="180" height="240" fill="#F15824"/>
    <path d="M166 172H246V236L166 278V172Z" fill="#2D2D2D"/>
    <rect id="rect1" x="182" y="184" width="8" height="8" rx="4" fill="#D22D27">
    <animate attributeName="fill" values="#D22D27;#FF0900;#FF0900;#D22D27;#D22D27;#FF0900;#FF0900;#D22D27;#D22D27;#FF0900;#FF0900;#D22D27;#D22D27" keyTimes="0;0.01;0.05;0.09;0.2;0.21;0.25;0.29;0.8;0.81;0.85;0.89;1" dur="3s" repeatCount="indefinite" />
    </rect>
    <rect id="rect2" x="182" y="200" width="8" height="8" rx="4" fill="#D22D27">
    <animate attributeName="fill" values="#D22D27;#C2FD52;#C2FD52;#D22D27;#D22D27;#C2FD52;#C2FD52;#D22D27;#D22D27;#C2FD52;#C2FD52;#D22D27;#D22D27" keyTimes="0;0.01;0.05;0.09;0.4;0.41;0.45;0.49;0.6;0.61;0.65;0.69;1" dur="3.2s" repeatCount="indefinite" />
    </rect>
    <circle id="circle1" cx="92" cy="436" r="12" fill="#D22D27">
       <animate attributeName="fill" values="#D22D27;#FF0900;#FF0900;#D22D27;#D22D27;#FF0900;#FF0900;#D22D27;#D22D27;#FF0900;#FF0900;#D22D27;#D22D27" keyTimes="0;0.01;0.05;0.09;0.4;0.41;0.45;0.49;0.6;0.61;0.65;0.69;1" dur="2.8s" repeatCount="indefinite" />
    </circle>
    <rect x="302" y="106" width="44" height="48" fill="#2D2D2D"/>
    <rect x="166" y="242" width="12" height="104" fill="#2D2D2D"/>
    <circle id="circle2" cx="148" cy="436" r="12" fill="#7B0000">
       <animate attributeName="fill" values="#D22D27;#C2FD52;#C2FD52;#D22D27;#D22D27;#C2FD52;#C2FD52;#D22D27;#D22D27;#C2FD52;#C2FD52;#D22D27;#D22D27" keyTimes="0;0.01;0.05;0.09;0.2;0.21;0.25;0.29;0.8;0.81;0.85;0.89;1" dur="2.9s" repeatCount="indefinite" />
    </circle>
    <path d="M256 218L266 258H246" stroke="#121212" stroke-width="6"/>
</svg>
</g><g id="layer3"><svg width="512" height="512" viewBox="0 0 512 512" fill="none" xmlns="http://www.w3.org/2000/svg">
<path d="M52 146L256 30L460 146V162H52V146Z" fill="#8B634A"/>
<rect x="52" y="146" width="408" height="16" fill="#77492D"/>
</svg>
</g><g id="layer4"><svg width="512" height="512" viewBox="0 0 512 512" fill="none" xmlns="http://www.w3.org/2000/svg">
<rect x="207" y="346" width="98" height="54" fill="#42B06C"/>
<path d="M64 400H448L480 512H32L64 400Z" fill="#42B06C"/>
<path d="M338 456L345.629 480H349.857L342.292 456H338ZM374.078 456L366.068 480H370.36L378.307 456H374.079H374.078ZM351.653 468.652H357.853L351.113 477.139V480H364.591V475.899H358.018L364.814 467.412V464.551H351.653V468.652Z" fill="#94EDB6"/>
<path d="M256 362V512" stroke="#94EDB6" stroke-width="6"/>
<rect x="248" y="346" width="16" height="16" fill="#94EDB6"/>
</svg>
</g><g id="layer5"><svg width="512" height="512" viewBox="0 0 512 512" fill="none" xmlns="http://www.w3.org/2000/svg">
<rect x="207" y="346" width="98" height="54" fill="#E24713"/>
<path fill-rule="evenodd" clip-rule="evenodd" d="M346 266H166V400H256.5H346V266ZM297 281H215V323H297V281Z" fill="#121212"/>
</svg>
</g><g id="layer6"><svg width="512" height="512" viewBox="0 0 512 512" fill="none" xmlns="http://www.w3.org/2000/svg">
<path d="M231.114 302H280.403L292 290" stroke="#121212" stroke-width="6"/>
</svg>
</g><g id="layer7"><svg width="512" height="512" viewBox="0 0 512 512" fill="none" xmlns="http://www.w3.org/2000/svg">
<circle cx="10" cy="10" r="10" transform="matrix(1 0 0 -1 212 214)" fill="#121212"/>
<circle cx="10" cy="10" r="10" transform="matrix(1 0 0 -1 280 214)" fill="#121212"/>
<g>
<animateTransform attributeName="transform" type="translate" values="0 0; 0 0; 0 -16;0 0;0 -16; 0 0;0 0" keyTimes="0;0;0.04;0.08;0.12;0.16;1" dur="4s" repeatCount="indefinite"/>
<path d="M206 178H238" stroke="#121212" stroke-width="6"/>
<path d="M274 178H306" stroke="#121212" stroke-width="6"/>
</g>
</svg>
</g><g id="layer8"><svg width="512" height="512" viewBox="0 0 512 512" fill="none" xmlns="http://www.w3.org/2000/svg">
<path d="M190 175H246V231H190V175Z" fill="#FF00B1" fill-opacity="0.6"/>
<path d="M190 175H246V231H190V175ZM190 175H166" stroke="#121212" stroke-width="6"/>
<path d="M247 184H266" stroke="#121212" stroke-width="6"/>
<path d="M266 175H322V231H266V175Z" fill="#FF00B1" fill-opacity="0.6"/>
<path d="M322 175H266V231H322V175ZM322 175H346" stroke="#121212" stroke-width="6"/>
<mask id="mask0_139_2" style="mask-type:alpha" maskUnits="userSpaceOnUse" x="269" y="178" width="50" height="50">
<path d="M269 178H319V228H309.625H269V178Z" fill="#121212"/>
</mask>
<g mask="url(#mask0_139_2)">
<path d="M279.545 178H290L277.455 228H267L279.545 178Z" fill="#FFF">
<animateTransform attributeName="transform" type="translate" dur="4s" repeatCount="indefinite" keyTimes="0;0.8;1" values="-32 0;-32 0;48 0" />
</path>
</g>
<mask id="mask1_139_2" style="mask-type:alpha" maskUnits="userSpaceOnUse" x="193" y="178" width="50" height="50">
<path d="M193 178H243V228H233.625H193V178Z" fill="#121212"/>
</mask>
<g mask="url(#mask1_139_2)">
<path d="M203.545 178H214L201.455 228H191L203.545 178Z" fill="#FFF">
<animateTransform attributeName="transform" type="translate" dur="4s" repeatCount="indefinite" keyTimes="0;0.8;1" values="-32 0;-32 0;48 0" />
</path>
</g>
</svg>
</g></svg>