<svg xmlns="http://www.w3.org/2000/svg" viewBox="0 0 500 500"><g id="layer1"><svg width="512" height="512" viewBox="0 0 512 512" fill="none" xmlns="http://www.w3.org/2000/svg">
<rect width="512" height="512" fill="#7000FF"/>
<path d="M134 178H167V242H146L134 178Z" fill="#E24713"/>
<path d="M378 178H345V242H366L378 178Z" fill="#E24713"/>
<rect x="207" y="346" width="98" height="54" fill="#E24713"/>
<path d="M64 400H448L480 512H32L64 400Z" fill="#F15824"/>
<rect x="166" y="106" width="180" height="240" fill="#F15824"/>
</svg>
</g><g id="layer2"><svg width="512" height="512" viewBox="0 0 512 512" fill="none" xmlns="http://www.w3.org/2000/svg">
<mask id="mask0_34_133" style="mask-type:alpha" maskUnits="userSpaceOnUse" x="32" y="106" width="448" height="406">
<path fill-rule="evenodd" clip-rule="evenodd" d="M207 346H166V242H146L134 178H166L166 106L346 106V178H378L366 242H346V346L305 346V400H448L480 512H32L64 400H207V346Z" fill="#F15824"/>
</mask>
<g mask="url(#mask0_34_133)">
<circle cx="256" cy="-40" r="950" fill="#F15824">
<animate attributeName="cy" values="-40;-400;-40" keyTimes="0;0.5;1" dur="20s" repeatCount="indefinite"/>
</circle>
<circle cx="256" cy="-40" r="900" fill="#C2FD52">
<animate attributeName="cy" values="-40;-400;-40" keyTimes="0;0.5;1" dur="20s" repeatCount="indefinite"/>
</circle>
<circle cx="256" cy="-40" r="850" fill="#AD00FF">
<animate attributeName="cy" values="-40;-400;-40" keyTimes="0;0.5;1" dur="20s" repeatCount="indefinite"/>
</circle>
<circle cx="256" cy="-40" r="800" fill="#00A8FF">
<animate attributeName="cy" values="-40;-400;-40" keyTimes="0;0.5;1" dur="20s" repeatCount="indefinite"/>
</circle>
<circle cx="256" cy="-40" r="750" fill="#C2FD52">
<animate attributeName="cy" values="-40;-400;-40" keyTimes="0;0.5;1" dur="20s" repeatCount="indefinite"/>
</circle>
<circle cx="256" cy="-40" r="700" fill="#D22D27">
<animate attributeName="cy" values="-40;-400;-40" keyTimes="0;0.5;1" dur="20s" repeatCount="indefinite"/>
</circle>
<circle cx="256" cy="-40" r="650" fill="#FFB74A">
<animate attributeName="cy" values="-40;-400;-40" keyTimes="0;0.5;1" dur="20s" repeatCount="indefinite"/>
</circle>
<circle cx="256" cy="-40" r="600" fill="#F15824">
<animate attributeName="cy" values="-40;-400;-40" keyTimes="0;0.5;1" dur="20s" repeatCount="indefinite"/>
</circle>
<circle cx="256" cy="-40" r="550" fill="#C2FD52">
<animate attributeName="cy" values="-40;-400;-40" keyTimes="0;0.5;1" dur="20s" repeatCount="indefinite"/>
</circle>
<circle cx="256" cy="-40" r="500" fill="#FF00B1">
<animate attributeName="cy" values="-40;-400;-40" keyTimes="0;0.5;1" dur="20s" repeatCount="indefinite"/>
</circle>
<circle cx="256" cy="-40" r="450" fill="#AD00FF">
<animate attributeName="cy" values="-40;-400;-40" keyTimes="0;0.5;1" dur="20s" repeatCount="indefinite"/>
</circle>
<circle cx="256" cy="-40" r="400" fill="#00A8FF">
<animate attributeName="cy" values="-40;-400;-40" keyTimes="0;0.5;1" dur="20s" repeatCount="indefinite"/>
</circle>
<circle cx="256" cy="-40" r="350" fill="#C2FD52">
<animate attributeName="cy" values="-40;-400;-40" keyTimes="0;0.5;1" dur="20s" repeatCount="indefinite"/>
</circle>
<circle cx="256" cy="-40" r="300" fill="#D22D27">
<animate attributeName="cy" values="-40;-400;-40" keyTimes="0;0.5;1" dur="20s" repeatCount="indefinite"/>
</circle>
<circle cx="256" cy="-40" r="250" fill="#FFB74A">
<animate attributeName="cy" values="-40;-400;-40" keyTimes="0;0.5;1" dur="20s" repeatCount="indefinite"/>
</circle>
<circle cx="256" cy="-40" r="200" fill="#F15824">
<animate attributeName="cy" values="-40;-400;-40" keyTimes="0;0.5;1" dur="20s" repeatCount="indefinite"/>
</circle>
</g>
<path d="M256 218L266 258H246" stroke="#121212" stroke-width="6"/>
</svg>
</g><g id="layer3"><svg width="512" height="512" viewBox="0 0 512 512" fill="none" xmlns="http://www.w3.org/2000/svg">
<path d="M346 146H166V106L269 15.5H346L301 37.5V79.5L346 106V146Z" fill="#AD00FF"/>
<rect x="106" y="146" width="300" height="16" fill="#AD00FF"/>
<rect x="166" y="130" width="180" height="16" fill="#FFB039"/>
<path d="M279 28L281.694 36.2918H290.413L283.359 41.4164L286.053 49.7082L279 44.5836L271.947 49.7082L274.641 41.4164L267.587 36.2918H276.306L279 28Z" fill="#FFB039"/>
<path d="M236 57L238.694 65.2918H247.413L240.359 70.4164L243.053 78.7082L236 73.5836L228.947 78.7082L231.641 70.4164L224.587 65.2918H233.306L236 57Z" fill="#FFB039"/>
<path d="M268 82L270.694 90.2918H279.413L272.359 95.4164L275.053 103.708L268 98.5836L260.947 103.708L263.641 95.4164L256.587 90.2918H265.306L268 82Z" fill="#FFB039"/>
<path d="M207 99L209.694 107.292H218.413L211.359 112.416L214.053 120.708L207 115.584L199.947 120.708L202.641 112.416L195.587 107.292H204.306L207 99Z" fill="#FFB039"/>
<path d="M317 99L319.694 107.292H328.413L321.359 112.416L324.053 120.708L317 115.584L309.947 120.708L312.641 112.416L305.587 107.292H314.306L317 99Z" fill="#FFB039"/>
</svg>
</g><g id="layer4"><svg width="512" height="512" viewBox="0 0 512 512" fill="none" xmlns="http://www.w3.org/2000/svg">
<g clip-path="url(#clip0_453_11771)">
<path d="M64 400H148C148 400 155 480 256 480C357 480 364 400 364 400H448L480 512H32L64 400Z" fill="#121212"/>
<path d="M346.001 381.044L355.501 397.499L457.615 359.204L515.001 363.6L448.115 342.75L346.001 381.044Z" fill="#121212"/>
<path d="M346.004 381.001L391.811 396.026L471.581 381.961L524.002 405.719L468.281 363.249L346.004 381.001Z" fill="#454545"/>
<path d="M346.002 381V400H459.002L506.502 432.5L459.002 381H346.002Z" fill="#202020"/>
<rect x="134" y="400" width="20" height="8" fill="#454545"/>
<rect x="252" y="490" width="20" height="8" transform="rotate(-90 252 490)" fill="#454545"/>
<rect x="151.105" y="442.715" width="20" height="8" transform="rotate(-30 151.105 442.715)" fill="#454545"/>
<rect x="190" y="476.32" width="20" height="8" transform="rotate(-60 190 476.32)" fill="#454545"/>
<rect width="20" height="8" transform="matrix(-0.5 -0.866025 -0.866025 0.5 321.928 476.32)" fill="#454545"/>
<rect width="20" height="8" transform="matrix(-0.866025 -0.5 -0.5 0.866025 360.32 442.715)" fill="#454545"/>
<rect x="356" y="400" width="20" height="8" fill="#454545"/>
<path d="M166.001 381.541L156.501 397.995L54.387 359.7L-2.99914 364.096L63.887 343.246L166.001 381.541Z" fill="#121212"/>
<path d="M165.998 381.497L120.191 396.522L40.4214 382.457L-12.0005 406.215L43.7207 363.745L165.998 381.497Z" fill="#454545"/>
<path d="M166 381.496V400.496H53L5.5 432.996L53 381.496H166Z" fill="#202020"/>
</g>
<defs>
<clipPath id="clip0_453_11771">
<rect width="512" height="512" fill="white"/>
</clipPath>
</defs>
</svg>
</g><g id="layer5"><svg width="512" height="512" viewBox="0 0 512 512" fill="none" xmlns="http://www.w3.org/2000/svg">
<rect x="236" y="322" width="40" height="24" fill="#121212"/>
<path d="M166 286H207V346H166V286Z" fill="#121212"/>
<path d="M346 286H305V346H346V286Z" fill="#121212"/>
</svg>
</g><g id="layer6"><svg width="512" height="512" viewBox="0 0 512 512" fill="none" xmlns="http://www.w3.org/2000/svg">
<path d="M230.711 302H280" stroke="#121212" stroke-width="6"/>
</svg>
</g><g id="layer7"><svg width="512" height="512" viewBox="0 0 512 512" fill="none" xmlns="http://www.w3.org/2000/svg">
  <rect x="212" y="194" width="20" height="20" rx="10" fill="#121212">
    <animate attributeName="rx" values="10;10;1;10;10;1;10;10;" keyTimes="0;0.275;0.3;0.325;0.725;0.75;0.775;1" dur="4s" repeatCount="indefinite" />
    <animate attributeName="height" values="20;20;2;20;20;2;20;20" keyTimes="0;0.275;0.3;0.325;0.725;0.75;0.775;1" dur="4s" repeatCount="indefinite" />
    <animate attributeName="y" values="194;194;203;194;194;203;194;194" keyTimes="0;0.275;0.3;0.325;0.725;0.75;0.775;1" dur="4s" repeatCount="indefinite" />
  </rect>
  <rect x="280" y="194" width="20" height="20" rx="10" fill="#121212">
    <animate attributeName="rx" values="10;10;1;10;10;1;10;10" keyTimes="0;0.275;0.3;0.325;0.725;0.75;0.775;1" dur="4s" repeatCount="indefinite" />
    <animate attributeName="height" values="20;20;2;20;20;2;20;20" keyTimes="0;0.275;0.3;0.325;0.725;0.75;0.775;1" dur="4s" repeatCount="indefinite" />
    <animate attributeName="y" values="194;194;203;194;194;203;194;194" keyTimes="0;0.275;0.3;0.325;0.725;0.75;0.775;1" dur="4s" repeatCount="indefinite" />
  </rect>
  <path d="M206 162H238" stroke="#121212" stroke-width="6"/>
  <path d="M274 162H306" stroke="#121212" stroke-width="6"/>
</svg>
</g><g id="layer8"><svg width="512" height="512" viewBox="0 0 512 512" fill="none" xmlns="http://www.w3.org/2000/svg">
<path d="M166 172H246V236L166 278V172Z" fill="#2D2D2D"/>
<circle cx="214" cy="204" r="20" fill="#D22D27" />
<circle cx="186" cy="188" r="4" fill="#D22D27">
<animate attributeName="fill" dur="8s" repeatCount="indefinite" keyTimes="0;0.05;0.12;0.5;0.55;1" values="#6C0400;#FF0900;#FF0900;#FF0900;#6C0400;#6C0400" />
</circle>
<circle cx="186" cy="204" r="4" fill="#D22D27"/>
<circle cx="214" cy="204" r="10" fill="#7B0000">
<animate attributeName="fill" dur="8s" repeatCount="indefinite" keyTimes="0;0.05;0.075;0.1;0.12;0.15;0.5;0.55;1" values="#6C0400;#FF0900;#6C0400;#FF0900;#6C0400;#FF0900;#FF0900;#6C0400;#6C0400" />
</circle>
</svg>
</g></svg>