<svg width="512" height="512" viewBox="0 0 512 512" fill="none" xmlns="http://www.w3.org/2000/svg">
<path d="M212.451 56.2599C231.977 75.7862 239.674 99.747 203.258 136.163C171.439 167.983 142.882 164.882 123.355 145.355C103.829 125.829 92.5962 87.019 123.355 56.2599C154.114 25.5007 192.925 36.7337 212.451 56.2599Z" fill="#121212"/>
<path d="M388.451 145.74C407.977 126.214 424.867 93.0607 388.451 56.6447C356.631 24.8249 318.882 37.1184 299.355 56.6447C279.829 76.1709 277.789 105.789 308.548 136.548C339.307 167.307 368.925 165.266 388.451 145.74Z" fill="#121212"/>
<path d="M254.002 74.8379C201.535 74.8379 161 117.176 154 163.338C150.628 185.572 153.172 202.548 156.716 214.174C158.434 219.812 159.293 222.631 162.694 222.137C166.094 221.642 166.116 218.473 166.16 212.135C166.357 183.796 164.867 164.266 183 157.056C187.301 155.346 192.706 154.032 199.5 153.045C202.405 152.623 205.565 140.261 209 139.953C211.957 139.688 215.119 151.464 218.5 151.277C228.357 150.731 240.073 150.5 254.002 150.5C266.218 150.5 276.812 150.637 286 151.022C289.538 151.171 292.867 131.356 296 131.585C299.584 131.847 302.911 152.166 306 152.551C310.696 153.136 314.841 153.875 318.5 154.801C344.287 161.328 345.907 183.858 345.997 221.978C346.004 225.207 346.008 226.821 348.929 227.633C351.851 228.446 352.468 227.426 353.703 225.388C358.851 216.891 364.006 199.274 360.002 163.338C353 100.5 306.469 74.8379 254.002 74.8379Z" fill="#121212"/>
<path d="M210.5 85.2729C187.663 96.8533 169.943 116.974 160.5 140M305.5 84.7754C328.277 94.7685 346.351 112.651 355.122 140" stroke="#202020" stroke-width="6" stroke-linecap="round" stroke-linejoin="round"/>
</svg>
