<svg xmlns="http://www.w3.org/2000/svg" viewBox="0 0 512 512"><g id="layer1" transform="translate(0, 0)"><svg width="512" height="512" viewBox="0 0 512 512" fill="none" xmlns="http://www.w3.org/2000/svg">
<g clip-path="url(#clip0_75_1422)">
<path d="M512 0H0V512H512V0Z" fill="#FF9900"/>
<path d="M428 340H84V500H428V340Z" fill="#36CF00"/>
<path d="M316 176H196V472H316V176Z" fill="#3BE200"/>
<path d="M316 176H196V96H316V176Z" fill="#36CF00"/>
<path d="M262 96H250V132H262V96Z" fill="#3BE200"/>
</g>
<defs>
<clipPath id="clip0_75_1422">
<rect width="512" height="512" fill="white"/>
</clipPath>
</defs>
</svg>
</g><g id="layer2" transform="translate(84, 22)"><svg width="344" height="344" viewBox="0 0 344 344" fill="none" xmlns="http://www.w3.org/2000/svg">
<path d="M226.74 81.7803L245.767 89.2843L253.271 108.311L234.244 100.807L226.74 81.7803Z" fill="#004A1C"/>
<path d="M226.74 89.5508L245.767 82.0468L253.271 63.0201L234.244 70.5241L226.74 89.5508Z" fill="#004A1C"/>
<rect x="111.5" y="60.3398" width="120.6" height="48.24" fill="#006727"/>
</svg>
</g><g id="layer3" transform="translate(84, 55)"><svg width="344" height="344" viewBox="0 0 344 344" fill="none" xmlns="http://www.w3.org/2000/svg">
<path d="M127.86 117.251H165.38V154.771H127.86V117.251Z" fill="#121212"/>
<path d="M127.86 117.251H165.38M127.86 117.251V154.771H165.38V117.251M127.86 117.251H111.78M165.38 117.251H232.38" stroke="#121212" stroke-width="4.02"/>
</svg>
</g><g id="layer4" transform="translate(84, 140)"><svg width="344" height="344" viewBox="0 0 344 344" fill="none" xmlns="http://www.w3.org/2000/svg">
<path d="M155.097 202.82H188.12" stroke="#121212" stroke-width="4.02"/>
<path d="M252.44 202.82C252.44 222.431 236.542 238.33 216.93 238.33C197.318 238.33 182.425 207.51 172.04 202.82C182.76 198.13 197.318 167.31 216.93 167.31C236.542 167.31 252.44 183.208 252.44 202.82Z" fill="#FF008A" fill-opacity="0.8" stroke="#121212" stroke-width="4.02"/>
</svg>
</g></svg>