<svg xmlns="http://www.w3.org/2000/svg" viewBox="0 0 512 512"><g id="layer1" transform="translate(0, 0)"><svg width="512" height="512" viewBox="0 0 512 512" fill="none" xmlns="http://www.w3.org/2000/svg">
<g clip-path="url(#clip0_75_1422)">
<path d="M512 0H0V512H512V0Z" fill="#FF9900"/>
<path d="M428 340H84V500H428V340Z" fill="#36CF00"/>
<path d="M316 176H196V472H316V176Z" fill="#3BE200"/>
<path d="M316 176H196V96H316V176Z" fill="#36CF00"/>
<path d="M262 96H250V132H262V96Z" fill="#3BE200"/>
</g>
<defs>
<clipPath id="clip0_75_1422">
<rect width="512" height="512" fill="white"/>
</clipPath>
</defs>
</svg>
</g><g id="layer2" transform="translate(84, 22)"><svg width="344" height="344" viewBox="0 0 344 344" fill="none" xmlns="http://www.w3.org/2000/svg">
<path d="M111.34 71.0601C111.34 59.2191 120.939 49.6201 132.78 49.6201H210.5C222.341 49.6201 231.94 59.2191 231.94 71.0601V71.0601H111.34V71.0601Z" fill="#96469A"/>
<rect width="120.6" height="24.12" transform="matrix(1 0 0 -1 111.34 95.1802)" fill="#96469A"/>
<rect width="120.6" height="16.08" transform="matrix(1 0 0 -1 111.34 111.26)" fill="#704B9F"/>
</svg>
</g><g id="layer3" transform="translate(256, 227)"><svg></svg></g><g id="layer4" transform="translate(84, 140)"><svg width="344" height="344" viewBox="0 0 344 344" fill="none" xmlns="http://www.w3.org/2000/svg">
<path d="M154.617 202.82H187.64" stroke="#121212" stroke-width="4.02"/>
<path d="M229.85 213.54L186.3 202.82L237.89 234.645L246.6 217.225L251.29 207.845L236.215 200.81L231.693 209.855L229.85 213.54Z" fill="#77492D"/>
<path d="M246.6 217.225L251.29 207.845L236.215 200.81L231.693 209.855M246.6 217.225L237.89 234.645L186.3 202.82L229.85 213.54L231.693 209.855M246.6 217.225L231.693 209.855" stroke="#121212" stroke-width="4.02"/>
</svg>
</g></svg>