<svg xmlns="http://www.w3.org/2000/svg" viewBox="0 0 512 512"><g id="layer1" transform="translate(0, 0)"><svg width="512" height="512" viewBox="0 0 512 512" fill="none" xmlns="http://www.w3.org/2000/svg">
<g clip-path="url(#clip0_75_1405)">
<path d="M512 0H0V512H512V0Z" fill="#FF9900"/>
<path d="M428 340H84V500H428V340Z" fill="#0097D8"/>
<path d="M316 176H196V472H316V176Z" fill="#00B2FF"/>
<path d="M227.5 400.5L196 431V415L227.5 400.5Z" fill="#2C71A3"/>
<path d="M222 336L196 344V328L222 336Z" fill="#2C71A3"/>
<path d="M124 429.5L84 465V449L124 429.5Z" fill="#2C71A3"/>
<path d="M276 347.5L316 383V367L276 347.5Z" fill="#2C71A3"/>
<path d="M388 429.5L428 465V449L388 429.5Z" fill="#2C71A3"/>
<path d="M124 406L84 374V386.8L124 406Z" fill="#2C71A3"/>
<path d="M276 324L316 292V304.8L276 324Z" fill="#2C71A3"/>
<path d="M388 406L428 374V386.8L388 406Z" fill="#2C71A3"/>
<path d="M228 176H212L228 216V176Z" fill="#2C71A3"/>
<path d="M264 176H248L256 282L264 176Z" fill="#2C71A3"/>
<path d="M300 176H284V216L300 176Z" fill="#2C71A3"/>
<path d="M316 176H196V96H316V176Z" fill="#0097D8"/>
<path d="M262 96H250V132H262V96Z" fill="#00B2FF"/>
</g>
<defs>
<clipPath id="clip0_75_1405">
<rect width="512" height="512" fill="white"/>
</clipPath>
</defs>
</svg>
</g><g id="layer2" transform="translate(84, 22)"><svg width="344" height="344" viewBox="0 0 344 344" fill="none" xmlns="http://www.w3.org/2000/svg">
<path d="M111.34 71.0601C111.34 59.2191 120.939 49.6201 132.78 49.6201H210.5C222.341 49.6201 231.94 59.2191 231.94 71.0601V71.0601H111.34V71.0601Z" fill="#96469A"/>
<rect width="120.6" height="24.12" transform="matrix(1 0 0 -1 111.34 95.1802)" fill="#96469A"/>
<rect width="120.6" height="16.08" transform="matrix(1 0 0 -1 111.34 111.26)" fill="#704B9F"/>
</svg>
</g><g id="layer3" transform="translate(84, 55)"><svg width="344" height="344" viewBox="0 0 344 344" fill="none" xmlns="http://www.w3.org/2000/svg">
<path d="M122.06 117.251H164.94V130.651L156.9 154.771H122.06V117.251Z" fill="#121212"/>
<path d="M122.06 117.251H164.94V130.651L156.9 154.771H122.06V117.251ZM122.06 117.251H111.34" stroke="#FFB74A" stroke-width="4.02"/>
<path d="M165.61 117.251H178.34" stroke="#FFB74A" stroke-width="4.02"/>
<path d="M165.61 129.311H178.34" stroke="#FFB74A" stroke-width="4.02"/>
<path d="M178.34 117.251H221.22V154.771H186.38L178.34 130.986V117.251Z" fill="#121212"/>
<path d="M221.22 117.251H178.34V130.986L186.38 154.771H221.22V117.251ZM221.22 117.251H231.94" stroke="#FFB74A" stroke-width="4.02"/>
</svg>
</g><g id="layer4" transform="translate(84, 140)"><svg width="344" height="344" viewBox="0 0 344 344" fill="none" xmlns="http://www.w3.org/2000/svg">
<path d="M154.897 202.82H187.92" stroke="#121212" stroke-width="4.02"/>
<path d="M247.498 250.685L221.671 227.263L199.916 214.579L188.197 202.86L179.152 202.86L204.697 233.897L215.986 246.546L237.162 263.003L247.498 250.685Z" fill="white"/>
<path d="M215.986 246.546L237.162 263.003L247.498 250.685L221.671 227.263M215.986 246.546L221.671 227.263M215.986 246.546L204.697 233.897M221.671 227.263L199.916 214.579M204.697 233.897L179.152 202.86L188.197 202.86L199.916 214.579M204.697 233.897L199.916 214.579" stroke="#121212" stroke-width="4.02"/>
<path d="M247.498 250.685L237.162 263.003L231.47 258.579L242.19 245.871L247.498 250.685Z" fill="#2D2D2D" stroke="#121212" stroke-width="4.02"/>
<path d="M256.93 261.78C276.025 266.47 296.46 258.765 301.15 230.625C305.84 202.485 263.63 182.05 284.4 151.23" stroke="white" stroke-width="4.02"/>
</svg>
</g></svg>