<svg xmlns="http://www.w3.org/2000/svg" viewBox="0 0 512 512"><g id="layer1" transform="translate(0, 0)"><svg width="512" height="512" viewBox="0 0 512 512" fill="none" xmlns="http://www.w3.org/2000/svg">
<g clip-path="url(#clip0_75_1379)">
<path d="M512 0H0V512H512V0Z" fill="#FF9900"/>
<path d="M428 340H84V500H428V340Z" fill="#CACACA"/>
<path d="M316 176H196V472H316V176Z" fill="#E3E3E3"/>
<path d="M316 176H196V96H316V176Z" fill="#CACACA"/>
<path d="M300 251C300 246.582 296.418 243 292 243C287.582 243 284 246.582 284 251C284 255.418 287.582 259 292 259C296.418 259 300 255.418 300 251Z" fill="#1D1D1D"/>
<path d="M296 423C296 418.582 292.418 415 288 415C283.582 415 280 418.582 280 423C280 427.418 283.582 431 288 431C292.418 431 296 427.418 296 423Z" fill="#1D1D1D"/>
<path d="M164 468C164 463.582 160.418 460 156 460C151.582 460 148 463.582 148 468C148 472.418 151.582 476 156 476C160.418 476 164 472.418 164 468Z" fill="#1D1D1D"/>
<path d="M346 374C346 378.418 349.582 382 354 382C358.418 382 362 378.418 362 374C362 369.582 358.418 366 354 366C349.582 366 346 369.582 346 374Z" fill="#1D1D1D"/>
<path d="M364 431C364 435.418 367.582 439 372 439C376.418 439 380 435.418 380 431C380 426.582 376.418 423 372 423C367.582 423 364 426.582 364 431Z" fill="#1D1D1D"/>
<path d="M234 243C234 236.373 228.627 231 222 231C215.373 231 210 236.373 210 243C210 249.627 215.373 255 222 255C228.627 255 234 249.627 234 243Z" fill="#1D1D1D"/>
<path d="M234 443C234 436.373 228.627 431 222 431C215.373 431 210 436.373 210 443C210 449.627 215.373 455 222 455C228.627 455 234 449.627 234 443Z" fill="#1D1D1D"/>
<path d="M118 442C118 438.686 115.314 436 112 436C108.686 436 106 438.686 106 442C106 445.314 108.686 448 112 448C115.314 448 118 445.314 118 442Z" fill="#1D1D1D"/>
<path d="M262 96H250V132H262V96Z" fill="#E3E3E3"/>
</g>
<defs>
<clipPath id="clip0_75_1379">
<rect width="512" height="512" fill="white"/>
</clipPath>
</defs>
</svg>
</g><g id="layer2" transform="translate(84, 22)"><svg width="344" height="344" viewBox="0 0 344 344" fill="none" xmlns="http://www.w3.org/2000/svg">
<path d="M232.62 97.8599H112.02V71.0599L181.03 10.4249H232.62L202.47 25.1649V53.3049L232.62 71.0599V97.8599Z" fill="#AD00FF"/>
<rect x="71.8198" y="97.8599" width="201" height="10.72" fill="#AD00FF"/>
<rect x="112.02" y="87.1396" width="120.6" height="10.72" fill="#FFB039"/>
<path d="M187.73 18.7998L189.535 24.3553H195.376L190.651 27.7888L192.456 33.3443L187.73 29.9108L183.004 33.3443L184.809 27.7888L180.083 24.3553H185.925L187.73 18.7998Z" fill="#FFB039"/>
<path d="M158.92 38.23L160.725 43.7855H166.566L161.841 47.219L163.646 52.7745L158.92 49.341L154.194 52.7745L155.999 47.219L151.273 43.7855H157.115L158.92 38.23Z" fill="#FFB039"/>
<path d="M180.36 54.98L182.165 60.5355H188.006L183.281 63.969L185.086 69.5245L180.36 66.091L175.634 69.5245L177.439 63.969L172.713 60.5355H178.555L180.36 54.98Z" fill="#FFB039"/>
<path d="M139.49 66.3696L141.295 71.9251H147.136L142.41 75.3586L144.215 80.9141L139.49 77.4806L134.764 80.9141L136.569 75.3586L131.843 71.9251H137.685L139.49 66.3696Z" fill="#FFB039"/>
<path d="M213.19 66.3701L214.995 71.9256H220.837L216.111 75.3591L217.916 80.9146L213.19 77.4811L208.465 80.9146L210.27 75.3591L205.544 71.9256H211.385L213.19 66.3701Z" fill="#FFB039"/>
</svg>
</g><g id="layer3" transform="translate(84, 55)"><svg width="344" height="344" viewBox="0 0 344 344" fill="none" xmlns="http://www.w3.org/2000/svg">
<path fill-rule="evenodd" clip-rule="evenodd" d="M129.414 99.9342C111.286 102.992 100 119.416 100 137.8C100 157.57 112.933 176.175 132.703 176.21C140.921 176.225 149.112 174.934 155.16 171.016C158.551 168.819 160.376 166.178 162.011 163.812C164.415 160.333 166.407 157.45 172.36 157.45C178.314 157.45 180.305 160.333 182.709 163.812C184.344 166.178 186.169 168.819 189.56 171.016C195.608 174.934 203.799 176.225 212.017 176.21C231.787 176.175 244.72 157.57 244.72 137.8C244.72 119.416 233.434 102.992 215.306 99.9342C203.927 98.0152 189.477 96.4805 172.36 96.4805C155.243 96.4805 140.793 98.0152 129.414 99.9342ZM133.982 115.314C124.19 116.931 117.42 125.562 117.42 135.486C117.42 145.352 124.115 154.117 133.936 155.056C142.061 155.832 151.219 155.681 156.489 152.254C158.258 151.103 159.971 149.433 161.706 147.741C164.991 144.537 168.36 141.252 172.36 141.252C176.36 141.252 179.729 144.537 183.014 147.741C184.749 149.433 186.462 151.103 188.231 152.254C193.501 155.681 202.659 155.832 210.784 155.056C220.606 154.117 227.3 145.352 227.3 135.486C227.3 125.562 220.53 116.931 210.739 115.314C200.447 113.615 186.517 111.89 172.36 111.89C158.203 111.89 144.273 113.615 133.982 115.314Z" fill="#121212"/>
<path d="M117.42 135.486C117.42 125.562 124.19 116.931 133.981 115.315C144.273 113.615 158.203 111.891 172.36 111.891C186.517 111.891 200.447 113.615 210.739 115.315C220.53 116.931 227.3 125.562 227.3 135.486V135.486C227.3 145.352 220.606 154.117 210.784 155.056C202.659 155.832 193.501 155.681 188.231 152.254C183.112 148.925 178.473 141.252 172.36 141.252C166.247 141.252 161.609 148.925 156.489 152.254C151.219 155.681 142.061 155.832 133.936 155.056C124.115 154.117 117.42 145.352 117.42 135.486V135.486Z" fill="#0047FF" fill-opacity="0.6"/>
</svg>
</g><g id="layer4" transform="translate(84, 140)"><svg width="344" height="344" viewBox="0 0 344 344" fill="none" xmlns="http://www.w3.org/2000/svg">
<path d="M155.097 202.82H188.12" stroke="#121212" stroke-width="4.02"/>
<path d="M252.44 202.82C252.44 222.431 236.542 238.33 216.93 238.33C197.318 238.33 182.425 207.51 172.04 202.82C182.76 198.13 197.318 167.31 216.93 167.31C236.542 167.31 252.44 183.208 252.44 202.82Z" fill="#FF008A" fill-opacity="0.8" stroke="#121212" stroke-width="4.02"/>
</svg>
</g></svg>