<svg xmlns="http://www.w3.org/2000/svg" viewBox="0 0 512 512"><g id="layer1" transform="translate(0, 0)"><svg width="512" height="512" viewBox="0 0 512 512" fill="none" xmlns="http://www.w3.org/2000/svg">
<g clip-path="url(#clip0_75_1471)">
<path d="M512 0H0V512H512V0Z" fill="#FF9900"/>
<path d="M428 340H84V500H428V340Z" fill="#B7009A"/>
<path d="M316 176H196V472H316V176Z" fill="#D800B5"/>
<path d="M316 176H196V96H316V176Z" fill="#B7009A"/>
<path d="M262 96H250V132H262V96Z" fill="#D800B5"/>
<path d="M256 255L243.839 227L256 199L268.161 227L256 255Z" fill="white"/>
<path d="M263.919 227C263.919 222.626 260.374 219.081 256 219.081C251.626 219.081 248.08 222.626 248.08 227C248.08 231.374 251.626 234.92 256 234.92C260.374 234.92 263.919 231.374 263.919 227Z" fill="#007089"/>
<path d="M228 448L256 435.839L284 448L256 460.161L228 448Z" fill="white"/>
<path d="M256 455.919C260.374 455.919 263.919 452.374 263.919 448C263.919 443.626 260.374 440.08 256 440.08C251.626 440.08 248.08 443.626 248.08 448C248.08 452.374 251.626 455.919 256 455.919Z" fill="#007089"/>
<path d="M228 392L256 379.839L284 392L256 404.161L228 392Z" fill="white"/>
<path d="M256 399.919C260.374 399.919 263.919 396.374 263.919 392C263.919 387.626 260.374 384.08 256 384.08C251.626 384.08 248.08 387.626 248.08 392C248.08 396.374 251.626 399.919 256 399.919Z" fill="#007089"/>
</g>
<defs>
<clipPath id="clip0_75_1471">
<rect width="512" height="512" fill="white"/>
</clipPath>
</defs>
</svg>
</g><g id="layer2" transform="translate(84, 22)"><svg width="344" height="344" viewBox="0 0 344 344" fill="none" xmlns="http://www.w3.org/2000/svg">
<rect width="120.6" height="32.16" transform="matrix(1 0 0 -1 111.54 104.06)" fill="#D22D27"/>
<rect x="212.844" y="77.2598" width="2.85866" height="21.44" fill="#FF9490"/>
<rect x="215.702" y="86.5503" width="7.86132" height="2.85866" fill="#FF9490"/>
<rect x="210.7" y="92.9824" width="12.864" height="2.85866" fill="#FF9490"/>
<rect x="210.7" y="80.1187" width="12.864" height="2.85866" fill="#FF9490"/>
<rect x="223.564" y="82.9771" width="2.85866" height="3.57332" fill="#FF9490"/>
<rect x="217.27" y="77.2598" width="2.85866" height="2.85866" fill="#FF9490"/>
<rect x="217.31" y="95.8413" width="2.85866" height="2.85866" fill="#FF9490"/>
<rect x="223.564" y="89.4092" width="2.85866" height="3.57332" fill="#FF9490"/>
<rect width="120.6" height="8.04" transform="matrix(1 0 0 -1 111.54 112.1)" fill="#FF9490"/>
<path d="M91.105 107.745L111.54 71.8999H180.215L120.92 126.17L91.105 107.745Z" fill="#D22D27"/>
</svg>
</g><g id="layer3" transform="translate(84, 55)"><svg width="344" height="344" viewBox="0 0 344 344" fill="none" xmlns="http://www.w3.org/2000/svg">
<path d="M127.86 117.251H165.38V154.771H127.86V117.251Z" fill="#121212"/>
<path d="M127.86 117.251H165.38M127.86 117.251V154.771H165.38V117.251M127.86 117.251H111.78M165.38 117.251H232.38" stroke="#121212" stroke-width="4.02"/>
</svg>
</g><g id="layer4" transform="translate(84, 140)"><svg width="344" height="344" viewBox="0 0 344 344" fill="none" xmlns="http://www.w3.org/2000/svg">
<rect x="160.1" y="189.42" width="24.12" height="24.12" rx="12.06" fill="white"/>
</svg>
</g></svg>