<svg xmlns="http://www.w3.org/2000/svg" viewBox="0 0 512 512"><g id="layer1" transform="translate(0, 0)"><svg width="512" height="512" viewBox="0 0 512 512" fill="none" xmlns="http://www.w3.org/2000/svg">
<g clip-path="url(#clip0_75_1465)">
<path d="M512 0H0V512H512V0Z" fill="#FF9900"/>
<path d="M428 340H84V500H428V340Z" fill="#2D2D2D"/>
<path d="M316 176H196V472H316V176Z" fill="#E3E3E3"/>
<path d="M316 176H196V96H316V176Z" fill="#2D2D2D"/>
<path d="M262 96H250V132H262V96Z" fill="#E3E3E3"/>
</g>
<defs>
<clipPath id="clip0_75_1465">
<rect width="512" height="512" fill="white"/>
</clipPath>
</defs>
</svg>
</g><g id="layer2" transform="translate(84, 22)"><svg width="344" height="344" viewBox="0 0 344 344" fill="none" xmlns="http://www.w3.org/2000/svg">
<path d="M226.74 81.7803L245.767 89.2843L253.271 108.311L234.244 100.807L226.74 81.7803Z" fill="#004A1C"/>
<path d="M226.74 89.5508L245.767 82.0468L253.271 63.0201L234.244 70.5241L226.74 89.5508Z" fill="#004A1C"/>
<rect x="111.5" y="60.3398" width="120.6" height="48.24" fill="#006727"/>
</svg>
</g><g id="layer3" transform="translate(84, 55)"><svg width="344" height="344" viewBox="0 0 344 344" fill="none" xmlns="http://www.w3.org/2000/svg">
<path d="M111.7 119.26H232.3V154.1L186.07 156.78L172 146.06L157.93 156.78L111.7 154.1V119.26Z" fill="#121212"/>
<rect x="122.42" y="129.979" width="99.16" height="13.4" fill="#D22D27"/>
</svg>
</g><g id="layer4" transform="translate(84, 140)"><svg width="344" height="344" viewBox="0 0 344 344" fill="none" xmlns="http://www.w3.org/2000/svg">
<path d="M154.737 202.82H187.76" stroke="#121212" stroke-width="4.02"/>
<path d="M187.09 202.821C187.09 202.821 246.641 246.706 250.198 248.716L258.238 234.981L187.09 202.821Z" fill="#D22D27" stroke="#121212" stroke-width="4.02"/>
<path d="M185.582 202.703L229.449 234.07L241.68 227.625L185.582 202.703Z" fill="#00FF94" stroke="#121212" stroke-width="4.02"/>
<path d="M187.425 202.82L217.89 225.804L227.827 221.47L187.425 202.82Z" fill="#00A8FF"/>
<path d="M217.89 225.804L216.68 227.409L217.618 228.116L218.694 227.647L217.89 225.804ZM187.425 202.82L188.267 200.995C187.335 200.565 186.228 200.907 185.7 201.788C185.173 202.669 185.394 203.806 186.214 204.425L187.425 202.82ZM227.827 221.47L228.63 223.312L232.735 221.521L228.669 219.645L227.827 221.47ZM219.101 224.2L188.635 201.216L186.214 204.425L216.68 227.409L219.101 224.2ZM186.582 204.645L226.984 223.295L228.669 219.645L188.267 200.995L186.582 204.645ZM218.694 227.647L228.63 223.312L227.023 219.627L217.087 223.962L218.694 227.647Z" fill="#121212"/>
<rect x="262.395" y="224.93" width="14.07" height="25.2607" rx="7.035" transform="rotate(42.3433 262.395 224.93)" fill="#FFB74A" stroke="#121212" stroke-width="4.02"/>
<path d="M261.46 243.69C261.46 246.17 260.113 248.335 258.11 249.494C257.125 250.064 255.98 250.39 254.76 250.39C251.06 250.39 248.06 247.391 248.06 243.69C248.06 239.99 251.06 236.99 254.76 236.99C258.46 236.99 261.46 239.99 261.46 243.69Z" fill="#FFB74A" stroke="#121212" stroke-width="4.02"/>
</svg>
</g></svg>