<svg xmlns="http://www.w3.org/2000/svg" viewBox="0 0 512 512"><g id="layer1" transform="translate(0, 0)"><svg width="512" height="512" viewBox="0 0 512 512" fill="none" xmlns="http://www.w3.org/2000/svg">
<g clip-path="url(#clip0_75_1465)">
<path d="M512 0H0V512H512V0Z" fill="#FF9900"/>
<path d="M428 340H84V500H428V340Z" fill="#2D2D2D"/>
<path d="M316 176H196V472H316V176Z" fill="#E3E3E3"/>
<path d="M316 176H196V96H316V176Z" fill="#2D2D2D"/>
<path d="M262 96H250V132H262V96Z" fill="#E3E3E3"/>
</g>
<defs>
<clipPath id="clip0_75_1465">
<rect width="512" height="512" fill="white"/>
</clipPath>
</defs>
</svg>
</g><g id="layer2" transform="translate(84, 22)"><svg width="344" height="344" viewBox="0 0 344 344" fill="none" xmlns="http://www.w3.org/2000/svg">
<rect x="71.6599" y="90.4897" width="201" height="10.72" fill="#121212"/>
<rect x="111.86" y="63.6899" width="120.6" height="26.8" fill="#2D2D2D"/>
<rect x="111.86" y="10.0898" width="120.6" height="53.6" fill="#121212"/>
</svg>
</g><g id="layer3" transform="translate(84, 55)"><svg width="344" height="344" viewBox="0 0 344 344" fill="none" xmlns="http://www.w3.org/2000/svg">
<path d="M127.94 117.251H165.46V154.771H127.94V117.251Z" fill="white" fill-opacity="0.4"/>
<path d="M127.94 117.251H165.46V154.771H127.94V117.251ZM127.94 117.251H111.86" stroke="#121212" stroke-width="4.02"/>
<path d="M166.13 123.281H178.86" stroke="#121212" stroke-width="4.02"/>
<path d="M178.86 117.251H216.38V154.771H178.86V117.251Z" fill="white" fill-opacity="0.4"/>
<path d="M216.38 117.251H178.86V154.771H216.38V117.251ZM216.38 117.251H232.46" stroke="#121212" stroke-width="4.02"/>
</svg>
</g><g id="layer4" transform="translate(84, 140)"><svg width="344" height="344" viewBox="0 0 344 344" fill="none" xmlns="http://www.w3.org/2000/svg">
<path d="M198.72 189.42H145.12C145.12 189.42 145.12 216.22 171.939 216.22C198.758 216.22 198.72 189.42 198.72 189.42Z" fill="white"/>
</svg>
</g></svg>