<svg xmlns="http://www.w3.org/2000/svg" viewBox="0 0 512 512"><g id="layer1" transform="translate(0, 0)"><svg width="512" height="512" viewBox="0 0 512 512" fill="none" xmlns="http://www.w3.org/2000/svg">
<g clip-path="url(#clip0_75_1428)">
<path d="M512 0H0V512H512V0Z" fill="#FF9900"/>
<mask id="mask0_75_1428" style="mask-type:alpha" maskUnits="userSpaceOnUse" x="84" y="340" width="344" height="160">
<rect x="84" y="340" width="344" height="160" fill="#DA420F"/>
</mask>
<g mask="url(#mask0_75_1428)">
<circle cx="256" cy="336.328" r="279" fill="#C2FD52"/>
<circle cx="256" cy="336.328" r="245.048" fill="#FF00B1"/>
<circle cx="256" cy="336.328" r="216.262" fill="#AD00FF"/>
<circle cx="256" cy="336.328" r="182.31" fill="#00A8FF"/>
<circle cx="256" cy="336.328" r="154.262" fill="#C2FD52"/>
<circle cx="256" cy="336.328" r="126.952" fill="#D22D27"/>
<circle cx="256.001" cy="336.329" r="102.595" fill="#FFB74A"/>
<circle cx="256.001" cy="336.329" r="74.5476" fill="#AD00FF"/>
<circle cx="256.277" cy="336.605" r="45.9826" fill="#FF00B1"/>
<circle cx="256" cy="336.328" r="21.901" fill="#C2FD52"/>
</g>
<mask id="mask1_75_1428" style="mask-type:alpha" maskUnits="userSpaceOnUse" x="196" y="96" width="120" height="376">
<rect x="196" y="96" width="120" height="376" fill="#F15824"/>
</mask>
<g mask="url(#mask1_75_1428)">
<circle cx="256" cy="269.672" r="279" fill="#C2FD52"/>
<circle cx="256" cy="269.672" r="245.048" fill="#FF00B1"/>
<circle cx="256" cy="269.672" r="216.262" fill="#AD00FF"/>
<circle cx="256" cy="269.672" r="182.31" fill="#00A8FF"/>
<circle cx="256" cy="269.672" r="154.262" fill="#C2FD52"/>
<circle cx="256" cy="269.672" r="126.952" fill="#D22D27"/>
<circle cx="256.001" cy="269.672" r="102.595" fill="#FFB74A"/>
<circle cx="256.001" cy="269.673" r="74.5476" fill="#AD00FF"/>
<circle cx="256.277" cy="269.948" r="45.9826" fill="#FF00B1"/>
<circle cx="256" cy="269.672" r="21.901" fill="#C2FD52"/>
</g>
</g>
<defs>
<clipPath id="clip0_75_1428">
<rect width="512" height="512" fill="white"/>
</clipPath>
</defs>
</svg>
</g><g id="layer2" transform="translate(84, 22)"><svg width="344" height="344" viewBox="0 0 344 344" fill="none" xmlns="http://www.w3.org/2000/svg">
<rect width="120.6" height="32.16" transform="matrix(1 0 0 -1 111.54 104.06)" fill="#D22D27"/>
<rect x="212.844" y="77.2598" width="2.85866" height="21.44" fill="#FF9490"/>
<rect x="215.702" y="86.5503" width="7.86132" height="2.85866" fill="#FF9490"/>
<rect x="210.7" y="92.9824" width="12.864" height="2.85866" fill="#FF9490"/>
<rect x="210.7" y="80.1187" width="12.864" height="2.85866" fill="#FF9490"/>
<rect x="223.564" y="82.9771" width="2.85866" height="3.57332" fill="#FF9490"/>
<rect x="217.27" y="77.2598" width="2.85866" height="2.85866" fill="#FF9490"/>
<rect x="217.31" y="95.8413" width="2.85866" height="2.85866" fill="#FF9490"/>
<rect x="223.564" y="89.4092" width="2.85866" height="3.57332" fill="#FF9490"/>
<rect width="120.6" height="8.04" transform="matrix(1 0 0 -1 111.54 112.1)" fill="#FF9490"/>
<path d="M91.105 107.745L111.54 71.8999H180.215L120.92 126.17L91.105 107.745Z" fill="#D22D27"/>
</svg>
</g><g id="layer3" transform="translate(84, 55)"><svg width="344" height="344" viewBox="0 0 344 344" fill="none" xmlns="http://www.w3.org/2000/svg">
<path d="M111.82 119.26H162.74L168.1 124.62L157.38 154.77L111.82 141.37V119.26Z" fill="#121212"/>
<path d="M232.42 119.26H181.5L176.14 124.62L186.86 154.77L232.42 141.37V119.26Z" fill="#121212"/>
<rect x="162.74" y="119.26" width="18.76" height="8.04" fill="#121212"/>
</svg>
</g><g id="layer4" transform="translate(84, 140)"><svg width="344" height="344" viewBox="0 0 344 344" fill="none" xmlns="http://www.w3.org/2000/svg">
<path d="M165.1 194.372C165.1 194.372 173.692 190.767 175.82 194.372C177.933 197.95 170.795 203.752 170.795 203.752C170.795 203.752 179.593 201.017 181.515 204.757C183.672 208.954 173.14 213.467 173.14 213.467" stroke="#121212" stroke-width="4.02"/>
</svg>
</g></svg>