<svg xmlns="http://www.w3.org/2000/svg" viewBox="0 0 512 512"><g id="layer1" transform="translate(0, 0)"><svg width="512" height="512" viewBox="0 0 512 512" fill="none" xmlns="http://www.w3.org/2000/svg">
<g clip-path="url(#clip0_75_1428)">
<path d="M512 0H0V512H512V0Z" fill="#FF9900"/>
<mask id="mask0_75_1428" style="mask-type:alpha" maskUnits="userSpaceOnUse" x="84" y="340" width="344" height="160">
<rect x="84" y="340" width="344" height="160" fill="#DA420F"/>
</mask>
<g mask="url(#mask0_75_1428)">
<circle cx="256" cy="336.328" r="279" fill="#C2FD52"/>
<circle cx="256" cy="336.328" r="245.048" fill="#FF00B1"/>
<circle cx="256" cy="336.328" r="216.262" fill="#AD00FF"/>
<circle cx="256" cy="336.328" r="182.31" fill="#00A8FF"/>
<circle cx="256" cy="336.328" r="154.262" fill="#C2FD52"/>
<circle cx="256" cy="336.328" r="126.952" fill="#D22D27"/>
<circle cx="256.001" cy="336.329" r="102.595" fill="#FFB74A"/>
<circle cx="256.001" cy="336.329" r="74.5476" fill="#AD00FF"/>
<circle cx="256.277" cy="336.605" r="45.9826" fill="#FF00B1"/>
<circle cx="256" cy="336.328" r="21.901" fill="#C2FD52"/>
</g>
<mask id="mask1_75_1428" style="mask-type:alpha" maskUnits="userSpaceOnUse" x="196" y="96" width="120" height="376">
<rect x="196" y="96" width="120" height="376" fill="#F15824"/>
</mask>
<g mask="url(#mask1_75_1428)">
<circle cx="256" cy="269.672" r="279" fill="#C2FD52"/>
<circle cx="256" cy="269.672" r="245.048" fill="#FF00B1"/>
<circle cx="256" cy="269.672" r="216.262" fill="#AD00FF"/>
<circle cx="256" cy="269.672" r="182.31" fill="#00A8FF"/>
<circle cx="256" cy="269.672" r="154.262" fill="#C2FD52"/>
<circle cx="256" cy="269.672" r="126.952" fill="#D22D27"/>
<circle cx="256.001" cy="269.672" r="102.595" fill="#FFB74A"/>
<circle cx="256.001" cy="269.673" r="74.5476" fill="#AD00FF"/>
<circle cx="256.277" cy="269.948" r="45.9826" fill="#FF00B1"/>
<circle cx="256" cy="269.672" r="21.901" fill="#C2FD52"/>
</g>
</g>
<defs>
<clipPath id="clip0_75_1428">
<rect width="512" height="512" fill="white"/>
</clipPath>
</defs>
</svg>
</g><g id="layer2" transform="translate(84, 22)"><svg width="344" height="344" viewBox="0 0 344 344" fill="none" xmlns="http://www.w3.org/2000/svg">
<path d="M112.18 81.7803H232.78V30.8603H112.18V81.7803Z" fill="#121212"/>
<path d="M90.7402 108.581H254.22L232.78 81.7806H112.18L90.7402 108.581Z" fill="#2D2D2D"/>
</svg>
</g><g id="layer3" transform="translate(84, 55)"><svg width="344" height="344" viewBox="0 0 344 344" fill="none" xmlns="http://www.w3.org/2000/svg">
<path d="M127.3 117.251H164.82V154.771H127.3V117.251Z" fill="#FF00B1" fill-opacity="0.6"/>
<path d="M127.3 117.251H164.82V154.771H127.3V117.251ZM127.3 117.251H111.22" stroke="#121212" stroke-width="4.02"/>
<path d="M165.49 123.281H178.22" stroke="#121212" stroke-width="4.02"/>
<path d="M178.22 117.251H215.74V154.771H178.22V117.251Z" fill="#FF00B1" fill-opacity="0.6"/>
<path d="M215.74 117.251H178.22V154.771H215.74V117.251ZM215.74 117.251H231.82" stroke="#121212" stroke-width="4.02"/>
</svg>
</g><g id="layer4" transform="translate(256, 312)"><svg></svg></g></svg>