<svg width="512" height="512" viewBox="0 0 512 512" fill="none" xmlns="http://www.w3.org/2000/svg">
<g clip-path="url(#clip0_1672_4204)">
<path d="M480 515C480.941 515 481.828 514.558 482.395 513.807C482.962 513.055 483.143 512.081 482.885 511.176L460.831 433.989L460.778 433.801C458.429 425.582 456.594 419.159 454.528 414.203C452.415 409.136 449.945 405.303 446.156 402.445C442.367 399.586 438.002 398.265 432.55 397.625C427.217 397 420.537 397 411.988 397L411.794 397H308C307.341 397 306.701 397.217 306.178 397.617L256.965 435.25L205.778 397.584C205.263 397.205 204.64 397 204 397H100.206L100.012 397C91.4635 397 84.7834 397 79.4501 397.625C73.9978 398.265 69.6332 399.586 65.844 402.445C62.0547 405.303 59.5849 409.136 57.4723 414.203C55.4057 419.16 53.5706 425.583 51.2221 433.803L51.1687 433.989L29.1154 511.176C28.8568 512.081 29.038 513.055 29.6049 513.807C30.1718 514.558 31.0586 515 32 515H480Z" fill="#FF0900" stroke="#121212" stroke-width="6" stroke-linejoin="round"/>
<circle cx="404" cy="426" r="15" fill="#FC6736" stroke="#121212" stroke-width="6" stroke-linejoin="round"/>
<circle cx="428" cy="426" r="15" fill="#FC6736" stroke="#121212" stroke-width="6" stroke-linejoin="round"/>
<circle cx="428" cy="450" r="15" fill="#FC6736" stroke="#121212" stroke-width="6" stroke-linejoin="round"/>
<circle cx="404" cy="450" r="15" fill="#FC6736" stroke="#121212" stroke-width="6" stroke-linejoin="round"/>
<circle cx="416" cy="438" r="15" fill="#FFD600" stroke="#121212" stroke-width="6" stroke-linejoin="round"/>
<circle cx="85.7607" cy="425.76" r="15" fill="#FC6736" stroke="#121212" stroke-width="6" stroke-linejoin="round"/>
<circle cx="109.761" cy="425.76" r="15" fill="#FC6736" stroke="#121212" stroke-width="6" stroke-linejoin="round"/>
<circle cx="109.761" cy="449.76" r="15" fill="#FC6736" stroke="#121212" stroke-width="6" stroke-linejoin="round"/>
<circle cx="85.7607" cy="449.76" r="15" fill="#FC6736" stroke="#121212" stroke-width="6" stroke-linejoin="round"/>
<circle cx="97.7607" cy="437.76" r="15" fill="#FFD600" stroke="#121212" stroke-width="6" stroke-linejoin="round"/>
<circle cx="144" cy="489" r="15" fill="#FC6736" stroke="#121212" stroke-width="6" stroke-linejoin="round"/>
<circle cx="168" cy="489" r="15" fill="#FC6736" stroke="#121212" stroke-width="6" stroke-linejoin="round"/>
<circle cx="168" cy="513" r="15" fill="#FC6736" stroke="#121212" stroke-width="6" stroke-linejoin="round"/>
<circle cx="144" cy="513" r="15" fill="#FC6736" stroke="#121212" stroke-width="6" stroke-linejoin="round"/>
<circle cx="156" cy="501" r="15" fill="#FFD600" stroke="#121212" stroke-width="6" stroke-linejoin="round"/>
<circle cx="344" cy="489" r="15" fill="#FC6736" stroke="#121212" stroke-width="6" stroke-linejoin="round"/>
<circle cx="368" cy="489" r="15" fill="#FC6736" stroke="#121212" stroke-width="6" stroke-linejoin="round"/>
<circle cx="368" cy="513" r="15" fill="#FC6736" stroke="#121212" stroke-width="6" stroke-linejoin="round"/>
<circle cx="344" cy="513" r="15" fill="#FC6736" stroke="#121212" stroke-width="6" stroke-linejoin="round"/>
<circle cx="356" cy="501" r="15" fill="#FFD600" stroke="#121212" stroke-width="6" stroke-linejoin="round"/>
<circle cx="243.761" cy="488.761" r="15" fill="#FC6736" stroke="#121212" stroke-width="6" stroke-linejoin="round"/>
<circle cx="267.761" cy="488.761" r="15" fill="#FC6736" stroke="#121212" stroke-width="6" stroke-linejoin="round"/>
<circle cx="267.761" cy="512.761" r="15" fill="#FC6736" stroke="#121212" stroke-width="6" stroke-linejoin="round"/>
<circle cx="243.761" cy="512.761" r="15" fill="#FC6736" stroke="#121212" stroke-width="6" stroke-linejoin="round"/>
<circle cx="255.761" cy="500.761" r="15" fill="#FFD600" stroke="#121212" stroke-width="6" stroke-linejoin="round"/>
<path d="M262.052 441.567C262.837 441.093 263.362 440.285 263.477 439.374C263.591 438.464 263.283 437.551 262.639 436.897L204.639 377.897C204.051 377.299 203.24 376.974 202.401 377.002C201.563 377.029 200.774 377.407 200.227 378.042L184.727 396.042C183.991 396.897 183.796 398.091 184.223 399.135L212.223 467.635C212.555 468.447 213.225 469.073 214.058 469.348C214.89 469.624 215.801 469.521 216.552 469.067L262.052 441.567Z" fill="#FFADAA" stroke="#121212" stroke-width="6" stroke-linejoin="round"/>
<path d="M248.448 441.567C247.663 441.093 247.138 440.285 247.023 439.374C246.909 438.464 247.217 437.551 247.861 436.897L305.861 377.897C306.449 377.299 307.26 376.974 308.099 377.002C308.937 377.029 309.726 377.407 310.273 378.042L325.773 396.042C326.509 396.897 326.704 398.091 326.277 399.135L298.277 467.635C297.945 468.447 297.275 469.073 296.442 469.348C295.61 469.624 294.699 469.521 293.948 469.067L248.448 441.567Z" fill="#FFADAA" stroke="#121212" stroke-width="6" stroke-linejoin="round"/>
</g>
<defs>
<clipPath id="clip0_1672_4204">
<rect width="512" height="512" fill="white"/>
</clipPath>
</defs>
</svg>
