<svg width="512" height="512" viewBox="0 0 512 512" fill="none" xmlns="http://www.w3.org/2000/svg">
<g clip-path="url(#clip0_1672_4321)">
<path d="M163 399.997V399.995V397H160H100.206L100.012 397C91.4635 397 84.7835 397 79.4502 397.625C73.9979 398.265 69.6332 399.586 65.844 402.445C62.0548 405.303 59.5849 409.136 57.4723 414.203C55.4057 419.16 53.5706 425.583 51.2221 433.803L51.1688 433.989L29.1154 511.176L28.0228 515H32H480H483.977L482.885 511.176L460.831 433.989L460.778 433.801C458.429 425.582 456.594 419.159 454.528 414.203C452.415 409.136 449.945 405.303 446.156 402.445C442.367 399.586 438.002 398.265 432.55 397.625C427.217 397 420.537 397 411.988 397L411.794 397H352H349V399.995V399.997V399.997V400L349 400.02C349 400.044 348.999 400.085 348.998 400.142C348.995 400.256 348.99 400.435 348.98 400.675C348.958 401.156 348.915 401.878 348.826 402.809C348.649 404.672 348.291 407.361 347.572 410.599C346.131 417.084 343.25 425.717 337.504 434.336C326.128 451.399 303.126 469 256 469C208.874 469 185.872 451.399 174.496 434.336C168.75 425.717 165.87 417.084 164.429 410.599C163.709 407.361 163.351 404.672 163.174 402.809C163.085 401.878 163.042 401.156 163.021 400.675C163.01 400.435 163.005 400.256 163.002 400.142C163.001 400.085 163 400.044 163 400.02L163 400V399.997V399.997Z" fill="#202020" stroke="#121212" stroke-width="6"/>
<path d="M135.352 397.493C134.639 397.961 134.16 398.712 134.033 399.555C133.907 400.399 134.146 401.257 134.69 401.914L161.67 434.476L135.213 454.09C134.027 454.969 133.657 456.581 134.341 457.889L163.341 513.389C163.858 514.379 164.883 515 166 515H207C208.657 515 210 513.657 210 512V354C210 352.897 209.395 351.883 208.424 351.36C207.454 350.836 206.274 350.887 205.352 351.493L135.352 397.493Z" fill="#121212" stroke="#121212" stroke-width="6" stroke-linejoin="round"/>
<circle cx="159" cy="400" r="6" fill="white"/>
<circle cx="159" cy="458" r="6" fill="white"/>
<path d="M376.648 397.493C377.361 397.961 377.84 398.712 377.967 399.555C378.093 400.399 377.854 401.257 377.31 401.914L350.33 434.476L376.787 454.09C377.973 454.969 378.343 456.581 377.659 457.889L348.659 513.389C348.142 514.379 347.117 515 346 515H305C303.343 515 302 513.657 302 512V354C302 352.897 302.605 351.883 303.576 351.36C304.546 350.836 305.726 350.887 306.648 351.493L376.648 397.493Z" fill="#121212" stroke="#121212" stroke-width="6" stroke-linejoin="round"/>
<circle cx="353" cy="400" r="6" fill="white"/>
<circle cx="353" cy="458" r="6" fill="white"/>
<path d="M82.0896 407.272C81.8655 408.169 82.0669 409.118 82.6354 409.846C83.2039 410.574 84.0762 411 85 411H97C97.9238 411 98.7961 410.574 99.3646 409.846C99.9331 409.118 100.134 408.169 99.9104 407.272L93.9104 383.272C93.5766 381.937 92.3766 381 91 381C89.6234 381 88.4234 381.937 88.0896 383.272L82.0896 407.272Z" fill="white" stroke="#121212" stroke-width="6" stroke-linejoin="round"/>
<path d="M390.09 407.272C389.866 408.169 390.067 409.118 390.635 409.846C391.204 410.574 392.076 411 393 411H405C405.924 411 406.796 410.574 407.365 409.846C407.933 409.118 408.134 408.169 407.91 407.272L401.91 383.272C401.577 381.937 400.377 381 399 381C397.623 381 396.423 381.937 396.09 383.272L390.09 407.272Z" fill="white" stroke="#121212" stroke-width="6" stroke-linejoin="round"/>
<path d="M69.0896 439.272C68.8655 440.169 69.0669 441.118 69.6354 441.846C70.2039 442.574 71.0762 443 72 443H84C84.9238 443 85.7961 442.574 86.3646 441.846C86.9331 441.118 87.1345 440.169 86.9104 439.272L80.9104 415.272C80.5766 413.937 79.3766 413 78 413C76.6234 413 75.4234 413.937 75.0896 415.272L69.0896 439.272Z" fill="white" stroke="#121212" stroke-width="6" stroke-linejoin="round"/>
<path d="M377.09 439.272C376.866 440.169 377.067 441.118 377.635 441.846C378.204 442.574 379.076 443 380 443H392C392.924 443 393.796 442.574 394.365 441.846C394.933 441.118 395.134 440.169 394.91 439.272L388.91 415.272C388.577 413.937 387.377 413 386 413C384.623 413 383.423 413.937 383.09 415.272L377.09 439.272Z" fill="white" stroke="#121212" stroke-width="6" stroke-linejoin="round"/>
<path d="M93.0896 439.272C92.8655 440.169 93.0669 441.118 93.6354 441.846C94.2039 442.574 95.0762 443 96 443H108C108.924 443 109.796 442.574 110.365 441.846C110.933 441.118 111.134 440.169 110.91 439.272L104.91 415.272C104.577 413.937 103.377 413 102 413C100.623 413 99.4234 413.937 99.0896 415.272L93.0896 439.272Z" fill="white" stroke="#121212" stroke-width="6" stroke-linejoin="round"/>
<path d="M401.09 439.272C400.866 440.169 401.067 441.118 401.635 441.846C402.204 442.574 403.076 443 404 443H416C416.924 443 417.796 442.574 418.365 441.846C418.933 441.118 419.134 440.169 418.91 439.272L412.91 415.272C412.577 413.937 411.377 413 410 413C408.623 413 407.423 413.937 407.09 415.272L401.09 439.272Z" fill="white" stroke="#121212" stroke-width="6" stroke-linejoin="round"/>
<path d="M103.09 407.272C102.866 408.169 103.067 409.118 103.635 409.846C104.204 410.574 105.076 411 106 411H118C118.924 411 119.796 410.574 120.365 409.846C120.933 409.118 121.134 408.169 120.91 407.272L114.91 383.272C114.577 381.937 113.377 381 112 381C110.623 381 109.423 381.937 109.09 383.272L103.09 407.272Z" fill="white" stroke="#121212" stroke-width="6" stroke-linejoin="round"/>
<path d="M411.09 407.272C410.866 408.169 411.067 409.118 411.635 409.846C412.204 410.574 413.076 411 414 411H426C426.924 411 427.796 410.574 428.365 409.846C428.933 409.118 429.134 408.169 428.91 407.272L422.91 383.272C422.577 381.937 421.377 381 420 381C418.623 381 417.423 381.937 417.09 383.272L411.09 407.272Z" fill="white" stroke="#121212" stroke-width="6" stroke-linejoin="round"/>
<path d="M117.09 439.272C116.866 440.169 117.067 441.118 117.635 441.846C118.204 442.574 119.076 443 120 443H132C132.924 443 133.796 442.574 134.365 441.846C134.933 441.118 135.134 440.169 134.91 439.272L128.91 415.272C128.577 413.937 127.377 413 126 413C124.623 413 123.423 413.937 123.09 415.272L117.09 439.272Z" fill="white" stroke="#121212" stroke-width="6" stroke-linejoin="round"/>
<path d="M425.09 439.272C424.866 440.169 425.067 441.118 425.635 441.846C426.204 442.574 427.076 443 428 443H440C440.924 443 441.796 442.574 442.365 441.846C442.933 441.118 443.134 440.169 442.91 439.272L436.91 415.272C436.577 413.937 435.377 413 434 413C432.623 413 431.423 413.937 431.09 415.272L425.09 439.272Z" fill="white" stroke="#121212" stroke-width="6" stroke-linejoin="round"/>
</g>
<defs>
<clipPath id="clip0_1672_4321">
<rect width="512" height="512" fill="white"/>
</clipPath>
</defs>
</svg>
