<svg width="512" height="512" viewBox="0 0 512 512" fill="none" xmlns="http://www.w3.org/2000/svg">
<g clip-path="url(#clip0_1672_5269)">
<mask id="path-1-outside-1_1672_5269" maskUnits="userSpaceOnUse" x="24" y="366" width="464" height="152" fill="black">
<rect fill="white" x="24" y="366" width="464" height="152"/>
<path fill-rule="evenodd" clip-rule="evenodd" d="M305 372H207V400H100.206C82.7799 400 74.0666 400 67.6505 404.84C61.2345 409.679 58.8408 418.057 54.0533 434.813L32 512H480L457.947 434.813C453.159 418.057 450.766 409.679 444.349 404.84C437.933 400 429.22 400 411.794 400H305V372Z"/>
</mask>
<path fill-rule="evenodd" clip-rule="evenodd" d="M305 372H207V400H100.206C82.7799 400 74.0666 400 67.6505 404.84C61.2345 409.679 58.8408 418.057 54.0533 434.813L32 512H480L457.947 434.813C453.159 418.057 450.766 409.679 444.349 404.84C437.933 400 429.22 400 411.794 400H305V372Z" fill="#202020"/>
<path d="M207 372V366H201V372H207ZM305 372H311V366H305V372ZM207 400V406H213V400H207ZM67.6505 404.84L71.2637 409.63L71.2637 409.63L67.6505 404.84ZM54.0533 434.813L48.2842 433.165L54.0533 434.813ZM32 512L26.2309 510.352L24.0456 518H32V512ZM480 512V518H487.954L485.769 510.352L480 512ZM457.947 434.813L452.178 436.462L457.947 434.813ZM444.349 404.84L440.736 409.63L444.349 404.84ZM305 400H299V406H305V400ZM207 378H305V366H207V378ZM213 400V372H201V400H213ZM100.206 406H207V394H100.206V406ZM71.2637 409.63C73.3094 408.087 75.927 407.1 80.4984 406.564C85.2271 406.01 91.3505 406 100.206 406V394C91.6359 394 84.6893 393.99 79.1007 394.646C73.3548 395.32 68.4078 396.753 64.0374 400.05L71.2637 409.63ZM59.8225 436.462C62.2554 427.946 63.9468 422.061 65.7791 417.667C67.5504 413.419 69.2181 411.173 71.2637 409.63L64.0374 400.05C59.667 403.346 56.9297 407.709 54.7033 413.049C52.5379 418.242 50.6387 424.924 48.2842 433.165L59.8225 436.462ZM37.7691 513.648L59.8225 436.462L48.2842 433.165L26.2309 510.352L37.7691 513.648ZM480 506H32V518H480V506ZM452.178 436.462L474.231 513.648L485.769 510.352L463.716 433.165L452.178 436.462ZM440.736 409.63C442.782 411.173 444.45 413.419 446.221 417.667C448.053 422.061 449.745 427.946 452.178 436.462L463.716 433.165C461.361 424.924 459.462 418.242 457.297 413.049C455.07 407.709 452.333 403.346 447.963 400.05L440.736 409.63ZM411.794 406C420.65 406 426.773 406.01 431.502 406.564C436.073 407.1 438.691 408.087 440.736 409.63L447.963 400.05C443.592 396.753 438.645 395.32 432.899 394.646C427.311 393.99 420.364 394 411.794 394V406ZM305 406H411.794V394H305V406ZM299 372V400H311V372H299Z" fill="#121212" mask="url(#path-1-outside-1_1672_5269)"/>
<path d="M470.001 477L461.001 445.5C461.001 445.5 445.073 451.5 450 467.5C454.003 480.5 470.001 477 470.001 477Z" fill="white"/>
<path d="M207 515H210V512V472C210 461.507 201.493 453 191 453H112C101.507 453 93 461.507 93 472V512V515H96H207Z" fill="#FC6736" stroke="#121212" stroke-width="6"/>
<path d="M416 515H419V512V472C419 461.507 410.493 453 400 453H321C310.507 453 302 461.507 302 472V512V515H305H416Z" fill="#FC6736" stroke="#121212" stroke-width="6"/>
<path d="M256 372L256 512" stroke="white" stroke-width="6"/>
<rect x="432.43" y="450.736" width="12" height="40" rx="6" transform="rotate(-18 432.43 450.736)" fill="#77492D"/>
</g>
<defs>
<clipPath id="clip0_1672_5269">
<rect width="512" height="512" fill="white"/>
</clipPath>
</defs>
</svg>
