<svg width="512" height="512" viewBox="0 0 512 512" fill="none" xmlns="http://www.w3.org/2000/svg">
<g clip-path="url(#clip0_1672_5293)">
<mask id="path-1-outside-1_1672_5293" maskUnits="userSpaceOnUse" x="26" y="346" width="460" height="172" fill="black">
<rect fill="white" x="26" y="346" width="460" height="172"/>
<path fill-rule="evenodd" clip-rule="evenodd" d="M305 352H207V400H100.206C82.7799 400 74.0666 400 67.6505 404.84C61.2345 409.679 58.8408 418.057 54.0533 434.813L32 512H480L457.947 434.813C453.159 418.057 450.766 409.679 444.349 404.84C437.933 400 429.22 400 411.794 400H305V352Z"/>
</mask>
<path fill-rule="evenodd" clip-rule="evenodd" d="M305 352H207V400H100.206C82.7799 400 74.0666 400 67.6505 404.84C61.2345 409.679 58.8408 418.057 54.0533 434.813L32 512H480L457.947 434.813C453.159 418.057 450.766 409.679 444.349 404.84C437.933 400 429.22 400 411.794 400H305V352Z" fill="#0031B1"/>
<path d="M207 352V346C203.686 346 201 348.686 201 352H207ZM305 352H311C311 348.686 308.314 346 305 346V352ZM207 400V406C210.314 406 213 403.314 213 400H207ZM67.6505 404.84L71.2637 409.63L71.2637 409.63L67.6505 404.84ZM54.0533 434.813L48.2842 433.165V433.165L54.0533 434.813ZM32 512L26.2309 510.352C25.7136 512.162 26.0761 514.11 27.2099 515.613C28.3437 517.116 30.1173 518 32 518V512ZM480 512V518C481.883 518 483.656 517.116 484.79 515.613C485.924 514.11 486.286 512.162 485.769 510.352L480 512ZM457.947 434.813L452.178 436.462L457.947 434.813ZM444.349 404.84L440.736 409.63L444.349 404.84ZM305 400H299C299 403.314 301.686 406 305 406V400ZM207 358H305V346H207V358ZM213 400V352H201V400H213ZM100.206 406H207V394H100.206V406ZM71.2637 409.63C73.3094 408.087 75.927 407.1 80.4984 406.564C85.2271 406.01 91.3505 406 100.206 406V394C91.6359 394 84.6893 393.99 79.1007 394.646C73.3548 395.32 68.4078 396.753 64.0374 400.05L71.2637 409.63ZM59.8225 436.462C62.2554 427.946 63.9468 422.061 65.7791 417.667C67.5504 413.419 69.2181 411.173 71.2637 409.63L64.0374 400.05C59.667 403.346 56.9297 407.709 54.7033 413.049C52.5379 418.242 50.6387 424.924 48.2842 433.165L59.8225 436.462ZM37.7691 513.648L59.8225 436.462L48.2842 433.165L26.2309 510.352L37.7691 513.648ZM480 506H32V518H480V506ZM452.178 436.462L474.231 513.648L485.769 510.352L463.716 433.165L452.178 436.462ZM440.736 409.63C442.782 411.173 444.45 413.419 446.221 417.667C448.053 422.061 449.745 427.946 452.178 436.462L463.716 433.165C461.361 424.924 459.462 418.242 457.297 413.049C455.07 407.709 452.333 403.346 447.963 400.05L440.736 409.63ZM411.794 406C420.65 406 426.773 406.01 431.502 406.564C436.073 407.1 438.691 408.087 440.736 409.63L447.963 400.05C443.592 396.753 438.645 395.32 432.899 394.646C427.311 393.99 420.364 394 411.794 394V406ZM305 406H411.794V394H305V406ZM299 352V400H311V352H299Z" fill="#121212" mask="url(#path-1-outside-1_1672_5293)"/>
<path d="M88 429H85V432V512V515H88H424H427V512V432V429H424H88Z" fill="#1B9B4B" stroke="#121212" stroke-width="6"/>
<path d="M129.565 493.565C126.572 496.558 125.243 500.354 124.613 505.044C124 509.601 124 515.423 124 522.774L124 523V526L124 526.226C124 533.577 124 539.399 124.613 543.956C125.243 548.646 126.572 552.442 129.565 555.435C132.558 558.428 136.354 559.757 141.044 560.387C145.601 561 151.423 561 158.774 561H159H175H175.226C182.577 561 188.399 561 192.956 560.387C197.646 559.757 201.442 558.428 204.435 555.435C207.428 552.442 208.757 548.646 209.387 543.956C210 539.399 210 533.577 210 526.226V526V523V522.774C210 515.423 210 509.601 209.387 505.044C208.757 500.354 207.428 496.558 204.435 493.565C201.442 490.572 197.646 489.243 192.956 488.613C188.399 488 182.577 488 175.226 488L175 488H159L158.774 488C151.423 488 145.601 488 141.044 488.613C136.354 489.243 132.558 490.572 129.565 493.565Z" fill="#42B06C" stroke="#121212" stroke-width="6" stroke-linejoin="round"/>
<path d="M307.565 493.565C304.572 496.558 303.243 500.354 302.613 505.044C302 509.601 302 515.423 302 522.774L302 523V526L302 526.226C302 533.577 302 539.399 302.613 543.956C303.243 548.646 304.572 552.442 307.565 555.435C310.558 558.428 314.354 559.757 319.044 560.387C323.601 561 329.423 561 336.774 561H337H353H353.226C360.577 561 366.399 561 370.956 560.387C375.646 559.757 379.442 558.428 382.435 555.435C385.428 552.442 386.757 548.646 387.387 543.956C388 539.399 388 533.577 388 526.226V526V523V522.774C388 515.423 388 509.601 387.387 505.044C386.757 500.354 385.428 496.558 382.435 493.565C379.442 490.572 375.646 489.243 370.956 488.613C366.399 488 360.577 488 353.226 488L353 488H337L336.774 488C329.423 488 323.601 488 319.044 488.613C314.354 489.243 310.558 490.572 307.565 493.565Z" fill="#42B06C" stroke="#121212" stroke-width="6" stroke-linejoin="round"/>
<mask id="path-6-outside-2_1672_5293" maskUnits="userSpaceOnUse" x="82" y="364" width="131" height="109" fill="black">
<rect fill="white" x="82" y="364" width="131" height="109"/>
<path fill-rule="evenodd" clip-rule="evenodd" d="M207 370H166V400H88V435C88 450.085 88 457.627 92.6863 462.314C97.3726 467 104.915 467 120 467H175C190.085 467 197.627 467 202.314 462.314C207 457.627 207 450.085 207 435L207 400V370Z"/>
</mask>
<path fill-rule="evenodd" clip-rule="evenodd" d="M207 370H166V400H88V435C88 450.085 88 457.627 92.6863 462.314C97.3726 467 104.915 467 120 467H175C190.085 467 197.627 467 202.314 462.314C207 457.627 207 450.085 207 435L207 400V370Z" fill="#42B06C"/>
<path d="M166 370V364C162.686 364 160 366.686 160 370H166ZM207 370H213C213 366.686 210.314 364 207 364V370ZM166 400V406C169.314 406 172 403.314 172 400H166ZM88 400V394C84.6863 394 82 396.686 82 400H88ZM92.6863 462.314L96.9289 458.071L96.9289 458.071L92.6863 462.314ZM202.314 462.314L198.071 458.071L198.071 458.071L202.314 462.314ZM207 435H213H207ZM207 400H201V400L207 400ZM166 376H207V364H166V376ZM172 400V370H160V400H172ZM88 406H166V394H88V406ZM94 435V400H82V435H94ZM96.9289 458.071C95.8864 457.029 95.0286 455.449 94.5323 451.757C94.0127 447.893 94 442.712 94 435H82C82 442.373 81.9873 448.506 82.6393 453.356C83.3145 458.378 84.7999 462.913 88.4437 466.556L96.9289 458.071ZM120 461C112.288 461 107.107 460.987 103.243 460.468C99.5514 459.971 97.9715 459.114 96.9289 458.071L88.4436 466.556C92.0874 470.2 96.6218 471.685 101.644 472.361C106.494 473.013 112.627 473 120 473V461ZM175 461H120V473H175V461ZM198.071 458.071C197.029 459.114 195.449 459.971 191.757 460.468C187.893 460.987 182.712 461 175 461V473C182.373 473 188.506 473.013 193.356 472.361C198.378 471.685 202.913 470.2 206.556 466.556L198.071 458.071ZM201 435C201 442.712 200.987 447.893 200.468 451.757C199.971 455.449 199.114 457.029 198.071 458.071L206.556 466.556C210.2 462.913 211.685 458.378 212.361 453.356C213.013 448.506 213 442.373 213 435H201ZM201 400L201 435H213L213 400L201 400ZM201 370V400H213V370H201Z" fill="#121212" mask="url(#path-6-outside-2_1672_5293)"/>
<circle cx="148" cy="449" r="6" fill="white"/>
<mask id="path-9-outside-3_1672_5293" maskUnits="userSpaceOnUse" x="299" y="364" width="131" height="109" fill="black">
<rect fill="white" x="299" y="364" width="131" height="109"/>
<path fill-rule="evenodd" clip-rule="evenodd" d="M305 370H346V400H424V435C424 450.085 424 457.627 419.314 462.314C414.627 467 407.085 467 392 467H337C321.915 467 314.373 467 309.686 462.314C305 457.627 305 450.085 305 435L305 400V370Z"/>
</mask>
<path fill-rule="evenodd" clip-rule="evenodd" d="M305 370H346V400H424V435C424 450.085 424 457.627 419.314 462.314C414.627 467 407.085 467 392 467H337C321.915 467 314.373 467 309.686 462.314C305 457.627 305 450.085 305 435L305 400V370Z" fill="#42B06C"/>
<path d="M346 370H352C352 366.686 349.314 364 346 364V370ZM305 370V364C301.686 364 299 366.686 299 370H305ZM346 400H340C340 403.314 342.686 406 346 406V400ZM424 400H430C430 396.686 427.314 394 424 394V400ZM419.314 462.314L415.071 458.071L415.071 458.071L419.314 462.314ZM309.686 462.314L313.929 458.071L313.929 458.071L309.686 462.314ZM305 435H299H305ZM305 400L311 400V400H305ZM346 364H305V376H346V364ZM352 400V370H340V400H352ZM424 394H346V406H424V394ZM430 435V400H418V435H430ZM423.556 466.556C427.2 462.913 428.685 458.378 429.361 453.356C430.013 448.506 430 442.373 430 435H418C418 442.712 417.987 447.893 417.468 451.757C416.971 455.449 416.114 457.029 415.071 458.071L423.556 466.556ZM392 473C399.373 473 405.506 473.013 410.356 472.361C415.378 471.685 419.913 470.2 423.556 466.556L415.071 458.071C414.029 459.114 412.449 459.971 408.757 460.468C404.893 460.987 399.712 461 392 461V473ZM337 473H392V461H337V473ZM305.444 466.556C309.087 470.2 313.622 471.685 318.644 472.361C323.494 473.013 329.627 473 337 473V461C329.288 461 324.107 460.987 320.243 460.468C316.551 459.971 314.971 459.114 313.929 458.071L305.444 466.556ZM299 435C299 442.373 298.987 448.506 299.639 453.356C300.315 458.378 301.8 462.913 305.444 466.556L313.929 458.071C312.886 457.029 312.029 455.449 311.532 451.757C311.013 447.893 311 442.712 311 435H299ZM299 400L299 435H311L311 400L299 400ZM299 370V400H311V370H299Z" fill="#121212" mask="url(#path-9-outside-3_1672_5293)"/>
<circle cx="6" cy="6" r="6" transform="matrix(-1 0 0 1 370 443)" fill="white"/>
<path d="M470.001 477L470.642 479.931C471.452 479.754 472.152 479.25 472.577 478.539C473.001 477.828 473.113 476.972 472.886 476.176L463.886 444.676C463.655 443.87 463.098 443.197 462.349 442.82C461.601 442.443 460.728 442.397 459.944 442.693L461.001 445.5C459.944 442.693 459.942 442.693 459.941 442.694L459.938 442.695L459.93 442.698L459.91 442.705L459.854 442.727C459.809 442.745 459.749 442.769 459.675 442.8C459.527 442.861 459.325 442.948 459.076 443.062C458.579 443.29 457.894 443.628 457.097 444.085C455.513 444.994 453.426 446.409 451.491 448.42C447.515 452.555 444.291 459.154 447.133 468.383C449.584 476.342 455.835 479.222 461.009 480.084C463.572 480.511 465.955 480.472 467.678 480.334C468.546 480.265 469.264 480.169 469.774 480.088C470.029 480.048 470.234 480.011 470.381 479.983C470.454 479.969 470.513 479.958 470.557 479.949L470.611 479.937L470.63 479.933L470.637 479.932L470.64 479.931C470.641 479.931 470.642 479.931 470.001 477Z" fill="#FF0900" stroke="#121212" stroke-width="6" stroke-linejoin="round"/>
<path d="M256 432L256 512" stroke="white" stroke-width="6"/>
</g>
<defs>
<clipPath id="clip0_1672_5293">
<rect width="512" height="512" fill="white"/>
</clipPath>
</defs>
</svg>
