<svg width="512" height="512" viewBox="0 0 512 512" fill="none" xmlns="http://www.w3.org/2000/svg">
<path d="M120.501 230.5C113.701 112.5 170.001 48.5 254.001 48.5C355 48.5 402.915 117.805 395.501 230.5C393.018 268.234 394.969 371.345 395.415 392.983C395.462 395.227 393.662 397 391.417 397H308.501V348H348.001V245H369.5L381.5 174C381.5 174 354.111 177.448 343.5 174C324.974 167.979 312.469 123 308 128.5C295 144.5 262 180.5 165 175C145.429 173.89 130.5 174 130.5 174L145 245H162.501V348H204.501V397H124.567C122.331 397 120.53 395.238 120.565 393.003C120.911 371.003 122.456 264.433 120.501 230.5Z" fill="#121212"/>
</svg>
