<svg width="512" height="512" viewBox="0 0 512 512" fill="none" xmlns="http://www.w3.org/2000/svg">
<path d="M160 56C160 52.6863 162.686 50 166 50H312C334.091 50 352 67.9086 352 90V150L160 150V56Z" fill="#121212"/>
<path d="M334 129H350C363.255 129 374 139.745 374 153V172H334V129Z" fill="#121212"/>
<path d="M178 129H162C148.745 129 138 139.745 138 153V172H178V129Z" fill="#121212"/>
<path d="M160 150H178V245C178 249.971 173.971 254 169 254V254C164.029 254 160 249.971 160 245V150Z" fill="#121212"/>
<path d="M334 150H352V245C352 249.971 347.971 254 343 254V254C338.029 254 334 249.971 334 245V150Z" fill="#121212"/>
</svg>
