<svg width="512" height="512" viewBox="0 0 512 512" fill="none" xmlns="http://www.w3.org/2000/svg">
<path d="M339.5 206C344.5 224 348.5 217.194 348.5 212.5C348.5 197 349.441 181.5 348.5 163C347.559 144.5 322.5 108 305.5 102.5L287 136C337.5 144 334.5 188 339.5 206Z" fill="#121212" fill-opacity="0.2"/>
<path d="M308 100C313.861 111.722 298 138.704 289.5 136.5C281 134.297 189.035 122.044 174 175.5C160.4 233.1 179 280 190 302.5C201 325 179 317.5 170.5 307.5C164.975 301 152 279 152 279C152 279 154.5 309 147 302.5C99.8683 261.652 100.161 95.2729 190 72C237.865 59.6006 294.5 73.0003 308 100Z" fill="#121212"/>
</svg>
