<svg xmlns="http://www.w3.org/2000/svg" viewBox="0 0 500 500"><g id="layer1"><svg width="512" height="512" viewBox="0 0 512 512" fill="none" xmlns="http://www.w3.org/2000/svg">
<rect width="512" height="512" fill="#0047FF"/>
<path d="M134 178H167V242H146L134 178Z" fill="#E24713"/>
<path d="M378 178H345V242H366L378 178Z" fill="#E24713"/>
<rect x="207" y="346" width="98" height="54" fill="#E24713"/>
<path d="M64 400H448L480 512H32L64 400Z" fill="#F15824"/>
<rect x="166" y="106" width="180" height="240" fill="#F15824"/>
</svg>
</g><g id="layer2"><svg width="512" height="512" viewBox="0 0 512 512" fill="none" xmlns="http://www.w3.org/2000/svg">
<path d="M134 178H166V242H146L134 178Z" fill="#36CF00"/>
<path d="M378 178H346V242H366L378 178Z" fill="#36CF00"/>
<path d="M64 400H448L480 512H32L64 400Z" fill="#3BE200"/>
<rect x="207" y="346" width="98" height="54" fill="#36CF00"/>
<rect x="166" y="106" width="180" height="240" fill="#3BE200"/>
</svg>
</g><g id="layer3"><svg width="512" height="512" viewBox="0 0 512 512" fill="none" xmlns="http://www.w3.org/2000/svg">
<path d="M166 86L256 62L346 86V138H166V86Z" fill="#165B32"/>
<path d="M256 80L260.702 89.5279L271.217 91.0557L263.608 98.4721L265.405 108.944L256 104L246.595 108.944L248.392 98.4721L240.783 91.0557L251.298 89.5279L256 80Z" fill="#FEED59"/>
<rect x="166" y="122" width="180" height="16" fill="#FEED59"/>
<path d="M166 138H346V154L256 174L166 154V138Z" fill="#0C4122"/>
</svg>
</g><g id="layer4"><svg width="512" height="512" viewBox="0 0 512 512" fill="none" xmlns="http://www.w3.org/2000/svg">
<path d="M64 400H448L480 512H32L64 400Z" fill="white"/>
<path d="M256 422L215 400V444L256 422Z" fill="#121212"/>
<path d="M256 422L297 400V444L256 422Z" fill="#121212"/>
<rect x="143" y="400" width="24" height="112" fill="#121212"/>
<rect x="346" y="400" width="24" height="112" fill="#121212"/>
<rect x="143" y="472" width="24" height="12" fill="#D8D8D8"/>
<rect x="346" y="472" width="24" height="12" fill="#D8D8D8"/>
</svg>
</g><g id="layer5"><svg></svg></g><g id="layer6"><svg width="512" height="512" viewBox="0 0 512 512" fill="none" xmlns="http://www.w3.org/2000/svg">
<path d="M228 282H261.5H284" stroke="#121212" stroke-width="6"/>
<path d="M284 301.25V282H261.5V301.25C261.5 307.463 266.537 312.5 272.75 312.5C278.963 312.5 284 307.463 284 301.25Z" fill="#D22D27" stroke="#121212" stroke-width="6"/>
</svg>
</g><g id="layer7"><svg width="512" height="512" viewBox="0 0 512 512" fill="none" xmlns="http://www.w3.org/2000/svg">
    <circle cx="222" cy="194" r="10" fill="#121212">
      </circle>
    <circle cx="290" cy="194" r="10" fill="#121212">
      </circle>
  
        <path d="M206 162H238" stroke="#121212" stroke-width="6">
            <animateTransform attributeName="transform" type="translate" begin="0s" dur="4s" repeatCount="indefinite" keyTimes="0;0.05;0.1;0.75;0.8;1" values="0 0;0 0;0 24;0 24;0 0;0 0" />
        </path>
    <g transform="translate(0,0)">
        <path d="M274 162H306" stroke="#121212" stroke-width="6">
            <animateTransform attributeName="transform" type="translate" begin="0s" dur="4s" repeatCount="indefinite" keyTimes="0;0.05;0.1;0.75;0.8;1" values="0 0;0 0;2 -16;2 -16;0 0;0 0" />
            <animateTransform attributeName="transform" type="rotate" begin="0s" dur="4s" repeatCount="indefinite" keyTimes="0;0.05;0.1;0.75;0.8;1" values="0 290 162;0 290 162;30 290 162;30 290 162;0 290 162;0 290 162" additive="sum" />
        </path>
    </g>
</svg>
</g><g id="layer8"><svg width="512" height="512" viewBox="0 0 512 512" fill="none" xmlns="http://www.w3.org/2000/svg">
<path d="M190 175H246V231H190V175Z" fill="#121212"/>
<path d="M190 175H246V231H190V175ZM190 175H166" stroke="#121212" stroke-width="6"/>
<path d="M247 184H266" stroke="#121212" stroke-width="6"/>
<path d="M266 175H322V231H266V175Z" fill="#121212"/>
<path d="M322 175H266V231H322V175ZM322 175H346" stroke="#121212" stroke-width="6"/>
<mask id="mask0_139_2" style="mask-type:alpha" maskUnits="userSpaceOnUse" x="269" y="178" width="50" height="50">
<path d="M269 178H319V228H309.625H269V178Z" fill="#121212"/>
</mask>
<g mask="url(#mask0_139_2)">
<path d="M279.545 178H290L277.455 228H267L279.545 178Z" fill="#FFF">
<animateTransform attributeName="transform" type="translate" dur="4s" repeatCount="indefinite" keyTimes="0;0.8;1" values="-32 0;-32 0;48 0" />
</path>
</g>
<mask id="mask1_139_2" style="mask-type:alpha" maskUnits="userSpaceOnUse" x="193" y="178" width="50" height="50">
<path d="M193 178H243V228H233.625H193V178Z" fill="#121212"/>
</mask>
<g mask="url(#mask1_139_2)">
<path d="M203.545 178H214L201.455 228H191L203.545 178Z" fill="#FFF">
<animateTransform attributeName="transform" type="translate" dur="4s" repeatCount="indefinite" keyTimes="0;0.8;1" values="-32 0;-32 0;48 0" />
</path>
</g>
</svg>
</g></svg>