<svg xmlns="http://www.w3.org/2000/svg" viewBox="0 0 500 500"><g id="layer1"><svg width="512" height="512" viewBox="0 0 512 512" fill="none" xmlns="http://www.w3.org/2000/svg">
<rect width="512" height="512" fill="#FFD600"/>
<path d="M134 178H167V242H146L134 178Z" fill="#E24713"/>
<path d="M378 178H345V242H366L378 178Z" fill="#E24713"/>
<rect x="207" y="346" width="98" height="54" fill="#E24713"/>
<path d="M64 400H448L480 512H32L64 400Z" fill="#F15824"/>
<rect x="166" y="106" width="180" height="240" fill="#F15824"/>
</svg>
</g><g id="layer2"><svg width="512" height="512" viewBox="0 0 512 512" fill="none" xmlns="http://www.w3.org/2000/svg">
<path d="M134 178H166V242H146L134 178Z" fill="#80573E"/>
<path d="M378 178H346V242H366L378 178Z" fill="#80573E"/>
<rect x="207" y="346" width="98" height="54" fill="#80573E"/>
<path d="M64 400H448L480 512H32L64 400Z" fill="#8B634A"/>
<rect x="136" y="456" width="240" height="56" fill="#AE7B5C"/>
<rect x="166" y="106" width="180" height="240" fill="#8B634A"/>
<rect x="207" y="242" width="98" height="104" fill="#AE7B5C"/>
<rect x="182" y="178" width="148" height="64" fill="#AE7B5C"/>
<path d="M232 252L240 238H272L280 252" stroke="#121212" stroke-width="6"/>
<path d="M260 266L272 258M252 266L240 258" stroke="#121212" stroke-width="6"/>
</svg>
</g><g id="layer3"><svg width="512" height="512" viewBox="0 0 512 512" fill="none" xmlns="http://www.w3.org/2000/svg">
<circle cx="256" cy="106" r="40" fill="#121212"/>
<path d="M166 106H346V178L325 138L256 158L187 138L166 178V106Z" fill="#121212"/>
</svg>
</g><g id="layer4"><svg width="512" height="512" viewBox="0 0 512 512" fill="none" xmlns="http://www.w3.org/2000/svg">
<path d="M64 400H188C188 400 190 452 256 452C322 452 324 400 324 400H448L480 512H32L64 400Z" fill="white"/>
<rect x="136" y="472" width="240" height="40" fill="#00B2FE"/>
<path d="M236 488L243.629 512H247.857L240.292 488H236ZM272.078 488L264.068 512H268.36L276.307 488H272.079H272.078ZM249.653 500.652H255.853L249.113 509.139V512H262.591V507.899H256.018L262.814 499.412V496.551H249.653V500.652Z" fill="#0096D7"/>
<circle cx="150" cy="486" r="6" fill="white"/>
<circle cx="362" cy="486" r="6" fill="white"/>
<rect x="136" y="400" width="24" height="72" fill="#0096D7"/>
<rect x="352" y="400" width="24" height="72" fill="#0096D7"/>
</svg>
</g><g id="layer5"><svg></svg></g><g id="layer6"><svg width="512" height="512" viewBox="0 0 512 512" fill="none" xmlns="http://www.w3.org/2000/svg">
<rect x="238" y="298" width="36" height="4" rx="2" fill="white">
  <animate attributeName="y" dur="4s" repeatCount="indefinite" keyTimes="0;0.05;0.1;0.75;0.8;1" values="298;298;282;282;298;298" />
  <animate attributeName="height" dur="4s" repeatCount="indefinite" keyTimes="0;0.05;0.1;0.75;0.8;1" values="4;4;36;36;4;4" />
  <animate attributeName="rx" dur="4s" repeatCount="indefinite" keyTimes="0;0.05;0.1;0.75;0.8;1" values="2;2;18;18;2;2" />
</rect>
</svg>
</g><g id="layer7"><svg width="512" height="512" viewBox="0 0 512 512" fill="none" xmlns="http://www.w3.org/2000/svg">
  <rect x="212" y="194" width="20" height="20" rx="10" fill="#121212">
    <animate attributeName="rx" values="10;10;1;10;10;1;10;10;" keyTimes="0;0.275;0.3;0.325;0.725;0.75;0.775;1" dur="4s" repeatCount="indefinite" />
    <animate attributeName="height" values="20;20;2;20;20;2;20;20" keyTimes="0;0.275;0.3;0.325;0.725;0.75;0.775;1" dur="4s" repeatCount="indefinite" />
    <animate attributeName="y" values="194;194;203;194;194;203;194;194" keyTimes="0;0.275;0.3;0.325;0.725;0.75;0.775;1" dur="4s" repeatCount="indefinite" />
  </rect>
  <rect x="280" y="194" width="20" height="20" rx="10" fill="#121212">
    <animate attributeName="rx" values="10;10;1;10;10;1;10;10" keyTimes="0;0.275;0.3;0.325;0.725;0.75;0.775;1" dur="4s" repeatCount="indefinite" />
    <animate attributeName="height" values="20;20;2;20;20;2;20;20" keyTimes="0;0.275;0.3;0.325;0.725;0.75;0.775;1" dur="4s" repeatCount="indefinite" />
    <animate attributeName="y" values="194;194;203;194;194;203;194;194" keyTimes="0;0.275;0.3;0.325;0.725;0.75;0.775;1" dur="4s" repeatCount="indefinite" />
  </rect>
  <path d="M206 162H238" stroke="#121212" stroke-width="6"/>
  <path d="M274 162H306" stroke="#121212" stroke-width="6"/>
</svg>
</g><g id="layer8"><svg></svg></g></svg>