<svg xmlns="http://www.w3.org/2000/svg" viewBox="0 0 500 500"><g id="layer1"><svg width="512" height="512" viewBox="0 0 512 512" fill="none" xmlns="http://www.w3.org/2000/svg">
<rect width="512" height="512" fill="#0047FF"/>
<path d="M134 178H167V242H146L134 178Z" fill="#E24713"/>
<path d="M378 178H345V242H366L378 178Z" fill="#E24713"/>
<rect x="207" y="346" width="98" height="54" fill="#E24713"/>
<path d="M64 400H448L480 512H32L64 400Z" fill="#F15824"/>
<rect x="166" y="106" width="180" height="240" fill="#F15824"/>
</svg>
</g><g id="layer2"><svg width="512" height="512" viewBox="0 0 512 512" fill="none" xmlns="http://www.w3.org/2000/svg">
<path d="M134 178H166V242H146L134 178Z" fill="#E24713"/>
<path d="M378 178H346V242H366L378 178Z" fill="#E24713"/>
<rect x="207" y="346" width="98" height="54" fill="#E24713"/>
<path d="M64 400H448L480 512H32L64 400Z" fill="#F15824"/>
<path d="M42.0001 477L35.4287 500L106 489L42.0001 477Z" fill="#1D1D1D"/>
<path d="M476.286 499L470.286 478L405 488.5L476.286 499Z" fill="#1D1D1D"/>
<path d="M466.429 464.5L460.857 445L425.5 456.5L466.429 464.5Z" fill="#1D1D1D"/>
<path d="M51.1427 445L45.5713 464.5L87 456.5L51.1427 445Z" fill="#1D1D1D"/>
<rect x="136" y="456" width="240" height="56" fill="#FF6F3F"/>
<rect x="166" y="106" width="180" height="240" fill="#F15824"/>
<path d="M96 400H80L88 424L96 400Z" fill="#1D1D1D"/>
<path d="M158 178H142L150 194L158 178Z" fill="#1D1D1D"/>
<path d="M370 178H354L362 194L370 178Z" fill="#1D1D1D"/>
<path d="M210 106H194L202 130L210 106Z" fill="#1D1D1D"/>
<path d="M342 400H326L334 440L342 400Z" fill="#1D1D1D"/>
<path d="M141 400H125L133 432L141 400Z" fill="#1D1D1D"/>
<path d="M264 106H248L256 146L264 106Z" fill="#1D1D1D"/>
<path d="M387 400H371L379 432L387 400Z" fill="#1D1D1D"/>
<path d="M186 400H170L178 440L186 400Z" fill="#1D1D1D"/>
<path d="M318 106H302L310 130L318 106Z" fill="#1D1D1D"/>
<path d="M432 400H416L424 424L432 400Z" fill="#1D1D1D"/>
<path d="M190 262L166 254V270L190 262Z" fill="#1D1D1D"/>
<path d="M190 154L166 146V162L190 154Z" fill="#1D1D1D"/>
<path d="M231 362L207 354V370L231 362Z" fill="#1D1D1D"/>
<path d="M281 362L305 354V370L281 362Z" fill="#1D1D1D"/>
<path d="M231 385L207 377V393L231 385Z" fill="#1D1D1D"/>
<path d="M281 385L305 377V393L281 385Z" fill="#1D1D1D"/>
<path d="M322 262L346 254V270L322 262Z" fill="#1D1D1D"/>
<path d="M322 154L346 146V162L322 154Z" fill="#1D1D1D"/>
<path d="M198 294L166 286V302L198 294Z" fill="#1D1D1D"/>
<path d="M314 294L346 286V302L314 294Z" fill="#1D1D1D"/>
<path d="M214 326L166 318V334L214 326Z" fill="#1D1D1D"/>
<path d="M298 326L346 318V334L298 326Z" fill="#1D1D1D"/>
<path d="M256 218L266 258H246" stroke="#121212" stroke-width="6"/>
</svg>
</g><g id="layer3"><svg width="512" height="512" viewBox="0 0 512 512" fill="none" xmlns="http://www.w3.org/2000/svg">
<path d="M346 146H166V106L269 15.5H346L301 37.5V79.5L346 106V146Z" fill="#AD00FF"/>
<rect x="106" y="146" width="300" height="16" fill="#AD00FF"/>
<rect x="166" y="130" width="180" height="16" fill="#FFB039"/>
<path d="M279 28L281.694 36.2918H290.413L283.359 41.4164L286.053 49.7082L279 44.5836L271.947 49.7082L274.641 41.4164L267.587 36.2918H276.306L279 28Z" fill="#FFB039"/>
<path d="M236 57L238.694 65.2918H247.413L240.359 70.4164L243.053 78.7082L236 73.5836L228.947 78.7082L231.641 70.4164L224.587 65.2918H233.306L236 57Z" fill="#FFB039"/>
<path d="M268 82L270.694 90.2918H279.413L272.359 95.4164L275.053 103.708L268 98.5836L260.947 103.708L263.641 95.4164L256.587 90.2918H265.306L268 82Z" fill="#FFB039"/>
<path d="M207 99L209.694 107.292H218.413L211.359 112.416L214.053 120.708L207 115.584L199.947 120.708L202.641 112.416L195.587 107.292H204.306L207 99Z" fill="#FFB039"/>
<path d="M317 99L319.694 107.292H328.413L321.359 112.416L324.053 120.708L317 115.584L309.947 120.708L312.641 112.416L305.587 107.292H314.306L317 99Z" fill="#FFB039"/>
</svg>
</g><g id="layer4"><svg width="512" height="512" viewBox="0 0 512 512" fill="none" xmlns="http://www.w3.org/2000/svg">
<rect x="207" y="372" width="98" height="28" fill="white"/>
<path d="M64 400H448L480 512H32L64 400Z" fill="white"/>
<rect x="96" y="463" width="80" height="16" fill="#121212"/>
<path d="M336 448L343.629 472H347.857L340.292 448H336ZM372.078 448L364.068 472H368.36L376.307 448H372.079H372.078ZM349.653 460.652H355.853L349.113 469.139V472H362.591V467.899H356.018L362.814 459.412V456.551H349.653V460.652Z" fill="#FFD600"/>
<path d="M316 484H356V500H332C323.163 500 316 492.837 316 484Z" fill="#E5C100"/>
<path d="M396 484H356V500H380C388.837 500 396 492.837 396 484Z" fill="#E5C100"/>
<circle cx="356" cy="492" r="12" fill="#FFD600"/>
<path d="M256 372L256 512" stroke="#D8D8D8" stroke-width="6"/>
<circle cx="274" cy="427" r="6" fill="#FFD600"/>
<circle cx="274" cy="459" r="6" fill="#FFD600"/>
<circle cx="274" cy="491" r="6" fill="#FFD600"/>
<rect x="96" y="400" width="80" height="32" fill="#121212"/>
<rect x="104" y="400" width="16" height="32" fill="#FEED59"/>
<rect x="128" y="400" width="16" height="32" fill="#FEED59"/>
<rect x="336" y="400" width="80" height="32" fill="#121212"/>
<path d="M352 408L354.351 412.764L359.608 413.528L355.804 417.236L356.702 422.472L352 420L347.298 422.472L348.196 417.236L344.392 413.528L349.649 412.764L352 408Z" fill="#FEED59"/>
<path d="M160 408L162.351 412.764L167.608 413.528L163.804 417.236L164.702 422.472L160 420L155.298 422.472L156.196 417.236L152.392 413.528L157.649 412.764L160 408Z" fill="#FEED59"/>
<rect x="368" y="400" width="16" height="32" fill="#FEED59"/>
<rect x="392" y="400" width="16" height="32" fill="#FEED59"/>
</svg>
</g><g id="layer5"><svg width="512" height="512" viewBox="0 0 512 512" fill="none" xmlns="http://www.w3.org/2000/svg">
<rect x="236" y="322" width="40" height="24" fill="#121212"/>
<path d="M166 286H207V346H166V286Z" fill="#121212"/>
<path d="M346 286H305V346H346V286Z" fill="#121212"/>
</svg>
</g><g id="layer6"><svg width="512" height="512" viewBox="0 0 512 512" fill="none" xmlns="http://www.w3.org/2000/svg">
<rect x="238" y="298" width="36" height="4" rx="2" fill="white">
  <animate attributeName="y" dur="4s" repeatCount="indefinite" keyTimes="0;0.05;0.1;0.75;0.8;1" values="298;298;282;282;298;298" />
  <animate attributeName="height" dur="4s" repeatCount="indefinite" keyTimes="0;0.05;0.1;0.75;0.8;1" values="4;4;36;36;4;4" />
  <animate attributeName="rx" dur="4s" repeatCount="indefinite" keyTimes="0;0.05;0.1;0.75;0.8;1" values="2;2;18;18;2;2" />
</rect>
</svg>
</g><g id="layer7"><svg width="512" height="512" viewBox="0 0 512 512" fill="none" xmlns="http://www.w3.org/2000/svg">
  <rect x="212" y="194" width="20" height="20" rx="10" fill="#121212">
    <animate attributeName="rx" values="10;10;1;10;10;1;10;10;" keyTimes="0;0.275;0.3;0.325;0.725;0.75;0.775;1" dur="4s" repeatCount="indefinite" />
    <animate attributeName="height" values="20;20;2;20;20;2;20;20" keyTimes="0;0.275;0.3;0.325;0.725;0.75;0.775;1" dur="4s" repeatCount="indefinite" />
    <animate attributeName="y" values="194;194;203;194;194;203;194;194" keyTimes="0;0.275;0.3;0.325;0.725;0.75;0.775;1" dur="4s" repeatCount="indefinite" />
  </rect>
  <rect x="280" y="194" width="20" height="20" rx="10" fill="#121212">
    <animate attributeName="rx" values="10;10;1;10;10;1;10;10" keyTimes="0;0.275;0.3;0.325;0.725;0.75;0.775;1" dur="4s" repeatCount="indefinite" />
    <animate attributeName="height" values="20;20;2;20;20;2;20;20" keyTimes="0;0.275;0.3;0.325;0.725;0.75;0.775;1" dur="4s" repeatCount="indefinite" />
    <animate attributeName="y" values="194;194;203;194;194;203;194;194" keyTimes="0;0.275;0.3;0.325;0.725;0.75;0.775;1" dur="4s" repeatCount="indefinite" />
  </rect>
  <path d="M206 162H238" stroke="#121212" stroke-width="6"/>
  <path d="M274 162H306" stroke="#121212" stroke-width="6"/>
</svg>
</g><g id="layer8"><svg width="512" height="512" viewBox="0 0 512 512" fill="none" xmlns="http://www.w3.org/2000/svg">
<path d="M190 175H246V231H190V175Z" fill="#FF0000" fill-opacity="0.8" />
<path d="M190 175H246V231H190V175ZM190 175H166" stroke="#121212" stroke-width="6"/>
<path d="M247 184H266" stroke="#121212" stroke-width="6"/>
<path d="M266 175H322V231H266V175Z" fill="#0075FF" fill-opacity="0.8"/>
<path d="M322 175H266V231H322V175ZM322 175H346" stroke="#121212" stroke-width="6"/>
<mask id="mask0_139_2" style="mask-type:alpha" maskUnits="userSpaceOnUse" x="269" y="178" width="50" height="50">
<path d="M269 178H319V228H309.625H269V178Z" fill="#121212"/>
</mask>
<g mask="url(#mask0_139_2)">
<path d="M279.545 178H290L277.455 228H267L279.545 178Z" fill="#FFF">
<animateTransform attributeName="transform" type="translate" dur="4s" repeatCount="indefinite" keyTimes="0;0.8;1" values="-32 0;-32 0;48 0" />
</path>
</g>
<mask id="mask1_139_2" style="mask-type:alpha" maskUnits="userSpaceOnUse" x="193" y="178" width="50" height="50">
<path d="M193 178H243V228H233.625H193V178Z" fill="#121212"/>
</mask>
<g mask="url(#mask1_139_2)">
<path d="M203.545 178H214L201.455 228H191L203.545 178Z" fill="#FFF">
<animateTransform attributeName="transform" type="translate" dur="4s" repeatCount="indefinite" keyTimes="0;0.8;1" values="-32 0;-32 0;48 0" />
</path>
</g>
</svg>
</g></svg>