<svg xmlns="http://www.w3.org/2000/svg" viewBox="0 0 500 500"><g id="layer1"><svg width="512" height="512" viewBox="0 0 512 512" fill="none" xmlns="http://www.w3.org/2000/svg">
<rect width="512" height="512" fill="#7000FF"/>
<path d="M134 178H167V242H146L134 178Z" fill="#E24713"/>
<path d="M378 178H345V242H366L378 178Z" fill="#E24713"/>
<rect x="207" y="346" width="98" height="54" fill="#E24713"/>
<path d="M64 400H448L480 512H32L64 400Z" fill="#F15824"/>
<rect x="166" y="106" width="180" height="240" fill="#F15824"/>
</svg>
</g><g id="layer2"><svg width="512" height="512" viewBox="0 0 512 512" fill="none" xmlns="http://www.w3.org/2000/svg">
    <path d="M134 178H166V242H146L134 178Z" fill="#E24713"/>
    <path d="M378 178H346V242H366L378 178Z" fill="#E24713"/>
    <rect x="207" y="346" width="98" height="9" fill="#1D1D1D"/>
    <rect x="207" y="355" width="98" height="9" fill="#2D2D2D"/>
    <rect x="207" y="364" width="98" height="9" fill="#1D1D1D"/>
    <rect x="207" y="373" width="98" height="9" fill="#2D2D2D"/>
    <rect x="207" y="382" width="98" height="9" fill="#1D1D1D"/>
    <rect x="207" y="391" width="98" height="9" fill="#2D2D2D"/>
    <path d="M64 400H448L480 512H32L64 400Z" fill="#F15824"/>
    <path d="M64 400H120V488H76V512H32L64 400Z" fill="#2D2D2D"/>
    <rect x="166" y="106" width="180" height="240" fill="#F15824"/>
    <path d="M166 172H246V236L166 278V172Z" fill="#2D2D2D"/>
    <rect id="rect1" x="182" y="184" width="8" height="8" rx="4" fill="#D22D27">
    <animate attributeName="fill" values="#D22D27;#FF0900;#FF0900;#D22D27;#D22D27;#FF0900;#FF0900;#D22D27;#D22D27;#FF0900;#FF0900;#D22D27;#D22D27" keyTimes="0;0.01;0.05;0.09;0.2;0.21;0.25;0.29;0.8;0.81;0.85;0.89;1" dur="3s" repeatCount="indefinite" />
    </rect>
    <rect id="rect2" x="182" y="200" width="8" height="8" rx="4" fill="#D22D27">
    <animate attributeName="fill" values="#D22D27;#C2FD52;#C2FD52;#D22D27;#D22D27;#C2FD52;#C2FD52;#D22D27;#D22D27;#C2FD52;#C2FD52;#D22D27;#D22D27" keyTimes="0;0.01;0.05;0.09;0.4;0.41;0.45;0.49;0.6;0.61;0.65;0.69;1" dur="3.2s" repeatCount="indefinite" />
    </rect>
    <circle id="circle1" cx="92" cy="436" r="12" fill="#D22D27">
       <animate attributeName="fill" values="#D22D27;#FF0900;#FF0900;#D22D27;#D22D27;#FF0900;#FF0900;#D22D27;#D22D27;#FF0900;#FF0900;#D22D27;#D22D27" keyTimes="0;0.01;0.05;0.09;0.4;0.41;0.45;0.49;0.6;0.61;0.65;0.69;1" dur="2.8s" repeatCount="indefinite" />
    </circle>
    <rect x="302" y="106" width="44" height="48" fill="#2D2D2D"/>
    <rect x="166" y="242" width="12" height="104" fill="#2D2D2D"/>
    <circle id="circle2" cx="148" cy="436" r="12" fill="#7B0000">
       <animate attributeName="fill" values="#D22D27;#C2FD52;#C2FD52;#D22D27;#D22D27;#C2FD52;#C2FD52;#D22D27;#D22D27;#C2FD52;#C2FD52;#D22D27;#D22D27" keyTimes="0;0.01;0.05;0.09;0.2;0.21;0.25;0.29;0.8;0.81;0.85;0.89;1" dur="2.9s" repeatCount="indefinite" />
    </circle>
    <path d="M256 218L266 258H246" stroke="#121212" stroke-width="6"/>
</svg>
</g><g id="layer3"><svg width="512" height="512" viewBox="0 0 512 512" fill="none" xmlns="http://www.w3.org/2000/svg">
<path d="M166 122H346V46H166V122Z" fill="#121212"/>
<path d="M134 162H378L346 122H166L134 162Z" fill="#2D2D2D"/>
</svg>
</g><g id="layer4"><svg width="512" height="512" viewBox="0 0 512 512" fill="none" xmlns="http://www.w3.org/2000/svg">
<path d="M207 400H305V374H257H207V400Z" fill="white"/>
<path d="M64 400H448L480 512H32L64 400Z" fill="#202020"/>
<path d="M63.5 400H207V512H31.5L63.5 400Z" fill="#121212"/>
<path d="M448.5 400H305V512H480.5L448.5 400Z" fill="#121212"/>
<path d="M338 456L345.629 480H349.857L342.292 456H338ZM374.078 456L366.068 480H370.36L378.307 456H374.079H374.078ZM351.653 468.652H357.853L351.113 477.139V480H364.591V475.899H358.018L364.814 467.412V464.551H351.653V468.652Z" fill="#202020"/>
<path d="M218 487.5L256 392C256 392 276.036 450.205 294 487.5" stroke="white" stroke-width="28" stroke-linejoin="round"/>
</svg>
</g><g id="layer5"><svg></svg></g><g id="layer6"><svg width="512" height="512" viewBox="0 0 512 512" fill="none" xmlns="http://www.w3.org/2000/svg">
<rect x="238" y="298" width="36" height="4" rx="2" fill="white">
  <animate attributeName="y" dur="4s" repeatCount="indefinite" keyTimes="0;0.05;0.1;0.75;0.8;1" values="298;298;282;282;298;298" />
  <animate attributeName="height" dur="4s" repeatCount="indefinite" keyTimes="0;0.05;0.1;0.75;0.8;1" values="4;4;36;36;4;4" />
  <animate attributeName="rx" dur="4s" repeatCount="indefinite" keyTimes="0;0.05;0.1;0.75;0.8;1" values="2;2;18;18;2;2" />
</rect>
</svg>
</g><g id="layer7"><svg width="512" height="512" viewBox="0 0 512 512" fill="none" xmlns="http://www.w3.org/2000/svg">
  <rect x="212" y="194" width="20" height="20" rx="10" fill="#121212">
    <animate attributeName="rx" values="10;10;1;10;10;1;10;10;" keyTimes="0;0.275;0.3;0.325;0.725;0.75;0.775;1" dur="4s" repeatCount="indefinite" />
    <animate attributeName="height" values="20;20;2;20;20;2;20;20" keyTimes="0;0.275;0.3;0.325;0.725;0.75;0.775;1" dur="4s" repeatCount="indefinite" />
    <animate attributeName="y" values="194;194;203;194;194;203;194;194" keyTimes="0;0.275;0.3;0.325;0.725;0.75;0.775;1" dur="4s" repeatCount="indefinite" />
  </rect>
  <rect x="280" y="194" width="20" height="20" rx="10" fill="#121212">
    <animate attributeName="rx" values="10;10;1;10;10;1;10;10" keyTimes="0;0.275;0.3;0.325;0.725;0.75;0.775;1" dur="4s" repeatCount="indefinite" />
    <animate attributeName="height" values="20;20;2;20;20;2;20;20" keyTimes="0;0.275;0.3;0.325;0.725;0.75;0.775;1" dur="4s" repeatCount="indefinite" />
    <animate attributeName="y" values="194;194;203;194;194;203;194;194" keyTimes="0;0.275;0.3;0.325;0.725;0.75;0.775;1" dur="4s" repeatCount="indefinite" />
  </rect>
  <path d="M206 162H238" stroke="#121212" stroke-width="6"/>
  <path d="M274 162H306" stroke="#121212" stroke-width="6"/>
</svg>
</g><g id="layer8"><svg width="512" height="512" viewBox="0 0 512 512" fill="none" xmlns="http://www.w3.org/2000/svg">
<path d="M189.583 182.714L209.163 174L220.041 182.893L230.919 174L250.5 182.714V190V208.857L220.041 235L189.583 208.857V182.714Z" fill="#D22D27" fill-opacity="0.6">
<animate attributeName="fill-opacity" dur="2s" repeatCount="indefinite" keyTimes="0;0.1;0.2;0.3;0.4;1" values="0.6;1;0.6;1;0.6;0.6" />
</path>
<path d="M189.583 182.714V208.857L220.041 235L250.5 208.857V190M189.583 182.714L209.163 174L220.041 182.893L230.919 174L250.5 182.714V190M189.583 182.714L163 175.5M250.5 190H262" stroke="#D22D27" stroke-width="6"/>
<path d="M322.417 183.214L302.837 174.5L291.959 183.393L281.081 174.5L261.5 183.214V209.357L291.959 235.5L322.417 209.357V183.214Z" fill="#D22D27" fill-opacity="0.6">
<animate attributeName="fill-opacity" dur="2s" repeatCount="indefinite" keyTimes="0;0.1;0.2;0.3;0.4;1" values="0.6;1;0.6;1;0.6;0.6" />
</path>
<path d="M322.417 183.214V209.357L291.959 235.5L261.5 209.357V183.214L281.081 174.5L291.959 183.393L302.837 174.5L322.417 183.214ZM322.417 183.214L349 176" stroke="#D22D27" stroke-width="6"/>
</svg>
</g></svg>