<svg xmlns="http://www.w3.org/2000/svg" viewBox="0 0 500 500"><g id="layer1"><svg width="512" height="512" viewBox="0 0 512 512" fill="none" xmlns="http://www.w3.org/2000/svg">
<rect width="512" height="512" fill="#186450"/>
<path d="M134 178H167V242H146L134 178Z" fill="#E24713"/>
<path d="M378 178H345V242H366L378 178Z" fill="#E24713"/>
<rect x="207" y="346" width="98" height="54" fill="#E24713"/>
<path d="M64 400H448L480 512H32L64 400Z" fill="#F15824"/>
<rect x="166" y="106" width="180" height="240" fill="#F15824"/>
</svg>
</g><g id="layer2"><svg width="512" height="512" viewBox="0 0 512 512" fill="none" xmlns="http://www.w3.org/2000/svg">
    <path d="M134 178H166V242H146L134 178Z" fill="#E24713"/>
    <path d="M378 178H346V242H366L378 178Z" fill="#E24713"/>
    <rect x="207" y="346" width="98" height="9" fill="#1D1D1D"/>
    <rect x="207" y="355" width="98" height="9" fill="#2D2D2D"/>
    <rect x="207" y="364" width="98" height="9" fill="#1D1D1D"/>
    <rect x="207" y="373" width="98" height="9" fill="#2D2D2D"/>
    <rect x="207" y="382" width="98" height="9" fill="#1D1D1D"/>
    <rect x="207" y="391" width="98" height="9" fill="#2D2D2D"/>
    <path d="M64 400H448L480 512H32L64 400Z" fill="#F15824"/>
    <path d="M64 400H120V488H76V512H32L64 400Z" fill="#2D2D2D"/>
    <rect x="166" y="106" width="180" height="240" fill="#F15824"/>
    <path d="M166 172H246V236L166 278V172Z" fill="#2D2D2D"/>
    <rect id="rect1" x="182" y="184" width="8" height="8" rx="4" fill="#D22D27">
    <animate attributeName="fill" values="#D22D27;#FF0900;#FF0900;#D22D27;#D22D27;#FF0900;#FF0900;#D22D27;#D22D27;#FF0900;#FF0900;#D22D27;#D22D27" keyTimes="0;0.01;0.05;0.09;0.2;0.21;0.25;0.29;0.8;0.81;0.85;0.89;1" dur="3s" repeatCount="indefinite" />
    </rect>
    <rect id="rect2" x="182" y="200" width="8" height="8" rx="4" fill="#D22D27">
    <animate attributeName="fill" values="#D22D27;#C2FD52;#C2FD52;#D22D27;#D22D27;#C2FD52;#C2FD52;#D22D27;#D22D27;#C2FD52;#C2FD52;#D22D27;#D22D27" keyTimes="0;0.01;0.05;0.09;0.4;0.41;0.45;0.49;0.6;0.61;0.65;0.69;1" dur="3.2s" repeatCount="indefinite" />
    </rect>
    <circle id="circle1" cx="92" cy="436" r="12" fill="#D22D27">
       <animate attributeName="fill" values="#D22D27;#FF0900;#FF0900;#D22D27;#D22D27;#FF0900;#FF0900;#D22D27;#D22D27;#FF0900;#FF0900;#D22D27;#D22D27" keyTimes="0;0.01;0.05;0.09;0.4;0.41;0.45;0.49;0.6;0.61;0.65;0.69;1" dur="2.8s" repeatCount="indefinite" />
    </circle>
    <rect x="302" y="106" width="44" height="48" fill="#2D2D2D"/>
    <rect x="166" y="242" width="12" height="104" fill="#2D2D2D"/>
    <circle id="circle2" cx="148" cy="436" r="12" fill="#7B0000">
       <animate attributeName="fill" values="#D22D27;#C2FD52;#C2FD52;#D22D27;#D22D27;#C2FD52;#C2FD52;#D22D27;#D22D27;#C2FD52;#C2FD52;#D22D27;#D22D27" keyTimes="0;0.01;0.05;0.09;0.2;0.21;0.25;0.29;0.8;0.81;0.85;0.89;1" dur="2.9s" repeatCount="indefinite" />
    </circle>
    <path d="M256 218L266 258H246" stroke="#121212" stroke-width="6"/>
</svg>
</g><g id="layer3"><svg width="512" height="512" viewBox="0 0 512 512" fill="none" xmlns="http://www.w3.org/2000/svg">
<rect width="180" height="48" transform="matrix(1 0 0 -1 166 154)" fill="#121212"/>
<path d="M322 114L326.702 123.528L337.217 125.056L329.608 132.472L331.405 142.944L322 138L312.595 142.944L314.392 132.472L306.783 125.056L317.298 123.528L322 114Z" fill="#525252"/>
<rect width="180" height="12" transform="matrix(1 0 0 -1 166 166)" fill="#525252"/>
<path d="M135.5 159.5L166 106H268.5L180 187L135.5 159.5Z" fill="#121212"/>
</svg>
</g><g id="layer4"><svg width="512" height="512" viewBox="0 0 512 512" fill="none" xmlns="http://www.w3.org/2000/svg">
<g clip-path="url(#clip0_611_16924)">
<path d="M64 400H188C188 400 190 452 256 452C322 452 324 400 324 400H448L480 512H32L64 400Z" fill="#121212"/>
<path d="M63.5 400H190L223 439V512H31.5L63.5 400Z" fill="#1560BD"/>
<path d="M72 512V416H183.5" stroke="#1353A3" stroke-width="6" stroke-dasharray="8 8"/>
<path d="M447.999 400H320.999L287.999 439V512H480L447.999 400Z" fill="#1560BD"/>
<rect x="103" y="488" width="80" height="24" fill="#1353A3"/>
<rect x="328" y="488" width="80" height="24" fill="#1353A3"/>
<path d="M439.5 512V416H328" stroke="#1353A3" stroke-width="6" stroke-dasharray="8 8"/>
<path d="M223 439L182 466.5L146 400L173 380L223 439Z" fill="#1353A3"/>
<path d="M288 439L329 466.5L365 400L338 380L288 439Z" fill="#1353A3"/>
<circle cx="440" cy="481" r="19" fill="#FFB74A" stroke="white" stroke-width="6"/>
<rect x="141.757" y="503.627" width="38" height="38" transform="rotate(-45 141.757 503.627)" fill="#F15824" stroke="white" stroke-width="6"/>
<rect x="83.1549" y="433.68" width="18" height="42" transform="rotate(-20 83.1549 433.68)" fill="#AD00FF" stroke="white" stroke-width="6"/>
<path d="M372.962 448.145L372.299 442.102L367.907 446.305L361.369 452.559L352.51 450.719L346.558 449.483L349.197 454.959L353.126 463.11L348.638 470.967L345.624 476.245L351.647 475.427L360.613 474.21L366.698 480.905L370.787 485.404L371.87 479.422L373.483 470.519L381.731 466.801L387.273 464.302L381.919 461.424L373.95 457.139L372.962 448.145Z" fill="#42B06C" stroke="white" stroke-width="6"/>
</g>
<defs>
<clipPath id="clip0_611_16924">
<rect width="512" height="512" fill="white"/>
</clipPath>
</defs>
</svg>
</g><g id="layer5"><svg></svg></g><g id="layer6"><svg width="512" height="512" viewBox="0 0 512 512" fill="none" xmlns="http://www.w3.org/2000/svg">
<path d="M228 282H261.5H284" stroke="#121212" stroke-width="6"/>
<path d="M284 301.25V282H261.5V301.25C261.5 307.463 266.537 312.5 272.75 312.5C278.963 312.5 284 307.463 284 301.25Z" fill="#D22D27" stroke="#121212" stroke-width="6"/>
</svg>
</g><g id="layer7"><svg width="512" height="512" viewBox="0 0 512 512" fill="none" xmlns="http://www.w3.org/2000/svg">
  <path d="M219.5 193C225 186 232.5 190.5 232.5 196.5C232.5 200.918 229.349 205.219 225 206C219.615 206.966 212.5 203 211 196.5C209.154 188.5 213 179 225 179C237 179 242.5 186.987 242.5 196.5C242.5 203.5 238.5 215.375 223.5 216C217.481 216.251 203 212.5 201 197" stroke="#121212" stroke-width="6">
    <animateTransform attributeType="xml" attributeName="transform" type="rotate" from="0 225 197" to="360 225 197" dur="2s" repeatCount="indefinite"/>
  </path>
  <path d="M292 193C286.5 186 279 190.5 279 196.5C279 200.918 282.151 205.219 286.5 206C291.885 206.966 299 203 300.5 196.5C302.346 188.5 298.5 179 286.5 179C274.5 179 269 186.987 269 196.5C269 203.5 273 215.375 288 216C294.019 216.251 308.5 212.5 310.5 197" stroke="#121212" stroke-width="6">
    <animateTransform attributeType="xml" attributeName="transform" type="rotate" from="0 290 197" to="360 290 197" dur="2s" repeatCount="indefinite"/>
  </path>
  <rect x="206" y="159" width="32" height="6" fill="black"/>
  <rect x="274" y="159" width="32" height="6" fill="black"/>
</svg>
</g><g id="layer8"><svg width="512" height="512" viewBox="0 0 512 512" fill="none" xmlns="http://www.w3.org/2000/svg">
<path d="M190 175H246V231H190V175Z" fill="#FFFFFF" fill-opacity="0.6"/>
<path d="M190 175H246V231H190V175ZM190 175H166" stroke="#BBBBBB" stroke-width="6"/>
<path d="M247 184H266" stroke="#BBBBBB" stroke-width="6"/>
<path d="M266 175H322V231H266V175Z" fill="#FFFFFF" fill-opacity="0.6"/>
<path d="M322 175H266V231H322V175ZM322 175H346" stroke="#BBBBBB" stroke-width="6"/>
<mask id="mask0_139_2" style="mask-type:alpha" maskUnits="userSpaceOnUse" x="269" y="178" width="50" height="50">
<path d="M269 178H319V228H309.625H269V178Z" fill="#BBBBBB"/>
</mask>
<g mask="url(#mask0_139_2)">
<path d="M279.545 178H290L277.455 228H267L279.545 178Z" fill="#DDD">
<animateTransform attributeName="transform" type="translate" dur="4s" repeatCount="indefinite" keyTimes="0;0.8;1" values="-32 0;-32 0;48 0" />
</path>
</g>
<mask id="mask1_139_2" style="mask-type:alpha" maskUnits="userSpaceOnUse" x="193" y="178" width="50" height="50">
<path d="M193 178H243V228H233.625H193V178Z" fill="#BBBBBB"/>
</mask>
<g mask="url(#mask1_139_2)">
<path d="M203.545 178H214L201.455 228H191L203.545 178Z" fill="#DDD">
<animateTransform attributeName="transform" type="translate" dur="4s" repeatCount="indefinite" keyTimes="0;0.8;1" values="-32 0;-32 0;48 0" />
</path>
</g>
</svg>
</g></svg>