<svg xmlns="http://www.w3.org/2000/svg" viewBox="0 0 500 500"><g id="layer1"><svg width="512" height="512" viewBox="0 0 512 512" fill="none" xmlns="http://www.w3.org/2000/svg">
<rect width="512" height="512" fill="#0047FF"/>
<path d="M134 178H167V242H146L134 178Z" fill="#E24713"/>
<path d="M378 178H345V242H366L378 178Z" fill="#E24713"/>
<rect x="207" y="346" width="98" height="54" fill="#E24713"/>
<path d="M64 400H448L480 512H32L64 400Z" fill="#F15824"/>
<rect x="166" y="106" width="180" height="240" fill="#F15824"/>
</svg>
</g><g id="layer2"><svg width="512" height="512" viewBox="0 0 512 512" fill="none" xmlns="http://www.w3.org/2000/svg">
<path d="M134 178H166V242H146L134 178Z" fill="#E24713"/>
<path d="M378 178H346V242H366L378 178Z" fill="#E24713"/>
<rect x="207" y="346" width="98" height="54" fill="#E24713"/>
<path d="M64 400H448L480 512H32L64 400Z" fill="#F15824"/>
<rect x="166" y="106" width="180" height="240" fill="#F15824"/>
<path d="M256 218L266 258H246" stroke="#121212" stroke-width="6"/>
</svg>
</g><g id="layer3"><svg width="512" height="512" viewBox="0 0 512 512" fill="none" xmlns="http://www.w3.org/2000/svg">
<rect width="244" height="24" transform="matrix(1 0 0 -1 134 166)" fill="#FFB74A"/>
<rect width="32" height="26" transform="matrix(1 0 0 -1 134 192)" fill="#42B06C"/>
<rect width="37" height="64" transform="matrix(1 0 0 -1 134 142)" fill="#42B06C"/>
<rect width="34" height="64" transform="matrix(1 0 0 -1 171 142)" fill="#FFB74A"/>
<rect width="34" height="64" transform="matrix(1 0 0 -1 205 142)" fill="#42B06C"/>
<rect width="34" height="64" transform="matrix(1 0 0 -1 239 142)" fill="#FFB74A"/>
<rect width="34" height="64" transform="matrix(1 0 0 -1 273 142)" fill="#42B06C"/>
<rect width="34" height="64" transform="matrix(1 0 0 -1 307 142)" fill="#FFB74A"/>
<rect width="37" height="64" transform="matrix(1 0 0 -1 341 142)" fill="#42B06C"/>
<rect width="32" height="25" transform="matrix(1 0 0 -1 134 217)" fill="#FFB74A"/>
<rect width="32" height="26" transform="matrix(1 0 0 -1 134 243)" fill="#42B06C"/>
<rect width="32" height="26" transform="matrix(1 0 0 -1 134 269)" fill="#FFB74A"/>
<rect width="32" height="26" transform="matrix(1 0 0 -1 134 295)" fill="#42B06C"/>
<rect width="32" height="25" transform="matrix(1 0 0 -1 134 320)" fill="#FFB74A"/>
<rect width="32" height="26" transform="matrix(1 0 0 -1 134 346)" fill="#42B06C"/>
<rect width="32" height="26" transform="matrix(1 0 0 -1 346 192)" fill="#42B06C"/>
<rect width="32" height="25" transform="matrix(1 0 0 -1 346 217)" fill="#FFB74A"/>
<rect width="32" height="26" transform="matrix(1 0 0 -1 346 243)" fill="#42B06C"/>
<rect width="32" height="26" transform="matrix(1 0 0 -1 346 269)" fill="#FFB74A"/>
<rect width="32" height="26" transform="matrix(1 0 0 -1 346 295)" fill="#42B06C"/>
<rect width="32" height="25" transform="matrix(1 0 0 -1 346 320)" fill="#FFB74A"/>
<rect width="32" height="26" transform="matrix(1 0 0 -1 346 346)" fill="#42B06C"/>
</svg>
</g><g id="layer4"><svg width="512" height="512" viewBox="0 0 512 512" fill="none" xmlns="http://www.w3.org/2000/svg">
<g clip-path="url(#clip0_327_732)">
<path d="M64 400H160C160 400 160 472 256 472C352 472 352 400 352 400H448L480 512H32L64 400Z" fill="#121212"/>
<path d="M150.5 400H207V533.5H185L133 443.5H164L150.5 400Z" fill="#2D2D2D"/>
<path d="M361.5 400H305V533.5H327L379 443.5H348L361.5 400Z" fill="#2D2D2D"/>
<path d="M207 512H305V400H257H207V512Z" fill="white"/>
<path d="M256 422L215 400V444L256 422Z" fill="#121212"/>
<path d="M256 422L297 400V444L256 422Z" fill="#121212"/>
</g>
<defs>
<clipPath id="clip0_327_732">
<rect width="512" height="512" fill="white"/>
</clipPath>
</defs>
</svg>
</g><g id="layer5"><svg width="512" height="512" viewBox="0 0 512 512" fill="none" xmlns="http://www.w3.org/2000/svg">
<path fill-rule="evenodd" clip-rule="evenodd" d="M346 266H166V349L256 382L346 349V266ZM297 281H215V323H297V281Z" fill="#121212"/>
</svg>
</g><g id="layer6"><svg width="512" height="512" viewBox="0 0 512 512" fill="none" xmlns="http://www.w3.org/2000/svg">
<path d="M292 309H220L292 283V309Z" fill="white"/>
</svg>
</g><g id="layer7"><svg width="512" height="512" viewBox="0 0 512 512" fill="none" xmlns="http://www.w3.org/2000/svg">
    <rect x="212" y="194" width="20" height="20" rx="10" fill="#121212">
        <animate attributeName="x" values="206;218;218;206;206" keyTimes="0;0.05;0.5;0.55;1" dur="4s" repeatCount="indefinite" />
    </rect>
    <rect x="280" y="194" width="20" height="20" rx="10" fill="#121212">
        <animate attributeName="x" values="274;286;286;274;274" keyTimes="0;0.05;0.5;0.55;1" dur="4s" repeatCount="indefinite" />
    </rect>
    <path d="M206 197H238" stroke="#121212" stroke-width="6"/>
    <path d="M274 197H306" stroke="#121212" stroke-width="6"/>
</svg>
</g><g id="layer8"><svg width="512" height="512" viewBox="0 0 512 512" fill="none" xmlns="http://www.w3.org/2000/svg">
<path d="M190 175H246V231H190V175Z" fill="#121212"/>
<path d="M190 175H246V231H190V175ZM190 175H166" stroke="#121212" stroke-width="6"/>
<path d="M247 184H266" stroke="#121212" stroke-width="6"/>
<path d="M266 175H322V231H266V175Z" fill="#121212"/>
<path d="M322 175H266V231H322V175ZM322 175H346" stroke="#121212" stroke-width="6"/>
<mask id="mask0_139_2" style="mask-type:alpha" maskUnits="userSpaceOnUse" x="269" y="178" width="50" height="50">
<path d="M269 178H319V228H309.625H269V178Z" fill="#121212"/>
</mask>
<g mask="url(#mask0_139_2)">
<path d="M279.545 178H290L277.455 228H267L279.545 178Z" fill="#FFF">
<animateTransform attributeName="transform" type="translate" dur="4s" repeatCount="indefinite" keyTimes="0;0.8;1" values="-32 0;-32 0;48 0" />
</path>
</g>
<mask id="mask1_139_2" style="mask-type:alpha" maskUnits="userSpaceOnUse" x="193" y="178" width="50" height="50">
<path d="M193 178H243V228H233.625H193V178Z" fill="#121212"/>
</mask>
<g mask="url(#mask1_139_2)">
<path d="M203.545 178H214L201.455 228H191L203.545 178Z" fill="#FFF">
<animateTransform attributeName="transform" type="translate" dur="4s" repeatCount="indefinite" keyTimes="0;0.8;1" values="-32 0;-32 0;48 0" />
</path>
</g>
</svg>
</g></svg>