<svg xmlns="http://www.w3.org/2000/svg" viewBox="0 0 500 500"><g id="layer1"><svg width="512" height="512" viewBox="0 0 512 512" fill="none" xmlns="http://www.w3.org/2000/svg">
<rect width="512" height="512" fill="#FF9900"/>
<path d="M134 178H167V242H146L134 178Z" fill="#E24713"/>
<path d="M378 178H345V242H366L378 178Z" fill="#E24713"/>
<rect x="207" y="346" width="98" height="54" fill="#E24713"/>
<path d="M64 400H448L480 512H32L64 400Z" fill="#F15824"/>
<rect x="166" y="106" width="180" height="240" fill="#F15824"/>
</svg>
</g><g id="layer2"><svg width="512" height="512" viewBox="0 0 512 512" fill="none" xmlns="http://www.w3.org/2000/svg">
<path d="M134 178H166V242H146L134 178Z" fill="#36CF00"/>
<path d="M378 178H346V242H366L378 178Z" fill="#36CF00"/>
<path d="M64 400H448L480 512H32L64 400Z" fill="#3BE200"/>
<rect x="207" y="346" width="98" height="54" fill="#36CF00"/>
<rect x="166" y="106" width="180" height="240" fill="#3BE200"/>
</svg>
</g><g id="layer3"><svg width="512" height="512" viewBox="0 0 512 512" fill="none" xmlns="http://www.w3.org/2000/svg">
<path d="M166 106C166 88.3269 180.327 74 198 74H314C331.673 74 346 88.3269 346 106H166Z" fill="#96469A"/>
<rect width="180" height="36" transform="matrix(1 0 0 -1 166 142)" fill="#96469A"/>
<rect width="180" height="24" transform="matrix(1 0 0 -1 166 166)" fill="#704B9F"/>
</svg>
</g><g id="layer4"><svg width="512" height="512" viewBox="0 0 512 512" fill="none" xmlns="http://www.w3.org/2000/svg">
<g clip-path="url(#clip0_273_4120)">
<path d="M64 400H160C160 400 160 472 256 472C352 472 352 400 352 400H448L480 512H32L64 400Z" fill="#121212"/>
<path d="M150.5 400H207V533.5H185L133 443.5H164L150.5 400Z" fill="#2D2D2D"/>
<path d="M361.5 400H305V533.5H327L379 443.5H348L361.5 400Z" fill="#2D2D2D"/>
<path d="M207 512H305V439H257H207V512Z" fill="white"/>
<path d="M207 439V400L257 439H207Z" fill="#D8D8D8"/>
<path d="M305 439V400L257 439H305Z" fill="#D8D8D8"/>
<path d="M241 439H273L265 463H249L241 439Z" fill="#121212"/>
<path d="M241 512H273L265 463H249L241 512Z" fill="#121212"/>
</g>
<defs>
<clipPath id="clip0_273_4120">
<rect width="512" height="512" fill="white"/>
</clipPath>
</defs>
</svg>
</g><g id="layer5"><svg width="512" height="512" viewBox="0 0 512 512" fill="none" xmlns="http://www.w3.org/2000/svg">
<rect x="207" y="346" width="98" height="54" fill="#E24713"/>
<path fill-rule="evenodd" clip-rule="evenodd" d="M346 266H166V400H256.5H346V266ZM297 281H215V323H297V281Z" fill="#121212"/>
</svg>
</g><g id="layer6"><svg width="512" height="512" viewBox="0 0 512 512" fill="none" xmlns="http://www.w3.org/2000/svg">
<path d="M230.711 302H280" stroke="#121212" stroke-width="6"/>
</svg>
</g><g id="layer7"><svg width="512" height="512" viewBox="0 0 512 512" fill="none" xmlns="http://www.w3.org/2000/svg">
<path d="M206 162H238" stroke="#121212" stroke-width="6"/>
<path d="M206 202C206 202 212 194 222 194C232 194 238 202 238 202" stroke="#121212" stroke-width="6"/>
<path d="M274 202C274 202 280 194 290 194C300 194 306 202 306 202" stroke="#121212" stroke-width="6"/>
<path d="M274 162H306" stroke="#121212" stroke-width="6"/>
</svg>
</g><g id="layer8"><svg width="512" height="512" viewBox="0 0 512 512" fill="none" xmlns="http://www.w3.org/2000/svg">
<path d="M182 175H246V195L234 231H182V175Z" fill="#121212"/>
<path d="M182 175H246V195L234 231H182V175ZM182 175H166" stroke="#FFB74A" stroke-width="6"/>
<path d="M247 175H266" stroke="#FFB74A" stroke-width="6"/>
<path d="M247 193H266" stroke="#FFB74A" stroke-width="6"/>
<path d="M266 175H330V231H278L266 195.5V175Z" fill="#121212"/>
<path d="M330 175H266V195.5L278 231H330V175ZM330 175H346" stroke="#FFB74A" stroke-width="6"/>
<mask id="mask0_143_2" style="mask-type:alpha" maskUnits="userSpaceOnUse" x="185" y="178" width="58" height="50">
<path d="M185 178H243V195L232 228H223.188H185V178Z" fill="#121212"/>
</mask>
<g mask="url(#mask0_143_2)">
<path d="M195.545 178H206L193.455 228H183L195.545 178Z" fill="#D9D9D9">
<animateTransform attributeName="transform" type="translate" dur="4s" repeatCount="indefinite" keyTimes="0;0.8;1" values="-32 0;-32 0;48 0" />
</path>
</g>
<mask id="mask1_143_2" style="mask-type:alpha" maskUnits="userSpaceOnUse" x="269" y="178" width="58" height="50">
<path d="M327 178H269V195L280 228H288.812H327V178Z" fill="#121212"/>
</mask>
<g mask="url(#mask1_143_2)">
<path d="M287.545 178H298L285.455 228H275L287.545 178Z" fill="#D9D9D9">
<animateTransform attributeName="transform" type="translate" dur="4s" repeatCount="indefinite" keyTimes="0;0.8;1" values="-32 0;-32 0;48 0" />
</path>
</g>
</svg>
</g></svg>