<svg xmlns="http://www.w3.org/2000/svg" viewBox="0 0 500 500"><g id="layer1"><svg width="512" height="512" viewBox="0 0 512 512" fill="none" xmlns="http://www.w3.org/2000/svg">
<rect width="512" height="512" fill="#7B0000"/>
<path d="M134 178H167V242H146L134 178Z" fill="#E24713"/>
<path d="M378 178H345V242H366L378 178Z" fill="#E24713"/>
<rect x="207" y="346" width="98" height="54" fill="#E24713"/>
<path d="M64 400H448L480 512H32L64 400Z" fill="#F15824"/>
<rect x="166" y="106" width="180" height="240" fill="#F15824"/>
</svg>
</g><g id="layer2"><svg width="512" height="512" viewBox="0 0 512 512" fill="none" xmlns="http://www.w3.org/2000/svg">
<mask id="mask0_34_133" style="mask-type:alpha" maskUnits="userSpaceOnUse" x="32" y="106" width="448" height="406">
<path fill-rule="evenodd" clip-rule="evenodd" d="M207 346H166V242H146L134 178H166L166 106L346 106V178H378L366 242H346V346L305 346V400H448L480 512H32L64 400H207V346Z" fill="#F15824"/>
</mask>
<g mask="url(#mask0_34_133)">
<circle cx="256" cy="-40" r="950" fill="#F15824">
<animate attributeName="cy" values="-40;-400;-40" keyTimes="0;0.5;1" dur="20s" repeatCount="indefinite"/>
</circle>
<circle cx="256" cy="-40" r="900" fill="#C2FD52">
<animate attributeName="cy" values="-40;-400;-40" keyTimes="0;0.5;1" dur="20s" repeatCount="indefinite"/>
</circle>
<circle cx="256" cy="-40" r="850" fill="#AD00FF">
<animate attributeName="cy" values="-40;-400;-40" keyTimes="0;0.5;1" dur="20s" repeatCount="indefinite"/>
</circle>
<circle cx="256" cy="-40" r="800" fill="#00A8FF">
<animate attributeName="cy" values="-40;-400;-40" keyTimes="0;0.5;1" dur="20s" repeatCount="indefinite"/>
</circle>
<circle cx="256" cy="-40" r="750" fill="#C2FD52">
<animate attributeName="cy" values="-40;-400;-40" keyTimes="0;0.5;1" dur="20s" repeatCount="indefinite"/>
</circle>
<circle cx="256" cy="-40" r="700" fill="#D22D27">
<animate attributeName="cy" values="-40;-400;-40" keyTimes="0;0.5;1" dur="20s" repeatCount="indefinite"/>
</circle>
<circle cx="256" cy="-40" r="650" fill="#FFB74A">
<animate attributeName="cy" values="-40;-400;-40" keyTimes="0;0.5;1" dur="20s" repeatCount="indefinite"/>
</circle>
<circle cx="256" cy="-40" r="600" fill="#F15824">
<animate attributeName="cy" values="-40;-400;-40" keyTimes="0;0.5;1" dur="20s" repeatCount="indefinite"/>
</circle>
<circle cx="256" cy="-40" r="550" fill="#C2FD52">
<animate attributeName="cy" values="-40;-400;-40" keyTimes="0;0.5;1" dur="20s" repeatCount="indefinite"/>
</circle>
<circle cx="256" cy="-40" r="500" fill="#FF00B1">
<animate attributeName="cy" values="-40;-400;-40" keyTimes="0;0.5;1" dur="20s" repeatCount="indefinite"/>
</circle>
<circle cx="256" cy="-40" r="450" fill="#AD00FF">
<animate attributeName="cy" values="-40;-400;-40" keyTimes="0;0.5;1" dur="20s" repeatCount="indefinite"/>
</circle>
<circle cx="256" cy="-40" r="400" fill="#00A8FF">
<animate attributeName="cy" values="-40;-400;-40" keyTimes="0;0.5;1" dur="20s" repeatCount="indefinite"/>
</circle>
<circle cx="256" cy="-40" r="350" fill="#C2FD52">
<animate attributeName="cy" values="-40;-400;-40" keyTimes="0;0.5;1" dur="20s" repeatCount="indefinite"/>
</circle>
<circle cx="256" cy="-40" r="300" fill="#D22D27">
<animate attributeName="cy" values="-40;-400;-40" keyTimes="0;0.5;1" dur="20s" repeatCount="indefinite"/>
</circle>
<circle cx="256" cy="-40" r="250" fill="#FFB74A">
<animate attributeName="cy" values="-40;-400;-40" keyTimes="0;0.5;1" dur="20s" repeatCount="indefinite"/>
</circle>
<circle cx="256" cy="-40" r="200" fill="#F15824">
<animate attributeName="cy" values="-40;-400;-40" keyTimes="0;0.5;1" dur="20s" repeatCount="indefinite"/>
</circle>
</g>
<path d="M256 218L266 258H246" stroke="#121212" stroke-width="6"/>
</svg>
</g><g id="layer3"><svg width="512" height="512" viewBox="0 0 512 512" fill="none" xmlns="http://www.w3.org/2000/svg">
<rect width="180" height="88" transform="matrix(1 0 0 -1 166 138)" fill="#D22D27"/>
<rect width="212" height="24" transform="matrix(1 0 0 -1 150 162)" fill="#FFB74A"/>
<rect x="230" y="24" width="52" height="114" fill="#FFB74A"/>
<path d="M238 50.439L256.486 32L274 50.439L256.486 68L238 50.439Z" fill="#00A8FF"/>
<path d="M256.486 32L274 50.439H256.486V32Z" fill="#0097D8"/>
<path d="M238 50.439L256.486 32V50.439H238Z" fill="#79CBDC"/>
<circle cx="256" cy="150" r="6" fill="#D22D27"/>
<circle cx="256" cy="116" r="6" fill="#D22D27"/>
<circle cx="256" cy="88" r="6" fill="#D22D27"/>
<circle cx="220" cy="150" r="6" fill="#D22D27"/>
<circle cx="184" cy="150" r="6" fill="#D22D27"/>
<circle cx="328" cy="150" r="6" fill="#D22D27"/>
<circle cx="292" cy="150" r="6" fill="#D22D27"/>
<rect x="166" y="50" width="24" height="88" fill="#FFB74A"/>
<rect x="322" y="50" width="24" height="88" fill="#FFB74A"/>
<circle cx="334" cy="116" r="6" fill="#D22D27"/>
<circle cx="178" cy="116" r="6" fill="#D22D27"/>
<circle cx="334" cy="88" r="6" fill="#D22D27"/>
<circle cx="334" cy="60" r="6" fill="#D22D27"/>
<circle cx="178" cy="88" r="6" fill="#D22D27"/>
<circle cx="178" cy="60" r="6" fill="#D22D27"/>
</svg>
</g><g id="layer4"><svg width="512" height="512" viewBox="0 0 512 512" fill="none" xmlns="http://www.w3.org/2000/svg">
<rect x="160" y="404.58" width="16" height="28" transform="rotate(-20 160 404.58)" stroke="#FFB74A" stroke-width="6"/>
<rect width="16" height="28" transform="matrix(-0.939693 -0.34202 -0.34202 0.939693 352.859 404.473)" stroke="#FFB74A" stroke-width="6"/>
<rect x="164.305" y="439" width="16" height="28" transform="rotate(-30 164.305 439)" stroke="#FFB74A" stroke-width="6"/>
<rect width="16" height="28" transform="matrix(-0.866025 -0.5 -0.5 0.866025 348.555 438.893)" stroke="#FFB74A" stroke-width="6"/>
<rect x="184.305" y="464.285" width="16" height="28" transform="rotate(-40 184.305 464.285)" stroke="#FFB74A" stroke-width="6"/>
<rect width="16" height="28" transform="matrix(-0.766044 -0.642788 -0.642788 0.766044 328.555 464.178)" stroke="#FFB74A" stroke-width="6"/>
<rect x="210.307" y="485.795" width="16" height="28" transform="rotate(-60 210.307 485.795)" stroke="#FFB74A" stroke-width="6"/>
<rect width="16" height="28" transform="matrix(-0.5 -0.866025 -0.866025 0.5 302.553 485.688)" stroke="#FFB74A" stroke-width="6"/>
<rect x="242.305" y="502" width="16" height="28" transform="rotate(-90 242.305 502)" stroke="#FFB74A" stroke-width="6"/>
</svg>
</g><g id="layer5"><svg width="512" height="512" viewBox="0 0 512 512" fill="none" xmlns="http://www.w3.org/2000/svg">
<path fill-rule="evenodd" clip-rule="evenodd" d="M346 266H166V349L256 382L346 349V266ZM297 281H215V323H297V281Z" fill="#121212"/>
</svg>
</g><g id="layer6"><svg width="512" height="512" viewBox="0 0 512 512" fill="none" xmlns="http://www.w3.org/2000/svg">
<path d="M230.711 302H280" stroke="#121212" stroke-width="6"/>
<path d="M271 325C282.046 325 291 316.046 291 305H251C251 316.046 259.954 325 271 325Z" fill="#FF00B1"/>
<path d="M271 319C278.732 319 285 312.732 285 305H257C257 312.732 263.268 319 271 319Z" fill="#AD00FF"/>
<path d="M271 313C275.418 313 279 309.418 279 305H263C263 309.418 266.582 313 271 313Z" fill="#FFB039"/>
<path d="M251 302H248V305C248 317.703 258.297 328 271 328C283.703 328 294 317.703 294 305V302H291H251Z" stroke="#1D1D1D" stroke-width="6"/>
<path d="M284.229 320L330 369" stroke="#1D1D1D" stroke-width="6">
<animateTransform attributeName="transform" type="rotate" dur="4s" repeatCount="indefinite" keyTimes="0;0.1;0.5;0.6;1" values="0 270 300;90 270 300;90 270 300; 0 270 300; 0 270 300;" />
</path>
</svg>
</g><g id="layer7"><svg width="512" height="512" viewBox="0 0 512 512" fill="none" xmlns="http://www.w3.org/2000/svg">
<circle cx="10" cy="10" r="10" transform="matrix(1 0 0 -1 212 214)" fill="#121212"/>
<circle cx="10" cy="10" r="10" transform="matrix(1 0 0 -1 280 214)" fill="#121212"/>
<g>
<animateTransform attributeName="transform" type="translate" values="0 0; 0 0; 0 -16;0 0;0 -16; 0 0;0 0" keyTimes="0;0;0.04;0.08;0.12;0.16;1" dur="4s" repeatCount="indefinite"/>
<path d="M206 178H238" stroke="#121212" stroke-width="6"/>
<path d="M274 178H306" stroke="#121212" stroke-width="6"/>
</g>
</svg>
</g><g id="layer8"><svg width="512" height="512" viewBox="0 0 512 512" fill="none" xmlns="http://www.w3.org/2000/svg">
<path d="M166 178H242L250 186L234 231L166 211V178Z" fill="#121212"/>
<path d="M346 178H270L262 186L278 231L346 211V178Z" fill="#121212"/>
<rect x="242" y="178" width="28" height="12" fill="#121212"/>
<mask id="mask0_147_68" style="mask-type:alpha" maskUnits="userSpaceOnUse" x="171" y="187" width="74" height="38">
<path d="M171 187H245L239.02 202.647L231.545 225L171 207.863V187Z" fill="#121212"/>
</mask>
<g mask="url(#mask0_147_68)">
<path d="M178.202 182.842H189.685L175.905 238.104H164.422L178.202 182.842Z" fill="#D9D9D9">
<animateTransform attributeName="transform" type="translate" dur="4s" repeatCount="indefinite" keyTimes="0;0.8;1" values="-32 0;-32 0;68 0" />
</path>
</g>
<mask id="mask1_147_68" style="mask-type:alpha" maskUnits="userSpaceOnUse" x="267" y="187" width="74" height="39">
<path d="M341 187.118H267.185L273.15 202.776L280.606 225.144L341 207.995V187.118Z" fill="#121212"/>
</mask>
<g mask="url(#mask1_147_68)">
<path d="M285.951 185.627H275.106L288.12 237.819H298.965L285.951 185.627Z" fill="#D9D9D9">
<animateTransform attributeName="transform" type="translate" dur="4s" repeatCount="indefinite" keyTimes="0;0.8;1" values="-32 0;-32 0;68 0" />
</path>
</g>
</svg>
</g></svg>