<svg xmlns="http://www.w3.org/2000/svg" viewBox="0 0 500 500"><g id="layer1"><svg width="512" height="512" viewBox="0 0 512 512" fill="none" xmlns="http://www.w3.org/2000/svg">
<rect width="512" height="512" fill="#7000FF"/>
<path d="M134 178H167V242H146L134 178Z" fill="#E24713"/>
<path d="M378 178H345V242H366L378 178Z" fill="#E24713"/>
<rect x="207" y="346" width="98" height="54" fill="#E24713"/>
<path d="M64 400H448L480 512H32L64 400Z" fill="#F15824"/>
<rect x="166" y="106" width="180" height="240" fill="#F15824"/>
</svg>
</g><g id="layer2"><svg width="512" height="512" viewBox="0 0 512 512" fill="none" xmlns="http://www.w3.org/2000/svg">
<path d="M134 178H166V242H146L134 178Z" fill="#D5A300"/>
<path d="M378 178H346V242H366L378 178Z" fill="#D5A300"/>
<rect x="207" y="346" width="98" height="54" fill="#D5A300"/>
<path d="M64 400H448L480 512H32L64 400Z" fill="#E3B41A"/>
<rect x="166" y="106" width="180" height="240" fill="#E3B41A"/>
<path d="M256 218L266 258H246" stroke="#121212" stroke-width="6"/>
<mask id="mask0_151_133" style="mask-type:alpha" maskUnits="userSpaceOnUse" x="32" y="106" width="448" height="406">
<path d="M166 106H346.5V177.5H378L365.5 241.5H346.5V345.5H305V400.5H448L479.5 512H326.966H32L64 400.5H206.5V345.5H166V241.5H145.5L134 177.5H166V106Z" fill="#121212"/>
</mask>
<g mask="url(#mask0_151_133)">
<path d="M121 106H160L16.5454 512H-26L121 106Z" fill="#FFFFFF" fill-opacity="0.4">
<animateTransform attributeName="transform" type="translate" dur="4s" repeatCount="indefinite" keyTimes="0;0.8;1" values="0 0;0 0;500 0" />
</path>
</g>
</svg>
</g><g id="layer3"><svg width="512" height="512" viewBox="0 0 512 512" fill="none" xmlns="http://www.w3.org/2000/svg">
<rect width="180" height="68" transform="matrix(1 0 0 -1 166 138)" fill="#DB8300"/>
<rect width="212" height="24" transform="matrix(1 0 0 -1 150 162)" fill="#FFB74A"/>
<rect x="244" y="70" width="24" height="68" fill="#FFB74A"/>
<circle cx="256" cy="146" r="32" fill="#FEED59"/>
</svg>
</g><g id="layer4"><svg width="512" height="512" viewBox="0 0 512 512" fill="none" xmlns="http://www.w3.org/2000/svg">
<path d="M64 400H448L480 512H32L64 400Z" fill="#F15824"/>
<rect x="207" y="372" width="36" height="28" fill="#FE8AC8"/>
<rect x="269" y="372" width="36" height="28" fill="#FE8AC8"/>
<path d="M64 400H448L480 512H32L64 400Z" fill="#FF008A"/>
<path d="M340 448L347.629 472H351.857L344.292 448H340ZM376.078 448L368.068 472H372.36L380.307 448H376.079H376.078ZM353.653 460.652H359.853L353.113 469.139V472H366.591V467.899H360.018L366.814 459.412V456.551H353.653V460.652Z" fill="#FFD600"/>
<path d="M256 400L256 512" stroke="#FE8AC8" stroke-width="6"/>
<circle cx="274" cy="427" r="6" fill="#FFD600"/>
<circle cx="274" cy="459" r="6" fill="#FFD600"/>
<circle cx="274" cy="491" r="6" fill="#FFD600"/>
<rect x="328" y="472" width="64" height="16" fill="#FE8AC8"/>
</svg>
</g><g id="layer5"><svg width="512" height="512" viewBox="0 0 512 512" fill="none" xmlns="http://www.w3.org/2000/svg">
<path fill-rule="evenodd" clip-rule="evenodd" d="M346 266H166V349L256 382L346 349V266ZM297 281H215V323H297V281Z" fill="#121212"/>
</svg>
</g><g id="layer6"><svg width="512" height="512" viewBox="0 0 512 512" fill="none" xmlns="http://www.w3.org/2000/svg">
<path d="M230.711 302H280" stroke="#121212" stroke-width="6"/>
<path d="M279.001 302C279.001 302 367.883 367.5 373.191 370.5L385.191 349.999L279.001 302Z" fill="#D22D27" stroke="#121212" stroke-width="6"/>
<path d="M276.75 301.825L342.223 348.641L360.478 339.021L276.75 301.825Z" fill="#00FF94" stroke="#121212" stroke-width="6"/>
<path d="M279.5 302L324.971 336.304L339.801 329.835L279.5 302Z" fill="#00A8FF"/>
<path d="M324.971 336.304L323.164 338.699L324.564 339.755L326.171 339.054L324.971 336.304ZM279.5 302L280.757 299.276C279.366 298.634 277.713 299.144 276.926 300.459C276.139 301.774 276.47 303.472 277.693 304.395L279.5 302ZM339.801 329.835L341.001 332.584L347.127 329.912L341.059 327.111L339.801 329.835ZM326.778 333.909L281.307 299.605L277.693 304.395L323.164 338.699L326.778 333.909ZM278.243 304.724L338.544 332.558L341.059 327.111L280.757 299.276L278.243 304.724ZM326.171 339.054L341.001 332.584L338.602 327.085L323.772 333.554L326.171 339.054Z" fill="#121212"/>
<rect x="391.396" y="335" width="21" height="37.7025" rx="10.5" transform="rotate(42.3433 391.396 335)" fill="#FFB74A" stroke="#121212" stroke-width="6"/>
<path d="M390 363C390 366.701 387.989 369.933 385 371.662C383.529 372.513 381.821 373 380 373C374.477 373 370 368.523 370 363C370 357.477 374.477 353 380 353C385.523 353 390 357.477 390 363Z" fill="#FFB74A" stroke="#121212" stroke-width="6"/>
</svg>
</g><g id="layer7"><svg width="512" height="512" viewBox="0 0 512 512" fill="none" xmlns="http://www.w3.org/2000/svg">
    <rect x="212" y="194" width="20" height="20" rx="10" fill="#121212">
        <animate attributeName="fill" dur="4s" repeatCount="indefinite" keyTimes="0;0.05;0.1;0.75;0.8;1" values="#121212;#121212;#BA120C;#BA120C;#121212;#121212" />
    </rect>
    <rect x="280" y="194" width="20" height="20" rx="10" fill="#121212">
        <animate attributeName="fill" dur="4s" repeatCount="indefinite" keyTimes="0;0.05;0.1;0.75;0.8;1" values="#121212;#121212;#BA120C;#BA120C;#121212;#121212" />
    </rect>
    <g transform="translate(0,0)">
        <path d="M206 162H238" stroke="#121212" stroke-width="6">
            <animateTransform attributeName="transform" type="translate" begin="0s" dur="4s" repeatCount="indefinite" keyTimes="0;0.05;0.1;0.75;0.8;1" values="0 0;0 0;2 12;2 12;0 0;0 0" />
            <animateTransform attributeName="transform" type="rotate" begin="0s" dur="4s" repeatCount="indefinite" keyTimes="0;0.05;0.1;0.75;0.8;1" values="0 222 162;0 222 162;30 222 162;30 222 162;0 222 162;0 222 162" additive="sum" />
        </path>
    </g>
    <g transform="translate(0,0)">
        <path d="M274 162H306" stroke="#121212" stroke-width="6">
            <animateTransform attributeName="transform" type="translate" begin="0s" dur="4s" repeatCount="indefinite" keyTimes="0;0.05;0.1;0.75;0.8;1" values="0 0;0 0;-2 12;-2 12;0 0;0 0" />
            <animateTransform attributeName="transform" type="rotate" begin="0s" dur="4s" repeatCount="indefinite" keyTimes="0;0.05;0.1;0.75;0.8;1" values="0 290 162;0 290 162;-30 290 162;-30 290 162;0 290 162;0 290 162" additive="sum" />
        </path>
    </g>
</svg>
</g><g id="layer8"><svg></svg></g></svg>