<svg xmlns="http://www.w3.org/2000/svg" viewBox="0 0 500 500"><g id="layer1"><svg width="512" height="512" viewBox="0 0 512 512" fill="none" xmlns="http://www.w3.org/2000/svg">
<rect width="512" height="512" fill="#572828"/>
<path d="M134 178H167V242H146L134 178Z" fill="#E24713"/>
<path d="M378 178H345V242H366L378 178Z" fill="#E24713"/>
<rect x="207" y="346" width="98" height="54" fill="#E24713"/>
<path d="M64 400H448L480 512H32L64 400Z" fill="#F15824"/>
<rect x="166" y="106" width="180" height="240" fill="#F15824"/>
</svg>
</g><g id="layer2"><svg width="512" height="512" viewBox="0 0 512 512" fill="none" xmlns="http://www.w3.org/2000/svg">
<path d="M134 178H166V242H146L134 178Z" fill="#E24713"/>
<path d="M378 178H346V242H366L378 178Z" fill="#E24713"/>
<rect x="207" y="346" width="98" height="54" fill="#E24713"/>
<path d="M64 400H448L480 512H32L64 400Z" fill="#F15824"/>
<rect x="166" y="106" width="180" height="240" fill="#F15824"/>
<path d="M256 218L266 258H246" stroke="#121212" stroke-width="6"/>
</svg>
</g><g id="layer3"><svg width="512" height="512" viewBox="0 0 512 512" fill="none" xmlns="http://www.w3.org/2000/svg">
<path d="M166 86L256 62L346 86V138H166V86Z" fill="#165B32"/>
<path d="M256 80L260.702 89.5279L271.217 91.0557L263.608 98.4721L265.405 108.944L256 104L246.595 108.944L248.392 98.4721L240.783 91.0557L251.298 89.5279L256 80Z" fill="#FEED59"/>
<rect x="166" y="122" width="180" height="16" fill="#FEED59"/>
<path d="M166 138H346V154L256 174L166 154V138Z" fill="#0C4122"/>
</svg>
</g><g id="layer4"><svg width="512" height="512" viewBox="0 0 512 512" fill="none" xmlns="http://www.w3.org/2000/svg">
<path d="M64 400H160C160 400 160 472 256 472C352 472 352 400 352 400H448L480 512H32L64 400Z" fill="#121212"/>
<path d="M137 400L207 346V512H166L137 456.5L166 435L137 400Z" fill="#2D2D2D"/>
<circle cx="159" cy="400" r="6" fill="white"/>
<circle cx="159" cy="458" r="6" fill="white"/>
<path d="M375 400L305 346V512H346L375 456.5L346 435L375 400Z" fill="#2D2D2D"/>
<circle cx="353" cy="400" r="6" fill="white"/>
<circle cx="353" cy="458" r="6" fill="white"/>
<path d="M72 408H84L78 384L72 408Z" fill="white"/>
<path d="M72 440H84L78 416L72 440Z" fill="white"/>
<path d="M388 440H400L394 416L388 440Z" fill="white"/>
<path d="M388 408H400L394 384L388 408Z" fill="white"/>
<path d="M92 408H104L98 384L92 408Z" fill="white"/>
<path d="M92 440H104L98 416L92 440Z" fill="white"/>
<path d="M408 440H420L414 416L408 440Z" fill="white"/>
<path d="M408 408H420L414 384L408 408Z" fill="white"/>
<path d="M112 408H124L118 384L112 408Z" fill="white"/>
<path d="M112 440H124L118 416L112 440Z" fill="white"/>
<path d="M428 440H440L434 416L428 440Z" fill="white"/>
<path d="M428 408H440L434 384L428 408Z" fill="white"/>
</svg>
</g><g id="layer5"><svg></svg></g><g id="layer6"><svg width="512" height="512" viewBox="0 0 512 512" fill="none" xmlns="http://www.w3.org/2000/svg">
<rect x="238" y="298" width="36" height="4" rx="2" fill="white">
  <animate attributeName="y" dur="4s" repeatCount="indefinite" keyTimes="0;0.05;0.1;0.75;0.8;1" values="298;298;282;282;298;298" />
  <animate attributeName="height" dur="4s" repeatCount="indefinite" keyTimes="0;0.05;0.1;0.75;0.8;1" values="4;4;36;36;4;4" />
  <animate attributeName="rx" dur="4s" repeatCount="indefinite" keyTimes="0;0.05;0.1;0.75;0.8;1" values="2;2;18;18;2;2" />
</rect>
</svg>
</g><g id="layer7"><svg width="512" height="512" viewBox="0 0 512 512" fill="none" xmlns="http://www.w3.org/2000/svg">
    <rect x="212" y="194" width="20" height="20" rx="10" fill="#121212">
        <animate attributeName="fill" dur="4s" repeatCount="indefinite" keyTimes="0;0.05;0.1;0.75;0.8;1" values="#121212;#121212;#BA120C;#BA120C;#121212;#121212" />
    </rect>
    <rect x="280" y="194" width="20" height="20" rx="10" fill="#121212">
        <animate attributeName="fill" dur="4s" repeatCount="indefinite" keyTimes="0;0.05;0.1;0.75;0.8;1" values="#121212;#121212;#BA120C;#BA120C;#121212;#121212" />
    </rect>
    <g transform="translate(0,0)">
        <path d="M206 162H238" stroke="#121212" stroke-width="6">
            <animateTransform attributeName="transform" type="translate" begin="0s" dur="4s" repeatCount="indefinite" keyTimes="0;0.05;0.1;0.75;0.8;1" values="0 0;0 0;2 12;2 12;0 0;0 0" />
            <animateTransform attributeName="transform" type="rotate" begin="0s" dur="4s" repeatCount="indefinite" keyTimes="0;0.05;0.1;0.75;0.8;1" values="0 222 162;0 222 162;30 222 162;30 222 162;0 222 162;0 222 162" additive="sum" />
        </path>
    </g>
    <g transform="translate(0,0)">
        <path d="M274 162H306" stroke="#121212" stroke-width="6">
            <animateTransform attributeName="transform" type="translate" begin="0s" dur="4s" repeatCount="indefinite" keyTimes="0;0.05;0.1;0.75;0.8;1" values="0 0;0 0;-2 12;-2 12;0 0;0 0" />
            <animateTransform attributeName="transform" type="rotate" begin="0s" dur="4s" repeatCount="indefinite" keyTimes="0;0.05;0.1;0.75;0.8;1" values="0 290 162;0 290 162;-30 290 162;-30 290 162;0 290 162;0 290 162" additive="sum" />
        </path>
    </g>
</svg>
</g><g id="layer8"><svg width="512" height="512" viewBox="0 0 512 512" fill="none" xmlns="http://www.w3.org/2000/svg">
<path d="M166 178H346V230L277 234L256 218L235 234L166 230V178Z" fill="#121212"/>
<rect x="182" y="194" width="148" height="20" fill="#D22D27">
<animate attributeName="fill" dur="8s" repeatCount="indefinite" keyTimes="0;0.05;0.075;0.1;0.12;0.15;0.5;0.55;1" values="#6C0400;#FF0900;#6C0400;#FF0900;#6C0400;#FF0900;#FF0900;#6C0400;#6C0400" />
</rect>
</svg>
</g></svg>