<svg xmlns="http://www.w3.org/2000/svg" viewBox="0 0 500 500"><g id="layer1"><svg width="512" height="512" viewBox="0 0 512 512" fill="none" xmlns="http://www.w3.org/2000/svg">
<rect width="512" height="512" fill="#7B0000"/>
<path d="M134 178H167V242H146L134 178Z" fill="#E24713"/>
<path d="M378 178H345V242H366L378 178Z" fill="#E24713"/>
<rect x="207" y="346" width="98" height="54" fill="#E24713"/>
<path d="M64 400H448L480 512H32L64 400Z" fill="#F15824"/>
<rect x="166" y="106" width="180" height="240" fill="#F15824"/>
</svg>
</g><g id="layer2"><svg width="512" height="512" viewBox="0 0 512 512" fill="none" xmlns="http://www.w3.org/2000/svg">
<mask id="mask0_34_133" style="mask-type:alpha" maskUnits="userSpaceOnUse" x="32" y="106" width="448" height="406">
<path fill-rule="evenodd" clip-rule="evenodd" d="M207 346H166V242H146L134 178H166L166 106L346 106V178H378L366 242H346V346L305 346V400H448L480 512H32L64 400H207V346Z" fill="#F15824"/>
</mask>
<g mask="url(#mask0_34_133)">
<circle cx="256" cy="-40" r="950" fill="#F15824">
<animate attributeName="cy" values="-40;-400;-40" keyTimes="0;0.5;1" dur="20s" repeatCount="indefinite"/>
</circle>
<circle cx="256" cy="-40" r="900" fill="#C2FD52">
<animate attributeName="cy" values="-40;-400;-40" keyTimes="0;0.5;1" dur="20s" repeatCount="indefinite"/>
</circle>
<circle cx="256" cy="-40" r="850" fill="#AD00FF">
<animate attributeName="cy" values="-40;-400;-40" keyTimes="0;0.5;1" dur="20s" repeatCount="indefinite"/>
</circle>
<circle cx="256" cy="-40" r="800" fill="#00A8FF">
<animate attributeName="cy" values="-40;-400;-40" keyTimes="0;0.5;1" dur="20s" repeatCount="indefinite"/>
</circle>
<circle cx="256" cy="-40" r="750" fill="#C2FD52">
<animate attributeName="cy" values="-40;-400;-40" keyTimes="0;0.5;1" dur="20s" repeatCount="indefinite"/>
</circle>
<circle cx="256" cy="-40" r="700" fill="#D22D27">
<animate attributeName="cy" values="-40;-400;-40" keyTimes="0;0.5;1" dur="20s" repeatCount="indefinite"/>
</circle>
<circle cx="256" cy="-40" r="650" fill="#FFB74A">
<animate attributeName="cy" values="-40;-400;-40" keyTimes="0;0.5;1" dur="20s" repeatCount="indefinite"/>
</circle>
<circle cx="256" cy="-40" r="600" fill="#F15824">
<animate attributeName="cy" values="-40;-400;-40" keyTimes="0;0.5;1" dur="20s" repeatCount="indefinite"/>
</circle>
<circle cx="256" cy="-40" r="550" fill="#C2FD52">
<animate attributeName="cy" values="-40;-400;-40" keyTimes="0;0.5;1" dur="20s" repeatCount="indefinite"/>
</circle>
<circle cx="256" cy="-40" r="500" fill="#FF00B1">
<animate attributeName="cy" values="-40;-400;-40" keyTimes="0;0.5;1" dur="20s" repeatCount="indefinite"/>
</circle>
<circle cx="256" cy="-40" r="450" fill="#AD00FF">
<animate attributeName="cy" values="-40;-400;-40" keyTimes="0;0.5;1" dur="20s" repeatCount="indefinite"/>
</circle>
<circle cx="256" cy="-40" r="400" fill="#00A8FF">
<animate attributeName="cy" values="-40;-400;-40" keyTimes="0;0.5;1" dur="20s" repeatCount="indefinite"/>
</circle>
<circle cx="256" cy="-40" r="350" fill="#C2FD52">
<animate attributeName="cy" values="-40;-400;-40" keyTimes="0;0.5;1" dur="20s" repeatCount="indefinite"/>
</circle>
<circle cx="256" cy="-40" r="300" fill="#D22D27">
<animate attributeName="cy" values="-40;-400;-40" keyTimes="0;0.5;1" dur="20s" repeatCount="indefinite"/>
</circle>
<circle cx="256" cy="-40" r="250" fill="#FFB74A">
<animate attributeName="cy" values="-40;-400;-40" keyTimes="0;0.5;1" dur="20s" repeatCount="indefinite"/>
</circle>
<circle cx="256" cy="-40" r="200" fill="#F15824">
<animate attributeName="cy" values="-40;-400;-40" keyTimes="0;0.5;1" dur="20s" repeatCount="indefinite"/>
</circle>
</g>
<path d="M256 218L266 258H246" stroke="#121212" stroke-width="6"/>
</svg>
</g><g id="layer3"><svg width="512" height="512" viewBox="0 0 512 512" fill="none" xmlns="http://www.w3.org/2000/svg">
<path d="M166 106L219.5 73V106L288.5 73V106L346 73V106V154L166 154V106Z" fill="#121212"/>
<rect x="166" y="154" width="12" height="40" fill="#121212"/>
<rect x="334" y="154" width="12" height="40" fill="#121212"/>
<rect x="166" y="122" width="180" height="32" fill="#00B2FE"/>
</svg>
</g><g id="layer4"><svg width="512" height="512" viewBox="0 0 512 512" fill="none" xmlns="http://www.w3.org/2000/svg">
<path d="M64 400H207L257 467L305 400H448L480 512H32L64 400Z" fill="#8B634A"/>
<circle cx="6" cy="6" r="6" transform="matrix(1 0 0 -1 251 486)" fill="#77492D"/>
<circle cx="6" cy="6" r="6" transform="matrix(1 0 0 -1 251 506)" fill="#77492D"/>
<rect x="80" y="400" width="76" height="112" fill="#77492D"/>
<rect x="356" y="400" width="76" height="112" fill="#77492D"/>
<path d="M257 467L191.5 439.5L199 429L171.5 421L179.5 400H207L257 467Z" fill="#77492D"/>
<path d="M257 467L322.5 439.5L315 429L342.5 421L334.5 400H305L257 467Z" fill="#77492D"/>
</svg>
</g><g id="layer5"><svg width="512" height="512" viewBox="0 0 512 512" fill="none" xmlns="http://www.w3.org/2000/svg">
<path fill-rule="evenodd" clip-rule="evenodd" d="M346 266H166V349L256 382L346 349V266ZM297 281H215V323H297V281Z" fill="#121212"/>
</svg>
</g><g id="layer6"><svg width="512" height="512" viewBox="0 0 512 512" fill="none" xmlns="http://www.w3.org/2000/svg">
<path d="M228 282H261.5H284" stroke="#121212" stroke-width="6"/>
<path d="M284 301.25V282H261.5V301.25C261.5 307.463 266.537 312.5 272.75 312.5C278.963 312.5 284 307.463 284 301.25Z" fill="#D22D27" stroke="#121212" stroke-width="6"/>
</svg>
</g><g id="layer7"><svg width="512" height="512" viewBox="0 0 512 512" fill="none" xmlns="http://www.w3.org/2000/svg">
  <path d="M219.5 193C225 186 232.5 190.5 232.5 196.5C232.5 200.918 229.349 205.219 225 206C219.615 206.966 212.5 203 211 196.5C209.154 188.5 213 179 225 179C237 179 242.5 186.987 242.5 196.5C242.5 203.5 238.5 215.375 223.5 216C217.481 216.251 203 212.5 201 197" stroke="#121212" stroke-width="6">
    <animateTransform attributeType="xml" attributeName="transform" type="rotate" from="0 225 197" to="360 225 197" dur="2s" repeatCount="indefinite"/>
  </path>
  <path d="M292 193C286.5 186 279 190.5 279 196.5C279 200.918 282.151 205.219 286.5 206C291.885 206.966 299 203 300.5 196.5C302.346 188.5 298.5 179 286.5 179C274.5 179 269 186.987 269 196.5C269 203.5 273 215.375 288 216C294.019 216.251 308.5 212.5 310.5 197" stroke="#121212" stroke-width="6">
    <animateTransform attributeType="xml" attributeName="transform" type="rotate" from="0 290 197" to="360 290 197" dur="2s" repeatCount="indefinite"/>
  </path>
  <rect x="206" y="159" width="32" height="6" fill="black"/>
  <rect x="274" y="159" width="32" height="6" fill="black"/>
</svg>
</g><g id="layer8"><svg width="512" height="512" viewBox="0 0 512 512" fill="none" xmlns="http://www.w3.org/2000/svg">
<path d="M192 203V203C192 218.464 204.536 231 220 231V231C235.464 231 248 218.464 248 203V203C248 187.536 235.464 175 220 175V175V175C204.536 175 192 187.536 192 203V203ZM192 203L164 176" stroke="#121212" fill="#FFD600" fill-opacity="40%" stroke-width="6"/>
<path d="M248 202H264" stroke="#121212" stroke-width="6"/>
<path d="M320 203V203C320 187.536 307.464 175 292 175V175V175C276.536 175 264 187.536 264 203V203C264 218.464 276.536 231 292 231V231C307.464 231 320 218.464 320 203V203ZM320 203L348 176" stroke="#121212" fill="#FFD600" fill-opacity="40%" stroke-width="6"/>
<mask id="mask0_140_21" style="mask-type:alpha" maskUnits="userSpaceOnUse" x="267" y="178" width="50" height="50">
<circle cx="292" cy="203" r="25" fill="#FFD600" />
</mask>
<g mask="url(#mask0_140_21)">
<path d="M275.545 178H286L273.455 228H263L275.545 178Z" fill="#FFFFFF">
<animateTransform attributeName="transform" type="translate" dur="4s" repeatCount="indefinite" keyTimes="0;0.8;1" values="-32 0;-32 0;48 0" />
</path>
</g>
<mask id="mask1_140_21" style="mask-type:alpha" maskUnits="userSpaceOnUse" x="195" y="178" width="50" height="50">
<circle cx="220" cy="203" r="25" fill="#FFD600" />
</mask>
<g mask="url(#mask1_140_21)">
<path d="M203.545 178H214L201.455 228H191L203.545 178Z" fill="#FFFFFF">
<animateTransform attributeName="transform" type="translate" dur="4s" repeatCount="indefinite" keyTimes="0;0.8;1" values="-32 0;-32 0;48 0" />
</path>
</g>
</svg>
</g></svg>