<svg xmlns="http://www.w3.org/2000/svg" viewBox="0 0 500 500"><g id="layer1"><svg width="512" height="512" viewBox="0 0 512 512" fill="none" xmlns="http://www.w3.org/2000/svg">
<rect width="512" height="512" fill="#186450"/>
<path d="M134 178H167V242H146L134 178Z" fill="#E24713"/>
<path d="M378 178H345V242H366L378 178Z" fill="#E24713"/>
<rect x="207" y="346" width="98" height="54" fill="#E24713"/>
<path d="M64 400H448L480 512H32L64 400Z" fill="#F15824"/>
<rect x="166" y="106" width="180" height="240" fill="#F15824"/>
</svg>
</g><g id="layer2"><svg width="512" height="512" viewBox="0 0 512 512" fill="none" xmlns="http://www.w3.org/2000/svg">
<path d="M134 178H166V242H146L134 178Z" fill="#56C499"/>
<path d="M378 178H346V242H366L378 178Z" fill="#56C499"/>
<path d="M64 400H448L480 512H32L64 400Z" fill="#82DCB9"/>
<rect x="207" y="346" width="98" height="54" fill="#56C499"/>
<path d="M207 377L305 365V369L207 381V377Z" fill="#82DCB9"/>
<path d="M190 118.5C190 118.5 179.495 115.024 173.5 121.448C167.904 127.443 173.5 140 173.5 140C173.5 140 167.61 143.714 166.5 149C164.295 159.5 170.999 164.5 170.999 164.5V173H192.5L228 110H220C220 110 214.5 106.333 204 107.5C195.001 108.5 190 118.5 190 118.5Z" fill="#FF00B1"/>
<path d="M346 346V106H223L206.5 126V142H188V157L166 166V346H346Z" fill="#82DCB9"/>
<path d="M274 252L256 218.5L238 252L247 260L256 252L265 260L274 252Z" stroke="#121212" stroke-width="6"/>
<path d="M294 136.5L346 148.5V158L294 136.5Z" fill="#D22D27"/>
<rect x="313.762" y="134" width="4" height="16" transform="rotate(25 313.762 134)" fill="white"/>
<rect x="223" y="369.349" width="4" height="16" transform="rotate(-5 223 369.349)" fill="white"/>
<rect x="253" y="365.349" width="4" height="16" transform="rotate(-5 253 365.349)" fill="white"/>
<rect x="283" y="361.349" width="4" height="16" transform="rotate(-5 283 361.349)" fill="white"/>
<rect x="331.141" y="141" width="4" height="16" transform="rotate(15 331.141 141)" fill="white"/>
<rect width="24" height="4" transform="matrix(-0.939693 -0.34202 -0.34202 0.939693 147.129 383.208)" fill="white"/>
<rect width="4" height="24" transform="matrix(-0.939693 -0.34202 -0.34202 0.939693 136.364 383.547)" fill="white"/>
<rect width="24" height="4" transform="matrix(-1 0 0 1 115 385)" fill="white"/>
<rect width="4" height="24" transform="matrix(-1 0 0 1 105 389)" fill="white"/>
</svg>
</g><g id="layer3"><svg></svg></g><g id="layer4"><svg width="512" height="512" viewBox="0 0 512 512" fill="none" xmlns="http://www.w3.org/2000/svg">
<path d="M64 400H448L480 512H32L64 400Z" fill="#F15824"/>
<path fill-rule="evenodd" clip-rule="evenodd" d="M116 69H396V400H116V69ZM207 363V346H166V179L254.5 145.5L346 179V346H305V364L256 379.5L207 363Z" fill="white"/>
<path d="M64 400H448L480 512H32L64 400Z" fill="white"/>
<path d="M326 456L333.629 480H337.857L330.292 456H326ZM362.078 456L354.068 480H358.36L366.307 456H362.079H362.078ZM339.653 468.652H345.853L339.113 477.139V480H352.591V475.899H346.018L352.814 467.412V464.551H339.653V468.652Z" fill="#121212"/>
<path d="M227 400V431" stroke="#121212" stroke-width="6"/>
<path d="M285 400V456" stroke="#121212" stroke-width="6"/>
<rect x="270.857" y="466" width="20" height="20" transform="rotate(-45 270.857 466)" fill="#121212"/>
<rect x="212.857" y="438" width="20" height="20" transform="rotate(-45 212.857 438)" fill="#121212"/>
</svg>
</g><g id="layer5"><svg width="512" height="512" viewBox="0 0 512 512" fill="none" xmlns="http://www.w3.org/2000/svg">
<path fill-rule="evenodd" clip-rule="evenodd" d="M346 266H166V349L256 382L346 349V266ZM297 281H215V323H297V281Z" fill="#121212"/>
</svg>
</g><g id="layer6"><svg width="512" height="512" viewBox="0 0 512 512" fill="none" xmlns="http://www.w3.org/2000/svg">
<path d="M230.711 302H280" stroke="#121212" stroke-width="6"/>
</svg>
</g><g id="layer7"><svg width="512" height="512" viewBox="0 0 512 512" fill="none" xmlns="http://www.w3.org/2000/svg">
    <rect x="212" y="194" width="20" height="20" rx="10" fill="#121212">
        <animate attributeName="rx" values="10;10;1;10;10;1;10;10" keyTimes="0;0.275;0.3;0.325;0.725;0.75;0.775;1" dur="4s" repeatCount="indefinite" />
    <animate attributeName="height" values="20;20;2;20;20;2;20;20" keyTimes="0;0.275;0.3;0.325;0.725;0.75;0.775;1" dur="4s" repeatCount="indefinite" />
    <animate attributeName="y" values="194;194;203;194;194;203;194;194" keyTimes="0;0.275;0.3;0.325;0.725;0.75;0.775;1" dur="4s" repeatCount="indefinite" />
    </rect>
    <rect x="280" y="194" width="20" height="20" rx="10" fill="#121212">
        <animate attributeName="rx" values="10;10;1;10;10;1;10;10;" keyTimes="0;0.275;0.3;0.325;0.725;0.75;0.775;1" dur="4s" repeatCount="indefinite" />
    <animate attributeName="height" values="20;20;2;20;20;2;20;20" keyTimes="0;0.275;0.3;0.325;0.725;0.75;0.775;1" dur="4s" repeatCount="indefinite" />
    <animate attributeName="y" values="194;194;203;194;194;203;194;194" keyTimes="0;0.275;0.3;0.325;0.725;0.75;0.775;1" dur="4s" repeatCount="indefinite" />
    </rect>
    <path d="M206 197H238" stroke="#121212" stroke-width="6"/>
    <path d="M274 197H306" stroke="#121212" stroke-width="6"/>
</svg>
</g><g id="layer8"><svg></svg></g></svg>