<svg xmlns="http://www.w3.org/2000/svg" viewBox="0 0 500 500"><g id="layer1"><svg width="512" height="512" viewBox="0 0 512 512" fill="none" xmlns="http://www.w3.org/2000/svg">
<rect width="512" height="512" fill="#FF9900"/>
<path d="M134 178H167V242H146L134 178Z" fill="#E24713"/>
<path d="M378 178H345V242H366L378 178Z" fill="#E24713"/>
<rect x="207" y="346" width="98" height="54" fill="#E24713"/>
<path d="M64 400H448L480 512H32L64 400Z" fill="#F15824"/>
<rect x="166" y="106" width="180" height="240" fill="#F15824"/>
</svg>
</g><g id="layer2"><svg width="512" height="512" viewBox="0 0 512 512" fill="none" xmlns="http://www.w3.org/2000/svg">
<path d="M134 178H166V242H146L134 178Z" fill="#36CF00"/>
<path d="M378 178H346V242H366L378 178Z" fill="#36CF00"/>
<path d="M64 400H448L480 512H32L64 400Z" fill="#3BE200"/>
<rect x="207" y="346" width="98" height="54" fill="#36CF00"/>
<rect x="166" y="106" width="180" height="240" fill="#3BE200"/>
</svg>
</g><g id="layer3"><svg width="512" height="512" viewBox="0 0 512 512" fill="none" xmlns="http://www.w3.org/2000/svg">
<rect width="180" height="80" transform="matrix(1 0 0 -1 166 166)" fill="#EBEBEB"/>
<rect width="180" height="24" transform="matrix(1 0 0 -1 166 242)" fill="#EBEBEB"/>
<path d="M244 166H268V270H256H244V166Z" fill="#EBEBEB"/>
<path d="M166 166H190V306H166V241.423V166Z" fill="#EBEBEB"/>
<path d="M346 166H322V306H346V241.423V166Z" fill="#EBEBEB"/>
</svg>
</g><g id="layer4"><svg width="512" height="512" viewBox="0 0 512 512" fill="none" xmlns="http://www.w3.org/2000/svg">
<g clip-path="url(#clip0_611_16907)">
<path d="M63.5 400H190L223 439V512H31.5L63.5 400Z" fill="#FF00B1"/>
<path d="M447.999 400H320.999L287.999 439V512H480L447.999 400Z" fill="#FF00B1"/>
<path d="M223 439L182 466.5L146 400L173 380L223 439Z" fill="#FF79D6"/>
<path d="M288 439L329 466.5L365 400L338 380L288 439Z" fill="#FF79D6"/>
<path d="M100.34 448.288L113.126 475.708M100.34 448.288C100.34 448.288 91.2768 452.514 87.3328 463.662M100.34 448.288C100.34 448.288 108.723 445.984 119.96 448.447M100.34 448.288C100.34 448.288 101.83 437.963 110.985 429.201M100.34 448.288C100.34 448.288 88.7603 443.737 78.3579 444.415M100.34 448.288C100.34 448.288 94.443 435.811 88.1415 431.086" stroke="#FFD600" stroke-width="6"/>
<path d="M357.34 472.288L370.126 499.708M357.34 472.288C357.34 472.288 348.277 476.514 344.333 487.662M357.34 472.288C357.34 472.288 365.723 469.984 376.96 472.447M357.34 472.288C357.34 472.288 358.83 461.963 367.985 453.201M357.34 472.288C357.34 472.288 345.76 467.737 335.358 468.415M357.34 472.288C357.34 472.288 351.443 459.811 345.141 455.086" stroke="#FFD600" stroke-width="6"/>
<path d="M165.332 494.482L147.978 519.265M165.332 494.482C165.332 494.482 157.14 488.746 145.514 490.904M165.332 494.482C165.332 494.482 171.519 500.59 175.003 511.553M165.332 494.482C165.332 494.482 175.018 490.611 187.184 494.157M165.332 494.482C165.332 494.482 163.483 482.178 157.695 473.509M165.332 494.482C165.332 494.482 173.188 483.137 174.13 475.317" stroke="#FFD600" stroke-width="6"/>
<path d="M421.149 438.34L393.729 451.126M421.149 438.34C421.149 438.34 416.923 429.277 405.775 425.333M421.149 438.34C421.149 438.34 423.453 446.723 420.989 457.96M421.149 438.34C421.149 438.34 431.473 439.83 440.236 448.985M421.149 438.34C421.149 438.34 425.7 426.76 425.022 416.358M421.149 438.34C421.149 438.34 433.626 432.443 438.351 426.141" stroke="#FFD600" stroke-width="6"/>
</g>
<defs>
<clipPath id="clip0_611_16907">
<rect width="512" height="512" fill="white"/>
</clipPath>
</defs>
</svg>
</g><g id="layer5"><svg width="512" height="512" viewBox="0 0 512 512" fill="none" xmlns="http://www.w3.org/2000/svg">
<path d="M204 270H308L324 290H188L204 270Z" fill="#121212"/>
</svg>
</g><g id="layer6"><svg width="512" height="512" viewBox="0 0 512 512" fill="none" xmlns="http://www.w3.org/2000/svg">
<path d="M230.711 302H280" stroke="#121212" stroke-width="6"/>
<path d="M271 325C282.046 325 291 316.046 291 305H251C251 316.046 259.954 325 271 325Z" fill="#FF00B1"/>
<path d="M271 319C278.732 319 285 312.732 285 305H257C257 312.732 263.268 319 271 319Z" fill="#AD00FF"/>
<path d="M271 313C275.418 313 279 309.418 279 305H263C263 309.418 266.582 313 271 313Z" fill="#FFB039"/>
<path d="M251 302H248V305C248 317.703 258.297 328 271 328C283.703 328 294 317.703 294 305V302H291H251Z" stroke="#1D1D1D" stroke-width="6"/>
<path d="M284.229 320L330 369" stroke="#1D1D1D" stroke-width="6">
<animateTransform attributeName="transform" type="rotate" dur="4s" repeatCount="indefinite" keyTimes="0;0.1;0.5;0.6;1" values="0 270 300;90 270 300;90 270 300; 0 270 300; 0 270 300;" />
</path>
</svg>
</g><g id="layer7"><svg width="512" height="512" viewBox="0 0 512 512" fill="none" xmlns="http://www.w3.org/2000/svg">
<circle cx="10" cy="10" r="10" transform="matrix(1 0 0 -1 212 214)" fill="#121212"/>
<circle cx="10" cy="10" r="10" transform="matrix(1 0 0 -1 280 214)" fill="#121212"/>
<g>
<animateTransform attributeName="transform" type="translate" values="0 0; 0 0; 0 -16;0 0;0 -16; 0 0;0 0" keyTimes="0;0;0.04;0.08;0.12;0.16;1" dur="4s" repeatCount="indefinite"/>
<path d="M206 178H238" stroke="#121212" stroke-width="6"/>
<path d="M274 178H306" stroke="#121212" stroke-width="6"/>
</g>
</svg>
</g><g id="layer8"><svg width="512" height="512" viewBox="0 0 512 512" fill="none" xmlns="http://www.w3.org/2000/svg">
<path d="M182 175H246V195L234 231H182V175Z" fill="#121212"/>
<path d="M182 175H246V195L234 231H182V175ZM182 175H166" stroke="#FFB74A" stroke-width="6"/>
<path d="M247 175H266" stroke="#FFB74A" stroke-width="6"/>
<path d="M247 193H266" stroke="#FFB74A" stroke-width="6"/>
<path d="M266 175H330V231H278L266 195.5V175Z" fill="#121212"/>
<path d="M330 175H266V195.5L278 231H330V175ZM330 175H346" stroke="#FFB74A" stroke-width="6"/>
<mask id="mask0_143_2" style="mask-type:alpha" maskUnits="userSpaceOnUse" x="185" y="178" width="58" height="50">
<path d="M185 178H243V195L232 228H223.188H185V178Z" fill="#121212"/>
</mask>
<g mask="url(#mask0_143_2)">
<path d="M195.545 178H206L193.455 228H183L195.545 178Z" fill="#D9D9D9">
<animateTransform attributeName="transform" type="translate" dur="4s" repeatCount="indefinite" keyTimes="0;0.8;1" values="-32 0;-32 0;48 0" />
</path>
</g>
<mask id="mask1_143_2" style="mask-type:alpha" maskUnits="userSpaceOnUse" x="269" y="178" width="58" height="50">
<path d="M327 178H269V195L280 228H288.812H327V178Z" fill="#121212"/>
</mask>
<g mask="url(#mask1_143_2)">
<path d="M287.545 178H298L285.455 228H275L287.545 178Z" fill="#D9D9D9">
<animateTransform attributeName="transform" type="translate" dur="4s" repeatCount="indefinite" keyTimes="0;0.8;1" values="-32 0;-32 0;48 0" />
</path>
</g>
</svg>
</g></svg>