<svg xmlns="http://www.w3.org/2000/svg" viewBox="0 0 500 500"><g id="layer1"><svg width="512" height="512" viewBox="0 0 512 512" fill="none" xmlns="http://www.w3.org/2000/svg">
<rect width="512" height="512" fill="#186450"/>
<path d="M134 178H167V242H146L134 178Z" fill="#E24713"/>
<path d="M378 178H345V242H366L378 178Z" fill="#E24713"/>
<rect x="207" y="346" width="98" height="54" fill="#E24713"/>
<path d="M64 400H448L480 512H32L64 400Z" fill="#F15824"/>
<rect x="166" y="106" width="180" height="240" fill="#F15824"/>
</svg>
</g><g id="layer2"><svg width="512" height="512" viewBox="0 0 512 512" fill="none" xmlns="http://www.w3.org/2000/svg">
<path d="M134 178H166V242H146L134 178Z" fill="#CACACA"/>
<path d="M378 178H346V242H366L378 178Z" fill="#CACACA"/>
<rect x="207" y="346" width="98" height="54" fill="#CACACA"/>
<path d="M64 400H448L480 512H32L64 400Z" fill="#E3E3E3"/>
<rect x="136" y="456" width="240" height="56" fill="white"/>
<rect x="166" y="106" width="180" height="240" fill="#E3E3E3"/>
<path d="M272 236H240L232 250L256 262L280 250L272 236Z" fill="#121212" stroke="#121212" stroke-width="6"/>
<rect x="79" y="455" width="16" height="16" rx="8" fill="#1D1D1D"/>
<rect x="100" y="484" width="16" height="16" rx="8" fill="#1D1D1D"/>
<rect x="139" y="424" width="16" height="16" rx="8" fill="#1D1D1D"/>
<rect x="215" y="351" width="16" height="16" rx="8" fill="#1D1D1D"/>
<rect x="326" y="153" width="16" height="16" rx="8" fill="#1D1D1D"/>
<rect x="174" y="153" width="16" height="16" rx="8" fill="#1D1D1D"/>
<rect x="277" y="113" width="16" height="16" rx="8" fill="#1D1D1D"/>
<rect x="310" y="413" width="16" height="16" rx="8" fill="#1D1D1D"/>
<rect x="410" y="455" width="16" height="16" rx="8" fill="#1D1D1D"/>
<rect x="448" y="484" width="16" height="16" rx="8" fill="#1D1D1D"/>
<rect x="79" y="409" width="24" height="24" rx="12" fill="#1D1D1D"/>
<rect x="414" y="412" width="24" height="24" rx="12" fill="#1D1D1D"/>
<rect x="197" y="415" width="24" height="24" rx="12" fill="#1D1D1D"/>
<rect x="232" y="369" width="24" height="24" rx="12" fill="#1D1D1D"/>
<rect x="174" y="115" width="24" height="24" rx="12" fill="#1D1D1D"/>
<rect x="285" y="378" width="12" height="12" rx="6" fill="#1D1D1D"/>
<rect x="326" y="115" width="12" height="12" rx="6" fill="#1D1D1D"/>
<rect x="231" y="115" width="12" height="12" rx="6" fill="#1D1D1D"/>
<rect x="141" y="185" width="12" height="12" rx="6" fill="#1D1D1D"/>
<rect x="154" y="198" width="12" height="12" rx="6" fill="#1D1D1D"/>
<rect x="356" y="185" width="12" height="12" rx="6" fill="#1D1D1D"/>
<rect x="256" y="431" width="12" height="12" rx="6" fill="#1D1D1D"/>
<rect x="390" y="488" width="12" height="12" rx="6" fill="#1D1D1D"/>
<rect x="364" y="431" width="12" height="12" rx="6" fill="#1D1D1D"/>
<rect x="52" y="492" width="12" height="12" rx="6" fill="#1D1D1D"/>
</svg>
</g><g id="layer3"><svg width="512" height="512" viewBox="0 0 512 512" fill="none" xmlns="http://www.w3.org/2000/svg">
<path d="M196.5 144V106H155L114 48L130 144H196.5Z" fill="#D22D27"/>
<path d="M316 144V106H357.5L398.5 48L382.5 144H316Z" fill="#D22D27"/>
</svg>
</g><g id="layer4"><svg width="512" height="512" viewBox="0 0 512 512" fill="none" xmlns="http://www.w3.org/2000/svg">
<path d="M96 400H160C160 400 160 472 256 472C352 472 352 400 352 400H416V512H256H96L96 400Z" fill="#D22D27"/>
<path d="M141 400C141 400 141 491 256 491C371 491 371 400 371 400" stroke="white" stroke-width="6"/>
<path d="M112 400L112 512M400 400V512" stroke="white" stroke-width="6"/>
</svg>
</g><g id="layer5"><svg width="512" height="512" viewBox="0 0 512 512" fill="none" xmlns="http://www.w3.org/2000/svg">
<rect x="236" y="322" width="40" height="24" fill="#121212"/>
<path d="M166 286H207V346H166V286Z" fill="#121212"/>
<path d="M346 286H305V346H346V286Z" fill="#121212"/>
</svg>
</g><g id="layer6"><svg width="512" height="512" viewBox="0 0 512 512" fill="none" xmlns="http://www.w3.org/2000/svg">
<rect x="238" y="298" width="36" height="4" rx="2" fill="white">
  <animate attributeName="y" dur="4s" repeatCount="indefinite" keyTimes="0;0.05;0.1;0.75;0.8;1" values="298;298;282;282;298;298" />
  <animate attributeName="height" dur="4s" repeatCount="indefinite" keyTimes="0;0.05;0.1;0.75;0.8;1" values="4;4;36;36;4;4" />
  <animate attributeName="rx" dur="4s" repeatCount="indefinite" keyTimes="0;0.05;0.1;0.75;0.8;1" values="2;2;18;18;2;2" />
</rect>
</svg>
</g><g id="layer7"><svg width="512" height="512" viewBox="0 0 512 512" fill="none" xmlns="http://www.w3.org/2000/svg">
    <circle cx="222" cy="194" r="10" fill="#121212">
       
        <animate attributeName="r" dur="4s" repeatCount="indefinite" keyTimes="0;0.05;0.1;0.75;0.8;1" values="10;10;15;15;10;10" />
    </circle>
    <circle cx="290" cy="194" r="10" fill="#121212">
       
        <animate attributeName="r" dur="4s" repeatCount="indefinite" keyTimes="0;0.05;0.1;0.75;0.8;1" values="10;10;15;15;10;10" />
    </circle>
  
    <g transform="translate(0,0)">
        <path d="M206 162H238" stroke="#121212" stroke-width="6">
            <animateTransform attributeName="transform" type="translate" begin="0s" dur="4s" repeatCount="indefinite" keyTimes="0;0.05;0.1;0.75;0.8;1" values="0 0;0 0;-2 -20;-2 -20;0 0;0 0" />
            <animateTransform attributeName="transform" type="rotate" begin="0s" dur="4s" repeatCount="indefinite" keyTimes="0;0.05;0.1;0.75;0.8;1" values="0 222 162;0 222 162;-30 222 162;-30 222 162;0 222 162;0 222 162" additive="sum" />
        </path>
    </g>
    <g transform="translate(0,0)">
        <path d="M274 162H306" stroke="#121212" stroke-width="6">
            <animateTransform attributeName="transform" type="translate" begin="0s" dur="4s" repeatCount="indefinite" keyTimes="0;0.05;0.1;0.75;0.8;1" values="0 0;0 0;2 -20;2 -20;0 0;0 0" />
            <animateTransform attributeName="transform" type="rotate" begin="0s" dur="4s" repeatCount="indefinite" keyTimes="0;0.05;0.1;0.75;0.8;1" values="0 290 162;0 290 162;30 290 162;30 290 162;0 290 162;0 290 162" additive="sum" />
        </path>
    </g>
</svg>
</g><g id="layer8"><svg width="512" height="512" viewBox="0 0 512 512" fill="none" xmlns="http://www.w3.org/2000/svg">
<rect x="166" y="190" width="84" height="12" fill="#121212"/>
<rect x="262" y="190" width="84" height="12" fill="#121212"/>
<rect x="274" y="202" width="60" height="12" fill="#121212"/>
<rect x="286" y="214" width="36" height="12" fill="#121212"/>
<rect x="178" y="202" width="60" height="12" fill="#121212"/>
<rect x="190" y="214" width="36" height="12" fill="#121212"/>
<rect x="166" y="178" width="180" height="12" fill="#121212"/>
<mask id="mask0_146_35" style="mask-type:alpha" maskUnits="userSpaceOnUse" x="166" y="190" width="84" height="36">
<rect x="166" y="190" width="84" height="12" fill="#121212"/>
<rect x="178" y="202" width="60" height="12" fill="#121212"/>
<rect x="190" y="214" width="36" height="12" fill="#121212"/>
</mask>
<g mask="url(#mask0_146_35)">
<g>
<animateTransform attributeName="transform" type="translate" dur="4s" repeatCount="indefinite" keyTimes="0;0.8;1" values="-32 0;-32 0;68 0" />
<rect x="178" y="190" width="12" height="12" fill="white"/>
<rect x="190" y="202" width="12" height="12" fill="white"/>
<rect x="202" y="214" width="12" height="12" fill="white"/>
</g>
</g>
<mask id="mask1_146_35" style="mask-type:alpha" maskUnits="userSpaceOnUse" x="262" y="190" width="84" height="36">
<rect x="262" y="190" width="84" height="12" fill="#121212"/>
<rect x="274" y="202" width="60" height="12" fill="#121212"/>
<rect x="286" y="214" width="36" height="12" fill="#121212"/>
</mask>
<g mask="url(#mask1_146_35)">
<g>
<animateTransform attributeName="transform" type="translate" dur="4s" repeatCount="indefinite" keyTimes="0;0.8;1" values="-32 0;-32 0;68 0" />
<rect x="274" y="190" width="12" height="12" fill="white"/>
<rect x="286" y="202" width="12" height="12" fill="white"/>
<rect x="298" y="214" width="12" height="12" fill="white"/>
</g>
</g>
</svg>
</g></svg>