<svg xmlns="http://www.w3.org/2000/svg" viewBox="0 0 500 500"><g id="layer1"><svg width="512" height="512" viewBox="0 0 512 512" fill="none" xmlns="http://www.w3.org/2000/svg">
<rect width="512" height="512" fill="#A7FF00"/>
<path d="M134 178H167V242H146L134 178Z" fill="#E24713"/>
<path d="M378 178H345V242H366L378 178Z" fill="#E24713"/>
<rect x="207" y="346" width="98" height="54" fill="#E24713"/>
<path d="M64 400H448L480 512H32L64 400Z" fill="#F15824"/>
<rect x="166" y="106" width="180" height="240" fill="#F15824"/>
</svg>
</g><g id="layer2"><svg width="512" height="512" viewBox="0 0 512 512" fill="none" xmlns="http://www.w3.org/2000/svg">
<path d="M134 178H166V242H146L134 178Z" fill="#E24713"/>
<path d="M378 178H346V242H366L378 178Z" fill="#E24713"/>
<rect x="207" y="346" width="98" height="54" fill="#E24713"/>
<path d="M64 400H448L480 512H32L64 400Z" fill="#F15824"/>
<rect x="166" y="106" width="180" height="240" fill="#F15824"/>
<path d="M256 218L266 258H246" stroke="#121212" stroke-width="6"/>
</svg>
</g><g id="layer3"><svg width="512" height="512" viewBox="0 0 512 512" fill="none" xmlns="http://www.w3.org/2000/svg">
<path d="M196.5 144V106H155L114 48L130 144H196.5Z" fill="#D22D27"/>
<path d="M316 144V106H357.5L398.5 48L382.5 144H316Z" fill="#D22D27"/>
</svg>
</g><g id="layer4"><svg></svg></g><g id="layer5"><svg width="512" height="512" viewBox="0 0 512 512" fill="none" xmlns="http://www.w3.org/2000/svg">
<rect x="166" y="242" width="12" height="104" fill="#121212"/>
<rect x="334" y="242" width="12" height="104" fill="#121212"/>
<path d="M178 334H217L256 322L295 334H334V346H178V334Z" fill="#121212"/>
</svg>
</g><g id="layer6"><svg width="512" height="512" viewBox="0 0 512 512" fill="none" xmlns="http://www.w3.org/2000/svg">
<path d="M296 282H216C216 282 216 322 256.028 322C296.057 322 296 282 296 282Z" fill="white"/>
</svg>
</g><g id="layer7"><svg width="512" height="512" viewBox="0 0 512 512" fill="none" xmlns="http://www.w3.org/2000/svg">
  <path d="M206 162H238" stroke="#121212" stroke-width="6"/>
  <path d="M274 162H306" stroke="#121212" stroke-width="6"/>
  <g transform="translate(222,206.429)">
    <path d="M-10 -8.572L-3.571 -11.429L0 -8.513L3.571 -11.429L10 -8.572V-6.183V0L0 8.571L-10 0V-8.572Z" fill="#BA120C">
      <animateTransform attributeName="transform" type="scale" additive="sum" values="0.9 0.9; 1.25 1.25; 0.9 0.9" begin="0s;2s" dur="1s" repeatCount="indefinite" />
    </path>
  </g>
  <g transform="translate(290,205.429)">
    <path d="M-10 -8.572L-3.571 -11.429L0 -8.513L3.571 -11.429L10 -8.572V-6.183V0L0 8.571L-10 0V-8.572Z" fill="#BA120C">
      <animateTransform attributeName="transform" type="scale" additive="sum" values="0.9 0.9; 1.3 1.3; 0.9 0.9" begin="0s;2s" dur="1s" repeatCount="indefinite" />
    </path>
  </g>
</svg>
</g><g id="layer8"><svg width="512" height="512" viewBox="0 0 512 512" fill="none" xmlns="http://www.w3.org/2000/svg">
<path d="M190 175H246V231H190V175Z" fill="#FF00B1" fill-opacity="0.6"/>
<path d="M190 175H246V231H190V175ZM190 175H166" stroke="#121212" stroke-width="6"/>
<path d="M247 184H266" stroke="#121212" stroke-width="6"/>
<path d="M266 175H322V231H266V175Z" fill="#FF00B1" fill-opacity="0.6"/>
<path d="M322 175H266V231H322V175ZM322 175H346" stroke="#121212" stroke-width="6"/>
<mask id="mask0_139_2" style="mask-type:alpha" maskUnits="userSpaceOnUse" x="269" y="178" width="50" height="50">
<path d="M269 178H319V228H309.625H269V178Z" fill="#121212"/>
</mask>
<g mask="url(#mask0_139_2)">
<path d="M279.545 178H290L277.455 228H267L279.545 178Z" fill="#FFF">
<animateTransform attributeName="transform" type="translate" dur="4s" repeatCount="indefinite" keyTimes="0;0.8;1" values="-32 0;-32 0;48 0" />
</path>
</g>
<mask id="mask1_139_2" style="mask-type:alpha" maskUnits="userSpaceOnUse" x="193" y="178" width="50" height="50">
<path d="M193 178H243V228H233.625H193V178Z" fill="#121212"/>
</mask>
<g mask="url(#mask1_139_2)">
<path d="M203.545 178H214L201.455 228H191L203.545 178Z" fill="#FFF">
<animateTransform attributeName="transform" type="translate" dur="4s" repeatCount="indefinite" keyTimes="0;0.8;1" values="-32 0;-32 0;48 0" />
</path>
</g>
</svg>
</g></svg>