<svg xmlns="http://www.w3.org/2000/svg" viewBox="0 0 500 500"><g id="layer1"><svg width="512" height="512" viewBox="0 0 512 512" fill="none" xmlns="http://www.w3.org/2000/svg">
<rect width="512" height="512" fill="#0047FF"/>
<path d="M134 178H167V242H146L134 178Z" fill="#E24713"/>
<path d="M378 178H345V242H366L378 178Z" fill="#E24713"/>
<rect x="207" y="346" width="98" height="54" fill="#E24713"/>
<path d="M64 400H448L480 512H32L64 400Z" fill="#F15824"/>
<rect x="166" y="106" width="180" height="240" fill="#F15824"/>
</svg>
</g><g id="layer2"><svg width="512" height="512" viewBox="0 0 512 512" fill="none" xmlns="http://www.w3.org/2000/svg">
<path d="M134 178H166V242H146L134 178Z" fill="#E24713"/>
<path d="M378 178H346V242H366L378 178Z" fill="#E24713"/>
<rect x="207" y="346" width="98" height="54" fill="#E24713"/>
<path d="M64 400H448L480 512H32L64 400Z" fill="#F15824"/>
<rect x="166" y="106" width="180" height="240" fill="#F15824"/>
<path d="M256 218L266 258H246" stroke="#121212" stroke-width="6"/>
</svg>
</g><g id="layer3"><svg width="512" height="512" viewBox="0 0 512 512" fill="none" xmlns="http://www.w3.org/2000/svg">
<path d="M166 106L219.5 73V106L288.5 73V106L346 73V106V154L166 154V106Z" fill="#121212"/>
<rect x="166" y="154" width="12" height="40" fill="#121212"/>
<rect x="334" y="154" width="12" height="40" fill="#121212"/>
</svg>
</g><g id="layer4"><svg width="512" height="512" viewBox="0 0 512 512" fill="none" xmlns="http://www.w3.org/2000/svg">
<path d="M207 512H305V439H257H207V512Z" fill="white"/>
<path d="M207 439V400L257 439H207Z" fill="#D8D8D8"/>
<path d="M305 439V400L257 439H305Z" fill="#D8D8D8"/>
<path d="M241 439H273L265 463H249L241 439Z" fill="#121212"/>
<path d="M241 512H273L265 463H249L241 512Z" fill="#121212"/>
<path d="M64 400H207V512H32L64 400Z" fill="#001D55"/>
<path d="M448 400H305V512H480L448 400Z" fill="#001D55"/>
<path d="M207 512H305V463L257 499L207 463V512Z" fill="#FFB74A"/>
<rect x="183" y="368" width="24" height="32" fill="#001D55"/>
<rect x="305" y="368" width="24" height="32" fill="#001D55"/>
<path d="M32 400H127V416.5C127 442.734 105.734 464 79.5 464C53.2665 464 32 442.734 32 416.5V400Z" fill="#FFB74A"/>
<rect x="74" y="494" width="24" height="12" transform="rotate(-90 74 494)" fill="#FFB74A"/>
<rect x="427" y="494" width="24" height="12" transform="rotate(-90 427 494)" fill="#FFB74A"/>
<path d="M32 400V416.5C32 442.734 53.2665 464 79.5 464V464C105.734 464 127 442.734 127 416.5V400" stroke="white" stroke-width="12"/>
<path d="M385 400H480V416.5C480 442.734 458.734 464 432.5 464C406.266 464 385 442.734 385 416.5V400Z" fill="#FFB74A"/>
<path d="M385 400V416.5C385 442.734 406.266 464 432.5 464V464C458.734 464 480 442.734 480 416.5V400" stroke="white" stroke-width="12"/>
<rect x="155" y="450" width="28" height="12" fill="white"/>
<rect x="329" y="450" width="28" height="12" fill="white"/>
<rect x="155" y="484" width="28" height="12" fill="white"/>
<rect x="329" y="484" width="28" height="12" fill="white"/>
</svg>
</g><g id="layer5"><svg width="512" height="512" viewBox="0 0 512 512" fill="none" xmlns="http://www.w3.org/2000/svg">
<rect x="166" y="242" width="12" height="104" fill="#121212"/>
<rect x="334" y="242" width="12" height="104" fill="#121212"/>
<path d="M178 334H217L256 322L295 334H334V346H178V334Z" fill="#121212"/>
</svg>
</g><g id="layer6"><svg width="512" height="512" viewBox="0 0 512 512" fill="none" xmlns="http://www.w3.org/2000/svg">
<path d="M231.114 302H280.403L292 290" stroke="#121212" stroke-width="6"/>
</svg>
</g><g id="layer7"><svg width="512" height="512" viewBox="0 0 512 512" fill="none" xmlns="http://www.w3.org/2000/svg">
<path d="M206 162H238" stroke="#121212" stroke-width="6"/>
<path d="M206 202C206 202 212 194 222 194C232 194 238 202 238 202" stroke="#121212" stroke-width="6"/>
<path d="M274 202C274 202 280 194 290 194C300 194 306 202 306 202" stroke="#121212" stroke-width="6"/>
<path d="M274 162H306" stroke="#121212" stroke-width="6"/>
</svg>
</g><g id="layer8"><svg width="512" height="512" viewBox="0 0 512 512" fill="none" xmlns="http://www.w3.org/2000/svg">
<path d="M190 175H246V231H190V175Z" fill="#FF0000" fill-opacity="0.8" />
<path d="M190 175H246V231H190V175ZM190 175H166" stroke="#121212" stroke-width="6"/>
<path d="M247 184H266" stroke="#121212" stroke-width="6"/>
<path d="M266 175H322V231H266V175Z" fill="#0075FF" fill-opacity="0.8"/>
<path d="M322 175H266V231H322V175ZM322 175H346" stroke="#121212" stroke-width="6"/>
<mask id="mask0_139_2" style="mask-type:alpha" maskUnits="userSpaceOnUse" x="269" y="178" width="50" height="50">
<path d="M269 178H319V228H309.625H269V178Z" fill="#121212"/>
</mask>
<g mask="url(#mask0_139_2)">
<path d="M279.545 178H290L277.455 228H267L279.545 178Z" fill="#FFF">
<animateTransform attributeName="transform" type="translate" dur="4s" repeatCount="indefinite" keyTimes="0;0.8;1" values="-32 0;-32 0;48 0" />
</path>
</g>
<mask id="mask1_139_2" style="mask-type:alpha" maskUnits="userSpaceOnUse" x="193" y="178" width="50" height="50">
<path d="M193 178H243V228H233.625H193V178Z" fill="#121212"/>
</mask>
<g mask="url(#mask1_139_2)">
<path d="M203.545 178H214L201.455 228H191L203.545 178Z" fill="#FFF">
<animateTransform attributeName="transform" type="translate" dur="4s" repeatCount="indefinite" keyTimes="0;0.8;1" values="-32 0;-32 0;48 0" />
</path>
</g>
</svg>
</g></svg>