<svg xmlns="http://www.w3.org/2000/svg" width="512" height="512" fill="none"><rect width="512" height="512" fill="#7B0000 "/><g skin='4'><path fill="#E24713" d="M134 178h32v64h-20l-12-64ZM378 178h-32v64h20l12-64ZM207 346h98v54h-98z"/><path fill="#F15824" d="M64 400h384l32 112H32l32-112ZM166 106h180v240H166z"/><path fill="#FF845A" d="m236 143 7.629 24h4.228l-7.565-24H236Zm36.078 0-8.01 24h4.292l7.947-24h-4.229Zm-22.425 12.652h6.2l-6.74 8.487V167h13.478v-4.101h-6.573l6.796-8.487v-2.861h-13.161v4.101Z"/><path stroke="#FF845A" stroke-width="6" d="M346 126h-21v43h-23v177M244 109h24v15l-12 13-12-13v-15ZM166 126h21v43h23v177"/><path fill="#FF845A" d="M299 134h6v6h-6zM293 140h6v6h-6zM305 140h6v6h-6zM299 146h6v6h-6zM321 276h6v6h-6zM315 282h6v6h-6zM327 282h6v6h-6zM321 288h6v6h-6zM185 276h6v6h-6zM179 282h6v6h-6zM191 282h6v6h-6zM185 288h6v6h-6zM321 242h6v6h-6zM315 248h6v6h-6zM327 248h6v6h-6zM321 254h6v6h-6zM185 242h6v6h-6zM179 248h6v6h-6zM191 248h6v6h-6zM185 254h6v6h-6zM253 416h6v6h-6zM247 422h6v6h-6zM259 422h6v6h-6zM253 428h6v6h-6zM66 478h6v6h-6zM60 484h6v6h-6zM72 484h6v6h-6zM66 490h6v6h-6zM199 416h6v6h-6zM193 422h6v6h-6zM205 422h6v6h-6zM199 428h6v6h-6zM199 447h6v6h-6zM193 453h6v6h-6zM205 453h6v6h-6zM199 459h6v6h-6zM308 416h6v6h-6zM302 422h6v6h-6zM314 422h6v6h-6zM308 428h6v6h-6zM308 447h6v6h-6zM302 453h6v6h-6zM314 453h6v6h-6zM308 459h6v6h-6zM440 478h6v6h-6zM434 484h6v6h-6zM446 484h6v6h-6zM440 490h6v6h-6zM308 478h6v6h-6zM302 484h6v6h-6zM314 484h106v6.057H314zM308 490h6v6h-6zM199 478h6v6h-6zM92 484h107v6H92zM205 484h6v6h-6zM199 490h6v6h-6zM321 310h6v6h-6zM315 316h6v6h-6zM327 316h6v6h-6zM321 322h6v24h-6zM185 310h6v6h-6zM179 316h6v6h-6zM191 316h6v6h-6zM185 322h6v24h-6zM207 134h6v6h-6zM201 140h6v6h-6zM213 140h6v6h-6zM207 146h6v6h-6z"/><path stroke="#FF845A" stroke-width="6" d="M235 373v-10h15v-17m-15 27v11h12v-11h-12ZM277 374v10h-15v16m15-26v-11h-12v11h12ZM384 428l10-4 6 5 6-5 10 4v10l-16 14-16-14v-10ZM250 452v44M258 452v4M258 492v4M270 462v9M270 477v9M243 459h24M250 474h17M243 489h24"/><path fill="#FF845A" d="M124 431h6v6h-6zM118 437h6v6h-6zM104 437h6v6h-6zM130 437h6v6h-6zM124 443h6v6h-6z"/><path stroke="#FF845A" stroke-width="6" d="M96 424h48v32H96z"/></g><g hair='20'><ellipse cx="256" cy="58" stroke="#E4A400" stroke-width="12" rx="90" ry="24"/></g><g dress='53'><path fill="#fff" d="M207 481h98v-73s-15.5 24-48 24-50-24-50-24v73Z"/><path fill="#D33600" d="M64 400h143l50 67 48-67h143l32 112H32l32-112Z"/><path fill="#FF9672" d="m338 456 7.629 24h4.228l-7.565-24H338Zm36.078 0-8.01 24h4.292l7.947-24h-4.229Zm-22.425 12.652h6.2l-6.74 8.487V480h13.478v-4.101h-6.573l6.796-8.487v-2.861h-13.161v4.101ZM207 400l50 67-122-67h72ZM305 400l-48 67 122-67h-74Z"/><path stroke="#FF9672" stroke-width="6" d="M257 465v47"/><path fill="#121212" d="M171.925 456.262c-1.131-.601-2-1.335-2.608-2.202-.608-.867-.939-1.795-.993-2.784-.054-.989.178-1.971.696-2.946l2.693-5.064c.639-1.201 1.409-2.069 2.309-2.605a5.214 5.214 0 0 1 2.971-.731c1.072.063 2.159.387 3.261.973 1.102.586 1.958 1.277 2.568 2.072.624.803.971 1.667 1.041 2.592.084.933-.129 1.879-.64 2.84l-2.755-1.465a2.476 2.476 0 0 0 .208-1.873c-.177-.656-.745-1.239-1.706-1.75-.947-.503-1.813-.647-2.598-.43-.772.224-1.39.774-1.856 1.65l-.811 1.525.381.203c.39-.155.9-.228 1.53-.219.63.008 1.418.264 2.364.768.862.458 1.556 1.062 2.081 1.813a5.03 5.03 0 0 1 .924 2.556c.084.933-.137 1.894-.663 2.883l-.135.254c-.519.975-1.21 1.713-2.074 2.213-.857.487-1.822.717-2.895.69-1.065-.041-2.163-.362-3.293-.963Zm1.326-2.393c.89.473 1.714.612 2.47.416.771-.188 1.363-.671 1.776-1.448l.09-.169c.278-.523.398-1.039.361-1.548-.023-.501-.198-.975-.523-1.419-.311-.438-.763-.814-1.357-1.13-.579-.308-1.144-.472-1.694-.493a2.736 2.736 0 0 0-1.491.349c-.429.262-.782.653-1.06 1.176l-.09.17c-.413.777-.49 1.534-.229 2.27.275.744.857 1.353 1.747 1.826Zm11.519 9.223c-1.102-.586-1.965-1.28-2.589-2.083-.61-.796-.957-1.66-1.041-2.592-.07-.925.15-1.868.661-2.829l2.755 1.465a2.478 2.478 0 0 0-.208 1.874c.191.663.76 1.246 1.706 1.749.961.511 1.827.655 2.598.431.779-.239 1.398-.789 1.856-1.65l.811-1.526-.381-.203c-.39.155-.9.228-1.53.22-.616-.002-1.404-.258-2.364-.768a5.926 5.926 0 0 1-2.081-1.813 5.087 5.087 0 0 1-.935-2.536c-.076-.947.148-1.915.674-2.903l.135-.255c.526-.989 1.217-1.726 2.074-2.213.857-.487 1.818-.71 2.884-.669 1.073.027 2.174.341 3.304.942 1.131.601 2 1.335 2.608 2.202.608.867.939 1.795.993 2.784.054.989-.178 1.971-.696 2.946l-2.693 5.064c-.639 1.201-1.419 2.073-2.342 2.615a5.085 5.085 0 0 1-2.96.71c-1.057-.055-2.137-.376-3.239-.962Zm4.186-7.668c.593.315 1.158.48 1.694.493.551.021 1.041-.099 1.47-.36.443-.254.803-.642 1.081-1.165l.09-.169c.421-.792.49-1.552.208-2.282-.261-.737-.836-1.342-1.726-1.815-.89-.473-1.721-.616-2.491-.427-.749.181-1.334.668-1.755 1.459l-.09.169c-.278.523-.405 1.035-.382 1.537.037.509.219.986.544 1.431.325.445.777.821 1.357 1.129Zm9.167 14.768c-1.13-.6-1.999-1.334-2.607-2.201-.608-.867-.939-1.795-.993-2.785-.054-.989.178-1.971.696-2.945l2.693-5.065c.639-1.201 1.408-2.069 2.309-2.605a5.214 5.214 0 0 1 2.971-.731c1.072.063 2.159.387 3.261.973 1.102.586 1.958 1.277 2.568 2.072.624.803.971 1.667 1.041 2.592.084.933-.13 1.88-.64 2.84l-2.755-1.465a2.48 2.48 0 0 0 .208-1.873c-.177-.656-.746-1.239-1.706-1.75-.947-.503-1.813-.647-2.599-.43-.771.224-1.39.774-1.855 1.65l-.812 1.525.382.203c.39-.155.9-.228 1.53-.219.63.009 1.418.264 2.364.768a5.83 5.83 0 0 1 2.081 1.813c.539.758.847 1.61.923 2.557.084.932-.137 1.893-.662 2.882l-.136.254c-.518.975-1.209 1.713-2.074 2.214-.856.486-1.821.716-2.894.689-1.066-.041-2.164-.362-3.294-.963Zm1.327-2.393c.89.473 1.713.612 2.47.416.77-.188 1.362-.67 1.775-1.447l.091-.17c.277-.523.398-1.039.36-1.548-.023-.501-.197-.975-.522-1.419-.311-.438-.764-.814-1.357-1.129-.579-.308-1.144-.473-1.695-.494a2.734 2.734 0 0 0-1.49.349c-.429.262-.782.654-1.06 1.176l-.09.17c-.414.777-.49 1.534-.229 2.27.275.744.857 1.353 1.747 1.826Zm11.518 9.223c-1.102-.586-1.965-1.28-2.589-2.083-.61-.795-.957-1.66-1.041-2.592-.069-.925.151-1.868.662-2.829l2.755 1.465a2.478 2.478 0 0 0-.208 1.874c.191.663.759 1.246 1.706 1.75.96.51 1.827.654 2.598.43.779-.238 1.398-.788 1.856-1.65l.811-1.526-.381-.203c-.391.155-.901.228-1.53.22-.616-.001-1.404-.257-2.365-.768a5.931 5.931 0 0 1-2.08-1.813 5.087 5.087 0 0 1-.935-2.536c-.077-.947.148-1.914.674-2.903l.135-.255c.526-.989 1.217-1.726 2.074-2.213.857-.487 1.818-.71 2.883-.669 1.073.027 2.175.341 3.305.942 1.13.601 1.999 1.335 2.608 2.202.608.867.939 1.795.993 2.784.054.989-.178 1.971-.697 2.946l-2.693 5.064c-.638 1.201-1.419 2.073-2.341 2.615a5.087 5.087 0 0 1-2.96.71c-1.058-.055-2.138-.376-3.24-.962Zm4.186-7.668c.594.315 1.159.48 1.695.493.551.021 1.041-.099 1.469-.36.443-.254.804-.642 1.082-1.165l.09-.169c.42-.791.49-1.552.207-2.282-.26-.737-.836-1.342-1.726-1.815-.89-.473-1.72-.615-2.491-.427-.749.181-1.333.668-1.754 1.459l-.09.17c-.278.522-.405 1.034-.382 1.536.037.509.218.986.544 1.431.325.445.777.821 1.356 1.129Z"/></g><g beard='6'><rect x="207" y="346" width="98" height="54" fill="#E24713"/><path fill-rule="evenodd" clip-rule="evenodd" d="M346 266H166V400H256.5H346V266ZM297 281H215V323H297V281Z" fill="#121212"/></g><g face='10'><path d="M246 289.391C246 289.391 258.823 284.011 262 289.391C265.153 294.732 254.5 303.391 254.5 303.391C254.5 303.391 267.632 299.309 270.5 304.891C273.719 311.156 258 317.891 258 317.891" stroke="#121212" stroke-width="6"/><path d="M206 162H238" stroke="#121212" stroke-width="6"/><path d="M206 202C206 202 212 194 222 194C232 194 238 202 238 202" stroke="#121212" stroke-width="6"/><path d="M274 202C274 202 280 194 290 194C300 194 306 202 306 202" stroke="#121212" stroke-width="6"/><path d="M274 162H306" stroke="#121212" stroke-width="6"/><path d="M256 218L266 258H246" stroke="#121212" stroke-width="6"/></g><g glass='14'><mask id="a" fill="#fff"><path d="m256 230-21 16h-69v-68h180v68h-69l-21-16Z"/></mask><path fill="#0047FF" d="M166 198h180v-6H166v6Zm0 15.5h180v-6H166v6Zm0 15.5h180v-6H166v6Zm90 1 3.636-4.773a6 6 0 0 0-7.272 0L256 230Zm-21 16v6h2.025l1.611-1.227L235 246Zm-69 0h-6v6h6v-6Zm180 0v6h6v-6h-6Zm-69 0-3.636 4.773 1.611 1.227H277v-6Zm-111-68v-6h-6v6h6Zm180 0h6v-6h-6v6Zm-93.636 47.227-21 16 7.272 9.546 21-16-7.272-9.546ZM235 240h-69v12h69v-12Zm111 0h-69v12h69v-12Zm-65.364 1.227-21-16-7.272 9.546 21 16 7.272-9.546ZM172 195v-17h-12v17h12Zm168-17v17h12v-17h-12Zm-168 32.5V195h-12v15.5h12ZM340 195v15.5h12V195h-12Zm-168 51v-20h-12v20h12Zm0-20v-15.5h-12V226h12Zm168-15.5V226h12v-15.5h-12Zm0 15.5v20h12v-20h-12Zm-174-42h180v-12H166v12Z" mask="url(#a)"/></g></svg>