<svg xmlns="http://www.w3.org/2000/svg" width="512" height="512" fill="none"><rect width="512" height="512" fill="#0047FF "/><g skin='12'><path fill="#80573E" d="M134 178h32v64h-20l-12-64ZM378 178h-32v64h20l12-64ZM207 346h98v54h-98z"/><path fill="#8B634A" d="M64 400h384l32 112H32l32-112Z"/><path fill="#AE7B5C" d="M136 456h240v56H136z"/><path fill="#8B634A" d="M166 106h180v240H166z"/><path fill="#AE7B5C" d="M207 242h98v104h-98zM182 178h148v64H182z"/></g><g hair='66'><path fill="#121212" d="M134 178h32v64h-20l-12-64ZM378 178h-32v64h20l12-64ZM166 106h180v56H166zM166 242h180v104H166z"/></g><g dress='65'><path fill="#77492D" d="M64 400h96s0 72 96 72 96-72 96-72h96l32 112H32l32-112Z"/><path fill="#8B634A" d="M207 346s-63.879 2.092-75 30.5c-5.99 15.3 3 23.501 3 23.501s-8.001 7-8 19c.001 12 8 19.5 8 19.5s-8 5-8 19 8 19 8 19-8 5.25-8 17c0 11.749 8 18.499 8 18.499h72V346ZM305 346s63.879 2.092 75 30.5c5.99 15.3-3 23.501-3 23.501s8.001 7 8 19c-.001 12-8 19.5-8 19.5s8 5 8 19-8 19-8 19 8 5.25 8 17c0 11.749-8 18.499-8 18.499h-72V346Z"/><path fill="#121212" d="M207 400h98v112h-98z"/><path fill="#2D2D2D" d="m236 456 7.629 24h4.228l-7.565-24H236Zm36.078 0-8.01 24h4.292l7.947-24h-4.229Zm-22.425 12.652h6.2l-6.74 8.487V480h13.478v-4.101h-6.573l6.796-8.487v-2.861h-13.161v4.101Z"/></g><g beard='1'><path d="M166 266L206 286V346H166V266Z" fill="#121212"/><path d="M346 266L306 286V346H346V266Z" fill="#121212"/><rect x="206" y="322" width="100" height="24" fill="#121212"/></g><g face='3'><path d="M290.865 289.25L212.081 275.358C212.081 275.358 205.135 314.75 244.555 321.701C283.975 328.652 290.865 289.25 290.865 289.25Z" fill="white"/><path d="M206 162H238" stroke="#121212" stroke-width="6"/><path d="M206 202C206 202 212 194 222 194C232 194 238 202 238 202" stroke="#121212" stroke-width="6"/><path d="M274 202C274 202 280 194 290 194C300 194 306 202 306 202" stroke="#121212" stroke-width="6"/><path d="M274 162H306" stroke="#121212" stroke-width="6"/><path d="M256 218L266 258H246" stroke="#121212" stroke-width="6"/></g><g glass='15'><path fill="#121212" d="m235 250 21-16 21 16h69v-72H166v72h69Z"/><circle cx="176" cy="190" r="4" fill="#0047FF"/><circle cx="176" cy="206" r="4" fill="#0047FF"/><circle cx="176" cy="222" r="4" fill="#0047FF"/><circle cx="176" cy="238" r="4" fill="#0047FF"/><circle cx="192" cy="190" r="4" fill="#79CBDC"/><circle cx="192" cy="206" r="4" fill="#79CBDC"/><circle cx="192" cy="222" r="4" fill="#79CBDC"/><circle cx="192" cy="238" r="4" fill="#79CBDC"/><circle cx="208" cy="190" r="4" fill="#79CBDC"/><circle cx="208" cy="206" r="4" fill="#0047FF"/><circle cx="208" cy="222" r="4" fill="#79CBDC"/><circle cx="208" cy="238" r="4" fill="#79CBDC"/><circle cx="224" cy="190" r="4" fill="#79CBDC"/><circle cx="224" cy="206" r="4" fill="#0047FF"/><circle cx="224" cy="222" r="4" fill="#79CBDC"/><circle cx="224" cy="238" r="4" fill="#79CBDC"/><circle cx="240" cy="190" r="4" fill="#0047FF"/><circle cx="240" cy="206" r="4" fill="#0047FF"/><circle cx="240" cy="222" r="4" fill="#0047FF"/><circle cx="240" cy="238" r="4" fill="#0047FF"/><circle cx="256" cy="190" r="4" fill="#0047FF"/><circle cx="256" cy="206" r="4" fill="#0047FF"/><circle cx="256" cy="222" r="4" fill="#0047FF"/><circle cx="272" cy="190" r="4" fill="#0047FF"/><circle cx="272" cy="206" r="4" fill="#0047FF"/><circle cx="272" cy="222" r="4" fill="#0047FF"/><circle cx="272" cy="238" r="4" fill="#0047FF"/><circle cx="288" cy="190" r="4" fill="#79CBDC"/><circle cx="288" cy="206" r="4" fill="#79CBDC"/><circle cx="288" cy="222" r="4" fill="#0047FF"/><circle cx="288" cy="238" r="4" fill="#79CBDC"/><circle cx="304" cy="190" r="4" fill="#79CBDC"/><circle cx="304" cy="206" r="4" fill="#79CBDC"/><circle cx="304" cy="222" r="4" fill="#0047FF"/><circle cx="304" cy="238" r="4" fill="#79CBDC"/><circle cx="320" cy="190" r="4" fill="#79CBDC"/><circle cx="320" cy="206" r="4" fill="#79CBDC"/><circle cx="320" cy="222" r="4" fill="#79CBDC"/><circle cx="320" cy="238" r="4" fill="#79CBDC"/><circle cx="336" cy="190" r="4" fill="#0047FF"/><circle cx="336" cy="206" r="4" fill="#0047FF"/><circle cx="336" cy="222" r="4" fill="#0047FF"/><circle cx="336" cy="238" r="4" fill="#0047FF"/></g></svg>