<svg xmlns="http://www.w3.org/2000/svg" width="512" height="512" fill="none"><rect width="512" height="512" fill="#572828 "/><g skin='8'><path fill="#B7009A" d="M134 178h32v64h-20l-12-64ZM378 178h-32v64h20l12-64Z"/><path fill="#D800B5" d="M64 400h384l32 112H32l32-112Z"/><path fill="#B7009A" d="M207 346h98v54h-98z"/><path fill="#D800B5" d="M166 106h180v240H166z"/><path fill="#fff" d="m256 174-12.161-28L256 118l12.161 28L256 174Z"/><circle cx="256" cy="146" r="7.92" fill="#007089" transform="rotate(-90 256 146)"/><path fill="#fff" d="m256 500-12.161-28L256 444l12.161 28L256 500Z"/><circle cx="256" cy="472" r="7.92" fill="#007089" transform="rotate(-90 256 472)"/><path fill="#fff" d="m284 484 28-12.161L340 484l-28 12.161L284 484Z"/><circle cx="312" cy="484" r="7.92" fill="#007089"/><path fill="#fff" d="m172 484 28-12.161L228 484l-28 12.161L172 484Z"/><circle cx="200" cy="484" r="7.92" fill="#007089"/><path fill="#fff" d="m92 484 28-12.161L148 484l-28 12.161L92 484Z"/><circle cx="120" cy="484" r="7.92" fill="#007089"/><path fill="#fff" d="m364 484 28-12.161L420 484l-28 12.161L364 484Z"/><circle cx="392" cy="484" r="7.92" fill="#007089"/><path fill="#fff" d="m197.799 411.799 11.2 28.398 28.398 11.2-11.2-28.398-28.398-11.2Z"/><circle cx="7.92" cy="7.92" r="7.92" fill="#007089" transform="scale(1 -1) rotate(-45 -417.786 -464.942)"/><path fill="#fff" d="m134.061 416.936 15.961 26.022 29.911 6.099-15.961-26.022-29.911-6.099Z"/><circle cx="7.92" cy="7.92" r="7.92" fill="#007089" transform="scale(1 -1) rotate(-35 -616.745 -448.945)"/><path fill="#fff" d="m72.06 420.936 15.962 26.022 29.911 6.099-15.961-26.022-29.911-6.099Z"/><circle cx="7.92" cy="7.92" r="7.92" fill="#007089" transform="scale(1 -1) rotate(-35 -654.089 -352.625)"/><path fill="#fff" d="m381.933 416.936-15.961 26.022-29.912 6.099 15.961-26.022 29.912-6.099Z"/><circle cx="358.997" cy="432.997" r="7.92" fill="#007089" transform="rotate(145 358.997 432.997)"/><path fill="#fff" d="m443.933 416.936-15.961 26.022-29.912 6.099 15.961-26.022 29.912-6.099Z"/><circle cx="420.997" cy="432.997" r="7.92" fill="#007089" transform="rotate(145 420.997 432.997)"/><path fill="#fff" d="m315.397 411.799-11.2 28.398-28.398 11.2 11.2-28.398 28.398-11.2Z"/><circle cx="295.599" cy="431.598" r="7.92" fill="#007089" transform="rotate(135 295.599 431.598)"/><path fill="#fff" d="m294.799 169.397 11.2-28.398 28.398-11.2-11.2 28.398-28.398 11.2Z"/><circle cx="314.597" cy="149.598" r="7.92" fill="#007089" transform="rotate(-45 314.597 149.598)"/><path fill="#fff" d="m177.799 129.799 11.2 28.398 28.398 11.2-11.2-28.398-28.398-11.2Z"/><circle cx="7.92" cy="7.92" r="7.92" fill="#007089" transform="scale(1 -1) rotate(-45 -87.382 -299.8)"/><path fill="#fff" d="m228 372 28-12.161L284 372l-28 12.161L228 372Z"/><circle cx="256" cy="372" r="7.92" fill="#007089"/></g><g hair='52'><circle cx="253" cy="82" r="37" fill="#121212"/><circle cx="229" cy="119" r="37" fill="#121212"/><circle cx="280" cy="119" r="37" fill="#121212"/><circle cx="189" cy="97" r="37" fill="#121212"/><circle cx="166" cy="141" r="37" fill="#121212"/><circle cx="346" cy="141" r="37" fill="#121212"/><circle cx="321" cy="97" r="37" fill="#121212"/></g><g dress='26'><g clip-path="url(#a)"><path fill="#121212" d="M64 400h96s0 72 96 72 96-72 96-72h96l32 112H32l32-112Z"/><path fill="#2D2D2D" d="M150.5 400H207v133.5h-22l-52-90h31L150.5 400ZM361.5 400H305v133.5h22l52-90h-31l13.5-43.5Z"/><path fill="#fff" d="M207 512h98V400h-98v112Z"/><path fill="#121212" d="m256 422-41-22v44l41-22ZM256 422l41-22v44l-41-22Z"/></g><defs><clipPath id="a"><path fill="#fff" d="M0 0h512v512H0z"/></clipPath></defs></g><g beard='1'><path d="M166 266L206 286V346H166V266Z" fill="#121212"/><path d="M346 266L306 286V346H346V266Z" fill="#121212"/><rect x="206" y="322" width="100" height="24" fill="#121212"/></g><g face='31'><rect width="20" height="20" x="212" y="194" fill="#121212" rx="10"><animate attributeName="rx" begin="1s" dur="2s" keyTimes="0;0.25;0.3;0.35;1" repeatCount="indefinite" values="10;10;1;10;10"/><animate attributeName="height" begin="1s" dur="2s" keyTimes="0;0.25;0.3;0.35;1" repeatCount="indefinite" values="20;20;2;20;20"/><animate attributeName="y" begin="1s" dur="2s" keyTimes="0;0.25;0.3;0.35;1" repeatCount="indefinite" values="194;194;203;194;194"/></rect><rect width="20" height="20" x="280" y="194" fill="#121212" rx="10"><animate attributeName="rx" begin="1s" dur="2s" keyTimes="0;0.25;0.3;0.35;1" repeatCount="indefinite" values="10;10;1;10;10"/><animate attributeName="height" begin="1s" dur="2s" keyTimes="0;0.25;0.3;0.35;1" repeatCount="indefinite" values="20;20;2;20;20"/><animate attributeName="y" begin="1s" dur="2s" keyTimes="0;0.25;0.3;0.35;1" repeatCount="indefinite" values="194;194;203;194;194"/></rect><path d="M208.144 160L235.856 176" stroke="#121212" stroke-width="6"/><path d="M276.144 176L303.856 160" stroke="#121212" stroke-width="6"/><path d="M230.711 302H280" stroke="#121212" stroke-width="6"/><path d="M256 218L266 258H246" stroke="#121212" stroke-width="6"/><path d="M277.61 301.679L354.933 356.968L364.554 340.304L277.61 301.679Z" fill="white" stroke="#121212" stroke-width="6"/><path d="M277.61 301.679L322.241 333.592L327.767 324.022L277.61 301.679Z" fill="#FFB74A" stroke="#121212" stroke-width="6"/></g><g glass='8'><path fill="#121212" d="M134 178h33v64h-33v-64ZM378 178h-33v64h33v-64Z"/><path fill="#2D2D2D" d="M166 162h180v90H166z"/><path fill="#121212" d="M182 178h148v74H182z"/></g></svg>