<svg xmlns="http://www.w3.org/2000/svg" width="512" height="512" fill="none"><rect width="512" height="512" fill="#FF9900 "/><g skin='7'><path fill="#2D2D2D" d="M134 178h32v64h-20l-12-64ZM378 178h-32v64h20l12-64ZM64 400h384l32 112H32l32-112Z"/><path fill="#E3E3E3" d="M136 456h240v56H136z"/><path fill="#2D2D2D" d="M207 346h98v54h-98z"/><path fill="#E3E3E3" d="M166 106h180v240H166z"/><path fill="#2D2D2D" d="M246 204c0 16.016-12.984 31.5-29 31.5s-35-15.484-35-31.5 23.484-29.5 39.5-29.5S246 187.984 246 204ZM266 204.5c0 16.016 12.984 31.5 29 31.5s35-15.484 35-31.5-23.484-29.5-39.5-29.5-24.5 13.484-24.5 29.5Z"/></g><g hair='45'><path fill="#121212" d="M244 62h24v80h-24z"/><path fill="#D22D27" d="M196.5 144v-38H155l-41-58 16 96h66.5ZM316 144v-38h41.5l41-58-16 96H316Z"/></g><g dress='74'><path fill="#F15824" d="M64 400h384l32 112H32l32-112Z"/><path fill="#fff" d="M64 400h112v112H32l32-112ZM448 400H336v112h144l-32-112Z"/><path fill="#ECECEC" d="M137 400h70v112h-41l-29-55.5 29-21.5-29-35ZM375 400h-70v112h41l29-55.5-29-21.5 29-35Z"/><path fill="#D22D27" d="m108 441 99-66.5V471l-34-30h-65ZM404 441l-99-66.5V471l34-30h65Z"/></g><g beard='9'><rect x="236" y="322" width="40" height="24" fill="#121212"/><rect x="166" y="242" width="12" height="104" fill="#121212"/><rect x="334" y="242" width="12" height="104" fill="#121212"/><path d="M166 286H207V346H166V286Z" fill="#121212"/><path d="M346 286H305V346H346V286Z" fill="#121212"/></g><g face='0'><path d="M290.865 289.25L212.081 275.358C212.081 275.358 205.135 314.75 244.555 321.701C283.975 328.652 290.865 289.25 290.865 289.25Z" fill="white"/><rect width="20" height="20" x="212" y="194" fill="#121212" rx="10"><animate attributeName="rx" begin="1s" dur="2s" keyTimes="0;0.25;0.3;0.35;1" repeatCount="indefinite" values="10;10;1;10;10"/><animate attributeName="height" begin="1s" dur="2s" keyTimes="0;0.25;0.3;0.35;1" repeatCount="indefinite" values="20;20;2;20;20"/><animate attributeName="y" begin="1s" dur="2s" keyTimes="0;0.25;0.3;0.35;1" repeatCount="indefinite" values="194;194;203;194;194"/></rect><rect width="20" height="20" x="280" y="194" fill="#121212" rx="10"><animate attributeName="rx" begin="1s" dur="2s" keyTimes="0;0.25;0.3;0.35;1" repeatCount="indefinite" values="10;10;1;10;10"/><animate attributeName="height" begin="1s" dur="2s" keyTimes="0;0.25;0.3;0.35;1" repeatCount="indefinite" values="20;20;2;20;20"/><animate attributeName="y" begin="1s" dur="2s" keyTimes="0;0.25;0.3;0.35;1" repeatCount="indefinite" values="194;194;203;194;194"/></rect><path d="M206 162H238" stroke="#121212" stroke-width="6"/><path d="M274 162H306" stroke="#121212" stroke-width="6"/><path d="M256 218L266 258H246" stroke="#121212" stroke-width="6"/></g><g glass='4'><path fill="#121212" d="M190 175h56v56h-56v-56Z"/><path stroke="#121212" stroke-width="6" d="M190 175h56m-56 0v56h56v-56m-56 0h-24m80 0h100"/></g></svg>