<svg xmlns="http://www.w3.org/2000/svg" width="512" height="512" fill="none"><rect width="512" height="512" fill="#572828 "/><g skin='11'><path fill="#D5A300" d="M134 178h32v64h-20l-12-64ZM378 178h-32v64h20l12-64ZM207 346h98v54h-98z"/><path fill="#E3B41A" d="M64 400h384l32 112H32l32-112ZM166 106h180v240H166z"/></g><g hair='10'><path fill="#121212" d="m166 106 53.5-33v33l69-33v33L346 73v81H166v-48ZM166 154h12v40h-12zM334 154h12v40h-12z"/><path fill="#D22D27" d="M166 146h240v16H166z"/><path fill="#D22D27" fill-rule="evenodd" d="M346 74H166v48h24v24h156V74Z" clip-rule="evenodd"/><path fill="#BF0700" d="m285 122 7.629 24h4.228l-7.565-24H285Zm36.078 0-8.01 24h4.292l7.947-24h-4.229Zm-22.425 12.652h6.2l-6.74 8.487V146h13.478v-4.101h-6.573l6.796-8.487v-2.861h-13.161v4.101Z"/></g><g dress='89'><path fill="#fff" d="M207 400h98v-26h-98v26Z"/><path fill="#1D1D1D" d="M64 400h384l32 112H32l32-112Z"/><path fill="#121212" d="M63.5 400H207v112H31.5l32-112ZM448.5 400H305v112h175.5l-32-112Z"/><path fill="#1D1D1D" d="m338 456 7.629 24h4.228l-7.565-24H338Zm36.078 0-8.01 24h4.292l7.947-24h-4.229Zm-22.425 12.652h6.2l-6.74 8.487V480h13.478v-4.101h-6.573l6.796-8.487v-2.861h-13.161v4.101Z"/><path stroke="#fff" stroke-linejoin="round" stroke-width="28" d="m218 487.5 38-95.5s20.036 58.205 38 95.5"/></g><g beard='5'><rect x="166" y="242" width="12" height="104" fill="#121212"/><rect x="334" y="242" width="12" height="104" fill="#121212"/><path d="M178 334H217L256 322L295 334H334V346H178V334Z" fill="#121212"/></g><g face='3'><path d="M290.865 289.25L212.081 275.358C212.081 275.358 205.135 314.75 244.555 321.701C283.975 328.652 290.865 289.25 290.865 289.25Z" fill="white"/><path d="M206 162H238" stroke="#121212" stroke-width="6"/><path d="M206 202C206 202 212 194 222 194C232 194 238 202 238 202" stroke="#121212" stroke-width="6"/><path d="M274 202C274 202 280 194 290 194C300 194 306 202 306 202" stroke="#121212" stroke-width="6"/><path d="M274 162H306" stroke="#121212" stroke-width="6"/><path d="M256 218L266 258H246" stroke="#121212" stroke-width="6"/></g><g glass='16'><path fill="#425824" fill-opacity=".6" d="M166 178h180v56h-69l-21-16-21 16h-69v-56Z"/><path stroke="#42B16C" stroke-width="2" d="M199 224h26.5l4 5M312.5 224H286l-4 5M174 194v24M182 222v4M329.5 222v4M186 222v4M325.5 222v4M190 222v4M321.5 222v4M194 222v4M317.5 222v4M338 194v24M178 190h59.5l4.5-4.5h8.5M334 190h-59.5l-4.5-4.5h-8.5M247 194l4.5 5h9l4.5-5"/></g></svg>