<svg xmlns="http://www.w3.org/2000/svg" width="512" height="512" fill="none"><rect width="512" height="512" fill="#FFD600 "/><g skin='4'><path fill="#E24713" d="M134 178h32v64h-20l-12-64ZM378 178h-32v64h20l12-64ZM207 346h98v54h-98z"/><path fill="#F15824" d="M64 400h384l32 112H32l32-112ZM166 106h180v240H166z"/><path fill="#FF845A" d="m236 143 7.629 24h4.228l-7.565-24H236Zm36.078 0-8.01 24h4.292l7.947-24h-4.229Zm-22.425 12.652h6.2l-6.74 8.487V167h13.478v-4.101h-6.573l6.796-8.487v-2.861h-13.161v4.101Z"/><path stroke="#FF845A" stroke-width="6" d="M346 126h-21v43h-23v177M244 109h24v15l-12 13-12-13v-15ZM166 126h21v43h23v177"/><path fill="#FF845A" d="M299 134h6v6h-6zM293 140h6v6h-6zM305 140h6v6h-6zM299 146h6v6h-6zM321 276h6v6h-6zM315 282h6v6h-6zM327 282h6v6h-6zM321 288h6v6h-6zM185 276h6v6h-6zM179 282h6v6h-6zM191 282h6v6h-6zM185 288h6v6h-6zM321 242h6v6h-6zM315 248h6v6h-6zM327 248h6v6h-6zM321 254h6v6h-6zM185 242h6v6h-6zM179 248h6v6h-6zM191 248h6v6h-6zM185 254h6v6h-6zM253 416h6v6h-6zM247 422h6v6h-6zM259 422h6v6h-6zM253 428h6v6h-6zM66 478h6v6h-6zM60 484h6v6h-6zM72 484h6v6h-6zM66 490h6v6h-6zM199 416h6v6h-6zM193 422h6v6h-6zM205 422h6v6h-6zM199 428h6v6h-6zM199 447h6v6h-6zM193 453h6v6h-6zM205 453h6v6h-6zM199 459h6v6h-6zM308 416h6v6h-6zM302 422h6v6h-6zM314 422h6v6h-6zM308 428h6v6h-6zM308 447h6v6h-6zM302 453h6v6h-6zM314 453h6v6h-6zM308 459h6v6h-6zM440 478h6v6h-6zM434 484h6v6h-6zM446 484h6v6h-6zM440 490h6v6h-6zM308 478h6v6h-6zM302 484h6v6h-6zM314 484h106v6.057H314zM308 490h6v6h-6zM199 478h6v6h-6zM92 484h107v6H92zM205 484h6v6h-6zM199 490h6v6h-6zM321 310h6v6h-6zM315 316h6v6h-6zM327 316h6v6h-6zM321 322h6v24h-6zM185 310h6v6h-6zM179 316h6v6h-6zM191 316h6v6h-6zM185 322h6v24h-6zM207 134h6v6h-6zM201 140h6v6h-6zM213 140h6v6h-6zM207 146h6v6h-6z"/><path stroke="#FF845A" stroke-width="6" d="M235 373v-10h15v-17m-15 27v11h12v-11h-12ZM277 374v10h-15v16m15-26v-11h-12v11h12ZM384 428l10-4 6 5 6-5 10 4v10l-16 14-16-14v-10ZM250 452v44M258 452v4M258 492v4M270 462v9M270 477v9M243 459h24M250 474h17M243 489h24"/><path fill="#FF845A" d="M124 431h6v6h-6zM118 437h6v6h-6zM104 437h6v6h-6zM130 437h6v6h-6zM124 443h6v6h-6z"/><path stroke="#FF845A" stroke-width="6" d="M96 424h48v32H96z"/></g><g hair='61'><path fill="#D22D27" d="M239 82.97 255.971 42l16.97 40.97-16.97 16.971L239 82.971Z"/><path fill="#D22D27" d="M239 82.97 255.971 42l16.97 40.97-16.97 16.971L239 82.971Z"/><path fill="#F90" d="m246.31 85.81 9.712-23.332 9.598 23.285-9.679 9.678-9.631-9.63Z"/><path fill="#D22D27" d="M277 82.97 293.971 42l16.97 40.97-16.97 16.971L277 82.971ZM312.723 76.782 325.059 47l12.336 29.782-12.336 12.336-12.336-12.336ZM202 82.97 218.971 42l16.97 40.97-16.97 16.971L202 82.971ZM177.723 73.782 190.059 44l12.336 29.782-12.336 12.336-12.336-12.336ZM159.664 61.752 169.088 39l9.425 22.752-9.425 9.425-9.424-9.425ZM249.611 35.744 256.132 20l6.522 15.744-6.522 6.52-6.521-6.52ZM234.611 35.744 241.132 20l6.522 15.744-6.522 6.52-6.521-6.52ZM219.611 37.744 226.132 22l6.522 15.744-6.522 6.52-6.521-6.52ZM204.611 38.744 211.132 23l6.522 15.744-6.522 6.52-6.521-6.52ZM191.611 41.744 198.132 26l6.522 15.744-6.522 6.52-6.521-6.52ZM174.611 44.744 181.132 29l6.522 15.744-6.522 6.52-6.521-6.52ZM264.611 35.744 271.132 20l6.522 15.744-6.522 6.52-6.521-6.52ZM279.611 36.744 286.132 21l6.522 15.744-6.522 6.52-6.521-6.52ZM295.611 39.744 302.132 24l6.522 15.744-6.522 6.52-6.521-6.52ZM310.611 41.744 317.132 26l6.522 15.744-6.522 6.52-6.521-6.52ZM326.611 46.744 333.132 31l6.522 15.744-6.522 6.52-6.521-6.52ZM336.664 61.752 346.088 39l9.425 22.752-9.425 9.425-9.424-9.425Z"/><path fill="#F90" d="M283.81 85.332 293.522 62l9.598 23.285-9.679 9.678-9.631-9.63ZM208.81 85.332 218.522 62l9.598 23.285-9.679 9.678-9.631-9.63ZM182.054 75.315 189.261 58l7.122 17.28-7.182 7.182-7.147-7.147ZM163.658 62.533 168.875 50l5.155 12.508-5.199 5.199-5.173-5.174ZM177.447 45.385 180.938 37l3.448 8.368-3.478 3.478-3.461-3.461ZM194.447 42.385 197.938 34l3.448 8.368-3.478 3.478-3.461-3.461ZM207.447 39.385 210.938 31l3.448 8.368-3.478 3.478-3.461-3.461ZM222.447 38.385 225.938 30l3.448 8.368-3.478 3.478-3.461-3.461ZM237.447 36.385 240.938 28l3.448 8.368-3.478 3.478-3.461-3.461ZM252.447 36.385 255.938 28l3.448 8.368-3.478 3.478-3.461-3.461ZM267.447 36.385 270.938 28l3.448 8.368-3.478 3.478-3.461-3.461ZM282.447 37.385 285.938 29l3.448 8.368-3.478 3.478-3.461-3.461ZM298.447 40.385 301.938 32l3.448 8.368-3.478 3.478-3.461-3.461ZM313.447 42.385 316.938 34l3.448 8.368-3.478 3.478-3.461-3.461ZM329.447 47.385 332.938 39l3.448 8.368-3.478 3.478-3.461-3.461ZM318.054 77.315 325.261 60l7.122 17.28-7.182 7.182-7.147-7.147ZM340.658 63.533 345.875 51l5.155 12.508-5.199 5.199-5.173-5.174Z"/></g><g dress='87'><path fill="#FFB74A" d="M207 372h98v28h-98z"/><path fill="#FFA31A" d="M207 372h73v28h-73z"/><circle cx="266" cy="386" r="6" fill="#fff"/><path fill="#FFB74A" d="M64 400h384l32 112H32l32-112Z"/><path fill="#121212" d="m338 456 7.629 24h4.228l-7.565-24H338Zm36.078 0-8.01 24h4.292l7.947-24h-4.229Zm-22.425 12.652h6.2l-6.74 8.487V480h13.478v-4.101h-6.573l6.796-8.487v-2.861h-13.161v4.101ZM64 400h16.5l-32 112H32l32-112ZM464 512h16.5l-32-112H432l32 112Z"/><path stroke="#121212" stroke-width="6" d="M256 400v112"/></g><g beard='0'><path fill-rule="evenodd" clip-rule="evenodd" d="M346 266H166V349L256 382L346 349V266ZM297 281H215V323H297V281Z" fill="#121212"/></g><g face='22'><path d="M230.711 302H280" stroke="#121212" stroke-width="6"/><rect width="20" height="20" x="212" y="194" fill="#121212" rx="10"><animate attributeName="rx" begin="1s" dur="2s" keyTimes="0;0.25;0.3;0.35;1" repeatCount="indefinite" values="10;10;1;10;10"/><animate attributeName="height" begin="1s" dur="2s" keyTimes="0;0.25;0.3;0.35;1" repeatCount="indefinite" values="20;20;2;20;20"/><animate attributeName="y" begin="1s" dur="2s" keyTimes="0;0.25;0.3;0.35;1" repeatCount="indefinite" values="194;194;203;194;194"/></rect><rect width="20" height="20" x="280" y="194" fill="#121212" rx="10"><animate attributeName="rx" begin="1s" dur="2s" keyTimes="0;0.25;0.3;0.35;1" repeatCount="indefinite" values="10;10;1;10;10"/><animate attributeName="height" begin="1s" dur="2s" keyTimes="0;0.25;0.3;0.35;1" repeatCount="indefinite" values="20;20;2;20;20"/><animate attributeName="y" begin="1s" dur="2s" keyTimes="0;0.25;0.3;0.35;1" repeatCount="indefinite" values="194;194;203;194;194"/></rect><path d="M206 197H238" stroke="#121212" stroke-width="6"/><path d="M274 197H306" stroke="#121212" stroke-width="6"/><path d="M343 318L278 302L355 349.5L368 323.5L375 309.5L352.5 299L345.75 312.5L343 318Z" fill="#77492D"/><path d="M368 323.5L375 309.5L352.5 299L345.75 312.5M368 323.5L355 349.5L278 302L343 318L345.75 312.5M368 323.5L345.75 312.5" stroke="#121212" stroke-width="6"/><path d="M256 218L266 258H246" stroke="#121212" stroke-width="6"/></g><g glass='0'><path fill="#FF00B1" fill-opacity=".6" d="M190 175h56v56h-56v-56Z"/><path stroke="#121212" stroke-width="6" d="M190 175h56v56h-56v-56Zm0 0h-24M247 184h19"/><path fill="#FF00B1" fill-opacity=".6" d="M266 175h56v56h-56v-56Z"/><path stroke="#121212" stroke-width="6" d="M322 175h-56v56h56v-56Zm0 0h24"/></g></svg>