<svg xmlns="http://www.w3.org/2000/svg" width="512" height="512" fill="none"><rect width="512" height="512" fill="#00FF94 "/><g skin='11'><path fill="#D5A300" d="M134 178h32v64h-20l-12-64ZM378 178h-32v64h20l12-64ZM207 346h98v54h-98z"/><path fill="#E3B41A" d="M64 400h384l32 112H32l32-112ZM166 106h180v240H166z"/></g><g hair='66'><path fill="#121212" d="M134 178h32v64h-20l-12-64ZM378 178h-32v64h20l12-64ZM166 106h180v56H166zM166 242h180v104H166z"/></g><g dress='63'><path fill="#77492D" d="M64 400h96s0 72 96 72 96-72 96-72h96l32 112H32l32-112Z"/><path fill="#fff" d="M207 512h98V408s-15.5 24-48 24-50-24-50-24v104Z"/><path fill="#8B634A" d="m137 400 70-54v166h-41l-29-55.5 29-21.5-29-35ZM375 400l-70-54v166h41l29-55.5-29-21.5 29-35Z"/></g><g beard='6'><rect x="207" y="346" width="98" height="54" fill="#E24713"/><path fill-rule="evenodd" clip-rule="evenodd" d="M346 266H166V400H256.5H346V266ZM297 281H215V323H297V281Z" fill="#121212"/></g><g face='10'><path d="M246 289.391C246 289.391 258.823 284.011 262 289.391C265.153 294.732 254.5 303.391 254.5 303.391C254.5 303.391 267.632 299.309 270.5 304.891C273.719 311.156 258 317.891 258 317.891" stroke="#121212" stroke-width="6"/><path d="M206 162H238" stroke="#121212" stroke-width="6"/><path d="M206 202C206 202 212 194 222 194C232 194 238 202 238 202" stroke="#121212" stroke-width="6"/><path d="M274 202C274 202 280 194 290 194C300 194 306 202 306 202" stroke="#121212" stroke-width="6"/><path d="M274 162H306" stroke="#121212" stroke-width="6"/><path d="M256 218L266 258H246" stroke="#121212" stroke-width="6"/></g><g glass='11'><path fill="#121212" d="M182 175h64v20l-12 36h-52v-56Z"/><path stroke="#FFB74A" stroke-width="6" d="M182 175h64v20l-12 36h-52v-56Zm0 0h-16M247 175h19M247 193h19"/><path fill="#121212" d="M266 175h64v56h-52l-12-35.5V175Z"/><path stroke="#FFB74A" stroke-width="6" d="M330 175h-64v20.5l12 35.5h52v-56Zm0 0h16"/></g></svg>