<svg xmlns="http://www.w3.org/2000/svg" width="512" height="512" fill="none"><rect width="512" height="512" fill="#A7FF00 "/><g skin='12'><path fill="#80573E" d="M134 178h32v64h-20l-12-64ZM378 178h-32v64h20l12-64ZM207 346h98v54h-98z"/><path fill="#8B634A" d="M64 400h384l32 112H32l32-112Z"/><path fill="#AE7B5C" d="M136 456h240v56H136z"/><path fill="#8B634A" d="M166 106h180v240H166z"/><path fill="#AE7B5C" d="M207 242h98v104h-98zM182 178h148v64H182z"/></g><g hair='55'><path fill="#121212" d="m166 106 53.5-33v33l69-33v33L346 73v81H166v-48ZM166 154h12v40h-12zM334 154h12v40h-12z"/></g><g dress='61'><path fill="#F15824" d="M64 400h384l32 112H32l32-112Z"/><path fill="#121212" d="M207 372h36v28h-36zM269 372h36v28h-36zM64 400h384l32 112H32l32-112Z"/><path fill="#D22D27" d="m340 448 7.629 24h4.228l-7.565-24H340Zm36.078 0-8.01 24h4.292l7.947-24h-4.229Zm-22.425 12.652h6.2l-6.74 8.487V472h13.478v-4.101h-6.573l6.796-8.487v-2.861h-13.161v4.101Z"/><path stroke="#2D2D2D" stroke-width="6" d="M256 400v112"/><circle cx="274" cy="427" r="6" fill="#D22D27"/><circle cx="274" cy="459" r="6" fill="#D22D27"/><circle cx="274" cy="491" r="6" fill="#D22D27"/><path fill="#2D2D2D" d="M328 472h64v16h-64z"/></g><g beard='3'><path fill-rule="evenodd" clip-rule="evenodd" d="M207 346V271H305V346H256H207ZM219 283H293V315H219V283Z" fill="#121212"/></g><g face='26'><path d="M206 162H238" stroke="#121212" stroke-width="6"/><path d="M206 202C206 202 212 194 222 194C232 194 238 202 238 202" stroke="#121212" stroke-width="6"/><path d="M274 202C274 202 280 194 290 194C300 194 306 202 306 202" stroke="#121212" stroke-width="6"/><path d="M274 162H306" stroke="#121212" stroke-width="6"/><path d="M230.711 302H280" stroke="#121212" stroke-width="6"/><path d="M256 218L266 258H246" stroke="#121212" stroke-width="6"/><path d="M376 302C376 331.271 352.271 355 323 355C293.729 355 271.5 309 256 302C272 295 293.729 249 323 249C352.271 249 376 272.729 376 302Z" fill="#FF008A" stroke="#121212" stroke-width="6"/></g><g glass='5'><path fill="#fff" fill-opacity=".4" d="M192 203c0-15.464 12.536-28 28-28s28 12.536 28 28-12.536 28-28 28-28-12.536-28-28Z"/><path stroke="#121212" stroke-width="6" d="M192 203c0 15.464 12.536 28 28 28s28-12.536 28-28-12.536-28-28-28-28 12.536-28 28Zm0 0-28-27M248 202h16"/><path fill="#fff" fill-opacity=".4" d="M264 203c0-15.464 12.536-28 28-28s28 12.536 28 28-12.536 28-28 28-28-12.536-28-28Z"/><path stroke="#121212" stroke-width="6" d="M320 203c0-15.464-12.536-28-28-28s-28 12.536-28 28 12.536 28 28 28 28-12.536 28-28Zm0 0 28-27"/></g></svg>