<svg xmlns="http://www.w3.org/2000/svg" width="512" height="512" fill="none"><rect width="512" height="512" fill="#7000FF "/><g skin='11'><path fill="#D5A300" d="M134 178h32v64h-20l-12-64ZM378 178h-32v64h20l12-64ZM207 346h98v54h-98z"/><path fill="#E3B41A" d="M64 400h384l32 112H32l32-112ZM166 106h180v240H166z"/></g><g hair='47'><path fill="#121212" d="M166 138v40h-14l-10-77 114.25-65 114.25 65-12.5 77h-12v-40H166Z"/></g><g dress='32'><path fill="#8B634A" d="M64 400h143l50 67 48-67h143l32 112H32l32-112Z"/><circle cx="6" cy="6" r="6" fill="#77492D" transform="matrix(1 0 0 -1 251 486)"/><circle cx="6" cy="6" r="6" fill="#77492D" transform="matrix(1 0 0 -1 251 506)"/><path fill="#77492D" d="M80 400h76v112H80zM356 400h76v112h-76zM257 467l-65.5-27.5L199 429l-27.5-8 8-21H207l50 67ZM257 467l65.5-27.5L315 429l27.5-8-8-21H305l-48 67Z"/></g><g beard='6'><rect x="207" y="346" width="98" height="54" fill="#E24713"/><path fill-rule="evenodd" clip-rule="evenodd" d="M346 266H166V400H256.5H346V266ZM297 281H215V323H297V281Z" fill="#121212"/></g><g face='2'><path d="M230.711 302H280" stroke="#121212" stroke-width="6"/><rect width="20" height="20" x="212" y="194" fill="#121212" rx="10"><animate attributeName="rx" begin="1s" dur="2s" keyTimes="0;0.25;0.3;0.35;1" repeatCount="indefinite" values="10;10;1;10;10"/><animate attributeName="height" begin="1s" dur="2s" keyTimes="0;0.25;0.3;0.35;1" repeatCount="indefinite" values="20;20;2;20;20"/><animate attributeName="y" begin="1s" dur="2s" keyTimes="0;0.25;0.3;0.35;1" repeatCount="indefinite" values="194;194;203;194;194"/></rect><rect width="20" height="20" x="280" y="194" fill="#121212" rx="10"><animate attributeName="rx" begin="1s" dur="2s" keyTimes="0;0.25;0.3;0.35;1" repeatCount="indefinite" values="10;10;1;10;10"/><animate attributeName="height" begin="1s" dur="2s" keyTimes="0;0.25;0.3;0.35;1" repeatCount="indefinite" values="20;20;2;20;20"/><animate attributeName="y" begin="1s" dur="2s" keyTimes="0;0.25;0.3;0.35;1" repeatCount="indefinite" values="194;194;203;194;194"/></rect><path d="M206 197H238" stroke="#121212" stroke-width="6"/><path d="M274 197H306" stroke="#121212" stroke-width="6"/><path d="M256 218L266 258H246" stroke="#121212" stroke-width="6"/></g><g glass='17'><rect width="74" height="74" x="176" y="162" fill="#fff" rx="37"/><path fill="#fff" d="M166 162h49v16h-49zM242 178h28v20h-28zM346 162h-49v16h49z"/><rect width="56" height="56" x="190" y="171" fill="#D22D27" rx="28"/><rect width="74" height="74" x="262" y="162" fill="#fff" rx="37"/><rect width="56" height="56" x="266" y="171" fill="#D22D27" rx="28"/></g></svg>