<svg xmlns="http://www.w3.org/2000/svg" width="512" height="512" fill="none"><rect width="512" height="512" fill="#7B0000 "/><g skin='11'><path fill="#D5A300" d="M134 178h32v64h-20l-12-64ZM378 178h-32v64h20l12-64ZM207 346h98v54h-98z"/><path fill="#E3B41A" d="M64 400h384l32 112H32l32-112ZM166 106h180v240H166z"/></g><g hair='15'><path fill="#121212" d="m166 106 53.5-33v33l69-33v33L346 73v81H166v-48ZM166 154h12v40h-12zM334 154h12v40h-12z"/><path fill="#00A8FF" d="M166 122h180v32H166z"/><path fill="#A7DAFF" d="m236 126 7.629 24h4.228l-7.565-24H236Zm36.078 0-8.01 24h4.292l7.947-24h-4.229Zm-22.425 12.652h6.2l-6.74 8.487V150h13.478v-4.101h-6.573l6.796-8.487v-2.861h-13.161v4.101Z"/></g><g dress='73'><path fill="#fff" d="M157 400h50l165 112h-53L157 400Z"/><path fill="#0094FF" d="M448 400H336L171 512h309l-32-112Z"/><path fill="#fff" d="M355 400h-50L140 512h53l162-112Z"/><path fill="#A7DAFF" d="M386 400h-50L171 512h53l162-112Z"/><path fill="#0094FF" d="M64 400h112l165 112H32l32-112Z"/><path fill="#D5EDFF" d="M126 400h50l165 112h-53L126 400Z"/><path fill="#0082C5" d="M64 400h112v112H32l32-112Z"/><path stroke="#A7DAFF" stroke-width="6" d="M140 400v112"/><path fill="#0082C5" d="M448 400H336v112h144l-32-112Z"/><path stroke="#A7DAFF" stroke-width="6" d="M372 400v112"/></g><g beard='5'><rect x="166" y="242" width="12" height="104" fill="#121212"/><rect x="334" y="242" width="12" height="104" fill="#121212"/><path d="M178 334H217L256 322L295 334H334V346H178V334Z" fill="#121212"/></g><g face='17'><path d="M231.114 302H280.403L292 290" stroke="#121212" stroke-width="6"/><path d="M206 162H238" stroke="#121212" stroke-width="6"/><path d="M206 202C206 202 212 194 222 194C232 194 238 202 238 202" stroke="#121212" stroke-width="6"/><path d="M274 202C274 202 280 194 290 194C300 194 306 202 306 202" stroke="#121212" stroke-width="6"/><path d="M274 162H306" stroke="#121212" stroke-width="6"/><path d="M256 218L266 258H246" stroke="#121212" stroke-width="6"/></g><g glass='0'><path fill="#FF00B1" fill-opacity=".6" d="M190 175h56v56h-56v-56Z"/><path stroke="#121212" stroke-width="6" d="M190 175h56v56h-56v-56Zm0 0h-24M247 184h19"/><path fill="#FF00B1" fill-opacity=".6" d="M266 175h56v56h-56v-56Z"/><path stroke="#121212" stroke-width="6" d="M322 175h-56v56h56v-56Zm0 0h24"/></g></svg>