<svg xmlns="http://www.w3.org/2000/svg" width="512" height="512" fill="none"><rect width="512" height="512" fill="#0047FF "/><g skin='4'><path fill="#E24713" d="M134 178h32v64h-20l-12-64ZM378 178h-32v64h20l12-64ZM207 346h98v54h-98z"/><path fill="#F15824" d="M64 400h384l32 112H32l32-112ZM166 106h180v240H166z"/><path fill="#FF845A" d="m236 143 7.629 24h4.228l-7.565-24H236Zm36.078 0-8.01 24h4.292l7.947-24h-4.229Zm-22.425 12.652h6.2l-6.74 8.487V167h13.478v-4.101h-6.573l6.796-8.487v-2.861h-13.161v4.101Z"/><path stroke="#FF845A" stroke-width="6" d="M346 126h-21v43h-23v177M244 109h24v15l-12 13-12-13v-15ZM166 126h21v43h23v177"/><path fill="#FF845A" d="M299 134h6v6h-6zM293 140h6v6h-6zM305 140h6v6h-6zM299 146h6v6h-6zM321 276h6v6h-6zM315 282h6v6h-6zM327 282h6v6h-6zM321 288h6v6h-6zM185 276h6v6h-6zM179 282h6v6h-6zM191 282h6v6h-6zM185 288h6v6h-6zM321 242h6v6h-6zM315 248h6v6h-6zM327 248h6v6h-6zM321 254h6v6h-6zM185 242h6v6h-6zM179 248h6v6h-6zM191 248h6v6h-6zM185 254h6v6h-6zM253 416h6v6h-6zM247 422h6v6h-6zM259 422h6v6h-6zM253 428h6v6h-6zM66 478h6v6h-6zM60 484h6v6h-6zM72 484h6v6h-6zM66 490h6v6h-6zM199 416h6v6h-6zM193 422h6v6h-6zM205 422h6v6h-6zM199 428h6v6h-6zM199 447h6v6h-6zM193 453h6v6h-6zM205 453h6v6h-6zM199 459h6v6h-6zM308 416h6v6h-6zM302 422h6v6h-6zM314 422h6v6h-6zM308 428h6v6h-6zM308 447h6v6h-6zM302 453h6v6h-6zM314 453h6v6h-6zM308 459h6v6h-6zM440 478h6v6h-6zM434 484h6v6h-6zM446 484h6v6h-6zM440 490h6v6h-6zM308 478h6v6h-6zM302 484h6v6h-6zM314 484h106v6.057H314zM308 490h6v6h-6zM199 478h6v6h-6zM92 484h107v6H92zM205 484h6v6h-6zM199 490h6v6h-6zM321 310h6v6h-6zM315 316h6v6h-6zM327 316h6v6h-6zM321 322h6v24h-6zM185 310h6v6h-6zM179 316h6v6h-6zM191 316h6v6h-6zM185 322h6v24h-6zM207 134h6v6h-6zM201 140h6v6h-6zM213 140h6v6h-6zM207 146h6v6h-6z"/><path stroke="#FF845A" stroke-width="6" d="M235 373v-10h15v-17m-15 27v11h12v-11h-12ZM277 374v10h-15v16m15-26v-11h-12v11h12ZM384 428l10-4 6 5 6-5 10 4v10l-16 14-16-14v-10ZM250 452v44M258 452v4M258 492v4M270 462v9M270 477v9M243 459h24M250 474h17M243 489h24"/><path fill="#FF845A" d="M124 431h6v6h-6zM118 437h6v6h-6zM104 437h6v6h-6zM130 437h6v6h-6zM124 443h6v6h-6z"/><path stroke="#FF845A" stroke-width="6" d="M96 424h48v32H96z"/></g><g hair='3'><path fill="#121212" d="m194 298-16-120v-72h-12v176l28 16ZM318 298l16-120v-72h12v176l-28 16ZM236 106h40v12h-40z"/><path fill="#fff" d="M115 155h51v95h-51zM346 155h51v95h-51zM166 106v49h-28V77h236v78h-28v-49H166Z"/></g><g dress='75'><g clip-path="url(#a)"><path fill="#454545" d="M207 512h98v-73h-98v73Z"/><path fill="#606060" d="M207 439v-39l50 39h-50ZM305 439v-39l-48 39h48Z"/><path fill="#1D1D1D" d="M241 439h32l-8 24h-16l-8-24ZM241 512h32l-8-49h-16l-8 49Z"/><path fill="#121212" d="M64 400h112v112H32l32-112ZM448 400H336v112h144l-32-112Z"/><path fill="#1D1D1D" d="M137 400h70v112h-41l-29-55.5 29-21.5-29-35ZM375 400h-70v112h41l29-55.5-29-21.5 29-35Z"/><path fill="#121212" d="M207 512h98v-73l-48 40-50-40v73Z"/><circle cx="272" cy="488" r="6" fill="#1D1D1D"/><circle cx="272" cy="512" r="6" fill="#1D1D1D"/><path stroke="#1D1D1D" stroke-width="6" d="M257 476v36"/></g><defs><clipPath id="a"><path fill="#fff" d="M0 0h512v512H0z"/></clipPath></defs></g><g beard='0'><path fill-rule="evenodd" clip-rule="evenodd" d="M346 266H166V349L256 382L346 349V266ZM297 281H215V323H297V281Z" fill="#121212"/></g><g face='28'><rect width="20" height="20" x="212" y="194" fill="#121212" rx="10"><animate attributeName="rx" begin="1s" dur="2s" keyTimes="0;0.25;0.3;0.35;1" repeatCount="indefinite" values="10;10;1;10;10"/><animate attributeName="height" begin="1s" dur="2s" keyTimes="0;0.25;0.3;0.35;1" repeatCount="indefinite" values="20;20;2;20;20"/><animate attributeName="y" begin="1s" dur="2s" keyTimes="0;0.25;0.3;0.35;1" repeatCount="indefinite" values="194;194;203;194;194"/></rect><rect width="20" height="20" x="280" y="194" fill="#121212" rx="10"><animate attributeName="rx" begin="1s" dur="2s" keyTimes="0;0.25;0.3;0.35;1" repeatCount="indefinite" values="10;10;1;10;10"/><animate attributeName="height" begin="1s" dur="2s" keyTimes="0;0.25;0.3;0.35;1" repeatCount="indefinite" values="20;20;2;20;20"/><animate attributeName="y" begin="1s" dur="2s" keyTimes="0;0.25;0.3;0.35;1" repeatCount="indefinite" values="194;194;203;194;194"/></rect><path d="M206 197H238" stroke="#121212" stroke-width="6"/><path d="M274 197H306" stroke="#121212" stroke-width="6"/><path d="M256 218L266 258H246" stroke="#121212" stroke-width="6"/><path d="M216 284H296L292 301L288 317H224L220 301L216 284Z" fill="white"/><path d="M220 301L224 317H288L292 301M220 301L216 284H296L292 301M220 301H292" stroke="#121212" stroke-width="6"/><rect width="24" height="48" transform="matrix(0 -1 -1 0 185 313)" fill="#2D2D2D"/><path d="M199.785 325H187.83V301M199.785 277H187.83V301M187.83 301H275" stroke="#2D2D2D" stroke-width="6"/><path d="M134 317V301V285" stroke="#2D2D2D" stroke-width="6"/></g><g glass='1'><path fill="#fff" fill-opacity=".4" d="M190 175h56v56h-56v-56Z"/><path stroke="#121212" stroke-width="6" d="M190 175h56v56h-56v-56Zm0 0h-24M247 184h19"/><path fill="#fff" fill-opacity=".4" d="M266 175h56v56h-56v-56Z"/><path stroke="#121212" stroke-width="6" d="M322 175h-56v56h56v-56Zm0 0h24"/></g></svg>