<svg xmlns="http://www.w3.org/2000/svg" width="512" height="512" fill="none"><rect width="512" height="512" fill="#7000FF "/><g skin='11'><path fill="#D5A300" d="M134 178h32v64h-20l-12-64ZM378 178h-32v64h20l12-64ZM207 346h98v54h-98z"/><path fill="#E3B41A" d="M64 400h384l32 112H32l32-112ZM166 106h180v240H166z"/></g><g hair='38'><path fill="#0094FF" d="M346 146H166v-40l103-90.5h77l-45 22v42l45 26.5v40ZM106 146h300v16H106z"/><path fill="#A7DAFF" d="M166 130h180v16H166zM279 28l2.694 8.292h8.719l-7.054 5.124 2.694 8.292L279 44.584l-7.053 5.124 2.694-8.292-7.054-5.124h8.719L279 28ZM236 57l2.694 8.292h8.719l-7.054 5.124 2.694 8.292L236 73.584l-7.053 5.124 2.694-8.292-7.054-5.124h8.719L236 57ZM268 82l2.694 8.292h8.719l-7.054 5.124 2.694 8.292L268 98.584l-7.053 5.124 2.694-8.292-7.054-5.124h8.719L268 82ZM207 99l2.694 8.292h8.719l-7.054 5.124 2.694 8.292-7.053-5.124-7.053 5.124 2.694-8.292-7.054-5.124h8.719L207 99ZM317 99l2.694 8.292h8.719l-7.054 5.124 2.694 8.292-7.053-5.124-7.053 5.124 2.694-8.292-7.054-5.124h8.719L317 99Z"/></g><g dress='36'><path fill="#fff" d="M64 400h143l50 39 48-39h143l32 112H32l32-112Z"/><path fill="#00FF94" d="m65.5 457-15 55H114l-16-26.5-18 8L65.5 457Z"/><path fill="#FFD600" d="M121.5 413h-30L84 445h43l-11-12 5.5-20Z"/><path fill="#D22D27" d="M143 462.5v-26l20 3 4-20.5 33.5 53.5-23 13h-63l28.5-23Z"/><path fill="#0094FF" d="M263.5 495.5 252 471l-66 41h93.5l15-26-31 9.5Z"/><path fill="#42B16C" d="m353 417-14 18 19 19.5h40.5L432 478l-22.5-61H353Z"/><path fill="#F90" d="m330.5 448-14 26.5 50.5 26 24.5-31.5h-44l-17-21Z"/><path fill="#F15824" d="m404 482-16.5 20.5h55L404 482Z"/><path fill="#DDD1D8" d="m257 439-41.5 27.5-36-66.5 27.5-20 50 59ZM257 439l41.5 27.5 36-66.5-29.5-20-48 59Z"/></g><g beard='2'><path d="M204 270H308L324 290H188L204 270Z" fill="#121212"/></g><g face='7'><path d="M231.114 302H280.403L292 290" stroke="#121212" stroke-width="6"/><rect width="20" height="20" x="212" y="194" fill="#121212" rx="10"><animate attributeName="rx" begin="1s" dur="2s" keyTimes="0;0.25;0.3;0.35;1" repeatCount="indefinite" values="10;10;1;10;10"/><animate attributeName="height" begin="1s" dur="2s" keyTimes="0;0.25;0.3;0.35;1" repeatCount="indefinite" values="20;20;2;20;20"/><animate attributeName="y" begin="1s" dur="2s" keyTimes="0;0.25;0.3;0.35;1" repeatCount="indefinite" values="194;194;203;194;194"/></rect><rect width="20" height="20" x="280" y="194" fill="#121212" rx="10"><animate attributeName="rx" begin="1s" dur="2s" keyTimes="0;0.25;0.3;0.35;1" repeatCount="indefinite" values="10;10;1;10;10"/><animate attributeName="height" begin="1s" dur="2s" keyTimes="0;0.25;0.3;0.35;1" repeatCount="indefinite" values="20;20;2;20;20"/><animate attributeName="y" begin="1s" dur="2s" keyTimes="0;0.25;0.3;0.35;1" repeatCount="indefinite" values="194;194;203;194;194"/></rect><path d="M206 162H238" stroke="#121212" stroke-width="6"/><path d="M274 162H306" stroke="#121212" stroke-width="6"/><path d="M256 218L266 258H246" stroke="#121212" stroke-width="6"/></g><g glass='13'><path fill="#D22D27" fill-opacity=".6" d="m189.583 182.714 19.58-8.714 10.878 8.893L230.919 174l19.581 8.714v26.143L220.041 235l-30.458-26.143v-26.143Z"/><path stroke="#D22D27" stroke-width="6" d="M189.583 182.714v26.143L220.041 235l30.459-26.143V190m-60.917-7.286 19.58-8.714 10.878 8.893L230.919 174l19.581 8.714V190m-60.917-7.286L163 175.5m87.5 14.5H262"/><path fill="#D22D27" fill-opacity=".6" d="m322.417 183.214-19.58-8.714-10.878 8.893-10.878-8.893-19.581 8.714v26.143l30.459 26.143 30.458-26.143v-26.143Z"/><path stroke="#D22D27" stroke-width="6" d="M322.417 183.214v26.143L291.959 235.5 261.5 209.357v-26.143l19.581-8.714 10.878 8.893 10.878-8.893 19.58 8.714Zm0 0L349 176"/></g></svg>