<svg xmlns="http://www.w3.org/2000/svg" width="512" height="512" fill="none"><rect width="512" height="512" fill="#7B0000 "/><g skin='5'><path fill="#0097D8" d="M134 178h32v64h-20l-12-64ZM378 178h-32v64h20l12-64ZM207 346h98v54h-98z"/><path fill="#00B2FF" d="M64 400h384l32 112H32l32-112Z"/><path fill="#2C71A3" d="m42 477-6.571 23L105 477H42ZM476.286 499l-6-21H405l71.286 21ZM466.429 464.5l-5.572-19.5H425.5l40.929 19.5ZM51.143 445l-5.572 19.5L86 445H51.143Z"/><path fill="#00B2FF" d="M166 106h180v240H166z"/><path fill="#2C71A3" d="M96 400H80l16 25v-25ZM198 106h-16l16 24v-24ZM230 106h-16l16 40v-40ZM342 400h-16v40l16-40ZM141 400h-16l16 32v-32ZM264 106h-16l8 106 8-106ZM387 400h-16v30.5l16-30.5ZM186 400h-16l16 40v-40ZM330 106h-16v24l16-24ZM298 106h-16v40l16-40ZM432 400h-16v24l16-24ZM197.5 224.5 166 194v16l31.5 14.5ZM190 176.5 166 146v16l24 14.5ZM192 289l-26-8v16l26-8ZM320 289l26-8v16l-26-8ZM295 358l-88-6v12l88-6ZM295 388l-88-6v12l88-6ZM217 373l88-6v12l-88-6ZM314 223.5l32-30.5v16l-32 14.5ZM322 176.5l24-30.5v16l-24 14.5ZM206 277.5 166 242v16l40 19.5ZM206 301l-40 32v-12.8l40-19.2ZM306 277.5l40-35.5v16l-40 19.5ZM306 301l40 32v-12.8L306 301Z"/></g><g hair='48'><path fill="#121212" d="M334 154h12v52h-12zM166 154h12v52h-12zM166 57.956 346 102v52H166V57.956Z"/></g><g dress='38'><path fill="#FFB74A" d="M64 400h124s2 52 68 52 68-52 68-52h124l32 112H32l32-112Z"/><path fill="#fff" d="M328.333 444h5.333v47.999h-5.333zM333.668 465.336h13.333v5.333h-13.333z"/><path fill="#fff" d="M323 481.332h23.999v5.333H323zM323 449.332h23.999v5.333H323zM346.999 454.667h5.333v10.666h-5.333z"/><path fill="#fff" d="M336.331 444h5.333v5.333h-5.333zM336.331 486.667h5.333V492h-5.333zM346.999 470.662h5.333v10.666h-5.333z"/></g><g beard='8'><rect x="204" y="286" width="12" height="60" fill="#121212"/><rect x="296" y="286" width="12" height="60" fill="#121212"/><rect x="244" y="322" width="24" height="12" fill="#121212"/><path d="M204 334H308V346L256 370L204 346V334Z" fill="#121212"/></g><g face='33'><rect width="20" height="20" x="212" y="194" fill="#121212" rx="10"><animate attributeName="rx" begin="1s" dur="2s" keyTimes="0;0.25;0.3;0.35;1" repeatCount="indefinite" values="10;10;1;10;10"/><animate attributeName="height" begin="1s" dur="2s" keyTimes="0;0.25;0.3;0.35;1" repeatCount="indefinite" values="20;20;2;20;20"/><animate attributeName="y" begin="1s" dur="2s" keyTimes="0;0.25;0.3;0.35;1" repeatCount="indefinite" values="194;194;203;194;194"/></rect><rect width="20" height="20" x="280" y="194" fill="#121212" rx="10"><animate attributeName="rx" begin="1s" dur="2s" keyTimes="0;0.25;0.3;0.35;1" repeatCount="indefinite" values="10;10;1;10;10"/><animate attributeName="height" begin="1s" dur="2s" keyTimes="0;0.25;0.3;0.35;1" repeatCount="indefinite" values="20;20;2;20;20"/><animate attributeName="y" begin="1s" dur="2s" keyTimes="0;0.25;0.3;0.35;1" repeatCount="indefinite" values="194;194;203;194;194"/></rect><path d="M206 162H238" stroke="#121212" stroke-width="6"/><path d="M274 162H306" stroke="#121212" stroke-width="6"/><path d="M216 284H296L292 301L288 317H224L220 301L216 284Z" fill="white"/><path d="M220 301L224 317H288L292 301M220 301L216 284H296L292 301M220 301H292" stroke="#121212" stroke-width="6"/><path d="M256 218L266 258H246" stroke="#121212" stroke-width="6"/><path d="M256.25 401.5C219 401.5 199 377.5 199 377.5L245.841 301H266.659L313.5 377.5C313.5 377.5 293.5 401.5 256.25 401.5Z" fill="#FFB74A" stroke="#121212" stroke-width="6"/><path d="M256.25 401.5C219 401.5 199 377.5 199 377.5L206.654 365C206.654 365 224.5 384 256.25 384C285 384 305.846 365 305.846 365L313.5 377.5C313.5 377.5 293.5 401.5 256.25 401.5Z" fill="#FF9900" stroke="#121212" stroke-width="6"/><circle cx="241" cy="359" r="12" fill="#D22D27"/><circle cx="257" cy="321" r="10" fill="#D22D27"/><circle cx="273" cy="351" r="10" fill="#D22D27"/></g><g glass='19'><path fill="#121212" fill-opacity=".4" d="M192 203c0-15.464 12.536-28 28-28s28 12.536 28 28-12.536 28-28 28-28-12.536-28-28Z"/><path stroke="#FFB74A" stroke-width="6" d="M220 175c-15.464 0-28 12.536-28 28m28-28c15.464 0 28 12.536 28 28s-12.536 28-28 28m0-56v28m-28 0c0 15.464 12.536 28 28 28m-28-28-28-27m56 55v-28m0 0-21 18.5m21-18.5 21.5 18.5M248 202h16"/><path fill="#121212" fill-opacity=".4" d="M320 203c0-15.464-12.536-28-28-28s-28 12.536-28 28 12.536 28 28 28 28-12.536 28-28Z"/><path stroke="#FFB74A" stroke-width="6" d="M292 175c15.464 0 28 12.536 28 28m-28-28c-15.464 0-28 12.536-28 28s12.536 28 28 28m0-56v28m28 0c0 15.464-12.536 28-28 28m28-28 28-27m-56 55v-28m0 0 21 18.5M292 203l-21.5 18.5"/></g></svg>