<svg xmlns="http://www.w3.org/2000/svg" width="512" height="512" fill="none"><rect width="512" height="512" fill="#A7FF00 "/><g skin='2'><path fill="#C19344" d="M134 178h32v64h-20l-12-64ZM378 178h-32v64h20l12-64ZM207 346h98v54h-98z"/><path fill="#D7A859" d="M64 400h384l32 112H32l32-112Z"/><path fill="#F5C676" d="M136 456h240v56H136z"/><path fill="#D7A859" d="M166 106h180v240H166z"/><path fill="#1D1D1D" d="M66.5 495.5c0 4.418-4.582 8.5-9 8.5s-8.5-5.082-8.5-9.5 1.582-7.5 6-7.5 11.5 4.082 11.5 8.5ZM444 495.5c0 4.418 4.582 8.5 9 8.5s8.5-5.082 8.5-9.5-1.582-7.5-6-7.5-11.5 4.082-11.5 8.5ZM140.5 431.5c0 4.418-4.582 8.5-9 8.5s-8.5-5.082-8.5-9.5 1.582-7.5 6-7.5 11.5 4.082 11.5 8.5ZM262.5 418.5c0 4.418-4.582 8.5-9 8.5s-8.5-5.082-8.5-9.5 1.582-7.5 6-7.5 11.5 4.082 11.5 8.5ZM230.5 384.5c0 4.418-4.582 8.5-9 8.5s-8.5-5.082-8.5-9.5 1.582-7.5 6-7.5 11.5 4.082 11.5 8.5ZM370 431.5c0 4.418 4.582 8.5 9 8.5s8.5-5.082 8.5-9.5-1.582-7.5-6-7.5-11.5 4.082-11.5 8.5ZM119.5 495c0 4.418-2.582 6.5-7 6.5s-6.5-2.082-6.5-6.5 1.082-8 5.5-8a8 8 0 0 1 8 8ZM221.5 441c0 4.418-2.582 6.5-7 6.5s-6.5-2.082-6.5-6.5 1.082-8 5.5-8a8 8 0 0 1 8 8ZM298.5 361c0 4.418-2.582 6.5-7 6.5s-6.5-2.082-6.5-6.5 1.082-8 5.5-8a8 8 0 0 1 8 8ZM391 495c0 4.418 2.582 6.5 7 6.5s6.5-2.082 6.5-6.5-1.082-8-5.5-8a8 8 0 0 0-8 8ZM195.5 416c0 4.418-2.582 6.5-7 6.5s-6.5-2.082-6.5-6.5 1.082-8 5.5-8a8 8 0 0 1 8 8ZM253.5 372c0 4.418-2.582 6.5-7 6.5s-6.5-2.082-6.5-6.5 1.082-8 5.5-8a8 8 0 0 1 8 8ZM195.5 124c0 4.418-2.582 6.5-7 6.5s-6.5-2.082-6.5-6.5 1.082-8 5.5-8a8 8 0 0 1 8 8ZM187.5 288c0 4.418-2.582 6.5-7 6.5s-6.5-2.082-6.5-6.5 1.082-8 5.5-8a8 8 0 0 1 8 8ZM325.5 310.5c0 4.418-4.582 8.5-9 8.5s-8.5-5.082-8.5-9.5 1.582-7.5 6-7.5 11.5 4.082 11.5 8.5ZM265.5 125c0 4.418-2.582 6.5-7 6.5s-6.5-2.082-6.5-6.5 1.082-8 5.5-8a8 8 0 0 1 8 8ZM156.5 188c0 4.418-2.582 6.5-7 6.5s-6.5-2.082-6.5-6.5 1.082-8 5.5-8a8 8 0 0 1 8 8ZM342.5 146c0 4.418-2.582 6.5-7 6.5s-6.5-2.082-6.5-6.5 1.082-8 5.5-8a8 8 0 0 1 8 8ZM338.5 276c0 4.418-2.582 6.5-7 6.5s-6.5-2.082-6.5-6.5 1.082-8 5.5-8a8 8 0 0 1 8 8ZM330.5 125c0 4.418-2.582 6.5-7 6.5s-6.5-2.082-6.5-6.5 1.082-8 5.5-8a8 8 0 0 1 8 8ZM331 415c0 4.418 2.582 6.5 7 6.5s6.5-2.082 6.5-6.5-1.082-8-5.5-8a8 8 0 0 0-8 8ZM79.5 439c0 4.418-2.582 6.5-7 6.5S66 443.418 66 439s1.082-8 5.5-8a8 8 0 0 1 8 8ZM431 439c0 4.418 2.582 6.5 7 6.5s6.5-2.082 6.5-6.5-1.082-8-5.5-8a8 8 0 0 0-8 8ZM89 480c0 4.418-2.082 6-6.5 6s-9.5-1.582-9.5-6 3.582-5 8-5 8 .582 8 5ZM421.5 480c0 4.418 2.082 6 6.5 6s9.5-1.582 9.5-6-3.582-5-8-5-8 .582-8 5ZM174 443c0 4.418-2.082 6-6.5 6s-9.5-1.582-9.5-6 3.582-5 8-5 8 .582 8 5ZM315 429c0 4.418-2.082 6-6.5 6s-9.5-1.582-9.5-6 3.582-5 8-5 8 .582 8 5ZM230 358c0 4.418-2.082 6-6.5 6s-9.5-1.582-9.5-6 3.582-5 8-5 8 .582 8 5ZM230 118c0 4.418-2.082 6-6.5 6s-9.5-1.582-9.5-6 3.582-5 8-5 8 .582 8 5ZM188 146c0 4.418-2.082 6-6.5 6s-9.5-1.582-9.5-6 3.582-5 8-5 8 .582 8 5ZM372 185c0 4.418-2.082 6-6.5 6s-9.5-1.582-9.5-6 3.582-5 8-5 8 .582 8 5ZM340 332c0 4.418-2.082 6-6.5 6s-9.5-1.582-9.5-6 3.582-5 8-5 8 .582 8 5ZM304 121c0 4.418-2.082 6-6.5 6s-9.5-1.582-9.5-6 3.582-5 8-5 8 .582 8 5ZM336.5 443c0 4.418 2.082 6 6.5 6s9.5-1.582 9.5-6-3.582-5-8-5-8 .582-8 5ZM105 415c0 4.418-2.082 6-6.5 6s-9.5-1.582-9.5-6 3.582-5 8-5 8 .582 8 5ZM405.5 415c0 4.418 2.082 6 6.5 6s9.5-1.582 9.5-6-3.582-5-8-5-8 .582-8 5ZM115.5 456.5c0 4.418-2.582 9-7 9s-11.5-4.582-11.5-9 4.082-10.5 8.5-10.5 10 6.082 10 10.5ZM200.5 327.5c0 4.418-2.582 9-7 9s-11.5-4.582-11.5-9 4.082-10.5 8.5-10.5 10 6.082 10 10.5ZM298.5 386.5c0 4.418-2.582 9-7 9s-11.5-4.582-11.5-9 4.082-10.5 8.5-10.5 10 6.082 10 10.5ZM395 456.5c0 4.418 2.582 9 7 9s11.5-4.582 11.5-9-4.082-10.5-8.5-10.5-10 6.082-10 10.5Z"/></g><g hair='58'><path fill="#121212" d="M300 148.25 346 129v-23H166v44l59-29.5v27.75l75-27.75v27.75ZM148 45h216v61H148V45ZM346 106h18v174h-18V106ZM166 106h-18v174h18V106Z"/></g><g dress='73'><path fill="#fff" d="M157 400h50l165 112h-53L157 400Z"/><path fill="#0094FF" d="M448 400H336L171 512h309l-32-112Z"/><path fill="#fff" d="M355 400h-50L140 512h53l162-112Z"/><path fill="#A7DAFF" d="M386 400h-50L171 512h53l162-112Z"/><path fill="#0094FF" d="M64 400h112l165 112H32l32-112Z"/><path fill="#D5EDFF" d="M126 400h50l165 112h-53L126 400Z"/><path fill="#0082C5" d="M64 400h112v112H32l32-112Z"/><path stroke="#A7DAFF" stroke-width="6" d="M140 400v112"/><path fill="#0082C5" d="M448 400H336v112h144l-32-112Z"/><path stroke="#A7DAFF" stroke-width="6" d="M372 400v112"/></g><g beard='5'><rect x="166" y="242" width="12" height="104" fill="#121212"/><rect x="334" y="242" width="12" height="104" fill="#121212"/><path d="M178 334H217L256 322L295 334H334V346H178V334Z" fill="#121212"/></g><g face='11'><rect width="20" height="20" x="212" y="194" fill="#121212" rx="10"><animate attributeName="rx" begin="1s" dur="2s" keyTimes="0;0.25;0.3;0.35;1" repeatCount="indefinite" values="10;10;1;10;10"/><animate attributeName="height" begin="1s" dur="2s" keyTimes="0;0.25;0.3;0.35;1" repeatCount="indefinite" values="20;20;2;20;20"/><animate attributeName="y" begin="1s" dur="2s" keyTimes="0;0.25;0.3;0.35;1" repeatCount="indefinite" values="194;194;203;194;194"/></rect><rect width="20" height="20" x="280" y="194" fill="#121212" rx="10"><animate attributeName="rx" begin="1s" dur="2s" keyTimes="0;0.25;0.3;0.35;1" repeatCount="indefinite" values="10;10;1;10;10"/><animate attributeName="height" begin="1s" dur="2s" keyTimes="0;0.25;0.3;0.35;1" repeatCount="indefinite" values="20;20;2;20;20"/><animate attributeName="y" begin="1s" dur="2s" keyTimes="0;0.25;0.3;0.35;1" repeatCount="indefinite" values="194;194;203;194;194"/></rect><path d="M206 162H238" stroke="#121212" stroke-width="6"/><path d="M274 162H306" stroke="#121212" stroke-width="6"/><path d="M256 218L266 258H246" stroke="#121212" stroke-width="6"/><path d="M296 282H216C216 282 216 318 256.028 318C296.057 318 296 282 296 282Z" fill="white"/></g><g glass='20'><path fill="#42B16C" fill-opacity=".4" d="M192 203c0-15.464 12.536-28 28-28s28 12.536 28 28-12.536 28-28 28-28-12.536-28-28Z"/><path stroke="#121212" stroke-width="6" d="M192 203c0 15.464 12.536 28 28 28s28-12.536 28-28-12.536-28-28-28-28 12.536-28 28Zm0 0-28-27M248 202h16"/><path fill="#42B16C" fill-opacity=".4" d="M264 203c0-15.464 12.536-28 28-28s28 12.536 28 28-12.536 28-28 28-28-12.536-28-28Z"/><path stroke="#121212" stroke-width="6" d="M320 203c0-15.464-12.536-28-28-28s-28 12.536-28 28 12.536 28 28 28 28-12.536 28-28Zm0 0 28-27"/></g></svg>