<svg xmlns="http://www.w3.org/2000/svg" width="512" height="512" fill="none"><rect width="512" height="512" fill="#A7FF00 "/><g skin='4'><path fill="#E24713" d="M134 178h32v64h-20l-12-64ZM378 178h-32v64h20l12-64ZM207 346h98v54h-98z"/><path fill="#F15824" d="M64 400h384l32 112H32l32-112ZM166 106h180v240H166z"/><path fill="#FF845A" d="m236 143 7.629 24h4.228l-7.565-24H236Zm36.078 0-8.01 24h4.292l7.947-24h-4.229Zm-22.425 12.652h6.2l-6.74 8.487V167h13.478v-4.101h-6.573l6.796-8.487v-2.861h-13.161v4.101Z"/><path stroke="#FF845A" stroke-width="6" d="M346 126h-21v43h-23v177M244 109h24v15l-12 13-12-13v-15ZM166 126h21v43h23v177"/><path fill="#FF845A" d="M299 134h6v6h-6zM293 140h6v6h-6zM305 140h6v6h-6zM299 146h6v6h-6zM321 276h6v6h-6zM315 282h6v6h-6zM327 282h6v6h-6zM321 288h6v6h-6zM185 276h6v6h-6zM179 282h6v6h-6zM191 282h6v6h-6zM185 288h6v6h-6zM321 242h6v6h-6zM315 248h6v6h-6zM327 248h6v6h-6zM321 254h6v6h-6zM185 242h6v6h-6zM179 248h6v6h-6zM191 248h6v6h-6zM185 254h6v6h-6zM253 416h6v6h-6zM247 422h6v6h-6zM259 422h6v6h-6zM253 428h6v6h-6zM66 478h6v6h-6zM60 484h6v6h-6zM72 484h6v6h-6zM66 490h6v6h-6zM199 416h6v6h-6zM193 422h6v6h-6zM205 422h6v6h-6zM199 428h6v6h-6zM199 447h6v6h-6zM193 453h6v6h-6zM205 453h6v6h-6zM199 459h6v6h-6zM308 416h6v6h-6zM302 422h6v6h-6zM314 422h6v6h-6zM308 428h6v6h-6zM308 447h6v6h-6zM302 453h6v6h-6zM314 453h6v6h-6zM308 459h6v6h-6zM440 478h6v6h-6zM434 484h6v6h-6zM446 484h6v6h-6zM440 490h6v6h-6zM308 478h6v6h-6zM302 484h6v6h-6zM314 484h106v6.057H314zM308 490h6v6h-6zM199 478h6v6h-6zM92 484h107v6H92zM205 484h6v6h-6zM199 490h6v6h-6zM321 310h6v6h-6zM315 316h6v6h-6zM327 316h6v6h-6zM321 322h6v24h-6zM185 310h6v6h-6zM179 316h6v6h-6zM191 316h6v6h-6zM185 322h6v24h-6zM207 134h6v6h-6zM201 140h6v6h-6zM213 140h6v6h-6zM207 146h6v6h-6z"/><path stroke="#FF845A" stroke-width="6" d="M235 373v-10h15v-17m-15 27v11h12v-11h-12ZM277 374v10h-15v16m15-26v-11h-12v11h12ZM384 428l10-4 6 5 6-5 10 4v10l-16 14-16-14v-10ZM250 452v44M258 452v4M258 492v4M270 462v9M270 477v9M243 459h24M250 474h17M243 489h24"/><path fill="#FF845A" d="M124 431h6v6h-6zM118 437h6v6h-6zM104 437h6v6h-6zM130 437h6v6h-6zM124 443h6v6h-6z"/><path stroke="#FF845A" stroke-width="6" d="M96 424h48v32H96z"/></g><g hair='10'><path fill="#121212" d="m166 106 53.5-33v33l69-33v33L346 73v81H166v-48ZM166 154h12v40h-12zM334 154h12v40h-12z"/><path fill="#D22D27" d="M166 146h240v16H166z"/><path fill="#D22D27" fill-rule="evenodd" d="M346 74H166v48h24v24h156V74Z" clip-rule="evenodd"/><path fill="#BF0700" d="m285 122 7.629 24h4.228l-7.565-24H285Zm36.078 0-8.01 24h4.292l7.947-24h-4.229Zm-22.425 12.652h6.2l-6.74 8.487V146h13.478v-4.101h-6.573l6.796-8.487v-2.861h-13.161v4.101Z"/></g><g dress='35'><g clip-path="url(#a)"><path fill="#D22D27" d="M64 400h143l50 39 48-39h143l32 112H32l32-112Z"/><circle cx="169.971" cy="454.941" r="12" fill="#F90" transform="rotate(-45 169.971 454.941)"/><circle cx="186.941" cy="437.971" r="12" fill="#F90" transform="rotate(-45 186.941 437.971)"/><circle cx="203.912" cy="454.941" r="12" fill="#F90" transform="rotate(-45 203.912 454.941)"/><circle cx="186.941" cy="471.912" r="12" fill="#F90" transform="rotate(-45 186.941 471.912)"/><circle cx="186.941" cy="454.941" r="12" fill="#FFD600" transform="rotate(-45 186.941 454.941)"/><circle cx="393.62" cy="430.828" r="12" fill="#F90" transform="rotate(-20 393.62 430.828)"/><circle cx="416.173" cy="422.62" r="12" fill="#F90" transform="rotate(-20 416.173 422.62)"/><circle cx="424.381" cy="445.172" r="12" fill="#F90" transform="rotate(-20 424.381 445.172)"/><circle cx="401.828" cy="453.381" r="12" fill="#F90" transform="rotate(-20 401.828 453.381)"/><circle cx="409.001" cy="438" r="12" fill="#FFD600" transform="rotate(-20 409.001 438)"/><circle cx="82.381" cy="430.588" r="12" fill="#F90" transform="rotate(-20 82.38 430.588)"/><circle cx="104.933" cy="422.38" r="12" fill="#F90" transform="rotate(-20 104.933 422.38)"/><circle cx="113.141" cy="444.932" r="12" fill="#F90" transform="rotate(-20 113.141 444.932)"/><circle cx="90.589" cy="453.141" r="12" fill="#F90" transform="rotate(-20 90.589 453.141)"/><circle cx="97.761" cy="437.76" r="12" fill="#FFD600" transform="rotate(-20 97.761 437.76)"/><circle cx="110.381" cy="500.588" r="12" fill="#F90" transform="rotate(-20 110.381 500.588)"/><circle cx="132.933" cy="492.38" r="12" fill="#F90" transform="rotate(-20 132.933 492.38)"/><circle cx="141.141" cy="514.932" r="12" fill="#F90" transform="rotate(-20 141.141 514.932)"/><circle cx="118.589" cy="523.141" r="12" fill="#F90" transform="rotate(-20 118.589 523.141)"/><circle cx="125.761" cy="507.76" r="12" fill="#FFD600" transform="rotate(-20 125.761 507.76)"/><circle cx="244.381" cy="496.588" r="12" fill="#F90" transform="rotate(-20 244.381 496.588)"/><circle cx="266.933" cy="488.38" r="12" fill="#F90" transform="rotate(-20 266.933 488.38)"/><circle cx="275.141" cy="510.932" r="12" fill="#F90" transform="rotate(-20 275.141 510.932)"/><circle cx="252.589" cy="519.141" r="12" fill="#F90" transform="rotate(-20 252.589 519.141)"/><circle cx="259.761" cy="503.76" r="12" fill="#FFD600" transform="rotate(-20 259.761 503.76)"/><circle cx="316.971" cy="465.941" r="12" fill="#F90" transform="rotate(-45 316.971 465.941)"/><circle cx="333.941" cy="448.971" r="12" fill="#F90" transform="rotate(-45 333.941 448.971)"/><circle cx="350.912" cy="465.941" r="12" fill="#F90" transform="rotate(-45 350.912 465.941)"/><circle cx="333.941" cy="482.912" r="12" fill="#F90" transform="rotate(-45 333.941 482.912)"/><circle cx="333.941" cy="465.941" r="12" fill="#FFD600" transform="rotate(-45 333.941 465.941)"/><circle cx="406.971" cy="509.941" r="12" fill="#F90" transform="rotate(-45 406.971 509.941)"/><circle cx="423.941" cy="492.971" r="12" fill="#F90" transform="rotate(-45 423.941 492.971)"/><circle cx="440.912" cy="509.941" r="12" fill="#F90" transform="rotate(-45 440.912 509.941)"/><circle cx="423.941" cy="526.912" r="12" fill="#F90" transform="rotate(-45 423.941 526.912)"/><circle cx="423.941" cy="509.941" r="12" fill="#FFD600" transform="rotate(-45 423.941 509.941)"/><path fill="#FF9490" d="m257 439-41.5 27.5-36-66.5 27.5-20 50 59ZM257 439l41.5 27.5 36-66.5-29.5-20-48 59Z"/></g><defs><clipPath id="a"><path fill="#fff" d="M0 0h512v512H0z"/></clipPath></defs></g><g beard='2'><path d="M204 270H308L324 290H188L204 270Z" fill="#121212"/></g><g face='13'><path d="M355 349.5L369.5 321L349.5 316.847L278 302L338.5 339.321L355 349.5Z" fill="white"/><path d="M349.5 316.847L369.5 321L355 349.5L338.5 339.321M349.5 316.847L278 302L338.5 339.321M349.5 316.847L338.5 339.321" stroke="#121212" stroke-width="6"/><path d="M230.711 302H280" stroke="#121212" stroke-width="6"/><path d="M206 162H238" stroke="#121212" stroke-width="6"/><path d="M210.687 217.313L233.314 194.686" stroke="#121212" stroke-width="6"/><path d="M279 217.313L301.627 194.686" stroke="#121212" stroke-width="6"/><path d="M210.687 194.687L233.314 217.314" stroke="#121212" stroke-width="6"/><path d="M279 194.687L301.627 217.314" stroke="#121212" stroke-width="6"/><path d="M274 162H306" stroke="#121212" stroke-width="6"/><path d="M256 218L266 258H246" stroke="#121212" stroke-width="6"/></g><g glass='17'><rect width="74" height="74" x="176" y="162" fill="#fff" rx="37"/><path fill="#fff" d="M166 162h49v16h-49zM242 178h28v20h-28zM346 162h-49v16h49z"/><rect width="56" height="56" x="190" y="171" fill="#D22D27" rx="28"/><rect width="74" height="74" x="262" y="162" fill="#fff" rx="37"/><rect width="56" height="56" x="266" y="171" fill="#D22D27" rx="28"/></g></svg>