<svg xmlns="http://www.w3.org/2000/svg" width="512" height="512" fill="none"><rect width="512" height="512" fill="#186450 "/><g skin='10'><path fill="#56C499" d="M134 178h32v64h-20l-12-64ZM378 178h-32v64h20l12-64Z"/><path fill="#82DCB9" d="M64 400h384l32 112H32l32-112Z"/><path fill="#D22D27" d="M87.5 427.5V400h68l-41 27.5h-27Z"/><path fill="#56C499" d="M207 346h98v54h-98z"/><path fill="#82DCB9" d="m207 377 98-12v4l-98 12v-4Z"/><path fill="#FF00B1" d="M190 118.5s-10.505-3.476-16.5 2.948c-5.596 5.995 0 18.552 0 18.552s-5.89 3.714-7 9c-2.205 10.5 4.499 15.5 4.499 15.5v8.5H192.5l35.5-63h-8s-5.5-3.667-16-2.5c-8.999 1-14 11-14 11Z"/><path fill="#82DCB9" d="M346 346V106H223l-16.5 20v16H188v15l-22 9v180h180Z"/><path fill="#D22D27" d="m294 136.5 52 12v9.5l-52-21.5Z"/><path fill="#fff" d="m313.762 134 3.625 1.69-6.762 14.501-3.625-1.69zM223 369.349l3.985-.349 1.394 15.94-3.985.348zM253 365.349l3.985-.349 1.394 15.94-3.985.348zM283 361.349l3.985-.349 1.394 15.94-3.985.348zM331.141 141l3.864 1.035-4.141 15.455-3.864-1.035zM147.129 383.208 124.576 375l-1.368 3.758 22.553 8.209zM136.364 383.547l-3.759-1.368-8.208 22.553 3.759 1.368zM115 385H91v4h24zM105 389h-4v24h4z"/></g><g hair='17'><path fill="#8B634A" d="M106 146h300v16H106zM390 122h16v24h-16zM106 122h16v24h-16zM166 26h180v120H166z"/><path fill="#77492D" d="M166 106h180v40H166z"/><path fill="#8B634A" d="m236 114 7.629 24h4.228l-7.565-24H236Zm36.078 0-8.01 24h4.292l7.947-24h-4.229Zm-22.425 12.652h6.2l-6.74 8.487V138h13.478v-4.101h-6.573l6.796-8.487v-2.861h-13.161v4.101Z"/></g><g dress='34'><path fill="#00A8FF" d="M64 400h143l50 39 48-39h143l32 112H32l32-112Z"/><mask id="a" width="448" height="112" x="32" y="400" maskUnits="userSpaceOnUse" style="mask-type:alpha"><path fill="#00A8FF" d="M64 400h143l50 39 48-39h143l32 112H32l32-112Z"/></mask><g stroke="#A7DAFF" stroke-width="6" mask="url(#a)"><path d="M37 348v200M0 416h504M0 456h504M0 496h504M77 348v200M117 348v200M157 348v200M197 348v200M237 348v200M277 348v200M317 348v200M357 348v200M397 348v200M437 348v200M477 348v200"/></g><path fill="#A7DAFF" d="m257 439-41.5 27.5-36-66.5 27.5-20 50 59ZM257 439l41.5 27.5 36-66.5-29.5-20-48 59Z"/></g><g beard='8'><rect x="204" y="286" width="12" height="60" fill="#121212"/><rect x="296" y="286" width="12" height="60" fill="#121212"/><rect x="244" y="322" width="24" height="12" fill="#121212"/><path d="M204 334H308V346L256 370L204 346V334Z" fill="#121212"/></g><g face='13'><path d="M355 349.5L369.5 321L349.5 316.847L278 302L338.5 339.321L355 349.5Z" fill="white"/><path d="M349.5 316.847L369.5 321L355 349.5L338.5 339.321M349.5 316.847L278 302L338.5 339.321M349.5 316.847L338.5 339.321" stroke="#121212" stroke-width="6"/><path d="M230.711 302H280" stroke="#121212" stroke-width="6"/><path d="M206 162H238" stroke="#121212" stroke-width="6"/><path d="M210.687 217.313L233.314 194.686" stroke="#121212" stroke-width="6"/><path d="M279 217.313L301.627 194.686" stroke="#121212" stroke-width="6"/><path d="M210.687 194.687L233.314 217.314" stroke="#121212" stroke-width="6"/><path d="M279 194.687L301.627 217.314" stroke="#121212" stroke-width="6"/><path d="M274 162H306" stroke="#121212" stroke-width="6"/><path d="M256 218L266 258H246" stroke="#121212" stroke-width="6"/></g><g glass='5'><path fill="#fff" fill-opacity=".4" d="M192 203c0-15.464 12.536-28 28-28s28 12.536 28 28-12.536 28-28 28-28-12.536-28-28Z"/><path stroke="#121212" stroke-width="6" d="M192 203c0 15.464 12.536 28 28 28s28-12.536 28-28-12.536-28-28-28-28 12.536-28 28Zm0 0-28-27M248 202h16"/><path fill="#fff" fill-opacity=".4" d="M264 203c0-15.464 12.536-28 28-28s28 12.536 28 28-12.536 28-28 28-28-12.536-28-28Z"/><path stroke="#121212" stroke-width="6" d="M320 203c0-15.464-12.536-28-28-28s-28 12.536-28 28 12.536 28 28 28 28-12.536 28-28Zm0 0 28-27"/></g></svg>