<svg xmlns="http://www.w3.org/2000/svg" width="512" height="512" fill="none"><rect width="512" height="512" fill="#FF9900 "/><g skin='0'><path fill="#E24713" d="M134 178h32v64h-20l-12-64ZM378 178h-32v64h20l12-64ZM207 346h98v54h-98z"/><path fill="#F15824" d="M64 400h384l32 112H32l32-112ZM166 106h180v240H166z"/></g><g hair='45'><path fill="#121212" d="M244 62h24v80h-24z"/><path fill="#D22D27" d="M196.5 144v-38H155l-41-58 16 96h66.5ZM316 144v-38h41.5l41-58-16 96H316Z"/></g><g dress='44'><path fill="#498693" d="M64 400h124s2 52 68 52 68-52 68-52h124l32 112H32l32-112Z"/><path fill="#1E6878" d="M256 452c-66 0-68-52-68-52h-21.5s6 73.5 89.5 73.5 89.5-73.5 89.5-73.5H324s-2 52-68 52Z"/></g><g beard='3'><path fill-rule="evenodd" clip-rule="evenodd" d="M207 346V271H305V346H256H207ZM219 283H293V315H219V283Z" fill="#121212"/></g><g face='8'><path d="M230.711 302H280" stroke="#121212" stroke-width="6"/><rect width="20" height="20" x="212" y="194" fill="#121212" rx="10"><animate attributeName="rx" begin="1s" dur="2s" keyTimes="0;0.25;0.3;0.35;1" repeatCount="indefinite" values="10;10;1;10;10"/><animate attributeName="height" begin="1s" dur="2s" keyTimes="0;0.25;0.3;0.35;1" repeatCount="indefinite" values="20;20;2;20;20"/><animate attributeName="y" begin="1s" dur="2s" keyTimes="0;0.25;0.3;0.35;1" repeatCount="indefinite" values="194;194;203;194;194"/></rect><rect width="20" height="20" x="280" y="194" fill="#121212" rx="10"><animate attributeName="rx" begin="1s" dur="2s" keyTimes="0;0.25;0.3;0.35;1" repeatCount="indefinite" values="10;10;1;10;10"/><animate attributeName="height" begin="1s" dur="2s" keyTimes="0;0.25;0.3;0.35;1" repeatCount="indefinite" values="20;20;2;20;20"/><animate attributeName="y" begin="1s" dur="2s" keyTimes="0;0.25;0.3;0.35;1" repeatCount="indefinite" values="194;194;203;194;194"/></rect><path d="M206 162H238" stroke="#121212" stroke-width="6"/><path d="M274 162H306" stroke="#121212" stroke-width="6"/><path d="M256 218L266 258H246" stroke="#121212" stroke-width="6"/></g><g glass='19'><path fill="#121212" fill-opacity=".4" d="M192 203c0-15.464 12.536-28 28-28s28 12.536 28 28-12.536 28-28 28-28-12.536-28-28Z"/><path stroke="#FFB74A" stroke-width="6" d="M220 175c-15.464 0-28 12.536-28 28m28-28c15.464 0 28 12.536 28 28s-12.536 28-28 28m0-56v28m-28 0c0 15.464 12.536 28 28 28m-28-28-28-27m56 55v-28m0 0-21 18.5m21-18.5 21.5 18.5M248 202h16"/><path fill="#121212" fill-opacity=".4" d="M320 203c0-15.464-12.536-28-28-28s-28 12.536-28 28 12.536 28 28 28 28-12.536 28-28Z"/><path stroke="#FFB74A" stroke-width="6" d="M292 175c15.464 0 28 12.536 28 28m-28-28c-15.464 0-28 12.536-28 28s12.536 28 28 28m0-56v28m28 0c0 15.464-12.536 28-28 28m28-28 28-27m-56 55v-28m0 0 21 18.5M292 203l-21.5 18.5"/></g></svg>