<svg xmlns="http://www.w3.org/2000/svg" width="512" height="512" fill="none"><rect width="512" height="512" fill="#186450 "/><g skin='7'><path fill="#2D2D2D" d="M134 178h32v64h-20l-12-64ZM378 178h-32v64h20l12-64ZM64 400h384l32 112H32l32-112Z"/><path fill="#E3E3E3" d="M136 456h240v56H136z"/><path fill="#2D2D2D" d="M207 346h98v54h-98z"/><path fill="#E3E3E3" d="M166 106h180v240H166z"/><path fill="#2D2D2D" d="M246 204c0 16.016-12.984 31.5-29 31.5s-35-15.484-35-31.5 23.484-29.5 39.5-29.5S246 187.984 246 204ZM266 204.5c0 16.016 12.984 31.5 29 31.5s35-15.484 35-31.5-23.484-29.5-39.5-29.5-24.5 13.484-24.5 29.5Z"/></g><g hair='40'><path fill="#FFB74A" d="M134 166h244v-24H134z"/><path fill="#42B16C" d="M134 192h32v-26h-32zM134 142h37V78h-37z"/><path fill="#FFB74A" d="M171 142h34V78h-34z"/><path fill="#42B16C" d="M205 142h34V78h-34z"/><path fill="#FFB74A" d="M239 142h34V78h-34z"/><path fill="#42B16C" d="M273 142h34V78h-34z"/><path fill="#FFB74A" d="M307 142h34V78h-34z"/><path fill="#42B16C" d="M341 142h37V78h-37z"/><path fill="#FFB74A" d="M134 217h32v-25h-32z"/><path fill="#42B16C" d="M134 243h32v-26h-32z"/><path fill="#FFB74A" d="M134 269h32v-26h-32z"/><path fill="#42B16C" d="M134 295h32v-26h-32z"/><path fill="#FFB74A" d="M134 320h32v-25h-32z"/><path fill="#42B16C" d="M134 346h32v-26h-32zM346 192h32v-26h-32z"/><path fill="#FFB74A" d="M346 217h32v-25h-32z"/><path fill="#42B16C" d="M346 243h32v-26h-32z"/><path fill="#FFB74A" d="M346 269h32v-26h-32z"/><path fill="#42B16C" d="M346 295h32v-26h-32z"/><path fill="#FFB74A" d="M346 320h32v-25h-32z"/><path fill="#42B16C" d="M346 346h32v-26h-32z"/></g><g dress='5'><g clip-path="url(#a)"><path fill="#121212" d="M64 400h96s0 72 96 72 96-72 96-72h96l32 112H32l32-112Z"/><path fill="#2D2D2D" d="M150.5 400H207v133.5h-22l-52-90h31L150.5 400ZM361.5 400H305v133.5h22l52-90h-31l13.5-43.5Z"/><path fill="#fff" d="M207 512h98v-73h-98v73Z"/><path fill="#C9C9C9" d="M207 439v-39l50 39h-50ZM305 439v-39l-48 39h48Z"/><path fill="#121212" d="M241 439h32l-8 24h-16l-8-24ZM241 512h32l-8-49h-16l-8 49Z"/></g><defs><clipPath id="a"><path fill="#fff" d="M0 0h512v512H0z"/></clipPath></defs></g><g beard='2'><path d="M204 270H308L324 290H188L204 270Z" fill="#121212"/></g><g face='34'><path d="M206 162H238" stroke="#121212" stroke-width="6"/><path d="M206 202C206 202 212 194 222 194C232 194 238 202 238 202" stroke="#121212" stroke-width="6"/><path d="M274 202C274 202 280 194 290 194C300 194 306 202 306 202" stroke="#121212" stroke-width="6"/><path d="M274 162H306" stroke="#121212" stroke-width="6"/><path d="M216 284H296L292 301L288 317H224L220 301L216 284Z" fill="white"/><path d="M220 301L224 317H288L292 301M220 301L216 284H296L292 301M220 301H292" stroke="#121212" stroke-width="6"/><path d="M256 218L266 258H246" stroke="#121212" stroke-width="6"/><path d="M256.25 401.5C219 401.5 199 377.5 199 377.5L245.841 301H266.659L313.5 377.5C313.5 377.5 293.5 401.5 256.25 401.5Z" fill="#FFB74A" stroke="#121212" stroke-width="6"/><path d="M256.25 401.5C219 401.5 199 377.5 199 377.5L206.654 365C206.654 365 224.5 384 256.25 384C285 384 305.846 365 305.846 365L313.5 377.5C313.5 377.5 293.5 401.5 256.25 401.5Z" fill="#FF9900" stroke="#121212" stroke-width="6"/><circle cx="241" cy="359" r="12" fill="#D22D27"/><circle cx="257" cy="321" r="10" fill="#D22D27"/><circle cx="273" cy="351" r="10" fill="#D22D27"/></g><g glass='14'><mask id="a" fill="#fff"><path d="m256 230-21 16h-69v-68h180v68h-69l-21-16Z"/></mask><path fill="#0047FF" d="M166 198h180v-6H166v6Zm0 15.5h180v-6H166v6Zm0 15.5h180v-6H166v6Zm90 1 3.636-4.773a6 6 0 0 0-7.272 0L256 230Zm-21 16v6h2.025l1.611-1.227L235 246Zm-69 0h-6v6h6v-6Zm180 0v6h6v-6h-6Zm-69 0-3.636 4.773 1.611 1.227H277v-6Zm-111-68v-6h-6v6h6Zm180 0h6v-6h-6v6Zm-93.636 47.227-21 16 7.272 9.546 21-16-7.272-9.546ZM235 240h-69v12h69v-12Zm111 0h-69v12h69v-12Zm-65.364 1.227-21-16-7.272 9.546 21 16 7.272-9.546ZM172 195v-17h-12v17h12Zm168-17v17h12v-17h-12Zm-168 32.5V195h-12v15.5h12ZM340 195v15.5h12V195h-12Zm-168 51v-20h-12v20h12Zm0-20v-15.5h-12V226h12Zm168-15.5V226h12v-15.5h-12Zm0 15.5v20h12v-20h-12Zm-174-42h180v-12H166v12Z" mask="url(#a)"/></g></svg>