<svg xmlns="http://www.w3.org/2000/svg" width="512" height="512" fill="none"><rect width="512" height="512" fill="#FF9900 "/><g skin='11'><path fill="#D5A300" d="M134 178h32v64h-20l-12-64ZM378 178h-32v64h20l12-64ZM207 346h98v54h-98z"/><path fill="#E3B41A" d="M64 400h384l32 112H32l32-112ZM166 106h180v240H166z"/></g><g hair='13'><path fill="#121212" d="M334 154h12v52h-12zM166 154h12v52h-12zM166 57.956 346 102v52H166V57.956Z"/><path fill="#00A8FF" d="M166 122h180v32H166z"/><path fill="#A7DAFF" d="m236 126 7.629 24h4.228l-7.565-24H236Zm36.078 0-8.01 24h4.292l7.947-24h-4.229Zm-22.425 12.652h6.2l-6.74 8.487V150h13.478v-4.101h-6.573l6.796-8.487v-2.861h-13.161v4.101Z"/></g><g dress='41'><g clip-path="url(#a)"><path fill="#2D2D2D" d="M64 400h124s2 52 68 52 68-52 68-52h124l32 112H32l32-112Z"/><path stroke="#5B6062" stroke-width="6" d="M174 413H75.5L45 516.5M338 413h98.5L467 516.5"/></g><defs><clipPath id="a"><path fill="#fff" d="M0 0h512v512H0z"/></clipPath></defs></g><g beard='7'><rect x="204" y="286" width="12" height="60" fill="#121212"/><rect x="296" y="286" width="12" height="60" fill="#121212"/><rect x="250" y="322" width="12" height="24" fill="#121212"/><rect x="204" y="274" width="104" height="12" fill="#121212"/><rect x="196" y="334" width="120" height="12" fill="#121212"/><path d="M166 258L196 274V346H166V258Z" fill="#121212"/><path d="M346 258L316 274V346H346V258Z" fill="#121212"/></g><g face='15'><path d="M355 349.5L369.5 321L349.5 316.847L278 302L338.5 339.321L355 349.5Z" fill="white"/><path d="M349.5 316.847L369.5 321L355 349.5L338.5 339.321M349.5 316.847L278 302L338.5 339.321M349.5 316.847L338.5 339.321" stroke="#121212" stroke-width="6"/><path d="M230.711 302H280" stroke="#121212" stroke-width="6"/><rect width="20" height="20" x="212" y="194" fill="#121212" rx="10"><animate attributeName="rx" begin="1s" dur="2s" keyTimes="0;0.25;0.3;0.35;1" repeatCount="indefinite" values="10;10;1;10;10"/><animate attributeName="height" begin="1s" dur="2s" keyTimes="0;0.25;0.3;0.35;1" repeatCount="indefinite" values="20;20;2;20;20"/><animate attributeName="y" begin="1s" dur="2s" keyTimes="0;0.25;0.3;0.35;1" repeatCount="indefinite" values="194;194;203;194;194"/></rect><rect width="20" height="20" x="280" y="194" fill="#121212" rx="10"><animate attributeName="rx" begin="1s" dur="2s" keyTimes="0;0.25;0.3;0.35;1" repeatCount="indefinite" values="10;10;1;10;10"/><animate attributeName="height" begin="1s" dur="2s" keyTimes="0;0.25;0.3;0.35;1" repeatCount="indefinite" values="20;20;2;20;20"/><animate attributeName="y" begin="1s" dur="2s" keyTimes="0;0.25;0.3;0.35;1" repeatCount="indefinite" values="194;194;203;194;194"/></rect><path d="M206 197H238" stroke="#121212" stroke-width="6"/><path d="M274 197H306" stroke="#121212" stroke-width="6"/><path d="M256 218L266 258H246" stroke="#121212" stroke-width="6"/></g><g glass='14'><mask id="a" fill="#fff"><path d="m256 230-21 16h-69v-68h180v68h-69l-21-16Z"/></mask><path fill="#0047FF" d="M166 198h180v-6H166v6Zm0 15.5h180v-6H166v6Zm0 15.5h180v-6H166v6Zm90 1 3.636-4.773a6 6 0 0 0-7.272 0L256 230Zm-21 16v6h2.025l1.611-1.227L235 246Zm-69 0h-6v6h6v-6Zm180 0v6h6v-6h-6Zm-69 0-3.636 4.773 1.611 1.227H277v-6Zm-111-68v-6h-6v6h6Zm180 0h6v-6h-6v6Zm-93.636 47.227-21 16 7.272 9.546 21-16-7.272-9.546ZM235 240h-69v12h69v-12Zm111 0h-69v12h69v-12Zm-65.364 1.227-21-16-7.272 9.546 21 16 7.272-9.546ZM172 195v-17h-12v17h12Zm168-17v17h12v-17h-12Zm-168 32.5V195h-12v15.5h12ZM340 195v15.5h12V195h-12Zm-168 51v-20h-12v20h12Zm0-20v-15.5h-12V226h12Zm168-15.5V226h12v-15.5h-12Zm0 15.5v20h12v-20h-12Zm-174-42h180v-12H166v12Z" mask="url(#a)"/></g></svg>