<svg xmlns="http://www.w3.org/2000/svg" width="512" height="512" fill="none"><rect width="512" height="512" fill="#00FF94 "/><g skin='10'><path fill="#56C499" d="M134 178h32v64h-20l-12-64ZM378 178h-32v64h20l12-64Z"/><path fill="#82DCB9" d="M64 400h384l32 112H32l32-112Z"/><path fill="#D22D27" d="M87.5 427.5V400h68l-41 27.5h-27Z"/><path fill="#56C499" d="M207 346h98v54h-98z"/><path fill="#82DCB9" d="m207 377 98-12v4l-98 12v-4Z"/><path fill="#FF00B1" d="M190 118.5s-10.505-3.476-16.5 2.948c-5.596 5.995 0 18.552 0 18.552s-5.89 3.714-7 9c-2.205 10.5 4.499 15.5 4.499 15.5v8.5H192.5l35.5-63h-8s-5.5-3.667-16-2.5c-8.999 1-14 11-14 11Z"/><path fill="#82DCB9" d="M346 346V106H223l-16.5 20v16H188v15l-22 9v180h180Z"/><path fill="#D22D27" d="m294 136.5 52 12v9.5l-52-21.5Z"/><path fill="#fff" d="m313.762 134 3.625 1.69-6.762 14.501-3.625-1.69zM223 369.349l3.985-.349 1.394 15.94-3.985.348zM253 365.349l3.985-.349 1.394 15.94-3.985.348zM283 361.349l3.985-.349 1.394 15.94-3.985.348zM331.141 141l3.864 1.035-4.141 15.455-3.864-1.035zM147.129 383.208 124.576 375l-1.368 3.758 22.553 8.209zM136.364 383.547l-3.759-1.368-8.208 22.553 3.759 1.368zM115 385H91v4h24zM105 389h-4v24h4z"/></g><g hair='26'><path fill="#fff" d="M166 166h180V78H166z"/><circle cx="256" cy="60" r="44" fill="#fff"/><circle cx="188" cy="84" r="44" fill="#fff"/><circle cx="324" cy="84" r="44" fill="#fff"/><path fill="#C9C9C9" d="m236 126 7.629 24h4.228l-7.565-24H236Zm36.078 0-8.01 24h4.292l7.947-24h-4.229Zm-22.425 12.652h6.2l-6.74 8.487V150h13.478v-4.101h-6.573l6.796-8.487v-2.861h-13.161v4.101Z"/></g><g dress='33'><path fill="#121212" d="M64 400h143l50 39 48-39h143l32 112H32l32-112Z"/><circle cx="6" cy="6" r="6" fill="#fff" transform="matrix(1 0 0 -1 79 429)"/><circle cx="6" cy="6" r="6" fill="#fff" transform="matrix(1 0 0 -1 347 429)"/><circle cx="6" cy="6" r="6" fill="#fff" transform="matrix(1 0 0 -1 99 465)"/><circle cx="6" cy="6" r="6" fill="#fff" transform="matrix(1 0 0 -1 115 501)"/><circle cx="6" cy="6" r="6" fill="#fff" transform="matrix(1 0 0 -1 367 465)"/><circle cx="6" cy="6" r="6" fill="#fff" transform="matrix(1 0 0 -1 347 501)"/><circle cx="6" cy="6" r="6" fill="#fff" transform="matrix(1 0 0 -1 63 465)"/><circle cx="6" cy="6" r="6" fill="#fff" transform="matrix(1 0 0 -1 79 501)"/><circle cx="6" cy="6" r="6" fill="#fff" transform="matrix(1 0 0 -1 43 501)"/><circle cx="6" cy="6" r="6" fill="#fff" transform="matrix(1 0 0 -1 331 465)"/><circle cx="6" cy="6" r="6" fill="#fff" transform="matrix(1 0 0 -1 311 501)"/><circle cx="6" cy="6" r="6" fill="#fff" transform="matrix(1 0 0 -1 275 501)"/><circle cx="6" cy="6" r="6" fill="#fff" transform="matrix(1 0 0 -1 115 429)"/><circle cx="6" cy="6" r="6" fill="#fff" transform="matrix(1 0 0 -1 383 429)"/><circle cx="6" cy="6" r="6" fill="#fff" transform="matrix(1 0 0 -1 135 465)"/><circle cx="6" cy="6" r="6" fill="#fff" transform="matrix(1 0 0 -1 151 501)"/><circle cx="6" cy="6" r="6" fill="#fff" transform="matrix(1 0 0 -1 403 465)"/><circle cx="6" cy="6" r="6" fill="#fff" transform="matrix(1 0 0 -1 383 501)"/><circle cx="6" cy="6" r="6" fill="#fff" transform="matrix(1 0 0 -1 151 429)"/><circle cx="6" cy="6" r="6" fill="#fff" transform="matrix(1 0 0 -1 419 429)"/><circle cx="6" cy="6" r="6" fill="#fff" transform="matrix(1 0 0 -1 171 465)"/><circle cx="6" cy="6" r="6" fill="#fff" transform="matrix(1 0 0 -1 187 501)"/><circle cx="6" cy="6" r="6" fill="#fff" transform="matrix(1 0 0 -1 223 501)"/><circle cx="6" cy="6" r="6" fill="#fff" transform="matrix(1 0 0 -1 251 468)"/><circle cx="6" cy="6" r="6" fill="#fff" transform="matrix(1 0 0 -1 439 465)"/><circle cx="6" cy="6" r="6" fill="#fff" transform="matrix(1 0 0 -1 419 501)"/><circle cx="6" cy="6" r="6" fill="#fff" transform="matrix(1 0 0 -1 455 501)"/><path fill="#fff" d="m257 439-41.5 27.5-36-66.5 27.5-20 50 59ZM257 439l41.5 27.5 36-66.5-29.5-20-48 59Z"/></g><g beard='8'><rect x="204" y="286" width="12" height="60" fill="#121212"/><rect x="296" y="286" width="12" height="60" fill="#121212"/><rect x="244" y="322" width="24" height="12" fill="#121212"/><path d="M204 334H308V346L256 370L204 346V334Z" fill="#121212"/></g><g face='24'><rect width="20" height="20" x="212" y="194" fill="#121212" rx="10"><animate attributeName="rx" begin="1s" dur="2s" keyTimes="0;0.25;0.3;0.35;1" repeatCount="indefinite" values="10;10;1;10;10"/><animate attributeName="height" begin="1s" dur="2s" keyTimes="0;0.25;0.3;0.35;1" repeatCount="indefinite" values="20;20;2;20;20"/><animate attributeName="y" begin="1s" dur="2s" keyTimes="0;0.25;0.3;0.35;1" repeatCount="indefinite" values="194;194;203;194;194"/></rect><rect width="20" height="20" x="280" y="194" fill="#121212" rx="10"><animate attributeName="rx" begin="1s" dur="2s" keyTimes="0;0.25;0.3;0.35;1" repeatCount="indefinite" values="10;10;1;10;10"/><animate attributeName="height" begin="1s" dur="2s" keyTimes="0;0.25;0.3;0.35;1" repeatCount="indefinite" values="20;20;2;20;20"/><animate attributeName="y" begin="1s" dur="2s" keyTimes="0;0.25;0.3;0.35;1" repeatCount="indefinite" values="194;194;203;194;194"/></rect><path d="M206 197H238" stroke="#121212" stroke-width="6"/><path d="M274 197H306" stroke="#121212" stroke-width="6"/><path d="M230.711 302H280" stroke="#121212" stroke-width="6"/><path d="M256 218L266 258H246" stroke="#121212" stroke-width="6"/><path d="M374.191 370.784L386.191 350L277.75 301.825L374.191 370.784Z" fill="#77492D" stroke="#121212" stroke-width="6"/><path d="M351.27 334.486L343.134 348.577L330.874 339.811L337.485 328.362L351.27 334.486Z" fill="#FF9900" stroke="#121212" stroke-width="6"/><path d="M374.191 370.784L386.191 350L376.542 345.713L365.609 364.648L374.191 370.784Z" fill="white" stroke="#121212" stroke-width="6"/></g><g glass='23'><path fill="#121212" fill-opacity=".4" d="M192 203c0-15.464 12.536-28 28-28s28 12.536 28 28-12.536 28-28 28-28-12.536-28-28Z"/><path stroke="#121212" stroke-width="6" d="M192 203c0 15.464 12.536 28 28 28s28-12.536 28-28-12.536-28-28-28-28 12.536-28 28Zm0 0-28-27M248 202h16"/><path fill="#121212" fill-opacity=".4" d="M264 203c0-15.464 12.536-28 28-28s28 12.536 28 28-12.536 28-28 28-28-12.536-28-28Z"/><path stroke="#121212" stroke-width="6" d="M320 203c0-15.464-12.536-28-28-28s-28 12.536-28 28 12.536 28 28 28 28-12.536 28-28Zm0 0 28-27"/></g></svg>