<svg xmlns="http://www.w3.org/2000/svg" width="512" height="512" fill="none"><rect width="512" height="512" fill="#A7FF00 "/><g skin='8'><path fill="#B7009A" d="M134 178h32v64h-20l-12-64ZM378 178h-32v64h20l12-64Z"/><path fill="#D800B5" d="M64 400h384l32 112H32l32-112Z"/><path fill="#B7009A" d="M207 346h98v54h-98z"/><path fill="#D800B5" d="M166 106h180v240H166z"/><path fill="#fff" d="m256 174-12.161-28L256 118l12.161 28L256 174Z"/><circle cx="256" cy="146" r="7.92" fill="#007089" transform="rotate(-90 256 146)"/><path fill="#fff" d="m256 500-12.161-28L256 444l12.161 28L256 500Z"/><circle cx="256" cy="472" r="7.92" fill="#007089" transform="rotate(-90 256 472)"/><path fill="#fff" d="m284 484 28-12.161L340 484l-28 12.161L284 484Z"/><circle cx="312" cy="484" r="7.92" fill="#007089"/><path fill="#fff" d="m172 484 28-12.161L228 484l-28 12.161L172 484Z"/><circle cx="200" cy="484" r="7.92" fill="#007089"/><path fill="#fff" d="m92 484 28-12.161L148 484l-28 12.161L92 484Z"/><circle cx="120" cy="484" r="7.92" fill="#007089"/><path fill="#fff" d="m364 484 28-12.161L420 484l-28 12.161L364 484Z"/><circle cx="392" cy="484" r="7.92" fill="#007089"/><path fill="#fff" d="m197.799 411.799 11.2 28.398 28.398 11.2-11.2-28.398-28.398-11.2Z"/><circle cx="7.92" cy="7.92" r="7.92" fill="#007089" transform="scale(1 -1) rotate(-45 -417.786 -464.942)"/><path fill="#fff" d="m134.061 416.936 15.961 26.022 29.911 6.099-15.961-26.022-29.911-6.099Z"/><circle cx="7.92" cy="7.92" r="7.92" fill="#007089" transform="scale(1 -1) rotate(-35 -616.745 -448.945)"/><path fill="#fff" d="m72.06 420.936 15.962 26.022 29.911 6.099-15.961-26.022-29.911-6.099Z"/><circle cx="7.92" cy="7.92" r="7.92" fill="#007089" transform="scale(1 -1) rotate(-35 -654.089 -352.625)"/><path fill="#fff" d="m381.933 416.936-15.961 26.022-29.912 6.099 15.961-26.022 29.912-6.099Z"/><circle cx="358.997" cy="432.997" r="7.92" fill="#007089" transform="rotate(145 358.997 432.997)"/><path fill="#fff" d="m443.933 416.936-15.961 26.022-29.912 6.099 15.961-26.022 29.912-6.099Z"/><circle cx="420.997" cy="432.997" r="7.92" fill="#007089" transform="rotate(145 420.997 432.997)"/><path fill="#fff" d="m315.397 411.799-11.2 28.398-28.398 11.2 11.2-28.398 28.398-11.2Z"/><circle cx="295.599" cy="431.598" r="7.92" fill="#007089" transform="rotate(135 295.599 431.598)"/><path fill="#fff" d="m294.799 169.397 11.2-28.398 28.398-11.2-11.2 28.398-28.398 11.2Z"/><circle cx="314.597" cy="149.598" r="7.92" fill="#007089" transform="rotate(-45 314.597 149.598)"/><path fill="#fff" d="m177.799 129.799 11.2 28.398 28.398 11.2-11.2-28.398-28.398-11.2Z"/><circle cx="7.92" cy="7.92" r="7.92" fill="#007089" transform="scale(1 -1) rotate(-45 -87.382 -299.8)"/><path fill="#fff" d="m228 372 28-12.161L284 372l-28 12.161L228 372Z"/><circle cx="256" cy="372" r="7.92" fill="#007089"/></g><g hair='64'><path fill="#ECECEC" d="M256 76c-37.003 0-67 29.997-67 67h134c0-37.003-29.997-67-67-67Z"/><path fill="#fff" d="M142 106h228l-24 56H166l-24-56Z"/><path fill="#ECECEC" d="m236 122 7.629 24h4.228l-7.565-24H236Zm36.078 0-8.01 24h4.292l7.947-24h-4.229Zm-22.425 12.652h6.2l-6.74 8.487V146h13.478v-4.101h-6.573l6.796-8.487v-2.861h-13.161v4.101Z"/></g><g dress='89'><path fill="#fff" d="M207 400h98v-26h-98v26Z"/><path fill="#1D1D1D" d="M64 400h384l32 112H32l32-112Z"/><path fill="#121212" d="M63.5 400H207v112H31.5l32-112ZM448.5 400H305v112h175.5l-32-112Z"/><path fill="#1D1D1D" d="m338 456 7.629 24h4.228l-7.565-24H338Zm36.078 0-8.01 24h4.292l7.947-24h-4.229Zm-22.425 12.652h6.2l-6.74 8.487V480h13.478v-4.101h-6.573l6.796-8.487v-2.861h-13.161v4.101Z"/><path stroke="#fff" stroke-linejoin="round" stroke-width="28" d="m218 487.5 38-95.5s20.036 58.205 38 95.5"/></g><g beard='8'><rect x="204" y="286" width="12" height="60" fill="#121212"/><rect x="296" y="286" width="12" height="60" fill="#121212"/><rect x="244" y="322" width="24" height="12" fill="#121212"/><path d="M204 334H308V346L256 370L204 346V334Z" fill="#121212"/></g><g face='25'><rect width="20" height="20" x="212" y="194" fill="#121212" rx="10"><animate attributeName="rx" begin="1s" dur="2s" keyTimes="0;0.25;0.3;0.35;1" repeatCount="indefinite" values="10;10;1;10;10"/><animate attributeName="height" begin="1s" dur="2s" keyTimes="0;0.25;0.3;0.35;1" repeatCount="indefinite" values="20;20;2;20;20"/><animate attributeName="y" begin="1s" dur="2s" keyTimes="0;0.25;0.3;0.35;1" repeatCount="indefinite" values="194;194;203;194;194"/></rect><rect width="20" height="20" x="280" y="194" fill="#121212" rx="10"><animate attributeName="rx" begin="1s" dur="2s" keyTimes="0;0.25;0.3;0.35;1" repeatCount="indefinite" values="10;10;1;10;10"/><animate attributeName="height" begin="1s" dur="2s" keyTimes="0;0.25;0.3;0.35;1" repeatCount="indefinite" values="20;20;2;20;20"/><animate attributeName="y" begin="1s" dur="2s" keyTimes="0;0.25;0.3;0.35;1" repeatCount="indefinite" values="194;194;203;194;194"/></rect><path d="M206 197H238" stroke="#121212" stroke-width="6"/><path d="M274 197H306" stroke="#121212" stroke-width="6"/><path d="M230.711 302H280" stroke="#121212" stroke-width="6"/><path d="M256 218L266 258H246" stroke="#121212" stroke-width="6"/><path d="M277.61 301.679L354.933 356.968L364.554 340.304L277.61 301.679Z" fill="white" stroke="#121212" stroke-width="6"/><path d="M277.61 301.679L322.241 333.592L327.767 324.022L277.61 301.679Z" fill="#FFB74A" stroke="#121212" stroke-width="6"/></g><g glass='17'><rect width="74" height="74" x="176" y="162" fill="#fff" rx="37"/><path fill="#fff" d="M166 162h49v16h-49zM242 178h28v20h-28zM346 162h-49v16h49z"/><rect width="56" height="56" x="190" y="171" fill="#D22D27" rx="28"/><rect width="74" height="74" x="262" y="162" fill="#fff" rx="37"/><rect width="56" height="56" x="266" y="171" fill="#D22D27" rx="28"/></g></svg>