<svg xmlns="http://www.w3.org/2000/svg" width="512" height="512" fill="none"><rect width="512" height="512" fill="#7B0000 "/><g skin='9'><mask id="a" width="32" height="64" x="346" y="178" maskUnits="userSpaceOnUse" style="mask-type:alpha"><path fill="#B7009A" d="M378 178h-32v64h20l12-64Z"/></mask><g mask="url(#a)"><path fill="#FF00B1" d="M374 248v-30h-30v30h30Z"/><path fill="#FFD600" d="M338 206h52v24c-6.833-6.5-21.9-15.6-27.5 0-5.6 15.6-18.667 13.167-24.5 10v-34Z"/><path fill="#A7FF00" d="m380 225 8-37h-49v27.722c-.006.179 0 .278 0 .278v-.278c.047-1.422.853-7.86 11.5-8.722 13.161-1.066 29.5 18 29.5 18Z"/><path fill="#AD00FF" d="M340 172h48v25c-3.5-3-21.5-14-26.5 9.5s-19.5-2-21.5-9.5v-25Z"/></g><mask id="b" width="448" height="406" x="32" y="106" maskUnits="userSpaceOnUse" style="mask-type:alpha"><path fill="#D800B5" fill-rule="evenodd" d="M346 106H166v240h180V106Zm102 294H64L32 512h448l-32-112Z" clip-rule="evenodd"/></mask><g mask="url(#b)"><path fill="#FF00B1" d="M46.5 149.86c-55.344 24.043-130.5 36-130.5 36v31.5l638.5-14.5v-53s-85.425-82.073-158.5-71c-49.4 7.486-68.135 70.181-116.5 57.64-39.759-10.309-80.556-54.677-119-69.14-54.716-20.585-60.381 59.206-114 82.5Z"/><path fill="#00A8FF" d="m22 168.583 34 112.5 551-8.5 26-97s-24.445-86.791-80-83c-54.894 3.746-84.978 104.61-140 104.5-66.849-.133-20.286-106.801-85.5-121.5-76.487-17.24-102.2 111.772-180 121.5-49.87 6.236-125.5-28.5-125.5-28.5Z"/><path fill="#FFD600" d="M6 197.71v96h538.5l14.5-96S541.789 37.156 468 65.313C422.551 82.657 416.208 191.2 368 197.71c-48.239 6.514-74.368-107.49-123-105.397-46.27 1.993-68.398 71.914-114 80-38.986 6.913-53.647-41.234-91-28.103-32.999 11.601-34 53.5-34 53.5Z"/><path fill="#AD00FF" d="m-31 216.675 34 112.5 551-8.5 26-97S553.555 108.3 498 112.091c-54.894 3.747-63.978 111.694-119 111.584-66.849-.134 15.714-86.976-49.5-101.675-76.487-17.24-188.7 71.363-266.5 81.091-49.87 6.236-94 13.584-94 13.584Z"/><path fill="#FFB74A" d="M38.5 230.86c-55.344 24.043-130.5 36-130.5 36v31.5l638.5-14.5v-53s-107.425-93.573-180.5-82.5c-49.4 7.486-54.135 61.181-102.5 48.64-39.759-10.309-72.556-34.177-111-48.64-54.716-20.585-60.381 59.206-114 82.5Z"/><path fill="#D22D27" d="M153 184.5C90.326 170.393 14 308.713 14 308.713h484v-99.5s-74.165 62.155-130.5 61.5c-44.746-.52-64.274-54.303-107-41-20.635 6.424-10.107 19.722-31.5 22.787-33.71 4.829-42.777-60.522-76-68Z"/><path fill="#A7FF00" d="m-37 273.815 10.5 103h558v-179s6.503-46.17-44.5-46.002c-69.108.228-81.137 153.126-149.5 143.002-50.157-7.427-29.083-125.616-79.5-131.002-55.757-5.955-98.507 148.51-154.5 145.5-37.97-2.04-53.977-88.316-92-88-40.655.339-48.5 52.502-48.5 52.502Z"/><path fill="#AD00FF" d="M-18 296.313c-61.503 23.397 0 104 0 104h566v-137s-29.853-72.407-66-78c-59.972-9.278-61.497 166.629-120 150.501-86.991-23.983-49.5-137.501-146-114.501-46.688 11.128-66.273 109.437-114 114.5-47.493 5.039-62.039-61.549-120-39.5Z"/><path fill="#00A8FF" d="M0 387.397v95.999h538.5l14.5-95.999s3.289-156.157-70.5-128c-45.449 17.342-59.292 104.99-107.5 111.5-48.239 6.514-71.868-106.095-120.5-104-46.27 1.992-108.398 112.413-154 120.5-38.986 6.912-29.147-66.632-66.5-53.5-32.999 11.6-34 53.5-34 53.5Z"/><path fill="#C2FD52" d="m-50 399.583 34 112.5 551-8.5 26-97s-24.445-86.791-80-83c-54.894 3.746-84.978 104.61-140 104.5-66.849-.133-20.286-106.801-85.5-121.5-76.487-17.239-102.2 111.772-180 121.5-49.87 6.236-125.5-28.5-125.5-28.5Z"/><path fill="#FF00B1" d="M-45.665 427.355c-61.503 23.396 0 104 0 104h566v-137s-29.853-72.408-66-78c-59.972-9.278-61.497 166.628-120 150.5-86.991-23.983-49.5-137.5-146-114.5-46.688 11.127-66.273 109.437-114 114.5-47.493 5.038-62.039-61.55-120-39.5Z"/><path fill="#FFB74A" d="M89.602 499.384C34.214 517.413-41 526.379-41 526.379V550l639-10.873v-39.743s-85.492-61.545-158.624-53.241c-49.439 5.613-68.189 52.627-116.591 43.223-39.791-7.731-80.62-41.001-119.094-51.847-54.758-15.436-60.428 44.398-114.089 61.865Z"/><path fill="#D22D27" d="M184 465.927C121.326 455.142 53 542 53 542h484v-76.073s-74.165 47.521-130.5 47.02c-44.746-.398-64.274-41.517-107-31.346-20.635 4.912-24.107 21.74-45.5 24.083-33.71 3.692-36.777-34.039-70-39.757Z"/></g><mask id="c" width="98" height="54" x="207" y="346" maskUnits="userSpaceOnUse" style="mask-type:alpha"><path fill="#B7009A" d="M207 346h98v54h-98z"/></mask><g mask="url(#c)"><path fill="#FF00B1" d="m173 337.923 9.794 39.047L341.511 375 349 339.546s-7.042-20.117-23.044-19.239c-15.813.869-24.478 24.248-40.328 24.223-19.256-.031-5.843-24.756-24.628-28.163-22.032-3.996-29.439 25.908-51.849 28.163-14.366 1.445-36.151-6.607-36.151-6.607Z"/><path fill="#FFD600" d="M184 373.384V397h131.46l3.54-23.616s-4.202-39.495-22.215-32.569c-11.095 4.266-12.644 30.968-24.412 32.569-11.777 1.603-18.156-26.442-30.028-25.927-11.295.49-16.697 17.691-27.83 19.68-9.517 1.7-13.096-10.144-22.215-6.914-8.056 2.854-8.3 13.161-8.3 13.161Z"/><path fill="#D22D27" d="M206.023 390.035c-12.309 5.331-29.023 7.981-29.023 7.981V405h142v-14.965s-18.998-18.196-35.25-15.741c-10.986 1.66-15.153 15.56-25.909 12.779-8.842-2.285-17.915-12.122-26.465-15.328-12.169-4.564-13.429 13.126-25.353 18.29Z"/></g><mask id="d" width="32" height="64" x="134" y="178" maskUnits="userSpaceOnUse" style="mask-type:alpha"><path fill="#B7009A" d="M134 178h32v64h-20l-12-64Z"/></mask><g mask="url(#d)"><path fill="#FF00B1" d="M138 248v-30h30v30h-30Z"/><path fill="#FFD600" d="M174 206h-52v24c6.833-6.5 21.9-15.6 27.5 0 5.6 15.6 18.667 13.167 24.5 10v-34Z"/><path fill="#A7FF00" d="m132 225-8-37h49v27.722c.006.179 0 .278 0 .278v-.278c-.047-1.422-.853-7.86-11.5-8.722-13.161-1.066-29.5 18-29.5 18Z"/><path fill="#AD00FF" d="M172 172h-48v25c3.5-3 21.5-14 26.5 9.5s19.5-2 21.5-9.5v-25Z"/></g></g><g hair='72'><path fill="#C9BBC3" d="M166 162h180v-24H166z"/><path fill="#DDD1D8" d="M166 138h180V52.5L301 102l-46-49.5-44 49.5-45-49.5V138Z"/><circle cx="167" cy="48" r="12" fill="#C9BBC3"/><circle cx="256" cy="48" r="12" fill="#C9BBC3"/><circle cx="345" cy="48" r="12" fill="#C9BBC3"/></g><g dress='53'><path fill="#fff" d="M207 481h98v-73s-15.5 24-48 24-50-24-50-24v73Z"/><path fill="#D33600" d="M64 400h143l50 67 48-67h143l32 112H32l32-112Z"/><path fill="#FF9672" d="m338 456 7.629 24h4.228l-7.565-24H338Zm36.078 0-8.01 24h4.292l7.947-24h-4.229Zm-22.425 12.652h6.2l-6.74 8.487V480h13.478v-4.101h-6.573l6.796-8.487v-2.861h-13.161v4.101ZM207 400l50 67-122-67h72ZM305 400l-48 67 122-67h-74Z"/><path stroke="#FF9672" stroke-width="6" d="M257 465v47"/><path fill="#121212" d="M171.925 456.262c-1.131-.601-2-1.335-2.608-2.202-.608-.867-.939-1.795-.993-2.784-.054-.989.178-1.971.696-2.946l2.693-5.064c.639-1.201 1.409-2.069 2.309-2.605a5.214 5.214 0 0 1 2.971-.731c1.072.063 2.159.387 3.261.973 1.102.586 1.958 1.277 2.568 2.072.624.803.971 1.667 1.041 2.592.084.933-.129 1.879-.64 2.84l-2.755-1.465a2.476 2.476 0 0 0 .208-1.873c-.177-.656-.745-1.239-1.706-1.75-.947-.503-1.813-.647-2.598-.43-.772.224-1.39.774-1.856 1.65l-.811 1.525.381.203c.39-.155.9-.228 1.53-.219.63.008 1.418.264 2.364.768.862.458 1.556 1.062 2.081 1.813a5.03 5.03 0 0 1 .924 2.556c.084.933-.137 1.894-.663 2.883l-.135.254c-.519.975-1.21 1.713-2.074 2.213-.857.487-1.822.717-2.895.69-1.065-.041-2.163-.362-3.293-.963Zm1.326-2.393c.89.473 1.714.612 2.47.416.771-.188 1.363-.671 1.776-1.448l.09-.169c.278-.523.398-1.039.361-1.548-.023-.501-.198-.975-.523-1.419-.311-.438-.763-.814-1.357-1.13-.579-.308-1.144-.472-1.694-.493a2.736 2.736 0 0 0-1.491.349c-.429.262-.782.653-1.06 1.176l-.09.17c-.413.777-.49 1.534-.229 2.27.275.744.857 1.353 1.747 1.826Zm11.519 9.223c-1.102-.586-1.965-1.28-2.589-2.083-.61-.796-.957-1.66-1.041-2.592-.07-.925.15-1.868.661-2.829l2.755 1.465a2.478 2.478 0 0 0-.208 1.874c.191.663.76 1.246 1.706 1.749.961.511 1.827.655 2.598.431.779-.239 1.398-.789 1.856-1.65l.811-1.526-.381-.203c-.39.155-.9.228-1.53.22-.616-.002-1.404-.258-2.364-.768a5.926 5.926 0 0 1-2.081-1.813 5.087 5.087 0 0 1-.935-2.536c-.076-.947.148-1.915.674-2.903l.135-.255c.526-.989 1.217-1.726 2.074-2.213.857-.487 1.818-.71 2.884-.669 1.073.027 2.174.341 3.304.942 1.131.601 2 1.335 2.608 2.202.608.867.939 1.795.993 2.784.054.989-.178 1.971-.696 2.946l-2.693 5.064c-.639 1.201-1.419 2.073-2.342 2.615a5.085 5.085 0 0 1-2.96.71c-1.057-.055-2.137-.376-3.239-.962Zm4.186-7.668c.593.315 1.158.48 1.694.493.551.021 1.041-.099 1.47-.36.443-.254.803-.642 1.081-1.165l.09-.169c.421-.792.49-1.552.208-2.282-.261-.737-.836-1.342-1.726-1.815-.89-.473-1.721-.616-2.491-.427-.749.181-1.334.668-1.755 1.459l-.09.169c-.278.523-.405 1.035-.382 1.537.037.509.219.986.544 1.431.325.445.777.821 1.357 1.129Zm9.167 14.768c-1.13-.6-1.999-1.334-2.607-2.201-.608-.867-.939-1.795-.993-2.785-.054-.989.178-1.971.696-2.945l2.693-5.065c.639-1.201 1.408-2.069 2.309-2.605a5.214 5.214 0 0 1 2.971-.731c1.072.063 2.159.387 3.261.973 1.102.586 1.958 1.277 2.568 2.072.624.803.971 1.667 1.041 2.592.084.933-.13 1.88-.64 2.84l-2.755-1.465a2.48 2.48 0 0 0 .208-1.873c-.177-.656-.746-1.239-1.706-1.75-.947-.503-1.813-.647-2.599-.43-.771.224-1.39.774-1.855 1.65l-.812 1.525.382.203c.39-.155.9-.228 1.53-.219.63.009 1.418.264 2.364.768a5.83 5.83 0 0 1 2.081 1.813c.539.758.847 1.61.923 2.557.084.932-.137 1.893-.662 2.882l-.136.254c-.518.975-1.209 1.713-2.074 2.214-.856.486-1.821.716-2.894.689-1.066-.041-2.164-.362-3.294-.963Zm1.327-2.393c.89.473 1.713.612 2.47.416.77-.188 1.362-.67 1.775-1.447l.091-.17c.277-.523.398-1.039.36-1.548-.023-.501-.197-.975-.522-1.419-.311-.438-.764-.814-1.357-1.129-.579-.308-1.144-.473-1.695-.494a2.734 2.734 0 0 0-1.49.349c-.429.262-.782.654-1.06 1.176l-.09.17c-.414.777-.49 1.534-.229 2.27.275.744.857 1.353 1.747 1.826Zm11.518 9.223c-1.102-.586-1.965-1.28-2.589-2.083-.61-.795-.957-1.66-1.041-2.592-.069-.925.151-1.868.662-2.829l2.755 1.465a2.478 2.478 0 0 0-.208 1.874c.191.663.759 1.246 1.706 1.75.96.51 1.827.654 2.598.43.779-.238 1.398-.788 1.856-1.65l.811-1.526-.381-.203c-.391.155-.901.228-1.53.22-.616-.001-1.404-.257-2.365-.768a5.931 5.931 0 0 1-2.08-1.813 5.087 5.087 0 0 1-.935-2.536c-.077-.947.148-1.914.674-2.903l.135-.255c.526-.989 1.217-1.726 2.074-2.213.857-.487 1.818-.71 2.883-.669 1.073.027 2.175.341 3.305.942 1.13.601 1.999 1.335 2.608 2.202.608.867.939 1.795.993 2.784.054.989-.178 1.971-.697 2.946l-2.693 5.064c-.638 1.201-1.419 2.073-2.341 2.615a5.087 5.087 0 0 1-2.96.71c-1.058-.055-2.138-.376-3.24-.962Zm4.186-7.668c.594.315 1.159.48 1.695.493.551.021 1.041-.099 1.469-.36.443-.254.804-.642 1.082-1.165l.09-.169c.42-.791.49-1.552.207-2.282-.26-.737-.836-1.342-1.726-1.815-.89-.473-1.72-.615-2.491-.427-.749.181-1.333.668-1.754 1.459l-.09.17c-.278.522-.405 1.034-.382 1.536.037.509.218.986.544 1.431.325.445.777.821 1.356 1.129Z"/></g><g beard='0'><path fill-rule="evenodd" clip-rule="evenodd" d="M346 266H166V349L256 382L346 349V266ZM297 281H215V323H297V281Z" fill="#121212"/></g><g face='11'><rect width="20" height="20" x="212" y="194" fill="#121212" rx="10"><animate attributeName="rx" begin="1s" dur="2s" keyTimes="0;0.25;0.3;0.35;1" repeatCount="indefinite" values="10;10;1;10;10"/><animate attributeName="height" begin="1s" dur="2s" keyTimes="0;0.25;0.3;0.35;1" repeatCount="indefinite" values="20;20;2;20;20"/><animate attributeName="y" begin="1s" dur="2s" keyTimes="0;0.25;0.3;0.35;1" repeatCount="indefinite" values="194;194;203;194;194"/></rect><rect width="20" height="20" x="280" y="194" fill="#121212" rx="10"><animate attributeName="rx" begin="1s" dur="2s" keyTimes="0;0.25;0.3;0.35;1" repeatCount="indefinite" values="10;10;1;10;10"/><animate attributeName="height" begin="1s" dur="2s" keyTimes="0;0.25;0.3;0.35;1" repeatCount="indefinite" values="20;20;2;20;20"/><animate attributeName="y" begin="1s" dur="2s" keyTimes="0;0.25;0.3;0.35;1" repeatCount="indefinite" values="194;194;203;194;194"/></rect><path d="M206 162H238" stroke="#121212" stroke-width="6"/><path d="M274 162H306" stroke="#121212" stroke-width="6"/><path d="M256 218L266 258H246" stroke="#121212" stroke-width="6"/><path d="M296 282H216C216 282 216 318 256.028 318C296.057 318 296 282 296 282Z" fill="white"/></g><g glass='8'><path fill="#121212" d="M134 178h33v64h-33v-64ZM378 178h-33v64h33v-64Z"/><path fill="#2D2D2D" d="M166 162h180v90H166z"/><path fill="#121212" d="M182 178h148v74H182z"/></g></svg>