<svg xmlns="http://www.w3.org/2000/svg" width="512" height="512" fill="none"><rect width="512" height="512" fill="#572828 "/><g skin='6'><path fill="#36CF00" d="M134 178h32v64h-20l-12-64ZM378 178h-32v64h20l12-64Z"/><path fill="#3BE200" d="M64 400h384l32 112H32l32-112Z"/><path fill="#36CF00" d="M207 346h98v54h-98z"/><path fill="#3BE200" d="M166 106h180v240H166z"/></g><g hair='5'><path fill="#121212" d="M165.999 106v240h-61c-30-46 24-67.75 24-67.75s-24-6.75-24-33.875 24-33.875 24-33.875-24-10-24-33.875 24-33.875 24-33.875-11.691-39.25 8.501-58.25 55.249-9.5 55.249-9.5 8.75-40 63.75-40 63.75 40 63.75 40S357.5 66.215 377 84.5s7.249 58.25 7.249 58.25 24.22 3.75 24.5 33.875c.25 26.875-24 33.875-24 33.875s24.5 7.25 24.25 33.875-24.25 33.875-24.25 33.875S441 299 408.999 346h-63V106h-180Z"/><ellipse cx="174.5" cy="124.5" fill="#121212" rx="37.5" ry="33.5"/><ellipse cx="256" cy="106" fill="#121212" rx="61" ry="45"/><ellipse cx="335" cy="124.5" fill="#121212" rx="40" ry="33.5"/><path fill="#fff" d="M115 155h51v95h-51zM346 155h51v95h-51zM166 106v49h-28V77h236v78h-28v-49H166Z"/></g><g dress='37'><path fill="#121212" d="M64 400h124s2 52 68 52 68-52 68-52h124l32 112H32l32-112Z"/><path fill="#D22D27" d="M352 459.451 328 492l8.39-23.557H328L338.927 444h10.341l-5.853 15.451H352Z"/></g><g beard='1'><path d="M166 266L206 286V346H166V266Z" fill="#121212"/><path d="M346 266L306 286V346H346V266Z" fill="#121212"/><rect x="206" y="322" width="100" height="24" fill="#121212"/></g><g face='21'><path d="M230.711 302H280" stroke="#121212" stroke-width="6"/><path d="M343 318L278 302L355 349.5L368 323.5L375 309.5L352.5 299L345.75 312.5L343 318Z" fill="#77492D"/><path d="M368 323.5L375 309.5L352.5 299L345.75 312.5M368 323.5L355 349.5L278 302L343 318L345.75 312.5M368 323.5L345.75 312.5" stroke="#121212" stroke-width="6"/><path d="M208.144 160L235.856 176" stroke="#121212" stroke-width="6"/><path d="M276.144 176L303.856 160" stroke="#121212" stroke-width="6"/><rect width="20" height="20" x="212" y="194" fill="#121212" rx="10"><animate attributeName="rx" begin="1s" dur="2s" keyTimes="0;0.25;0.3;0.35;1" repeatCount="indefinite" values="10;10;1;10;10"/><animate attributeName="height" begin="1s" dur="2s" keyTimes="0;0.25;0.3;0.35;1" repeatCount="indefinite" values="20;20;2;20;20"/><animate attributeName="y" begin="1s" dur="2s" keyTimes="0;0.25;0.3;0.35;1" repeatCount="indefinite" values="194;194;203;194;194"/></rect><rect width="20" height="20" x="280" y="194" fill="#121212" rx="10"><animate attributeName="rx" begin="1s" dur="2s" keyTimes="0;0.25;0.3;0.35;1" repeatCount="indefinite" values="10;10;1;10;10"/><animate attributeName="height" begin="1s" dur="2s" keyTimes="0;0.25;0.3;0.35;1" repeatCount="indefinite" values="20;20;2;20;20"/><animate attributeName="y" begin="1s" dur="2s" keyTimes="0;0.25;0.3;0.35;1" repeatCount="indefinite" values="194;194;203;194;194"/></rect><path d="M256 218L266 258H246" stroke="#121212" stroke-width="6"/></g><g glass='23'><path fill="#121212" fill-opacity=".4" d="M192 203c0-15.464 12.536-28 28-28s28 12.536 28 28-12.536 28-28 28-28-12.536-28-28Z"/><path stroke="#121212" stroke-width="6" d="M192 203c0 15.464 12.536 28 28 28s28-12.536 28-28-12.536-28-28-28-28 12.536-28 28Zm0 0-28-27M248 202h16"/><path fill="#121212" fill-opacity=".4" d="M264 203c0-15.464 12.536-28 28-28s28 12.536 28 28-12.536 28-28 28-28-12.536-28-28Z"/><path stroke="#121212" stroke-width="6" d="M320 203c0-15.464-12.536-28-28-28s-28 12.536-28 28 12.536 28 28 28 28-12.536 28-28Zm0 0 28-27"/></g></svg>