<svg xmlns="http://www.w3.org/2000/svg" width="512" height="512" fill="none"><rect width="512" height="512" fill="#7B0000 "/><g skin='3'><path fill="#E24713" d="M134 178h32v64h-20l-12-64ZM378 178h-32v64h20l12-64Z"/><path fill="#C9C9C9" d="M207 346h98v9h-98z"/><path fill="#D9D9D9" d="M207 355h98v9h-98z"/><path fill="#C9C9C9" d="M207 364h98v9h-98z"/><path fill="#D9D9D9" d="M207 373h98v9h-98z"/><path fill="#C9C9C9" d="M207 382h98v9h-98z"/><path fill="#D9D9D9" d="M207 391h98v9h-98z"/><path fill="#F15824" d="M64 400h384l32 112H32l32-112Z"/><path fill="#D9D9D9" d="M64 400h56v88H76v24H32l32-112Z"/><path fill="#F15824" d="M166 106h180v240H166z"/><path fill="#D9D9D9" d="M264 146h82v200h-16.5V244.5L264 226v-80ZM166 106h40v44h-40v-44ZM234 322h44v24h-44z"/><circle cx="148" cy="436" r="12" fill="#D9D9D9"/><circle cx="332" cy="160" r="6" fill="#C9C9C9"/><circle cx="332" cy="180" r="6" fill="#C9C9C9"/><circle cx="92" cy="436" r="12" fill="#C9C9C9"/></g><g hair='69'><path fill="#D22D27" d="M166 138h180V50H166z"/><path fill="#FFB74A" d="M150 162h212v-24H150zM230 24h52v114h-52z"/><path fill="#D22D27" d="m236 38 7.505 24h4.159l-7.442-24H236Zm35.492 0-7.88 24h4.222l7.818-24h-4.16Zm-22.061 12.652h6.099l-6.63 8.487V62h13.259v-4.1h-6.466l6.685-8.489v-2.86h-12.947v4.1Z"/><circle cx="256" cy="150" r="6" fill="#D22D27"/><circle cx="256" cy="116" r="6" fill="#D22D27"/><circle cx="256" cy="88" r="6" fill="#D22D27"/><circle cx="220" cy="150" r="6" fill="#D22D27"/><circle cx="184" cy="150" r="6" fill="#D22D27"/><circle cx="328" cy="150" r="6" fill="#D22D27"/><circle cx="292" cy="150" r="6" fill="#D22D27"/><path fill="#FFB74A" d="M166 50h24v88h-24zM322 50h24v88h-24z"/><circle cx="334" cy="116" r="6" fill="#D22D27"/><circle cx="178" cy="116" r="6" fill="#D22D27"/><circle cx="334" cy="88" r="6" fill="#D22D27"/><circle cx="334" cy="60" r="6" fill="#D22D27"/><circle cx="178" cy="88" r="6" fill="#D22D27"/><circle cx="178" cy="60" r="6" fill="#D22D27"/></g><g dress='5'><g clip-path="url(#a)"><path fill="#121212" d="M64 400h96s0 72 96 72 96-72 96-72h96l32 112H32l32-112Z"/><path fill="#2D2D2D" d="M150.5 400H207v133.5h-22l-52-90h31L150.5 400ZM361.5 400H305v133.5h22l52-90h-31l13.5-43.5Z"/><path fill="#fff" d="M207 512h98v-73h-98v73Z"/><path fill="#C9C9C9" d="M207 439v-39l50 39h-50ZM305 439v-39l-48 39h48Z"/><path fill="#121212" d="M241 439h32l-8 24h-16l-8-24ZM241 512h32l-8-49h-16l-8 49Z"/></g><defs><clipPath id="a"><path fill="#fff" d="M0 0h512v512H0z"/></clipPath></defs></g><g beard='1'><path d="M166 266L206 286V346H166V266Z" fill="#121212"/><path d="M346 266L306 286V346H346V266Z" fill="#121212"/><rect x="206" y="322" width="100" height="24" fill="#121212"/></g><g face='24'><rect width="20" height="20" x="212" y="194" fill="#121212" rx="10"><animate attributeName="rx" begin="1s" dur="2s" keyTimes="0;0.25;0.3;0.35;1" repeatCount="indefinite" values="10;10;1;10;10"/><animate attributeName="height" begin="1s" dur="2s" keyTimes="0;0.25;0.3;0.35;1" repeatCount="indefinite" values="20;20;2;20;20"/><animate attributeName="y" begin="1s" dur="2s" keyTimes="0;0.25;0.3;0.35;1" repeatCount="indefinite" values="194;194;203;194;194"/></rect><rect width="20" height="20" x="280" y="194" fill="#121212" rx="10"><animate attributeName="rx" begin="1s" dur="2s" keyTimes="0;0.25;0.3;0.35;1" repeatCount="indefinite" values="10;10;1;10;10"/><animate attributeName="height" begin="1s" dur="2s" keyTimes="0;0.25;0.3;0.35;1" repeatCount="indefinite" values="20;20;2;20;20"/><animate attributeName="y" begin="1s" dur="2s" keyTimes="0;0.25;0.3;0.35;1" repeatCount="indefinite" values="194;194;203;194;194"/></rect><path d="M206 197H238" stroke="#121212" stroke-width="6"/><path d="M274 197H306" stroke="#121212" stroke-width="6"/><path d="M230.711 302H280" stroke="#121212" stroke-width="6"/><path d="M256 218L266 258H246" stroke="#121212" stroke-width="6"/><path d="M374.191 370.784L386.191 350L277.75 301.825L374.191 370.784Z" fill="#77492D" stroke="#121212" stroke-width="6"/><path d="M351.27 334.486L343.134 348.577L330.874 339.811L337.485 328.362L351.27 334.486Z" fill="#FF9900" stroke="#121212" stroke-width="6"/><path d="M374.191 370.784L386.191 350L376.542 345.713L365.609 364.648L374.191 370.784Z" fill="white" stroke="#121212" stroke-width="6"/></g><g glass='22'><path fill="#FFD600" fill-opacity=".4" d="M192 203c0-15.464 12.536-28 28-28s28 12.536 28 28-12.536 28-28 28-28-12.536-28-28Z"/><path stroke="#121212" stroke-width="6" d="M192 203c0 15.464 12.536 28 28 28s28-12.536 28-28-12.536-28-28-28-28 12.536-28 28Zm0 0-28-27M248 202h16"/><path fill="#FFD600" fill-opacity=".4" d="M264 203c0-15.464 12.536-28 28-28s28 12.536 28 28-12.536 28-28 28-28-12.536-28-28Z"/><path stroke="#121212" stroke-width="6" d="M320 203c0-15.464-12.536-28-28-28s-28 12.536-28 28 12.536 28 28 28 28-12.536 28-28Zm0 0 28-27"/></g></svg>