<svg xmlns="http://www.w3.org/2000/svg" width="512" height="512" fill="none"><rect width="512" height="512" fill="#0047FF "/><g skin='10'><path fill="#56C499" d="M134 178h32v64h-20l-12-64ZM378 178h-32v64h20l12-64Z"/><path fill="#82DCB9" d="M64 400h384l32 112H32l32-112Z"/><path fill="#D22D27" d="M87.5 427.5V400h68l-41 27.5h-27Z"/><path fill="#56C499" d="M207 346h98v54h-98z"/><path fill="#82DCB9" d="m207 377 98-12v4l-98 12v-4Z"/><path fill="#FF00B1" d="M190 118.5s-10.505-3.476-16.5 2.948c-5.596 5.995 0 18.552 0 18.552s-5.89 3.714-7 9c-2.205 10.5 4.499 15.5 4.499 15.5v8.5H192.5l35.5-63h-8s-5.5-3.667-16-2.5c-8.999 1-14 11-14 11Z"/><path fill="#82DCB9" d="M346 346V106H223l-16.5 20v16H188v15l-22 9v180h180Z"/><path fill="#D22D27" d="m294 136.5 52 12v9.5l-52-21.5Z"/><path fill="#fff" d="m313.762 134 3.625 1.69-6.762 14.501-3.625-1.69zM223 369.349l3.985-.349 1.394 15.94-3.985.348zM253 365.349l3.985-.349 1.394 15.94-3.985.348zM283 361.349l3.985-.349 1.394 15.94-3.985.348zM331.141 141l3.864 1.035-4.141 15.455-3.864-1.035zM147.129 383.208 124.576 375l-1.368 3.758 22.553 8.209zM136.364 383.547l-3.759-1.368-8.208 22.553 3.759 1.368zM115 385H91v4h24zM105 389h-4v24h4z"/></g><g hair='33'><path fill="#FFEE59" d="M166 142h180V74H166z"/><path fill="#DFCC21" d="M166 166h180v-24H166z"/><path fill="#FFEE59" d="M244 166h24v32l-12 12-12-12v-32ZM166 166h24v142c-13.255 0-24-10.745-24-24V166ZM346 166h-24v142c13.255 0 24-10.745 24-24V166Z"/><path fill="#D22D27" d="M244 34h24v80h-24z"/></g><g dress='53'><path fill="#fff" d="M207 481h98v-73s-15.5 24-48 24-50-24-50-24v73Z"/><path fill="#D33600" d="M64 400h143l50 67 48-67h143l32 112H32l32-112Z"/><path fill="#FF9672" d="m338 456 7.629 24h4.228l-7.565-24H338Zm36.078 0-8.01 24h4.292l7.947-24h-4.229Zm-22.425 12.652h6.2l-6.74 8.487V480h13.478v-4.101h-6.573l6.796-8.487v-2.861h-13.161v4.101ZM207 400l50 67-122-67h72ZM305 400l-48 67 122-67h-74Z"/><path stroke="#FF9672" stroke-width="6" d="M257 465v47"/><path fill="#121212" d="M171.925 456.262c-1.131-.601-2-1.335-2.608-2.202-.608-.867-.939-1.795-.993-2.784-.054-.989.178-1.971.696-2.946l2.693-5.064c.639-1.201 1.409-2.069 2.309-2.605a5.214 5.214 0 0 1 2.971-.731c1.072.063 2.159.387 3.261.973 1.102.586 1.958 1.277 2.568 2.072.624.803.971 1.667 1.041 2.592.084.933-.129 1.879-.64 2.84l-2.755-1.465a2.476 2.476 0 0 0 .208-1.873c-.177-.656-.745-1.239-1.706-1.75-.947-.503-1.813-.647-2.598-.43-.772.224-1.39.774-1.856 1.65l-.811 1.525.381.203c.39-.155.9-.228 1.53-.219.63.008 1.418.264 2.364.768.862.458 1.556 1.062 2.081 1.813a5.03 5.03 0 0 1 .924 2.556c.084.933-.137 1.894-.663 2.883l-.135.254c-.519.975-1.21 1.713-2.074 2.213-.857.487-1.822.717-2.895.69-1.065-.041-2.163-.362-3.293-.963Zm1.326-2.393c.89.473 1.714.612 2.47.416.771-.188 1.363-.671 1.776-1.448l.09-.169c.278-.523.398-1.039.361-1.548-.023-.501-.198-.975-.523-1.419-.311-.438-.763-.814-1.357-1.13-.579-.308-1.144-.472-1.694-.493a2.736 2.736 0 0 0-1.491.349c-.429.262-.782.653-1.06 1.176l-.09.17c-.413.777-.49 1.534-.229 2.27.275.744.857 1.353 1.747 1.826Zm11.519 9.223c-1.102-.586-1.965-1.28-2.589-2.083-.61-.796-.957-1.66-1.041-2.592-.07-.925.15-1.868.661-2.829l2.755 1.465a2.478 2.478 0 0 0-.208 1.874c.191.663.76 1.246 1.706 1.749.961.511 1.827.655 2.598.431.779-.239 1.398-.789 1.856-1.65l.811-1.526-.381-.203c-.39.155-.9.228-1.53.22-.616-.002-1.404-.258-2.364-.768a5.926 5.926 0 0 1-2.081-1.813 5.087 5.087 0 0 1-.935-2.536c-.076-.947.148-1.915.674-2.903l.135-.255c.526-.989 1.217-1.726 2.074-2.213.857-.487 1.818-.71 2.884-.669 1.073.027 2.174.341 3.304.942 1.131.601 2 1.335 2.608 2.202.608.867.939 1.795.993 2.784.054.989-.178 1.971-.696 2.946l-2.693 5.064c-.639 1.201-1.419 2.073-2.342 2.615a5.085 5.085 0 0 1-2.96.71c-1.057-.055-2.137-.376-3.239-.962Zm4.186-7.668c.593.315 1.158.48 1.694.493.551.021 1.041-.099 1.47-.36.443-.254.803-.642 1.081-1.165l.09-.169c.421-.792.49-1.552.208-2.282-.261-.737-.836-1.342-1.726-1.815-.89-.473-1.721-.616-2.491-.427-.749.181-1.334.668-1.755 1.459l-.09.169c-.278.523-.405 1.035-.382 1.537.037.509.219.986.544 1.431.325.445.777.821 1.357 1.129Zm9.167 14.768c-1.13-.6-1.999-1.334-2.607-2.201-.608-.867-.939-1.795-.993-2.785-.054-.989.178-1.971.696-2.945l2.693-5.065c.639-1.201 1.408-2.069 2.309-2.605a5.214 5.214 0 0 1 2.971-.731c1.072.063 2.159.387 3.261.973 1.102.586 1.958 1.277 2.568 2.072.624.803.971 1.667 1.041 2.592.084.933-.13 1.88-.64 2.84l-2.755-1.465a2.48 2.48 0 0 0 .208-1.873c-.177-.656-.746-1.239-1.706-1.75-.947-.503-1.813-.647-2.599-.43-.771.224-1.39.774-1.855 1.65l-.812 1.525.382.203c.39-.155.9-.228 1.53-.219.63.009 1.418.264 2.364.768a5.83 5.83 0 0 1 2.081 1.813c.539.758.847 1.61.923 2.557.084.932-.137 1.893-.662 2.882l-.136.254c-.518.975-1.209 1.713-2.074 2.214-.856.486-1.821.716-2.894.689-1.066-.041-2.164-.362-3.294-.963Zm1.327-2.393c.89.473 1.713.612 2.47.416.77-.188 1.362-.67 1.775-1.447l.091-.17c.277-.523.398-1.039.36-1.548-.023-.501-.197-.975-.522-1.419-.311-.438-.764-.814-1.357-1.129-.579-.308-1.144-.473-1.695-.494a2.734 2.734 0 0 0-1.49.349c-.429.262-.782.654-1.06 1.176l-.09.17c-.414.777-.49 1.534-.229 2.27.275.744.857 1.353 1.747 1.826Zm11.518 9.223c-1.102-.586-1.965-1.28-2.589-2.083-.61-.795-.957-1.66-1.041-2.592-.069-.925.151-1.868.662-2.829l2.755 1.465a2.478 2.478 0 0 0-.208 1.874c.191.663.759 1.246 1.706 1.75.96.51 1.827.654 2.598.43.779-.238 1.398-.788 1.856-1.65l.811-1.526-.381-.203c-.391.155-.901.228-1.53.22-.616-.001-1.404-.257-2.365-.768a5.931 5.931 0 0 1-2.08-1.813 5.087 5.087 0 0 1-.935-2.536c-.077-.947.148-1.914.674-2.903l.135-.255c.526-.989 1.217-1.726 2.074-2.213.857-.487 1.818-.71 2.883-.669 1.073.027 2.175.341 3.305.942 1.13.601 1.999 1.335 2.608 2.202.608.867.939 1.795.993 2.784.054.989-.178 1.971-.697 2.946l-2.693 5.064c-.638 1.201-1.419 2.073-2.341 2.615a5.087 5.087 0 0 1-2.96.71c-1.058-.055-2.138-.376-3.24-.962Zm4.186-7.668c.594.315 1.159.48 1.695.493.551.021 1.041-.099 1.469-.36.443-.254.804-.642 1.082-1.165l.09-.169c.42-.791.49-1.552.207-2.282-.26-.737-.836-1.342-1.726-1.815-.89-.473-1.72-.615-2.491-.427-.749.181-1.333.668-1.754 1.459l-.09.17c-.278.522-.405 1.034-.382 1.536.037.509.218.986.544 1.431.325.445.777.821 1.356 1.129Z"/></g><g beard='9'><rect x="236" y="322" width="40" height="24" fill="#121212"/><rect x="166" y="242" width="12" height="104" fill="#121212"/><rect x="334" y="242" width="12" height="104" fill="#121212"/><path d="M166 286H207V346H166V286Z" fill="#121212"/><path d="M346 286H305V346H346V286Z" fill="#121212"/></g><g face='17'><path d="M231.114 302H280.403L292 290" stroke="#121212" stroke-width="6"/><path d="M206 162H238" stroke="#121212" stroke-width="6"/><path d="M206 202C206 202 212 194 222 194C232 194 238 202 238 202" stroke="#121212" stroke-width="6"/><path d="M274 202C274 202 280 194 290 194C300 194 306 202 306 202" stroke="#121212" stroke-width="6"/><path d="M274 162H306" stroke="#121212" stroke-width="6"/><path d="M256 218L266 258H246" stroke="#121212" stroke-width="6"/></g><g glass='15'><path fill="#121212" d="m235 250 21-16 21 16h69v-72H166v72h69Z"/><circle cx="176" cy="190" r="4" fill="#0047FF"/><circle cx="176" cy="206" r="4" fill="#0047FF"/><circle cx="176" cy="222" r="4" fill="#0047FF"/><circle cx="176" cy="238" r="4" fill="#0047FF"/><circle cx="192" cy="190" r="4" fill="#79CBDC"/><circle cx="192" cy="206" r="4" fill="#79CBDC"/><circle cx="192" cy="222" r="4" fill="#79CBDC"/><circle cx="192" cy="238" r="4" fill="#79CBDC"/><circle cx="208" cy="190" r="4" fill="#79CBDC"/><circle cx="208" cy="206" r="4" fill="#0047FF"/><circle cx="208" cy="222" r="4" fill="#79CBDC"/><circle cx="208" cy="238" r="4" fill="#79CBDC"/><circle cx="224" cy="190" r="4" fill="#79CBDC"/><circle cx="224" cy="206" r="4" fill="#0047FF"/><circle cx="224" cy="222" r="4" fill="#79CBDC"/><circle cx="224" cy="238" r="4" fill="#79CBDC"/><circle cx="240" cy="190" r="4" fill="#0047FF"/><circle cx="240" cy="206" r="4" fill="#0047FF"/><circle cx="240" cy="222" r="4" fill="#0047FF"/><circle cx="240" cy="238" r="4" fill="#0047FF"/><circle cx="256" cy="190" r="4" fill="#0047FF"/><circle cx="256" cy="206" r="4" fill="#0047FF"/><circle cx="256" cy="222" r="4" fill="#0047FF"/><circle cx="272" cy="190" r="4" fill="#0047FF"/><circle cx="272" cy="206" r="4" fill="#0047FF"/><circle cx="272" cy="222" r="4" fill="#0047FF"/><circle cx="272" cy="238" r="4" fill="#0047FF"/><circle cx="288" cy="190" r="4" fill="#79CBDC"/><circle cx="288" cy="206" r="4" fill="#79CBDC"/><circle cx="288" cy="222" r="4" fill="#0047FF"/><circle cx="288" cy="238" r="4" fill="#79CBDC"/><circle cx="304" cy="190" r="4" fill="#79CBDC"/><circle cx="304" cy="206" r="4" fill="#79CBDC"/><circle cx="304" cy="222" r="4" fill="#0047FF"/><circle cx="304" cy="238" r="4" fill="#79CBDC"/><circle cx="320" cy="190" r="4" fill="#79CBDC"/><circle cx="320" cy="206" r="4" fill="#79CBDC"/><circle cx="320" cy="222" r="4" fill="#79CBDC"/><circle cx="320" cy="238" r="4" fill="#79CBDC"/><circle cx="336" cy="190" r="4" fill="#0047FF"/><circle cx="336" cy="206" r="4" fill="#0047FF"/><circle cx="336" cy="222" r="4" fill="#0047FF"/><circle cx="336" cy="238" r="4" fill="#0047FF"/></g></svg>