<svg xmlns="http://www.w3.org/2000/svg" width="512" height="512" fill="none"><rect width="512" height="512" fill="#FFD600 "/><g skin='6'><path fill="#36CF00" d="M134 178h32v64h-20l-12-64ZM378 178h-32v64h20l12-64Z"/><path fill="#3BE200" d="M64 400h384l32 112H32l32-112Z"/><path fill="#36CF00" d="M207 346h98v54h-98z"/><path fill="#3BE200" d="M166 106h180v240H166z"/></g><g hair='71'><path fill="#42B16C" d="M181.729 133.565a8.382 8.382 0 0 1-14.71-8.038c2.22-4.062 15.84-11.508 15.84-11.508s1.09 15.484-1.13 19.546ZM216.729 120.565a8.382 8.382 0 0 1-14.71-8.038c2.22-4.062 15.84-11.508 15.84-11.508s1.09 15.484-1.13 19.546ZM229.716 144.65a7.93 7.93 0 0 1-2.495-10.935 7.93 7.93 0 0 1 10.935-2.495c3.708 2.331 9.956 15.624 9.956 15.624s-14.688.137-18.396-2.194ZM192.716 158.65a7.93 7.93 0 0 1-2.495-10.935 7.93 7.93 0 0 1 10.935-2.495c3.708 2.331 9.956 15.624 9.956 15.624s-14.688.137-18.396-2.194ZM164.716 169.65a7.93 7.93 0 0 1-2.495-10.935 7.93 7.93 0 0 1 10.935-2.495c3.708 2.331 9.956 15.624 9.956 15.624s-14.688.137-18.396-2.194Z"/><path stroke="#94EDB6" stroke-width="6" d="m154.5 152 32-12 16-6 16-6 16-6"/><path fill="#42B16C" d="M334.603 133.565a8.382 8.382 0 0 0 14.71-8.038c-2.22-4.062-15.84-11.508-15.84-11.508s-1.09 15.484 1.13 19.546ZM299.603 120.565a8.382 8.382 0 0 0 14.71-8.038c-2.22-4.062-15.84-11.508-15.84-11.508s-1.09 15.484 1.13 19.546ZM286.617 144.65a7.93 7.93 0 0 0 2.494-10.935 7.93 7.93 0 0 0-10.935-2.495c-3.708 2.331-9.956 15.624-9.956 15.624s14.688.137 18.397-2.194ZM323.617 158.65a7.93 7.93 0 0 0 2.494-10.935 7.93 7.93 0 0 0-10.935-2.495c-3.708 2.331-9.956 15.624-9.956 15.624s14.688.137 18.397-2.194ZM351.617 169.65a7.93 7.93 0 0 0 2.494-10.935 7.93 7.93 0 0 0-10.935-2.495c-3.708 2.331-9.956 15.624-9.956 15.624s14.688.137 18.397-2.194Z"/><path stroke="#94EDB6" stroke-width="6" d="m361.832 152-32-12-16-6-16-6-16-6"/></g><g dress='74'><path fill="#F15824" d="M64 400h384l32 112H32l32-112Z"/><path fill="#fff" d="M64 400h112v112H32l32-112ZM448 400H336v112h144l-32-112Z"/><path fill="#ECECEC" d="M137 400h70v112h-41l-29-55.5 29-21.5-29-35ZM375 400h-70v112h41l29-55.5-29-21.5 29-35Z"/><path fill="#D22D27" d="m108 441 99-66.5V471l-34-30h-65ZM404 441l-99-66.5V471l34-30h65Z"/></g><g beard='2'><path d="M204 270H308L324 290H188L204 270Z" fill="#121212"/></g><g face='31'><rect width="20" height="20" x="212" y="194" fill="#121212" rx="10"><animate attributeName="rx" begin="1s" dur="2s" keyTimes="0;0.25;0.3;0.35;1" repeatCount="indefinite" values="10;10;1;10;10"/><animate attributeName="height" begin="1s" dur="2s" keyTimes="0;0.25;0.3;0.35;1" repeatCount="indefinite" values="20;20;2;20;20"/><animate attributeName="y" begin="1s" dur="2s" keyTimes="0;0.25;0.3;0.35;1" repeatCount="indefinite" values="194;194;203;194;194"/></rect><rect width="20" height="20" x="280" y="194" fill="#121212" rx="10"><animate attributeName="rx" begin="1s" dur="2s" keyTimes="0;0.25;0.3;0.35;1" repeatCount="indefinite" values="10;10;1;10;10"/><animate attributeName="height" begin="1s" dur="2s" keyTimes="0;0.25;0.3;0.35;1" repeatCount="indefinite" values="20;20;2;20;20"/><animate attributeName="y" begin="1s" dur="2s" keyTimes="0;0.25;0.3;0.35;1" repeatCount="indefinite" values="194;194;203;194;194"/></rect><path d="M208.144 160L235.856 176" stroke="#121212" stroke-width="6"/><path d="M276.144 176L303.856 160" stroke="#121212" stroke-width="6"/><path d="M230.711 302H280" stroke="#121212" stroke-width="6"/><path d="M256 218L266 258H246" stroke="#121212" stroke-width="6"/><path d="M277.61 301.679L354.933 356.968L364.554 340.304L277.61 301.679Z" fill="white" stroke="#121212" stroke-width="6"/><path d="M277.61 301.679L322.241 333.592L327.767 324.022L277.61 301.679Z" fill="#FFB74A" stroke="#121212" stroke-width="6"/></g><g glass='11'><path fill="#121212" d="M182 175h64v20l-12 36h-52v-56Z"/><path stroke="#FFB74A" stroke-width="6" d="M182 175h64v20l-12 36h-52v-56Zm0 0h-16M247 175h19M247 193h19"/><path fill="#121212" d="M266 175h64v56h-52l-12-35.5V175Z"/><path stroke="#FFB74A" stroke-width="6" d="M330 175h-64v20.5l12 35.5h52v-56Zm0 0h16"/></g></svg>