<svg xmlns="http://www.w3.org/2000/svg" width="512" height="512" fill="none"><rect width="512" height="512" fill="#0047FF "/><g skin='0'><path fill="#E24713" d="M134 178h32v64h-20l-12-64ZM378 178h-32v64h20l12-64ZM207 346h98v54h-98z"/><path fill="#F15824" d="M64 400h384l32 112H32l32-112ZM166 106h180v240H166z"/></g><g hair='65'><path fill="#D22D27" d="M166 154h180v-48H166z"/><path fill="#FF9490" d="m293 118 7.629 24h4.228l-7.565-24H293Zm36.078 0-8.01 24h4.292l7.947-24h-4.229Zm-22.425 12.652h6.2l-6.74 8.487V142h13.478v-4.101h-6.573l6.796-8.487v-2.861h-13.161v4.101ZM166 166h180v-12H166z"/><path fill="#D22D27" d="M135.5 159.5 166 106h102.5L180 187l-44.5-27.5Z"/></g><g dress='14'><path fill="#fff" d="M96 400h64s0 72 96 72 96-72 96-72h64v112H96V400Z"/></g><g beard='3'><path fill-rule="evenodd" clip-rule="evenodd" d="M207 346V271H305V346H256H207ZM219 283H293V315H219V283Z" fill="#121212"/></g><g face='6'><path d="M206 162H238" stroke="#121212" stroke-width="6"/><path d="M274 162H306" stroke="#121212" stroke-width="6"/><path d="M219.5 193C225 186 232.5 190.5 232.5 196.5C232.5 200.918 229.349 205.219 225 206C219.615 206.966 212.5 203 211 196.5C209.154 188.5 213 179 225 179C237 179 242.5 186.987 242.5 196.5C242.5 203.5 238.5 215.375 223.5 216C217.481 216.251 203 212.5 201 197" stroke="#121212" stroke-width="6"/><path d="M292 193C286.5 186 279 190.5 279 196.5C279 200.918 282.151 205.219 286.5 206C291.885 206.966 299 203 300.5 196.5C302.346 188.5 298.5 179 286.5 179C274.5 179 269 186.987 269 196.5C269 203.5 273 215.375 288 216C294.019 216.251 308.5 212.5 310.5 197" stroke="#121212" stroke-width="6"/><path d="M284 309.25V290H261.5V309.25C261.5 315.463 266.537 320.5 272.75 320.5C278.963 320.5 284 315.463 284 309.25Z" fill="white"/><path d="M228 290H261.5M261.5 290H284V309.25C284 315.463 278.963 320.5 272.75 320.5V320.5C266.537 320.5 261.5 315.463 261.5 309.25V290Z" stroke="#121212" stroke-width="6"/><path d="M256 218L266 258H246" stroke="#121212" stroke-width="6"/></g><g glass='10'><path fill="#121212" d="M166 178h180v52l-69 4-21-16-21 16-69-4v-52Z"/><path fill="#D22D27" d="M182 194h148v20H182z"/></g></svg>