<svg xmlns="http://www.w3.org/2000/svg" width="512" height="512" fill="none"><rect width="512" height="512" fill="#186450 "/><g skin='12'><path fill="#80573E" d="M134 178h32v64h-20l-12-64ZM378 178h-32v64h20l12-64ZM207 346h98v54h-98z"/><path fill="#8B634A" d="M64 400h384l32 112H32l32-112Z"/><path fill="#AE7B5C" d="M136 456h240v56H136z"/><path fill="#8B634A" d="M166 106h180v240H166z"/><path fill="#AE7B5C" d="M207 242h98v104h-98zM182 178h148v64H182z"/></g><g hair='62'><ellipse cx="256" cy="58" stroke="#fff" stroke-width="12" rx="90" ry="24"/></g><g dress='61'><path fill="#F15824" d="M64 400h384l32 112H32l32-112Z"/><path fill="#121212" d="M207 372h36v28h-36zM269 372h36v28h-36zM64 400h384l32 112H32l32-112Z"/><path fill="#D22D27" d="m340 448 7.629 24h4.228l-7.565-24H340Zm36.078 0-8.01 24h4.292l7.947-24h-4.229Zm-22.425 12.652h6.2l-6.74 8.487V472h13.478v-4.101h-6.573l6.796-8.487v-2.861h-13.161v4.101Z"/><path stroke="#2D2D2D" stroke-width="6" d="M256 400v112"/><circle cx="274" cy="427" r="6" fill="#D22D27"/><circle cx="274" cy="459" r="6" fill="#D22D27"/><circle cx="274" cy="491" r="6" fill="#D22D27"/><path fill="#2D2D2D" d="M328 472h64v16h-64z"/></g><g beard='2'><path d="M204 270H308L324 290H188L204 270Z" fill="#121212"/></g><g face='8'><path d="M230.711 302H280" stroke="#121212" stroke-width="6"/><rect width="20" height="20" x="212" y="194" fill="#121212" rx="10"><animate attributeName="rx" begin="1s" dur="2s" keyTimes="0;0.25;0.3;0.35;1" repeatCount="indefinite" values="10;10;1;10;10"/><animate attributeName="height" begin="1s" dur="2s" keyTimes="0;0.25;0.3;0.35;1" repeatCount="indefinite" values="20;20;2;20;20"/><animate attributeName="y" begin="1s" dur="2s" keyTimes="0;0.25;0.3;0.35;1" repeatCount="indefinite" values="194;194;203;194;194"/></rect><rect width="20" height="20" x="280" y="194" fill="#121212" rx="10"><animate attributeName="rx" begin="1s" dur="2s" keyTimes="0;0.25;0.3;0.35;1" repeatCount="indefinite" values="10;10;1;10;10"/><animate attributeName="height" begin="1s" dur="2s" keyTimes="0;0.25;0.3;0.35;1" repeatCount="indefinite" values="20;20;2;20;20"/><animate attributeName="y" begin="1s" dur="2s" keyTimes="0;0.25;0.3;0.35;1" repeatCount="indefinite" values="194;194;203;194;194"/></rect><path d="M206 162H238" stroke="#121212" stroke-width="6"/><path d="M274 162H306" stroke="#121212" stroke-width="6"/><path d="M256 218L266 258H246" stroke="#121212" stroke-width="6"/></g><g glass='13'><path fill="#D22D27" fill-opacity=".6" d="m189.583 182.714 19.58-8.714 10.878 8.893L230.919 174l19.581 8.714v26.143L220.041 235l-30.458-26.143v-26.143Z"/><path stroke="#D22D27" stroke-width="6" d="M189.583 182.714v26.143L220.041 235l30.459-26.143V190m-60.917-7.286 19.58-8.714 10.878 8.893L230.919 174l19.581 8.714V190m-60.917-7.286L163 175.5m87.5 14.5H262"/><path fill="#D22D27" fill-opacity=".6" d="m322.417 183.214-19.58-8.714-10.878 8.893-10.878-8.893-19.581 8.714v26.143l30.459 26.143 30.458-26.143v-26.143Z"/><path stroke="#D22D27" stroke-width="6" d="M322.417 183.214v26.143L291.959 235.5 261.5 209.357v-26.143l19.581-8.714 10.878 8.893 10.878-8.893 19.58 8.714Zm0 0L349 176"/></g></svg>