<svg xmlns="http://www.w3.org/2000/svg" width="512" height="512" fill="none"><rect width="512" height="512" fill="#007089 "/><g skin='11'><path fill="#D5A300" d="M134 178h32v64h-20l-12-64ZM378 178h-32v64h20l12-64ZM207 346h98v54h-98z"/><path fill="#E3B41A" d="M64 400h384l32 112H32l32-112ZM166 106h180v240H166z"/></g><g hair='19'><path fill="#00A8FF" d="M346 162v-56L140 55l26 51v56h180Z"/></g><g dress='60'><path fill="#D22D27" d="M64 400h384l32 112H32l32-112Z"/><path fill="#BF0700" d="M460 400H52l-16 56h440l-16-56Z"/><path fill="#FFB74A" d="M207 376h98v24h-98z"/><circle cx="221" cy="388" r="6" fill="#fff"/><circle cx="244" cy="388" r="6" fill="#fff"/><circle cx="267" cy="388" r="6" fill="#fff"/><circle cx="290" cy="388" r="6" fill="#fff"/><path fill="#FFB74A" d="M37.137 452h437.717l8.013 28H29.144l7.993-28Z"/><path fill="#FFB74A" d="M244 400h24v112h-24z"/><circle cx="256" cy="414" r="6" fill="#fff"/><circle cx="256" cy="438" r="6" fill="#fff"/><circle cx="256" cy="466" r="6" fill="#fff"/><circle cx="60" cy="466" r="6" fill="#fff"/><circle cx="296" cy="466" r="6" fill="#fff"/><circle cx="99" cy="466" r="6" fill="#fff"/><circle cx="334" cy="466" r="6" fill="#fff"/><circle cx="138" cy="466" r="6" fill="#fff"/><circle cx="372" cy="466" r="6" fill="#fff"/><circle cx="177" cy="466" r="6" fill="#fff"/><circle cx="410" cy="466" r="6" fill="#fff"/><circle cx="216" cy="466" r="6" fill="#fff"/><circle cx="448" cy="466" r="6" fill="#fff"/></g><g beard='8'><rect x="204" y="286" width="12" height="60" fill="#121212"/><rect x="296" y="286" width="12" height="60" fill="#121212"/><rect x="244" y="322" width="24" height="12" fill="#121212"/><path d="M204 334H308V346L256 370L204 346V334Z" fill="#121212"/></g><g face='16'><path d="M296 282H216C216 282 216 318 256.028 318C296.057 318 296 282 296 282Z" fill="white"/><path d="M206 162H238" stroke="#121212" stroke-width="6"/><path d="M206 202C206 202 212 194 222 194C232 194 238 202 238 202" stroke="#121212" stroke-width="6"/><path d="M274 202C274 202 280 194 290 194C300 194 306 202 306 202" stroke="#121212" stroke-width="6"/><path d="M274 162H306" stroke="#121212" stroke-width="6"/><path d="M256 218L266 258H246" stroke="#121212" stroke-width="6"/></g><g glass='17'><rect width="74" height="74" x="176" y="162" fill="#fff" rx="37"/><path fill="#fff" d="M166 162h49v16h-49zM242 178h28v20h-28zM346 162h-49v16h49z"/><rect width="56" height="56" x="190" y="171" fill="#D22D27" rx="28"/><rect width="74" height="74" x="262" y="162" fill="#fff" rx="37"/><rect width="56" height="56" x="266" y="171" fill="#D22D27" rx="28"/></g></svg>