<svg xmlns="http://www.w3.org/2000/svg" width="512" height="512" fill="none"><rect width="512" height="512" fill="#FF9900 "/><g skin='6'><path fill="#36CF00" d="M134 178h32v64h-20l-12-64ZM378 178h-32v64h20l12-64Z"/><path fill="#3BE200" d="M64 400h384l32 112H32l32-112Z"/><path fill="#36CF00" d="M207 346h98v54h-98z"/><path fill="#3BE200" d="M166 106h180v240H166z"/></g><g hair='20'><ellipse cx="256" cy="58" stroke="#E4A400" stroke-width="12" rx="90" ry="24"/></g><g dress='21'><path fill="#F15824" d="M64 400h384l32 112H32l32-112Z"/><path fill="#2D2D2D" fill-rule="evenodd" d="M116 69h280v331H116V69Zm91 294v-17h-41V179l88.5-33.5L346 179v167h-41v18l-49 15.5-49-16.5Z" clip-rule="evenodd"/><path fill="#2D2D2D" d="M64 400h384l32 112H32l32-112Z"/><path fill="#5B6062" d="m326 456 7.629 24h4.228l-7.565-24H326Zm36.078 0-8.01 24h4.292l7.947-24h-4.229Zm-22.425 12.652h6.2l-6.74 8.487V480h13.478v-4.101h-6.573l6.796-8.487v-2.861h-13.161v4.101Z"/><path stroke="#5B6062" stroke-width="6" d="M227 400v31M285 400v56"/><path fill="#5B6062" d="m270.857 466 14.142-14.142L299.141 466 285 480.142zM212.857 438l14.142-14.142L241.141 438 227 452.142z"/></g><g beard='7'><rect x="204" y="286" width="12" height="60" fill="#121212"/><rect x="296" y="286" width="12" height="60" fill="#121212"/><rect x="250" y="322" width="12" height="24" fill="#121212"/><rect x="204" y="274" width="104" height="12" fill="#121212"/><rect x="196" y="334" width="120" height="12" fill="#121212"/><path d="M166 258L196 274V346H166V258Z" fill="#121212"/><path d="M346 258L316 274V346H346V258Z" fill="#121212"/></g><g face='10'><path d="M246 289.391C246 289.391 258.823 284.011 262 289.391C265.153 294.732 254.5 303.391 254.5 303.391C254.5 303.391 267.632 299.309 270.5 304.891C273.719 311.156 258 317.891 258 317.891" stroke="#121212" stroke-width="6"/><path d="M206 162H238" stroke="#121212" stroke-width="6"/><path d="M206 202C206 202 212 194 222 194C232 194 238 202 238 202" stroke="#121212" stroke-width="6"/><path d="M274 202C274 202 280 194 290 194C300 194 306 202 306 202" stroke="#121212" stroke-width="6"/><path d="M274 162H306" stroke="#121212" stroke-width="6"/><path d="M256 218L266 258H246" stroke="#121212" stroke-width="6"/></g><g glass='3'><path fill="red" fill-opacity=".4" d="M190 175h56v56h-56v-56Z"/><path stroke="#121212" stroke-width="6" d="M190 175h56v56h-56v-56Zm0 0h-24M247 184h19"/><path fill="#0075FF" fill-opacity=".4" d="M266 175h56v56h-56v-56Z"/><path stroke="#121212" stroke-width="6" d="M322 175h-56v56h56v-56Zm0 0h24"/></g></svg>