<svg xmlns="http://www.w3.org/2000/svg" width="512" height="512" fill="none"><rect width="512" height="512" fill="#7B0000 "/><g skin='11'><path fill="#D5A300" d="M134 178h32v64h-20l-12-64ZM378 178h-32v64h20l12-64ZM207 346h98v54h-98z"/><path fill="#E3B41A" d="M64 400h384l32 112H32l32-112ZM166 106h180v240H166z"/></g><g hair='72'><path fill="#C9BBC3" d="M166 162h180v-24H166z"/><path fill="#DDD1D8" d="M166 138h180V52.5L301 102l-46-49.5-44 49.5-45-49.5V138Z"/><circle cx="167" cy="48" r="12" fill="#C9BBC3"/><circle cx="256" cy="48" r="12" fill="#C9BBC3"/><circle cx="345" cy="48" r="12" fill="#C9BBC3"/></g><g dress='64'><path fill="#0094FF" d="M64 400h96s0 72 96 72 96-72 96-72h96l32 112H32l32-112Z"/><path fill="#fff" d="M207 512h98V408s-15.5 24-48 24-50-24-50-24v104Z"/><path fill="#A7DAFF" d="m137 400 70-54v166h-41l-29-55.5 29-21.5-29-35ZM375 400l-70-54v166h41l29-55.5-29-21.5 29-35Z"/></g><g beard='9'><rect x="236" y="322" width="40" height="24" fill="#121212"/><rect x="166" y="242" width="12" height="104" fill="#121212"/><rect x="334" y="242" width="12" height="104" fill="#121212"/><path d="M166 286H207V346H166V286Z" fill="#121212"/><path d="M346 286H305V346H346V286Z" fill="#121212"/></g><g face='2'><path d="M230.711 302H280" stroke="#121212" stroke-width="6"/><rect width="20" height="20" x="212" y="194" fill="#121212" rx="10"><animate attributeName="rx" begin="1s" dur="2s" keyTimes="0;0.25;0.3;0.35;1" repeatCount="indefinite" values="10;10;1;10;10"/><animate attributeName="height" begin="1s" dur="2s" keyTimes="0;0.25;0.3;0.35;1" repeatCount="indefinite" values="20;20;2;20;20"/><animate attributeName="y" begin="1s" dur="2s" keyTimes="0;0.25;0.3;0.35;1" repeatCount="indefinite" values="194;194;203;194;194"/></rect><rect width="20" height="20" x="280" y="194" fill="#121212" rx="10"><animate attributeName="rx" begin="1s" dur="2s" keyTimes="0;0.25;0.3;0.35;1" repeatCount="indefinite" values="10;10;1;10;10"/><animate attributeName="height" begin="1s" dur="2s" keyTimes="0;0.25;0.3;0.35;1" repeatCount="indefinite" values="20;20;2;20;20"/><animate attributeName="y" begin="1s" dur="2s" keyTimes="0;0.25;0.3;0.35;1" repeatCount="indefinite" values="194;194;203;194;194"/></rect><path d="M206 197H238" stroke="#121212" stroke-width="6"/><path d="M274 197H306" stroke="#121212" stroke-width="6"/><path d="M256 218L266 258H246" stroke="#121212" stroke-width="6"/></g><g glass='18'><path fill="#121212" d="M166 190h84v12h-84z"/><path fill="#fff" d="M178 190h12v12h-12z"/><path fill="#121212" d="M262 190h84v12h-84zM274 202h60v12h-60zM286 214h36v12h-36zM178 202h60v12h-60zM190 214h36v12h-36zM166 178h180v12H166z"/><path fill="#fff" d="M190 202h12v12h-12zM202 214h12v12h-12zM274 190h12v12h-12zM286 202h12v12h-12zM298 214h12v12h-12z"/></g></svg>