<svg xmlns="http://www.w3.org/2000/svg" width="512" height="512" fill="none"><rect width="512" height="512" fill="#7000FF "/><g skin='9'><mask id="a" width="32" height="64" x="346" y="178" maskUnits="userSpaceOnUse" style="mask-type:alpha"><path fill="#B7009A" d="M378 178h-32v64h20l12-64Z"/></mask><g mask="url(#a)"><path fill="#FF00B1" d="M374 248v-30h-30v30h30Z"/><path fill="#FFD600" d="M338 206h52v24c-6.833-6.5-21.9-15.6-27.5 0-5.6 15.6-18.667 13.167-24.5 10v-34Z"/><path fill="#A7FF00" d="m380 225 8-37h-49v27.722c-.006.179 0 .278 0 .278v-.278c.047-1.422.853-7.86 11.5-8.722 13.161-1.066 29.5 18 29.5 18Z"/><path fill="#AD00FF" d="M340 172h48v25c-3.5-3-21.5-14-26.5 9.5s-19.5-2-21.5-9.5v-25Z"/></g><mask id="b" width="448" height="406" x="32" y="106" maskUnits="userSpaceOnUse" style="mask-type:alpha"><path fill="#D800B5" fill-rule="evenodd" d="M346 106H166v240h180V106Zm102 294H64L32 512h448l-32-112Z" clip-rule="evenodd"/></mask><g mask="url(#b)"><path fill="#FF00B1" d="M46.5 149.86c-55.344 24.043-130.5 36-130.5 36v31.5l638.5-14.5v-53s-85.425-82.073-158.5-71c-49.4 7.486-68.135 70.181-116.5 57.64-39.759-10.309-80.556-54.677-119-69.14-54.716-20.585-60.381 59.206-114 82.5Z"/><path fill="#00A8FF" d="m22 168.583 34 112.5 551-8.5 26-97s-24.445-86.791-80-83c-54.894 3.746-84.978 104.61-140 104.5-66.849-.133-20.286-106.801-85.5-121.5-76.487-17.24-102.2 111.772-180 121.5-49.87 6.236-125.5-28.5-125.5-28.5Z"/><path fill="#FFD600" d="M6 197.71v96h538.5l14.5-96S541.789 37.156 468 65.313C422.551 82.657 416.208 191.2 368 197.71c-48.239 6.514-74.368-107.49-123-105.397-46.27 1.993-68.398 71.914-114 80-38.986 6.913-53.647-41.234-91-28.103-32.999 11.601-34 53.5-34 53.5Z"/><path fill="#AD00FF" d="m-31 216.675 34 112.5 551-8.5 26-97S553.555 108.3 498 112.091c-54.894 3.747-63.978 111.694-119 111.584-66.849-.134 15.714-86.976-49.5-101.675-76.487-17.24-188.7 71.363-266.5 81.091-49.87 6.236-94 13.584-94 13.584Z"/><path fill="#FFB74A" d="M38.5 230.86c-55.344 24.043-130.5 36-130.5 36v31.5l638.5-14.5v-53s-107.425-93.573-180.5-82.5c-49.4 7.486-54.135 61.181-102.5 48.64-39.759-10.309-72.556-34.177-111-48.64-54.716-20.585-60.381 59.206-114 82.5Z"/><path fill="#D22D27" d="M153 184.5C90.326 170.393 14 308.713 14 308.713h484v-99.5s-74.165 62.155-130.5 61.5c-44.746-.52-64.274-54.303-107-41-20.635 6.424-10.107 19.722-31.5 22.787-33.71 4.829-42.777-60.522-76-68Z"/><path fill="#A7FF00" d="m-37 273.815 10.5 103h558v-179s6.503-46.17-44.5-46.002c-69.108.228-81.137 153.126-149.5 143.002-50.157-7.427-29.083-125.616-79.5-131.002-55.757-5.955-98.507 148.51-154.5 145.5-37.97-2.04-53.977-88.316-92-88-40.655.339-48.5 52.502-48.5 52.502Z"/><path fill="#AD00FF" d="M-18 296.313c-61.503 23.397 0 104 0 104h566v-137s-29.853-72.407-66-78c-59.972-9.278-61.497 166.629-120 150.501-86.991-23.983-49.5-137.501-146-114.501-46.688 11.128-66.273 109.437-114 114.5-47.493 5.039-62.039-61.549-120-39.5Z"/><path fill="#00A8FF" d="M0 387.397v95.999h538.5l14.5-95.999s3.289-156.157-70.5-128c-45.449 17.342-59.292 104.99-107.5 111.5-48.239 6.514-71.868-106.095-120.5-104-46.27 1.992-108.398 112.413-154 120.5-38.986 6.912-29.147-66.632-66.5-53.5-32.999 11.6-34 53.5-34 53.5Z"/><path fill="#C2FD52" d="m-50 399.583 34 112.5 551-8.5 26-97s-24.445-86.791-80-83c-54.894 3.746-84.978 104.61-140 104.5-66.849-.133-20.286-106.801-85.5-121.5-76.487-17.239-102.2 111.772-180 121.5-49.87 6.236-125.5-28.5-125.5-28.5Z"/><path fill="#FF00B1" d="M-45.665 427.355c-61.503 23.396 0 104 0 104h566v-137s-29.853-72.408-66-78c-59.972-9.278-61.497 166.628-120 150.5-86.991-23.983-49.5-137.5-146-114.5-46.688 11.127-66.273 109.437-114 114.5-47.493 5.038-62.039-61.55-120-39.5Z"/><path fill="#FFB74A" d="M89.602 499.384C34.214 517.413-41 526.379-41 526.379V550l639-10.873v-39.743s-85.492-61.545-158.624-53.241c-49.439 5.613-68.189 52.627-116.591 43.223-39.791-7.731-80.62-41.001-119.094-51.847-54.758-15.436-60.428 44.398-114.089 61.865Z"/><path fill="#D22D27" d="M184 465.927C121.326 455.142 53 542 53 542h484v-76.073s-74.165 47.521-130.5 47.02c-44.746-.398-64.274-41.517-107-31.346-20.635 4.912-24.107 21.74-45.5 24.083-33.71 3.692-36.777-34.039-70-39.757Z"/></g><mask id="c" width="98" height="54" x="207" y="346" maskUnits="userSpaceOnUse" style="mask-type:alpha"><path fill="#B7009A" d="M207 346h98v54h-98z"/></mask><g mask="url(#c)"><path fill="#FF00B1" d="m173 337.923 9.794 39.047L341.511 375 349 339.546s-7.042-20.117-23.044-19.239c-15.813.869-24.478 24.248-40.328 24.223-19.256-.031-5.843-24.756-24.628-28.163-22.032-3.996-29.439 25.908-51.849 28.163-14.366 1.445-36.151-6.607-36.151-6.607Z"/><path fill="#FFD600" d="M184 373.384V397h131.46l3.54-23.616s-4.202-39.495-22.215-32.569c-11.095 4.266-12.644 30.968-24.412 32.569-11.777 1.603-18.156-26.442-30.028-25.927-11.295.49-16.697 17.691-27.83 19.68-9.517 1.7-13.096-10.144-22.215-6.914-8.056 2.854-8.3 13.161-8.3 13.161Z"/><path fill="#D22D27" d="M206.023 390.035c-12.309 5.331-29.023 7.981-29.023 7.981V405h142v-14.965s-18.998-18.196-35.25-15.741c-10.986 1.66-15.153 15.56-25.909 12.779-8.842-2.285-17.915-12.122-26.465-15.328-12.169-4.564-13.429 13.126-25.353 18.29Z"/></g><mask id="d" width="32" height="64" x="134" y="178" maskUnits="userSpaceOnUse" style="mask-type:alpha"><path fill="#B7009A" d="M134 178h32v64h-20l-12-64Z"/></mask><g mask="url(#d)"><path fill="#FF00B1" d="M138 248v-30h30v30h-30Z"/><path fill="#FFD600" d="M174 206h-52v24c6.833-6.5 21.9-15.6 27.5 0 5.6 15.6 18.667 13.167 24.5 10v-34Z"/><path fill="#A7FF00" d="m132 225-8-37h49v27.722c.006.179 0 .278 0 .278v-.278c-.047-1.422-.853-7.86-11.5-8.722-13.161-1.066-29.5 18-29.5 18Z"/><path fill="#AD00FF" d="M172 172h-48v25c3.5-3 21.5-14 26.5 9.5s19.5-2 21.5-9.5v-25Z"/></g></g><g hair='47'><path fill="#121212" d="M166 138v40h-14l-10-77 114.25-65 114.25 65-12.5 77h-12v-40H166Z"/></g><g dress='88'><g clip-path="url(#a)"><path fill="#121212" d="M64 400h84s7 80 108 80 108-80 108-80h84l32 112H32l32-112ZM346.001 381.044l9.5 16.455 102.114-38.295 57.386 4.396-66.886-20.85-102.114 38.294Z"/><path fill="#454545" d="m346.004 381.001 45.807 15.025 79.77-14.065 52.421 23.758-55.721-42.47-122.277 17.752Z"/><path fill="#1D1D1D" d="M346.002 381v19h113l47.5 32.5-47.5-51.5h-113Z"/><path fill="#454545" d="M134 400h20v8h-20zM252 490v-20h8v20zM151.105 442.715l17.32-10 4 6.928-17.32 10zM190 476.32 200 459l6.928 4-10 17.32zM321.928 480.32l-10-17.32-6.928 4 10 17.32zM360.32 442.715l-17.32-10-4 6.928 17.32 10zM356 400h20v8h-20z"/><path fill="#121212" d="m166.001 381.541-9.5 16.454L54.387 359.7l-57.386 4.396 66.886-20.85 102.114 38.295Z"/><path fill="#454545" d="m165.998 381.497-45.807 15.025-79.77-14.065L-12 406.215l55.722-42.47 122.277 17.752Z"/><path fill="#1D1D1D" d="M166 381.496v19H53l-47.5 32.5 47.5-51.5h113Z"/></g><defs><clipPath id="a"><path fill="#fff" d="M0 0h512v512H0z"/></clipPath></defs></g><g beard='8'><rect x="204" y="286" width="12" height="60" fill="#121212"/><rect x="296" y="286" width="12" height="60" fill="#121212"/><rect x="244" y="322" width="24" height="12" fill="#121212"/><path d="M204 334H308V346L256 370L204 346V334Z" fill="#121212"/></g><g face='29'><rect width="20" height="20" x="212" y="194" fill="#121212" rx="10"><animate attributeName="rx" begin="1s" dur="2s" keyTimes="0;0.25;0.3;0.35;1" repeatCount="indefinite" values="10;10;1;10;10"/><animate attributeName="height" begin="1s" dur="2s" keyTimes="0;0.25;0.3;0.35;1" repeatCount="indefinite" values="20;20;2;20;20"/><animate attributeName="y" begin="1s" dur="2s" keyTimes="0;0.25;0.3;0.35;1" repeatCount="indefinite" values="194;194;203;194;194"/></rect><rect width="20" height="20" x="280" y="194" fill="#121212" rx="10"><animate attributeName="rx" begin="1s" dur="2s" keyTimes="0;0.25;0.3;0.35;1" repeatCount="indefinite" values="10;10;1;10;10"/><animate attributeName="height" begin="1s" dur="2s" keyTimes="0;0.25;0.3;0.35;1" repeatCount="indefinite" values="20;20;2;20;20"/><animate attributeName="y" begin="1s" dur="2s" keyTimes="0;0.25;0.3;0.35;1" repeatCount="indefinite" values="194;194;203;194;194"/></rect><path d="M208.144 160L235.856 176" stroke="#121212" stroke-width="6"/><path d="M276.144 176L303.856 160" stroke="#121212" stroke-width="6"/><path d="M256 218L266 258H246" stroke="#121212" stroke-width="6"/><path d="M216 284H296L292 301L288 317H224L220 301L216 284Z" fill="white"/><path d="M220 301L224 317H288L292 301M220 301L216 284H296L292 301M220 301H292" stroke="#121212" stroke-width="6"/><rect width="24" height="48" transform="matrix(0 -1 -1 0 185 313)" fill="#2D2D2D"/><path d="M199.785 325H187.83V301M199.785 277H187.83V301M187.83 301H275" stroke="#2D2D2D" stroke-width="6"/><path d="M134 317V301V285" stroke="#2D2D2D" stroke-width="6"/></g><g glass='19'><path fill="#121212" fill-opacity=".4" d="M192 203c0-15.464 12.536-28 28-28s28 12.536 28 28-12.536 28-28 28-28-12.536-28-28Z"/><path stroke="#FFB74A" stroke-width="6" d="M220 175c-15.464 0-28 12.536-28 28m28-28c15.464 0 28 12.536 28 28s-12.536 28-28 28m0-56v28m-28 0c0 15.464 12.536 28 28 28m-28-28-28-27m56 55v-28m0 0-21 18.5m21-18.5 21.5 18.5M248 202h16"/><path fill="#121212" fill-opacity=".4" d="M320 203c0-15.464-12.536-28-28-28s-28 12.536-28 28 12.536 28 28 28 28-12.536 28-28Z"/><path stroke="#FFB74A" stroke-width="6" d="M292 175c15.464 0 28 12.536 28 28m-28-28c-15.464 0-28 12.536-28 28s12.536 28 28 28m0-56v28m28 0c0 15.464-12.536 28-28 28m28-28 28-27m-56 55v-28m0 0 21 18.5M292 203l-21.5 18.5"/></g></svg>