<svg xmlns="http://www.w3.org/2000/svg" width="512" height="512" fill="none"><rect width="512" height="512" fill="#7B0000 "/><g skin='12'><path fill="#80573E" d="M134 178h32v64h-20l-12-64ZM378 178h-32v64h20l12-64ZM207 346h98v54h-98z"/><path fill="#8B634A" d="M64 400h384l32 112H32l32-112Z"/><path fill="#AE7B5C" d="M136 456h240v56H136z"/><path fill="#8B634A" d="M166 106h180v240H166z"/><path fill="#AE7B5C" d="M207 242h98v104h-98zM182 178h148v64H182z"/></g><g hair='50'><circle cx="256" cy="106" r="40" fill="#121212"/><path fill="#121212" d="M166 106h180v72l-21-40-69 20-69-20-21 40v-72Z"/></g><g dress='35'><g clip-path="url(#a)"><path fill="#D22D27" d="M64 400h143l50 39 48-39h143l32 112H32l32-112Z"/><circle cx="169.971" cy="454.941" r="12" fill="#F90" transform="rotate(-45 169.971 454.941)"/><circle cx="186.941" cy="437.971" r="12" fill="#F90" transform="rotate(-45 186.941 437.971)"/><circle cx="203.912" cy="454.941" r="12" fill="#F90" transform="rotate(-45 203.912 454.941)"/><circle cx="186.941" cy="471.912" r="12" fill="#F90" transform="rotate(-45 186.941 471.912)"/><circle cx="186.941" cy="454.941" r="12" fill="#FFD600" transform="rotate(-45 186.941 454.941)"/><circle cx="393.62" cy="430.828" r="12" fill="#F90" transform="rotate(-20 393.62 430.828)"/><circle cx="416.173" cy="422.62" r="12" fill="#F90" transform="rotate(-20 416.173 422.62)"/><circle cx="424.381" cy="445.172" r="12" fill="#F90" transform="rotate(-20 424.381 445.172)"/><circle cx="401.828" cy="453.381" r="12" fill="#F90" transform="rotate(-20 401.828 453.381)"/><circle cx="409.001" cy="438" r="12" fill="#FFD600" transform="rotate(-20 409.001 438)"/><circle cx="82.381" cy="430.588" r="12" fill="#F90" transform="rotate(-20 82.38 430.588)"/><circle cx="104.933" cy="422.38" r="12" fill="#F90" transform="rotate(-20 104.933 422.38)"/><circle cx="113.141" cy="444.932" r="12" fill="#F90" transform="rotate(-20 113.141 444.932)"/><circle cx="90.589" cy="453.141" r="12" fill="#F90" transform="rotate(-20 90.589 453.141)"/><circle cx="97.761" cy="437.76" r="12" fill="#FFD600" transform="rotate(-20 97.761 437.76)"/><circle cx="110.381" cy="500.588" r="12" fill="#F90" transform="rotate(-20 110.381 500.588)"/><circle cx="132.933" cy="492.38" r="12" fill="#F90" transform="rotate(-20 132.933 492.38)"/><circle cx="141.141" cy="514.932" r="12" fill="#F90" transform="rotate(-20 141.141 514.932)"/><circle cx="118.589" cy="523.141" r="12" fill="#F90" transform="rotate(-20 118.589 523.141)"/><circle cx="125.761" cy="507.76" r="12" fill="#FFD600" transform="rotate(-20 125.761 507.76)"/><circle cx="244.381" cy="496.588" r="12" fill="#F90" transform="rotate(-20 244.381 496.588)"/><circle cx="266.933" cy="488.38" r="12" fill="#F90" transform="rotate(-20 266.933 488.38)"/><circle cx="275.141" cy="510.932" r="12" fill="#F90" transform="rotate(-20 275.141 510.932)"/><circle cx="252.589" cy="519.141" r="12" fill="#F90" transform="rotate(-20 252.589 519.141)"/><circle cx="259.761" cy="503.76" r="12" fill="#FFD600" transform="rotate(-20 259.761 503.76)"/><circle cx="316.971" cy="465.941" r="12" fill="#F90" transform="rotate(-45 316.971 465.941)"/><circle cx="333.941" cy="448.971" r="12" fill="#F90" transform="rotate(-45 333.941 448.971)"/><circle cx="350.912" cy="465.941" r="12" fill="#F90" transform="rotate(-45 350.912 465.941)"/><circle cx="333.941" cy="482.912" r="12" fill="#F90" transform="rotate(-45 333.941 482.912)"/><circle cx="333.941" cy="465.941" r="12" fill="#FFD600" transform="rotate(-45 333.941 465.941)"/><circle cx="406.971" cy="509.941" r="12" fill="#F90" transform="rotate(-45 406.971 509.941)"/><circle cx="423.941" cy="492.971" r="12" fill="#F90" transform="rotate(-45 423.941 492.971)"/><circle cx="440.912" cy="509.941" r="12" fill="#F90" transform="rotate(-45 440.912 509.941)"/><circle cx="423.941" cy="526.912" r="12" fill="#F90" transform="rotate(-45 423.941 526.912)"/><circle cx="423.941" cy="509.941" r="12" fill="#FFD600" transform="rotate(-45 423.941 509.941)"/><path fill="#FF9490" d="m257 439-41.5 27.5-36-66.5 27.5-20 50 59ZM257 439l41.5 27.5 36-66.5-29.5-20-48 59Z"/></g><defs><clipPath id="a"><path fill="#fff" d="M0 0h512v512H0z"/></clipPath></defs></g><g beard='4'><rect x="201" y="286" width="12" height="40" fill="#121212"/><rect x="299" y="286" width="12" height="40" fill="#121212"/><rect x="201" y="274" width="110" height="12" fill="#121212"/></g><g face='8'><path d="M230.711 302H280" stroke="#121212" stroke-width="6"/><rect width="20" height="20" x="212" y="194" fill="#121212" rx="10"><animate attributeName="rx" begin="1s" dur="2s" keyTimes="0;0.25;0.3;0.35;1" repeatCount="indefinite" values="10;10;1;10;10"/><animate attributeName="height" begin="1s" dur="2s" keyTimes="0;0.25;0.3;0.35;1" repeatCount="indefinite" values="20;20;2;20;20"/><animate attributeName="y" begin="1s" dur="2s" keyTimes="0;0.25;0.3;0.35;1" repeatCount="indefinite" values="194;194;203;194;194"/></rect><rect width="20" height="20" x="280" y="194" fill="#121212" rx="10"><animate attributeName="rx" begin="1s" dur="2s" keyTimes="0;0.25;0.3;0.35;1" repeatCount="indefinite" values="10;10;1;10;10"/><animate attributeName="height" begin="1s" dur="2s" keyTimes="0;0.25;0.3;0.35;1" repeatCount="indefinite" values="20;20;2;20;20"/><animate attributeName="y" begin="1s" dur="2s" keyTimes="0;0.25;0.3;0.35;1" repeatCount="indefinite" values="194;194;203;194;194"/></rect><path d="M206 162H238" stroke="#121212" stroke-width="6"/><path d="M274 162H306" stroke="#121212" stroke-width="6"/><path d="M256 218L266 258H246" stroke="#121212" stroke-width="6"/></g><g glass='15'><path fill="#121212" d="m235 250 21-16 21 16h69v-72H166v72h69Z"/><circle cx="176" cy="190" r="4" fill="#0047FF"/><circle cx="176" cy="206" r="4" fill="#0047FF"/><circle cx="176" cy="222" r="4" fill="#0047FF"/><circle cx="176" cy="238" r="4" fill="#0047FF"/><circle cx="192" cy="190" r="4" fill="#79CBDC"/><circle cx="192" cy="206" r="4" fill="#79CBDC"/><circle cx="192" cy="222" r="4" fill="#79CBDC"/><circle cx="192" cy="238" r="4" fill="#79CBDC"/><circle cx="208" cy="190" r="4" fill="#79CBDC"/><circle cx="208" cy="206" r="4" fill="#0047FF"/><circle cx="208" cy="222" r="4" fill="#79CBDC"/><circle cx="208" cy="238" r="4" fill="#79CBDC"/><circle cx="224" cy="190" r="4" fill="#79CBDC"/><circle cx="224" cy="206" r="4" fill="#0047FF"/><circle cx="224" cy="222" r="4" fill="#79CBDC"/><circle cx="224" cy="238" r="4" fill="#79CBDC"/><circle cx="240" cy="190" r="4" fill="#0047FF"/><circle cx="240" cy="206" r="4" fill="#0047FF"/><circle cx="240" cy="222" r="4" fill="#0047FF"/><circle cx="240" cy="238" r="4" fill="#0047FF"/><circle cx="256" cy="190" r="4" fill="#0047FF"/><circle cx="256" cy="206" r="4" fill="#0047FF"/><circle cx="256" cy="222" r="4" fill="#0047FF"/><circle cx="272" cy="190" r="4" fill="#0047FF"/><circle cx="272" cy="206" r="4" fill="#0047FF"/><circle cx="272" cy="222" r="4" fill="#0047FF"/><circle cx="272" cy="238" r="4" fill="#0047FF"/><circle cx="288" cy="190" r="4" fill="#79CBDC"/><circle cx="288" cy="206" r="4" fill="#79CBDC"/><circle cx="288" cy="222" r="4" fill="#0047FF"/><circle cx="288" cy="238" r="4" fill="#79CBDC"/><circle cx="304" cy="190" r="4" fill="#79CBDC"/><circle cx="304" cy="206" r="4" fill="#79CBDC"/><circle cx="304" cy="222" r="4" fill="#0047FF"/><circle cx="304" cy="238" r="4" fill="#79CBDC"/><circle cx="320" cy="190" r="4" fill="#79CBDC"/><circle cx="320" cy="206" r="4" fill="#79CBDC"/><circle cx="320" cy="222" r="4" fill="#79CBDC"/><circle cx="320" cy="238" r="4" fill="#79CBDC"/><circle cx="336" cy="190" r="4" fill="#0047FF"/><circle cx="336" cy="206" r="4" fill="#0047FF"/><circle cx="336" cy="222" r="4" fill="#0047FF"/><circle cx="336" cy="238" r="4" fill="#0047FF"/></g></svg>