<svg xmlns="http://www.w3.org/2000/svg" width="512" height="512" fill="none"><rect width="512" height="512" fill="#572828 "/><g skin='6'><path fill="#36CF00" d="M134 178h32v64h-20l-12-64ZM378 178h-32v64h20l12-64Z"/><path fill="#3BE200" d="M64 400h384l32 112H32l32-112Z"/><path fill="#36CF00" d="M207 346h98v54h-98z"/><path fill="#3BE200" d="M166 106h180v240H166z"/></g><g hair='42'><path fill="#42B16C" d="M238 14h36v100h-36z"/><path stroke="#94EDB6" stroke-width="6" d="M256 88v48"/><path fill="#42B16C" d="m309.186 14 35.453 6.251-17.365 98.481-35.453-6.251z"/><path stroke="#94EDB6" stroke-width="6" d="m314.062 90.001-8.335 47.271"/><path fill="#42B16C" d="m362 76 31.177 18-50 86.603-31.177-18z"/><path stroke="#94EDB6" stroke-width="6" d="m340.588 149.086-24 41.569"/><path fill="#42B16C" d="m151 76-31.177 18 50 86.603 31.177-18z"/><path stroke="#94EDB6" stroke-width="6" d="m172.412 149.086 24 41.569"/><path fill="#42B16C" d="M202.453 14 167 20.251l17.365 98.481 35.453-6.251z"/><path stroke="#94EDB6" stroke-width="6" d="m197.576 90.001 8.335 47.271"/><path fill="#D22D27" d="M166 162h180v-40H166z"/><path fill="#FFB74A" d="m167 141.971 16.97-16.97 16.971 16.97-16.97 16.97zM203 141.971l16.97-16.97 16.971 16.97-16.97 16.97zM239 141.971l16.97-16.97 16.971 16.97-16.97 16.97zM275 141.971l16.97-16.97 16.971 16.97-16.97 16.97zM311 141.971l16.97-16.97 16.971 16.97-16.97 16.97z"/></g><g dress='55'><path fill="#fff" d="M64 400h124s2 52 68 52 68-52 68-52h124l32 112H32l32-112Z"/><path fill="#00A8FF" d="M136 472h240v40H136z"/><path fill="#0082C5" d="m236 488 7.629 24h4.228l-7.565-24H236Zm36.078 0-8.01 24h4.292l7.947-24h-4.229Zm-22.425 12.652h6.2l-6.74 8.487V512h13.478v-4.101h-6.573l6.796-8.487v-2.861h-13.161v4.101Z"/><circle cx="150" cy="486" r="6" fill="#fff"/><circle cx="362" cy="486" r="6" fill="#fff"/><path fill="#0082C5" d="M136 400h24v72h-24zM352 400h24v72h-24z"/></g><g beard='3'><path fill-rule="evenodd" clip-rule="evenodd" d="M207 346V271H305V346H256H207ZM219 283H293V315H219V283Z" fill="#121212"/></g><g face='9'><path d="M246 289.391C246 289.391 258.823 284.011 262 289.391C265.153 294.732 254.5 303.391 254.5 303.391C254.5 303.391 267.632 299.309 270.5 304.891C273.719 311.156 258 317.891 258 317.891" stroke="#121212" stroke-width="6"/><rect width="20" height="20" x="212" y="194" fill="#121212" rx="10"><animate attributeName="rx" begin="1s" dur="2s" keyTimes="0;0.25;0.3;0.35;1" repeatCount="indefinite" values="10;10;1;10;10"/><animate attributeName="height" begin="1s" dur="2s" keyTimes="0;0.25;0.3;0.35;1" repeatCount="indefinite" values="20;20;2;20;20"/><animate attributeName="y" begin="1s" dur="2s" keyTimes="0;0.25;0.3;0.35;1" repeatCount="indefinite" values="194;194;203;194;194"/></rect><rect width="20" height="20" x="280" y="194" fill="#121212" rx="10"><animate attributeName="rx" begin="1s" dur="2s" keyTimes="0;0.25;0.3;0.35;1" repeatCount="indefinite" values="10;10;1;10;10"/><animate attributeName="height" begin="1s" dur="2s" keyTimes="0;0.25;0.3;0.35;1" repeatCount="indefinite" values="20;20;2;20;20"/><animate attributeName="y" begin="1s" dur="2s" keyTimes="0;0.25;0.3;0.35;1" repeatCount="indefinite" values="194;194;203;194;194"/></rect><path d="M206 162H238" stroke="#121212" stroke-width="6"/><path d="M274 162H306" stroke="#121212" stroke-width="6"/><path d="M256 218L266 258H246" stroke="#121212" stroke-width="6"/></g><g glass='12'><path fill="#121212" d="M166 172h80v64l-80 42V172Z"/><rect width="40" height="40" x="194" y="184" fill="#D22D27" rx="20"/><rect width="20" height="20" x="204" y="194" fill="#7B0000" rx="10"/><rect width="8" height="8" x="182" y="184" fill="#D22D27" rx="4"/></g></svg>