<svg xmlns="http://www.w3.org/2000/svg" width="512" height="512" fill="none"><rect width="512" height="512" fill="#572828 "/><g skin='11'><path fill="#D5A300" d="M134 178h32v64h-20l-12-64ZM378 178h-32v64h20l12-64ZM207 346h98v54h-98z"/><path fill="#E3B41A" d="M64 400h384l32 112H32l32-112ZM166 106h180v240H166z"/></g><g hair='17'><path fill="#8B634A" d="M106 146h300v16H106zM390 122h16v24h-16zM106 122h16v24h-16zM166 26h180v120H166z"/><path fill="#77492D" d="M166 106h180v40H166z"/><path fill="#8B634A" d="m236 114 7.629 24h4.228l-7.565-24H236Zm36.078 0-8.01 24h4.292l7.947-24h-4.229Zm-22.425 12.652h6.2l-6.74 8.487V138h13.478v-4.101h-6.573l6.796-8.487v-2.861h-13.161v4.101Z"/></g><g dress='35'><g clip-path="url(#a)"><path fill="#D22D27" d="M64 400h143l50 39 48-39h143l32 112H32l32-112Z"/><circle cx="169.971" cy="454.941" r="12" fill="#F90" transform="rotate(-45 169.971 454.941)"/><circle cx="186.941" cy="437.971" r="12" fill="#F90" transform="rotate(-45 186.941 437.971)"/><circle cx="203.912" cy="454.941" r="12" fill="#F90" transform="rotate(-45 203.912 454.941)"/><circle cx="186.941" cy="471.912" r="12" fill="#F90" transform="rotate(-45 186.941 471.912)"/><circle cx="186.941" cy="454.941" r="12" fill="#FFD600" transform="rotate(-45 186.941 454.941)"/><circle cx="393.62" cy="430.828" r="12" fill="#F90" transform="rotate(-20 393.62 430.828)"/><circle cx="416.173" cy="422.62" r="12" fill="#F90" transform="rotate(-20 416.173 422.62)"/><circle cx="424.381" cy="445.172" r="12" fill="#F90" transform="rotate(-20 424.381 445.172)"/><circle cx="401.828" cy="453.381" r="12" fill="#F90" transform="rotate(-20 401.828 453.381)"/><circle cx="409.001" cy="438" r="12" fill="#FFD600" transform="rotate(-20 409.001 438)"/><circle cx="82.381" cy="430.588" r="12" fill="#F90" transform="rotate(-20 82.38 430.588)"/><circle cx="104.933" cy="422.38" r="12" fill="#F90" transform="rotate(-20 104.933 422.38)"/><circle cx="113.141" cy="444.932" r="12" fill="#F90" transform="rotate(-20 113.141 444.932)"/><circle cx="90.589" cy="453.141" r="12" fill="#F90" transform="rotate(-20 90.589 453.141)"/><circle cx="97.761" cy="437.76" r="12" fill="#FFD600" transform="rotate(-20 97.761 437.76)"/><circle cx="110.381" cy="500.588" r="12" fill="#F90" transform="rotate(-20 110.381 500.588)"/><circle cx="132.933" cy="492.38" r="12" fill="#F90" transform="rotate(-20 132.933 492.38)"/><circle cx="141.141" cy="514.932" r="12" fill="#F90" transform="rotate(-20 141.141 514.932)"/><circle cx="118.589" cy="523.141" r="12" fill="#F90" transform="rotate(-20 118.589 523.141)"/><circle cx="125.761" cy="507.76" r="12" fill="#FFD600" transform="rotate(-20 125.761 507.76)"/><circle cx="244.381" cy="496.588" r="12" fill="#F90" transform="rotate(-20 244.381 496.588)"/><circle cx="266.933" cy="488.38" r="12" fill="#F90" transform="rotate(-20 266.933 488.38)"/><circle cx="275.141" cy="510.932" r="12" fill="#F90" transform="rotate(-20 275.141 510.932)"/><circle cx="252.589" cy="519.141" r="12" fill="#F90" transform="rotate(-20 252.589 519.141)"/><circle cx="259.761" cy="503.76" r="12" fill="#FFD600" transform="rotate(-20 259.761 503.76)"/><circle cx="316.971" cy="465.941" r="12" fill="#F90" transform="rotate(-45 316.971 465.941)"/><circle cx="333.941" cy="448.971" r="12" fill="#F90" transform="rotate(-45 333.941 448.971)"/><circle cx="350.912" cy="465.941" r="12" fill="#F90" transform="rotate(-45 350.912 465.941)"/><circle cx="333.941" cy="482.912" r="12" fill="#F90" transform="rotate(-45 333.941 482.912)"/><circle cx="333.941" cy="465.941" r="12" fill="#FFD600" transform="rotate(-45 333.941 465.941)"/><circle cx="406.971" cy="509.941" r="12" fill="#F90" transform="rotate(-45 406.971 509.941)"/><circle cx="423.941" cy="492.971" r="12" fill="#F90" transform="rotate(-45 423.941 492.971)"/><circle cx="440.912" cy="509.941" r="12" fill="#F90" transform="rotate(-45 440.912 509.941)"/><circle cx="423.941" cy="526.912" r="12" fill="#F90" transform="rotate(-45 423.941 526.912)"/><circle cx="423.941" cy="509.941" r="12" fill="#FFD600" transform="rotate(-45 423.941 509.941)"/><path fill="#FF9490" d="m257 439-41.5 27.5-36-66.5 27.5-20 50 59ZM257 439l41.5 27.5 36-66.5-29.5-20-48 59Z"/></g><defs><clipPath id="a"><path fill="#fff" d="M0 0h512v512H0z"/></clipPath></defs></g><g beard='0'><path fill-rule="evenodd" clip-rule="evenodd" d="M346 266H166V349L256 382L346 349V266ZM297 281H215V323H297V281Z" fill="#121212"/></g><g face='10'><path d="M246 289.391C246 289.391 258.823 284.011 262 289.391C265.153 294.732 254.5 303.391 254.5 303.391C254.5 303.391 267.632 299.309 270.5 304.891C273.719 311.156 258 317.891 258 317.891" stroke="#121212" stroke-width="6"/><path d="M206 162H238" stroke="#121212" stroke-width="6"/><path d="M206 202C206 202 212 194 222 194C232 194 238 202 238 202" stroke="#121212" stroke-width="6"/><path d="M274 202C274 202 280 194 290 194C300 194 306 202 306 202" stroke="#121212" stroke-width="6"/><path d="M274 162H306" stroke="#121212" stroke-width="6"/><path d="M256 218L266 258H246" stroke="#121212" stroke-width="6"/></g><g glass='18'><path fill="#121212" d="M166 190h84v12h-84z"/><path fill="#fff" d="M178 190h12v12h-12z"/><path fill="#121212" d="M262 190h84v12h-84zM274 202h60v12h-60zM286 214h36v12h-36zM178 202h60v12h-60zM190 214h36v12h-36zM166 178h180v12H166z"/><path fill="#fff" d="M190 202h12v12h-12zM202 214h12v12h-12zM274 190h12v12h-12zM286 202h12v12h-12zM298 214h12v12h-12z"/></g></svg>