<svg xmlns="http://www.w3.org/2000/svg" width="512" height="512" fill="none"><rect width="512" height="512" fill="#FFD600 "/><g skin='7'><path fill="#2D2D2D" d="M134 178h32v64h-20l-12-64ZM378 178h-32v64h20l12-64ZM64 400h384l32 112H32l32-112Z"/><path fill="#E3E3E3" d="M136 456h240v56H136z"/><path fill="#2D2D2D" d="M207 346h98v54h-98z"/><path fill="#E3E3E3" d="M166 106h180v240H166z"/><path fill="#2D2D2D" d="M246 204c0 16.016-12.984 31.5-29 31.5s-35-15.484-35-31.5 23.484-29.5 39.5-29.5S246 187.984 246 204ZM266 204.5c0 16.016 12.984 31.5 29 31.5s35-15.484 35-31.5-23.484-29.5-39.5-29.5-24.5 13.484-24.5 29.5Z"/></g><g hair='3'><path fill="#121212" d="m194 298-16-120v-72h-12v176l28 16ZM318 298l16-120v-72h12v176l-28 16ZM236 106h40v12h-40z"/><path fill="#fff" d="M115 155h51v95h-51zM346 155h51v95h-51zM166 106v49h-28V77h236v78h-28v-49H166Z"/></g><g dress='51'><path fill="#fff" d="M448 400H336L171 512h309l-32-112Z"/><path fill="#ECECEC" d="m338 456 7.629 24h4.228l-7.565-24H338Zm36.078 0-8.01 24h4.292l7.947-24h-4.229Zm-22.425 12.652h6.2l-6.74 8.487V480h13.478v-4.101h-6.573l6.796-8.487v-2.861h-13.161v4.101ZM370 400h-34L171 512h37l162-112Z"/><path fill="#fff" d="M64 400h112l165 112H32l32-112Z"/><path fill="#ECECEC" d="M142 400h34l165 112h-37L142 400Z"/></g><g beard='3'><path fill-rule="evenodd" clip-rule="evenodd" d="M207 346V271H305V346H256H207ZM219 283H293V315H219V283Z" fill="#121212"/></g><g face='18'><path d="M231.114 302H280.403L292 290" stroke="#121212" stroke-width="6"/><rect width="20" height="20" x="212" y="194" fill="#121212" rx="10"><animate attributeName="rx" begin="1s" dur="2s" keyTimes="0;0.25;0.3;0.35;1" repeatCount="indefinite" values="10;10;1;10;10"/><animate attributeName="height" begin="1s" dur="2s" keyTimes="0;0.25;0.3;0.35;1" repeatCount="indefinite" values="20;20;2;20;20"/><animate attributeName="y" begin="1s" dur="2s" keyTimes="0;0.25;0.3;0.35;1" repeatCount="indefinite" values="194;194;203;194;194"/></rect><rect width="20" height="20" x="280" y="194" fill="#121212" rx="10"><animate attributeName="rx" begin="1s" dur="2s" keyTimes="0;0.25;0.3;0.35;1" repeatCount="indefinite" values="10;10;1;10;10"/><animate attributeName="height" begin="1s" dur="2s" keyTimes="0;0.25;0.3;0.35;1" repeatCount="indefinite" values="20;20;2;20;20"/><animate attributeName="y" begin="1s" dur="2s" keyTimes="0;0.25;0.3;0.35;1" repeatCount="indefinite" values="194;194;203;194;194"/></rect><path d="M206.965 173.472L237.035 162.528" stroke="#121212" stroke-width="6"/><path d="M274.965 162.528L305.035 173.472" stroke="#121212" stroke-width="6"/><path d="M256 218L266 258H246" stroke="#121212" stroke-width="6"/></g><g glass='11'><path fill="#121212" d="M182 175h64v20l-12 36h-52v-56Z"/><path stroke="#FFB74A" stroke-width="6" d="M182 175h64v20l-12 36h-52v-56Zm0 0h-16M247 175h19M247 193h19"/><path fill="#121212" d="M266 175h64v56h-52l-12-35.5V175Z"/><path stroke="#FFB74A" stroke-width="6" d="M330 175h-64v20.5l12 35.5h52v-56Zm0 0h16"/></g></svg>