<svg xmlns="http://www.w3.org/2000/svg" width="512" height="512" fill="none"><rect width="512" height="512" fill="#7B0000 "/><g skin='12'><path fill="#80573E" d="M134 178h32v64h-20l-12-64ZM378 178h-32v64h20l12-64ZM207 346h98v54h-98z"/><path fill="#8B634A" d="M64 400h384l32 112H32l32-112Z"/><path fill="#AE7B5C" d="M136 456h240v56H136z"/><path fill="#8B634A" d="M166 106h180v240H166z"/><path fill="#AE7B5C" d="M207 242h98v104h-98zM182 178h148v64H182z"/></g><g hair='30'><path fill="#00892F" d="M166 146h240v16H166z"/><path fill="#FFE871" d="M166 74h60v72h-60z"/><path fill="#D22D27" d="M226 74h60v72h-60z"/><path fill="#0032B4" d="M286 74h60v72h-60z"/><path fill="#D22D27" d="M210 50h92v12h-92z"/><path fill="#121212" d="M250 50h12v24h-12z"/></g><g dress='80'><g clip-path="url(#a)"><path fill="#D22D27" d="M64 400h101s-7.5 42 42 56v56H32l32-112Z"/><circle cx="185" cy="476" r="6" fill="#FFD600"/><circle cx="185" cy="504" r="6" fill="#FFD600"/><path fill="#D22D27" d="M448 400H347s7.5 42-42 56v56h175l-32-112Z"/><path fill="#FF784A" d="m251.914 471.778-37.85-50.775 50.313 38.312 34.62 46.621-47.083-34.158Z"/><path fill="#FF784A" d="m248.222 459.313 50.775-37.851-38.312 50.314-46.621 34.619 34.158-47.082Z"/></g><defs><clipPath id="a"><path fill="#fff" d="M0 0h512v512H0z"/></clipPath></defs></g><g beard='6'><rect x="207" y="346" width="98" height="54" fill="#E24713"/><path fill-rule="evenodd" clip-rule="evenodd" d="M346 266H166V400H256.5H346V266ZM297 281H215V323H297V281Z" fill="#121212"/></g><g face='27'><path d="M206 162H238" stroke="#121212" stroke-width="6"/><path d="M206 202C206 202 212 194 222 194C232 194 238 202 238 202" stroke="#121212" stroke-width="6"/><path d="M274 202C274 202 280 194 290 194C300 194 306 202 306 202" stroke="#121212" stroke-width="6"/><path d="M274 162H306" stroke="#121212" stroke-width="6"/><path d="M230.711 302H280" stroke="#121212" stroke-width="6"/><path d="M256 218L266 258H246" stroke="#121212" stroke-width="6"/><path d="M276.75 301.825C276.75 301.825 367.883 367.501 373.192 370.5L385.191 349.999L276.75 301.825Z" fill="#D22D27" stroke="#121212" stroke-width="6"/><path d="M276.75 301.825L342.223 348.641L360.478 339.021L276.75 301.825Z" fill="#00FF94" stroke="#121212" stroke-width="6"/><path d="M276.75 301.825L324.97 336.304L339.801 329.835L276.75 301.825Z" fill="#00B2FE" stroke="#121212" stroke-width="6"/><rect x="391.396" y="335" width="21" height="37.7025" rx="10.5" transform="rotate(42.3433 391.396 335)" fill="#FFB74A" stroke="#121212" stroke-width="6"/><path d="M390 363C390 366.701 387.989 369.933 385 371.662C383.529 372.513 381.821 373 380 373C374.477 373 370 368.523 370 363C370 357.477 374.477 353 380 353C385.523 353 390 357.477 390 363Z" fill="#FFB74A" stroke="#121212" stroke-width="6"/></g><g glass='1'><path fill="#fff" fill-opacity=".4" d="M190 175h56v56h-56v-56Z"/><path stroke="#121212" stroke-width="6" d="M190 175h56v56h-56v-56Zm0 0h-24M247 184h19"/><path fill="#fff" fill-opacity=".4" d="M266 175h56v56h-56v-56Z"/><path stroke="#121212" stroke-width="6" d="M322 175h-56v56h56v-56Zm0 0h24"/></g></svg>