<svg xmlns="http://www.w3.org/2000/svg" width="512" height="512" fill="none"><rect width="512" height="512" fill="#572828 "/><g skin='11'><path fill="#D5A300" d="M134 178h32v64h-20l-12-64ZM378 178h-32v64h20l12-64ZM207 346h98v54h-98z"/><path fill="#E3B41A" d="M64 400h384l32 112H32l32-112ZM166 106h180v240H166z"/></g><g hair='62'><ellipse cx="256" cy="58" stroke="#fff" stroke-width="12" rx="90" ry="24"/></g><g dress='66'><path fill="#fff" d="M64 400h384l32 112H32l32-112Z"/><path fill="#121212" d="M207 372h36v28h-36zM269 372h36v28h-36zM96 400h320v112H96V400Z"/><path stroke="#2D2D2D" stroke-width="6" d="M256 400v112"/><circle cx="274" cy="427" r="6" fill="#2D2D2D"/><circle cx="274" cy="459" r="6" fill="#2D2D2D"/><circle cx="274" cy="491" r="6" fill="#2D2D2D"/><path fill="#2D2D2D" d="M328 472h64v16h-64z"/></g><g beard='8'><rect x="204" y="286" width="12" height="60" fill="#121212"/><rect x="296" y="286" width="12" height="60" fill="#121212"/><rect x="244" y="322" width="24" height="12" fill="#121212"/><path d="M204 334H308V346L256 370L204 346V334Z" fill="#121212"/></g><g face='2'><path d="M230.711 302H280" stroke="#121212" stroke-width="6"/><rect width="20" height="20" x="212" y="194" fill="#121212" rx="10"><animate attributeName="rx" begin="1s" dur="2s" keyTimes="0;0.25;0.3;0.35;1" repeatCount="indefinite" values="10;10;1;10;10"/><animate attributeName="height" begin="1s" dur="2s" keyTimes="0;0.25;0.3;0.35;1" repeatCount="indefinite" values="20;20;2;20;20"/><animate attributeName="y" begin="1s" dur="2s" keyTimes="0;0.25;0.3;0.35;1" repeatCount="indefinite" values="194;194;203;194;194"/></rect><rect width="20" height="20" x="280" y="194" fill="#121212" rx="10"><animate attributeName="rx" begin="1s" dur="2s" keyTimes="0;0.25;0.3;0.35;1" repeatCount="indefinite" values="10;10;1;10;10"/><animate attributeName="height" begin="1s" dur="2s" keyTimes="0;0.25;0.3;0.35;1" repeatCount="indefinite" values="20;20;2;20;20"/><animate attributeName="y" begin="1s" dur="2s" keyTimes="0;0.25;0.3;0.35;1" repeatCount="indefinite" values="194;194;203;194;194"/></rect><path d="M206 197H238" stroke="#121212" stroke-width="6"/><path d="M274 197H306" stroke="#121212" stroke-width="6"/><path d="M256 218L266 258H246" stroke="#121212" stroke-width="6"/></g><g glass='2'><path fill="#121212" d="M190 175h56v56h-56v-56Z"/><path stroke="#121212" stroke-width="6" d="M190 175h56v56h-56v-56Zm0 0h-24M247 184h19"/><path fill="#121212" d="M266 175h56v56h-56v-56Z"/><path stroke="#121212" stroke-width="6" d="M322 175h-56v56h56v-56Zm0 0h24"/></g></svg>