<svg xmlns="http://www.w3.org/2000/svg" width="512" height="512" fill="none"><rect width="512" height="512" fill="#007089 "/><g skin='1'><path fill="#E24713" d="M134 178h32v64h-20l-12-64ZM378 178h-32v64h20l12-64ZM207 346h98v54h-98z"/><path fill="#F15824" d="M64 400h384l32 112H32l32-112Z"/><path fill="#1D1D1D" d="m42 477-6.571 23L106 489l-64-12ZM476.286 499l-6-21L405 488.5l71.286 10.5ZM466.429 464.5l-5.572-19.5-35.357 11.5 40.929 8ZM51.143 445l-5.572 19.5 41.429-8L51.143 445Z"/><path fill="#FF6F3F" d="M136 456h240v56H136z"/><path fill="#F15824" d="M166 106h180v240H166z"/><path fill="#1D1D1D" d="M96 400H80l8 24 8-24ZM158 178h-16l8 16 8-16ZM370 178h-16l8 16 8-16ZM210 106h-16l8 24 8-24ZM342 400h-16l8 40 8-40ZM141 400h-16l8 32 8-32ZM264 106h-16l8 40 8-40ZM387 400h-16l8 32 8-32ZM186 400h-16l8 40 8-40ZM318 106h-16l8 24 8-24ZM432 400h-16l8 24 8-24ZM190 262l-24-8v16l24-8ZM190 154l-24-8v16l24-8ZM231 362l-24-8v16l24-8ZM281 362l24-8v16l-24-8ZM231 385l-24-8v16l24-8ZM281 385l24-8v16l-24-8ZM322 262l24-8v16l-24-8ZM322 154l24-8v16l-24-8ZM198 294l-32-8v16l32-8ZM314 294l32-8v16l-32-8ZM214 326l-48-8v16l48-8ZM298 326l48-8v16l-48-8Z"/></g><g hair='69'><path fill="#D22D27" d="M166 138h180V50H166z"/><path fill="#FFB74A" d="M150 162h212v-24H150zM230 24h52v114h-52z"/><path fill="#D22D27" d="m236 38 7.505 24h4.159l-7.442-24H236Zm35.492 0-7.88 24h4.222l7.818-24h-4.16Zm-22.061 12.652h6.099l-6.63 8.487V62h13.259v-4.1h-6.466l6.685-8.489v-2.86h-12.947v4.1Z"/><circle cx="256" cy="150" r="6" fill="#D22D27"/><circle cx="256" cy="116" r="6" fill="#D22D27"/><circle cx="256" cy="88" r="6" fill="#D22D27"/><circle cx="220" cy="150" r="6" fill="#D22D27"/><circle cx="184" cy="150" r="6" fill="#D22D27"/><circle cx="328" cy="150" r="6" fill="#D22D27"/><circle cx="292" cy="150" r="6" fill="#D22D27"/><path fill="#FFB74A" d="M166 50h24v88h-24zM322 50h24v88h-24z"/><circle cx="334" cy="116" r="6" fill="#D22D27"/><circle cx="178" cy="116" r="6" fill="#D22D27"/><circle cx="334" cy="88" r="6" fill="#D22D27"/><circle cx="334" cy="60" r="6" fill="#D22D27"/><circle cx="178" cy="88" r="6" fill="#D22D27"/><circle cx="178" cy="60" r="6" fill="#D22D27"/></g><g dress='44'><path fill="#498693" d="M64 400h124s2 52 68 52 68-52 68-52h124l32 112H32l32-112Z"/><path fill="#1E6878" d="M256 452c-66 0-68-52-68-52h-21.5s6 73.5 89.5 73.5 89.5-73.5 89.5-73.5H324s-2 52-68 52Z"/></g><g beard='6'><rect x="207" y="346" width="98" height="54" fill="#E24713"/><path fill-rule="evenodd" clip-rule="evenodd" d="M346 266H166V400H256.5H346V266ZM297 281H215V323H297V281Z" fill="#121212"/></g><g face='11'><rect width="20" height="20" x="212" y="194" fill="#121212" rx="10"><animate attributeName="rx" begin="1s" dur="2s" keyTimes="0;0.25;0.3;0.35;1" repeatCount="indefinite" values="10;10;1;10;10"/><animate attributeName="height" begin="1s" dur="2s" keyTimes="0;0.25;0.3;0.35;1" repeatCount="indefinite" values="20;20;2;20;20"/><animate attributeName="y" begin="1s" dur="2s" keyTimes="0;0.25;0.3;0.35;1" repeatCount="indefinite" values="194;194;203;194;194"/></rect><rect width="20" height="20" x="280" y="194" fill="#121212" rx="10"><animate attributeName="rx" begin="1s" dur="2s" keyTimes="0;0.25;0.3;0.35;1" repeatCount="indefinite" values="10;10;1;10;10"/><animate attributeName="height" begin="1s" dur="2s" keyTimes="0;0.25;0.3;0.35;1" repeatCount="indefinite" values="20;20;2;20;20"/><animate attributeName="y" begin="1s" dur="2s" keyTimes="0;0.25;0.3;0.35;1" repeatCount="indefinite" values="194;194;203;194;194"/></rect><path d="M206 162H238" stroke="#121212" stroke-width="6"/><path d="M274 162H306" stroke="#121212" stroke-width="6"/><path d="M256 218L266 258H246" stroke="#121212" stroke-width="6"/><path d="M296 282H216C216 282 216 318 256.028 318C296.057 318 296 282 296 282Z" fill="white"/></g><g glass='14'><mask id="a" fill="#fff"><path d="m256 230-21 16h-69v-68h180v68h-69l-21-16Z"/></mask><path fill="#0047FF" d="M166 198h180v-6H166v6Zm0 15.5h180v-6H166v6Zm0 15.5h180v-6H166v6Zm90 1 3.636-4.773a6 6 0 0 0-7.272 0L256 230Zm-21 16v6h2.025l1.611-1.227L235 246Zm-69 0h-6v6h6v-6Zm180 0v6h6v-6h-6Zm-69 0-3.636 4.773 1.611 1.227H277v-6Zm-111-68v-6h-6v6h6Zm180 0h6v-6h-6v6Zm-93.636 47.227-21 16 7.272 9.546 21-16-7.272-9.546ZM235 240h-69v12h69v-12Zm111 0h-69v12h69v-12Zm-65.364 1.227-21-16-7.272 9.546 21 16 7.272-9.546ZM172 195v-17h-12v17h12Zm168-17v17h12v-17h-12Zm-168 32.5V195h-12v15.5h12ZM340 195v15.5h12V195h-12Zm-168 51v-20h-12v20h12Zm0-20v-15.5h-12V226h12Zm168-15.5V226h12v-15.5h-12Zm0 15.5v20h12v-20h-12Zm-174-42h180v-12H166v12Z" mask="url(#a)"/></g></svg>