<svg xmlns="http://www.w3.org/2000/svg" width="512" height="512" fill="none"><rect width="512" height="512" fill="#FFD600 "/><g skin='10'><path fill="#56C499" d="M134 178h32v64h-20l-12-64ZM378 178h-32v64h20l12-64Z"/><path fill="#82DCB9" d="M64 400h384l32 112H32l32-112Z"/><path fill="#D22D27" d="M87.5 427.5V400h68l-41 27.5h-27Z"/><path fill="#56C499" d="M207 346h98v54h-98z"/><path fill="#82DCB9" d="m207 377 98-12v4l-98 12v-4Z"/><path fill="#FF00B1" d="M190 118.5s-10.505-3.476-16.5 2.948c-5.596 5.995 0 18.552 0 18.552s-5.89 3.714-7 9c-2.205 10.5 4.499 15.5 4.499 15.5v8.5H192.5l35.5-63h-8s-5.5-3.667-16-2.5c-8.999 1-14 11-14 11Z"/><path fill="#82DCB9" d="M346 346V106H223l-16.5 20v16H188v15l-22 9v180h180Z"/><path fill="#D22D27" d="m294 136.5 52 12v9.5l-52-21.5Z"/><path fill="#fff" d="m313.762 134 3.625 1.69-6.762 14.501-3.625-1.69zM223 369.349l3.985-.349 1.394 15.94-3.985.348zM253 365.349l3.985-.349 1.394 15.94-3.985.348zM283 361.349l3.985-.349 1.394 15.94-3.985.348zM331.141 141l3.864 1.035-4.141 15.455-3.864-1.035zM147.129 383.208 124.576 375l-1.368 3.758 22.553 8.209zM136.364 383.547l-3.759-1.368-8.208 22.553 3.759 1.368zM115 385H91v4h24zM105 389h-4v24h4z"/></g><g hair='61'><path fill="#D22D27" d="M239 82.97 255.971 42l16.97 40.97-16.97 16.971L239 82.971Z"/><path fill="#D22D27" d="M239 82.97 255.971 42l16.97 40.97-16.97 16.971L239 82.971Z"/><path fill="#F90" d="m246.31 85.81 9.712-23.332 9.598 23.285-9.679 9.678-9.631-9.63Z"/><path fill="#D22D27" d="M277 82.97 293.971 42l16.97 40.97-16.97 16.971L277 82.971ZM312.723 76.782 325.059 47l12.336 29.782-12.336 12.336-12.336-12.336ZM202 82.97 218.971 42l16.97 40.97-16.97 16.971L202 82.971ZM177.723 73.782 190.059 44l12.336 29.782-12.336 12.336-12.336-12.336ZM159.664 61.752 169.088 39l9.425 22.752-9.425 9.425-9.424-9.425ZM249.611 35.744 256.132 20l6.522 15.744-6.522 6.52-6.521-6.52ZM234.611 35.744 241.132 20l6.522 15.744-6.522 6.52-6.521-6.52ZM219.611 37.744 226.132 22l6.522 15.744-6.522 6.52-6.521-6.52ZM204.611 38.744 211.132 23l6.522 15.744-6.522 6.52-6.521-6.52ZM191.611 41.744 198.132 26l6.522 15.744-6.522 6.52-6.521-6.52ZM174.611 44.744 181.132 29l6.522 15.744-6.522 6.52-6.521-6.52ZM264.611 35.744 271.132 20l6.522 15.744-6.522 6.52-6.521-6.52ZM279.611 36.744 286.132 21l6.522 15.744-6.522 6.52-6.521-6.52ZM295.611 39.744 302.132 24l6.522 15.744-6.522 6.52-6.521-6.52ZM310.611 41.744 317.132 26l6.522 15.744-6.522 6.52-6.521-6.52ZM326.611 46.744 333.132 31l6.522 15.744-6.522 6.52-6.521-6.52ZM336.664 61.752 346.088 39l9.425 22.752-9.425 9.425-9.424-9.425Z"/><path fill="#F90" d="M283.81 85.332 293.522 62l9.598 23.285-9.679 9.678-9.631-9.63ZM208.81 85.332 218.522 62l9.598 23.285-9.679 9.678-9.631-9.63ZM182.054 75.315 189.261 58l7.122 17.28-7.182 7.182-7.147-7.147ZM163.658 62.533 168.875 50l5.155 12.508-5.199 5.199-5.173-5.174ZM177.447 45.385 180.938 37l3.448 8.368-3.478 3.478-3.461-3.461ZM194.447 42.385 197.938 34l3.448 8.368-3.478 3.478-3.461-3.461ZM207.447 39.385 210.938 31l3.448 8.368-3.478 3.478-3.461-3.461ZM222.447 38.385 225.938 30l3.448 8.368-3.478 3.478-3.461-3.461ZM237.447 36.385 240.938 28l3.448 8.368-3.478 3.478-3.461-3.461ZM252.447 36.385 255.938 28l3.448 8.368-3.478 3.478-3.461-3.461ZM267.447 36.385 270.938 28l3.448 8.368-3.478 3.478-3.461-3.461ZM282.447 37.385 285.938 29l3.448 8.368-3.478 3.478-3.461-3.461ZM298.447 40.385 301.938 32l3.448 8.368-3.478 3.478-3.461-3.461ZM313.447 42.385 316.938 34l3.448 8.368-3.478 3.478-3.461-3.461ZM329.447 47.385 332.938 39l3.448 8.368-3.478 3.478-3.461-3.461ZM318.054 77.315 325.261 60l7.122 17.28-7.182 7.182-7.147-7.147ZM340.658 63.533 345.875 51l5.155 12.508-5.199 5.199-5.173-5.174Z"/></g><g dress='81'><path fill="#121212" d="M207 372h36v28h-36z"/><path fill="#fff" d="M235 372h8v28h-8z"/><path fill="#121212" d="M269 372h36v28h-36z"/><path fill="#F15824" d="M64 400h384l32 112H32l32-112Z"/><path fill="#121212" d="M64 400h384l32 112H32l32-112Z"/><path stroke="#42B16C" stroke-width="6" d="M203 400v112M309 400v112"/><path fill="#42B16C" d="M64 400h143v112H32l32-112ZM448 400H305v112h175l-32-112Z"/><path fill="#121212" d="M103 400h48v56h-48v-56ZM409 400h-48v56h48v-56ZM55 456h48v56H55v-56ZM457 456h-48v56h48v-56ZM151 456h48v56h-48v-56ZM361 456h-48v56h48v-56Z"/><circle cx="256" cy="430" r="6" fill="#FFD600"/><circle cx="256" cy="466" r="6" fill="#FFD600"/><circle cx="256" cy="502" r="6" fill="#FFD600"/><path fill="#fff" d="M269 372h8v28h-8z"/></g><g beard='1'><path d="M166 266L206 286V346H166V266Z" fill="#121212"/><path d="M346 266L306 286V346H346V266Z" fill="#121212"/><rect x="206" y="322" width="100" height="24" fill="#121212"/></g><g face='1'><path d="M230.711 302H280" stroke="#121212" stroke-width="6"/><rect width="20" height="20" x="212" y="194" fill="#121212" rx="10"><animate attributeName="rx" begin="1s" dur="2s" keyTimes="0;0.25;0.3;0.35;1" repeatCount="indefinite" values="10;10;1;10;10"/><animate attributeName="height" begin="1s" dur="2s" keyTimes="0;0.25;0.3;0.35;1" repeatCount="indefinite" values="20;20;2;20;20"/><animate attributeName="y" begin="1s" dur="2s" keyTimes="0;0.25;0.3;0.35;1" repeatCount="indefinite" values="194;194;203;194;194"/></rect><rect width="20" height="20" x="280" y="194" fill="#121212" rx="10"><animate attributeName="rx" begin="1s" dur="2s" keyTimes="0;0.25;0.3;0.35;1" repeatCount="indefinite" values="10;10;1;10;10"/><animate attributeName="height" begin="1s" dur="2s" keyTimes="0;0.25;0.3;0.35;1" repeatCount="indefinite" values="20;20;2;20;20"/><animate attributeName="y" begin="1s" dur="2s" keyTimes="0;0.25;0.3;0.35;1" repeatCount="indefinite" values="194;194;203;194;194"/></rect><path d="M208.144 160L235.856 176" stroke="#121212" stroke-width="6"/><path d="M276.144 176L303.856 160" stroke="#121212" stroke-width="6"/><path d="M256 218L266 258H246" stroke="#121212" stroke-width="6"/></g><g glass='2'><path fill="#121212" d="M190 175h56v56h-56v-56Z"/><path stroke="#121212" stroke-width="6" d="M190 175h56v56h-56v-56Zm0 0h-24M247 184h19"/><path fill="#121212" d="M266 175h56v56h-56v-56Z"/><path stroke="#121212" stroke-width="6" d="M322 175h-56v56h56v-56Zm0 0h24"/></g></svg>