<svg xmlns="http://www.w3.org/2000/svg" width="512" height="512" fill="none"><rect width="512" height="512" fill="#FFD600 "/><g skin='0'><path fill="#E24713" d="M134 178h32v64h-20l-12-64ZM378 178h-32v64h20l12-64ZM207 346h98v54h-98z"/><path fill="#F15824" d="M64 400h384l32 112H32l32-112ZM166 106h180v240H166z"/></g><g hair='68'><path fill="#D22D27" d="M166 122h180v40H166z"/><path fill="#FF9490" d="M220 126h72v32h-72z"/><path fill="#D22D27" d="m243 134 5.086 16h2.819l-5.044-16H243Zm24.052 0-5.34 16h2.861l5.298-16h-2.819Zm-14.95 8.434h4.133l-4.493 5.659V150h8.985v-2.734h-4.382l4.531-5.658v-1.907h-8.774v2.733Z"/></g><g dress='70'><path fill="#D22D27" d="M96 400h64s0 72 96 72 96-72 96-72h64v112H96V400Z"/><path stroke="#fff" stroke-width="6" d="M141 400s0 91 115 91 115-91 115-91M112 400v112m288-112v112"/></g><g beard='7'><rect x="204" y="286" width="12" height="60" fill="#121212"/><rect x="296" y="286" width="12" height="60" fill="#121212"/><rect x="250" y="322" width="12" height="24" fill="#121212"/><rect x="204" y="274" width="104" height="12" fill="#121212"/><rect x="196" y="334" width="120" height="12" fill="#121212"/><path d="M166 258L196 274V346H166V258Z" fill="#121212"/><path d="M346 258L316 274V346H346V258Z" fill="#121212"/></g><g face='17'><path d="M231.114 302H280.403L292 290" stroke="#121212" stroke-width="6"/><path d="M206 162H238" stroke="#121212" stroke-width="6"/><path d="M206 202C206 202 212 194 222 194C232 194 238 202 238 202" stroke="#121212" stroke-width="6"/><path d="M274 202C274 202 280 194 290 194C300 194 306 202 306 202" stroke="#121212" stroke-width="6"/><path d="M274 162H306" stroke="#121212" stroke-width="6"/><path d="M256 218L266 258H246" stroke="#121212" stroke-width="6"/></g><g glass='18'><path fill="#121212" d="M166 190h84v12h-84z"/><path fill="#fff" d="M178 190h12v12h-12z"/><path fill="#121212" d="M262 190h84v12h-84zM274 202h60v12h-60zM286 214h36v12h-36zM178 202h60v12h-60zM190 214h36v12h-36zM166 178h180v12H166z"/><path fill="#fff" d="M190 202h12v12h-12zM202 214h12v12h-12zM274 190h12v12h-12zM286 202h12v12h-12zM298 214h12v12h-12z"/></g></svg>