<svg xmlns="http://www.w3.org/2000/svg" width="512" height="512" fill="none"><rect width="512" height="512" fill="#0047FF "/><g skin='12'><path fill="#80573E" d="M134 178h32v64h-20l-12-64ZM378 178h-32v64h20l12-64ZM207 346h98v54h-98z"/><path fill="#8B634A" d="M64 400h384l32 112H32l32-112Z"/><path fill="#AE7B5C" d="M136 456h240v56H136z"/><path fill="#8B634A" d="M166 106h180v240H166z"/><path fill="#AE7B5C" d="M207 242h98v104h-98zM182 178h148v64H182z"/></g><g hair='69'><path fill="#D22D27" d="M166 138h180V50H166z"/><path fill="#FFB74A" d="M150 162h212v-24H150zM230 24h52v114h-52z"/><path fill="#D22D27" d="m236 38 7.505 24h4.159l-7.442-24H236Zm35.492 0-7.88 24h4.222l7.818-24h-4.16Zm-22.061 12.652h6.099l-6.63 8.487V62h13.259v-4.1h-6.466l6.685-8.489v-2.86h-12.947v4.1Z"/><circle cx="256" cy="150" r="6" fill="#D22D27"/><circle cx="256" cy="116" r="6" fill="#D22D27"/><circle cx="256" cy="88" r="6" fill="#D22D27"/><circle cx="220" cy="150" r="6" fill="#D22D27"/><circle cx="184" cy="150" r="6" fill="#D22D27"/><circle cx="328" cy="150" r="6" fill="#D22D27"/><circle cx="292" cy="150" r="6" fill="#D22D27"/><path fill="#FFB74A" d="M166 50h24v88h-24zM322 50h24v88h-24z"/><circle cx="334" cy="116" r="6" fill="#D22D27"/><circle cx="178" cy="116" r="6" fill="#D22D27"/><circle cx="334" cy="88" r="6" fill="#D22D27"/><circle cx="334" cy="60" r="6" fill="#D22D27"/><circle cx="178" cy="88" r="6" fill="#D22D27"/><circle cx="178" cy="60" r="6" fill="#D22D27"/></g><g dress='84'><path fill="#fff" d="M207 481h98v-73s-15.5 24-48 24-50-24-50-24v73Z"/><path fill="#D33600" d="M64 400h143l50 67 48-67h143l32 112H32l32-112Z"/><path fill="#FF9672" d="m338 456 7.629 24h4.228l-7.565-24H338Zm36.078 0-8.01 24h4.292l7.947-24h-4.229Zm-22.425 12.652h6.2l-6.74 8.487V480h13.478v-4.101h-6.573l6.796-8.487v-2.861h-13.161v4.101Z"/><path fill="#121212" d="m182.117 463.112.293-.551c.293-.551.583-.995.871-1.331.295-.351.715-.698 1.261-1.042l9.656-6.147.18-.339-7.883-4.191 1.284-2.416 10.68 5.679-1.712 3.221-10.247 6.593a4.501 4.501 0 0 0-.843.666 3.996 3.996 0 0 0-.602.876l-.225.424-2.713-1.442Zm15.157 8.439c-1.13-.601-2.043-1.304-2.738-2.108-.682-.798-1.101-1.646-1.257-2.544-.135-.905.03-1.796.496-2.672l.135-.254c.361-.678.778-1.172 1.251-1.483.48-.324.965-.519 1.453-.586.503-.059.943-.051 1.32.022l.203-.381a3.872 3.872 0 0 1-.682-1.069 3.304 3.304 0 0 1-.264-1.446c.027-.529.199-1.09.514-1.683l.135-.254c.414-.777 1-1.335 1.76-1.674.782-.346 1.676-.459 2.682-.341 1.014.104 2.079.453 3.195 1.046 1.116.594 2.001 1.282 2.654 2.064.66.768 1.059 1.569 1.196 2.403.158.827.031 1.629-.383 2.406l-.135.254c-.315.593-.692 1.046-1.129 1.357a3.103 3.103 0 0 1-1.325.6c-.446.089-.868.1-1.268.033l-.202.381c.286.279.538.64.756 1.082.218.442.327.953.327 1.533.007.565-.169 1.187-.53 1.865l-.135.255c-.466.875-1.119 1.507-1.959 1.894-.818.38-1.755.507-2.811.38-1.042-.119-2.129-.479-3.259-1.08Zm1.285-2.416c.974.519 1.821.733 2.539.644.74-.096 1.275-.455 1.605-1.077l.09-.169c.331-.622.332-1.255.005-1.9-.306-.652-.96-1.245-1.963-1.778-.989-.526-1.846-.737-2.572-.633-.718.089-1.242.444-1.573 1.066l-.09.169c-.33.622-.336 1.263-.016 1.922.342.653 1 1.238 1.975 1.756Zm3.56-6.696c.904.481 1.69.69 2.357.628.667-.062 1.159-.389 1.474-.983l.09-.169c.316-.594.306-1.188-.03-1.783-.336-.596-.942-1.126-1.818-1.592-.876-.466-1.654-.671-2.335-.617-.682.055-1.18.379-1.496.972l-.09.17c-.315.593-.312 1.184.009 1.771.322.588.935 1.122 1.839 1.603Zm8.116 16.003c-1.13-.6-2-1.334-2.608-2.201-.608-.867-.939-1.795-.993-2.785-.054-.989.178-1.971.697-2.945l2.692-5.065c.639-1.201 1.409-2.069 2.31-2.605a5.21 5.21 0 0 1 2.97-.731c1.073.063 2.16.387 3.261.973 1.102.586 1.958 1.277 2.568 2.072.624.803.971 1.667 1.041 2.592.084.933-.129 1.88-.64 2.84l-2.755-1.465a2.475 2.475 0 0 0 .208-1.873c-.177-.656-.745-1.239-1.706-1.75-.947-.503-1.813-.647-2.598-.43-.772.224-1.39.774-1.856 1.65l-.811 1.525.381.203c.391-.155.901-.228 1.53-.219.63.008 1.418.264 2.365.768.861.458 1.555 1.062 2.08 1.813.539.758.847 1.61.924 2.557.084.932-.137 1.893-.663 2.882l-.135.254c-.519.975-1.21 1.713-2.074 2.214-.857.486-1.822.716-2.895.689-1.065-.041-2.163-.362-3.293-.963Zm1.327-2.393c.89.473 1.713.612 2.469.416.771-.188 1.363-.671 1.776-1.448l.09-.169c.278-.523.398-1.039.361-1.548-.023-.501-.198-.975-.523-1.419-.311-.438-.763-.814-1.357-1.129-.579-.308-1.144-.473-1.694-.494a2.736 2.736 0 0 0-1.491.349c-.429.262-.782.654-1.06 1.176l-.09.17c-.413.777-.489 1.534-.229 2.27.275.744.858 1.353 1.748 1.826Z"/><path fill="#FF9672" d="m207 400 50 67-122-67h72ZM305 400l-48 67 122-67h-74Z"/><path stroke="#FF9672" stroke-width="6" d="M257 465v47"/></g><g beard='3'><path fill-rule="evenodd" clip-rule="evenodd" d="M207 346V271H305V346H256H207ZM219 283H293V315H219V283Z" fill="#121212"/></g><g face='1'><path d="M230.711 302H280" stroke="#121212" stroke-width="6"/><rect width="20" height="20" x="212" y="194" fill="#121212" rx="10"><animate attributeName="rx" begin="1s" dur="2s" keyTimes="0;0.25;0.3;0.35;1" repeatCount="indefinite" values="10;10;1;10;10"/><animate attributeName="height" begin="1s" dur="2s" keyTimes="0;0.25;0.3;0.35;1" repeatCount="indefinite" values="20;20;2;20;20"/><animate attributeName="y" begin="1s" dur="2s" keyTimes="0;0.25;0.3;0.35;1" repeatCount="indefinite" values="194;194;203;194;194"/></rect><rect width="20" height="20" x="280" y="194" fill="#121212" rx="10"><animate attributeName="rx" begin="1s" dur="2s" keyTimes="0;0.25;0.3;0.35;1" repeatCount="indefinite" values="10;10;1;10;10"/><animate attributeName="height" begin="1s" dur="2s" keyTimes="0;0.25;0.3;0.35;1" repeatCount="indefinite" values="20;20;2;20;20"/><animate attributeName="y" begin="1s" dur="2s" keyTimes="0;0.25;0.3;0.35;1" repeatCount="indefinite" values="194;194;203;194;194"/></rect><path d="M208.144 160L235.856 176" stroke="#121212" stroke-width="6"/><path d="M276.144 176L303.856 160" stroke="#121212" stroke-width="6"/><path d="M256 218L266 258H246" stroke="#121212" stroke-width="6"/></g><g glass='9'><path stroke="#fff" stroke-width="6" d="M231.959 257.765c5.611-3.635 8.723-8.155 11.169-11.708a81.226 81.226 0 0 1 1.54-2.189c1.408-1.908 2.694-3.302 4.313-4.264 1.58-.939 3.716-1.604 7.019-1.604s5.439.665 7.019 1.604c1.619.962 2.905 2.356 4.313 4.264a81.226 81.226 0 0 1 1.54 2.189c2.446 3.553 5.558 8.073 11.169 11.708 9.751 6.316 22.676 8.257 35.154 8.235 31.746-.057 51.805-29.819 51.805-60.33 0-28.585-17.611-54.617-46.403-59.473C303.462 143.307 281.727 141 256 141c-25.727 0-47.462 2.307-64.597 5.197C162.611 151.053 145 177.085 145 205.67c0 30.511 20.058 60.273 51.805 60.33 12.478.022 25.403-1.918 35.154-8.235Z"/><path fill="#121212" fill-rule="evenodd" d="M191.902 149.155C164.845 153.718 148 178.232 148 205.67c0 29.508 19.302 57.277 48.81 57.33 12.266.022 24.491-1.906 33.518-7.753 5.062-3.279 7.786-7.221 10.226-10.753 3.587-5.191 6.56-9.494 15.446-9.494s11.859 4.303 15.446 9.494c2.44 3.532 5.164 7.474 10.226 10.753 9.027 5.847 21.252 7.775 33.518 7.753 29.508-.053 48.81-27.822 48.81-57.33 0-27.438-16.845-51.952-43.902-56.515C303.115 146.291 281.547 144 256 144c-25.547 0-47.115 2.291-64.098 5.155Zm6.817 22.955C184.104 174.524 174 187.405 174 202.218c0 14.725 9.992 27.807 24.65 29.207 12.127 1.159 25.796.934 33.661-4.181 2.642-1.718 5.197-4.21 7.788-6.736 4.903-4.781 9.931-9.684 15.901-9.684 5.97 0 10.998 4.903 15.901 9.684 2.591 2.526 5.146 5.018 7.788 6.736 7.865 5.115 21.534 5.34 33.661 4.181 14.658-1.4 24.65-14.482 24.65-29.207 0-14.813-10.104-27.694-24.719-30.108-15.36-2.536-36.152-5.11-57.281-5.11-21.129 0-41.921 2.574-57.281 5.11Z" clip-rule="evenodd"/><path fill="#0047FF" fill-opacity=".6" d="M174 202.218c0-14.813 10.104-27.694 24.719-30.108 15.36-2.536 36.152-5.11 57.281-5.11 21.129 0 41.921 2.574 57.281 5.11C327.896 174.524 338 187.405 338 202.218c0 14.725-9.992 27.807-24.65 29.207-12.127 1.159-25.796.934-33.661-4.181-7.642-4.969-14.565-16.42-23.689-16.42s-16.047 11.451-23.689 16.42c-7.865 5.115-21.534 5.34-33.661 4.181-14.658-1.4-24.65-14.482-24.65-29.207Z"/></g></svg>