<svg xmlns="http://www.w3.org/2000/svg" width="512" height="512" fill="none"><rect width="512" height="512" fill="#00FF94 "/><g skin='2'><path fill="#C19344" d="M134 178h32v64h-20l-12-64ZM378 178h-32v64h20l12-64ZM207 346h98v54h-98z"/><path fill="#D7A859" d="M64 400h384l32 112H32l32-112Z"/><path fill="#F5C676" d="M136 456h240v56H136z"/><path fill="#D7A859" d="M166 106h180v240H166z"/><path fill="#1D1D1D" d="M66.5 495.5c0 4.418-4.582 8.5-9 8.5s-8.5-5.082-8.5-9.5 1.582-7.5 6-7.5 11.5 4.082 11.5 8.5ZM444 495.5c0 4.418 4.582 8.5 9 8.5s8.5-5.082 8.5-9.5-1.582-7.5-6-7.5-11.5 4.082-11.5 8.5ZM140.5 431.5c0 4.418-4.582 8.5-9 8.5s-8.5-5.082-8.5-9.5 1.582-7.5 6-7.5 11.5 4.082 11.5 8.5ZM262.5 418.5c0 4.418-4.582 8.5-9 8.5s-8.5-5.082-8.5-9.5 1.582-7.5 6-7.5 11.5 4.082 11.5 8.5ZM230.5 384.5c0 4.418-4.582 8.5-9 8.5s-8.5-5.082-8.5-9.5 1.582-7.5 6-7.5 11.5 4.082 11.5 8.5ZM370 431.5c0 4.418 4.582 8.5 9 8.5s8.5-5.082 8.5-9.5-1.582-7.5-6-7.5-11.5 4.082-11.5 8.5ZM119.5 495c0 4.418-2.582 6.5-7 6.5s-6.5-2.082-6.5-6.5 1.082-8 5.5-8a8 8 0 0 1 8 8ZM221.5 441c0 4.418-2.582 6.5-7 6.5s-6.5-2.082-6.5-6.5 1.082-8 5.5-8a8 8 0 0 1 8 8ZM298.5 361c0 4.418-2.582 6.5-7 6.5s-6.5-2.082-6.5-6.5 1.082-8 5.5-8a8 8 0 0 1 8 8ZM391 495c0 4.418 2.582 6.5 7 6.5s6.5-2.082 6.5-6.5-1.082-8-5.5-8a8 8 0 0 0-8 8ZM195.5 416c0 4.418-2.582 6.5-7 6.5s-6.5-2.082-6.5-6.5 1.082-8 5.5-8a8 8 0 0 1 8 8ZM253.5 372c0 4.418-2.582 6.5-7 6.5s-6.5-2.082-6.5-6.5 1.082-8 5.5-8a8 8 0 0 1 8 8ZM195.5 124c0 4.418-2.582 6.5-7 6.5s-6.5-2.082-6.5-6.5 1.082-8 5.5-8a8 8 0 0 1 8 8ZM187.5 288c0 4.418-2.582 6.5-7 6.5s-6.5-2.082-6.5-6.5 1.082-8 5.5-8a8 8 0 0 1 8 8ZM325.5 310.5c0 4.418-4.582 8.5-9 8.5s-8.5-5.082-8.5-9.5 1.582-7.5 6-7.5 11.5 4.082 11.5 8.5ZM265.5 125c0 4.418-2.582 6.5-7 6.5s-6.5-2.082-6.5-6.5 1.082-8 5.5-8a8 8 0 0 1 8 8ZM156.5 188c0 4.418-2.582 6.5-7 6.5s-6.5-2.082-6.5-6.5 1.082-8 5.5-8a8 8 0 0 1 8 8ZM342.5 146c0 4.418-2.582 6.5-7 6.5s-6.5-2.082-6.5-6.5 1.082-8 5.5-8a8 8 0 0 1 8 8ZM338.5 276c0 4.418-2.582 6.5-7 6.5s-6.5-2.082-6.5-6.5 1.082-8 5.5-8a8 8 0 0 1 8 8ZM330.5 125c0 4.418-2.582 6.5-7 6.5s-6.5-2.082-6.5-6.5 1.082-8 5.5-8a8 8 0 0 1 8 8ZM331 415c0 4.418 2.582 6.5 7 6.5s6.5-2.082 6.5-6.5-1.082-8-5.5-8a8 8 0 0 0-8 8ZM79.5 439c0 4.418-2.582 6.5-7 6.5S66 443.418 66 439s1.082-8 5.5-8a8 8 0 0 1 8 8ZM431 439c0 4.418 2.582 6.5 7 6.5s6.5-2.082 6.5-6.5-1.082-8-5.5-8a8 8 0 0 0-8 8ZM89 480c0 4.418-2.082 6-6.5 6s-9.5-1.582-9.5-6 3.582-5 8-5 8 .582 8 5ZM421.5 480c0 4.418 2.082 6 6.5 6s9.5-1.582 9.5-6-3.582-5-8-5-8 .582-8 5ZM174 443c0 4.418-2.082 6-6.5 6s-9.5-1.582-9.5-6 3.582-5 8-5 8 .582 8 5ZM315 429c0 4.418-2.082 6-6.5 6s-9.5-1.582-9.5-6 3.582-5 8-5 8 .582 8 5ZM230 358c0 4.418-2.082 6-6.5 6s-9.5-1.582-9.5-6 3.582-5 8-5 8 .582 8 5ZM230 118c0 4.418-2.082 6-6.5 6s-9.5-1.582-9.5-6 3.582-5 8-5 8 .582 8 5ZM188 146c0 4.418-2.082 6-6.5 6s-9.5-1.582-9.5-6 3.582-5 8-5 8 .582 8 5ZM372 185c0 4.418-2.082 6-6.5 6s-9.5-1.582-9.5-6 3.582-5 8-5 8 .582 8 5ZM340 332c0 4.418-2.082 6-6.5 6s-9.5-1.582-9.5-6 3.582-5 8-5 8 .582 8 5ZM304 121c0 4.418-2.082 6-6.5 6s-9.5-1.582-9.5-6 3.582-5 8-5 8 .582 8 5ZM336.5 443c0 4.418 2.082 6 6.5 6s9.5-1.582 9.5-6-3.582-5-8-5-8 .582-8 5ZM105 415c0 4.418-2.082 6-6.5 6s-9.5-1.582-9.5-6 3.582-5 8-5 8 .582 8 5ZM405.5 415c0 4.418 2.082 6 6.5 6s9.5-1.582 9.5-6-3.582-5-8-5-8 .582-8 5ZM115.5 456.5c0 4.418-2.582 9-7 9s-11.5-4.582-11.5-9 4.082-10.5 8.5-10.5 10 6.082 10 10.5ZM200.5 327.5c0 4.418-2.582 9-7 9s-11.5-4.582-11.5-9 4.082-10.5 8.5-10.5 10 6.082 10 10.5ZM298.5 386.5c0 4.418-2.582 9-7 9s-11.5-4.582-11.5-9 4.082-10.5 8.5-10.5 10 6.082 10 10.5ZM395 456.5c0 4.418 2.582 9 7 9s11.5-4.582 11.5-9-4.082-10.5-8.5-10.5-10 6.082-10 10.5Z"/></g><g hair='8'><path fill="#121212" d="m194 238-16-104V62h-12v176h28ZM318 238l16-104V62h12v176h-28ZM236 62h40v12h-40z"/><path fill="#121212" d="M106 135h300v16H106z"/><path fill="#2D2D2D" d="M166 95h180v40H166z"/><path fill="#121212" d="m236 103 7.629 24h4.228l-7.565-24H236Zm36.078 0-8.01 24h4.292l7.947-24h-4.229Zm-22.425 12.652h6.2l-6.74 8.487V127h13.478v-4.101h-6.573l6.796-8.487v-2.861h-13.161v4.101ZM166 15h180v80H166z"/></g><g dress='69'><path fill="#F15824" d="M64 400h384l32 112H32l32-112Z"/><path fill="#121212" d="m256 422-41-22v44l41-22ZM256 422l41-22v44l-41-22Z"/></g><g beard='4'><rect x="201" y="286" width="12" height="40" fill="#121212"/><rect x="299" y="286" width="12" height="40" fill="#121212"/><rect x="201" y="274" width="110" height="12" fill="#121212"/></g><g face='6'><path d="M206 162H238" stroke="#121212" stroke-width="6"/><path d="M274 162H306" stroke="#121212" stroke-width="6"/><path d="M219.5 193C225 186 232.5 190.5 232.5 196.5C232.5 200.918 229.349 205.219 225 206C219.615 206.966 212.5 203 211 196.5C209.154 188.5 213 179 225 179C237 179 242.5 186.987 242.5 196.5C242.5 203.5 238.5 215.375 223.5 216C217.481 216.251 203 212.5 201 197" stroke="#121212" stroke-width="6"/><path d="M292 193C286.5 186 279 190.5 279 196.5C279 200.918 282.151 205.219 286.5 206C291.885 206.966 299 203 300.5 196.5C302.346 188.5 298.5 179 286.5 179C274.5 179 269 186.987 269 196.5C269 203.5 273 215.375 288 216C294.019 216.251 308.5 212.5 310.5 197" stroke="#121212" stroke-width="6"/><path d="M284 309.25V290H261.5V309.25C261.5 315.463 266.537 320.5 272.75 320.5C278.963 320.5 284 315.463 284 309.25Z" fill="white"/><path d="M228 290H261.5M261.5 290H284V309.25C284 315.463 278.963 320.5 272.75 320.5V320.5C266.537 320.5 261.5 315.463 261.5 309.25V290Z" stroke="#121212" stroke-width="6"/><path d="M256 218L266 258H246" stroke="#121212" stroke-width="6"/></g><g glass='2'><path fill="#121212" d="M190 175h56v56h-56v-56Z"/><path stroke="#121212" stroke-width="6" d="M190 175h56v56h-56v-56Zm0 0h-24M247 184h19"/><path fill="#121212" d="M266 175h56v56h-56v-56Z"/><path stroke="#121212" stroke-width="6" d="M322 175h-56v56h56v-56Zm0 0h24"/></g></svg>