<svg xmlns="http://www.w3.org/2000/svg" width="512" height="512" fill="none"><rect width="512" height="512" fill="#007089 "/><g skin='6'><path fill="#36CF00" d="M134 178h32v64h-20l-12-64ZM378 178h-32v64h20l12-64Z"/><path fill="#3BE200" d="M64 400h384l32 112H32l32-112Z"/><path fill="#36CF00" d="M207 346h98v54h-98z"/><path fill="#3BE200" d="M166 106h180v240H166z"/></g><g hair='38'><path fill="#0094FF" d="M346 146H166v-40l103-90.5h77l-45 22v42l45 26.5v40ZM106 146h300v16H106z"/><path fill="#A7DAFF" d="M166 130h180v16H166zM279 28l2.694 8.292h8.719l-7.054 5.124 2.694 8.292L279 44.584l-7.053 5.124 2.694-8.292-7.054-5.124h8.719L279 28ZM236 57l2.694 8.292h8.719l-7.054 5.124 2.694 8.292L236 73.584l-7.053 5.124 2.694-8.292-7.054-5.124h8.719L236 57ZM268 82l2.694 8.292h8.719l-7.054 5.124 2.694 8.292L268 98.584l-7.053 5.124 2.694-8.292-7.054-5.124h8.719L268 82ZM207 99l2.694 8.292h8.719l-7.054 5.124 2.694 8.292-7.053-5.124-7.053 5.124 2.694-8.292-7.054-5.124h8.719L207 99ZM317 99l2.694 8.292h8.719l-7.054 5.124 2.694 8.292-7.053-5.124-7.053 5.124 2.694-8.292-7.054-5.124h8.719L317 99Z"/></g><g dress='82'><g clip-path="url(#a)"><path fill="#001D55" d="M207 346h98v54h-98zM64 400h384l32 112H32l32-112Z"/><path fill="#1B9B4B" d="M88 432h336v80H88v-80Z"/><path fill="#42B16C" d="M88 400h119v67H88v-67ZM127 491h80v67h-80v-67ZM305 491h80v67h-80v-67ZM424 400H305v67h119v-67Z"/><circle cx="148" cy="449" r="6" fill="#fff"/><circle cx="6" cy="6" r="6" fill="#fff" transform="matrix(-1 0 0 1 370 443)"/><path fill="#D22D27" d="m470.001 477-9-31.5s-15.928 6-11.001 22c4.003 13 20.001 9.5 20.001 9.5Z"/><path fill="#42B16C" d="M166 370h41v30h-41zM346 370h-41v30h41z"/><path stroke="#fff" stroke-width="6" d="M256 432v80"/></g><defs><clipPath id="a"><path fill="#fff" d="M0 0h512v512H0z"/></clipPath></defs></g><g beard='2'><path d="M204 270H308L324 290H188L204 270Z" fill="#121212"/></g><g face='13'><path d="M355 349.5L369.5 321L349.5 316.847L278 302L338.5 339.321L355 349.5Z" fill="white"/><path d="M349.5 316.847L369.5 321L355 349.5L338.5 339.321M349.5 316.847L278 302L338.5 339.321M349.5 316.847L338.5 339.321" stroke="#121212" stroke-width="6"/><path d="M230.711 302H280" stroke="#121212" stroke-width="6"/><path d="M206 162H238" stroke="#121212" stroke-width="6"/><path d="M210.687 217.313L233.314 194.686" stroke="#121212" stroke-width="6"/><path d="M279 217.313L301.627 194.686" stroke="#121212" stroke-width="6"/><path d="M210.687 194.687L233.314 217.314" stroke="#121212" stroke-width="6"/><path d="M279 194.687L301.627 217.314" stroke="#121212" stroke-width="6"/><path d="M274 162H306" stroke="#121212" stroke-width="6"/><path d="M256 218L266 258H246" stroke="#121212" stroke-width="6"/></g><g glass='11'><path fill="#121212" d="M182 175h64v20l-12 36h-52v-56Z"/><path stroke="#FFB74A" stroke-width="6" d="M182 175h64v20l-12 36h-52v-56Zm0 0h-16M247 175h19M247 193h19"/><path fill="#121212" d="M266 175h64v56h-52l-12-35.5V175Z"/><path stroke="#FFB74A" stroke-width="6" d="M330 175h-64v20.5l12 35.5h52v-56Zm0 0h16"/></g></svg>