<svg xmlns="http://www.w3.org/2000/svg" width="512" height="512" fill="none"><rect width="512" height="512" fill="#186450 "/><g skin='0'><path fill="#E24713" d="M134 178h32v64h-20l-12-64ZM378 178h-32v64h20l12-64ZM207 346h98v54h-98z"/><path fill="#F15824" d="M64 400h384l32 112H32l32-112ZM166 106h180v240H166z"/></g><g hair='32'><path fill="#121212" d="M166 122h180V46H166v76Z"/><path fill="#2D2D2D" d="m236 72 7.629 24h4.228l-7.565-24H236Zm36.078 0-8.01 24h4.292l7.947-24h-4.229Zm-22.425 12.652h6.2l-6.74 8.487V96h13.478v-4.1h-6.573l6.796-8.489v-2.86h-13.161v4.1ZM134 162h244l-32-40H166l-32 40Z"/></g><g dress='47'><path fill="#fff" d="M207 372h98v28h-98zM64 400h384l32 112H32l32-112Z"/><path fill="#121212" d="M96 463h80v16H96z"/><path fill="#FFD600" d="m336 448 7.629 24h4.228l-7.565-24H336Zm36.078 0-8.01 24h4.292l7.947-24h-4.229Zm-22.425 12.652h6.2l-6.74 8.487V472h13.478v-4.101h-6.573l6.796-8.487v-2.861h-13.161v4.101Z"/><path fill="#E5C100" d="M316 484h40v16h-24c-8.837 0-16-7.163-16-16ZM396 484h-40v16h24c8.837 0 16-7.163 16-16Z"/><circle cx="356" cy="492" r="12" fill="#FFD600"/><path stroke="#C9C9C9" stroke-width="6" d="M256 372v140"/><circle cx="274" cy="427" r="6" fill="#FFD600"/><circle cx="274" cy="459" r="6" fill="#FFD600"/><circle cx="274" cy="491" r="6" fill="#FFD600"/><path fill="#121212" d="M96 400h80v32H96z"/><path fill="#FFEE59" d="M104 400h16v32h-16zM128 400h16v32h-16z"/><path fill="#121212" d="M336 400h80v32h-80z"/><path fill="#FFEE59" d="m352 408 2.351 4.764 5.257.764-3.804 3.708.898 5.236L352 420l-4.702 2.472.898-5.236-3.804-3.708 5.257-.764L352 408ZM160 408l2.351 4.764 5.257.764-3.804 3.708.898 5.236L160 420l-4.702 2.472.898-5.236-3.804-3.708 5.257-.764L160 408ZM368 400h16v32h-16zM392 400h16v32h-16z"/></g><g beard='6'><rect x="207" y="346" width="98" height="54" fill="#E24713"/><path fill-rule="evenodd" clip-rule="evenodd" d="M346 266H166V400H256.5H346V266ZM297 281H215V323H297V281Z" fill="#121212"/></g><g face='13'><path d="M355 349.5L369.5 321L349.5 316.847L278 302L338.5 339.321L355 349.5Z" fill="white"/><path d="M349.5 316.847L369.5 321L355 349.5L338.5 339.321M349.5 316.847L278 302L338.5 339.321M349.5 316.847L338.5 339.321" stroke="#121212" stroke-width="6"/><path d="M230.711 302H280" stroke="#121212" stroke-width="6"/><path d="M206 162H238" stroke="#121212" stroke-width="6"/><path d="M210.687 217.313L233.314 194.686" stroke="#121212" stroke-width="6"/><path d="M279 217.313L301.627 194.686" stroke="#121212" stroke-width="6"/><path d="M210.687 194.687L233.314 217.314" stroke="#121212" stroke-width="6"/><path d="M279 194.687L301.627 217.314" stroke="#121212" stroke-width="6"/><path d="M274 162H306" stroke="#121212" stroke-width="6"/><path d="M256 218L266 258H246" stroke="#121212" stroke-width="6"/></g><g glass='0'><path fill="#FF00B1" fill-opacity=".6" d="M190 175h56v56h-56v-56Z"/><path stroke="#121212" stroke-width="6" d="M190 175h56v56h-56v-56Zm0 0h-24M247 184h19"/><path fill="#FF00B1" fill-opacity=".6" d="M266 175h56v56h-56v-56Z"/><path stroke="#121212" stroke-width="6" d="M322 175h-56v56h56v-56Zm0 0h24"/></g></svg>