<svg xmlns="http://www.w3.org/2000/svg" width="512" height="512" fill="none"><rect width="512" height="512" fill="#0047FF "/><g skin='6'><path fill="#36CF00" d="M134 178h32v64h-20l-12-64ZM378 178h-32v64h20l12-64Z"/><path fill="#3BE200" d="M64 400h384l32 112H32l32-112Z"/><path fill="#36CF00" d="M207 346h98v54h-98z"/><path fill="#3BE200" d="M166 106h180v240H166z"/></g><g hair='40'><path fill="#FFB74A" d="M134 166h244v-24H134z"/><path fill="#42B16C" d="M134 192h32v-26h-32zM134 142h37V78h-37z"/><path fill="#FFB74A" d="M171 142h34V78h-34z"/><path fill="#42B16C" d="M205 142h34V78h-34z"/><path fill="#FFB74A" d="M239 142h34V78h-34z"/><path fill="#42B16C" d="M273 142h34V78h-34z"/><path fill="#FFB74A" d="M307 142h34V78h-34z"/><path fill="#42B16C" d="M341 142h37V78h-37z"/><path fill="#FFB74A" d="M134 217h32v-25h-32z"/><path fill="#42B16C" d="M134 243h32v-26h-32z"/><path fill="#FFB74A" d="M134 269h32v-26h-32z"/><path fill="#42B16C" d="M134 295h32v-26h-32z"/><path fill="#FFB74A" d="M134 320h32v-25h-32z"/><path fill="#42B16C" d="M134 346h32v-26h-32zM346 192h32v-26h-32z"/><path fill="#FFB74A" d="M346 217h32v-25h-32z"/><path fill="#42B16C" d="M346 243h32v-26h-32z"/><path fill="#FFB74A" d="M346 269h32v-26h-32z"/><path fill="#42B16C" d="M346 295h32v-26h-32z"/><path fill="#FFB74A" d="M346 320h32v-25h-32z"/><path fill="#42B16C" d="M346 346h32v-26h-32z"/></g><g dress='87'><path fill="#FFB74A" d="M207 372h98v28h-98z"/><path fill="#FFA31A" d="M207 372h73v28h-73z"/><circle cx="266" cy="386" r="6" fill="#fff"/><path fill="#FFB74A" d="M64 400h384l32 112H32l32-112Z"/><path fill="#121212" d="m338 456 7.629 24h4.228l-7.565-24H338Zm36.078 0-8.01 24h4.292l7.947-24h-4.229Zm-22.425 12.652h6.2l-6.74 8.487V480h13.478v-4.101h-6.573l6.796-8.487v-2.861h-13.161v4.101ZM64 400h16.5l-32 112H32l32-112ZM464 512h16.5l-32-112H432l32 112Z"/><path stroke="#121212" stroke-width="6" d="M256 400v112"/></g><g beard='4'><rect x="201" y="286" width="12" height="40" fill="#121212"/><rect x="299" y="286" width="12" height="40" fill="#121212"/><rect x="201" y="274" width="110" height="12" fill="#121212"/></g><g face='20'><path d="M296 307.5H216L296 282V307.5Z" fill="white"/><path d="M208.144 160L235.856 176" stroke="#121212" stroke-width="6"/><path d="M276.144 176L303.856 160" stroke="#121212" stroke-width="6"/><rect width="20" height="20" x="212" y="194" fill="#121212" rx="10"><animate attributeName="rx" begin="1s" dur="2s" keyTimes="0;0.25;0.3;0.35;1" repeatCount="indefinite" values="10;10;1;10;10"/><animate attributeName="height" begin="1s" dur="2s" keyTimes="0;0.25;0.3;0.35;1" repeatCount="indefinite" values="20;20;2;20;20"/><animate attributeName="y" begin="1s" dur="2s" keyTimes="0;0.25;0.3;0.35;1" repeatCount="indefinite" values="194;194;203;194;194"/></rect><rect width="20" height="20" x="280" y="194" fill="#121212" rx="10"><animate attributeName="rx" begin="1s" dur="2s" keyTimes="0;0.25;0.3;0.35;1" repeatCount="indefinite" values="10;10;1;10;10"/><animate attributeName="height" begin="1s" dur="2s" keyTimes="0;0.25;0.3;0.35;1" repeatCount="indefinite" values="20;20;2;20;20"/><animate attributeName="y" begin="1s" dur="2s" keyTimes="0;0.25;0.3;0.35;1" repeatCount="indefinite" values="194;194;203;194;194"/></rect><path d="M256 218L266 258H246" stroke="#121212" stroke-width="6"/></g><g glass='17'><rect width="74" height="74" x="176" y="162" fill="#fff" rx="37"/><path fill="#fff" d="M166 162h49v16h-49zM242 178h28v20h-28zM346 162h-49v16h49z"/><rect width="56" height="56" x="190" y="171" fill="#D22D27" rx="28"/><rect width="74" height="74" x="262" y="162" fill="#fff" rx="37"/><rect width="56" height="56" x="266" y="171" fill="#D22D27" rx="28"/></g></svg>