<svg xmlns="http://www.w3.org/2000/svg" width="512" height="512" fill="none"><rect width="512" height="512" fill="#FFD600 "/><g skin='2'><path fill="#C19344" d="M134 178h32v64h-20l-12-64ZM378 178h-32v64h20l12-64ZM207 346h98v54h-98z"/><path fill="#D7A859" d="M64 400h384l32 112H32l32-112Z"/><path fill="#F5C676" d="M136 456h240v56H136z"/><path fill="#D7A859" d="M166 106h180v240H166z"/><path fill="#1D1D1D" d="M66.5 495.5c0 4.418-4.582 8.5-9 8.5s-8.5-5.082-8.5-9.5 1.582-7.5 6-7.5 11.5 4.082 11.5 8.5ZM444 495.5c0 4.418 4.582 8.5 9 8.5s8.5-5.082 8.5-9.5-1.582-7.5-6-7.5-11.5 4.082-11.5 8.5ZM140.5 431.5c0 4.418-4.582 8.5-9 8.5s-8.5-5.082-8.5-9.5 1.582-7.5 6-7.5 11.5 4.082 11.5 8.5ZM262.5 418.5c0 4.418-4.582 8.5-9 8.5s-8.5-5.082-8.5-9.5 1.582-7.5 6-7.5 11.5 4.082 11.5 8.5ZM230.5 384.5c0 4.418-4.582 8.5-9 8.5s-8.5-5.082-8.5-9.5 1.582-7.5 6-7.5 11.5 4.082 11.5 8.5ZM370 431.5c0 4.418 4.582 8.5 9 8.5s8.5-5.082 8.5-9.5-1.582-7.5-6-7.5-11.5 4.082-11.5 8.5ZM119.5 495c0 4.418-2.582 6.5-7 6.5s-6.5-2.082-6.5-6.5 1.082-8 5.5-8a8 8 0 0 1 8 8ZM221.5 441c0 4.418-2.582 6.5-7 6.5s-6.5-2.082-6.5-6.5 1.082-8 5.5-8a8 8 0 0 1 8 8ZM298.5 361c0 4.418-2.582 6.5-7 6.5s-6.5-2.082-6.5-6.5 1.082-8 5.5-8a8 8 0 0 1 8 8ZM391 495c0 4.418 2.582 6.5 7 6.5s6.5-2.082 6.5-6.5-1.082-8-5.5-8a8 8 0 0 0-8 8ZM195.5 416c0 4.418-2.582 6.5-7 6.5s-6.5-2.082-6.5-6.5 1.082-8 5.5-8a8 8 0 0 1 8 8ZM253.5 372c0 4.418-2.582 6.5-7 6.5s-6.5-2.082-6.5-6.5 1.082-8 5.5-8a8 8 0 0 1 8 8ZM195.5 124c0 4.418-2.582 6.5-7 6.5s-6.5-2.082-6.5-6.5 1.082-8 5.5-8a8 8 0 0 1 8 8ZM187.5 288c0 4.418-2.582 6.5-7 6.5s-6.5-2.082-6.5-6.5 1.082-8 5.5-8a8 8 0 0 1 8 8ZM325.5 310.5c0 4.418-4.582 8.5-9 8.5s-8.5-5.082-8.5-9.5 1.582-7.5 6-7.5 11.5 4.082 11.5 8.5ZM265.5 125c0 4.418-2.582 6.5-7 6.5s-6.5-2.082-6.5-6.5 1.082-8 5.5-8a8 8 0 0 1 8 8ZM156.5 188c0 4.418-2.582 6.5-7 6.5s-6.5-2.082-6.5-6.5 1.082-8 5.5-8a8 8 0 0 1 8 8ZM342.5 146c0 4.418-2.582 6.5-7 6.5s-6.5-2.082-6.5-6.5 1.082-8 5.5-8a8 8 0 0 1 8 8ZM338.5 276c0 4.418-2.582 6.5-7 6.5s-6.5-2.082-6.5-6.5 1.082-8 5.5-8a8 8 0 0 1 8 8ZM330.5 125c0 4.418-2.582 6.5-7 6.5s-6.5-2.082-6.5-6.5 1.082-8 5.5-8a8 8 0 0 1 8 8ZM331 415c0 4.418 2.582 6.5 7 6.5s6.5-2.082 6.5-6.5-1.082-8-5.5-8a8 8 0 0 0-8 8ZM79.5 439c0 4.418-2.582 6.5-7 6.5S66 443.418 66 439s1.082-8 5.5-8a8 8 0 0 1 8 8ZM431 439c0 4.418 2.582 6.5 7 6.5s6.5-2.082 6.5-6.5-1.082-8-5.5-8a8 8 0 0 0-8 8ZM89 480c0 4.418-2.082 6-6.5 6s-9.5-1.582-9.5-6 3.582-5 8-5 8 .582 8 5ZM421.5 480c0 4.418 2.082 6 6.5 6s9.5-1.582 9.5-6-3.582-5-8-5-8 .582-8 5ZM174 443c0 4.418-2.082 6-6.5 6s-9.5-1.582-9.5-6 3.582-5 8-5 8 .582 8 5ZM315 429c0 4.418-2.082 6-6.5 6s-9.5-1.582-9.5-6 3.582-5 8-5 8 .582 8 5ZM230 358c0 4.418-2.082 6-6.5 6s-9.5-1.582-9.5-6 3.582-5 8-5 8 .582 8 5ZM230 118c0 4.418-2.082 6-6.5 6s-9.5-1.582-9.5-6 3.582-5 8-5 8 .582 8 5ZM188 146c0 4.418-2.082 6-6.5 6s-9.5-1.582-9.5-6 3.582-5 8-5 8 .582 8 5ZM372 185c0 4.418-2.082 6-6.5 6s-9.5-1.582-9.5-6 3.582-5 8-5 8 .582 8 5ZM340 332c0 4.418-2.082 6-6.5 6s-9.5-1.582-9.5-6 3.582-5 8-5 8 .582 8 5ZM304 121c0 4.418-2.082 6-6.5 6s-9.5-1.582-9.5-6 3.582-5 8-5 8 .582 8 5ZM336.5 443c0 4.418 2.082 6 6.5 6s9.5-1.582 9.5-6-3.582-5-8-5-8 .582-8 5ZM105 415c0 4.418-2.082 6-6.5 6s-9.5-1.582-9.5-6 3.582-5 8-5 8 .582 8 5ZM405.5 415c0 4.418 2.082 6 6.5 6s9.5-1.582 9.5-6-3.582-5-8-5-8 .582-8 5ZM115.5 456.5c0 4.418-2.582 9-7 9s-11.5-4.582-11.5-9 4.082-10.5 8.5-10.5 10 6.082 10 10.5ZM200.5 327.5c0 4.418-2.582 9-7 9s-11.5-4.582-11.5-9 4.082-10.5 8.5-10.5 10 6.082 10 10.5ZM298.5 386.5c0 4.418-2.582 9-7 9s-11.5-4.582-11.5-9 4.082-10.5 8.5-10.5 10 6.082 10 10.5ZM395 456.5c0 4.418 2.582 9 7 9s11.5-4.582 11.5-9-4.082-10.5-8.5-10.5-10 6.082-10 10.5Z"/></g><g hair='1'><path fill="#121212" d="M212 148.25 166 129v-23h180v44l-59-29.5v27.75l-75-27.75v27.75Z"/><path fill="#fff" d="M115 155h51v95h-51zM346 155h51v95h-51zM166 106v49h-28V77h236v78h-28v-49H166Z"/></g><g dress='71'><path fill="#F15824" d="M64 400h384l32 112H32l32-112Z"/><path stroke="#FFB74A" stroke-width="6" d="m160 404.58 15.035-5.472 9.577 26.311-15.035 5.472zM352.859 404.473l-15.035-5.472-9.577 26.311 15.035 5.472zM164.305 439l13.856-8 14 24.249-13.856 8zM348.555 438.893l-13.856-8-14 24.249 13.856 8zM184.305 464.285 196.562 454l17.998 21.45-12.257 10.284zM328.555 464.178l-12.257-10.285-17.998 21.45 12.257 10.284zM210.307 485.795l8-13.856 24.249 14-8 13.856zM302.553 485.688l-8-13.856-24.249 14 8 13.856z"/><path stroke="#FFB74A" stroke-width="6" d="M242.305 502v-16h28v16z"/></g><g beard='2'><path d="M204 270H308L324 290H188L204 270Z" fill="#121212"/></g><g face='9'><path d="M246 289.391C246 289.391 258.823 284.011 262 289.391C265.153 294.732 254.5 303.391 254.5 303.391C254.5 303.391 267.632 299.309 270.5 304.891C273.719 311.156 258 317.891 258 317.891" stroke="#121212" stroke-width="6"/><rect width="20" height="20" x="212" y="194" fill="#121212" rx="10"><animate attributeName="rx" begin="1s" dur="2s" keyTimes="0;0.25;0.3;0.35;1" repeatCount="indefinite" values="10;10;1;10;10"/><animate attributeName="height" begin="1s" dur="2s" keyTimes="0;0.25;0.3;0.35;1" repeatCount="indefinite" values="20;20;2;20;20"/><animate attributeName="y" begin="1s" dur="2s" keyTimes="0;0.25;0.3;0.35;1" repeatCount="indefinite" values="194;194;203;194;194"/></rect><rect width="20" height="20" x="280" y="194" fill="#121212" rx="10"><animate attributeName="rx" begin="1s" dur="2s" keyTimes="0;0.25;0.3;0.35;1" repeatCount="indefinite" values="10;10;1;10;10"/><animate attributeName="height" begin="1s" dur="2s" keyTimes="0;0.25;0.3;0.35;1" repeatCount="indefinite" values="20;20;2;20;20"/><animate attributeName="y" begin="1s" dur="2s" keyTimes="0;0.25;0.3;0.35;1" repeatCount="indefinite" values="194;194;203;194;194"/></rect><path d="M206 162H238" stroke="#121212" stroke-width="6"/><path d="M274 162H306" stroke="#121212" stroke-width="6"/><path d="M256 218L266 258H246" stroke="#121212" stroke-width="6"/></g><g glass='1'><path fill="#fff" fill-opacity=".4" d="M190 175h56v56h-56v-56Z"/><path stroke="#121212" stroke-width="6" d="M190 175h56v56h-56v-56Zm0 0h-24M247 184h19"/><path fill="#fff" fill-opacity=".4" d="M266 175h56v56h-56v-56Z"/><path stroke="#121212" stroke-width="6" d="M322 175h-56v56h56v-56Zm0 0h24"/></g></svg>