<svg xmlns="http://www.w3.org/2000/svg" width="512" height="512" fill="none"><rect width="512" height="512" fill="#FFD600 "/><g skin='5'><path fill="#0097D8" d="M134 178h32v64h-20l-12-64ZM378 178h-32v64h20l12-64ZM207 346h98v54h-98z"/><path fill="#00B2FF" d="M64 400h384l32 112H32l32-112Z"/><path fill="#2C71A3" d="m42 477-6.571 23L105 477H42ZM476.286 499l-6-21H405l71.286 21ZM466.429 464.5l-5.572-19.5H425.5l40.929 19.5ZM51.143 445l-5.572 19.5L86 445H51.143Z"/><path fill="#00B2FF" d="M166 106h180v240H166z"/><path fill="#2C71A3" d="M96 400H80l16 25v-25ZM198 106h-16l16 24v-24ZM230 106h-16l16 40v-40ZM342 400h-16v40l16-40ZM141 400h-16l16 32v-32ZM264 106h-16l8 106 8-106ZM387 400h-16v30.5l16-30.5ZM186 400h-16l16 40v-40ZM330 106h-16v24l16-24ZM298 106h-16v40l16-40ZM432 400h-16v24l16-24ZM197.5 224.5 166 194v16l31.5 14.5ZM190 176.5 166 146v16l24 14.5ZM192 289l-26-8v16l26-8ZM320 289l26-8v16l-26-8ZM295 358l-88-6v12l88-6ZM295 388l-88-6v12l88-6ZM217 373l88-6v12l-88-6ZM314 223.5l32-30.5v16l-32 14.5ZM322 176.5l24-30.5v16l-24 14.5ZM206 277.5 166 242v16l40 19.5ZM206 301l-40 32v-12.8l40-19.2ZM306 277.5l40-35.5v16l-40 19.5ZM306 301l40 32v-12.8L306 301Z"/></g><g hair='46'><path fill="#121212" d="M166 64h180v90H166V64Z"/><path fill="#121212" d="M334 135h30v43h-30v-43ZM178 135h-30v43h30v-43Z"/><path fill="#121212" d="M166 154h12v104h-12zM334 154h12v104h-12z"/></g><g dress='83'><path fill="#fff" d="M64 400h143l50 67 48-67h143l32 112H32l32-112Z"/><circle cx="6" cy="6" r="6" fill="#121212" transform="matrix(1 0 0 -1 251 486)"/><circle cx="6" cy="6" r="6" fill="#121212" transform="matrix(1 0 0 -1 251 506)"/><path fill="#121212" d="M80 400h76v112H80zM356 400h76v112h-76zM257 467l-65.5-27.5L199 429l-27.5-8 8-21H207l50 67ZM257 467l65.5-27.5L315 429l27.5-8-8-21H305l-48 67Z"/></g><g beard='2'><path d="M204 270H308L324 290H188L204 270Z" fill="#121212"/></g><g face='29'><rect width="20" height="20" x="212" y="194" fill="#121212" rx="10"><animate attributeName="rx" begin="1s" dur="2s" keyTimes="0;0.25;0.3;0.35;1" repeatCount="indefinite" values="10;10;1;10;10"/><animate attributeName="height" begin="1s" dur="2s" keyTimes="0;0.25;0.3;0.35;1" repeatCount="indefinite" values="20;20;2;20;20"/><animate attributeName="y" begin="1s" dur="2s" keyTimes="0;0.25;0.3;0.35;1" repeatCount="indefinite" values="194;194;203;194;194"/></rect><rect width="20" height="20" x="280" y="194" fill="#121212" rx="10"><animate attributeName="rx" begin="1s" dur="2s" keyTimes="0;0.25;0.3;0.35;1" repeatCount="indefinite" values="10;10;1;10;10"/><animate attributeName="height" begin="1s" dur="2s" keyTimes="0;0.25;0.3;0.35;1" repeatCount="indefinite" values="20;20;2;20;20"/><animate attributeName="y" begin="1s" dur="2s" keyTimes="0;0.25;0.3;0.35;1" repeatCount="indefinite" values="194;194;203;194;194"/></rect><path d="M208.144 160L235.856 176" stroke="#121212" stroke-width="6"/><path d="M276.144 176L303.856 160" stroke="#121212" stroke-width="6"/><path d="M256 218L266 258H246" stroke="#121212" stroke-width="6"/><path d="M216 284H296L292 301L288 317H224L220 301L216 284Z" fill="white"/><path d="M220 301L224 317H288L292 301M220 301L216 284H296L292 301M220 301H292" stroke="#121212" stroke-width="6"/><rect width="24" height="48" transform="matrix(0 -1 -1 0 185 313)" fill="#2D2D2D"/><path d="M199.785 325H187.83V301M199.785 277H187.83V301M187.83 301H275" stroke="#2D2D2D" stroke-width="6"/><path d="M134 317V301V285" stroke="#2D2D2D" stroke-width="6"/></g><g glass='7'><path fill="#0047FF" d="m222 172 8 18.144L249.713 188 238 204l11.713 16L230 217.856 222 236l-8-18.144L194.287 220 206 204l-11.713-16L214 190.144 222 172Z"/><circle cx="10" cy="10" r="10" fill="#79CBDC" transform="matrix(1 0 0 -1 212 214)"/><path fill="#0047FF" d="m290 172 8 18.144L317.713 188 306 204l11.713 16L298 217.856 290 236l-8-18.144L262.287 220 274 204l-11.713-16L282 190.144 290 172Z"/><circle cx="10" cy="10" r="10" fill="#79CBDC" transform="matrix(1 0 0 -1 280 214)"/></g></svg>