<svg xmlns="http://www.w3.org/2000/svg" width="512" height="512" fill="none"><rect width="512" height="512" fill="#FF9900 "/><g skin='1'><path fill="#E24713" d="M134 178h32v64h-20l-12-64ZM378 178h-32v64h20l12-64ZM207 346h98v54h-98z"/><path fill="#F15824" d="M64 400h384l32 112H32l32-112Z"/><path fill="#1D1D1D" d="m42 477-6.571 23L106 489l-64-12ZM476.286 499l-6-21L405 488.5l71.286 10.5ZM466.429 464.5l-5.572-19.5-35.357 11.5 40.929 8ZM51.143 445l-5.572 19.5 41.429-8L51.143 445Z"/><path fill="#FF6F3F" d="M136 456h240v56H136z"/><path fill="#F15824" d="M166 106h180v240H166z"/><path fill="#1D1D1D" d="M96 400H80l8 24 8-24ZM158 178h-16l8 16 8-16ZM370 178h-16l8 16 8-16ZM210 106h-16l8 24 8-24ZM342 400h-16l8 40 8-40ZM141 400h-16l8 32 8-32ZM264 106h-16l8 40 8-40ZM387 400h-16l8 32 8-32ZM186 400h-16l8 40 8-40ZM318 106h-16l8 24 8-24ZM432 400h-16l8 24 8-24ZM190 262l-24-8v16l24-8ZM190 154l-24-8v16l24-8ZM231 362l-24-8v16l24-8ZM281 362l24-8v16l-24-8ZM231 385l-24-8v16l24-8ZM281 385l24-8v16l-24-8ZM322 262l24-8v16l-24-8ZM322 154l24-8v16l-24-8ZM198 294l-32-8v16l32-8ZM314 294l32-8v16l-32-8ZM214 326l-48-8v16l48-8ZM298 326l48-8v16l-48-8Z"/></g><g hair='73'><circle cx="256" cy="82" r="12" fill="#121212"/><path d="M166 130C194 130 298 130 346.001 130C364.746 130 364.968 93.9362 346.001 82C288 45.5 193.001 62.9998 166 82C147.5 95.0189 147.255 130 166 130Z" fill="#121212"/><rect width="180" height="12" transform="matrix(1 0 0 -1 166 142)" fill="#525252"/><path d="M182 162C199.821 169.24 355.5 178.5 362.001 162C365.667 152.694 346.001 142 346.001 142H166C166 142 166 155.5 182 162Z" fill="#121212"/><ellipse cx="256" cy="72" rx="12" ry="6" fill="#525252"/></g><g dress='46'><path fill="#165B32" d="M207 372h98v28h-98zM64 400h384l32 112H32l32-112Z"/><path fill="#FFD600" d="m335 447 7.629 24h4.228l-7.565-24H335Zm36.078 0-8.01 24h4.292l7.947-24h-4.229Zm-22.425 12.652h6.2l-6.74 8.487V471h13.478v-4.101h-6.573l6.796-8.487v-2.861h-13.161v4.101Z"/><circle cx="371.971" cy="492" r="12" fill="#D0B000"/><circle cx="355" cy="492" r="12" fill="#E6C100"/><circle cx="339" cy="492" r="12" fill="#FFD600"/><path stroke="#0C4122" stroke-width="6" d="M207 397h49m49 0h-49m0 0v115"/><circle cx="274" cy="384" r="6" fill="#FFEE59"/><circle cx="274" cy="427" r="6" fill="#FFEE59"/><circle cx="274" cy="459" r="6" fill="#FFEE59"/><circle cx="274" cy="491" r="6" fill="#FFEE59"/><circle cx="238" cy="384" r="6" fill="#FFEE59"/><path fill="#0C4122" d="M96 400h80v32H96zM96 463h80v16H96zM336 400h80v32h-80z"/><path fill="#FFEE59" d="m352 408 2.351 4.764 5.257.764-3.804 3.708.898 5.236L352 420l-4.702 2.472.898-5.236-3.804-3.708 5.257-.764L352 408ZM400 408l2.351 4.764 5.257.764-3.804 3.708.898 5.236L400 420l-4.702 2.472.898-5.236-3.804-3.708 5.257-.764L400 408ZM376 408l2.351 4.764 5.257.764-3.804 3.708.898 5.236L376 420l-4.702 2.472.898-5.236-3.804-3.708 5.257-.764L376 408ZM112 408l2.351 4.764 5.257.764-3.804 3.708.898 5.236L112 420l-4.702 2.472.898-5.236-3.804-3.708 5.257-.764L112 408ZM160 408l2.351 4.764 5.257.764-3.804 3.708.898 5.236L160 420l-4.702 2.472.898-5.236-3.804-3.708 5.257-.764L160 408ZM136 408l2.351 4.764 5.257.764-3.804 3.708.898 5.236L136 420l-4.702 2.472.898-5.236-3.804-3.708 5.257-.764L136 408Z"/></g><g beard='0'><path fill-rule="evenodd" clip-rule="evenodd" d="M346 266H166V349L256 382L346 349V266ZM297 281H215V323H297V281Z" fill="#121212"/></g><g face='22'><path d="M230.711 302H280" stroke="#121212" stroke-width="6"/><rect width="20" height="20" x="212" y="194" fill="#121212" rx="10"><animate attributeName="rx" begin="1s" dur="2s" keyTimes="0;0.25;0.3;0.35;1" repeatCount="indefinite" values="10;10;1;10;10"/><animate attributeName="height" begin="1s" dur="2s" keyTimes="0;0.25;0.3;0.35;1" repeatCount="indefinite" values="20;20;2;20;20"/><animate attributeName="y" begin="1s" dur="2s" keyTimes="0;0.25;0.3;0.35;1" repeatCount="indefinite" values="194;194;203;194;194"/></rect><rect width="20" height="20" x="280" y="194" fill="#121212" rx="10"><animate attributeName="rx" begin="1s" dur="2s" keyTimes="0;0.25;0.3;0.35;1" repeatCount="indefinite" values="10;10;1;10;10"/><animate attributeName="height" begin="1s" dur="2s" keyTimes="0;0.25;0.3;0.35;1" repeatCount="indefinite" values="20;20;2;20;20"/><animate attributeName="y" begin="1s" dur="2s" keyTimes="0;0.25;0.3;0.35;1" repeatCount="indefinite" values="194;194;203;194;194"/></rect><path d="M206 197H238" stroke="#121212" stroke-width="6"/><path d="M274 197H306" stroke="#121212" stroke-width="6"/><path d="M343 318L278 302L355 349.5L368 323.5L375 309.5L352.5 299L345.75 312.5L343 318Z" fill="#77492D"/><path d="M368 323.5L375 309.5L352.5 299L345.75 312.5M368 323.5L355 349.5L278 302L343 318L345.75 312.5M368 323.5L345.75 312.5" stroke="#121212" stroke-width="6"/><path d="M256 218L266 258H246" stroke="#121212" stroke-width="6"/></g><g glass='9'><path stroke="#fff" stroke-width="6" d="M231.959 257.765c5.611-3.635 8.723-8.155 11.169-11.708a81.226 81.226 0 0 1 1.54-2.189c1.408-1.908 2.694-3.302 4.313-4.264 1.58-.939 3.716-1.604 7.019-1.604s5.439.665 7.019 1.604c1.619.962 2.905 2.356 4.313 4.264a81.226 81.226 0 0 1 1.54 2.189c2.446 3.553 5.558 8.073 11.169 11.708 9.751 6.316 22.676 8.257 35.154 8.235 31.746-.057 51.805-29.819 51.805-60.33 0-28.585-17.611-54.617-46.403-59.473C303.462 143.307 281.727 141 256 141c-25.727 0-47.462 2.307-64.597 5.197C162.611 151.053 145 177.085 145 205.67c0 30.511 20.058 60.273 51.805 60.33 12.478.022 25.403-1.918 35.154-8.235Z"/><path fill="#121212" fill-rule="evenodd" d="M191.902 149.155C164.845 153.718 148 178.232 148 205.67c0 29.508 19.302 57.277 48.81 57.33 12.266.022 24.491-1.906 33.518-7.753 5.062-3.279 7.786-7.221 10.226-10.753 3.587-5.191 6.56-9.494 15.446-9.494s11.859 4.303 15.446 9.494c2.44 3.532 5.164 7.474 10.226 10.753 9.027 5.847 21.252 7.775 33.518 7.753 29.508-.053 48.81-27.822 48.81-57.33 0-27.438-16.845-51.952-43.902-56.515C303.115 146.291 281.547 144 256 144c-25.547 0-47.115 2.291-64.098 5.155Zm6.817 22.955C184.104 174.524 174 187.405 174 202.218c0 14.725 9.992 27.807 24.65 29.207 12.127 1.159 25.796.934 33.661-4.181 2.642-1.718 5.197-4.21 7.788-6.736 4.903-4.781 9.931-9.684 15.901-9.684 5.97 0 10.998 4.903 15.901 9.684 2.591 2.526 5.146 5.018 7.788 6.736 7.865 5.115 21.534 5.34 33.661 4.181 14.658-1.4 24.65-14.482 24.65-29.207 0-14.813-10.104-27.694-24.719-30.108-15.36-2.536-36.152-5.11-57.281-5.11-21.129 0-41.921 2.574-57.281 5.11Z" clip-rule="evenodd"/><path fill="#0047FF" fill-opacity=".6" d="M174 202.218c0-14.813 10.104-27.694 24.719-30.108 15.36-2.536 36.152-5.11 57.281-5.11 21.129 0 41.921 2.574 57.281 5.11C327.896 174.524 338 187.405 338 202.218c0 14.725-9.992 27.807-24.65 29.207-12.127 1.159-25.796.934-33.661-4.181-7.642-4.969-14.565-16.42-23.689-16.42s-16.047 11.451-23.689 16.42c-7.865 5.115-21.534 5.34-33.661 4.181-14.658-1.4-24.65-14.482-24.65-29.207Z"/></g></svg>