<svg xmlns="http://www.w3.org/2000/svg" width="512" height="512" fill="none"><rect width="512" height="512" fill="#7000FF "/><g skin='7'><path fill="#2D2D2D" d="M134 178h32v64h-20l-12-64ZM378 178h-32v64h20l12-64ZM64 400h384l32 112H32l32-112Z"/><path fill="#E3E3E3" d="M136 456h240v56H136z"/><path fill="#2D2D2D" d="M207 346h98v54h-98z"/><path fill="#E3E3E3" d="M166 106h180v240H166z"/><path fill="#2D2D2D" d="M246 204c0 16.016-12.984 31.5-29 31.5s-35-15.484-35-31.5 23.484-29.5 39.5-29.5S246 187.984 246 204ZM266 204.5c0 16.016 12.984 31.5 29 31.5s35-15.484 35-31.5-23.484-29.5-39.5-29.5-24.5 13.484-24.5 29.5Z"/></g><g hair='47'><path fill="#121212" d="M166 138v40h-14l-10-77 114.25-65 114.25 65-12.5 77h-12v-40H166Z"/></g><g dress='1'><path fill="#77492D" d="M207 372h98v28h-98zM64 400h384l32 112H32l32-112Z"/><path fill="#8B634A" d="m338 456 7.629 24h4.228l-7.565-24H338Zm36.078 0-8.01 24h4.292l7.947-24h-4.229Zm-22.425 12.652h6.2l-6.74 8.487V480h13.478v-4.101h-6.573l6.796-8.487v-2.861h-13.161v4.101Z"/></g><g beard='4'><rect x="201" y="286" width="12" height="40" fill="#121212"/><rect x="299" y="286" width="12" height="40" fill="#121212"/><rect x="201" y="274" width="110" height="12" fill="#121212"/></g><g face='19'><path d="M296 282H216C216 282 216 318 256.028 318C296.057 318 296 282 296 282Z" fill="white"/><rect width="20" height="20" x="212" y="194" fill="#121212" rx="10"><animate attributeName="rx" begin="1s" dur="2s" keyTimes="0;0.25;0.3;0.35;1" repeatCount="indefinite" values="10;10;1;10;10"/><animate attributeName="height" begin="1s" dur="2s" keyTimes="0;0.25;0.3;0.35;1" repeatCount="indefinite" values="20;20;2;20;20"/><animate attributeName="y" begin="1s" dur="2s" keyTimes="0;0.25;0.3;0.35;1" repeatCount="indefinite" values="194;194;203;194;194"/></rect><rect width="20" height="20" x="280" y="194" fill="#121212" rx="10"><animate attributeName="rx" begin="1s" dur="2s" keyTimes="0;0.25;0.3;0.35;1" repeatCount="indefinite" values="10;10;1;10;10"/><animate attributeName="height" begin="1s" dur="2s" keyTimes="0;0.25;0.3;0.35;1" repeatCount="indefinite" values="20;20;2;20;20"/><animate attributeName="y" begin="1s" dur="2s" keyTimes="0;0.25;0.3;0.35;1" repeatCount="indefinite" values="194;194;203;194;194"/></rect><path d="M206.965 173.472L237.035 162.528" stroke="#121212" stroke-width="6"/><path d="M274.965 162.528L305.035 173.472" stroke="#121212" stroke-width="6"/><path d="M256 218L266 258H246" stroke="#121212" stroke-width="6"/></g><g glass='14'><mask id="a" fill="#fff"><path d="m256 230-21 16h-69v-68h180v68h-69l-21-16Z"/></mask><path fill="#0047FF" d="M166 198h180v-6H166v6Zm0 15.5h180v-6H166v6Zm0 15.5h180v-6H166v6Zm90 1 3.636-4.773a6 6 0 0 0-7.272 0L256 230Zm-21 16v6h2.025l1.611-1.227L235 246Zm-69 0h-6v6h6v-6Zm180 0v6h6v-6h-6Zm-69 0-3.636 4.773 1.611 1.227H277v-6Zm-111-68v-6h-6v6h6Zm180 0h6v-6h-6v6Zm-93.636 47.227-21 16 7.272 9.546 21-16-7.272-9.546ZM235 240h-69v12h69v-12Zm111 0h-69v12h69v-12Zm-65.364 1.227-21-16-7.272 9.546 21 16 7.272-9.546ZM172 195v-17h-12v17h12Zm168-17v17h12v-17h-12Zm-168 32.5V195h-12v15.5h12ZM340 195v15.5h12V195h-12Zm-168 51v-20h-12v20h12Zm0-20v-15.5h-12V226h12Zm168-15.5V226h12v-15.5h-12Zm0 15.5v20h12v-20h-12Zm-174-42h180v-12H166v12Z" mask="url(#a)"/></g></svg>