<svg xmlns="http://www.w3.org/2000/svg" width="512" height="512" fill="none"><rect width="512" height="512" fill="#00FF94 "/><g skin='1'><path fill="#E24713" d="M134 178h32v64h-20l-12-64ZM378 178h-32v64h20l12-64ZM207 346h98v54h-98z"/><path fill="#F15824" d="M64 400h384l32 112H32l32-112Z"/><path fill="#1D1D1D" d="m42 477-6.571 23L106 489l-64-12ZM476.286 499l-6-21L405 488.5l71.286 10.5ZM466.429 464.5l-5.572-19.5-35.357 11.5 40.929 8ZM51.143 445l-5.572 19.5 41.429-8L51.143 445Z"/><path fill="#FF6F3F" d="M136 456h240v56H136z"/><path fill="#F15824" d="M166 106h180v240H166z"/><path fill="#1D1D1D" d="M96 400H80l8 24 8-24ZM158 178h-16l8 16 8-16ZM370 178h-16l8 16 8-16ZM210 106h-16l8 24 8-24ZM342 400h-16l8 40 8-40ZM141 400h-16l8 32 8-32ZM264 106h-16l8 40 8-40ZM387 400h-16l8 32 8-32ZM186 400h-16l8 40 8-40ZM318 106h-16l8 24 8-24ZM432 400h-16l8 24 8-24ZM190 262l-24-8v16l24-8ZM190 154l-24-8v16l24-8ZM231 362l-24-8v16l24-8ZM281 362l24-8v16l-24-8ZM231 385l-24-8v16l24-8ZM281 385l24-8v16l-24-8ZM322 262l24-8v16l-24-8ZM322 154l24-8v16l-24-8ZM198 294l-32-8v16l32-8ZM314 294l32-8v16l-32-8ZM214 326l-48-8v16l48-8ZM298 326l48-8v16l-48-8Z"/></g><g hair='24'><path fill="#121212" d="M166 138v40h-14l-10-77 114.25-65 114.25 65-12.5 77h-12v-40H166Z"/><ellipse cx="256" cy="58" stroke="#E4A400" stroke-width="12" rx="90" ry="24"/></g><g dress='76'><path fill="#F15824" d="M64 400h384l32 112H32l32-112Z"/><path fill="#ECECEC" d="M207 400h98v-26h-98v26Z"/><path fill="#fff" d="M207 512h98V400h-98v112Z"/><path stroke="#C9C9C9" stroke-width="6" d="M256 374v138"/><circle cx="274" cy="442" r="6" fill="#121212"/><circle cx="274" cy="482" r="6" fill="#121212"/><path fill="#121212" d="m256 400-41-22v44l41-22ZM256 400l41-22v44l-41-22ZM64 400h112v112H32l32-112ZM448 400H336v112h144l-32-112Z"/><path fill="#1D1D1D" d="M137 400h70v112h-41l-29-55.5 29-21.5-29-35ZM375 400h-70v112h41l29-55.5-29-21.5 29-35Z"/><path fill="#D22D27" d="m344 451 17.32 10-12 20.785-17.32-10z"/><path stroke="#42B16C" stroke-width="6" d="m340.66 476.784-12 20.785"/></g><g beard='9'><rect x="236" y="322" width="40" height="24" fill="#121212"/><rect x="166" y="242" width="12" height="104" fill="#121212"/><rect x="334" y="242" width="12" height="104" fill="#121212"/><path d="M166 286H207V346H166V286Z" fill="#121212"/><path d="M346 286H305V346H346V286Z" fill="#121212"/></g><g face='8'><path d="M230.711 302H280" stroke="#121212" stroke-width="6"/><rect width="20" height="20" x="212" y="194" fill="#121212" rx="10"><animate attributeName="rx" begin="1s" dur="2s" keyTimes="0;0.25;0.3;0.35;1" repeatCount="indefinite" values="10;10;1;10;10"/><animate attributeName="height" begin="1s" dur="2s" keyTimes="0;0.25;0.3;0.35;1" repeatCount="indefinite" values="20;20;2;20;20"/><animate attributeName="y" begin="1s" dur="2s" keyTimes="0;0.25;0.3;0.35;1" repeatCount="indefinite" values="194;194;203;194;194"/></rect><rect width="20" height="20" x="280" y="194" fill="#121212" rx="10"><animate attributeName="rx" begin="1s" dur="2s" keyTimes="0;0.25;0.3;0.35;1" repeatCount="indefinite" values="10;10;1;10;10"/><animate attributeName="height" begin="1s" dur="2s" keyTimes="0;0.25;0.3;0.35;1" repeatCount="indefinite" values="20;20;2;20;20"/><animate attributeName="y" begin="1s" dur="2s" keyTimes="0;0.25;0.3;0.35;1" repeatCount="indefinite" values="194;194;203;194;194"/></rect><path d="M206 162H238" stroke="#121212" stroke-width="6"/><path d="M274 162H306" stroke="#121212" stroke-width="6"/><path d="M256 218L266 258H246" stroke="#121212" stroke-width="6"/></g><g glass='6'><path fill="#7B0000" d="m222 172 8 18.144L249.713 188 238 204l11.713 16L230 217.856 222 236l-8-18.144L194.287 220 206 204l-11.713-16L214 190.144 222 172Z"/><circle cx="10" cy="10" r="10" fill="#D22D27" transform="matrix(1 0 0 -1 212 214)"/><path fill="#7B0000" d="m290 172 8 18.144L317.713 188 306 204l11.713 16L298 217.856 290 236l-8-18.144L262.287 220 274 204l-11.713-16L282 190.144 290 172Z"/><circle cx="10" cy="10" r="10" fill="#D22D27" transform="matrix(1 0 0 -1 280 214)"/></g></svg>