<svg xmlns="http://www.w3.org/2000/svg" width="512" height="512" fill="none"><rect width="512" height="512" fill="#7B0000 "/><g skin='1'><path fill="#E24713" d="M134 178h32v64h-20l-12-64ZM378 178h-32v64h20l12-64ZM207 346h98v54h-98z"/><path fill="#F15824" d="M64 400h384l32 112H32l32-112Z"/><path fill="#1D1D1D" d="m42 477-6.571 23L106 489l-64-12ZM476.286 499l-6-21L405 488.5l71.286 10.5ZM466.429 464.5l-5.572-19.5-35.357 11.5 40.929 8ZM51.143 445l-5.572 19.5 41.429-8L51.143 445Z"/><path fill="#FF6F3F" d="M136 456h240v56H136z"/><path fill="#F15824" d="M166 106h180v240H166z"/><path fill="#1D1D1D" d="M96 400H80l8 24 8-24ZM158 178h-16l8 16 8-16ZM370 178h-16l8 16 8-16ZM210 106h-16l8 24 8-24ZM342 400h-16l8 40 8-40ZM141 400h-16l8 32 8-32ZM264 106h-16l8 40 8-40ZM387 400h-16l8 32 8-32ZM186 400h-16l8 40 8-40ZM318 106h-16l8 24 8-24ZM432 400h-16l8 24 8-24ZM190 262l-24-8v16l24-8ZM190 154l-24-8v16l24-8ZM231 362l-24-8v16l24-8ZM281 362l24-8v16l-24-8ZM231 385l-24-8v16l24-8ZM281 385l24-8v16l-24-8ZM322 262l24-8v16l-24-8ZM322 154l24-8v16l-24-8ZM198 294l-32-8v16l32-8ZM314 294l32-8v16l-32-8ZM214 326l-48-8v16l48-8ZM298 326l48-8v16l-48-8Z"/></g><g hair='57'><path fill="#121212" d="m166 66 45-12v100h-45V66ZM211 34l45 8v112h-45V34ZM256 60l45 8v86h-45V60ZM301 90l45 8v56h-45V90Z"/><path fill="#121212" d="M334 135h30v43h-30v-43ZM178 135h-30v43h30v-43Z"/><path fill="#121212" d="M166 154h12v104h-12zM334 154h12v104h-12z"/></g><g dress='75'><g clip-path="url(#a)"><path fill="#454545" d="M207 512h98v-73h-98v73Z"/><path fill="#606060" d="M207 439v-39l50 39h-50ZM305 439v-39l-48 39h48Z"/><path fill="#1D1D1D" d="M241 439h32l-8 24h-16l-8-24ZM241 512h32l-8-49h-16l-8 49Z"/><path fill="#121212" d="M64 400h112v112H32l32-112ZM448 400H336v112h144l-32-112Z"/><path fill="#1D1D1D" d="M137 400h70v112h-41l-29-55.5 29-21.5-29-35ZM375 400h-70v112h41l29-55.5-29-21.5 29-35Z"/><path fill="#121212" d="M207 512h98v-73l-48 40-50-40v73Z"/><circle cx="272" cy="488" r="6" fill="#1D1D1D"/><circle cx="272" cy="512" r="6" fill="#1D1D1D"/><path stroke="#1D1D1D" stroke-width="6" d="M257 476v36"/></g><defs><clipPath id="a"><path fill="#fff" d="M0 0h512v512H0z"/></clipPath></defs></g><g beard='0'><path fill-rule="evenodd" clip-rule="evenodd" d="M346 266H166V349L256 382L346 349V266ZM297 281H215V323H297V281Z" fill="#121212"/></g><g face='21'><path d="M230.711 302H280" stroke="#121212" stroke-width="6"/><path d="M343 318L278 302L355 349.5L368 323.5L375 309.5L352.5 299L345.75 312.5L343 318Z" fill="#77492D"/><path d="M368 323.5L375 309.5L352.5 299L345.75 312.5M368 323.5L355 349.5L278 302L343 318L345.75 312.5M368 323.5L345.75 312.5" stroke="#121212" stroke-width="6"/><path d="M208.144 160L235.856 176" stroke="#121212" stroke-width="6"/><path d="M276.144 176L303.856 160" stroke="#121212" stroke-width="6"/><rect width="20" height="20" x="212" y="194" fill="#121212" rx="10"><animate attributeName="rx" begin="1s" dur="2s" keyTimes="0;0.25;0.3;0.35;1" repeatCount="indefinite" values="10;10;1;10;10"/><animate attributeName="height" begin="1s" dur="2s" keyTimes="0;0.25;0.3;0.35;1" repeatCount="indefinite" values="20;20;2;20;20"/><animate attributeName="y" begin="1s" dur="2s" keyTimes="0;0.25;0.3;0.35;1" repeatCount="indefinite" values="194;194;203;194;194"/></rect><rect width="20" height="20" x="280" y="194" fill="#121212" rx="10"><animate attributeName="rx" begin="1s" dur="2s" keyTimes="0;0.25;0.3;0.35;1" repeatCount="indefinite" values="10;10;1;10;10"/><animate attributeName="height" begin="1s" dur="2s" keyTimes="0;0.25;0.3;0.35;1" repeatCount="indefinite" values="20;20;2;20;20"/><animate attributeName="y" begin="1s" dur="2s" keyTimes="0;0.25;0.3;0.35;1" repeatCount="indefinite" values="194;194;203;194;194"/></rect><path d="M256 218L266 258H246" stroke="#121212" stroke-width="6"/></g><g glass='12'><path fill="#121212" d="M166 172h80v64l-80 42V172Z"/><rect width="40" height="40" x="194" y="184" fill="#D22D27" rx="20"/><rect width="20" height="20" x="204" y="194" fill="#7B0000" rx="10"/><rect width="8" height="8" x="182" y="184" fill="#D22D27" rx="4"/></g></svg>