<svg xmlns="http://www.w3.org/2000/svg" width="512" height="512" fill="none"><rect width="512" height="512" fill="#7000FF "/><g skin='10'><path fill="#56C499" d="M134 178h32v64h-20l-12-64ZM378 178h-32v64h20l12-64Z"/><path fill="#82DCB9" d="M64 400h384l32 112H32l32-112Z"/><path fill="#D22D27" d="M87.5 427.5V400h68l-41 27.5h-27Z"/><path fill="#56C499" d="M207 346h98v54h-98z"/><path fill="#82DCB9" d="m207 377 98-12v4l-98 12v-4Z"/><path fill="#FF00B1" d="M190 118.5s-10.505-3.476-16.5 2.948c-5.596 5.995 0 18.552 0 18.552s-5.89 3.714-7 9c-2.205 10.5 4.499 15.5 4.499 15.5v8.5H192.5l35.5-63h-8s-5.5-3.667-16-2.5c-8.999 1-14 11-14 11Z"/><path fill="#82DCB9" d="M346 346V106H223l-16.5 20v16H188v15l-22 9v180h180Z"/><path fill="#D22D27" d="m294 136.5 52 12v9.5l-52-21.5Z"/><path fill="#fff" d="m313.762 134 3.625 1.69-6.762 14.501-3.625-1.69zM223 369.349l3.985-.349 1.394 15.94-3.985.348zM253 365.349l3.985-.349 1.394 15.94-3.985.348zM283 361.349l3.985-.349 1.394 15.94-3.985.348zM331.141 141l3.864 1.035-4.141 15.455-3.864-1.035zM147.129 383.208 124.576 375l-1.368 3.758 22.553 8.209zM136.364 383.547l-3.759-1.368-8.208 22.553 3.759 1.368zM115 385H91v4h24zM105 389h-4v24h4z"/></g><g hair='48'><path fill="#121212" d="M334 154h12v52h-12zM166 154h12v52h-12zM166 57.956 346 102v52H166V57.956Z"/></g><g dress='9'><path fill="#77492D" d="M64 400h96l96 72 96-72h96l32 112H32l32-112Z"/><path fill="#8B634A" d="m322 456 7.629 24h4.228l-7.565-24H322Zm36.078 0-8.01 24h4.292l7.947-24h-4.229Zm-22.425 12.652h6.2l-6.74 8.487V480h13.478v-4.101h-6.573l6.796-8.487v-2.861h-13.161v4.101Z"/></g><g beard='4'><rect x="201" y="286" width="12" height="40" fill="#121212"/><rect x="299" y="286" width="12" height="40" fill="#121212"/><rect x="201" y="274" width="110" height="12" fill="#121212"/></g><g face='22'><path d="M230.711 302H280" stroke="#121212" stroke-width="6"/><rect width="20" height="20" x="212" y="194" fill="#121212" rx="10"><animate attributeName="rx" begin="1s" dur="2s" keyTimes="0;0.25;0.3;0.35;1" repeatCount="indefinite" values="10;10;1;10;10"/><animate attributeName="height" begin="1s" dur="2s" keyTimes="0;0.25;0.3;0.35;1" repeatCount="indefinite" values="20;20;2;20;20"/><animate attributeName="y" begin="1s" dur="2s" keyTimes="0;0.25;0.3;0.35;1" repeatCount="indefinite" values="194;194;203;194;194"/></rect><rect width="20" height="20" x="280" y="194" fill="#121212" rx="10"><animate attributeName="rx" begin="1s" dur="2s" keyTimes="0;0.25;0.3;0.35;1" repeatCount="indefinite" values="10;10;1;10;10"/><animate attributeName="height" begin="1s" dur="2s" keyTimes="0;0.25;0.3;0.35;1" repeatCount="indefinite" values="20;20;2;20;20"/><animate attributeName="y" begin="1s" dur="2s" keyTimes="0;0.25;0.3;0.35;1" repeatCount="indefinite" values="194;194;203;194;194"/></rect><path d="M206 197H238" stroke="#121212" stroke-width="6"/><path d="M274 197H306" stroke="#121212" stroke-width="6"/><path d="M343 318L278 302L355 349.5L368 323.5L375 309.5L352.5 299L345.75 312.5L343 318Z" fill="#77492D"/><path d="M368 323.5L375 309.5L352.5 299L345.75 312.5M368 323.5L355 349.5L278 302L343 318L345.75 312.5M368 323.5L345.75 312.5" stroke="#121212" stroke-width="6"/><path d="M256 218L266 258H246" stroke="#121212" stroke-width="6"/></g><g glass='6'><path fill="#7B0000" d="m222 172 8 18.144L249.713 188 238 204l11.713 16L230 217.856 222 236l-8-18.144L194.287 220 206 204l-11.713-16L214 190.144 222 172Z"/><circle cx="10" cy="10" r="10" fill="#D22D27" transform="matrix(1 0 0 -1 212 214)"/><path fill="#7B0000" d="m290 172 8 18.144L317.713 188 306 204l11.713 16L298 217.856 290 236l-8-18.144L262.287 220 274 204l-11.713-16L282 190.144 290 172Z"/><circle cx="10" cy="10" r="10" fill="#D22D27" transform="matrix(1 0 0 -1 280 214)"/></g></svg>