<svg xmlns="http://www.w3.org/2000/svg" width="512" height="512" fill="none"><rect width="512" height="512" fill="#186450 "/><g skin='8'><path fill="#B7009A" d="M134 178h32v64h-20l-12-64ZM378 178h-32v64h20l12-64Z"/><path fill="#D800B5" d="M64 400h384l32 112H32l32-112Z"/><path fill="#B7009A" d="M207 346h98v54h-98z"/><path fill="#D800B5" d="M166 106h180v240H166z"/><path fill="#fff" d="m256 174-12.161-28L256 118l12.161 28L256 174Z"/><circle cx="256" cy="146" r="7.92" fill="#007089" transform="rotate(-90 256 146)"/><path fill="#fff" d="m256 500-12.161-28L256 444l12.161 28L256 500Z"/><circle cx="256" cy="472" r="7.92" fill="#007089" transform="rotate(-90 256 472)"/><path fill="#fff" d="m284 484 28-12.161L340 484l-28 12.161L284 484Z"/><circle cx="312" cy="484" r="7.92" fill="#007089"/><path fill="#fff" d="m172 484 28-12.161L228 484l-28 12.161L172 484Z"/><circle cx="200" cy="484" r="7.92" fill="#007089"/><path fill="#fff" d="m92 484 28-12.161L148 484l-28 12.161L92 484Z"/><circle cx="120" cy="484" r="7.92" fill="#007089"/><path fill="#fff" d="m364 484 28-12.161L420 484l-28 12.161L364 484Z"/><circle cx="392" cy="484" r="7.92" fill="#007089"/><path fill="#fff" d="m197.799 411.799 11.2 28.398 28.398 11.2-11.2-28.398-28.398-11.2Z"/><circle cx="7.92" cy="7.92" r="7.92" fill="#007089" transform="scale(1 -1) rotate(-45 -417.786 -464.942)"/><path fill="#fff" d="m134.061 416.936 15.961 26.022 29.911 6.099-15.961-26.022-29.911-6.099Z"/><circle cx="7.92" cy="7.92" r="7.92" fill="#007089" transform="scale(1 -1) rotate(-35 -616.745 -448.945)"/><path fill="#fff" d="m72.06 420.936 15.962 26.022 29.911 6.099-15.961-26.022-29.911-6.099Z"/><circle cx="7.92" cy="7.92" r="7.92" fill="#007089" transform="scale(1 -1) rotate(-35 -654.089 -352.625)"/><path fill="#fff" d="m381.933 416.936-15.961 26.022-29.912 6.099 15.961-26.022 29.912-6.099Z"/><circle cx="358.997" cy="432.997" r="7.92" fill="#007089" transform="rotate(145 358.997 432.997)"/><path fill="#fff" d="m443.933 416.936-15.961 26.022-29.912 6.099 15.961-26.022 29.912-6.099Z"/><circle cx="420.997" cy="432.997" r="7.92" fill="#007089" transform="rotate(145 420.997 432.997)"/><path fill="#fff" d="m315.397 411.799-11.2 28.398-28.398 11.2 11.2-28.398 28.398-11.2Z"/><circle cx="295.599" cy="431.598" r="7.92" fill="#007089" transform="rotate(135 295.599 431.598)"/><path fill="#fff" d="m294.799 169.397 11.2-28.398 28.398-11.2-11.2 28.398-28.398 11.2Z"/><circle cx="314.597" cy="149.598" r="7.92" fill="#007089" transform="rotate(-45 314.597 149.598)"/><path fill="#fff" d="m177.799 129.799 11.2 28.398 28.398 11.2-11.2-28.398-28.398-11.2Z"/><circle cx="7.92" cy="7.92" r="7.92" fill="#007089" transform="scale(1 -1) rotate(-45 -87.382 -299.8)"/><path fill="#fff" d="m228 372 28-12.161L284 372l-28 12.161L228 372Z"/><circle cx="256" cy="372" r="7.92" fill="#007089"/></g><g hair='59'><path fill="#121212" d="M166 106h180v135.5l-13 .5V130l-77 28-77-28v112h-13V106Z"/><path fill="#121212" d="m236 38 40 16-8 64h-24l-8-80Z"/><path stroke="#121212" stroke-width="6" d="M232 85.5h48"/></g><g dress='91'><path fill="#fff" d="M207 481h98v-73s-15.5 24-48 24-50-24-50-24v73Z"/><path fill="#D33600" d="M64 400h143l50 67 48-67h143l32 112H32l32-112Z"/><path fill="#FF9672" d="m338 456 7.629 24h4.228l-7.565-24H338Zm36.078 0-8.01 24h4.292l7.947-24h-4.229Zm-22.425 12.652h6.2l-6.74 8.487V480h13.478v-4.101h-6.573l6.796-8.487v-2.861h-13.161v4.101Z"/><path fill="#121212" d="m183.974 464.098 6.828-12.841-.382-.203-4.493 3.645-2.839-1.51 6.59-5.085 4.895 2.603-7.887 14.834-2.712-1.443Zm9.581 5.095 6.828-12.842-.381-.202-4.493 3.645-2.84-1.51 6.591-5.085 4.895 2.603-7.887 14.833-2.713-1.442Zm9.582 5.094 6.828-12.841-.382-.203-4.493 3.645-2.84-1.51 6.591-5.085 4.895 2.603-7.887 14.834-2.712-1.443Zm9.581 5.095 6.828-12.842-.381-.202-4.494 3.645-2.839-1.51 6.59-5.085 4.896 2.603-7.888 14.833-2.712-1.442Z"/><path fill="#FF9672" d="m207 400 50 67-122-67h72ZM305 400l-48 67 122-67h-74Z"/><path stroke="#FF9672" stroke-width="6" d="M257 465v47"/></g><g beard='8'><rect x="204" y="286" width="12" height="60" fill="#121212"/><rect x="296" y="286" width="12" height="60" fill="#121212"/><rect x="244" y="322" width="24" height="12" fill="#121212"/><path d="M204 334H308V346L256 370L204 346V334Z" fill="#121212"/></g><g face='2'><path d="M230.711 302H280" stroke="#121212" stroke-width="6"/><rect width="20" height="20" x="212" y="194" fill="#121212" rx="10"><animate attributeName="rx" begin="1s" dur="2s" keyTimes="0;0.25;0.3;0.35;1" repeatCount="indefinite" values="10;10;1;10;10"/><animate attributeName="height" begin="1s" dur="2s" keyTimes="0;0.25;0.3;0.35;1" repeatCount="indefinite" values="20;20;2;20;20"/><animate attributeName="y" begin="1s" dur="2s" keyTimes="0;0.25;0.3;0.35;1" repeatCount="indefinite" values="194;194;203;194;194"/></rect><rect width="20" height="20" x="280" y="194" fill="#121212" rx="10"><animate attributeName="rx" begin="1s" dur="2s" keyTimes="0;0.25;0.3;0.35;1" repeatCount="indefinite" values="10;10;1;10;10"/><animate attributeName="height" begin="1s" dur="2s" keyTimes="0;0.25;0.3;0.35;1" repeatCount="indefinite" values="20;20;2;20;20"/><animate attributeName="y" begin="1s" dur="2s" keyTimes="0;0.25;0.3;0.35;1" repeatCount="indefinite" values="194;194;203;194;194"/></rect><path d="M206 197H238" stroke="#121212" stroke-width="6"/><path d="M274 197H306" stroke="#121212" stroke-width="6"/><path d="M256 218L266 258H246" stroke="#121212" stroke-width="6"/></g><g glass='14'><mask id="a" fill="#fff"><path d="m256 230-21 16h-69v-68h180v68h-69l-21-16Z"/></mask><path fill="#0047FF" d="M166 198h180v-6H166v6Zm0 15.5h180v-6H166v6Zm0 15.5h180v-6H166v6Zm90 1 3.636-4.773a6 6 0 0 0-7.272 0L256 230Zm-21 16v6h2.025l1.611-1.227L235 246Zm-69 0h-6v6h6v-6Zm180 0v6h6v-6h-6Zm-69 0-3.636 4.773 1.611 1.227H277v-6Zm-111-68v-6h-6v6h6Zm180 0h6v-6h-6v6Zm-93.636 47.227-21 16 7.272 9.546 21-16-7.272-9.546ZM235 240h-69v12h69v-12Zm111 0h-69v12h69v-12Zm-65.364 1.227-21-16-7.272 9.546 21 16 7.272-9.546ZM172 195v-17h-12v17h12Zm168-17v17h12v-17h-12Zm-168 32.5V195h-12v15.5h12ZM340 195v15.5h12V195h-12Zm-168 51v-20h-12v20h12Zm0-20v-15.5h-12V226h12Zm168-15.5V226h12v-15.5h-12Zm0 15.5v20h12v-20h-12Zm-174-42h180v-12H166v12Z" mask="url(#a)"/></g></svg>