<svg xmlns="http://www.w3.org/2000/svg" width="512" height="512" fill="none"><rect width="512" height="512" fill="#FFD600 "/><g skin='5'><path fill="#0097D8" d="M134 178h32v64h-20l-12-64ZM378 178h-32v64h20l12-64ZM207 346h98v54h-98z"/><path fill="#00B2FF" d="M64 400h384l32 112H32l32-112Z"/><path fill="#2C71A3" d="m42 477-6.571 23L105 477H42ZM476.286 499l-6-21H405l71.286 21ZM466.429 464.5l-5.572-19.5H425.5l40.929 19.5ZM51.143 445l-5.572 19.5L86 445H51.143Z"/><path fill="#00B2FF" d="M166 106h180v240H166z"/><path fill="#2C71A3" d="M96 400H80l16 25v-25ZM198 106h-16l16 24v-24ZM230 106h-16l16 40v-40ZM342 400h-16v40l16-40ZM141 400h-16l16 32v-32ZM264 106h-16l8 106 8-106ZM387 400h-16v30.5l16-30.5ZM186 400h-16l16 40v-40ZM330 106h-16v24l16-24ZM298 106h-16v40l16-40ZM432 400h-16v24l16-24ZM197.5 224.5 166 194v16l31.5 14.5ZM190 176.5 166 146v16l24 14.5ZM192 289l-26-8v16l26-8ZM320 289l26-8v16l-26-8ZM295 358l-88-6v12l88-6ZM295 388l-88-6v12l88-6ZM217 373l88-6v12l-88-6ZM314 223.5l32-30.5v16l-32 14.5ZM322 176.5l24-30.5v16l-24 14.5ZM206 277.5 166 242v16l40 19.5ZM206 301l-40 32v-12.8l40-19.2ZM306 277.5l40-35.5v16l-40 19.5ZM306 301l40 32v-12.8L306 301Z"/></g><g hair='7'><path fill="#121212" d="M166 62h180v90H166V62ZM166 152h12v104h-12zM334 152h12v104h-12z"/><path fill="#121212" d="M106 135h300v16H106z"/><path fill="#2D2D2D" d="M166 95h180v40H166z"/><path fill="#121212" d="m236 103 7.629 24h4.228l-7.565-24H236Zm36.078 0-8.01 24h4.292l7.947-24h-4.229Zm-22.425 12.652h6.2l-6.74 8.487V127h13.478v-4.101h-6.573l6.796-8.487v-2.861h-13.161v4.101ZM166 15h180v80H166z"/></g><g dress='79'><path fill="#121212" d="M207 372h98v28h-98zM64 400h384l32 112H32l32-112Z"/><path fill="#fff" d="m470.001 477-9-31.5s-15.928 6-11.001 22c4.003 13 20.001 9.5 20.001 9.5Z"/><path fill="#D33600" d="M96 456h111v56H96zM305 456h111v56H305z"/><path stroke="#fff" stroke-width="6" d="M256 372v140"/><path fill="#77492D" d="m432.43 450.736 11.413-3.708 12.36 38.042-11.412 3.708z"/></g><g beard='3'><path fill-rule="evenodd" clip-rule="evenodd" d="M207 346V271H305V346H256H207ZM219 283H293V315H219V283Z" fill="#121212"/></g><g face='34'><path d="M206 162H238" stroke="#121212" stroke-width="6"/><path d="M206 202C206 202 212 194 222 194C232 194 238 202 238 202" stroke="#121212" stroke-width="6"/><path d="M274 202C274 202 280 194 290 194C300 194 306 202 306 202" stroke="#121212" stroke-width="6"/><path d="M274 162H306" stroke="#121212" stroke-width="6"/><path d="M216 284H296L292 301L288 317H224L220 301L216 284Z" fill="white"/><path d="M220 301L224 317H288L292 301M220 301L216 284H296L292 301M220 301H292" stroke="#121212" stroke-width="6"/><path d="M256 218L266 258H246" stroke="#121212" stroke-width="6"/><path d="M256.25 401.5C219 401.5 199 377.5 199 377.5L245.841 301H266.659L313.5 377.5C313.5 377.5 293.5 401.5 256.25 401.5Z" fill="#FFB74A" stroke="#121212" stroke-width="6"/><path d="M256.25 401.5C219 401.5 199 377.5 199 377.5L206.654 365C206.654 365 224.5 384 256.25 384C285 384 305.846 365 305.846 365L313.5 377.5C313.5 377.5 293.5 401.5 256.25 401.5Z" fill="#FF9900" stroke="#121212" stroke-width="6"/><circle cx="241" cy="359" r="12" fill="#D22D27"/><circle cx="257" cy="321" r="10" fill="#D22D27"/><circle cx="273" cy="351" r="10" fill="#D22D27"/></g><g glass='14'><mask id="a" fill="#fff"><path d="m256 230-21 16h-69v-68h180v68h-69l-21-16Z"/></mask><path fill="#0047FF" d="M166 198h180v-6H166v6Zm0 15.5h180v-6H166v6Zm0 15.5h180v-6H166v6Zm90 1 3.636-4.773a6 6 0 0 0-7.272 0L256 230Zm-21 16v6h2.025l1.611-1.227L235 246Zm-69 0h-6v6h6v-6Zm180 0v6h6v-6h-6Zm-69 0-3.636 4.773 1.611 1.227H277v-6Zm-111-68v-6h-6v6h6Zm180 0h6v-6h-6v6Zm-93.636 47.227-21 16 7.272 9.546 21-16-7.272-9.546ZM235 240h-69v12h69v-12Zm111 0h-69v12h69v-12Zm-65.364 1.227-21-16-7.272 9.546 21 16 7.272-9.546ZM172 195v-17h-12v17h12Zm168-17v17h12v-17h-12Zm-168 32.5V195h-12v15.5h12ZM340 195v15.5h12V195h-12Zm-168 51v-20h-12v20h12Zm0-20v-15.5h-12V226h12Zm168-15.5V226h12v-15.5h-12Zm0 15.5v20h12v-20h-12Zm-174-42h180v-12H166v12Z" mask="url(#a)"/></g></svg>