<svg xmlns="http://www.w3.org/2000/svg" width="512" height="512" fill="none"><rect width="512" height="512" fill="#0047FF "/><g skin='11'><path fill="#D5A300" d="M134 178h32v64h-20l-12-64ZM378 178h-32v64h20l12-64ZM207 346h98v54h-98z"/><path fill="#E3B41A" d="M64 400h384l32 112H32l32-112ZM166 106h180v240H166z"/></g><g hair='42'><path fill="#42B16C" d="M238 14h36v100h-36z"/><path stroke="#94EDB6" stroke-width="6" d="M256 88v48"/><path fill="#42B16C" d="m309.186 14 35.453 6.251-17.365 98.481-35.453-6.251z"/><path stroke="#94EDB6" stroke-width="6" d="m314.062 90.001-8.335 47.271"/><path fill="#42B16C" d="m362 76 31.177 18-50 86.603-31.177-18z"/><path stroke="#94EDB6" stroke-width="6" d="m340.588 149.086-24 41.569"/><path fill="#42B16C" d="m151 76-31.177 18 50 86.603 31.177-18z"/><path stroke="#94EDB6" stroke-width="6" d="m172.412 149.086 24 41.569"/><path fill="#42B16C" d="M202.453 14 167 20.251l17.365 98.481 35.453-6.251z"/><path stroke="#94EDB6" stroke-width="6" d="m197.576 90.001 8.335 47.271"/><path fill="#D22D27" d="M166 162h180v-40H166z"/><path fill="#FFB74A" d="m167 141.971 16.97-16.97 16.971 16.97-16.97 16.97zM203 141.971l16.97-16.97 16.971 16.97-16.97 16.97zM239 141.971l16.97-16.97 16.971 16.97-16.97 16.97zM275 141.971l16.97-16.97 16.971 16.97-16.97 16.97zM311 141.971l16.97-16.97 16.971 16.97-16.97 16.97z"/></g><g dress='36'><path fill="#fff" d="M64 400h143l50 39 48-39h143l32 112H32l32-112Z"/><path fill="#00FF94" d="m65.5 457-15 55H114l-16-26.5-18 8L65.5 457Z"/><path fill="#FFD600" d="M121.5 413h-30L84 445h43l-11-12 5.5-20Z"/><path fill="#D22D27" d="M143 462.5v-26l20 3 4-20.5 33.5 53.5-23 13h-63l28.5-23Z"/><path fill="#0094FF" d="M263.5 495.5 252 471l-66 41h93.5l15-26-31 9.5Z"/><path fill="#42B16C" d="m353 417-14 18 19 19.5h40.5L432 478l-22.5-61H353Z"/><path fill="#F90" d="m330.5 448-14 26.5 50.5 26 24.5-31.5h-44l-17-21Z"/><path fill="#F15824" d="m404 482-16.5 20.5h55L404 482Z"/><path fill="#DDD1D8" d="m257 439-41.5 27.5-36-66.5 27.5-20 50 59ZM257 439l41.5 27.5 36-66.5-29.5-20-48 59Z"/></g><g beard='1'><path d="M166 266L206 286V346H166V266Z" fill="#121212"/><path d="M346 266L306 286V346H346V266Z" fill="#121212"/><rect x="206" y="322" width="100" height="24" fill="#121212"/></g><g face='6'><path d="M206 162H238" stroke="#121212" stroke-width="6"/><path d="M274 162H306" stroke="#121212" stroke-width="6"/><path d="M219.5 193C225 186 232.5 190.5 232.5 196.5C232.5 200.918 229.349 205.219 225 206C219.615 206.966 212.5 203 211 196.5C209.154 188.5 213 179 225 179C237 179 242.5 186.987 242.5 196.5C242.5 203.5 238.5 215.375 223.5 216C217.481 216.251 203 212.5 201 197" stroke="#121212" stroke-width="6"/><path d="M292 193C286.5 186 279 190.5 279 196.5C279 200.918 282.151 205.219 286.5 206C291.885 206.966 299 203 300.5 196.5C302.346 188.5 298.5 179 286.5 179C274.5 179 269 186.987 269 196.5C269 203.5 273 215.375 288 216C294.019 216.251 308.5 212.5 310.5 197" stroke="#121212" stroke-width="6"/><path d="M284 309.25V290H261.5V309.25C261.5 315.463 266.537 320.5 272.75 320.5C278.963 320.5 284 315.463 284 309.25Z" fill="white"/><path d="M228 290H261.5M261.5 290H284V309.25C284 315.463 278.963 320.5 272.75 320.5V320.5C266.537 320.5 261.5 315.463 261.5 309.25V290Z" stroke="#121212" stroke-width="6"/><path d="M256 218L266 258H246" stroke="#121212" stroke-width="6"/></g><g glass='4'><path fill="#121212" d="M190 175h56v56h-56v-56Z"/><path stroke="#121212" stroke-width="6" d="M190 175h56m-56 0v56h56v-56m-56 0h-24m80 0h100"/></g></svg>