<svg xmlns="http://www.w3.org/2000/svg" width="512" height="512" fill="none"><rect width="512" height="512" fill="#572828 "/><g skin='6'><path fill="#36CF00" d="M134 178h32v64h-20l-12-64ZM378 178h-32v64h20l12-64Z"/><path fill="#3BE200" d="M64 400h384l32 112H32l32-112Z"/><path fill="#36CF00" d="M207 346h98v54h-98z"/><path fill="#3BE200" d="M166 106h180v240H166z"/></g><g hair='64'><path fill="#ECECEC" d="M256 76c-37.003 0-67 29.997-67 67h134c0-37.003-29.997-67-67-67Z"/><path fill="#fff" d="M142 106h228l-24 56H166l-24-56Z"/><path fill="#ECECEC" d="m236 122 7.629 24h4.228l-7.565-24H236Zm36.078 0-8.01 24h4.292l7.947-24h-4.229Zm-22.425 12.652h6.2l-6.74 8.487V146h13.478v-4.101h-6.573l6.796-8.487v-2.861h-13.161v4.101Z"/></g><g dress='20'><g clip-path="url(#a)"><path fill="#2D2D2D" d="M64 400h96s0 72 96 72 96-72 96-72h96l32 112H32l32-112Z"/><path fill="#5B6062" d="M150.5 400H207v133.5h-22l-52-90h31L150.5 400ZM361.5 400H305v133.5h22l52-90h-31l13.5-43.5Z"/></g><defs><clipPath id="a"><path fill="#fff" d="M0 0h512v512H0z"/></clipPath></defs></g><g beard='0'><path fill-rule="evenodd" clip-rule="evenodd" d="M346 266H166V349L256 382L346 349V266ZM297 281H215V323H297V281Z" fill="#121212"/></g><g face='26'><path d="M206 162H238" stroke="#121212" stroke-width="6"/><path d="M206 202C206 202 212 194 222 194C232 194 238 202 238 202" stroke="#121212" stroke-width="6"/><path d="M274 202C274 202 280 194 290 194C300 194 306 202 306 202" stroke="#121212" stroke-width="6"/><path d="M274 162H306" stroke="#121212" stroke-width="6"/><path d="M230.711 302H280" stroke="#121212" stroke-width="6"/><path d="M256 218L266 258H246" stroke="#121212" stroke-width="6"/><path d="M376 302C376 331.271 352.271 355 323 355C293.729 355 271.5 309 256 302C272 295 293.729 249 323 249C352.271 249 376 272.729 376 302Z" fill="#FF008A" stroke="#121212" stroke-width="6"/></g><g glass='19'><path fill="#121212" fill-opacity=".4" d="M192 203c0-15.464 12.536-28 28-28s28 12.536 28 28-12.536 28-28 28-28-12.536-28-28Z"/><path stroke="#FFB74A" stroke-width="6" d="M220 175c-15.464 0-28 12.536-28 28m28-28c15.464 0 28 12.536 28 28s-12.536 28-28 28m0-56v28m-28 0c0 15.464 12.536 28 28 28m-28-28-28-27m56 55v-28m0 0-21 18.5m21-18.5 21.5 18.5M248 202h16"/><path fill="#121212" fill-opacity=".4" d="M320 203c0-15.464-12.536-28-28-28s-28 12.536-28 28 12.536 28 28 28 28-12.536 28-28Z"/><path stroke="#FFB74A" stroke-width="6" d="M292 175c15.464 0 28 12.536 28 28m-28-28c-15.464 0-28 12.536-28 28s12.536 28 28 28m0-56v28m28 0c0 15.464-12.536 28-28 28m28-28 28-27m-56 55v-28m0 0 21 18.5M292 203l-21.5 18.5"/></g></svg>