<svg xmlns="http://www.w3.org/2000/svg" width="512" height="512" fill="none"><rect width="512" height="512" fill="#FF9900 "/><g skin='3'><path fill="#E24713" d="M134 178h32v64h-20l-12-64ZM378 178h-32v64h20l12-64Z"/><path fill="#C9C9C9" d="M207 346h98v9h-98z"/><path fill="#D9D9D9" d="M207 355h98v9h-98z"/><path fill="#C9C9C9" d="M207 364h98v9h-98z"/><path fill="#D9D9D9" d="M207 373h98v9h-98z"/><path fill="#C9C9C9" d="M207 382h98v9h-98z"/><path fill="#D9D9D9" d="M207 391h98v9h-98z"/><path fill="#F15824" d="M64 400h384l32 112H32l32-112Z"/><path fill="#D9D9D9" d="M64 400h56v88H76v24H32l32-112Z"/><path fill="#F15824" d="M166 106h180v240H166z"/><path fill="#D9D9D9" d="M264 146h82v200h-16.5V244.5L264 226v-80ZM166 106h40v44h-40v-44ZM234 322h44v24h-44z"/><circle cx="148" cy="436" r="12" fill="#D9D9D9"/><circle cx="332" cy="160" r="6" fill="#C9C9C9"/><circle cx="332" cy="180" r="6" fill="#C9C9C9"/><circle cx="92" cy="436" r="12" fill="#C9C9C9"/></g><g hair='60'><path fill="#121212" d="M165.999 106v240h-61c-30-46 24-67.75 24-67.75s-24-6.75-24-33.875 24-33.875 24-33.875-24-10-24-33.875 24-33.875 24-33.875-11.691-39.25 8.501-58.25 55.249-9.5 55.249-9.5 8.75-40 63.75-40 63.75 40 63.75 40S357.5 66.215 377 84.5s7.249 58.25 7.249 58.25 24.22 3.75 24.5 33.875c.25 26.875-24 33.875-24 33.875s24.5 7.25 24.25 33.875-24.25 33.875-24.25 33.875S441 299 408.999 346h-63V106h-180Z"/><ellipse cx="174.5" cy="124.5" fill="#121212" rx="37.5" ry="33.5"/><ellipse cx="256" cy="106" fill="#121212" rx="61" ry="45"/><ellipse cx="335" cy="124.5" fill="#121212" rx="40" ry="33.5"/></g><g dress='22'><g clip-path="url(#a)"><path fill="#2D2D2D" d="M64 400h96s0 72 96 72 96-72 96-72h96l32 112H32l32-112Z"/><path fill="#5B6062" d="M150.5 400H207v133.5h-22l-52-90h31L150.5 400ZM361.5 400H305v133.5h22l52-90h-31l13.5-43.5Z"/><path fill="#fff" d="M207 512h98v-73h-98v73Z"/><path fill="#C9C9C9" d="M207 439v-39l50 39h-50ZM305 439v-39l-48 39h48Z"/><path fill="#2D2D2D" d="M241 439h32l-8 24h-16l-8-24ZM241 512h32l-8-49h-16l-8 49Z"/></g><defs><clipPath id="a"><path fill="#fff" d="M0 0h512v512H0z"/></clipPath></defs></g><g beard='7'><rect x="204" y="286" width="12" height="60" fill="#121212"/><rect x="296" y="286" width="12" height="60" fill="#121212"/><rect x="250" y="322" width="12" height="24" fill="#121212"/><rect x="204" y="274" width="104" height="12" fill="#121212"/><rect x="196" y="334" width="120" height="12" fill="#121212"/><path d="M166 258L196 274V346H166V258Z" fill="#121212"/><path d="M346 258L316 274V346H346V258Z" fill="#121212"/></g><g face='34'><path d="M206 162H238" stroke="#121212" stroke-width="6"/><path d="M206 202C206 202 212 194 222 194C232 194 238 202 238 202" stroke="#121212" stroke-width="6"/><path d="M274 202C274 202 280 194 290 194C300 194 306 202 306 202" stroke="#121212" stroke-width="6"/><path d="M274 162H306" stroke="#121212" stroke-width="6"/><path d="M216 284H296L292 301L288 317H224L220 301L216 284Z" fill="white"/><path d="M220 301L224 317H288L292 301M220 301L216 284H296L292 301M220 301H292" stroke="#121212" stroke-width="6"/><path d="M256 218L266 258H246" stroke="#121212" stroke-width="6"/><path d="M256.25 401.5C219 401.5 199 377.5 199 377.5L245.841 301H266.659L313.5 377.5C313.5 377.5 293.5 401.5 256.25 401.5Z" fill="#FFB74A" stroke="#121212" stroke-width="6"/><path d="M256.25 401.5C219 401.5 199 377.5 199 377.5L206.654 365C206.654 365 224.5 384 256.25 384C285 384 305.846 365 305.846 365L313.5 377.5C313.5 377.5 293.5 401.5 256.25 401.5Z" fill="#FF9900" stroke="#121212" stroke-width="6"/><circle cx="241" cy="359" r="12" fill="#D22D27"/><circle cx="257" cy="321" r="10" fill="#D22D27"/><circle cx="273" cy="351" r="10" fill="#D22D27"/></g><g glass='3'><path fill="red" fill-opacity=".4" d="M190 175h56v56h-56v-56Z"/><path stroke="#121212" stroke-width="6" d="M190 175h56v56h-56v-56Zm0 0h-24M247 184h19"/><path fill="#0075FF" fill-opacity=".4" d="M266 175h56v56h-56v-56Z"/><path stroke="#121212" stroke-width="6" d="M322 175h-56v56h56v-56Zm0 0h24"/></g></svg>