<svg xmlns="http://www.w3.org/2000/svg" width="512" height="512" fill="none"><rect width="512" height="512" fill="#0047FF "/><g skin='3'><path fill="#E24713" d="M134 178h32v64h-20l-12-64ZM378 178h-32v64h20l12-64Z"/><path fill="#C9C9C9" d="M207 346h98v9h-98z"/><path fill="#D9D9D9" d="M207 355h98v9h-98z"/><path fill="#C9C9C9" d="M207 364h98v9h-98z"/><path fill="#D9D9D9" d="M207 373h98v9h-98z"/><path fill="#C9C9C9" d="M207 382h98v9h-98z"/><path fill="#D9D9D9" d="M207 391h98v9h-98z"/><path fill="#F15824" d="M64 400h384l32 112H32l32-112Z"/><path fill="#D9D9D9" d="M64 400h56v88H76v24H32l32-112Z"/><path fill="#F15824" d="M166 106h180v240H166z"/><path fill="#D9D9D9" d="M264 146h82v200h-16.5V244.5L264 226v-80ZM166 106h40v44h-40v-44ZM234 322h44v24h-44z"/><circle cx="148" cy="436" r="12" fill="#D9D9D9"/><circle cx="332" cy="160" r="6" fill="#C9C9C9"/><circle cx="332" cy="180" r="6" fill="#C9C9C9"/><circle cx="92" cy="436" r="12" fill="#C9C9C9"/></g><g hair='45'><path fill="#121212" d="M244 62h24v80h-24z"/><path fill="#D22D27" d="M196.5 144v-38H155l-41-58 16 96h66.5ZM316 144v-38h41.5l41-58-16 96H316Z"/></g><g dress='35'><g clip-path="url(#a)"><path fill="#D22D27" d="M64 400h143l50 39 48-39h143l32 112H32l32-112Z"/><circle cx="169.971" cy="454.941" r="12" fill="#F90" transform="rotate(-45 169.971 454.941)"/><circle cx="186.941" cy="437.971" r="12" fill="#F90" transform="rotate(-45 186.941 437.971)"/><circle cx="203.912" cy="454.941" r="12" fill="#F90" transform="rotate(-45 203.912 454.941)"/><circle cx="186.941" cy="471.912" r="12" fill="#F90" transform="rotate(-45 186.941 471.912)"/><circle cx="186.941" cy="454.941" r="12" fill="#FFD600" transform="rotate(-45 186.941 454.941)"/><circle cx="393.62" cy="430.828" r="12" fill="#F90" transform="rotate(-20 393.62 430.828)"/><circle cx="416.173" cy="422.62" r="12" fill="#F90" transform="rotate(-20 416.173 422.62)"/><circle cx="424.381" cy="445.172" r="12" fill="#F90" transform="rotate(-20 424.381 445.172)"/><circle cx="401.828" cy="453.381" r="12" fill="#F90" transform="rotate(-20 401.828 453.381)"/><circle cx="409.001" cy="438" r="12" fill="#FFD600" transform="rotate(-20 409.001 438)"/><circle cx="82.381" cy="430.588" r="12" fill="#F90" transform="rotate(-20 82.38 430.588)"/><circle cx="104.933" cy="422.38" r="12" fill="#F90" transform="rotate(-20 104.933 422.38)"/><circle cx="113.141" cy="444.932" r="12" fill="#F90" transform="rotate(-20 113.141 444.932)"/><circle cx="90.589" cy="453.141" r="12" fill="#F90" transform="rotate(-20 90.589 453.141)"/><circle cx="97.761" cy="437.76" r="12" fill="#FFD600" transform="rotate(-20 97.761 437.76)"/><circle cx="110.381" cy="500.588" r="12" fill="#F90" transform="rotate(-20 110.381 500.588)"/><circle cx="132.933" cy="492.38" r="12" fill="#F90" transform="rotate(-20 132.933 492.38)"/><circle cx="141.141" cy="514.932" r="12" fill="#F90" transform="rotate(-20 141.141 514.932)"/><circle cx="118.589" cy="523.141" r="12" fill="#F90" transform="rotate(-20 118.589 523.141)"/><circle cx="125.761" cy="507.76" r="12" fill="#FFD600" transform="rotate(-20 125.761 507.76)"/><circle cx="244.381" cy="496.588" r="12" fill="#F90" transform="rotate(-20 244.381 496.588)"/><circle cx="266.933" cy="488.38" r="12" fill="#F90" transform="rotate(-20 266.933 488.38)"/><circle cx="275.141" cy="510.932" r="12" fill="#F90" transform="rotate(-20 275.141 510.932)"/><circle cx="252.589" cy="519.141" r="12" fill="#F90" transform="rotate(-20 252.589 519.141)"/><circle cx="259.761" cy="503.76" r="12" fill="#FFD600" transform="rotate(-20 259.761 503.76)"/><circle cx="316.971" cy="465.941" r="12" fill="#F90" transform="rotate(-45 316.971 465.941)"/><circle cx="333.941" cy="448.971" r="12" fill="#F90" transform="rotate(-45 333.941 448.971)"/><circle cx="350.912" cy="465.941" r="12" fill="#F90" transform="rotate(-45 350.912 465.941)"/><circle cx="333.941" cy="482.912" r="12" fill="#F90" transform="rotate(-45 333.941 482.912)"/><circle cx="333.941" cy="465.941" r="12" fill="#FFD600" transform="rotate(-45 333.941 465.941)"/><circle cx="406.971" cy="509.941" r="12" fill="#F90" transform="rotate(-45 406.971 509.941)"/><circle cx="423.941" cy="492.971" r="12" fill="#F90" transform="rotate(-45 423.941 492.971)"/><circle cx="440.912" cy="509.941" r="12" fill="#F90" transform="rotate(-45 440.912 509.941)"/><circle cx="423.941" cy="526.912" r="12" fill="#F90" transform="rotate(-45 423.941 526.912)"/><circle cx="423.941" cy="509.941" r="12" fill="#FFD600" transform="rotate(-45 423.941 509.941)"/><path fill="#FF9490" d="m257 439-41.5 27.5-36-66.5 27.5-20 50 59ZM257 439l41.5 27.5 36-66.5-29.5-20-48 59Z"/></g><defs><clipPath id="a"><path fill="#fff" d="M0 0h512v512H0z"/></clipPath></defs></g><g beard='4'><rect x="201" y="286" width="12" height="40" fill="#121212"/><rect x="299" y="286" width="12" height="40" fill="#121212"/><rect x="201" y="274" width="110" height="12" fill="#121212"/></g><g face='2'><path d="M230.711 302H280" stroke="#121212" stroke-width="6"/><rect width="20" height="20" x="212" y="194" fill="#121212" rx="10"><animate attributeName="rx" begin="1s" dur="2s" keyTimes="0;0.25;0.3;0.35;1" repeatCount="indefinite" values="10;10;1;10;10"/><animate attributeName="height" begin="1s" dur="2s" keyTimes="0;0.25;0.3;0.35;1" repeatCount="indefinite" values="20;20;2;20;20"/><animate attributeName="y" begin="1s" dur="2s" keyTimes="0;0.25;0.3;0.35;1" repeatCount="indefinite" values="194;194;203;194;194"/></rect><rect width="20" height="20" x="280" y="194" fill="#121212" rx="10"><animate attributeName="rx" begin="1s" dur="2s" keyTimes="0;0.25;0.3;0.35;1" repeatCount="indefinite" values="10;10;1;10;10"/><animate attributeName="height" begin="1s" dur="2s" keyTimes="0;0.25;0.3;0.35;1" repeatCount="indefinite" values="20;20;2;20;20"/><animate attributeName="y" begin="1s" dur="2s" keyTimes="0;0.25;0.3;0.35;1" repeatCount="indefinite" values="194;194;203;194;194"/></rect><path d="M206 197H238" stroke="#121212" stroke-width="6"/><path d="M274 197H306" stroke="#121212" stroke-width="6"/><path d="M256 218L266 258H246" stroke="#121212" stroke-width="6"/></g><g glass='12'><path fill="#121212" d="M166 172h80v64l-80 42V172Z"/><rect width="40" height="40" x="194" y="184" fill="#D22D27" rx="20"/><rect width="20" height="20" x="204" y="194" fill="#7B0000" rx="10"/><rect width="8" height="8" x="182" y="184" fill="#D22D27" rx="4"/></g></svg>