<svg xmlns="http://www.w3.org/2000/svg" width="512" height="512" fill="none"><rect width="512" height="512" fill="#572828 "/><g skin='4'><path fill="#E24713" d="M134 178h32v64h-20l-12-64ZM378 178h-32v64h20l12-64ZM207 346h98v54h-98z"/><path fill="#F15824" d="M64 400h384l32 112H32l32-112ZM166 106h180v240H166z"/><path fill="#FF845A" d="m236 143 7.629 24h4.228l-7.565-24H236Zm36.078 0-8.01 24h4.292l7.947-24h-4.229Zm-22.425 12.652h6.2l-6.74 8.487V167h13.478v-4.101h-6.573l6.796-8.487v-2.861h-13.161v4.101Z"/><path stroke="#FF845A" stroke-width="6" d="M346 126h-21v43h-23v177M244 109h24v15l-12 13-12-13v-15ZM166 126h21v43h23v177"/><path fill="#FF845A" d="M299 134h6v6h-6zM293 140h6v6h-6zM305 140h6v6h-6zM299 146h6v6h-6zM321 276h6v6h-6zM315 282h6v6h-6zM327 282h6v6h-6zM321 288h6v6h-6zM185 276h6v6h-6zM179 282h6v6h-6zM191 282h6v6h-6zM185 288h6v6h-6zM321 242h6v6h-6zM315 248h6v6h-6zM327 248h6v6h-6zM321 254h6v6h-6zM185 242h6v6h-6zM179 248h6v6h-6zM191 248h6v6h-6zM185 254h6v6h-6zM253 416h6v6h-6zM247 422h6v6h-6zM259 422h6v6h-6zM253 428h6v6h-6zM66 478h6v6h-6zM60 484h6v6h-6zM72 484h6v6h-6zM66 490h6v6h-6zM199 416h6v6h-6zM193 422h6v6h-6zM205 422h6v6h-6zM199 428h6v6h-6zM199 447h6v6h-6zM193 453h6v6h-6zM205 453h6v6h-6zM199 459h6v6h-6zM308 416h6v6h-6zM302 422h6v6h-6zM314 422h6v6h-6zM308 428h6v6h-6zM308 447h6v6h-6zM302 453h6v6h-6zM314 453h6v6h-6zM308 459h6v6h-6zM440 478h6v6h-6zM434 484h6v6h-6zM446 484h6v6h-6zM440 490h6v6h-6zM308 478h6v6h-6zM302 484h6v6h-6zM314 484h106v6.057H314zM308 490h6v6h-6zM199 478h6v6h-6zM92 484h107v6H92zM205 484h6v6h-6zM199 490h6v6h-6zM321 310h6v6h-6zM315 316h6v6h-6zM327 316h6v6h-6zM321 322h6v24h-6zM185 310h6v6h-6zM179 316h6v6h-6zM191 316h6v6h-6zM185 322h6v24h-6zM207 134h6v6h-6zM201 140h6v6h-6zM213 140h6v6h-6zM207 146h6v6h-6z"/><path stroke="#FF845A" stroke-width="6" d="M235 373v-10h15v-17m-15 27v11h12v-11h-12ZM277 374v10h-15v16m15-26v-11h-12v11h12ZM384 428l10-4 6 5 6-5 10 4v10l-16 14-16-14v-10ZM250 452v44M258 452v4M258 492v4M270 462v9M270 477v9M243 459h24M250 474h17M243 489h24"/><path fill="#FF845A" d="M124 431h6v6h-6zM118 437h6v6h-6zM104 437h6v6h-6zM130 437h6v6h-6zM124 443h6v6h-6z"/><path stroke="#FF845A" stroke-width="6" d="M96 424h48v32H96z"/></g><g hair='48'><path fill="#121212" d="M334 154h12v52h-12zM166 154h12v52h-12zM166 57.956 346 102v52H166V57.956Z"/></g><g dress='20'><g clip-path="url(#a)"><path fill="#2D2D2D" d="M64 400h96s0 72 96 72 96-72 96-72h96l32 112H32l32-112Z"/><path fill="#5B6062" d="M150.5 400H207v133.5h-22l-52-90h31L150.5 400ZM361.5 400H305v133.5h22l52-90h-31l13.5-43.5Z"/></g><defs><clipPath id="a"><path fill="#fff" d="M0 0h512v512H0z"/></clipPath></defs></g><g beard='9'><rect x="236" y="322" width="40" height="24" fill="#121212"/><rect x="166" y="242" width="12" height="104" fill="#121212"/><rect x="334" y="242" width="12" height="104" fill="#121212"/><path d="M166 286H207V346H166V286Z" fill="#121212"/><path d="M346 286H305V346H346V286Z" fill="#121212"/></g><g face='22'><path d="M230.711 302H280" stroke="#121212" stroke-width="6"/><rect width="20" height="20" x="212" y="194" fill="#121212" rx="10"><animate attributeName="rx" begin="1s" dur="2s" keyTimes="0;0.25;0.3;0.35;1" repeatCount="indefinite" values="10;10;1;10;10"/><animate attributeName="height" begin="1s" dur="2s" keyTimes="0;0.25;0.3;0.35;1" repeatCount="indefinite" values="20;20;2;20;20"/><animate attributeName="y" begin="1s" dur="2s" keyTimes="0;0.25;0.3;0.35;1" repeatCount="indefinite" values="194;194;203;194;194"/></rect><rect width="20" height="20" x="280" y="194" fill="#121212" rx="10"><animate attributeName="rx" begin="1s" dur="2s" keyTimes="0;0.25;0.3;0.35;1" repeatCount="indefinite" values="10;10;1;10;10"/><animate attributeName="height" begin="1s" dur="2s" keyTimes="0;0.25;0.3;0.35;1" repeatCount="indefinite" values="20;20;2;20;20"/><animate attributeName="y" begin="1s" dur="2s" keyTimes="0;0.25;0.3;0.35;1" repeatCount="indefinite" values="194;194;203;194;194"/></rect><path d="M206 197H238" stroke="#121212" stroke-width="6"/><path d="M274 197H306" stroke="#121212" stroke-width="6"/><path d="M343 318L278 302L355 349.5L368 323.5L375 309.5L352.5 299L345.75 312.5L343 318Z" fill="#77492D"/><path d="M368 323.5L375 309.5L352.5 299L345.75 312.5M368 323.5L355 349.5L278 302L343 318L345.75 312.5M368 323.5L345.75 312.5" stroke="#121212" stroke-width="6"/><path d="M256 218L266 258H246" stroke="#121212" stroke-width="6"/></g><g glass='15'><path fill="#121212" d="m235 250 21-16 21 16h69v-72H166v72h69Z"/><circle cx="176" cy="190" r="4" fill="#0047FF"/><circle cx="176" cy="206" r="4" fill="#0047FF"/><circle cx="176" cy="222" r="4" fill="#0047FF"/><circle cx="176" cy="238" r="4" fill="#0047FF"/><circle cx="192" cy="190" r="4" fill="#79CBDC"/><circle cx="192" cy="206" r="4" fill="#79CBDC"/><circle cx="192" cy="222" r="4" fill="#79CBDC"/><circle cx="192" cy="238" r="4" fill="#79CBDC"/><circle cx="208" cy="190" r="4" fill="#79CBDC"/><circle cx="208" cy="206" r="4" fill="#0047FF"/><circle cx="208" cy="222" r="4" fill="#79CBDC"/><circle cx="208" cy="238" r="4" fill="#79CBDC"/><circle cx="224" cy="190" r="4" fill="#79CBDC"/><circle cx="224" cy="206" r="4" fill="#0047FF"/><circle cx="224" cy="222" r="4" fill="#79CBDC"/><circle cx="224" cy="238" r="4" fill="#79CBDC"/><circle cx="240" cy="190" r="4" fill="#0047FF"/><circle cx="240" cy="206" r="4" fill="#0047FF"/><circle cx="240" cy="222" r="4" fill="#0047FF"/><circle cx="240" cy="238" r="4" fill="#0047FF"/><circle cx="256" cy="190" r="4" fill="#0047FF"/><circle cx="256" cy="206" r="4" fill="#0047FF"/><circle cx="256" cy="222" r="4" fill="#0047FF"/><circle cx="272" cy="190" r="4" fill="#0047FF"/><circle cx="272" cy="206" r="4" fill="#0047FF"/><circle cx="272" cy="222" r="4" fill="#0047FF"/><circle cx="272" cy="238" r="4" fill="#0047FF"/><circle cx="288" cy="190" r="4" fill="#79CBDC"/><circle cx="288" cy="206" r="4" fill="#79CBDC"/><circle cx="288" cy="222" r="4" fill="#0047FF"/><circle cx="288" cy="238" r="4" fill="#79CBDC"/><circle cx="304" cy="190" r="4" fill="#79CBDC"/><circle cx="304" cy="206" r="4" fill="#79CBDC"/><circle cx="304" cy="222" r="4" fill="#0047FF"/><circle cx="304" cy="238" r="4" fill="#79CBDC"/><circle cx="320" cy="190" r="4" fill="#79CBDC"/><circle cx="320" cy="206" r="4" fill="#79CBDC"/><circle cx="320" cy="222" r="4" fill="#79CBDC"/><circle cx="320" cy="238" r="4" fill="#79CBDC"/><circle cx="336" cy="190" r="4" fill="#0047FF"/><circle cx="336" cy="206" r="4" fill="#0047FF"/><circle cx="336" cy="222" r="4" fill="#0047FF"/><circle cx="336" cy="238" r="4" fill="#0047FF"/></g></svg>