<svg xmlns="http://www.w3.org/2000/svg" width="512" height="512" fill="none"><rect width="512" height="512" fill="#0047FF "/><g skin='3'><path fill="#E24713" d="M134 178h32v64h-20l-12-64ZM378 178h-32v64h20l12-64Z"/><path fill="#C9C9C9" d="M207 346h98v9h-98z"/><path fill="#D9D9D9" d="M207 355h98v9h-98z"/><path fill="#C9C9C9" d="M207 364h98v9h-98z"/><path fill="#D9D9D9" d="M207 373h98v9h-98z"/><path fill="#C9C9C9" d="M207 382h98v9h-98z"/><path fill="#D9D9D9" d="M207 391h98v9h-98z"/><path fill="#F15824" d="M64 400h384l32 112H32l32-112Z"/><path fill="#D9D9D9" d="M64 400h56v88H76v24H32l32-112Z"/><path fill="#F15824" d="M166 106h180v240H166z"/><path fill="#D9D9D9" d="M264 146h82v200h-16.5V244.5L264 226v-80ZM166 106h40v44h-40v-44ZM234 322h44v24h-44z"/><circle cx="148" cy="436" r="12" fill="#D9D9D9"/><circle cx="332" cy="160" r="6" fill="#C9C9C9"/><circle cx="332" cy="180" r="6" fill="#C9C9C9"/><circle cx="92" cy="436" r="12" fill="#C9C9C9"/></g><g hair='71'><path fill="#42B16C" d="M181.729 133.565a8.382 8.382 0 0 1-14.71-8.038c2.22-4.062 15.84-11.508 15.84-11.508s1.09 15.484-1.13 19.546ZM216.729 120.565a8.382 8.382 0 0 1-14.71-8.038c2.22-4.062 15.84-11.508 15.84-11.508s1.09 15.484-1.13 19.546ZM229.716 144.65a7.93 7.93 0 0 1-2.495-10.935 7.93 7.93 0 0 1 10.935-2.495c3.708 2.331 9.956 15.624 9.956 15.624s-14.688.137-18.396-2.194ZM192.716 158.65a7.93 7.93 0 0 1-2.495-10.935 7.93 7.93 0 0 1 10.935-2.495c3.708 2.331 9.956 15.624 9.956 15.624s-14.688.137-18.396-2.194ZM164.716 169.65a7.93 7.93 0 0 1-2.495-10.935 7.93 7.93 0 0 1 10.935-2.495c3.708 2.331 9.956 15.624 9.956 15.624s-14.688.137-18.396-2.194Z"/><path stroke="#94EDB6" stroke-width="6" d="m154.5 152 32-12 16-6 16-6 16-6"/><path fill="#42B16C" d="M334.603 133.565a8.382 8.382 0 0 0 14.71-8.038c-2.22-4.062-15.84-11.508-15.84-11.508s-1.09 15.484 1.13 19.546ZM299.603 120.565a8.382 8.382 0 0 0 14.71-8.038c-2.22-4.062-15.84-11.508-15.84-11.508s-1.09 15.484 1.13 19.546ZM286.617 144.65a7.93 7.93 0 0 0 2.494-10.935 7.93 7.93 0 0 0-10.935-2.495c-3.708 2.331-9.956 15.624-9.956 15.624s14.688.137 18.397-2.194ZM323.617 158.65a7.93 7.93 0 0 0 2.494-10.935 7.93 7.93 0 0 0-10.935-2.495c-3.708 2.331-9.956 15.624-9.956 15.624s14.688.137 18.397-2.194ZM351.617 169.65a7.93 7.93 0 0 0 2.494-10.935 7.93 7.93 0 0 0-10.935-2.495c-3.708 2.331-9.956 15.624-9.956 15.624s14.688.137 18.397-2.194Z"/><path stroke="#94EDB6" stroke-width="6" d="m361.832 152-32-12-16-6-16-6-16-6"/></g><g dress='65'><path fill="#77492D" d="M64 400h96s0 72 96 72 96-72 96-72h96l32 112H32l32-112Z"/><path fill="#8B634A" d="M207 346s-63.879 2.092-75 30.5c-5.99 15.3 3 23.501 3 23.501s-8.001 7-8 19c.001 12 8 19.5 8 19.5s-8 5-8 19 8 19 8 19-8 5.25-8 17c0 11.749 8 18.499 8 18.499h72V346ZM305 346s63.879 2.092 75 30.5c5.99 15.3-3 23.501-3 23.501s8.001 7 8 19c-.001 12-8 19.5-8 19.5s8 5 8 19-8 19-8 19 8 5.25 8 17c0 11.749-8 18.499-8 18.499h-72V346Z"/><path fill="#121212" d="M207 400h98v112h-98z"/><path fill="#2D2D2D" d="m236 456 7.629 24h4.228l-7.565-24H236Zm36.078 0-8.01 24h4.292l7.947-24h-4.229Zm-22.425 12.652h6.2l-6.74 8.487V480h13.478v-4.101h-6.573l6.796-8.487v-2.861h-13.161v4.101Z"/></g><g beard='9'><rect x="236" y="322" width="40" height="24" fill="#121212"/><rect x="166" y="242" width="12" height="104" fill="#121212"/><rect x="334" y="242" width="12" height="104" fill="#121212"/><path d="M166 286H207V346H166V286Z" fill="#121212"/><path d="M346 286H305V346H346V286Z" fill="#121212"/></g><g face='8'><path d="M230.711 302H280" stroke="#121212" stroke-width="6"/><rect width="20" height="20" x="212" y="194" fill="#121212" rx="10"><animate attributeName="rx" begin="1s" dur="2s" keyTimes="0;0.25;0.3;0.35;1" repeatCount="indefinite" values="10;10;1;10;10"/><animate attributeName="height" begin="1s" dur="2s" keyTimes="0;0.25;0.3;0.35;1" repeatCount="indefinite" values="20;20;2;20;20"/><animate attributeName="y" begin="1s" dur="2s" keyTimes="0;0.25;0.3;0.35;1" repeatCount="indefinite" values="194;194;203;194;194"/></rect><rect width="20" height="20" x="280" y="194" fill="#121212" rx="10"><animate attributeName="rx" begin="1s" dur="2s" keyTimes="0;0.25;0.3;0.35;1" repeatCount="indefinite" values="10;10;1;10;10"/><animate attributeName="height" begin="1s" dur="2s" keyTimes="0;0.25;0.3;0.35;1" repeatCount="indefinite" values="20;20;2;20;20"/><animate attributeName="y" begin="1s" dur="2s" keyTimes="0;0.25;0.3;0.35;1" repeatCount="indefinite" values="194;194;203;194;194"/></rect><path d="M206 162H238" stroke="#121212" stroke-width="6"/><path d="M274 162H306" stroke="#121212" stroke-width="6"/><path d="M256 218L266 258H246" stroke="#121212" stroke-width="6"/></g><g glass='22'><path fill="#FFD600" fill-opacity=".4" d="M192 203c0-15.464 12.536-28 28-28s28 12.536 28 28-12.536 28-28 28-28-12.536-28-28Z"/><path stroke="#121212" stroke-width="6" d="M192 203c0 15.464 12.536 28 28 28s28-12.536 28-28-12.536-28-28-28-28 12.536-28 28Zm0 0-28-27M248 202h16"/><path fill="#FFD600" fill-opacity=".4" d="M264 203c0-15.464 12.536-28 28-28s28 12.536 28 28-12.536 28-28 28-28-12.536-28-28Z"/><path stroke="#121212" stroke-width="6" d="M320 203c0-15.464-12.536-28-28-28s-28 12.536-28 28 12.536 28 28 28 28-12.536 28-28Zm0 0 28-27"/></g></svg>