<svg xmlns="http://www.w3.org/2000/svg" width="512" height="512" fill="none"><rect width="512" height="512" fill="#FF9900 "/><g skin='1'><path fill="#E24713" d="M134 178h32v64h-20l-12-64ZM378 178h-32v64h20l12-64ZM207 346h98v54h-98z"/><path fill="#F15824" d="M64 400h384l32 112H32l32-112Z"/><path fill="#1D1D1D" d="m42 477-6.571 23L106 489l-64-12ZM476.286 499l-6-21L405 488.5l71.286 10.5ZM466.429 464.5l-5.572-19.5-35.357 11.5 40.929 8ZM51.143 445l-5.572 19.5 41.429-8L51.143 445Z"/><path fill="#FF6F3F" d="M136 456h240v56H136z"/><path fill="#F15824" d="M166 106h180v240H166z"/><path fill="#1D1D1D" d="M96 400H80l8 24 8-24ZM158 178h-16l8 16 8-16ZM370 178h-16l8 16 8-16ZM210 106h-16l8 24 8-24ZM342 400h-16l8 40 8-40ZM141 400h-16l8 32 8-32ZM264 106h-16l8 40 8-40ZM387 400h-16l8 32 8-32ZM186 400h-16l8 40 8-40ZM318 106h-16l8 24 8-24ZM432 400h-16l8 24 8-24ZM190 262l-24-8v16l24-8ZM190 154l-24-8v16l24-8ZM231 362l-24-8v16l24-8ZM281 362l24-8v16l-24-8ZM231 385l-24-8v16l24-8ZM281 385l24-8v16l-24-8ZM322 262l24-8v16l-24-8ZM322 154l24-8v16l-24-8ZM198 294l-32-8v16l32-8ZM314 294l32-8v16l-32-8ZM214 326l-48-8v16l48-8ZM298 326l48-8v16l-48-8Z"/></g><g hair='15'><path fill="#121212" d="m166 106 53.5-33v33l69-33v33L346 73v81H166v-48ZM166 154h12v40h-12zM334 154h12v40h-12z"/><path fill="#00A8FF" d="M166 122h180v32H166z"/><path fill="#A7DAFF" d="m236 126 7.629 24h4.228l-7.565-24H236Zm36.078 0-8.01 24h4.292l7.947-24h-4.229Zm-22.425 12.652h6.2l-6.74 8.487V150h13.478v-4.101h-6.573l6.796-8.487v-2.861h-13.161v4.101Z"/></g><g dress='83'><path fill="#fff" d="M64 400h143l50 67 48-67h143l32 112H32l32-112Z"/><circle cx="6" cy="6" r="6" fill="#121212" transform="matrix(1 0 0 -1 251 486)"/><circle cx="6" cy="6" r="6" fill="#121212" transform="matrix(1 0 0 -1 251 506)"/><path fill="#121212" d="M80 400h76v112H80zM356 400h76v112h-76zM257 467l-65.5-27.5L199 429l-27.5-8 8-21H207l50 67ZM257 467l65.5-27.5L315 429l27.5-8-8-21H305l-48 67Z"/></g><g beard='6'><rect x="207" y="346" width="98" height="54" fill="#E24713"/><path fill-rule="evenodd" clip-rule="evenodd" d="M346 266H166V400H256.5H346V266ZM297 281H215V323H297V281Z" fill="#121212"/></g><g face='17'><path d="M231.114 302H280.403L292 290" stroke="#121212" stroke-width="6"/><path d="M206 162H238" stroke="#121212" stroke-width="6"/><path d="M206 202C206 202 212 194 222 194C232 194 238 202 238 202" stroke="#121212" stroke-width="6"/><path d="M274 202C274 202 280 194 290 194C300 194 306 202 306 202" stroke="#121212" stroke-width="6"/><path d="M274 162H306" stroke="#121212" stroke-width="6"/><path d="M256 218L266 258H246" stroke="#121212" stroke-width="6"/></g><g glass='16'><path fill="#425824" fill-opacity=".6" d="M166 178h180v56h-69l-21-16-21 16h-69v-56Z"/><path stroke="#42B16C" stroke-width="2" d="M199 224h26.5l4 5M312.5 224H286l-4 5M174 194v24M182 222v4M329.5 222v4M186 222v4M325.5 222v4M190 222v4M321.5 222v4M194 222v4M317.5 222v4M338 194v24M178 190h59.5l4.5-4.5h8.5M334 190h-59.5l-4.5-4.5h-8.5M247 194l4.5 5h9l4.5-5"/></g></svg>