<svg xmlns="http://www.w3.org/2000/svg" width="512" height="512" fill="none"><rect width="512" height="512" fill="#FF9900 "/><g skin='8'><path fill="#B7009A" d="M134 178h32v64h-20l-12-64ZM378 178h-32v64h20l12-64Z"/><path fill="#D800B5" d="M64 400h384l32 112H32l32-112Z"/><path fill="#B7009A" d="M207 346h98v54h-98z"/><path fill="#D800B5" d="M166 106h180v240H166z"/><path fill="#fff" d="m256 174-12.161-28L256 118l12.161 28L256 174Z"/><circle cx="256" cy="146" r="7.92" fill="#007089" transform="rotate(-90 256 146)"/><path fill="#fff" d="m256 500-12.161-28L256 444l12.161 28L256 500Z"/><circle cx="256" cy="472" r="7.92" fill="#007089" transform="rotate(-90 256 472)"/><path fill="#fff" d="m284 484 28-12.161L340 484l-28 12.161L284 484Z"/><circle cx="312" cy="484" r="7.92" fill="#007089"/><path fill="#fff" d="m172 484 28-12.161L228 484l-28 12.161L172 484Z"/><circle cx="200" cy="484" r="7.92" fill="#007089"/><path fill="#fff" d="m92 484 28-12.161L148 484l-28 12.161L92 484Z"/><circle cx="120" cy="484" r="7.92" fill="#007089"/><path fill="#fff" d="m364 484 28-12.161L420 484l-28 12.161L364 484Z"/><circle cx="392" cy="484" r="7.92" fill="#007089"/><path fill="#fff" d="m197.799 411.799 11.2 28.398 28.398 11.2-11.2-28.398-28.398-11.2Z"/><circle cx="7.92" cy="7.92" r="7.92" fill="#007089" transform="scale(1 -1) rotate(-45 -417.786 -464.942)"/><path fill="#fff" d="m134.061 416.936 15.961 26.022 29.911 6.099-15.961-26.022-29.911-6.099Z"/><circle cx="7.92" cy="7.92" r="7.92" fill="#007089" transform="scale(1 -1) rotate(-35 -616.745 -448.945)"/><path fill="#fff" d="m72.06 420.936 15.962 26.022 29.911 6.099-15.961-26.022-29.911-6.099Z"/><circle cx="7.92" cy="7.92" r="7.92" fill="#007089" transform="scale(1 -1) rotate(-35 -654.089 -352.625)"/><path fill="#fff" d="m381.933 416.936-15.961 26.022-29.912 6.099 15.961-26.022 29.912-6.099Z"/><circle cx="358.997" cy="432.997" r="7.92" fill="#007089" transform="rotate(145 358.997 432.997)"/><path fill="#fff" d="m443.933 416.936-15.961 26.022-29.912 6.099 15.961-26.022 29.912-6.099Z"/><circle cx="420.997" cy="432.997" r="7.92" fill="#007089" transform="rotate(145 420.997 432.997)"/><path fill="#fff" d="m315.397 411.799-11.2 28.398-28.398 11.2 11.2-28.398 28.398-11.2Z"/><circle cx="295.599" cy="431.598" r="7.92" fill="#007089" transform="rotate(135 295.599 431.598)"/><path fill="#fff" d="m294.799 169.397 11.2-28.398 28.398-11.2-11.2 28.398-28.398 11.2Z"/><circle cx="314.597" cy="149.598" r="7.92" fill="#007089" transform="rotate(-45 314.597 149.598)"/><path fill="#fff" d="m177.799 129.799 11.2 28.398 28.398 11.2-11.2-28.398-28.398-11.2Z"/><circle cx="7.92" cy="7.92" r="7.92" fill="#007089" transform="scale(1 -1) rotate(-45 -87.382 -299.8)"/><path fill="#fff" d="m228 372 28-12.161L284 372l-28 12.161L228 372Z"/><circle cx="256" cy="372" r="7.92" fill="#007089"/></g><g hair='46'><path fill="#121212" d="M166 64h180v90H166V64Z"/><path fill="#121212" d="M334 135h30v43h-30v-43ZM178 135h-30v43h30v-43Z"/><path fill="#121212" d="M166 154h12v104h-12zM334 154h12v104h-12z"/></g><g dress='73'><path fill="#fff" d="M157 400h50l165 112h-53L157 400Z"/><path fill="#0094FF" d="M448 400H336L171 512h309l-32-112Z"/><path fill="#fff" d="M355 400h-50L140 512h53l162-112Z"/><path fill="#A7DAFF" d="M386 400h-50L171 512h53l162-112Z"/><path fill="#0094FF" d="M64 400h112l165 112H32l32-112Z"/><path fill="#D5EDFF" d="M126 400h50l165 112h-53L126 400Z"/><path fill="#0082C5" d="M64 400h112v112H32l32-112Z"/><path stroke="#A7DAFF" stroke-width="6" d="M140 400v112"/><path fill="#0082C5" d="M448 400H336v112h144l-32-112Z"/><path stroke="#A7DAFF" stroke-width="6" d="M372 400v112"/></g><g beard='9'><rect x="236" y="322" width="40" height="24" fill="#121212"/><rect x="166" y="242" width="12" height="104" fill="#121212"/><rect x="334" y="242" width="12" height="104" fill="#121212"/><path d="M166 286H207V346H166V286Z" fill="#121212"/><path d="M346 286H305V346H346V286Z" fill="#121212"/></g><g face='8'><path d="M230.711 302H280" stroke="#121212" stroke-width="6"/><rect width="20" height="20" x="212" y="194" fill="#121212" rx="10"><animate attributeName="rx" begin="1s" dur="2s" keyTimes="0;0.25;0.3;0.35;1" repeatCount="indefinite" values="10;10;1;10;10"/><animate attributeName="height" begin="1s" dur="2s" keyTimes="0;0.25;0.3;0.35;1" repeatCount="indefinite" values="20;20;2;20;20"/><animate attributeName="y" begin="1s" dur="2s" keyTimes="0;0.25;0.3;0.35;1" repeatCount="indefinite" values="194;194;203;194;194"/></rect><rect width="20" height="20" x="280" y="194" fill="#121212" rx="10"><animate attributeName="rx" begin="1s" dur="2s" keyTimes="0;0.25;0.3;0.35;1" repeatCount="indefinite" values="10;10;1;10;10"/><animate attributeName="height" begin="1s" dur="2s" keyTimes="0;0.25;0.3;0.35;1" repeatCount="indefinite" values="20;20;2;20;20"/><animate attributeName="y" begin="1s" dur="2s" keyTimes="0;0.25;0.3;0.35;1" repeatCount="indefinite" values="194;194;203;194;194"/></rect><path d="M206 162H238" stroke="#121212" stroke-width="6"/><path d="M274 162H306" stroke="#121212" stroke-width="6"/><path d="M256 218L266 258H246" stroke="#121212" stroke-width="6"/></g><g glass='15'><path fill="#121212" d="m235 250 21-16 21 16h69v-72H166v72h69Z"/><circle cx="176" cy="190" r="4" fill="#0047FF"/><circle cx="176" cy="206" r="4" fill="#0047FF"/><circle cx="176" cy="222" r="4" fill="#0047FF"/><circle cx="176" cy="238" r="4" fill="#0047FF"/><circle cx="192" cy="190" r="4" fill="#79CBDC"/><circle cx="192" cy="206" r="4" fill="#79CBDC"/><circle cx="192" cy="222" r="4" fill="#79CBDC"/><circle cx="192" cy="238" r="4" fill="#79CBDC"/><circle cx="208" cy="190" r="4" fill="#79CBDC"/><circle cx="208" cy="206" r="4" fill="#0047FF"/><circle cx="208" cy="222" r="4" fill="#79CBDC"/><circle cx="208" cy="238" r="4" fill="#79CBDC"/><circle cx="224" cy="190" r="4" fill="#79CBDC"/><circle cx="224" cy="206" r="4" fill="#0047FF"/><circle cx="224" cy="222" r="4" fill="#79CBDC"/><circle cx="224" cy="238" r="4" fill="#79CBDC"/><circle cx="240" cy="190" r="4" fill="#0047FF"/><circle cx="240" cy="206" r="4" fill="#0047FF"/><circle cx="240" cy="222" r="4" fill="#0047FF"/><circle cx="240" cy="238" r="4" fill="#0047FF"/><circle cx="256" cy="190" r="4" fill="#0047FF"/><circle cx="256" cy="206" r="4" fill="#0047FF"/><circle cx="256" cy="222" r="4" fill="#0047FF"/><circle cx="272" cy="190" r="4" fill="#0047FF"/><circle cx="272" cy="206" r="4" fill="#0047FF"/><circle cx="272" cy="222" r="4" fill="#0047FF"/><circle cx="272" cy="238" r="4" fill="#0047FF"/><circle cx="288" cy="190" r="4" fill="#79CBDC"/><circle cx="288" cy="206" r="4" fill="#79CBDC"/><circle cx="288" cy="222" r="4" fill="#0047FF"/><circle cx="288" cy="238" r="4" fill="#79CBDC"/><circle cx="304" cy="190" r="4" fill="#79CBDC"/><circle cx="304" cy="206" r="4" fill="#79CBDC"/><circle cx="304" cy="222" r="4" fill="#0047FF"/><circle cx="304" cy="238" r="4" fill="#79CBDC"/><circle cx="320" cy="190" r="4" fill="#79CBDC"/><circle cx="320" cy="206" r="4" fill="#79CBDC"/><circle cx="320" cy="222" r="4" fill="#79CBDC"/><circle cx="320" cy="238" r="4" fill="#79CBDC"/><circle cx="336" cy="190" r="4" fill="#0047FF"/><circle cx="336" cy="206" r="4" fill="#0047FF"/><circle cx="336" cy="222" r="4" fill="#0047FF"/><circle cx="336" cy="238" r="4" fill="#0047FF"/></g></svg>