<svg xmlns="http://www.w3.org/2000/svg" width="512" height="512" fill="none"><rect width="512" height="512" fill="#FFD600 "/><g skin='11'><path fill="#D5A300" d="M134 178h32v64h-20l-12-64ZM378 178h-32v64h20l12-64ZM207 346h98v54h-98z"/><path fill="#E3B41A" d="M64 400h384l32 112H32l32-112ZM166 106h180v240H166z"/></g><g hair='65'><path fill="#D22D27" d="M166 154h180v-48H166z"/><path fill="#FF9490" d="m293 118 7.629 24h4.228l-7.565-24H293Zm36.078 0-8.01 24h4.292l7.947-24h-4.229Zm-22.425 12.652h6.2l-6.74 8.487V142h13.478v-4.101h-6.573l6.796-8.487v-2.861h-13.161v4.101ZM166 166h180v-12H166z"/><path fill="#D22D27" d="M135.5 159.5 166 106h102.5L180 187l-44.5-27.5Z"/></g><g dress='48'><path fill="#00A8FF" d="M207 372h98v28h-98zM64 400h384l32 112H32l32-112Z"/><path fill="#0082C5" d="M96 463h80v16H96zM356 452l7.629 24h4.228l-7.565-24H356Zm36.078 0-8.01 24h4.292l7.947-24h-4.229Zm-22.425 12.652h6.2l-6.74 8.487V476h13.478v-4.101h-6.573l6.796-8.487v-2.861h-13.161v4.101Z"/><circle cx="274" cy="438" r="6" fill="#fff"/><circle cx="274" cy="478" r="6" fill="#fff"/><path stroke="#0082C5" stroke-width="6" d="M207 397h49m49 0h-49m0 0v115"/><path fill="#0082C5" d="M96 400h80v32H96zM336 400h80v32h-80z"/><circle cx="354" cy="416" r="6" fill="#fff"/><circle cx="158" cy="416" r="6" fill="#fff"/><path fill="#fff" d="M234 380h12v8h-12zM266 380h12v8h-12z"/><path fill="#0082C5" d="M336 484h20v16h-20z"/><path fill="#008ED8" d="M356 484h20v16h-20z"/><path fill="#3ABCFF" d="M376 484h20v16h-20z"/><path fill="#87D6FF" d="M396 484h20v16h-20z"/></g><g beard='6'><rect x="207" y="346" width="98" height="54" fill="#E24713"/><path fill-rule="evenodd" clip-rule="evenodd" d="M346 266H166V400H256.5H346V266ZM297 281H215V323H297V281Z" fill="#121212"/></g><g face='28'><rect width="20" height="20" x="212" y="194" fill="#121212" rx="10"><animate attributeName="rx" begin="1s" dur="2s" keyTimes="0;0.25;0.3;0.35;1" repeatCount="indefinite" values="10;10;1;10;10"/><animate attributeName="height" begin="1s" dur="2s" keyTimes="0;0.25;0.3;0.35;1" repeatCount="indefinite" values="20;20;2;20;20"/><animate attributeName="y" begin="1s" dur="2s" keyTimes="0;0.25;0.3;0.35;1" repeatCount="indefinite" values="194;194;203;194;194"/></rect><rect width="20" height="20" x="280" y="194" fill="#121212" rx="10"><animate attributeName="rx" begin="1s" dur="2s" keyTimes="0;0.25;0.3;0.35;1" repeatCount="indefinite" values="10;10;1;10;10"/><animate attributeName="height" begin="1s" dur="2s" keyTimes="0;0.25;0.3;0.35;1" repeatCount="indefinite" values="20;20;2;20;20"/><animate attributeName="y" begin="1s" dur="2s" keyTimes="0;0.25;0.3;0.35;1" repeatCount="indefinite" values="194;194;203;194;194"/></rect><path d="M206 197H238" stroke="#121212" stroke-width="6"/><path d="M274 197H306" stroke="#121212" stroke-width="6"/><path d="M256 218L266 258H246" stroke="#121212" stroke-width="6"/><path d="M216 284H296L292 301L288 317H224L220 301L216 284Z" fill="white"/><path d="M220 301L224 317H288L292 301M220 301L216 284H296L292 301M220 301H292" stroke="#121212" stroke-width="6"/><rect width="24" height="48" transform="matrix(0 -1 -1 0 185 313)" fill="#2D2D2D"/><path d="M199.785 325H187.83V301M199.785 277H187.83V301M187.83 301H275" stroke="#2D2D2D" stroke-width="6"/><path d="M134 317V301V285" stroke="#2D2D2D" stroke-width="6"/></g><g glass='11'><path fill="#121212" d="M182 175h64v20l-12 36h-52v-56Z"/><path stroke="#FFB74A" stroke-width="6" d="M182 175h64v20l-12 36h-52v-56Zm0 0h-16M247 175h19M247 193h19"/><path fill="#121212" d="M266 175h64v56h-52l-12-35.5V175Z"/><path stroke="#FFB74A" stroke-width="6" d="M330 175h-64v20.5l12 35.5h52v-56Zm0 0h16"/></g></svg>