<svg xmlns="http://www.w3.org/2000/svg" width="512" height="512" fill="none"><rect width="512" height="512" fill="#7000FF "/><g skin='11'><path fill="#D5A300" d="M134 178h32v64h-20l-12-64ZM378 178h-32v64h20l12-64ZM207 346h98v54h-98z"/><path fill="#E3B41A" d="M64 400h384l32 112H32l32-112ZM166 106h180v240H166z"/></g><g hair='19'><path fill="#00A8FF" d="M346 162v-56L140 55l26 51v56h180Z"/></g><g dress='35'><g clip-path="url(#a)"><path fill="#D22D27" d="M64 400h143l50 39 48-39h143l32 112H32l32-112Z"/><circle cx="169.971" cy="454.941" r="12" fill="#F90" transform="rotate(-45 169.971 454.941)"/><circle cx="186.941" cy="437.971" r="12" fill="#F90" transform="rotate(-45 186.941 437.971)"/><circle cx="203.912" cy="454.941" r="12" fill="#F90" transform="rotate(-45 203.912 454.941)"/><circle cx="186.941" cy="471.912" r="12" fill="#F90" transform="rotate(-45 186.941 471.912)"/><circle cx="186.941" cy="454.941" r="12" fill="#FFD600" transform="rotate(-45 186.941 454.941)"/><circle cx="393.62" cy="430.828" r="12" fill="#F90" transform="rotate(-20 393.62 430.828)"/><circle cx="416.173" cy="422.62" r="12" fill="#F90" transform="rotate(-20 416.173 422.62)"/><circle cx="424.381" cy="445.172" r="12" fill="#F90" transform="rotate(-20 424.381 445.172)"/><circle cx="401.828" cy="453.381" r="12" fill="#F90" transform="rotate(-20 401.828 453.381)"/><circle cx="409.001" cy="438" r="12" fill="#FFD600" transform="rotate(-20 409.001 438)"/><circle cx="82.381" cy="430.588" r="12" fill="#F90" transform="rotate(-20 82.38 430.588)"/><circle cx="104.933" cy="422.38" r="12" fill="#F90" transform="rotate(-20 104.933 422.38)"/><circle cx="113.141" cy="444.932" r="12" fill="#F90" transform="rotate(-20 113.141 444.932)"/><circle cx="90.589" cy="453.141" r="12" fill="#F90" transform="rotate(-20 90.589 453.141)"/><circle cx="97.761" cy="437.76" r="12" fill="#FFD600" transform="rotate(-20 97.761 437.76)"/><circle cx="110.381" cy="500.588" r="12" fill="#F90" transform="rotate(-20 110.381 500.588)"/><circle cx="132.933" cy="492.38" r="12" fill="#F90" transform="rotate(-20 132.933 492.38)"/><circle cx="141.141" cy="514.932" r="12" fill="#F90" transform="rotate(-20 141.141 514.932)"/><circle cx="118.589" cy="523.141" r="12" fill="#F90" transform="rotate(-20 118.589 523.141)"/><circle cx="125.761" cy="507.76" r="12" fill="#FFD600" transform="rotate(-20 125.761 507.76)"/><circle cx="244.381" cy="496.588" r="12" fill="#F90" transform="rotate(-20 244.381 496.588)"/><circle cx="266.933" cy="488.38" r="12" fill="#F90" transform="rotate(-20 266.933 488.38)"/><circle cx="275.141" cy="510.932" r="12" fill="#F90" transform="rotate(-20 275.141 510.932)"/><circle cx="252.589" cy="519.141" r="12" fill="#F90" transform="rotate(-20 252.589 519.141)"/><circle cx="259.761" cy="503.76" r="12" fill="#FFD600" transform="rotate(-20 259.761 503.76)"/><circle cx="316.971" cy="465.941" r="12" fill="#F90" transform="rotate(-45 316.971 465.941)"/><circle cx="333.941" cy="448.971" r="12" fill="#F90" transform="rotate(-45 333.941 448.971)"/><circle cx="350.912" cy="465.941" r="12" fill="#F90" transform="rotate(-45 350.912 465.941)"/><circle cx="333.941" cy="482.912" r="12" fill="#F90" transform="rotate(-45 333.941 482.912)"/><circle cx="333.941" cy="465.941" r="12" fill="#FFD600" transform="rotate(-45 333.941 465.941)"/><circle cx="406.971" cy="509.941" r="12" fill="#F90" transform="rotate(-45 406.971 509.941)"/><circle cx="423.941" cy="492.971" r="12" fill="#F90" transform="rotate(-45 423.941 492.971)"/><circle cx="440.912" cy="509.941" r="12" fill="#F90" transform="rotate(-45 440.912 509.941)"/><circle cx="423.941" cy="526.912" r="12" fill="#F90" transform="rotate(-45 423.941 526.912)"/><circle cx="423.941" cy="509.941" r="12" fill="#FFD600" transform="rotate(-45 423.941 509.941)"/><path fill="#FF9490" d="m257 439-41.5 27.5-36-66.5 27.5-20 50 59ZM257 439l41.5 27.5 36-66.5-29.5-20-48 59Z"/></g><defs><clipPath id="a"><path fill="#fff" d="M0 0h512v512H0z"/></clipPath></defs></g><g beard='7'><rect x="204" y="286" width="12" height="60" fill="#121212"/><rect x="296" y="286" width="12" height="60" fill="#121212"/><rect x="250" y="322" width="12" height="24" fill="#121212"/><rect x="204" y="274" width="104" height="12" fill="#121212"/><rect x="196" y="334" width="120" height="12" fill="#121212"/><path d="M166 258L196 274V346H166V258Z" fill="#121212"/><path d="M346 258L316 274V346H346V258Z" fill="#121212"/></g><g face='8'><path d="M230.711 302H280" stroke="#121212" stroke-width="6"/><rect width="20" height="20" x="212" y="194" fill="#121212" rx="10"><animate attributeName="rx" begin="1s" dur="2s" keyTimes="0;0.25;0.3;0.35;1" repeatCount="indefinite" values="10;10;1;10;10"/><animate attributeName="height" begin="1s" dur="2s" keyTimes="0;0.25;0.3;0.35;1" repeatCount="indefinite" values="20;20;2;20;20"/><animate attributeName="y" begin="1s" dur="2s" keyTimes="0;0.25;0.3;0.35;1" repeatCount="indefinite" values="194;194;203;194;194"/></rect><rect width="20" height="20" x="280" y="194" fill="#121212" rx="10"><animate attributeName="rx" begin="1s" dur="2s" keyTimes="0;0.25;0.3;0.35;1" repeatCount="indefinite" values="10;10;1;10;10"/><animate attributeName="height" begin="1s" dur="2s" keyTimes="0;0.25;0.3;0.35;1" repeatCount="indefinite" values="20;20;2;20;20"/><animate attributeName="y" begin="1s" dur="2s" keyTimes="0;0.25;0.3;0.35;1" repeatCount="indefinite" values="194;194;203;194;194"/></rect><path d="M206 162H238" stroke="#121212" stroke-width="6"/><path d="M274 162H306" stroke="#121212" stroke-width="6"/><path d="M256 218L266 258H246" stroke="#121212" stroke-width="6"/></g><g glass='14'><mask id="a" fill="#fff"><path d="m256 230-21 16h-69v-68h180v68h-69l-21-16Z"/></mask><path fill="#0047FF" d="M166 198h180v-6H166v6Zm0 15.5h180v-6H166v6Zm0 15.5h180v-6H166v6Zm90 1 3.636-4.773a6 6 0 0 0-7.272 0L256 230Zm-21 16v6h2.025l1.611-1.227L235 246Zm-69 0h-6v6h6v-6Zm180 0v6h6v-6h-6Zm-69 0-3.636 4.773 1.611 1.227H277v-6Zm-111-68v-6h-6v6h6Zm180 0h6v-6h-6v6Zm-93.636 47.227-21 16 7.272 9.546 21-16-7.272-9.546ZM235 240h-69v12h69v-12Zm111 0h-69v12h69v-12Zm-65.364 1.227-21-16-7.272 9.546 21 16 7.272-9.546ZM172 195v-17h-12v17h12Zm168-17v17h12v-17h-12Zm-168 32.5V195h-12v15.5h12ZM340 195v15.5h12V195h-12Zm-168 51v-20h-12v20h12Zm0-20v-15.5h-12V226h12Zm168-15.5V226h12v-15.5h-12Zm0 15.5v20h12v-20h-12Zm-174-42h180v-12H166v12Z" mask="url(#a)"/></g></svg>