<svg xmlns="http://www.w3.org/2000/svg" width="512" height="512" fill="none"><rect width="512" height="512" fill="#0047FF "/><g skin='3'><path fill="#E24713" d="M134 178h32v64h-20l-12-64ZM378 178h-32v64h20l12-64Z"/><path fill="#C9C9C9" d="M207 346h98v9h-98z"/><path fill="#D9D9D9" d="M207 355h98v9h-98z"/><path fill="#C9C9C9" d="M207 364h98v9h-98z"/><path fill="#D9D9D9" d="M207 373h98v9h-98z"/><path fill="#C9C9C9" d="M207 382h98v9h-98z"/><path fill="#D9D9D9" d="M207 391h98v9h-98z"/><path fill="#F15824" d="M64 400h384l32 112H32l32-112Z"/><path fill="#D9D9D9" d="M64 400h56v88H76v24H32l32-112Z"/><path fill="#F15824" d="M166 106h180v240H166z"/><path fill="#D9D9D9" d="M264 146h82v200h-16.5V244.5L264 226v-80ZM166 106h40v44h-40v-44ZM234 322h44v24h-44z"/><circle cx="148" cy="436" r="12" fill="#D9D9D9"/><circle cx="332" cy="160" r="6" fill="#C9C9C9"/><circle cx="332" cy="180" r="6" fill="#C9C9C9"/><circle cx="92" cy="436" r="12" fill="#C9C9C9"/></g><g hair='52'><circle cx="253" cy="82" r="37" fill="#121212"/><circle cx="229" cy="119" r="37" fill="#121212"/><circle cx="280" cy="119" r="37" fill="#121212"/><circle cx="189" cy="97" r="37" fill="#121212"/><circle cx="166" cy="141" r="37" fill="#121212"/><circle cx="346" cy="141" r="37" fill="#121212"/><circle cx="321" cy="97" r="37" fill="#121212"/></g><g dress='6'><path fill="#F15824" d="M64 400h384l32 112H32l32-112Z"/><path fill="#121212" fill-rule="evenodd" d="M116 69h280v331H116V69Zm91 294v-17h-41V179l88.5-33.5L346 179v167h-41v18l-49 15.5-49-16.5Z" clip-rule="evenodd"/><path fill="#121212" d="M64 400h384l32 112H32l32-112Z"/><path fill="#2D2D2D" d="m326 456 7.629 24h4.228l-7.565-24H326Zm36.078 0-8.01 24h4.292l7.947-24h-4.229Zm-22.425 12.652h6.2l-6.74 8.487V480h13.478v-4.101h-6.573l6.796-8.487v-2.861h-13.161v4.101Z"/><path stroke="#5B6062" stroke-width="6" d="M227 400v31M285 400v56"/><path fill="#5B6062" d="m270.857 466 14.142-14.142L299.141 466 285 480.142zM212.857 438l14.142-14.142L241.141 438 227 452.142z"/></g><g beard='7'><rect x="204" y="286" width="12" height="60" fill="#121212"/><rect x="296" y="286" width="12" height="60" fill="#121212"/><rect x="250" y="322" width="12" height="24" fill="#121212"/><rect x="204" y="274" width="104" height="12" fill="#121212"/><rect x="196" y="334" width="120" height="12" fill="#121212"/><path d="M166 258L196 274V346H166V258Z" fill="#121212"/><path d="M346 258L316 274V346H346V258Z" fill="#121212"/></g><g face='9'><path d="M246 289.391C246 289.391 258.823 284.011 262 289.391C265.153 294.732 254.5 303.391 254.5 303.391C254.5 303.391 267.632 299.309 270.5 304.891C273.719 311.156 258 317.891 258 317.891" stroke="#121212" stroke-width="6"/><rect width="20" height="20" x="212" y="194" fill="#121212" rx="10"><animate attributeName="rx" begin="1s" dur="2s" keyTimes="0;0.25;0.3;0.35;1" repeatCount="indefinite" values="10;10;1;10;10"/><animate attributeName="height" begin="1s" dur="2s" keyTimes="0;0.25;0.3;0.35;1" repeatCount="indefinite" values="20;20;2;20;20"/><animate attributeName="y" begin="1s" dur="2s" keyTimes="0;0.25;0.3;0.35;1" repeatCount="indefinite" values="194;194;203;194;194"/></rect><rect width="20" height="20" x="280" y="194" fill="#121212" rx="10"><animate attributeName="rx" begin="1s" dur="2s" keyTimes="0;0.25;0.3;0.35;1" repeatCount="indefinite" values="10;10;1;10;10"/><animate attributeName="height" begin="1s" dur="2s" keyTimes="0;0.25;0.3;0.35;1" repeatCount="indefinite" values="20;20;2;20;20"/><animate attributeName="y" begin="1s" dur="2s" keyTimes="0;0.25;0.3;0.35;1" repeatCount="indefinite" values="194;194;203;194;194"/></rect><path d="M206 162H238" stroke="#121212" stroke-width="6"/><path d="M274 162H306" stroke="#121212" stroke-width="6"/><path d="M256 218L266 258H246" stroke="#121212" stroke-width="6"/></g><g glass='10'><path fill="#121212" d="M166 178h180v52l-69 4-21-16-21 16-69-4v-52Z"/><path fill="#D22D27" d="M182 194h148v20H182z"/></g></svg>