<svg xmlns="http://www.w3.org/2000/svg" width="512" height="512" fill="none"><rect width="512" height="512" fill="#7000FF "/><g skin='10'><path fill="#56C499" d="M134 178h32v64h-20l-12-64ZM378 178h-32v64h20l12-64Z"/><path fill="#82DCB9" d="M64 400h384l32 112H32l32-112Z"/><path fill="#D22D27" d="M87.5 427.5V400h68l-41 27.5h-27Z"/><path fill="#56C499" d="M207 346h98v54h-98z"/><path fill="#82DCB9" d="m207 377 98-12v4l-98 12v-4Z"/><path fill="#FF00B1" d="M190 118.5s-10.505-3.476-16.5 2.948c-5.596 5.995 0 18.552 0 18.552s-5.89 3.714-7 9c-2.205 10.5 4.499 15.5 4.499 15.5v8.5H192.5l35.5-63h-8s-5.5-3.667-16-2.5c-8.999 1-14 11-14 11Z"/><path fill="#82DCB9" d="M346 346V106H223l-16.5 20v16H188v15l-22 9v180h180Z"/><path fill="#D22D27" d="m294 136.5 52 12v9.5l-52-21.5Z"/><path fill="#fff" d="m313.762 134 3.625 1.69-6.762 14.501-3.625-1.69zM223 369.349l3.985-.349 1.394 15.94-3.985.348zM253 365.349l3.985-.349 1.394 15.94-3.985.348zM283 361.349l3.985-.349 1.394 15.94-3.985.348zM331.141 141l3.864 1.035-4.141 15.455-3.864-1.035zM147.129 383.208 124.576 375l-1.368 3.758 22.553 8.209zM136.364 383.547l-3.759-1.368-8.208 22.553 3.759 1.368zM115 385H91v4h24zM105 389h-4v24h4z"/></g><g hair='42'><path fill="#42B16C" d="M238 14h36v100h-36z"/><path stroke="#94EDB6" stroke-width="6" d="M256 88v48"/><path fill="#42B16C" d="m309.186 14 35.453 6.251-17.365 98.481-35.453-6.251z"/><path stroke="#94EDB6" stroke-width="6" d="m314.062 90.001-8.335 47.271"/><path fill="#42B16C" d="m362 76 31.177 18-50 86.603-31.177-18z"/><path stroke="#94EDB6" stroke-width="6" d="m340.588 149.086-24 41.569"/><path fill="#42B16C" d="m151 76-31.177 18 50 86.603 31.177-18z"/><path stroke="#94EDB6" stroke-width="6" d="m172.412 149.086 24 41.569"/><path fill="#42B16C" d="M202.453 14 167 20.251l17.365 98.481 35.453-6.251z"/><path stroke="#94EDB6" stroke-width="6" d="m197.576 90.001 8.335 47.271"/><path fill="#D22D27" d="M166 162h180v-40H166z"/><path fill="#FFB74A" d="m167 141.971 16.97-16.97 16.971 16.97-16.97 16.97zM203 141.971l16.97-16.97 16.971 16.97-16.97 16.97zM239 141.971l16.97-16.97 16.971 16.97-16.97 16.97zM275 141.971l16.97-16.97 16.971 16.97-16.97 16.97zM311 141.971l16.97-16.97 16.971 16.97-16.97 16.97z"/></g><g dress='42'><path fill="#121212" d="M64 400h124s2 52 68 52 68-52 68-52h124l32 112H32l32-112Z"/><path fill="#fff" d="M256 452c-66 0-68-52-68-52h-21.5s6 73.5 89.5 73.5 89.5-73.5 89.5-73.5H324s-2 52-68 52Z"/></g><g beard='6'><rect x="207" y="346" width="98" height="54" fill="#E24713"/><path fill-rule="evenodd" clip-rule="evenodd" d="M346 266H166V400H256.5H346V266ZM297 281H215V323H297V281Z" fill="#121212"/></g><g face='26'><path d="M206 162H238" stroke="#121212" stroke-width="6"/><path d="M206 202C206 202 212 194 222 194C232 194 238 202 238 202" stroke="#121212" stroke-width="6"/><path d="M274 202C274 202 280 194 290 194C300 194 306 202 306 202" stroke="#121212" stroke-width="6"/><path d="M274 162H306" stroke="#121212" stroke-width="6"/><path d="M230.711 302H280" stroke="#121212" stroke-width="6"/><path d="M256 218L266 258H246" stroke="#121212" stroke-width="6"/><path d="M376 302C376 331.271 352.271 355 323 355C293.729 355 271.5 309 256 302C272 295 293.729 249 323 249C352.271 249 376 272.729 376 302Z" fill="#FF008A" stroke="#121212" stroke-width="6"/></g><g glass='17'><rect width="74" height="74" x="176" y="162" fill="#fff" rx="37"/><path fill="#fff" d="M166 162h49v16h-49zM242 178h28v20h-28zM346 162h-49v16h49z"/><rect width="56" height="56" x="190" y="171" fill="#D22D27" rx="28"/><rect width="74" height="74" x="262" y="162" fill="#fff" rx="37"/><rect width="56" height="56" x="266" y="171" fill="#D22D27" rx="28"/></g></svg>