<svg xmlns="http://www.w3.org/2000/svg" width="512" height="512" fill="none"><rect width="512" height="512" fill="#186450 "/><g skin='12'><path fill="#80573E" d="M134 178h32v64h-20l-12-64ZM378 178h-32v64h20l12-64ZM207 346h98v54h-98z"/><path fill="#8B634A" d="M64 400h384l32 112H32l32-112Z"/><path fill="#AE7B5C" d="M136 456h240v56H136z"/><path fill="#8B634A" d="M166 106h180v240H166z"/><path fill="#AE7B5C" d="M207 242h98v104h-98zM182 178h148v64H182z"/></g><g hair='71'><path fill="#42B16C" d="M181.729 133.565a8.382 8.382 0 0 1-14.71-8.038c2.22-4.062 15.84-11.508 15.84-11.508s1.09 15.484-1.13 19.546ZM216.729 120.565a8.382 8.382 0 0 1-14.71-8.038c2.22-4.062 15.84-11.508 15.84-11.508s1.09 15.484-1.13 19.546ZM229.716 144.65a7.93 7.93 0 0 1-2.495-10.935 7.93 7.93 0 0 1 10.935-2.495c3.708 2.331 9.956 15.624 9.956 15.624s-14.688.137-18.396-2.194ZM192.716 158.65a7.93 7.93 0 0 1-2.495-10.935 7.93 7.93 0 0 1 10.935-2.495c3.708 2.331 9.956 15.624 9.956 15.624s-14.688.137-18.396-2.194ZM164.716 169.65a7.93 7.93 0 0 1-2.495-10.935 7.93 7.93 0 0 1 10.935-2.495c3.708 2.331 9.956 15.624 9.956 15.624s-14.688.137-18.396-2.194Z"/><path stroke="#94EDB6" stroke-width="6" d="m154.5 152 32-12 16-6 16-6 16-6"/><path fill="#42B16C" d="M334.603 133.565a8.382 8.382 0 0 0 14.71-8.038c-2.22-4.062-15.84-11.508-15.84-11.508s-1.09 15.484 1.13 19.546ZM299.603 120.565a8.382 8.382 0 0 0 14.71-8.038c-2.22-4.062-15.84-11.508-15.84-11.508s-1.09 15.484 1.13 19.546ZM286.617 144.65a7.93 7.93 0 0 0 2.494-10.935 7.93 7.93 0 0 0-10.935-2.495c-3.708 2.331-9.956 15.624-9.956 15.624s14.688.137 18.397-2.194ZM323.617 158.65a7.93 7.93 0 0 0 2.494-10.935 7.93 7.93 0 0 0-10.935-2.495c-3.708 2.331-9.956 15.624-9.956 15.624s14.688.137 18.397-2.194ZM351.617 169.65a7.93 7.93 0 0 0 2.494-10.935 7.93 7.93 0 0 0-10.935-2.495c-3.708 2.331-9.956 15.624-9.956 15.624s14.688.137 18.397-2.194Z"/><path stroke="#94EDB6" stroke-width="6" d="m361.832 152-32-12-16-6-16-6-16-6"/></g><g dress='79'><path fill="#121212" d="M207 372h98v28h-98zM64 400h384l32 112H32l32-112Z"/><path fill="#fff" d="m470.001 477-9-31.5s-15.928 6-11.001 22c4.003 13 20.001 9.5 20.001 9.5Z"/><path fill="#D33600" d="M96 456h111v56H96zM305 456h111v56H305z"/><path stroke="#fff" stroke-width="6" d="M256 372v140"/><path fill="#77492D" d="m432.43 450.736 11.413-3.708 12.36 38.042-11.412 3.708z"/></g><g beard='5'><rect x="166" y="242" width="12" height="104" fill="#121212"/><rect x="334" y="242" width="12" height="104" fill="#121212"/><path d="M178 334H217L256 322L295 334H334V346H178V334Z" fill="#121212"/></g><g face='7'><path d="M231.114 302H280.403L292 290" stroke="#121212" stroke-width="6"/><rect width="20" height="20" x="212" y="194" fill="#121212" rx="10"><animate attributeName="rx" begin="1s" dur="2s" keyTimes="0;0.25;0.3;0.35;1" repeatCount="indefinite" values="10;10;1;10;10"/><animate attributeName="height" begin="1s" dur="2s" keyTimes="0;0.25;0.3;0.35;1" repeatCount="indefinite" values="20;20;2;20;20"/><animate attributeName="y" begin="1s" dur="2s" keyTimes="0;0.25;0.3;0.35;1" repeatCount="indefinite" values="194;194;203;194;194"/></rect><rect width="20" height="20" x="280" y="194" fill="#121212" rx="10"><animate attributeName="rx" begin="1s" dur="2s" keyTimes="0;0.25;0.3;0.35;1" repeatCount="indefinite" values="10;10;1;10;10"/><animate attributeName="height" begin="1s" dur="2s" keyTimes="0;0.25;0.3;0.35;1" repeatCount="indefinite" values="20;20;2;20;20"/><animate attributeName="y" begin="1s" dur="2s" keyTimes="0;0.25;0.3;0.35;1" repeatCount="indefinite" values="194;194;203;194;194"/></rect><path d="M206 162H238" stroke="#121212" stroke-width="6"/><path d="M274 162H306" stroke="#121212" stroke-width="6"/><path d="M256 218L266 258H246" stroke="#121212" stroke-width="6"/></g><g glass='10'><path fill="#121212" d="M166 178h180v52l-69 4-21-16-21 16-69-4v-52Z"/><path fill="#D22D27" d="M182 194h148v20H182z"/></g></svg>