<svg xmlns="http://www.w3.org/2000/svg" width="512" height="512" fill="none"><rect width="512" height="512" fill="#FFD600 "/><g skin='4'><path fill="#E24713" d="M134 178h32v64h-20l-12-64ZM378 178h-32v64h20l12-64ZM207 346h98v54h-98z"/><path fill="#F15824" d="M64 400h384l32 112H32l32-112ZM166 106h180v240H166z"/><path fill="#FF845A" d="m236 143 7.629 24h4.228l-7.565-24H236Zm36.078 0-8.01 24h4.292l7.947-24h-4.229Zm-22.425 12.652h6.2l-6.74 8.487V167h13.478v-4.101h-6.573l6.796-8.487v-2.861h-13.161v4.101Z"/><path stroke="#FF845A" stroke-width="6" d="M346 126h-21v43h-23v177M244 109h24v15l-12 13-12-13v-15ZM166 126h21v43h23v177"/><path fill="#FF845A" d="M299 134h6v6h-6zM293 140h6v6h-6zM305 140h6v6h-6zM299 146h6v6h-6zM321 276h6v6h-6zM315 282h6v6h-6zM327 282h6v6h-6zM321 288h6v6h-6zM185 276h6v6h-6zM179 282h6v6h-6zM191 282h6v6h-6zM185 288h6v6h-6zM321 242h6v6h-6zM315 248h6v6h-6zM327 248h6v6h-6zM321 254h6v6h-6zM185 242h6v6h-6zM179 248h6v6h-6zM191 248h6v6h-6zM185 254h6v6h-6zM253 416h6v6h-6zM247 422h6v6h-6zM259 422h6v6h-6zM253 428h6v6h-6zM66 478h6v6h-6zM60 484h6v6h-6zM72 484h6v6h-6zM66 490h6v6h-6zM199 416h6v6h-6zM193 422h6v6h-6zM205 422h6v6h-6zM199 428h6v6h-6zM199 447h6v6h-6zM193 453h6v6h-6zM205 453h6v6h-6zM199 459h6v6h-6zM308 416h6v6h-6zM302 422h6v6h-6zM314 422h6v6h-6zM308 428h6v6h-6zM308 447h6v6h-6zM302 453h6v6h-6zM314 453h6v6h-6zM308 459h6v6h-6zM440 478h6v6h-6zM434 484h6v6h-6zM446 484h6v6h-6zM440 490h6v6h-6zM308 478h6v6h-6zM302 484h6v6h-6zM314 484h106v6.057H314zM308 490h6v6h-6zM199 478h6v6h-6zM92 484h107v6H92zM205 484h6v6h-6zM199 490h6v6h-6zM321 310h6v6h-6zM315 316h6v6h-6zM327 316h6v6h-6zM321 322h6v24h-6zM185 310h6v6h-6zM179 316h6v6h-6zM191 316h6v6h-6zM185 322h6v24h-6zM207 134h6v6h-6zM201 140h6v6h-6zM213 140h6v6h-6zM207 146h6v6h-6z"/><path stroke="#FF845A" stroke-width="6" d="M235 373v-10h15v-17m-15 27v11h12v-11h-12ZM277 374v10h-15v16m15-26v-11h-12v11h12ZM384 428l10-4 6 5 6-5 10 4v10l-16 14-16-14v-10ZM250 452v44M258 452v4M258 492v4M270 462v9M270 477v9M243 459h24M250 474h17M243 489h24"/><path fill="#FF845A" d="M124 431h6v6h-6zM118 437h6v6h-6zM104 437h6v6h-6zM130 437h6v6h-6zM124 443h6v6h-6z"/><path stroke="#FF845A" stroke-width="6" d="M96 424h48v32H96z"/></g><g hair='5'><path fill="#121212" d="M165.999 106v240h-61c-30-46 24-67.75 24-67.75s-24-6.75-24-33.875 24-33.875 24-33.875-24-10-24-33.875 24-33.875 24-33.875-11.691-39.25 8.501-58.25 55.249-9.5 55.249-9.5 8.75-40 63.75-40 63.75 40 63.75 40S357.5 66.215 377 84.5s7.249 58.25 7.249 58.25 24.22 3.75 24.5 33.875c.25 26.875-24 33.875-24 33.875s24.5 7.25 24.25 33.875-24.25 33.875-24.25 33.875S441 299 408.999 346h-63V106h-180Z"/><ellipse cx="174.5" cy="124.5" fill="#121212" rx="37.5" ry="33.5"/><ellipse cx="256" cy="106" fill="#121212" rx="61" ry="45"/><ellipse cx="335" cy="124.5" fill="#121212" rx="40" ry="33.5"/><path fill="#fff" d="M115 155h51v95h-51zM346 155h51v95h-51zM166 106v49h-28V77h236v78h-28v-49H166Z"/></g><g dress='82'><g clip-path="url(#a)"><path fill="#001D55" d="M207 346h98v54h-98zM64 400h384l32 112H32l32-112Z"/><path fill="#1B9B4B" d="M88 432h336v80H88v-80Z"/><path fill="#42B16C" d="M88 400h119v67H88v-67ZM127 491h80v67h-80v-67ZM305 491h80v67h-80v-67ZM424 400H305v67h119v-67Z"/><circle cx="148" cy="449" r="6" fill="#fff"/><circle cx="6" cy="6" r="6" fill="#fff" transform="matrix(-1 0 0 1 370 443)"/><path fill="#D22D27" d="m470.001 477-9-31.5s-15.928 6-11.001 22c4.003 13 20.001 9.5 20.001 9.5Z"/><path fill="#42B16C" d="M166 370h41v30h-41zM346 370h-41v30h41z"/><path stroke="#fff" stroke-width="6" d="M256 432v80"/></g><defs><clipPath id="a"><path fill="#fff" d="M0 0h512v512H0z"/></clipPath></defs></g><g beard='5'><rect x="166" y="242" width="12" height="104" fill="#121212"/><rect x="334" y="242" width="12" height="104" fill="#121212"/><path d="M178 334H217L256 322L295 334H334V346H178V334Z" fill="#121212"/></g><g face='1'><path d="M230.711 302H280" stroke="#121212" stroke-width="6"/><rect width="20" height="20" x="212" y="194" fill="#121212" rx="10"><animate attributeName="rx" begin="1s" dur="2s" keyTimes="0;0.25;0.3;0.35;1" repeatCount="indefinite" values="10;10;1;10;10"/><animate attributeName="height" begin="1s" dur="2s" keyTimes="0;0.25;0.3;0.35;1" repeatCount="indefinite" values="20;20;2;20;20"/><animate attributeName="y" begin="1s" dur="2s" keyTimes="0;0.25;0.3;0.35;1" repeatCount="indefinite" values="194;194;203;194;194"/></rect><rect width="20" height="20" x="280" y="194" fill="#121212" rx="10"><animate attributeName="rx" begin="1s" dur="2s" keyTimes="0;0.25;0.3;0.35;1" repeatCount="indefinite" values="10;10;1;10;10"/><animate attributeName="height" begin="1s" dur="2s" keyTimes="0;0.25;0.3;0.35;1" repeatCount="indefinite" values="20;20;2;20;20"/><animate attributeName="y" begin="1s" dur="2s" keyTimes="0;0.25;0.3;0.35;1" repeatCount="indefinite" values="194;194;203;194;194"/></rect><path d="M208.144 160L235.856 176" stroke="#121212" stroke-width="6"/><path d="M276.144 176L303.856 160" stroke="#121212" stroke-width="6"/><path d="M256 218L266 258H246" stroke="#121212" stroke-width="6"/></g><g glass='8'><path fill="#121212" d="M134 178h33v64h-33v-64ZM378 178h-33v64h33v-64Z"/><path fill="#2D2D2D" d="M166 162h180v90H166z"/><path fill="#121212" d="M182 178h148v74H182z"/></g></svg>