<svg xmlns="http://www.w3.org/2000/svg" width="512" height="512" fill="none"><rect width="512" height="512" fill="#00FF94 "/><g skin='2'><path fill="#C19344" d="M134 178h32v64h-20l-12-64ZM378 178h-32v64h20l12-64ZM207 346h98v54h-98z"/><path fill="#D7A859" d="M64 400h384l32 112H32l32-112Z"/><path fill="#F5C676" d="M136 456h240v56H136z"/><path fill="#D7A859" d="M166 106h180v240H166z"/><path fill="#1D1D1D" d="M66.5 495.5c0 4.418-4.582 8.5-9 8.5s-8.5-5.082-8.5-9.5 1.582-7.5 6-7.5 11.5 4.082 11.5 8.5ZM444 495.5c0 4.418 4.582 8.5 9 8.5s8.5-5.082 8.5-9.5-1.582-7.5-6-7.5-11.5 4.082-11.5 8.5ZM140.5 431.5c0 4.418-4.582 8.5-9 8.5s-8.5-5.082-8.5-9.5 1.582-7.5 6-7.5 11.5 4.082 11.5 8.5ZM262.5 418.5c0 4.418-4.582 8.5-9 8.5s-8.5-5.082-8.5-9.5 1.582-7.5 6-7.5 11.5 4.082 11.5 8.5ZM230.5 384.5c0 4.418-4.582 8.5-9 8.5s-8.5-5.082-8.5-9.5 1.582-7.5 6-7.5 11.5 4.082 11.5 8.5ZM370 431.5c0 4.418 4.582 8.5 9 8.5s8.5-5.082 8.5-9.5-1.582-7.5-6-7.5-11.5 4.082-11.5 8.5ZM119.5 495c0 4.418-2.582 6.5-7 6.5s-6.5-2.082-6.5-6.5 1.082-8 5.5-8a8 8 0 0 1 8 8ZM221.5 441c0 4.418-2.582 6.5-7 6.5s-6.5-2.082-6.5-6.5 1.082-8 5.5-8a8 8 0 0 1 8 8ZM298.5 361c0 4.418-2.582 6.5-7 6.5s-6.5-2.082-6.5-6.5 1.082-8 5.5-8a8 8 0 0 1 8 8ZM391 495c0 4.418 2.582 6.5 7 6.5s6.5-2.082 6.5-6.5-1.082-8-5.5-8a8 8 0 0 0-8 8ZM195.5 416c0 4.418-2.582 6.5-7 6.5s-6.5-2.082-6.5-6.5 1.082-8 5.5-8a8 8 0 0 1 8 8ZM253.5 372c0 4.418-2.582 6.5-7 6.5s-6.5-2.082-6.5-6.5 1.082-8 5.5-8a8 8 0 0 1 8 8ZM195.5 124c0 4.418-2.582 6.5-7 6.5s-6.5-2.082-6.5-6.5 1.082-8 5.5-8a8 8 0 0 1 8 8ZM187.5 288c0 4.418-2.582 6.5-7 6.5s-6.5-2.082-6.5-6.5 1.082-8 5.5-8a8 8 0 0 1 8 8ZM325.5 310.5c0 4.418-4.582 8.5-9 8.5s-8.5-5.082-8.5-9.5 1.582-7.5 6-7.5 11.5 4.082 11.5 8.5ZM265.5 125c0 4.418-2.582 6.5-7 6.5s-6.5-2.082-6.5-6.5 1.082-8 5.5-8a8 8 0 0 1 8 8ZM156.5 188c0 4.418-2.582 6.5-7 6.5s-6.5-2.082-6.5-6.5 1.082-8 5.5-8a8 8 0 0 1 8 8ZM342.5 146c0 4.418-2.582 6.5-7 6.5s-6.5-2.082-6.5-6.5 1.082-8 5.5-8a8 8 0 0 1 8 8ZM338.5 276c0 4.418-2.582 6.5-7 6.5s-6.5-2.082-6.5-6.5 1.082-8 5.5-8a8 8 0 0 1 8 8ZM330.5 125c0 4.418-2.582 6.5-7 6.5s-6.5-2.082-6.5-6.5 1.082-8 5.5-8a8 8 0 0 1 8 8ZM331 415c0 4.418 2.582 6.5 7 6.5s6.5-2.082 6.5-6.5-1.082-8-5.5-8a8 8 0 0 0-8 8ZM79.5 439c0 4.418-2.582 6.5-7 6.5S66 443.418 66 439s1.082-8 5.5-8a8 8 0 0 1 8 8ZM431 439c0 4.418 2.582 6.5 7 6.5s6.5-2.082 6.5-6.5-1.082-8-5.5-8a8 8 0 0 0-8 8ZM89 480c0 4.418-2.082 6-6.5 6s-9.5-1.582-9.5-6 3.582-5 8-5 8 .582 8 5ZM421.5 480c0 4.418 2.082 6 6.5 6s9.5-1.582 9.5-6-3.582-5-8-5-8 .582-8 5ZM174 443c0 4.418-2.082 6-6.5 6s-9.5-1.582-9.5-6 3.582-5 8-5 8 .582 8 5ZM315 429c0 4.418-2.082 6-6.5 6s-9.5-1.582-9.5-6 3.582-5 8-5 8 .582 8 5ZM230 358c0 4.418-2.082 6-6.5 6s-9.5-1.582-9.5-6 3.582-5 8-5 8 .582 8 5ZM230 118c0 4.418-2.082 6-6.5 6s-9.5-1.582-9.5-6 3.582-5 8-5 8 .582 8 5ZM188 146c0 4.418-2.082 6-6.5 6s-9.5-1.582-9.5-6 3.582-5 8-5 8 .582 8 5ZM372 185c0 4.418-2.082 6-6.5 6s-9.5-1.582-9.5-6 3.582-5 8-5 8 .582 8 5ZM340 332c0 4.418-2.082 6-6.5 6s-9.5-1.582-9.5-6 3.582-5 8-5 8 .582 8 5ZM304 121c0 4.418-2.082 6-6.5 6s-9.5-1.582-9.5-6 3.582-5 8-5 8 .582 8 5ZM336.5 443c0 4.418 2.082 6 6.5 6s9.5-1.582 9.5-6-3.582-5-8-5-8 .582-8 5ZM105 415c0 4.418-2.082 6-6.5 6s-9.5-1.582-9.5-6 3.582-5 8-5 8 .582 8 5ZM405.5 415c0 4.418 2.082 6 6.5 6s9.5-1.582 9.5-6-3.582-5-8-5-8 .582-8 5ZM115.5 456.5c0 4.418-2.582 9-7 9s-11.5-4.582-11.5-9 4.082-10.5 8.5-10.5 10 6.082 10 10.5ZM200.5 327.5c0 4.418-2.582 9-7 9s-11.5-4.582-11.5-9 4.082-10.5 8.5-10.5 10 6.082 10 10.5ZM298.5 386.5c0 4.418-2.582 9-7 9s-11.5-4.582-11.5-9 4.082-10.5 8.5-10.5 10 6.082 10 10.5ZM395 456.5c0 4.418 2.582 9 7 9s11.5-4.582 11.5-9-4.082-10.5-8.5-10.5-10 6.082-10 10.5Z"/></g><g hair='65'><path fill="#D22D27" d="M166 154h180v-48H166z"/><path fill="#FF9490" d="m293 118 7.629 24h4.228l-7.565-24H293Zm36.078 0-8.01 24h4.292l7.947-24h-4.229Zm-22.425 12.652h6.2l-6.74 8.487V142h13.478v-4.101h-6.573l6.796-8.487v-2.861h-13.161v4.101ZM166 166h180v-12H166z"/><path fill="#D22D27" d="M135.5 159.5 166 106h102.5L180 187l-44.5-27.5Z"/></g><g dress='59'><path fill="#fff" d="M64 400h384l32 112H32l32-112Z"/><path fill="#121212" d="m256 422-41-22v44l41-22ZM256 422l41-22v44l-41-22ZM143 400h24v112h-24zM346 400h24v112h-24z"/><path fill="#C9C9C9" d="M143 472h24v12h-24zM346 472h24v12h-24z"/></g><g beard='1'><path d="M166 266L206 286V346H166V266Z" fill="#121212"/><path d="M346 266L306 286V346H346V266Z" fill="#121212"/><rect x="206" y="322" width="100" height="24" fill="#121212"/></g><g face='33'><rect width="20" height="20" x="212" y="194" fill="#121212" rx="10"><animate attributeName="rx" begin="1s" dur="2s" keyTimes="0;0.25;0.3;0.35;1" repeatCount="indefinite" values="10;10;1;10;10"/><animate attributeName="height" begin="1s" dur="2s" keyTimes="0;0.25;0.3;0.35;1" repeatCount="indefinite" values="20;20;2;20;20"/><animate attributeName="y" begin="1s" dur="2s" keyTimes="0;0.25;0.3;0.35;1" repeatCount="indefinite" values="194;194;203;194;194"/></rect><rect width="20" height="20" x="280" y="194" fill="#121212" rx="10"><animate attributeName="rx" begin="1s" dur="2s" keyTimes="0;0.25;0.3;0.35;1" repeatCount="indefinite" values="10;10;1;10;10"/><animate attributeName="height" begin="1s" dur="2s" keyTimes="0;0.25;0.3;0.35;1" repeatCount="indefinite" values="20;20;2;20;20"/><animate attributeName="y" begin="1s" dur="2s" keyTimes="0;0.25;0.3;0.35;1" repeatCount="indefinite" values="194;194;203;194;194"/></rect><path d="M206 162H238" stroke="#121212" stroke-width="6"/><path d="M274 162H306" stroke="#121212" stroke-width="6"/><path d="M216 284H296L292 301L288 317H224L220 301L216 284Z" fill="white"/><path d="M220 301L224 317H288L292 301M220 301L216 284H296L292 301M220 301H292" stroke="#121212" stroke-width="6"/><path d="M256 218L266 258H246" stroke="#121212" stroke-width="6"/><path d="M256.25 401.5C219 401.5 199 377.5 199 377.5L245.841 301H266.659L313.5 377.5C313.5 377.5 293.5 401.5 256.25 401.5Z" fill="#FFB74A" stroke="#121212" stroke-width="6"/><path d="M256.25 401.5C219 401.5 199 377.5 199 377.5L206.654 365C206.654 365 224.5 384 256.25 384C285 384 305.846 365 305.846 365L313.5 377.5C313.5 377.5 293.5 401.5 256.25 401.5Z" fill="#FF9900" stroke="#121212" stroke-width="6"/><circle cx="241" cy="359" r="12" fill="#D22D27"/><circle cx="257" cy="321" r="10" fill="#D22D27"/><circle cx="273" cy="351" r="10" fill="#D22D27"/></g><g glass='23'><path fill="#121212" fill-opacity=".4" d="M192 203c0-15.464 12.536-28 28-28s28 12.536 28 28-12.536 28-28 28-28-12.536-28-28Z"/><path stroke="#121212" stroke-width="6" d="M192 203c0 15.464 12.536 28 28 28s28-12.536 28-28-12.536-28-28-28-28 12.536-28 28Zm0 0-28-27M248 202h16"/><path fill="#121212" fill-opacity=".4" d="M264 203c0-15.464 12.536-28 28-28s28 12.536 28 28-12.536 28-28 28-28-12.536-28-28Z"/><path stroke="#121212" stroke-width="6" d="M320 203c0-15.464-12.536-28-28-28s-28 12.536-28 28 12.536 28 28 28 28-12.536 28-28Zm0 0 28-27"/></g></svg>