<svg xmlns="http://www.w3.org/2000/svg" width="512" height="512" fill="none"><rect width="512" height="512" fill="#A7FF00 "/><g skin='11'><path fill="#D5A300" d="M134 178h32v64h-20l-12-64ZM378 178h-32v64h20l12-64ZM207 346h98v54h-98z"/><path fill="#E3B41A" d="M64 400h384l32 112H32l32-112ZM166 106h180v240H166z"/></g><g hair='38'><path fill="#0094FF" d="M346 146H166v-40l103-90.5h77l-45 22v42l45 26.5v40ZM106 146h300v16H106z"/><path fill="#A7DAFF" d="M166 130h180v16H166zM279 28l2.694 8.292h8.719l-7.054 5.124 2.694 8.292L279 44.584l-7.053 5.124 2.694-8.292-7.054-5.124h8.719L279 28ZM236 57l2.694 8.292h8.719l-7.054 5.124 2.694 8.292L236 73.584l-7.053 5.124 2.694-8.292-7.054-5.124h8.719L236 57ZM268 82l2.694 8.292h8.719l-7.054 5.124 2.694 8.292L268 98.584l-7.053 5.124 2.694-8.292-7.054-5.124h8.719L268 82ZM207 99l2.694 8.292h8.719l-7.054 5.124 2.694 8.292-7.053-5.124-7.053 5.124 2.694-8.292-7.054-5.124h8.719L207 99ZM317 99l2.694 8.292h8.719l-7.054 5.124 2.694 8.292-7.053-5.124-7.053 5.124 2.694-8.292-7.054-5.124h8.719L317 99Z"/></g><g dress='70'><path fill="#D22D27" d="M96 400h64s0 72 96 72 96-72 96-72h64v112H96V400Z"/><path stroke="#fff" stroke-width="6" d="M141 400s0 91 115 91 115-91 115-91M112 400v112m288-112v112"/></g><g beard='0'><path fill-rule="evenodd" clip-rule="evenodd" d="M346 266H166V349L256 382L346 349V266ZM297 281H215V323H297V281Z" fill="#121212"/></g><g face='13'><path d="M355 349.5L369.5 321L349.5 316.847L278 302L338.5 339.321L355 349.5Z" fill="white"/><path d="M349.5 316.847L369.5 321L355 349.5L338.5 339.321M349.5 316.847L278 302L338.5 339.321M349.5 316.847L338.5 339.321" stroke="#121212" stroke-width="6"/><path d="M230.711 302H280" stroke="#121212" stroke-width="6"/><path d="M206 162H238" stroke="#121212" stroke-width="6"/><path d="M210.687 217.313L233.314 194.686" stroke="#121212" stroke-width="6"/><path d="M279 217.313L301.627 194.686" stroke="#121212" stroke-width="6"/><path d="M210.687 194.687L233.314 217.314" stroke="#121212" stroke-width="6"/><path d="M279 194.687L301.627 217.314" stroke="#121212" stroke-width="6"/><path d="M274 162H306" stroke="#121212" stroke-width="6"/><path d="M256 218L266 258H246" stroke="#121212" stroke-width="6"/></g><g glass='3'><path fill="red" fill-opacity=".4" d="M190 175h56v56h-56v-56Z"/><path stroke="#121212" stroke-width="6" d="M190 175h56v56h-56v-56Zm0 0h-24M247 184h19"/><path fill="#0075FF" fill-opacity=".4" d="M266 175h56v56h-56v-56Z"/><path stroke="#121212" stroke-width="6" d="M322 175h-56v56h56v-56Zm0 0h24"/></g></svg>