<svg xmlns="http://www.w3.org/2000/svg" width="512" height="512" fill="none"><rect width="512" height="512" fill="#FFD600 "/><g skin='0'><path fill="#E24713" d="M134 178h32v64h-20l-12-64ZM378 178h-32v64h20l12-64ZM207 346h98v54h-98z"/><path fill="#F15824" d="M64 400h384l32 112H32l32-112ZM166 106h180v240H166z"/></g><g hair='61'><path fill="#D22D27" d="M239 82.97 255.971 42l16.97 40.97-16.97 16.971L239 82.971Z"/><path fill="#D22D27" d="M239 82.97 255.971 42l16.97 40.97-16.97 16.971L239 82.971Z"/><path fill="#F90" d="m246.31 85.81 9.712-23.332 9.598 23.285-9.679 9.678-9.631-9.63Z"/><path fill="#D22D27" d="M277 82.97 293.971 42l16.97 40.97-16.97 16.971L277 82.971ZM312.723 76.782 325.059 47l12.336 29.782-12.336 12.336-12.336-12.336ZM202 82.97 218.971 42l16.97 40.97-16.97 16.971L202 82.971ZM177.723 73.782 190.059 44l12.336 29.782-12.336 12.336-12.336-12.336ZM159.664 61.752 169.088 39l9.425 22.752-9.425 9.425-9.424-9.425ZM249.611 35.744 256.132 20l6.522 15.744-6.522 6.52-6.521-6.52ZM234.611 35.744 241.132 20l6.522 15.744-6.522 6.52-6.521-6.52ZM219.611 37.744 226.132 22l6.522 15.744-6.522 6.52-6.521-6.52ZM204.611 38.744 211.132 23l6.522 15.744-6.522 6.52-6.521-6.52ZM191.611 41.744 198.132 26l6.522 15.744-6.522 6.52-6.521-6.52ZM174.611 44.744 181.132 29l6.522 15.744-6.522 6.52-6.521-6.52ZM264.611 35.744 271.132 20l6.522 15.744-6.522 6.52-6.521-6.52ZM279.611 36.744 286.132 21l6.522 15.744-6.522 6.52-6.521-6.52ZM295.611 39.744 302.132 24l6.522 15.744-6.522 6.52-6.521-6.52ZM310.611 41.744 317.132 26l6.522 15.744-6.522 6.52-6.521-6.52ZM326.611 46.744 333.132 31l6.522 15.744-6.522 6.52-6.521-6.52ZM336.664 61.752 346.088 39l9.425 22.752-9.425 9.425-9.424-9.425Z"/><path fill="#F90" d="M283.81 85.332 293.522 62l9.598 23.285-9.679 9.678-9.631-9.63ZM208.81 85.332 218.522 62l9.598 23.285-9.679 9.678-9.631-9.63ZM182.054 75.315 189.261 58l7.122 17.28-7.182 7.182-7.147-7.147ZM163.658 62.533 168.875 50l5.155 12.508-5.199 5.199-5.173-5.174ZM177.447 45.385 180.938 37l3.448 8.368-3.478 3.478-3.461-3.461ZM194.447 42.385 197.938 34l3.448 8.368-3.478 3.478-3.461-3.461ZM207.447 39.385 210.938 31l3.448 8.368-3.478 3.478-3.461-3.461ZM222.447 38.385 225.938 30l3.448 8.368-3.478 3.478-3.461-3.461ZM237.447 36.385 240.938 28l3.448 8.368-3.478 3.478-3.461-3.461ZM252.447 36.385 255.938 28l3.448 8.368-3.478 3.478-3.461-3.461ZM267.447 36.385 270.938 28l3.448 8.368-3.478 3.478-3.461-3.461ZM282.447 37.385 285.938 29l3.448 8.368-3.478 3.478-3.461-3.461ZM298.447 40.385 301.938 32l3.448 8.368-3.478 3.478-3.461-3.461ZM313.447 42.385 316.938 34l3.448 8.368-3.478 3.478-3.461-3.461ZM329.447 47.385 332.938 39l3.448 8.368-3.478 3.478-3.461-3.461ZM318.054 77.315 325.261 60l7.122 17.28-7.182 7.182-7.147-7.147ZM340.658 63.533 345.875 51l5.155 12.508-5.199 5.199-5.173-5.174Z"/></g><g dress='2'><path fill="#D22D27" d="M96 400h64s0 72 96 72 96-72 96-72h64v112H96V400Z"/></g><g beard='5'><rect x="166" y="242" width="12" height="104" fill="#121212"/><rect x="334" y="242" width="12" height="104" fill="#121212"/><path d="M178 334H217L256 322L295 334H334V346H178V334Z" fill="#121212"/></g><g face='8'><path d="M230.711 302H280" stroke="#121212" stroke-width="6"/><rect width="20" height="20" x="212" y="194" fill="#121212" rx="10"><animate attributeName="rx" begin="1s" dur="2s" keyTimes="0;0.25;0.3;0.35;1" repeatCount="indefinite" values="10;10;1;10;10"/><animate attributeName="height" begin="1s" dur="2s" keyTimes="0;0.25;0.3;0.35;1" repeatCount="indefinite" values="20;20;2;20;20"/><animate attributeName="y" begin="1s" dur="2s" keyTimes="0;0.25;0.3;0.35;1" repeatCount="indefinite" values="194;194;203;194;194"/></rect><rect width="20" height="20" x="280" y="194" fill="#121212" rx="10"><animate attributeName="rx" begin="1s" dur="2s" keyTimes="0;0.25;0.3;0.35;1" repeatCount="indefinite" values="10;10;1;10;10"/><animate attributeName="height" begin="1s" dur="2s" keyTimes="0;0.25;0.3;0.35;1" repeatCount="indefinite" values="20;20;2;20;20"/><animate attributeName="y" begin="1s" dur="2s" keyTimes="0;0.25;0.3;0.35;1" repeatCount="indefinite" values="194;194;203;194;194"/></rect><path d="M206 162H238" stroke="#121212" stroke-width="6"/><path d="M274 162H306" stroke="#121212" stroke-width="6"/><path d="M256 218L266 258H246" stroke="#121212" stroke-width="6"/></g><g glass='17'><rect width="74" height="74" x="176" y="162" fill="#fff" rx="37"/><path fill="#fff" d="M166 162h49v16h-49zM242 178h28v20h-28zM346 162h-49v16h49z"/><rect width="56" height="56" x="190" y="171" fill="#D22D27" rx="28"/><rect width="74" height="74" x="262" y="162" fill="#fff" rx="37"/><rect width="56" height="56" x="266" y="171" fill="#D22D27" rx="28"/></g></svg>