<svg xmlns="http://www.w3.org/2000/svg" width="512" height="512" fill="none"><rect width="512" height="512" fill="#00FF94 "/><g skin='7'><path fill="#2D2D2D" d="M134 178h32v64h-20l-12-64ZM378 178h-32v64h20l12-64ZM64 400h384l32 112H32l32-112Z"/><path fill="#E3E3E3" d="M136 456h240v56H136z"/><path fill="#2D2D2D" d="M207 346h98v54h-98z"/><path fill="#E3E3E3" d="M166 106h180v240H166z"/><path fill="#2D2D2D" d="M246 204c0 16.016-12.984 31.5-29 31.5s-35-15.484-35-31.5 23.484-29.5 39.5-29.5S246 187.984 246 204ZM266 204.5c0 16.016 12.984 31.5 29 31.5s35-15.484 35-31.5-23.484-29.5-39.5-29.5-24.5 13.484-24.5 29.5Z"/></g><g hair='9'><path fill="#D22D27" d="M166 146h240v16H166z"/><path fill="#D22D27" fill-rule="evenodd" d="M346 74H166v48h24v24h156V74Z" clip-rule="evenodd"/><path fill="#BF0700" d="m285 122 7.629 24h4.228l-7.565-24H285Zm36.078 0-8.01 24h4.292l7.947-24h-4.229Zm-22.425 12.652h6.2l-6.74 8.487V146h13.478v-4.101h-6.573l6.796-8.487v-2.861h-13.161v4.101Z"/></g><g dress='4'><g clip-path="url(#a)"><path fill="#121212" d="M64 400h96s0 72 96 72 96-72 96-72h96l32 112H32l32-112Z"/><path fill="#2D2D2D" d="M150.5 400H207v133.5h-22l-52-90h31L150.5 400ZM361.5 400H305v133.5h22l52-90h-31l13.5-43.5Z"/></g><defs><clipPath id="a"><path fill="#fff" d="M0 0h512v512H0z"/></clipPath></defs></g><g beard='4'><rect x="201" y="286" width="12" height="40" fill="#121212"/><rect x="299" y="286" width="12" height="40" fill="#121212"/><rect x="201" y="274" width="110" height="12" fill="#121212"/></g><g face='17'><path d="M231.114 302H280.403L292 290" stroke="#121212" stroke-width="6"/><path d="M206 162H238" stroke="#121212" stroke-width="6"/><path d="M206 202C206 202 212 194 222 194C232 194 238 202 238 202" stroke="#121212" stroke-width="6"/><path d="M274 202C274 202 280 194 290 194C300 194 306 202 306 202" stroke="#121212" stroke-width="6"/><path d="M274 162H306" stroke="#121212" stroke-width="6"/><path d="M256 218L266 258H246" stroke="#121212" stroke-width="6"/></g><g glass='17'><rect width="74" height="74" x="176" y="162" fill="#fff" rx="37"/><path fill="#fff" d="M166 162h49v16h-49zM242 178h28v20h-28zM346 162h-49v16h49z"/><rect width="56" height="56" x="190" y="171" fill="#D22D27" rx="28"/><rect width="74" height="74" x="262" y="162" fill="#fff" rx="37"/><rect width="56" height="56" x="266" y="171" fill="#D22D27" rx="28"/></g></svg>