<svg xmlns="http://www.w3.org/2000/svg" width="512" height="512" fill="none"><rect width="512" height="512" fill="#007089 "/><g skin='12'><path fill="#80573E" d="M134 178h32v64h-20l-12-64ZM378 178h-32v64h20l12-64ZM207 346h98v54h-98z"/><path fill="#8B634A" d="M64 400h384l32 112H32l32-112Z"/><path fill="#AE7B5C" d="M136 456h240v56H136z"/><path fill="#8B634A" d="M166 106h180v240H166z"/><path fill="#AE7B5C" d="M207 242h98v104h-98zM182 178h148v64H182z"/></g><g hair='8'><path fill="#121212" d="m194 238-16-104V62h-12v176h28ZM318 238l16-104V62h12v176h-28ZM236 62h40v12h-40z"/><path fill="#121212" d="M106 135h300v16H106z"/><path fill="#2D2D2D" d="M166 95h180v40H166z"/><path fill="#121212" d="m236 103 7.629 24h4.228l-7.565-24H236Zm36.078 0-8.01 24h4.292l7.947-24h-4.229Zm-22.425 12.652h6.2l-6.74 8.487V127h13.478v-4.101h-6.573l6.796-8.487v-2.861h-13.161v4.101ZM166 15h180v80H166z"/></g><g dress='14'><path fill="#fff" d="M96 400h64s0 72 96 72 96-72 96-72h64v112H96V400Z"/></g><g beard='5'><rect x="166" y="242" width="12" height="104" fill="#121212"/><rect x="334" y="242" width="12" height="104" fill="#121212"/><path d="M178 334H217L256 322L295 334H334V346H178V334Z" fill="#121212"/></g><g face='18'><path d="M231.114 302H280.403L292 290" stroke="#121212" stroke-width="6"/><rect width="20" height="20" x="212" y="194" fill="#121212" rx="10"><animate attributeName="rx" begin="1s" dur="2s" keyTimes="0;0.25;0.3;0.35;1" repeatCount="indefinite" values="10;10;1;10;10"/><animate attributeName="height" begin="1s" dur="2s" keyTimes="0;0.25;0.3;0.35;1" repeatCount="indefinite" values="20;20;2;20;20"/><animate attributeName="y" begin="1s" dur="2s" keyTimes="0;0.25;0.3;0.35;1" repeatCount="indefinite" values="194;194;203;194;194"/></rect><rect width="20" height="20" x="280" y="194" fill="#121212" rx="10"><animate attributeName="rx" begin="1s" dur="2s" keyTimes="0;0.25;0.3;0.35;1" repeatCount="indefinite" values="10;10;1;10;10"/><animate attributeName="height" begin="1s" dur="2s" keyTimes="0;0.25;0.3;0.35;1" repeatCount="indefinite" values="20;20;2;20;20"/><animate attributeName="y" begin="1s" dur="2s" keyTimes="0;0.25;0.3;0.35;1" repeatCount="indefinite" values="194;194;203;194;194"/></rect><path d="M206.965 173.472L237.035 162.528" stroke="#121212" stroke-width="6"/><path d="M274.965 162.528L305.035 173.472" stroke="#121212" stroke-width="6"/><path d="M256 218L266 258H246" stroke="#121212" stroke-width="6"/></g><g glass='15'><path fill="#121212" d="m235 250 21-16 21 16h69v-72H166v72h69Z"/><circle cx="176" cy="190" r="4" fill="#0047FF"/><circle cx="176" cy="206" r="4" fill="#0047FF"/><circle cx="176" cy="222" r="4" fill="#0047FF"/><circle cx="176" cy="238" r="4" fill="#0047FF"/><circle cx="192" cy="190" r="4" fill="#79CBDC"/><circle cx="192" cy="206" r="4" fill="#79CBDC"/><circle cx="192" cy="222" r="4" fill="#79CBDC"/><circle cx="192" cy="238" r="4" fill="#79CBDC"/><circle cx="208" cy="190" r="4" fill="#79CBDC"/><circle cx="208" cy="206" r="4" fill="#0047FF"/><circle cx="208" cy="222" r="4" fill="#79CBDC"/><circle cx="208" cy="238" r="4" fill="#79CBDC"/><circle cx="224" cy="190" r="4" fill="#79CBDC"/><circle cx="224" cy="206" r="4" fill="#0047FF"/><circle cx="224" cy="222" r="4" fill="#79CBDC"/><circle cx="224" cy="238" r="4" fill="#79CBDC"/><circle cx="240" cy="190" r="4" fill="#0047FF"/><circle cx="240" cy="206" r="4" fill="#0047FF"/><circle cx="240" cy="222" r="4" fill="#0047FF"/><circle cx="240" cy="238" r="4" fill="#0047FF"/><circle cx="256" cy="190" r="4" fill="#0047FF"/><circle cx="256" cy="206" r="4" fill="#0047FF"/><circle cx="256" cy="222" r="4" fill="#0047FF"/><circle cx="272" cy="190" r="4" fill="#0047FF"/><circle cx="272" cy="206" r="4" fill="#0047FF"/><circle cx="272" cy="222" r="4" fill="#0047FF"/><circle cx="272" cy="238" r="4" fill="#0047FF"/><circle cx="288" cy="190" r="4" fill="#79CBDC"/><circle cx="288" cy="206" r="4" fill="#79CBDC"/><circle cx="288" cy="222" r="4" fill="#0047FF"/><circle cx="288" cy="238" r="4" fill="#79CBDC"/><circle cx="304" cy="190" r="4" fill="#79CBDC"/><circle cx="304" cy="206" r="4" fill="#79CBDC"/><circle cx="304" cy="222" r="4" fill="#0047FF"/><circle cx="304" cy="238" r="4" fill="#79CBDC"/><circle cx="320" cy="190" r="4" fill="#79CBDC"/><circle cx="320" cy="206" r="4" fill="#79CBDC"/><circle cx="320" cy="222" r="4" fill="#79CBDC"/><circle cx="320" cy="238" r="4" fill="#79CBDC"/><circle cx="336" cy="190" r="4" fill="#0047FF"/><circle cx="336" cy="206" r="4" fill="#0047FF"/><circle cx="336" cy="222" r="4" fill="#0047FF"/><circle cx="336" cy="238" r="4" fill="#0047FF"/></g></svg>