<svg xmlns="http://www.w3.org/2000/svg" width="512" height="512" fill="none"><rect width="512" height="512" fill="#007089 "/><g skin='11'><path fill="#D5A300" d="M134 178h32v64h-20l-12-64ZM378 178h-32v64h20l12-64ZM207 346h98v54h-98z"/><path fill="#E3B41A" d="M64 400h384l32 112H32l32-112ZM166 106h180v240H166z"/></g><g hair='50'><circle cx="256" cy="106" r="40" fill="#121212"/><path fill="#121212" d="M166 106h180v72l-21-40-69 20-69-20-21 40v-72Z"/></g><g dress='62'><path fill="#F15824" d="M64 400h384l32 112H32l32-112Z"/><path fill="#FE8AC8" d="M207 372h36v28h-36zM269 372h36v28h-36z"/><path fill="#FF008A" d="M64 400h384l32 112H32l32-112Z"/><path fill="#FFD600" d="m340 448 7.629 24h4.228l-7.565-24H340Zm36.078 0-8.01 24h4.292l7.947-24h-4.229Zm-22.425 12.652h6.2l-6.74 8.487V472h13.478v-4.101h-6.573l6.796-8.487v-2.861h-13.161v4.101Z"/><path stroke="#FE8AC8" stroke-width="6" d="M256 400v112"/><circle cx="274" cy="427" r="6" fill="#FFD600"/><circle cx="274" cy="459" r="6" fill="#FFD600"/><circle cx="274" cy="491" r="6" fill="#FFD600"/><path fill="#FE8AC8" d="M328 472h64v16h-64z"/></g><g beard='7'><rect x="204" y="286" width="12" height="60" fill="#121212"/><rect x="296" y="286" width="12" height="60" fill="#121212"/><rect x="250" y="322" width="12" height="24" fill="#121212"/><rect x="204" y="274" width="104" height="12" fill="#121212"/><rect x="196" y="334" width="120" height="12" fill="#121212"/><path d="M166 258L196 274V346H166V258Z" fill="#121212"/><path d="M346 258L316 274V346H346V258Z" fill="#121212"/></g><g face='30'><rect width="20" height="20" x="212" y="194" fill="#121212" rx="10"><animate attributeName="rx" begin="1s" dur="2s" keyTimes="0;0.25;0.3;0.35;1" repeatCount="indefinite" values="10;10;1;10;10"/><animate attributeName="height" begin="1s" dur="2s" keyTimes="0;0.25;0.3;0.35;1" repeatCount="indefinite" values="20;20;2;20;20"/><animate attributeName="y" begin="1s" dur="2s" keyTimes="0;0.25;0.3;0.35;1" repeatCount="indefinite" values="194;194;203;194;194"/></rect><rect width="20" height="20" x="280" y="194" fill="#121212" rx="10"><animate attributeName="rx" begin="1s" dur="2s" keyTimes="0;0.25;0.3;0.35;1" repeatCount="indefinite" values="10;10;1;10;10"/><animate attributeName="height" begin="1s" dur="2s" keyTimes="0;0.25;0.3;0.35;1" repeatCount="indefinite" values="20;20;2;20;20"/><animate attributeName="y" begin="1s" dur="2s" keyTimes="0;0.25;0.3;0.35;1" repeatCount="indefinite" values="194;194;203;194;194"/></rect><path d="M208.144 160L235.856 176" stroke="#121212" stroke-width="6"/><path d="M276.144 176L303.856 160" stroke="#121212" stroke-width="6"/><path d="M230.711 302H280" stroke="#121212" stroke-width="6"/><path d="M256 218L266 258H246" stroke="#121212" stroke-width="6"/><path d="M374.191 370.784L386.191 350L277.75 301.825L374.191 370.784Z" fill="#77492D" stroke="#121212" stroke-width="6"/><path d="M351.27 334.486L343.134 348.577L330.874 339.811L337.485 328.362L351.27 334.486Z" fill="#FF9900" stroke="#121212" stroke-width="6"/><path d="M374.191 370.784L386.191 350L376.542 345.713L365.609 364.648L374.191 370.784Z" fill="white" stroke="#121212" stroke-width="6"/></g><g glass='12'><path fill="#121212" d="M166 172h80v64l-80 42V172Z"/><rect width="40" height="40" x="194" y="184" fill="#D22D27" rx="20"/><rect width="20" height="20" x="204" y="194" fill="#7B0000" rx="10"/><rect width="8" height="8" x="182" y="184" fill="#D22D27" rx="4"/></g></svg>