<svg xmlns="http://www.w3.org/2000/svg" width="512" height="512" fill="none"><rect width="512" height="512" fill="#572828 "/><g skin='3'><path fill="#E24713" d="M134 178h32v64h-20l-12-64ZM378 178h-32v64h20l12-64Z"/><path fill="#C9C9C9" d="M207 346h98v9h-98z"/><path fill="#D9D9D9" d="M207 355h98v9h-98z"/><path fill="#C9C9C9" d="M207 364h98v9h-98z"/><path fill="#D9D9D9" d="M207 373h98v9h-98z"/><path fill="#C9C9C9" d="M207 382h98v9h-98z"/><path fill="#D9D9D9" d="M207 391h98v9h-98z"/><path fill="#F15824" d="M64 400h384l32 112H32l32-112Z"/><path fill="#D9D9D9" d="M64 400h56v88H76v24H32l32-112Z"/><path fill="#F15824" d="M166 106h180v240H166z"/><path fill="#D9D9D9" d="M264 146h82v200h-16.5V244.5L264 226v-80ZM166 106h40v44h-40v-44ZM234 322h44v24h-44z"/><circle cx="148" cy="436" r="12" fill="#D9D9D9"/><circle cx="332" cy="160" r="6" fill="#C9C9C9"/><circle cx="332" cy="180" r="6" fill="#C9C9C9"/><circle cx="92" cy="436" r="12" fill="#C9C9C9"/></g><g hair='5'><path fill="#121212" d="M165.999 106v240h-61c-30-46 24-67.75 24-67.75s-24-6.75-24-33.875 24-33.875 24-33.875-24-10-24-33.875 24-33.875 24-33.875-11.691-39.25 8.501-58.25 55.249-9.5 55.249-9.5 8.75-40 63.75-40 63.75 40 63.75 40S357.5 66.215 377 84.5s7.249 58.25 7.249 58.25 24.22 3.75 24.5 33.875c.25 26.875-24 33.875-24 33.875s24.5 7.25 24.25 33.875-24.25 33.875-24.25 33.875S441 299 408.999 346h-63V106h-180Z"/><ellipse cx="174.5" cy="124.5" fill="#121212" rx="37.5" ry="33.5"/><ellipse cx="256" cy="106" fill="#121212" rx="61" ry="45"/><ellipse cx="335" cy="124.5" fill="#121212" rx="40" ry="33.5"/><path fill="#fff" d="M115 155h51v95h-51zM346 155h51v95h-51zM166 106v49h-28V77h236v78h-28v-49H166Z"/></g><g dress='41'><g clip-path="url(#a)"><path fill="#2D2D2D" d="M64 400h124s2 52 68 52 68-52 68-52h124l32 112H32l32-112Z"/><path stroke="#5B6062" stroke-width="6" d="M174 413H75.5L45 516.5M338 413h98.5L467 516.5"/></g><defs><clipPath id="a"><path fill="#fff" d="M0 0h512v512H0z"/></clipPath></defs></g><g beard='3'><path fill-rule="evenodd" clip-rule="evenodd" d="M207 346V271H305V346H256H207ZM219 283H293V315H219V283Z" fill="#121212"/></g><g face='5'><path d="M206 162H238" stroke="#121212" stroke-width="6"/><path d="M210.687 217.313L233.314 194.686" stroke="#121212" stroke-width="6"/><path d="M279 217.313L301.627 194.686" stroke="#121212" stroke-width="6"/><path d="M210.687 194.687L233.314 217.314" stroke="#121212" stroke-width="6"/><path d="M279 194.687L301.627 217.314" stroke="#121212" stroke-width="6"/><path d="M274 162H306" stroke="#121212" stroke-width="6"/><path d="M256 218L266 258H246" stroke="#121212" stroke-width="6"/><path d="M284 309.25V290H261.5V309.25C261.5 315.463 266.537 320.5 272.75 320.5C278.963 320.5 284 315.463 284 309.25Z" fill="white"/><path d="M228 290H261.5M261.5 290H284V309.25C284 315.463 278.963 320.5 272.75 320.5V320.5C266.537 320.5 261.5 315.463 261.5 309.25V290Z" stroke="#121212" stroke-width="6"/></g><g glass='7'><path fill="#0047FF" d="m222 172 8 18.144L249.713 188 238 204l11.713 16L230 217.856 222 236l-8-18.144L194.287 220 206 204l-11.713-16L214 190.144 222 172Z"/><circle cx="10" cy="10" r="10" fill="#79CBDC" transform="matrix(1 0 0 -1 212 214)"/><path fill="#0047FF" d="m290 172 8 18.144L317.713 188 306 204l11.713 16L298 217.856 290 236l-8-18.144L262.287 220 274 204l-11.713-16L282 190.144 290 172Z"/><circle cx="10" cy="10" r="10" fill="#79CBDC" transform="matrix(1 0 0 -1 280 214)"/></g></svg>