<svg xmlns="http://www.w3.org/2000/svg" width="512" height="512" fill="none"><rect width="512" height="512" fill="#FFD600 "/><g skin='3'><path fill="#E24713" d="M134 178h32v64h-20l-12-64ZM378 178h-32v64h20l12-64Z"/><path fill="#C9C9C9" d="M207 346h98v9h-98z"/><path fill="#D9D9D9" d="M207 355h98v9h-98z"/><path fill="#C9C9C9" d="M207 364h98v9h-98z"/><path fill="#D9D9D9" d="M207 373h98v9h-98z"/><path fill="#C9C9C9" d="M207 382h98v9h-98z"/><path fill="#D9D9D9" d="M207 391h98v9h-98z"/><path fill="#F15824" d="M64 400h384l32 112H32l32-112Z"/><path fill="#D9D9D9" d="M64 400h56v88H76v24H32l32-112Z"/><path fill="#F15824" d="M166 106h180v240H166z"/><path fill="#D9D9D9" d="M264 146h82v200h-16.5V244.5L264 226v-80ZM166 106h40v44h-40v-44ZM234 322h44v24h-44z"/><circle cx="148" cy="436" r="12" fill="#D9D9D9"/><circle cx="332" cy="160" r="6" fill="#C9C9C9"/><circle cx="332" cy="180" r="6" fill="#C9C9C9"/><circle cx="92" cy="436" r="12" fill="#C9C9C9"/></g><g hair='50'><circle cx="256" cy="106" r="40" fill="#121212"/><path fill="#121212" d="M166 106h180v72l-21-40-69 20-69-20-21 40v-72Z"/></g><g dress='15'><path fill="#A7DAFF" d="M96 400h64s0 72 96 72 96-72 96-72h64v112H96V400Z"/></g><g beard='0'><path fill-rule="evenodd" clip-rule="evenodd" d="M346 266H166V349L256 382L346 349V266ZM297 281H215V323H297V281Z" fill="#121212"/></g><g face='18'><path d="M231.114 302H280.403L292 290" stroke="#121212" stroke-width="6"/><rect width="20" height="20" x="212" y="194" fill="#121212" rx="10"><animate attributeName="rx" begin="1s" dur="2s" keyTimes="0;0.25;0.3;0.35;1" repeatCount="indefinite" values="10;10;1;10;10"/><animate attributeName="height" begin="1s" dur="2s" keyTimes="0;0.25;0.3;0.35;1" repeatCount="indefinite" values="20;20;2;20;20"/><animate attributeName="y" begin="1s" dur="2s" keyTimes="0;0.25;0.3;0.35;1" repeatCount="indefinite" values="194;194;203;194;194"/></rect><rect width="20" height="20" x="280" y="194" fill="#121212" rx="10"><animate attributeName="rx" begin="1s" dur="2s" keyTimes="0;0.25;0.3;0.35;1" repeatCount="indefinite" values="10;10;1;10;10"/><animate attributeName="height" begin="1s" dur="2s" keyTimes="0;0.25;0.3;0.35;1" repeatCount="indefinite" values="20;20;2;20;20"/><animate attributeName="y" begin="1s" dur="2s" keyTimes="0;0.25;0.3;0.35;1" repeatCount="indefinite" values="194;194;203;194;194"/></rect><path d="M206.965 173.472L237.035 162.528" stroke="#121212" stroke-width="6"/><path d="M274.965 162.528L305.035 173.472" stroke="#121212" stroke-width="6"/><path d="M256 218L266 258H246" stroke="#121212" stroke-width="6"/></g><g glass='1'><path fill="#fff" fill-opacity=".4" d="M190 175h56v56h-56v-56Z"/><path stroke="#121212" stroke-width="6" d="M190 175h56v56h-56v-56Zm0 0h-24M247 184h19"/><path fill="#fff" fill-opacity=".4" d="M266 175h56v56h-56v-56Z"/><path stroke="#121212" stroke-width="6" d="M322 175h-56v56h56v-56Zm0 0h24"/></g></svg>