<svg xmlns="http://www.w3.org/2000/svg" width="512" height="512" fill="none"><rect width="512" height="512" fill="#0047FF "/><g skin='0'><path fill="#E24713" d="M134 178h32v64h-20l-12-64ZM378 178h-32v64h20l12-64ZM207 346h98v54h-98z"/><path fill="#F15824" d="M64 400h384l32 112H32l32-112ZM166 106h180v240H166z"/></g><g hair='62'><ellipse cx="256" cy="58" stroke="#fff" stroke-width="12" rx="90" ry="24"/></g><g dress='0'><path fill="#A7DAFF" d="M64 400h96l96 72 96-72h96l32 112H32l32-112Z"/><path fill="#00A8FF" d="m322 456 7.629 24h4.228l-7.565-24H322Zm36.078 0-8.01 24h4.292l7.947-24h-4.229Zm-22.425 12.652h6.2l-6.74 8.487V480h13.478v-4.101h-6.573l6.796-8.487v-2.861h-13.161v4.101Z"/></g><g beard='6'><rect x="207" y="346" width="98" height="54" fill="#E24713"/><path fill-rule="evenodd" clip-rule="evenodd" d="M346 266H166V400H256.5H346V266ZM297 281H215V323H297V281Z" fill="#121212"/></g><g face='12'><path d="M208.144 160L235.856 176" stroke="#121212" stroke-width="6"/><path d="M276.144 176L303.856 160" stroke="#121212" stroke-width="6"/><path d="M355 349.5L369.5 321L349.5 316.847L278 302L338.5 339.321L355 349.5Z" fill="white"/><path d="M349.5 316.847L369.5 321L355 349.5L338.5 339.321M349.5 316.847L278 302L338.5 339.321M349.5 316.847L338.5 339.321" stroke="#121212" stroke-width="6"/><path d="M230.711 302H280" stroke="#121212" stroke-width="6"/><rect width="20" height="20" x="212" y="194" fill="#121212" rx="10"><animate attributeName="rx" begin="1s" dur="2s" keyTimes="0;0.25;0.3;0.35;1" repeatCount="indefinite" values="10;10;1;10;10"/><animate attributeName="height" begin="1s" dur="2s" keyTimes="0;0.25;0.3;0.35;1" repeatCount="indefinite" values="20;20;2;20;20"/><animate attributeName="y" begin="1s" dur="2s" keyTimes="0;0.25;0.3;0.35;1" repeatCount="indefinite" values="194;194;203;194;194"/></rect><rect width="20" height="20" x="280" y="194" fill="#121212" rx="10"><animate attributeName="rx" begin="1s" dur="2s" keyTimes="0;0.25;0.3;0.35;1" repeatCount="indefinite" values="10;10;1;10;10"/><animate attributeName="height" begin="1s" dur="2s" keyTimes="0;0.25;0.3;0.35;1" repeatCount="indefinite" values="20;20;2;20;20"/><animate attributeName="y" begin="1s" dur="2s" keyTimes="0;0.25;0.3;0.35;1" repeatCount="indefinite" values="194;194;203;194;194"/></rect><path d="M256 218L266 258H246" stroke="#121212" stroke-width="6"/></g><g glass='10'><path fill="#121212" d="M166 178h180v52l-69 4-21-16-21 16-69-4v-52Z"/><path fill="#D22D27" d="M182 194h148v20H182z"/></g></svg>