<svg xmlns="http://www.w3.org/2000/svg" width="512" height="512" fill="none"><rect width="512" height="512" fill="#7B0000 "/><g skin='10'><path fill="#56C499" d="M134 178h32v64h-20l-12-64ZM378 178h-32v64h20l12-64Z"/><path fill="#82DCB9" d="M64 400h384l32 112H32l32-112Z"/><path fill="#D22D27" d="M87.5 427.5V400h68l-41 27.5h-27Z"/><path fill="#56C499" d="M207 346h98v54h-98z"/><path fill="#82DCB9" d="m207 377 98-12v4l-98 12v-4Z"/><path fill="#FF00B1" d="M190 118.5s-10.505-3.476-16.5 2.948c-5.596 5.995 0 18.552 0 18.552s-5.89 3.714-7 9c-2.205 10.5 4.499 15.5 4.499 15.5v8.5H192.5l35.5-63h-8s-5.5-3.667-16-2.5c-8.999 1-14 11-14 11Z"/><path fill="#82DCB9" d="M346 346V106H223l-16.5 20v16H188v15l-22 9v180h180Z"/><path fill="#D22D27" d="m294 136.5 52 12v9.5l-52-21.5Z"/><path fill="#fff" d="m313.762 134 3.625 1.69-6.762 14.501-3.625-1.69zM223 369.349l3.985-.349 1.394 15.94-3.985.348zM253 365.349l3.985-.349 1.394 15.94-3.985.348zM283 361.349l3.985-.349 1.394 15.94-3.985.348zM331.141 141l3.864 1.035-4.141 15.455-3.864-1.035zM147.129 383.208 124.576 375l-1.368 3.758 22.553 8.209zM136.364 383.547l-3.759-1.368-8.208 22.553 3.759 1.368zM115 385H91v4h24zM105 389h-4v24h4z"/></g><g hair='56'><path fill="#121212" d="m194 282-16-104v-72h-12v176h28ZM318 282l16-104v-72h12v176h-28ZM236 106h40v12h-40z"/></g><g dress='24'><g clip-path="url(#a)"><path fill="#0094FF" d="M64 400h96s0 72 96 72 96-72 96-72h96l32 112H32l32-112Z"/><path fill="#A7DAFF" d="M150.5 400H207v133.5h-22l-52-90h31L150.5 400ZM361.5 400H305v133.5h22l52-90h-31l13.5-43.5Z"/><path fill="#fff" d="M207 512h98v-73h-98v73Z"/><path fill="#C9C9C9" d="M207 439v-39l50 39h-50ZM305 439v-39l-48 39h48Z"/><path fill="#0094FF" d="M241 439h32l-8 24h-16l-8-24ZM241 512h32l-8-49h-16l-8 49Z"/></g><defs><clipPath id="a"><path fill="#fff" d="M0 0h512v512H0z"/></clipPath></defs></g><g beard='1'><path d="M166 266L206 286V346H166V266Z" fill="#121212"/><path d="M346 266L306 286V346H346V266Z" fill="#121212"/><rect x="206" y="322" width="100" height="24" fill="#121212"/></g><g face='34'><path d="M206 162H238" stroke="#121212" stroke-width="6"/><path d="M206 202C206 202 212 194 222 194C232 194 238 202 238 202" stroke="#121212" stroke-width="6"/><path d="M274 202C274 202 280 194 290 194C300 194 306 202 306 202" stroke="#121212" stroke-width="6"/><path d="M274 162H306" stroke="#121212" stroke-width="6"/><path d="M216 284H296L292 301L288 317H224L220 301L216 284Z" fill="white"/><path d="M220 301L224 317H288L292 301M220 301L216 284H296L292 301M220 301H292" stroke="#121212" stroke-width="6"/><path d="M256 218L266 258H246" stroke="#121212" stroke-width="6"/><path d="M256.25 401.5C219 401.5 199 377.5 199 377.5L245.841 301H266.659L313.5 377.5C313.5 377.5 293.5 401.5 256.25 401.5Z" fill="#FFB74A" stroke="#121212" stroke-width="6"/><path d="M256.25 401.5C219 401.5 199 377.5 199 377.5L206.654 365C206.654 365 224.5 384 256.25 384C285 384 305.846 365 305.846 365L313.5 377.5C313.5 377.5 293.5 401.5 256.25 401.5Z" fill="#FF9900" stroke="#121212" stroke-width="6"/><circle cx="241" cy="359" r="12" fill="#D22D27"/><circle cx="257" cy="321" r="10" fill="#D22D27"/><circle cx="273" cy="351" r="10" fill="#D22D27"/></g><g glass='1'><path fill="#fff" fill-opacity=".4" d="M190 175h56v56h-56v-56Z"/><path stroke="#121212" stroke-width="6" d="M190 175h56v56h-56v-56Zm0 0h-24M247 184h19"/><path fill="#fff" fill-opacity=".4" d="M266 175h56v56h-56v-56Z"/><path stroke="#121212" stroke-width="6" d="M322 175h-56v56h56v-56Zm0 0h24"/></g></svg>