<svg xmlns="http://www.w3.org/2000/svg" width="512" height="512" fill="none"><rect width="512" height="512" fill="#FFD600 "/><g skin='0'><path fill="#E24713" d="M134 178h32v64h-20l-12-64ZM378 178h-32v64h20l12-64ZM207 346h98v54h-98z"/><path fill="#F15824" d="M64 400h384l32 112H32l32-112ZM166 106h180v240H166z"/></g><g hair='47'><path fill="#121212" d="M166 138v40h-14l-10-77 114.25-65 114.25 65-12.5 77h-12v-40H166Z"/></g><g dress='65'><path fill="#77492D" d="M64 400h96s0 72 96 72 96-72 96-72h96l32 112H32l32-112Z"/><path fill="#8B634A" d="M207 346s-63.879 2.092-75 30.5c-5.99 15.3 3 23.501 3 23.501s-8.001 7-8 19c.001 12 8 19.5 8 19.5s-8 5-8 19 8 19 8 19-8 5.25-8 17c0 11.749 8 18.499 8 18.499h72V346ZM305 346s63.879 2.092 75 30.5c5.99 15.3-3 23.501-3 23.501s8.001 7 8 19c-.001 12-8 19.5-8 19.5s8 5 8 19-8 19-8 19 8 5.25 8 17c0 11.749-8 18.499-8 18.499h-72V346Z"/><path fill="#121212" d="M207 400h98v112h-98z"/><path fill="#2D2D2D" d="m236 456 7.629 24h4.228l-7.565-24H236Zm36.078 0-8.01 24h4.292l7.947-24h-4.229Zm-22.425 12.652h6.2l-6.74 8.487V480h13.478v-4.101h-6.573l6.796-8.487v-2.861h-13.161v4.101Z"/></g><g beard='8'><rect x="204" y="286" width="12" height="60" fill="#121212"/><rect x="296" y="286" width="12" height="60" fill="#121212"/><rect x="244" y="322" width="24" height="12" fill="#121212"/><path d="M204 334H308V346L256 370L204 346V334Z" fill="#121212"/></g><g face='33'><rect width="20" height="20" x="212" y="194" fill="#121212" rx="10"><animate attributeName="rx" begin="1s" dur="2s" keyTimes="0;0.25;0.3;0.35;1" repeatCount="indefinite" values="10;10;1;10;10"/><animate attributeName="height" begin="1s" dur="2s" keyTimes="0;0.25;0.3;0.35;1" repeatCount="indefinite" values="20;20;2;20;20"/><animate attributeName="y" begin="1s" dur="2s" keyTimes="0;0.25;0.3;0.35;1" repeatCount="indefinite" values="194;194;203;194;194"/></rect><rect width="20" height="20" x="280" y="194" fill="#121212" rx="10"><animate attributeName="rx" begin="1s" dur="2s" keyTimes="0;0.25;0.3;0.35;1" repeatCount="indefinite" values="10;10;1;10;10"/><animate attributeName="height" begin="1s" dur="2s" keyTimes="0;0.25;0.3;0.35;1" repeatCount="indefinite" values="20;20;2;20;20"/><animate attributeName="y" begin="1s" dur="2s" keyTimes="0;0.25;0.3;0.35;1" repeatCount="indefinite" values="194;194;203;194;194"/></rect><path d="M206 162H238" stroke="#121212" stroke-width="6"/><path d="M274 162H306" stroke="#121212" stroke-width="6"/><path d="M216 284H296L292 301L288 317H224L220 301L216 284Z" fill="white"/><path d="M220 301L224 317H288L292 301M220 301L216 284H296L292 301M220 301H292" stroke="#121212" stroke-width="6"/><path d="M256 218L266 258H246" stroke="#121212" stroke-width="6"/><path d="M256.25 401.5C219 401.5 199 377.5 199 377.5L245.841 301H266.659L313.5 377.5C313.5 377.5 293.5 401.5 256.25 401.5Z" fill="#FFB74A" stroke="#121212" stroke-width="6"/><path d="M256.25 401.5C219 401.5 199 377.5 199 377.5L206.654 365C206.654 365 224.5 384 256.25 384C285 384 305.846 365 305.846 365L313.5 377.5C313.5 377.5 293.5 401.5 256.25 401.5Z" fill="#FF9900" stroke="#121212" stroke-width="6"/><circle cx="241" cy="359" r="12" fill="#D22D27"/><circle cx="257" cy="321" r="10" fill="#D22D27"/><circle cx="273" cy="351" r="10" fill="#D22D27"/></g><g glass='5'><path fill="#fff" fill-opacity=".4" d="M192 203c0-15.464 12.536-28 28-28s28 12.536 28 28-12.536 28-28 28-28-12.536-28-28Z"/><path stroke="#121212" stroke-width="6" d="M192 203c0 15.464 12.536 28 28 28s28-12.536 28-28-12.536-28-28-28-28 12.536-28 28Zm0 0-28-27M248 202h16"/><path fill="#fff" fill-opacity=".4" d="M264 203c0-15.464 12.536-28 28-28s28 12.536 28 28-12.536 28-28 28-28-12.536-28-28Z"/><path stroke="#121212" stroke-width="6" d="M320 203c0-15.464-12.536-28-28-28s-28 12.536-28 28 12.536 28 28 28 28-12.536 28-28Zm0 0 28-27"/></g></svg>