<svg xmlns="http://www.w3.org/2000/svg" width="512" height="512" fill="none"><rect width="512" height="512" fill="#572828 "/><g skin='10'><path fill="#56C499" d="M134 178h32v64h-20l-12-64ZM378 178h-32v64h20l12-64Z"/><path fill="#82DCB9" d="M64 400h384l32 112H32l32-112Z"/><path fill="#D22D27" d="M87.5 427.5V400h68l-41 27.5h-27Z"/><path fill="#56C499" d="M207 346h98v54h-98z"/><path fill="#82DCB9" d="m207 377 98-12v4l-98 12v-4Z"/><path fill="#FF00B1" d="M190 118.5s-10.505-3.476-16.5 2.948c-5.596 5.995 0 18.552 0 18.552s-5.89 3.714-7 9c-2.205 10.5 4.499 15.5 4.499 15.5v8.5H192.5l35.5-63h-8s-5.5-3.667-16-2.5c-8.999 1-14 11-14 11Z"/><path fill="#82DCB9" d="M346 346V106H223l-16.5 20v16H188v15l-22 9v180h180Z"/><path fill="#D22D27" d="m294 136.5 52 12v9.5l-52-21.5Z"/><path fill="#fff" d="m313.762 134 3.625 1.69-6.762 14.501-3.625-1.69zM223 369.349l3.985-.349 1.394 15.94-3.985.348zM253 365.349l3.985-.349 1.394 15.94-3.985.348zM283 361.349l3.985-.349 1.394 15.94-3.985.348zM331.141 141l3.864 1.035-4.141 15.455-3.864-1.035zM147.129 383.208 124.576 375l-1.368 3.758 22.553 8.209zM136.364 383.547l-3.759-1.368-8.208 22.553 3.759 1.368zM115 385H91v4h24zM105 389h-4v24h4z"/></g><g hair='67'><path fill="#00A8FF" d="M166 122h180v40H166z"/><path fill="#A7DAFF" d="M220 126h72v32h-72z"/><path fill="#00A8FF" d="m243 134 5.086 16h2.819l-5.044-16H243Zm24.052 0-5.34 16h2.861l5.298-16h-2.819Zm-14.95 8.434h4.133l-4.493 5.659V150h8.985v-2.734h-4.382l4.531-5.658v-1.907h-8.774v2.733Z"/></g><g dress='75'><g clip-path="url(#a)"><path fill="#454545" d="M207 512h98v-73h-98v73Z"/><path fill="#606060" d="M207 439v-39l50 39h-50ZM305 439v-39l-48 39h48Z"/><path fill="#1D1D1D" d="M241 439h32l-8 24h-16l-8-24ZM241 512h32l-8-49h-16l-8 49Z"/><path fill="#121212" d="M64 400h112v112H32l32-112ZM448 400H336v112h144l-32-112Z"/><path fill="#1D1D1D" d="M137 400h70v112h-41l-29-55.5 29-21.5-29-35ZM375 400h-70v112h41l29-55.5-29-21.5 29-35Z"/><path fill="#121212" d="M207 512h98v-73l-48 40-50-40v73Z"/><circle cx="272" cy="488" r="6" fill="#1D1D1D"/><circle cx="272" cy="512" r="6" fill="#1D1D1D"/><path stroke="#1D1D1D" stroke-width="6" d="M257 476v36"/></g><defs><clipPath id="a"><path fill="#fff" d="M0 0h512v512H0z"/></clipPath></defs></g><g beard='1'><path d="M166 266L206 286V346H166V266Z" fill="#121212"/><path d="M346 266L306 286V346H346V266Z" fill="#121212"/><rect x="206" y="322" width="100" height="24" fill="#121212"/></g><g face='5'><path d="M206 162H238" stroke="#121212" stroke-width="6"/><path d="M210.687 217.313L233.314 194.686" stroke="#121212" stroke-width="6"/><path d="M279 217.313L301.627 194.686" stroke="#121212" stroke-width="6"/><path d="M210.687 194.687L233.314 217.314" stroke="#121212" stroke-width="6"/><path d="M279 194.687L301.627 217.314" stroke="#121212" stroke-width="6"/><path d="M274 162H306" stroke="#121212" stroke-width="6"/><path d="M256 218L266 258H246" stroke="#121212" stroke-width="6"/><path d="M284 309.25V290H261.5V309.25C261.5 315.463 266.537 320.5 272.75 320.5C278.963 320.5 284 315.463 284 309.25Z" fill="white"/><path d="M228 290H261.5M261.5 290H284V309.25C284 315.463 278.963 320.5 272.75 320.5V320.5C266.537 320.5 261.5 315.463 261.5 309.25V290Z" stroke="#121212" stroke-width="6"/></g><g glass='3'><path fill="red" fill-opacity=".4" d="M190 175h56v56h-56v-56Z"/><path stroke="#121212" stroke-width="6" d="M190 175h56v56h-56v-56Zm0 0h-24M247 184h19"/><path fill="#0075FF" fill-opacity=".4" d="M266 175h56v56h-56v-56Z"/><path stroke="#121212" stroke-width="6" d="M322 175h-56v56h56v-56Zm0 0h24"/></g></svg>