<svg xmlns="http://www.w3.org/2000/svg" width="512" height="512" fill="none"><rect width="512" height="512" fill="#FF9900 "/><g skin='6'><path fill="#36CF00" d="M134 178h32v64h-20l-12-64ZM378 178h-32v64h20l12-64Z"/><path fill="#3BE200" d="M64 400h384l32 112H32l32-112Z"/><path fill="#36CF00" d="M207 346h98v54h-98z"/><path fill="#3BE200" d="M166 106h180v240H166z"/></g><g hair='55'><path fill="#121212" d="m166 106 53.5-33v33l69-33v33L346 73v81H166v-48ZM166 154h12v40h-12zM334 154h12v40h-12z"/></g><g dress='48'><path fill="#00A8FF" d="M207 372h98v28h-98zM64 400h384l32 112H32l32-112Z"/><path fill="#0082C5" d="M96 463h80v16H96zM356 452l7.629 24h4.228l-7.565-24H356Zm36.078 0-8.01 24h4.292l7.947-24h-4.229Zm-22.425 12.652h6.2l-6.74 8.487V476h13.478v-4.101h-6.573l6.796-8.487v-2.861h-13.161v4.101Z"/><circle cx="274" cy="438" r="6" fill="#fff"/><circle cx="274" cy="478" r="6" fill="#fff"/><path stroke="#0082C5" stroke-width="6" d="M207 397h49m49 0h-49m0 0v115"/><path fill="#0082C5" d="M96 400h80v32H96zM336 400h80v32h-80z"/><circle cx="354" cy="416" r="6" fill="#fff"/><circle cx="158" cy="416" r="6" fill="#fff"/><path fill="#fff" d="M234 380h12v8h-12zM266 380h12v8h-12z"/><path fill="#0082C5" d="M336 484h20v16h-20z"/><path fill="#008ED8" d="M356 484h20v16h-20z"/><path fill="#3ABCFF" d="M376 484h20v16h-20z"/><path fill="#87D6FF" d="M396 484h20v16h-20z"/></g><g beard='5'><rect x="166" y="242" width="12" height="104" fill="#121212"/><rect x="334" y="242" width="12" height="104" fill="#121212"/><path d="M178 334H217L256 322L295 334H334V346H178V334Z" fill="#121212"/></g><g face='28'><rect width="20" height="20" x="212" y="194" fill="#121212" rx="10"><animate attributeName="rx" begin="1s" dur="2s" keyTimes="0;0.25;0.3;0.35;1" repeatCount="indefinite" values="10;10;1;10;10"/><animate attributeName="height" begin="1s" dur="2s" keyTimes="0;0.25;0.3;0.35;1" repeatCount="indefinite" values="20;20;2;20;20"/><animate attributeName="y" begin="1s" dur="2s" keyTimes="0;0.25;0.3;0.35;1" repeatCount="indefinite" values="194;194;203;194;194"/></rect><rect width="20" height="20" x="280" y="194" fill="#121212" rx="10"><animate attributeName="rx" begin="1s" dur="2s" keyTimes="0;0.25;0.3;0.35;1" repeatCount="indefinite" values="10;10;1;10;10"/><animate attributeName="height" begin="1s" dur="2s" keyTimes="0;0.25;0.3;0.35;1" repeatCount="indefinite" values="20;20;2;20;20"/><animate attributeName="y" begin="1s" dur="2s" keyTimes="0;0.25;0.3;0.35;1" repeatCount="indefinite" values="194;194;203;194;194"/></rect><path d="M206 197H238" stroke="#121212" stroke-width="6"/><path d="M274 197H306" stroke="#121212" stroke-width="6"/><path d="M256 218L266 258H246" stroke="#121212" stroke-width="6"/><path d="M216 284H296L292 301L288 317H224L220 301L216 284Z" fill="white"/><path d="M220 301L224 317H288L292 301M220 301L216 284H296L292 301M220 301H292" stroke="#121212" stroke-width="6"/><rect width="24" height="48" transform="matrix(0 -1 -1 0 185 313)" fill="#2D2D2D"/><path d="M199.785 325H187.83V301M199.785 277H187.83V301M187.83 301H275" stroke="#2D2D2D" stroke-width="6"/><path d="M134 317V301V285" stroke="#2D2D2D" stroke-width="6"/></g><g glass='10'><path fill="#121212" d="M166 178h180v52l-69 4-21-16-21 16-69-4v-52Z"/><path fill="#D22D27" d="M182 194h148v20H182z"/></g></svg>