<svg xmlns="http://www.w3.org/2000/svg" width="512" height="512" fill="none"><rect width="512" height="512" fill="#7000FF "/><g skin='0'><path fill="#E24713" d="M134 178h32v64h-20l-12-64ZM378 178h-32v64h20l12-64ZM207 346h98v54h-98z"/><path fill="#F15824" d="M64 400h384l32 112H32l32-112ZM166 106h180v240H166z"/></g><g hair='5'><path fill="#121212" d="M165.999 106v240h-61c-30-46 24-67.75 24-67.75s-24-6.75-24-33.875 24-33.875 24-33.875-24-10-24-33.875 24-33.875 24-33.875-11.691-39.25 8.501-58.25 55.249-9.5 55.249-9.5 8.75-40 63.75-40 63.75 40 63.75 40S357.5 66.215 377 84.5s7.249 58.25 7.249 58.25 24.22 3.75 24.5 33.875c.25 26.875-24 33.875-24 33.875s24.5 7.25 24.25 33.875-24.25 33.875-24.25 33.875S441 299 408.999 346h-63V106h-180Z"/><ellipse cx="174.5" cy="124.5" fill="#121212" rx="37.5" ry="33.5"/><ellipse cx="256" cy="106" fill="#121212" rx="61" ry="45"/><ellipse cx="335" cy="124.5" fill="#121212" rx="40" ry="33.5"/><path fill="#fff" d="M115 155h51v95h-51zM346 155h51v95h-51zM166 106v49h-28V77h236v78h-28v-49H166Z"/></g><g dress='60'><path fill="#D22D27" d="M64 400h384l32 112H32l32-112Z"/><path fill="#BF0700" d="M460 400H52l-16 56h440l-16-56Z"/><path fill="#FFB74A" d="M207 376h98v24h-98z"/><circle cx="221" cy="388" r="6" fill="#fff"/><circle cx="244" cy="388" r="6" fill="#fff"/><circle cx="267" cy="388" r="6" fill="#fff"/><circle cx="290" cy="388" r="6" fill="#fff"/><path fill="#FFB74A" d="M37.137 452h437.717l8.013 28H29.144l7.993-28Z"/><path fill="#FFB74A" d="M244 400h24v112h-24z"/><circle cx="256" cy="414" r="6" fill="#fff"/><circle cx="256" cy="438" r="6" fill="#fff"/><circle cx="256" cy="466" r="6" fill="#fff"/><circle cx="60" cy="466" r="6" fill="#fff"/><circle cx="296" cy="466" r="6" fill="#fff"/><circle cx="99" cy="466" r="6" fill="#fff"/><circle cx="334" cy="466" r="6" fill="#fff"/><circle cx="138" cy="466" r="6" fill="#fff"/><circle cx="372" cy="466" r="6" fill="#fff"/><circle cx="177" cy="466" r="6" fill="#fff"/><circle cx="410" cy="466" r="6" fill="#fff"/><circle cx="216" cy="466" r="6" fill="#fff"/><circle cx="448" cy="466" r="6" fill="#fff"/></g><g beard='7'><rect x="204" y="286" width="12" height="60" fill="#121212"/><rect x="296" y="286" width="12" height="60" fill="#121212"/><rect x="250" y="322" width="12" height="24" fill="#121212"/><rect x="204" y="274" width="104" height="12" fill="#121212"/><rect x="196" y="334" width="120" height="12" fill="#121212"/><path d="M166 258L196 274V346H166V258Z" fill="#121212"/><path d="M346 258L316 274V346H346V258Z" fill="#121212"/></g><g face='25'><rect width="20" height="20" x="212" y="194" fill="#121212" rx="10"><animate attributeName="rx" begin="1s" dur="2s" keyTimes="0;0.25;0.3;0.35;1" repeatCount="indefinite" values="10;10;1;10;10"/><animate attributeName="height" begin="1s" dur="2s" keyTimes="0;0.25;0.3;0.35;1" repeatCount="indefinite" values="20;20;2;20;20"/><animate attributeName="y" begin="1s" dur="2s" keyTimes="0;0.25;0.3;0.35;1" repeatCount="indefinite" values="194;194;203;194;194"/></rect><rect width="20" height="20" x="280" y="194" fill="#121212" rx="10"><animate attributeName="rx" begin="1s" dur="2s" keyTimes="0;0.25;0.3;0.35;1" repeatCount="indefinite" values="10;10;1;10;10"/><animate attributeName="height" begin="1s" dur="2s" keyTimes="0;0.25;0.3;0.35;1" repeatCount="indefinite" values="20;20;2;20;20"/><animate attributeName="y" begin="1s" dur="2s" keyTimes="0;0.25;0.3;0.35;1" repeatCount="indefinite" values="194;194;203;194;194"/></rect><path d="M206 197H238" stroke="#121212" stroke-width="6"/><path d="M274 197H306" stroke="#121212" stroke-width="6"/><path d="M230.711 302H280" stroke="#121212" stroke-width="6"/><path d="M256 218L266 258H246" stroke="#121212" stroke-width="6"/><path d="M277.61 301.679L354.933 356.968L364.554 340.304L277.61 301.679Z" fill="white" stroke="#121212" stroke-width="6"/><path d="M277.61 301.679L322.241 333.592L327.767 324.022L277.61 301.679Z" fill="#FFB74A" stroke="#121212" stroke-width="6"/></g><g glass='1'><path fill="#fff" fill-opacity=".4" d="M190 175h56v56h-56v-56Z"/><path stroke="#121212" stroke-width="6" d="M190 175h56v56h-56v-56Zm0 0h-24M247 184h19"/><path fill="#fff" fill-opacity=".4" d="M266 175h56v56h-56v-56Z"/><path stroke="#121212" stroke-width="6" d="M322 175h-56v56h56v-56Zm0 0h24"/></g></svg>