<svg xmlns="http://www.w3.org/2000/svg" width="512" height="512" fill="none"><rect width="512" height="512" fill="#00FF94 "/><g skin='0'><path fill="#E24713" d="M134 178h32v64h-20l-12-64ZM378 178h-32v64h20l12-64ZM207 346h98v54h-98z"/><path fill="#F15824" d="M64 400h384l32 112H32l32-112ZM166 106h180v240H166z"/></g><g hair='18'><path fill="#121212" d="m194 238-16-104V62h-12v176h28ZM318 238l16-104V62h12v176h-28ZM236 62h40v12h-40z"/><path fill="#8B634A" d="M106 146h300v16H106zM390 122h16v24h-16zM106 122h16v24h-16zM166 26h180v120H166z"/><path fill="#77492D" d="M166 106h180v40H166z"/><path fill="#8B634A" d="m236 114 7.629 24h4.228l-7.565-24H236Zm36.078 0-8.01 24h4.292l7.947-24h-4.229Zm-22.425 12.652h6.2l-6.74 8.487V138h13.478v-4.101h-6.573l6.796-8.487v-2.861h-13.161v4.101Z"/></g><g dress='58'><path fill="#fff" d="M207 512h98v-73h-98v73Z"/><path fill="#C9C9C9" d="M207 439v-39l50 39h-50ZM305 439v-39l-48 39h48Z"/><path fill="#121212" d="M241 439h32l-8 24h-16l-8-24ZM241 512h32l-8-49h-16l-8 49Z"/><path fill="#001D55" d="M64 400h143v112H32l32-112ZM448 400H305v112h175l-32-112Z"/><path fill="#FFB74A" d="M207 512h98v-49l-48 36-50-36v49Z"/><path fill="#001D55" d="M183 368h24v32h-24zM305 368h24v32h-24z"/><path fill="#FFB74A" d="M32 400h95v16.5c0 26.234-21.266 47.5-47.5 47.5-26.233 0-47.5-21.266-47.5-47.5V400ZM74 494v-24h12v24zM427 494v-24h12v24z"/><path stroke="#fff" stroke-width="12" d="M32 400v16.5c0 26.234 21.267 47.5 47.5 47.5 26.234 0 47.5-21.266 47.5-47.5V400"/><path fill="#FFB74A" d="M385 400h95v16.5c0 26.234-21.266 47.5-47.5 47.5S385 442.734 385 416.5V400Z"/><path stroke="#fff" stroke-width="12" d="M385 400v16.5c0 26.234 21.266 47.5 47.5 47.5s47.5-21.266 47.5-47.5V400"/><path fill="#fff" d="M155 450h28v12h-28zM329 450h28v12h-28zM155 484h28v12h-28zM329 484h28v12h-28z"/></g><g beard='5'><rect x="166" y="242" width="12" height="104" fill="#121212"/><rect x="334" y="242" width="12" height="104" fill="#121212"/><path d="M178 334H217L256 322L295 334H334V346H178V334Z" fill="#121212"/></g><g face='20'><path d="M296 307.5H216L296 282V307.5Z" fill="white"/><path d="M208.144 160L235.856 176" stroke="#121212" stroke-width="6"/><path d="M276.144 176L303.856 160" stroke="#121212" stroke-width="6"/><rect width="20" height="20" x="212" y="194" fill="#121212" rx="10"><animate attributeName="rx" begin="1s" dur="2s" keyTimes="0;0.25;0.3;0.35;1" repeatCount="indefinite" values="10;10;1;10;10"/><animate attributeName="height" begin="1s" dur="2s" keyTimes="0;0.25;0.3;0.35;1" repeatCount="indefinite" values="20;20;2;20;20"/><animate attributeName="y" begin="1s" dur="2s" keyTimes="0;0.25;0.3;0.35;1" repeatCount="indefinite" values="194;194;203;194;194"/></rect><rect width="20" height="20" x="280" y="194" fill="#121212" rx="10"><animate attributeName="rx" begin="1s" dur="2s" keyTimes="0;0.25;0.3;0.35;1" repeatCount="indefinite" values="10;10;1;10;10"/><animate attributeName="height" begin="1s" dur="2s" keyTimes="0;0.25;0.3;0.35;1" repeatCount="indefinite" values="20;20;2;20;20"/><animate attributeName="y" begin="1s" dur="2s" keyTimes="0;0.25;0.3;0.35;1" repeatCount="indefinite" values="194;194;203;194;194"/></rect><path d="M256 218L266 258H246" stroke="#121212" stroke-width="6"/></g><g glass='4'><path fill="#121212" d="M190 175h56v56h-56v-56Z"/><path stroke="#121212" stroke-width="6" d="M190 175h56m-56 0v56h56v-56m-56 0h-24m80 0h100"/></g></svg>