<svg xmlns="http://www.w3.org/2000/svg" width="512" height="512" fill="none"><rect width="512" height="512" fill="#0047FF "/><g skin='3'><path fill="#E24713" d="M134 178h32v64h-20l-12-64ZM378 178h-32v64h20l12-64Z"/><path fill="#C9C9C9" d="M207 346h98v9h-98z"/><path fill="#D9D9D9" d="M207 355h98v9h-98z"/><path fill="#C9C9C9" d="M207 364h98v9h-98z"/><path fill="#D9D9D9" d="M207 373h98v9h-98z"/><path fill="#C9C9C9" d="M207 382h98v9h-98z"/><path fill="#D9D9D9" d="M207 391h98v9h-98z"/><path fill="#F15824" d="M64 400h384l32 112H32l32-112Z"/><path fill="#D9D9D9" d="M64 400h56v88H76v24H32l32-112Z"/><path fill="#F15824" d="M166 106h180v240H166z"/><path fill="#D9D9D9" d="M264 146h82v200h-16.5V244.5L264 226v-80ZM166 106h40v44h-40v-44ZM234 322h44v24h-44z"/><circle cx="148" cy="436" r="12" fill="#D9D9D9"/><circle cx="332" cy="160" r="6" fill="#C9C9C9"/><circle cx="332" cy="180" r="6" fill="#C9C9C9"/><circle cx="92" cy="436" r="12" fill="#C9C9C9"/></g><g hair='61'><path fill="#D22D27" d="M239 82.97 255.971 42l16.97 40.97-16.97 16.971L239 82.971Z"/><path fill="#D22D27" d="M239 82.97 255.971 42l16.97 40.97-16.97 16.971L239 82.971Z"/><path fill="#F90" d="m246.31 85.81 9.712-23.332 9.598 23.285-9.679 9.678-9.631-9.63Z"/><path fill="#D22D27" d="M277 82.97 293.971 42l16.97 40.97-16.97 16.971L277 82.971ZM312.723 76.782 325.059 47l12.336 29.782-12.336 12.336-12.336-12.336ZM202 82.97 218.971 42l16.97 40.97-16.97 16.971L202 82.971ZM177.723 73.782 190.059 44l12.336 29.782-12.336 12.336-12.336-12.336ZM159.664 61.752 169.088 39l9.425 22.752-9.425 9.425-9.424-9.425ZM249.611 35.744 256.132 20l6.522 15.744-6.522 6.52-6.521-6.52ZM234.611 35.744 241.132 20l6.522 15.744-6.522 6.52-6.521-6.52ZM219.611 37.744 226.132 22l6.522 15.744-6.522 6.52-6.521-6.52ZM204.611 38.744 211.132 23l6.522 15.744-6.522 6.52-6.521-6.52ZM191.611 41.744 198.132 26l6.522 15.744-6.522 6.52-6.521-6.52ZM174.611 44.744 181.132 29l6.522 15.744-6.522 6.52-6.521-6.52ZM264.611 35.744 271.132 20l6.522 15.744-6.522 6.52-6.521-6.52ZM279.611 36.744 286.132 21l6.522 15.744-6.522 6.52-6.521-6.52ZM295.611 39.744 302.132 24l6.522 15.744-6.522 6.52-6.521-6.52ZM310.611 41.744 317.132 26l6.522 15.744-6.522 6.52-6.521-6.52ZM326.611 46.744 333.132 31l6.522 15.744-6.522 6.52-6.521-6.52ZM336.664 61.752 346.088 39l9.425 22.752-9.425 9.425-9.424-9.425Z"/><path fill="#F90" d="M283.81 85.332 293.522 62l9.598 23.285-9.679 9.678-9.631-9.63ZM208.81 85.332 218.522 62l9.598 23.285-9.679 9.678-9.631-9.63ZM182.054 75.315 189.261 58l7.122 17.28-7.182 7.182-7.147-7.147ZM163.658 62.533 168.875 50l5.155 12.508-5.199 5.199-5.173-5.174ZM177.447 45.385 180.938 37l3.448 8.368-3.478 3.478-3.461-3.461ZM194.447 42.385 197.938 34l3.448 8.368-3.478 3.478-3.461-3.461ZM207.447 39.385 210.938 31l3.448 8.368-3.478 3.478-3.461-3.461ZM222.447 38.385 225.938 30l3.448 8.368-3.478 3.478-3.461-3.461ZM237.447 36.385 240.938 28l3.448 8.368-3.478 3.478-3.461-3.461ZM252.447 36.385 255.938 28l3.448 8.368-3.478 3.478-3.461-3.461ZM267.447 36.385 270.938 28l3.448 8.368-3.478 3.478-3.461-3.461ZM282.447 37.385 285.938 29l3.448 8.368-3.478 3.478-3.461-3.461ZM298.447 40.385 301.938 32l3.448 8.368-3.478 3.478-3.461-3.461ZM313.447 42.385 316.938 34l3.448 8.368-3.478 3.478-3.461-3.461ZM329.447 47.385 332.938 39l3.448 8.368-3.478 3.478-3.461-3.461ZM318.054 77.315 325.261 60l7.122 17.28-7.182 7.182-7.147-7.147ZM340.658 63.533 345.875 51l5.155 12.508-5.199 5.199-5.173-5.174Z"/></g><g dress='52'><path fill="#FF008A" d="M448 400H336L171 512h309l-32-112Z"/><path fill="#FE8AC8" d="m338 456 7.629 24h4.228l-7.565-24H338Zm36.078 0-8.01 24h4.292l7.947-24h-4.229Zm-22.425 12.652h6.2l-6.74 8.487V480h13.478v-4.101h-6.573l6.796-8.487v-2.861h-13.161v4.101ZM370 400h-34L171 512h37l162-112Z"/><path fill="#FF008A" d="M64 400h112l165 112H32l32-112Z"/><path fill="#FE8AC8" d="M142 400h34l165 112h-37L142 400Z"/></g><g beard='9'><rect x="236" y="322" width="40" height="24" fill="#121212"/><rect x="166" y="242" width="12" height="104" fill="#121212"/><rect x="334" y="242" width="12" height="104" fill="#121212"/><path d="M166 286H207V346H166V286Z" fill="#121212"/><path d="M346 286H305V346H346V286Z" fill="#121212"/></g><g face='24'><rect width="20" height="20" x="212" y="194" fill="#121212" rx="10"><animate attributeName="rx" begin="1s" dur="2s" keyTimes="0;0.25;0.3;0.35;1" repeatCount="indefinite" values="10;10;1;10;10"/><animate attributeName="height" begin="1s" dur="2s" keyTimes="0;0.25;0.3;0.35;1" repeatCount="indefinite" values="20;20;2;20;20"/><animate attributeName="y" begin="1s" dur="2s" keyTimes="0;0.25;0.3;0.35;1" repeatCount="indefinite" values="194;194;203;194;194"/></rect><rect width="20" height="20" x="280" y="194" fill="#121212" rx="10"><animate attributeName="rx" begin="1s" dur="2s" keyTimes="0;0.25;0.3;0.35;1" repeatCount="indefinite" values="10;10;1;10;10"/><animate attributeName="height" begin="1s" dur="2s" keyTimes="0;0.25;0.3;0.35;1" repeatCount="indefinite" values="20;20;2;20;20"/><animate attributeName="y" begin="1s" dur="2s" keyTimes="0;0.25;0.3;0.35;1" repeatCount="indefinite" values="194;194;203;194;194"/></rect><path d="M206 197H238" stroke="#121212" stroke-width="6"/><path d="M274 197H306" stroke="#121212" stroke-width="6"/><path d="M230.711 302H280" stroke="#121212" stroke-width="6"/><path d="M256 218L266 258H246" stroke="#121212" stroke-width="6"/><path d="M374.191 370.784L386.191 350L277.75 301.825L374.191 370.784Z" fill="#77492D" stroke="#121212" stroke-width="6"/><path d="M351.27 334.486L343.134 348.577L330.874 339.811L337.485 328.362L351.27 334.486Z" fill="#FF9900" stroke="#121212" stroke-width="6"/><path d="M374.191 370.784L386.191 350L376.542 345.713L365.609 364.648L374.191 370.784Z" fill="white" stroke="#121212" stroke-width="6"/></g><g glass='11'><path fill="#121212" d="M182 175h64v20l-12 36h-52v-56Z"/><path stroke="#FFB74A" stroke-width="6" d="M182 175h64v20l-12 36h-52v-56Zm0 0h-16M247 175h19M247 193h19"/><path fill="#121212" d="M266 175h64v56h-52l-12-35.5V175Z"/><path stroke="#FFB74A" stroke-width="6" d="M330 175h-64v20.5l12 35.5h52v-56Zm0 0h16"/></g></svg>