<svg xmlns="http://www.w3.org/2000/svg" width="512" height="512" fill="none"><rect width="512" height="512" fill="#FFD600 "/><g skin='0'><path fill="#E24713" d="M134 178h32v64h-20l-12-64ZM378 178h-32v64h20l12-64ZM207 346h98v54h-98z"/><path fill="#F15824" d="M64 400h384l32 112H32l32-112ZM166 106h180v240H166z"/></g><g hair='2'><path fill="#121212" d="M166 106h180v48H166v-48ZM166 154h12v24h-12zM334 154h12v24h-12z"/><path fill="#fff" d="M115 155h51v95h-51zM346 155h51v95h-51zM166 106v49h-28V77h236v78h-28v-49H166Z"/></g><g dress='51'><path fill="#fff" d="M448 400H336L171 512h309l-32-112Z"/><path fill="#ECECEC" d="m338 456 7.629 24h4.228l-7.565-24H338Zm36.078 0-8.01 24h4.292l7.947-24h-4.229Zm-22.425 12.652h6.2l-6.74 8.487V480h13.478v-4.101h-6.573l6.796-8.487v-2.861h-13.161v4.101ZM370 400h-34L171 512h37l162-112Z"/><path fill="#fff" d="M64 400h112l165 112H32l32-112Z"/><path fill="#ECECEC" d="M142 400h34l165 112h-37L142 400Z"/></g><g beard='1'><path d="M166 266L206 286V346H166V266Z" fill="#121212"/><path d="M346 266L306 286V346H346V266Z" fill="#121212"/><rect x="206" y="322" width="100" height="24" fill="#121212"/></g><g face='31'><rect width="20" height="20" x="212" y="194" fill="#121212" rx="10"><animate attributeName="rx" begin="1s" dur="2s" keyTimes="0;0.25;0.3;0.35;1" repeatCount="indefinite" values="10;10;1;10;10"/><animate attributeName="height" begin="1s" dur="2s" keyTimes="0;0.25;0.3;0.35;1" repeatCount="indefinite" values="20;20;2;20;20"/><animate attributeName="y" begin="1s" dur="2s" keyTimes="0;0.25;0.3;0.35;1" repeatCount="indefinite" values="194;194;203;194;194"/></rect><rect width="20" height="20" x="280" y="194" fill="#121212" rx="10"><animate attributeName="rx" begin="1s" dur="2s" keyTimes="0;0.25;0.3;0.35;1" repeatCount="indefinite" values="10;10;1;10;10"/><animate attributeName="height" begin="1s" dur="2s" keyTimes="0;0.25;0.3;0.35;1" repeatCount="indefinite" values="20;20;2;20;20"/><animate attributeName="y" begin="1s" dur="2s" keyTimes="0;0.25;0.3;0.35;1" repeatCount="indefinite" values="194;194;203;194;194"/></rect><path d="M208.144 160L235.856 176" stroke="#121212" stroke-width="6"/><path d="M276.144 176L303.856 160" stroke="#121212" stroke-width="6"/><path d="M230.711 302H280" stroke="#121212" stroke-width="6"/><path d="M256 218L266 258H246" stroke="#121212" stroke-width="6"/><path d="M277.61 301.679L354.933 356.968L364.554 340.304L277.61 301.679Z" fill="white" stroke="#121212" stroke-width="6"/><path d="M277.61 301.679L322.241 333.592L327.767 324.022L277.61 301.679Z" fill="#FFB74A" stroke="#121212" stroke-width="6"/></g><g glass='20'><path fill="#42B16C" fill-opacity=".4" d="M192 203c0-15.464 12.536-28 28-28s28 12.536 28 28-12.536 28-28 28-28-12.536-28-28Z"/><path stroke="#121212" stroke-width="6" d="M192 203c0 15.464 12.536 28 28 28s28-12.536 28-28-12.536-28-28-28-28 12.536-28 28Zm0 0-28-27M248 202h16"/><path fill="#42B16C" fill-opacity=".4" d="M264 203c0-15.464 12.536-28 28-28s28 12.536 28 28-12.536 28-28 28-28-12.536-28-28Z"/><path stroke="#121212" stroke-width="6" d="M320 203c0-15.464-12.536-28-28-28s-28 12.536-28 28 12.536 28 28 28 28-12.536 28-28Zm0 0 28-27"/></g></svg>