<svg xmlns="http://www.w3.org/2000/svg" width="512" height="512" fill="none"><rect width="512" height="512" fill="#7B0000 "/><g skin='11'><path fill="#D5A300" d="M134 178h32v64h-20l-12-64ZM378 178h-32v64h20l12-64ZM207 346h98v54h-98z"/><path fill="#E3B41A" d="M64 400h384l32 112H32l32-112ZM166 106h180v240H166z"/></g><g hair='39'><path fill="#FFB74A" d="M106 146h300v16H106zM166 82h180v64H166z"/><path fill="#D22D27" d="M166 130h180v16H166z"/></g><g dress='54'><path fill="#121212" d="M64 400h96s0 72 96 72 96-72 96-72h96l32 112H32l32-112Z"/><path fill="#2D2D2D" d="m137 400 70-54v166h-41l-29-55.5 29-21.5-29-35Z"/><circle cx="159" cy="400" r="6" fill="#fff"/><circle cx="159" cy="458" r="6" fill="#fff"/><path fill="#2D2D2D" d="m375 400-70-54v166h41l29-55.5-29-21.5 29-35Z"/><circle cx="353" cy="400" r="6" fill="#fff"/><circle cx="353" cy="458" r="6" fill="#fff"/><path fill="#fff" d="M72 408h12l-6-24-6 24ZM72 440h12l-6-24-6 24ZM388 440h12l-6-24-6 24ZM388 408h12l-6-24-6 24ZM92 408h12l-6-24-6 24ZM92 440h12l-6-24-6 24ZM408 440h12l-6-24-6 24ZM408 408h12l-6-24-6 24ZM112 408h12l-6-24-6 24ZM112 440h12l-6-24-6 24ZM428 440h12l-6-24-6 24ZM428 408h12l-6-24-6 24Z"/></g><g beard='1'><path d="M166 266L206 286V346H166V266Z" fill="#121212"/><path d="M346 266L306 286V346H346V266Z" fill="#121212"/><rect x="206" y="322" width="100" height="24" fill="#121212"/></g><g face='4'><rect x="238" y="282" width="36" height="36" rx="18" fill="white"/><rect width="20" height="20" x="212" y="194" fill="#121212" rx="10"><animate attributeName="rx" begin="1s" dur="2s" keyTimes="0;0.25;0.3;0.35;1" repeatCount="indefinite" values="10;10;1;10;10"/><animate attributeName="height" begin="1s" dur="2s" keyTimes="0;0.25;0.3;0.35;1" repeatCount="indefinite" values="20;20;2;20;20"/><animate attributeName="y" begin="1s" dur="2s" keyTimes="0;0.25;0.3;0.35;1" repeatCount="indefinite" values="194;194;203;194;194"/></rect><rect width="20" height="20" x="280" y="194" fill="#121212" rx="10"><animate attributeName="rx" begin="1s" dur="2s" keyTimes="0;0.25;0.3;0.35;1" repeatCount="indefinite" values="10;10;1;10;10"/><animate attributeName="height" begin="1s" dur="2s" keyTimes="0;0.25;0.3;0.35;1" repeatCount="indefinite" values="20;20;2;20;20"/><animate attributeName="y" begin="1s" dur="2s" keyTimes="0;0.25;0.3;0.35;1" repeatCount="indefinite" values="194;194;203;194;194"/></rect><path d="M206.965 173.472L237.035 162.528" stroke="#121212" stroke-width="6"/><path d="M274.965 162.528L305.035 173.472" stroke="#121212" stroke-width="6"/><path d="M256 218L266 258H246" stroke="#121212" stroke-width="6"/></g><g glass='4'><path fill="#121212" d="M190 175h56v56h-56v-56Z"/><path stroke="#121212" stroke-width="6" d="M190 175h56m-56 0v56h56v-56m-56 0h-24m80 0h100"/></g></svg>