<svg xmlns="http://www.w3.org/2000/svg" width="512" height="512" fill="none"><rect width="512" height="512" fill="#572828 "/><g skin='11'><path fill="#D5A300" d="M134 178h32v64h-20l-12-64ZM378 178h-32v64h20l12-64ZM207 346h98v54h-98z"/><path fill="#E3B41A" d="M64 400h384l32 112H32l32-112ZM166 106h180v240H166z"/></g><g hair='25'><path fill="#96469A" d="M166 106c0-17.673 14.327-32 32-32h116c17.673 0 32 14.327 32 32H166ZM166 142h180v-36H166z"/><path fill="#704B9F" d="M166 166h180v-24H166z"/></g><g dress='91'><path fill="#fff" d="M207 481h98v-73s-15.5 24-48 24-50-24-50-24v73Z"/><path fill="#D33600" d="M64 400h143l50 67 48-67h143l32 112H32l32-112Z"/><path fill="#FF9672" d="m338 456 7.629 24h4.228l-7.565-24H338Zm36.078 0-8.01 24h4.292l7.947-24h-4.229Zm-22.425 12.652h6.2l-6.74 8.487V480h13.478v-4.101h-6.573l6.796-8.487v-2.861h-13.161v4.101Z"/><path fill="#121212" d="m183.974 464.098 6.828-12.841-.382-.203-4.493 3.645-2.839-1.51 6.59-5.085 4.895 2.603-7.887 14.834-2.712-1.443Zm9.581 5.095 6.828-12.842-.381-.202-4.493 3.645-2.84-1.51 6.591-5.085 4.895 2.603-7.887 14.833-2.713-1.442Zm9.582 5.094 6.828-12.841-.382-.203-4.493 3.645-2.84-1.51 6.591-5.085 4.895 2.603-7.887 14.834-2.712-1.443Zm9.581 5.095 6.828-12.842-.381-.202-4.494 3.645-2.839-1.51 6.59-5.085 4.896 2.603-7.888 14.833-2.712-1.442Z"/><path fill="#FF9672" d="m207 400 50 67-122-67h72ZM305 400l-48 67 122-67h-74Z"/><path stroke="#FF9672" stroke-width="6" d="M257 465v47"/></g><g beard='0'><path fill-rule="evenodd" clip-rule="evenodd" d="M346 266H166V349L256 382L346 349V266ZM297 281H215V323H297V281Z" fill="#121212"/></g><g face='0'><path d="M290.865 289.25L212.081 275.358C212.081 275.358 205.135 314.75 244.555 321.701C283.975 328.652 290.865 289.25 290.865 289.25Z" fill="white"/><rect width="20" height="20" x="212" y="194" fill="#121212" rx="10"><animate attributeName="rx" begin="1s" dur="2s" keyTimes="0;0.25;0.3;0.35;1" repeatCount="indefinite" values="10;10;1;10;10"/><animate attributeName="height" begin="1s" dur="2s" keyTimes="0;0.25;0.3;0.35;1" repeatCount="indefinite" values="20;20;2;20;20"/><animate attributeName="y" begin="1s" dur="2s" keyTimes="0;0.25;0.3;0.35;1" repeatCount="indefinite" values="194;194;203;194;194"/></rect><rect width="20" height="20" x="280" y="194" fill="#121212" rx="10"><animate attributeName="rx" begin="1s" dur="2s" keyTimes="0;0.25;0.3;0.35;1" repeatCount="indefinite" values="10;10;1;10;10"/><animate attributeName="height" begin="1s" dur="2s" keyTimes="0;0.25;0.3;0.35;1" repeatCount="indefinite" values="20;20;2;20;20"/><animate attributeName="y" begin="1s" dur="2s" keyTimes="0;0.25;0.3;0.35;1" repeatCount="indefinite" values="194;194;203;194;194"/></rect><path d="M206 162H238" stroke="#121212" stroke-width="6"/><path d="M274 162H306" stroke="#121212" stroke-width="6"/><path d="M256 218L266 258H246" stroke="#121212" stroke-width="6"/></g><g glass='12'><path fill="#121212" d="M166 172h80v64l-80 42V172Z"/><rect width="40" height="40" x="194" y="184" fill="#D22D27" rx="20"/><rect width="20" height="20" x="204" y="194" fill="#7B0000" rx="10"/><rect width="8" height="8" x="182" y="184" fill="#D22D27" rx="4"/></g></svg>