<svg xmlns="http://www.w3.org/2000/svg" width="512" height="512" fill="none"><rect width="512" height="512" fill="#7B0000 "/><g skin='3'><path fill="#E24713" d="M134 178h32v64h-20l-12-64ZM378 178h-32v64h20l12-64Z"/><path fill="#C9C9C9" d="M207 346h98v9h-98z"/><path fill="#D9D9D9" d="M207 355h98v9h-98z"/><path fill="#C9C9C9" d="M207 364h98v9h-98z"/><path fill="#D9D9D9" d="M207 373h98v9h-98z"/><path fill="#C9C9C9" d="M207 382h98v9h-98z"/><path fill="#D9D9D9" d="M207 391h98v9h-98z"/><path fill="#F15824" d="M64 400h384l32 112H32l32-112Z"/><path fill="#D9D9D9" d="M64 400h56v88H76v24H32l32-112Z"/><path fill="#F15824" d="M166 106h180v240H166z"/><path fill="#D9D9D9" d="M264 146h82v200h-16.5V244.5L264 226v-80ZM166 106h40v44h-40v-44ZM234 322h44v24h-44z"/><circle cx="148" cy="436" r="12" fill="#D9D9D9"/><circle cx="332" cy="160" r="6" fill="#C9C9C9"/><circle cx="332" cy="180" r="6" fill="#C9C9C9"/><circle cx="92" cy="436" r="12" fill="#C9C9C9"/></g><g hair='24'><path fill="#121212" d="M166 138v40h-14l-10-77 114.25-65 114.25 65-12.5 77h-12v-40H166Z"/><ellipse cx="256" cy="58" stroke="#E4A400" stroke-width="12" rx="90" ry="24"/></g><g dress='34'><path fill="#00A8FF" d="M64 400h143l50 39 48-39h143l32 112H32l32-112Z"/><mask id="a" width="448" height="112" x="32" y="400" maskUnits="userSpaceOnUse" style="mask-type:alpha"><path fill="#00A8FF" d="M64 400h143l50 39 48-39h143l32 112H32l32-112Z"/></mask><g stroke="#A7DAFF" stroke-width="6" mask="url(#a)"><path d="M37 348v200M0 416h504M0 456h504M0 496h504M77 348v200M117 348v200M157 348v200M197 348v200M237 348v200M277 348v200M317 348v200M357 348v200M397 348v200M437 348v200M477 348v200"/></g><path fill="#A7DAFF" d="m257 439-41.5 27.5-36-66.5 27.5-20 50 59ZM257 439l41.5 27.5 36-66.5-29.5-20-48 59Z"/></g><g beard='9'><rect x="236" y="322" width="40" height="24" fill="#121212"/><rect x="166" y="242" width="12" height="104" fill="#121212"/><rect x="334" y="242" width="12" height="104" fill="#121212"/><path d="M166 286H207V346H166V286Z" fill="#121212"/><path d="M346 286H305V346H346V286Z" fill="#121212"/></g><g face='19'><path d="M296 282H216C216 282 216 318 256.028 318C296.057 318 296 282 296 282Z" fill="white"/><rect width="20" height="20" x="212" y="194" fill="#121212" rx="10"><animate attributeName="rx" begin="1s" dur="2s" keyTimes="0;0.25;0.3;0.35;1" repeatCount="indefinite" values="10;10;1;10;10"/><animate attributeName="height" begin="1s" dur="2s" keyTimes="0;0.25;0.3;0.35;1" repeatCount="indefinite" values="20;20;2;20;20"/><animate attributeName="y" begin="1s" dur="2s" keyTimes="0;0.25;0.3;0.35;1" repeatCount="indefinite" values="194;194;203;194;194"/></rect><rect width="20" height="20" x="280" y="194" fill="#121212" rx="10"><animate attributeName="rx" begin="1s" dur="2s" keyTimes="0;0.25;0.3;0.35;1" repeatCount="indefinite" values="10;10;1;10;10"/><animate attributeName="height" begin="1s" dur="2s" keyTimes="0;0.25;0.3;0.35;1" repeatCount="indefinite" values="20;20;2;20;20"/><animate attributeName="y" begin="1s" dur="2s" keyTimes="0;0.25;0.3;0.35;1" repeatCount="indefinite" values="194;194;203;194;194"/></rect><path d="M206.965 173.472L237.035 162.528" stroke="#121212" stroke-width="6"/><path d="M274.965 162.528L305.035 173.472" stroke="#121212" stroke-width="6"/><path d="M256 218L266 258H246" stroke="#121212" stroke-width="6"/></g><g glass='17'><rect width="74" height="74" x="176" y="162" fill="#fff" rx="37"/><path fill="#fff" d="M166 162h49v16h-49zM242 178h28v20h-28zM346 162h-49v16h49z"/><rect width="56" height="56" x="190" y="171" fill="#D22D27" rx="28"/><rect width="74" height="74" x="262" y="162" fill="#fff" rx="37"/><rect width="56" height="56" x="266" y="171" fill="#D22D27" rx="28"/></g></svg>