<svg xmlns="http://www.w3.org/2000/svg" width="512" height="512" fill="none"><rect width="512" height="512" fill="#0047FF "/><g skin='10'><path fill="#56C499" d="M134 178h32v64h-20l-12-64ZM378 178h-32v64h20l12-64Z"/><path fill="#82DCB9" d="M64 400h384l32 112H32l32-112Z"/><path fill="#D22D27" d="M87.5 427.5V400h68l-41 27.5h-27Z"/><path fill="#56C499" d="M207 346h98v54h-98z"/><path fill="#82DCB9" d="m207 377 98-12v4l-98 12v-4Z"/><path fill="#FF00B1" d="M190 118.5s-10.505-3.476-16.5 2.948c-5.596 5.995 0 18.552 0 18.552s-5.89 3.714-7 9c-2.205 10.5 4.499 15.5 4.499 15.5v8.5H192.5l35.5-63h-8s-5.5-3.667-16-2.5c-8.999 1-14 11-14 11Z"/><path fill="#82DCB9" d="M346 346V106H223l-16.5 20v16H188v15l-22 9v180h180Z"/><path fill="#D22D27" d="m294 136.5 52 12v9.5l-52-21.5Z"/><path fill="#fff" d="m313.762 134 3.625 1.69-6.762 14.501-3.625-1.69zM223 369.349l3.985-.349 1.394 15.94-3.985.348zM253 365.349l3.985-.349 1.394 15.94-3.985.348zM283 361.349l3.985-.349 1.394 15.94-3.985.348zM331.141 141l3.864 1.035-4.141 15.455-3.864-1.035zM147.129 383.208 124.576 375l-1.368 3.758 22.553 8.209zM136.364 383.547l-3.759-1.368-8.208 22.553 3.759 1.368zM115 385H91v4h24zM105 389h-4v24h4z"/></g><g hair='68'><path fill="#D22D27" d="M166 122h180v40H166z"/><path fill="#FF9490" d="M220 126h72v32h-72z"/><path fill="#D22D27" d="m243 134 5.086 16h2.819l-5.044-16H243Zm24.052 0-5.34 16h2.861l5.298-16h-2.819Zm-14.95 8.434h4.133l-4.493 5.659V150h8.985v-2.734h-4.382l4.531-5.658v-1.907h-8.774v2.733Z"/></g><g dress='12'><path fill="#F15824" d="M64 400h384l32 112H32l32-112Z"/><path fill="#121212" d="M207 372h98v28h-98zM64 400h384l32 112H32l32-112Z"/><path fill="#2D2D2D" d="m338 456 7.629 24h4.228l-7.565-24H338Zm36.078 0-8.01 24h4.292l7.947-24h-4.229Zm-22.425 12.652h6.2l-6.74 8.487V480h13.478v-4.101h-6.573l6.796-8.487v-2.861h-13.161v4.101Z"/></g><g beard='2'><path d="M204 270H308L324 290H188L204 270Z" fill="#121212"/></g><g face='21'><path d="M230.711 302H280" stroke="#121212" stroke-width="6"/><path d="M343 318L278 302L355 349.5L368 323.5L375 309.5L352.5 299L345.75 312.5L343 318Z" fill="#77492D"/><path d="M368 323.5L375 309.5L352.5 299L345.75 312.5M368 323.5L355 349.5L278 302L343 318L345.75 312.5M368 323.5L345.75 312.5" stroke="#121212" stroke-width="6"/><path d="M208.144 160L235.856 176" stroke="#121212" stroke-width="6"/><path d="M276.144 176L303.856 160" stroke="#121212" stroke-width="6"/><rect width="20" height="20" x="212" y="194" fill="#121212" rx="10"><animate attributeName="rx" begin="1s" dur="2s" keyTimes="0;0.25;0.3;0.35;1" repeatCount="indefinite" values="10;10;1;10;10"/><animate attributeName="height" begin="1s" dur="2s" keyTimes="0;0.25;0.3;0.35;1" repeatCount="indefinite" values="20;20;2;20;20"/><animate attributeName="y" begin="1s" dur="2s" keyTimes="0;0.25;0.3;0.35;1" repeatCount="indefinite" values="194;194;203;194;194"/></rect><rect width="20" height="20" x="280" y="194" fill="#121212" rx="10"><animate attributeName="rx" begin="1s" dur="2s" keyTimes="0;0.25;0.3;0.35;1" repeatCount="indefinite" values="10;10;1;10;10"/><animate attributeName="height" begin="1s" dur="2s" keyTimes="0;0.25;0.3;0.35;1" repeatCount="indefinite" values="20;20;2;20;20"/><animate attributeName="y" begin="1s" dur="2s" keyTimes="0;0.25;0.3;0.35;1" repeatCount="indefinite" values="194;194;203;194;194"/></rect><path d="M256 218L266 258H246" stroke="#121212" stroke-width="6"/></g><g glass='9'><path stroke="#fff" stroke-width="6" d="M231.959 257.765c5.611-3.635 8.723-8.155 11.169-11.708a81.226 81.226 0 0 1 1.54-2.189c1.408-1.908 2.694-3.302 4.313-4.264 1.58-.939 3.716-1.604 7.019-1.604s5.439.665 7.019 1.604c1.619.962 2.905 2.356 4.313 4.264a81.226 81.226 0 0 1 1.54 2.189c2.446 3.553 5.558 8.073 11.169 11.708 9.751 6.316 22.676 8.257 35.154 8.235 31.746-.057 51.805-29.819 51.805-60.33 0-28.585-17.611-54.617-46.403-59.473C303.462 143.307 281.727 141 256 141c-25.727 0-47.462 2.307-64.597 5.197C162.611 151.053 145 177.085 145 205.67c0 30.511 20.058 60.273 51.805 60.33 12.478.022 25.403-1.918 35.154-8.235Z"/><path fill="#121212" fill-rule="evenodd" d="M191.902 149.155C164.845 153.718 148 178.232 148 205.67c0 29.508 19.302 57.277 48.81 57.33 12.266.022 24.491-1.906 33.518-7.753 5.062-3.279 7.786-7.221 10.226-10.753 3.587-5.191 6.56-9.494 15.446-9.494s11.859 4.303 15.446 9.494c2.44 3.532 5.164 7.474 10.226 10.753 9.027 5.847 21.252 7.775 33.518 7.753 29.508-.053 48.81-27.822 48.81-57.33 0-27.438-16.845-51.952-43.902-56.515C303.115 146.291 281.547 144 256 144c-25.547 0-47.115 2.291-64.098 5.155Zm6.817 22.955C184.104 174.524 174 187.405 174 202.218c0 14.725 9.992 27.807 24.65 29.207 12.127 1.159 25.796.934 33.661-4.181 2.642-1.718 5.197-4.21 7.788-6.736 4.903-4.781 9.931-9.684 15.901-9.684 5.97 0 10.998 4.903 15.901 9.684 2.591 2.526 5.146 5.018 7.788 6.736 7.865 5.115 21.534 5.34 33.661 4.181 14.658-1.4 24.65-14.482 24.65-29.207 0-14.813-10.104-27.694-24.719-30.108-15.36-2.536-36.152-5.11-57.281-5.11-21.129 0-41.921 2.574-57.281 5.11Z" clip-rule="evenodd"/><path fill="#0047FF" fill-opacity=".6" d="M174 202.218c0-14.813 10.104-27.694 24.719-30.108 15.36-2.536 36.152-5.11 57.281-5.11 21.129 0 41.921 2.574 57.281 5.11C327.896 174.524 338 187.405 338 202.218c0 14.725-9.992 27.807-24.65 29.207-12.127 1.159-25.796.934-33.661-4.181-7.642-4.969-14.565-16.42-23.689-16.42s-16.047 11.451-23.689 16.42c-7.865 5.115-21.534 5.34-33.661 4.181-14.658-1.4-24.65-14.482-24.65-29.207Z"/></g></svg>