<svg xmlns="http://www.w3.org/2000/svg" width="512" height="512" fill="none"><rect width="512" height="512" fill="#FFD600 "/><g skin='2'><path fill="#C19344" d="M134 178h32v64h-20l-12-64ZM378 178h-32v64h20l12-64ZM207 346h98v54h-98z"/><path fill="#D7A859" d="M64 400h384l32 112H32l32-112Z"/><path fill="#F5C676" d="M136 456h240v56H136z"/><path fill="#D7A859" d="M166 106h180v240H166z"/><path fill="#1D1D1D" d="M66.5 495.5c0 4.418-4.582 8.5-9 8.5s-8.5-5.082-8.5-9.5 1.582-7.5 6-7.5 11.5 4.082 11.5 8.5ZM444 495.5c0 4.418 4.582 8.5 9 8.5s8.5-5.082 8.5-9.5-1.582-7.5-6-7.5-11.5 4.082-11.5 8.5ZM140.5 431.5c0 4.418-4.582 8.5-9 8.5s-8.5-5.082-8.5-9.5 1.582-7.5 6-7.5 11.5 4.082 11.5 8.5ZM262.5 418.5c0 4.418-4.582 8.5-9 8.5s-8.5-5.082-8.5-9.5 1.582-7.5 6-7.5 11.5 4.082 11.5 8.5ZM230.5 384.5c0 4.418-4.582 8.5-9 8.5s-8.5-5.082-8.5-9.5 1.582-7.5 6-7.5 11.5 4.082 11.5 8.5ZM370 431.5c0 4.418 4.582 8.5 9 8.5s8.5-5.082 8.5-9.5-1.582-7.5-6-7.5-11.5 4.082-11.5 8.5ZM119.5 495c0 4.418-2.582 6.5-7 6.5s-6.5-2.082-6.5-6.5 1.082-8 5.5-8a8 8 0 0 1 8 8ZM221.5 441c0 4.418-2.582 6.5-7 6.5s-6.5-2.082-6.5-6.5 1.082-8 5.5-8a8 8 0 0 1 8 8ZM298.5 361c0 4.418-2.582 6.5-7 6.5s-6.5-2.082-6.5-6.5 1.082-8 5.5-8a8 8 0 0 1 8 8ZM391 495c0 4.418 2.582 6.5 7 6.5s6.5-2.082 6.5-6.5-1.082-8-5.5-8a8 8 0 0 0-8 8ZM195.5 416c0 4.418-2.582 6.5-7 6.5s-6.5-2.082-6.5-6.5 1.082-8 5.5-8a8 8 0 0 1 8 8ZM253.5 372c0 4.418-2.582 6.5-7 6.5s-6.5-2.082-6.5-6.5 1.082-8 5.5-8a8 8 0 0 1 8 8ZM195.5 124c0 4.418-2.582 6.5-7 6.5s-6.5-2.082-6.5-6.5 1.082-8 5.5-8a8 8 0 0 1 8 8ZM187.5 288c0 4.418-2.582 6.5-7 6.5s-6.5-2.082-6.5-6.5 1.082-8 5.5-8a8 8 0 0 1 8 8ZM325.5 310.5c0 4.418-4.582 8.5-9 8.5s-8.5-5.082-8.5-9.5 1.582-7.5 6-7.5 11.5 4.082 11.5 8.5ZM265.5 125c0 4.418-2.582 6.5-7 6.5s-6.5-2.082-6.5-6.5 1.082-8 5.5-8a8 8 0 0 1 8 8ZM156.5 188c0 4.418-2.582 6.5-7 6.5s-6.5-2.082-6.5-6.5 1.082-8 5.5-8a8 8 0 0 1 8 8ZM342.5 146c0 4.418-2.582 6.5-7 6.5s-6.5-2.082-6.5-6.5 1.082-8 5.5-8a8 8 0 0 1 8 8ZM338.5 276c0 4.418-2.582 6.5-7 6.5s-6.5-2.082-6.5-6.5 1.082-8 5.5-8a8 8 0 0 1 8 8ZM330.5 125c0 4.418-2.582 6.5-7 6.5s-6.5-2.082-6.5-6.5 1.082-8 5.5-8a8 8 0 0 1 8 8ZM331 415c0 4.418 2.582 6.5 7 6.5s6.5-2.082 6.5-6.5-1.082-8-5.5-8a8 8 0 0 0-8 8ZM79.5 439c0 4.418-2.582 6.5-7 6.5S66 443.418 66 439s1.082-8 5.5-8a8 8 0 0 1 8 8ZM431 439c0 4.418 2.582 6.5 7 6.5s6.5-2.082 6.5-6.5-1.082-8-5.5-8a8 8 0 0 0-8 8ZM89 480c0 4.418-2.082 6-6.5 6s-9.5-1.582-9.5-6 3.582-5 8-5 8 .582 8 5ZM421.5 480c0 4.418 2.082 6 6.5 6s9.5-1.582 9.5-6-3.582-5-8-5-8 .582-8 5ZM174 443c0 4.418-2.082 6-6.5 6s-9.5-1.582-9.5-6 3.582-5 8-5 8 .582 8 5ZM315 429c0 4.418-2.082 6-6.5 6s-9.5-1.582-9.5-6 3.582-5 8-5 8 .582 8 5ZM230 358c0 4.418-2.082 6-6.5 6s-9.5-1.582-9.5-6 3.582-5 8-5 8 .582 8 5ZM230 118c0 4.418-2.082 6-6.5 6s-9.5-1.582-9.5-6 3.582-5 8-5 8 .582 8 5ZM188 146c0 4.418-2.082 6-6.5 6s-9.5-1.582-9.5-6 3.582-5 8-5 8 .582 8 5ZM372 185c0 4.418-2.082 6-6.5 6s-9.5-1.582-9.5-6 3.582-5 8-5 8 .582 8 5ZM340 332c0 4.418-2.082 6-6.5 6s-9.5-1.582-9.5-6 3.582-5 8-5 8 .582 8 5ZM304 121c0 4.418-2.082 6-6.5 6s-9.5-1.582-9.5-6 3.582-5 8-5 8 .582 8 5ZM336.5 443c0 4.418 2.082 6 6.5 6s9.5-1.582 9.5-6-3.582-5-8-5-8 .582-8 5ZM105 415c0 4.418-2.082 6-6.5 6s-9.5-1.582-9.5-6 3.582-5 8-5 8 .582 8 5ZM405.5 415c0 4.418 2.082 6 6.5 6s9.5-1.582 9.5-6-3.582-5-8-5-8 .582-8 5ZM115.5 456.5c0 4.418-2.582 9-7 9s-11.5-4.582-11.5-9 4.082-10.5 8.5-10.5 10 6.082 10 10.5ZM200.5 327.5c0 4.418-2.582 9-7 9s-11.5-4.582-11.5-9 4.082-10.5 8.5-10.5 10 6.082 10 10.5ZM298.5 386.5c0 4.418-2.582 9-7 9s-11.5-4.582-11.5-9 4.082-10.5 8.5-10.5 10 6.082 10 10.5ZM395 456.5c0 4.418 2.582 9 7 9s11.5-4.582 11.5-9-4.082-10.5-8.5-10.5-10 6.082-10 10.5Z"/></g><g hair='2'><path fill="#121212" d="M166 106h180v48H166v-48ZM166 154h12v24h-12zM334 154h12v24h-12z"/><path fill="#fff" d="M115 155h51v95h-51zM346 155h51v95h-51zM166 106v49h-28V77h236v78h-28v-49H166Z"/></g><g dress='86'><path fill="#454545" d="M64 400h384l32 112H32l32-112Z"/><path fill="#121212" d="M448 400H336L171 512h309l-32-112Z"/><path fill="#1D1D1D" d="M370 400h-34L171 512h37l162-112Z"/><path fill="#121212" d="M64 400h112l165 112H32l32-112Z"/><path fill="#1D1D1D" d="M142 400h34l165 112h-37L142 400ZM207 364l98-4v30l-98-8v-18Z"/><path fill="#454545" d="M207 346h98v14l-98 8v-22Z"/><path fill="#121212" d="m207 378 98 8v14h-98v-22Z"/></g><g beard='8'><rect x="204" y="286" width="12" height="60" fill="#121212"/><rect x="296" y="286" width="12" height="60" fill="#121212"/><rect x="244" y="322" width="24" height="12" fill="#121212"/><path d="M204 334H308V346L256 370L204 346V334Z" fill="#121212"/></g><g face='15'><path d="M355 349.5L369.5 321L349.5 316.847L278 302L338.5 339.321L355 349.5Z" fill="white"/><path d="M349.5 316.847L369.5 321L355 349.5L338.5 339.321M349.5 316.847L278 302L338.5 339.321M349.5 316.847L338.5 339.321" stroke="#121212" stroke-width="6"/><path d="M230.711 302H280" stroke="#121212" stroke-width="6"/><rect width="20" height="20" x="212" y="194" fill="#121212" rx="10"><animate attributeName="rx" begin="1s" dur="2s" keyTimes="0;0.25;0.3;0.35;1" repeatCount="indefinite" values="10;10;1;10;10"/><animate attributeName="height" begin="1s" dur="2s" keyTimes="0;0.25;0.3;0.35;1" repeatCount="indefinite" values="20;20;2;20;20"/><animate attributeName="y" begin="1s" dur="2s" keyTimes="0;0.25;0.3;0.35;1" repeatCount="indefinite" values="194;194;203;194;194"/></rect><rect width="20" height="20" x="280" y="194" fill="#121212" rx="10"><animate attributeName="rx" begin="1s" dur="2s" keyTimes="0;0.25;0.3;0.35;1" repeatCount="indefinite" values="10;10;1;10;10"/><animate attributeName="height" begin="1s" dur="2s" keyTimes="0;0.25;0.3;0.35;1" repeatCount="indefinite" values="20;20;2;20;20"/><animate attributeName="y" begin="1s" dur="2s" keyTimes="0;0.25;0.3;0.35;1" repeatCount="indefinite" values="194;194;203;194;194"/></rect><path d="M206 197H238" stroke="#121212" stroke-width="6"/><path d="M274 197H306" stroke="#121212" stroke-width="6"/><path d="M256 218L266 258H246" stroke="#121212" stroke-width="6"/></g><g glass='9'><path stroke="#fff" stroke-width="6" d="M231.959 257.765c5.611-3.635 8.723-8.155 11.169-11.708a81.226 81.226 0 0 1 1.54-2.189c1.408-1.908 2.694-3.302 4.313-4.264 1.58-.939 3.716-1.604 7.019-1.604s5.439.665 7.019 1.604c1.619.962 2.905 2.356 4.313 4.264a81.226 81.226 0 0 1 1.54 2.189c2.446 3.553 5.558 8.073 11.169 11.708 9.751 6.316 22.676 8.257 35.154 8.235 31.746-.057 51.805-29.819 51.805-60.33 0-28.585-17.611-54.617-46.403-59.473C303.462 143.307 281.727 141 256 141c-25.727 0-47.462 2.307-64.597 5.197C162.611 151.053 145 177.085 145 205.67c0 30.511 20.058 60.273 51.805 60.33 12.478.022 25.403-1.918 35.154-8.235Z"/><path fill="#121212" fill-rule="evenodd" d="M191.902 149.155C164.845 153.718 148 178.232 148 205.67c0 29.508 19.302 57.277 48.81 57.33 12.266.022 24.491-1.906 33.518-7.753 5.062-3.279 7.786-7.221 10.226-10.753 3.587-5.191 6.56-9.494 15.446-9.494s11.859 4.303 15.446 9.494c2.44 3.532 5.164 7.474 10.226 10.753 9.027 5.847 21.252 7.775 33.518 7.753 29.508-.053 48.81-27.822 48.81-57.33 0-27.438-16.845-51.952-43.902-56.515C303.115 146.291 281.547 144 256 144c-25.547 0-47.115 2.291-64.098 5.155Zm6.817 22.955C184.104 174.524 174 187.405 174 202.218c0 14.725 9.992 27.807 24.65 29.207 12.127 1.159 25.796.934 33.661-4.181 2.642-1.718 5.197-4.21 7.788-6.736 4.903-4.781 9.931-9.684 15.901-9.684 5.97 0 10.998 4.903 15.901 9.684 2.591 2.526 5.146 5.018 7.788 6.736 7.865 5.115 21.534 5.34 33.661 4.181 14.658-1.4 24.65-14.482 24.65-29.207 0-14.813-10.104-27.694-24.719-30.108-15.36-2.536-36.152-5.11-57.281-5.11-21.129 0-41.921 2.574-57.281 5.11Z" clip-rule="evenodd"/><path fill="#0047FF" fill-opacity=".6" d="M174 202.218c0-14.813 10.104-27.694 24.719-30.108 15.36-2.536 36.152-5.11 57.281-5.11 21.129 0 41.921 2.574 57.281 5.11C327.896 174.524 338 187.405 338 202.218c0 14.725-9.992 27.807-24.65 29.207-12.127 1.159-25.796.934-33.661-4.181-7.642-4.969-14.565-16.42-23.689-16.42s-16.047 11.451-23.689 16.42c-7.865 5.115-21.534 5.34-33.661 4.181-14.658-1.4-24.65-14.482-24.65-29.207Z"/></g></svg>