<svg xmlns="http://www.w3.org/2000/svg" width="512" height="512" fill="none"><rect width="512" height="512" fill="#572828 "/><g skin='7'><path fill="#2D2D2D" d="M134 178h32v64h-20l-12-64ZM378 178h-32v64h20l12-64ZM64 400h384l32 112H32l32-112Z"/><path fill="#E3E3E3" d="M136 456h240v56H136z"/><path fill="#2D2D2D" d="M207 346h98v54h-98z"/><path fill="#E3E3E3" d="M166 106h180v240H166z"/><path fill="#2D2D2D" d="M246 204c0 16.016-12.984 31.5-29 31.5s-35-15.484-35-31.5 23.484-29.5 39.5-29.5S246 187.984 246 204ZM266 204.5c0 16.016 12.984 31.5 29 31.5s35-15.484 35-31.5-23.484-29.5-39.5-29.5-24.5 13.484-24.5 29.5Z"/></g><g hair='59'><path fill="#121212" d="M166 106h180v135.5l-13 .5V130l-77 28-77-28v112h-13V106Z"/><path fill="#121212" d="m236 38 40 16-8 64h-24l-8-80Z"/><path stroke="#121212" stroke-width="6" d="M232 85.5h48"/></g><g dress='26'><g clip-path="url(#a)"><path fill="#121212" d="M64 400h96s0 72 96 72 96-72 96-72h96l32 112H32l32-112Z"/><path fill="#2D2D2D" d="M150.5 400H207v133.5h-22l-52-90h31L150.5 400ZM361.5 400H305v133.5h22l52-90h-31l13.5-43.5Z"/><path fill="#fff" d="M207 512h98V400h-98v112Z"/><path fill="#121212" d="m256 422-41-22v44l41-22ZM256 422l41-22v44l-41-22Z"/></g><defs><clipPath id="a"><path fill="#fff" d="M0 0h512v512H0z"/></clipPath></defs></g><g beard='3'><path fill-rule="evenodd" clip-rule="evenodd" d="M207 346V271H305V346H256H207ZM219 283H293V315H219V283Z" fill="#121212"/></g><g face='30'><rect width="20" height="20" x="212" y="194" fill="#121212" rx="10"><animate attributeName="rx" begin="1s" dur="2s" keyTimes="0;0.25;0.3;0.35;1" repeatCount="indefinite" values="10;10;1;10;10"/><animate attributeName="height" begin="1s" dur="2s" keyTimes="0;0.25;0.3;0.35;1" repeatCount="indefinite" values="20;20;2;20;20"/><animate attributeName="y" begin="1s" dur="2s" keyTimes="0;0.25;0.3;0.35;1" repeatCount="indefinite" values="194;194;203;194;194"/></rect><rect width="20" height="20" x="280" y="194" fill="#121212" rx="10"><animate attributeName="rx" begin="1s" dur="2s" keyTimes="0;0.25;0.3;0.35;1" repeatCount="indefinite" values="10;10;1;10;10"/><animate attributeName="height" begin="1s" dur="2s" keyTimes="0;0.25;0.3;0.35;1" repeatCount="indefinite" values="20;20;2;20;20"/><animate attributeName="y" begin="1s" dur="2s" keyTimes="0;0.25;0.3;0.35;1" repeatCount="indefinite" values="194;194;203;194;194"/></rect><path d="M208.144 160L235.856 176" stroke="#121212" stroke-width="6"/><path d="M276.144 176L303.856 160" stroke="#121212" stroke-width="6"/><path d="M230.711 302H280" stroke="#121212" stroke-width="6"/><path d="M256 218L266 258H246" stroke="#121212" stroke-width="6"/><path d="M374.191 370.784L386.191 350L277.75 301.825L374.191 370.784Z" fill="#77492D" stroke="#121212" stroke-width="6"/><path d="M351.27 334.486L343.134 348.577L330.874 339.811L337.485 328.362L351.27 334.486Z" fill="#FF9900" stroke="#121212" stroke-width="6"/><path d="M374.191 370.784L386.191 350L376.542 345.713L365.609 364.648L374.191 370.784Z" fill="white" stroke="#121212" stroke-width="6"/></g><g glass='7'><path fill="#0047FF" d="m222 172 8 18.144L249.713 188 238 204l11.713 16L230 217.856 222 236l-8-18.144L194.287 220 206 204l-11.713-16L214 190.144 222 172Z"/><circle cx="10" cy="10" r="10" fill="#79CBDC" transform="matrix(1 0 0 -1 212 214)"/><path fill="#0047FF" d="m290 172 8 18.144L317.713 188 306 204l11.713 16L298 217.856 290 236l-8-18.144L262.287 220 274 204l-11.713-16L282 190.144 290 172Z"/><circle cx="10" cy="10" r="10" fill="#79CBDC" transform="matrix(1 0 0 -1 280 214)"/></g></svg>