<svg xmlns="http://www.w3.org/2000/svg" width="512" height="512" fill="none"><rect width="512" height="512" fill="#186450 "/><g skin='9'><mask id="a" width="32" height="64" x="346" y="178" maskUnits="userSpaceOnUse" style="mask-type:alpha"><path fill="#B7009A" d="M378 178h-32v64h20l12-64Z"/></mask><g mask="url(#a)"><path fill="#FF00B1" d="M374 248v-30h-30v30h30Z"/><path fill="#FFD600" d="M338 206h52v24c-6.833-6.5-21.9-15.6-27.5 0-5.6 15.6-18.667 13.167-24.5 10v-34Z"/><path fill="#A7FF00" d="m380 225 8-37h-49v27.722c-.006.179 0 .278 0 .278v-.278c.047-1.422.853-7.86 11.5-8.722 13.161-1.066 29.5 18 29.5 18Z"/><path fill="#AD00FF" d="M340 172h48v25c-3.5-3-21.5-14-26.5 9.5s-19.5-2-21.5-9.5v-25Z"/></g><mask id="b" width="448" height="406" x="32" y="106" maskUnits="userSpaceOnUse" style="mask-type:alpha"><path fill="#D800B5" fill-rule="evenodd" d="M346 106H166v240h180V106Zm102 294H64L32 512h448l-32-112Z" clip-rule="evenodd"/></mask><g mask="url(#b)"><path fill="#FF00B1" d="M46.5 149.86c-55.344 24.043-130.5 36-130.5 36v31.5l638.5-14.5v-53s-85.425-82.073-158.5-71c-49.4 7.486-68.135 70.181-116.5 57.64-39.759-10.309-80.556-54.677-119-69.14-54.716-20.585-60.381 59.206-114 82.5Z"/><path fill="#00A8FF" d="m22 168.583 34 112.5 551-8.5 26-97s-24.445-86.791-80-83c-54.894 3.746-84.978 104.61-140 104.5-66.849-.133-20.286-106.801-85.5-121.5-76.487-17.24-102.2 111.772-180 121.5-49.87 6.236-125.5-28.5-125.5-28.5Z"/><path fill="#FFD600" d="M6 197.71v96h538.5l14.5-96S541.789 37.156 468 65.313C422.551 82.657 416.208 191.2 368 197.71c-48.239 6.514-74.368-107.49-123-105.397-46.27 1.993-68.398 71.914-114 80-38.986 6.913-53.647-41.234-91-28.103-32.999 11.601-34 53.5-34 53.5Z"/><path fill="#AD00FF" d="m-31 216.675 34 112.5 551-8.5 26-97S553.555 108.3 498 112.091c-54.894 3.747-63.978 111.694-119 111.584-66.849-.134 15.714-86.976-49.5-101.675-76.487-17.24-188.7 71.363-266.5 81.091-49.87 6.236-94 13.584-94 13.584Z"/><path fill="#FFB74A" d="M38.5 230.86c-55.344 24.043-130.5 36-130.5 36v31.5l638.5-14.5v-53s-107.425-93.573-180.5-82.5c-49.4 7.486-54.135 61.181-102.5 48.64-39.759-10.309-72.556-34.177-111-48.64-54.716-20.585-60.381 59.206-114 82.5Z"/><path fill="#D22D27" d="M153 184.5C90.326 170.393 14 308.713 14 308.713h484v-99.5s-74.165 62.155-130.5 61.5c-44.746-.52-64.274-54.303-107-41-20.635 6.424-10.107 19.722-31.5 22.787-33.71 4.829-42.777-60.522-76-68Z"/><path fill="#A7FF00" d="m-37 273.815 10.5 103h558v-179s6.503-46.17-44.5-46.002c-69.108.228-81.137 153.126-149.5 143.002-50.157-7.427-29.083-125.616-79.5-131.002-55.757-5.955-98.507 148.51-154.5 145.5-37.97-2.04-53.977-88.316-92-88-40.655.339-48.5 52.502-48.5 52.502Z"/><path fill="#AD00FF" d="M-18 296.313c-61.503 23.397 0 104 0 104h566v-137s-29.853-72.407-66-78c-59.972-9.278-61.497 166.629-120 150.501-86.991-23.983-49.5-137.501-146-114.501-46.688 11.128-66.273 109.437-114 114.5-47.493 5.039-62.039-61.549-120-39.5Z"/><path fill="#00A8FF" d="M0 387.397v95.999h538.5l14.5-95.999s3.289-156.157-70.5-128c-45.449 17.342-59.292 104.99-107.5 111.5-48.239 6.514-71.868-106.095-120.5-104-46.27 1.992-108.398 112.413-154 120.5-38.986 6.912-29.147-66.632-66.5-53.5-32.999 11.6-34 53.5-34 53.5Z"/><path fill="#C2FD52" d="m-50 399.583 34 112.5 551-8.5 26-97s-24.445-86.791-80-83c-54.894 3.746-84.978 104.61-140 104.5-66.849-.133-20.286-106.801-85.5-121.5-76.487-17.239-102.2 111.772-180 121.5-49.87 6.236-125.5-28.5-125.5-28.5Z"/><path fill="#FF00B1" d="M-45.665 427.355c-61.503 23.396 0 104 0 104h566v-137s-29.853-72.408-66-78c-59.972-9.278-61.497 166.628-120 150.5-86.991-23.983-49.5-137.5-146-114.5-46.688 11.127-66.273 109.437-114 114.5-47.493 5.038-62.039-61.55-120-39.5Z"/><path fill="#FFB74A" d="M89.602 499.384C34.214 517.413-41 526.379-41 526.379V550l639-10.873v-39.743s-85.492-61.545-158.624-53.241c-49.439 5.613-68.189 52.627-116.591 43.223-39.791-7.731-80.62-41.001-119.094-51.847-54.758-15.436-60.428 44.398-114.089 61.865Z"/><path fill="#D22D27" d="M184 465.927C121.326 455.142 53 542 53 542h484v-76.073s-74.165 47.521-130.5 47.02c-44.746-.398-64.274-41.517-107-31.346-20.635 4.912-24.107 21.74-45.5 24.083-33.71 3.692-36.777-34.039-70-39.757Z"/></g><mask id="c" width="98" height="54" x="207" y="346" maskUnits="userSpaceOnUse" style="mask-type:alpha"><path fill="#B7009A" d="M207 346h98v54h-98z"/></mask><g mask="url(#c)"><path fill="#FF00B1" d="m173 337.923 9.794 39.047L341.511 375 349 339.546s-7.042-20.117-23.044-19.239c-15.813.869-24.478 24.248-40.328 24.223-19.256-.031-5.843-24.756-24.628-28.163-22.032-3.996-29.439 25.908-51.849 28.163-14.366 1.445-36.151-6.607-36.151-6.607Z"/><path fill="#FFD600" d="M184 373.384V397h131.46l3.54-23.616s-4.202-39.495-22.215-32.569c-11.095 4.266-12.644 30.968-24.412 32.569-11.777 1.603-18.156-26.442-30.028-25.927-11.295.49-16.697 17.691-27.83 19.68-9.517 1.7-13.096-10.144-22.215-6.914-8.056 2.854-8.3 13.161-8.3 13.161Z"/><path fill="#D22D27" d="M206.023 390.035c-12.309 5.331-29.023 7.981-29.023 7.981V405h142v-14.965s-18.998-18.196-35.25-15.741c-10.986 1.66-15.153 15.56-25.909 12.779-8.842-2.285-17.915-12.122-26.465-15.328-12.169-4.564-13.429 13.126-25.353 18.29Z"/></g><mask id="d" width="32" height="64" x="134" y="178" maskUnits="userSpaceOnUse" style="mask-type:alpha"><path fill="#B7009A" d="M134 178h32v64h-20l-12-64Z"/></mask><g mask="url(#d)"><path fill="#FF00B1" d="M138 248v-30h30v30h-30Z"/><path fill="#FFD600" d="M174 206h-52v24c6.833-6.5 21.9-15.6 27.5 0 5.6 15.6 18.667 13.167 24.5 10v-34Z"/><path fill="#A7FF00" d="m132 225-8-37h49v27.722c.006.179 0 .278 0 .278v-.278c-.047-1.422-.853-7.86-11.5-8.722-13.161-1.066-29.5 18-29.5 18Z"/><path fill="#AD00FF" d="M172 172h-48v25c3.5-3 21.5-14 26.5 9.5s19.5-2 21.5-9.5v-25Z"/></g></g><g hair='43'><path fill="#121212" d="m194 282-16-104v-72h-12v176h28ZM318 282l16-104v-72h12v176h-28ZM236 106h40v12h-40z"/><ellipse cx="256" cy="58" stroke="#E4A400" stroke-width="12" rx="90" ry="24"/></g><g dress='50'><path fill="#00153E" d="M207 372h32v28h-32z"/><path fill="#fff" d="M239 372h34v28h-34z"/><path fill="#00153E" d="M273 372h32v28h-32z"/><path fill="#001D55" d="M64 400h112v112H32l32-112Z"/><path fill="#00153E" d="M176 400h272l32 112H176V400Z"/><path fill="#fff" d="m376 490 12 6-12-24-12 24 12-6Z"/><path fill="#002978" d="m312 472 7.629 24h4.228l-7.565-24H312Zm36.078 0-8.01 24h4.292l7.947-24h-4.229Zm-22.425 12.652h6.2l-6.74 8.487V496h13.478v-4.101h-6.573l6.796-8.487v-2.861h-13.161v4.101ZM96 400h80v32H96zM336 400h80v32h-80z"/><circle cx="354" cy="416" r="6" fill="#fff"/><circle cx="158" cy="416" r="6" fill="#fff"/><circle cx="194" cy="462" r="6" fill="#fff"/><circle cx="194" cy="434" r="6" fill="#fff"/><circle cx="194" cy="490" r="6" fill="#fff"/></g><g beard='3'><path fill-rule="evenodd" clip-rule="evenodd" d="M207 346V271H305V346H256H207ZM219 283H293V315H219V283Z" fill="#121212"/></g><g face='10'><path d="M246 289.391C246 289.391 258.823 284.011 262 289.391C265.153 294.732 254.5 303.391 254.5 303.391C254.5 303.391 267.632 299.309 270.5 304.891C273.719 311.156 258 317.891 258 317.891" stroke="#121212" stroke-width="6"/><path d="M206 162H238" stroke="#121212" stroke-width="6"/><path d="M206 202C206 202 212 194 222 194C232 194 238 202 238 202" stroke="#121212" stroke-width="6"/><path d="M274 202C274 202 280 194 290 194C300 194 306 202 306 202" stroke="#121212" stroke-width="6"/><path d="M274 162H306" stroke="#121212" stroke-width="6"/><path d="M256 218L266 258H246" stroke="#121212" stroke-width="6"/></g><g glass='18'><path fill="#121212" d="M166 190h84v12h-84z"/><path fill="#fff" d="M178 190h12v12h-12z"/><path fill="#121212" d="M262 190h84v12h-84zM274 202h60v12h-60zM286 214h36v12h-36zM178 202h60v12h-60zM190 214h36v12h-36zM166 178h180v12H166z"/><path fill="#fff" d="M190 202h12v12h-12zM202 214h12v12h-12zM274 190h12v12h-12zM286 202h12v12h-12zM298 214h12v12h-12z"/></g></svg>