<svg xmlns="http://www.w3.org/2000/svg" width="512" height="512" fill="none"><rect width="512" height="512" fill="#FFD600 "/><g skin='0'><path fill="#E24713" d="M134 178h32v64h-20l-12-64ZM378 178h-32v64h20l12-64ZM207 346h98v54h-98z"/><path fill="#F15824" d="M64 400h384l32 112H32l32-112ZM166 106h180v240H166z"/></g><g hair='40'><path fill="#FFB74A" d="M134 166h244v-24H134z"/><path fill="#42B16C" d="M134 192h32v-26h-32zM134 142h37V78h-37z"/><path fill="#FFB74A" d="M171 142h34V78h-34z"/><path fill="#42B16C" d="M205 142h34V78h-34z"/><path fill="#FFB74A" d="M239 142h34V78h-34z"/><path fill="#42B16C" d="M273 142h34V78h-34z"/><path fill="#FFB74A" d="M307 142h34V78h-34z"/><path fill="#42B16C" d="M341 142h37V78h-37z"/><path fill="#FFB74A" d="M134 217h32v-25h-32z"/><path fill="#42B16C" d="M134 243h32v-26h-32z"/><path fill="#FFB74A" d="M134 269h32v-26h-32z"/><path fill="#42B16C" d="M134 295h32v-26h-32z"/><path fill="#FFB74A" d="M134 320h32v-25h-32z"/><path fill="#42B16C" d="M134 346h32v-26h-32zM346 192h32v-26h-32z"/><path fill="#FFB74A" d="M346 217h32v-25h-32z"/><path fill="#42B16C" d="M346 243h32v-26h-32z"/><path fill="#FFB74A" d="M346 269h32v-26h-32z"/><path fill="#42B16C" d="M346 295h32v-26h-32z"/><path fill="#FFB74A" d="M346 320h32v-25h-32z"/><path fill="#42B16C" d="M346 346h32v-26h-32z"/></g><g dress='85'><path fill="#fff" d="M207 481h98v-73s-15.5 24-48 24-50-24-50-24v73Z"/><path fill="#D33600" d="M64 400h143l50 67 48-67h143l32 112H32l32-112Z"/><path fill="#FF9672" d="m338 456 7.629 24h4.228l-7.565-24H338Zm36.078 0-8.01 24h4.292l7.947-24h-4.229Zm-22.425 12.652h6.2l-6.74 8.487V480h13.478v-4.101h-6.573l6.796-8.487v-2.861h-13.161v4.101Z"/><path fill="#121212" d="M188.179 466.715c-1.102-.586-1.965-1.28-2.589-2.083-.61-.796-.957-1.66-1.041-2.592-.07-.925.15-1.868.661-2.829l2.755 1.465a2.482 2.482 0 0 0-.208 1.874c.191.663.76 1.246 1.706 1.749.961.511 1.827.655 2.598.43.779-.238 1.398-.788 1.856-1.649l.812-1.526-.382-.203c-.39.155-.9.228-1.53.219-.616-.001-1.404-.257-2.364-.767a5.934 5.934 0 0 1-2.081-1.813 5.087 5.087 0 0 1-.935-2.536c-.076-.947.149-1.915.674-2.904l.136-.254c.525-.989 1.217-1.727 2.073-2.213.857-.487 1.818-.71 2.884-.669 1.073.027 2.174.341 3.305.942 1.13.601 1.999 1.335 2.607 2.202.608.867.939 1.795.993 2.784.054.989-.178 1.971-.696 2.946l-2.693 5.064c-.639 1.201-1.419 2.073-2.342 2.615a5.084 5.084 0 0 1-2.959.71c-1.058-.055-2.138-.376-3.24-.962Zm4.186-7.668c.593.315 1.158.48 1.695.493.55.021 1.04-.099 1.469-.36.443-.254.803-.642 1.081-1.165l.09-.17c.421-.791.49-1.551.208-2.281-.261-.737-.836-1.342-1.726-1.815-.89-.473-1.721-.616-2.491-.427-.749.181-1.334.668-1.755 1.459l-.09.169c-.278.523-.405 1.035-.382 1.537.038.509.219.986.544 1.431.325.444.778.821 1.357 1.129Zm8.181 13.863 6.828-12.841-.382-.203-4.493 3.645-2.839-1.51 6.59-5.085 4.895 2.603-7.887 14.833-2.712-1.442Zm9.581 5.095 6.828-12.842-.381-.203-4.493 3.646-2.84-1.51 6.591-5.085 4.895 2.602-7.887 14.834-2.713-1.442Z"/><path fill="#FF9672" d="m207 400 50 67-122-67h72ZM305 400l-48 67 122-67h-74Z"/><path stroke="#FF9672" stroke-width="6" d="M257 465v47"/></g><g beard='6'><rect x="207" y="346" width="98" height="54" fill="#E24713"/><path fill-rule="evenodd" clip-rule="evenodd" d="M346 266H166V400H256.5H346V266ZM297 281H215V323H297V281Z" fill="#121212"/></g><g face='24'><rect width="20" height="20" x="212" y="194" fill="#121212" rx="10"><animate attributeName="rx" begin="1s" dur="2s" keyTimes="0;0.25;0.3;0.35;1" repeatCount="indefinite" values="10;10;1;10;10"/><animate attributeName="height" begin="1s" dur="2s" keyTimes="0;0.25;0.3;0.35;1" repeatCount="indefinite" values="20;20;2;20;20"/><animate attributeName="y" begin="1s" dur="2s" keyTimes="0;0.25;0.3;0.35;1" repeatCount="indefinite" values="194;194;203;194;194"/></rect><rect width="20" height="20" x="280" y="194" fill="#121212" rx="10"><animate attributeName="rx" begin="1s" dur="2s" keyTimes="0;0.25;0.3;0.35;1" repeatCount="indefinite" values="10;10;1;10;10"/><animate attributeName="height" begin="1s" dur="2s" keyTimes="0;0.25;0.3;0.35;1" repeatCount="indefinite" values="20;20;2;20;20"/><animate attributeName="y" begin="1s" dur="2s" keyTimes="0;0.25;0.3;0.35;1" repeatCount="indefinite" values="194;194;203;194;194"/></rect><path d="M206 197H238" stroke="#121212" stroke-width="6"/><path d="M274 197H306" stroke="#121212" stroke-width="6"/><path d="M230.711 302H280" stroke="#121212" stroke-width="6"/><path d="M256 218L266 258H246" stroke="#121212" stroke-width="6"/><path d="M374.191 370.784L386.191 350L277.75 301.825L374.191 370.784Z" fill="#77492D" stroke="#121212" stroke-width="6"/><path d="M351.27 334.486L343.134 348.577L330.874 339.811L337.485 328.362L351.27 334.486Z" fill="#FF9900" stroke="#121212" stroke-width="6"/><path d="M374.191 370.784L386.191 350L376.542 345.713L365.609 364.648L374.191 370.784Z" fill="white" stroke="#121212" stroke-width="6"/></g><g glass='9'><path stroke="#fff" stroke-width="6" d="M231.959 257.765c5.611-3.635 8.723-8.155 11.169-11.708a81.226 81.226 0 0 1 1.54-2.189c1.408-1.908 2.694-3.302 4.313-4.264 1.58-.939 3.716-1.604 7.019-1.604s5.439.665 7.019 1.604c1.619.962 2.905 2.356 4.313 4.264a81.226 81.226 0 0 1 1.54 2.189c2.446 3.553 5.558 8.073 11.169 11.708 9.751 6.316 22.676 8.257 35.154 8.235 31.746-.057 51.805-29.819 51.805-60.33 0-28.585-17.611-54.617-46.403-59.473C303.462 143.307 281.727 141 256 141c-25.727 0-47.462 2.307-64.597 5.197C162.611 151.053 145 177.085 145 205.67c0 30.511 20.058 60.273 51.805 60.33 12.478.022 25.403-1.918 35.154-8.235Z"/><path fill="#121212" fill-rule="evenodd" d="M191.902 149.155C164.845 153.718 148 178.232 148 205.67c0 29.508 19.302 57.277 48.81 57.33 12.266.022 24.491-1.906 33.518-7.753 5.062-3.279 7.786-7.221 10.226-10.753 3.587-5.191 6.56-9.494 15.446-9.494s11.859 4.303 15.446 9.494c2.44 3.532 5.164 7.474 10.226 10.753 9.027 5.847 21.252 7.775 33.518 7.753 29.508-.053 48.81-27.822 48.81-57.33 0-27.438-16.845-51.952-43.902-56.515C303.115 146.291 281.547 144 256 144c-25.547 0-47.115 2.291-64.098 5.155Zm6.817 22.955C184.104 174.524 174 187.405 174 202.218c0 14.725 9.992 27.807 24.65 29.207 12.127 1.159 25.796.934 33.661-4.181 2.642-1.718 5.197-4.21 7.788-6.736 4.903-4.781 9.931-9.684 15.901-9.684 5.97 0 10.998 4.903 15.901 9.684 2.591 2.526 5.146 5.018 7.788 6.736 7.865 5.115 21.534 5.34 33.661 4.181 14.658-1.4 24.65-14.482 24.65-29.207 0-14.813-10.104-27.694-24.719-30.108-15.36-2.536-36.152-5.11-57.281-5.11-21.129 0-41.921 2.574-57.281 5.11Z" clip-rule="evenodd"/><path fill="#0047FF" fill-opacity=".6" d="M174 202.218c0-14.813 10.104-27.694 24.719-30.108 15.36-2.536 36.152-5.11 57.281-5.11 21.129 0 41.921 2.574 57.281 5.11C327.896 174.524 338 187.405 338 202.218c0 14.725-9.992 27.807-24.65 29.207-12.127 1.159-25.796.934-33.661-4.181-7.642-4.969-14.565-16.42-23.689-16.42s-16.047 11.451-23.689 16.42c-7.865 5.115-21.534 5.34-33.661 4.181-14.658-1.4-24.65-14.482-24.65-29.207Z"/></g></svg>