<svg xmlns="http://www.w3.org/2000/svg" width="512" height="512" fill="none"><rect width="512" height="512" fill="#A7FF00 "/><g skin='6'><path fill="#36CF00" d="M134 178h32v64h-20l-12-64ZM378 178h-32v64h20l12-64Z"/><path fill="#3BE200" d="M64 400h384l32 112H32l32-112Z"/><path fill="#36CF00" d="M207 346h98v54h-98z"/><path fill="#3BE200" d="M166 106h180v240H166z"/></g><g hair='56'><path fill="#121212" d="m194 282-16-104v-72h-12v176h28ZM318 282l16-104v-72h12v176h-28ZM236 106h40v12h-40z"/></g><g dress='86'><path fill="#454545" d="M64 400h384l32 112H32l32-112Z"/><path fill="#121212" d="M448 400H336L171 512h309l-32-112Z"/><path fill="#1D1D1D" d="M370 400h-34L171 512h37l162-112Z"/><path fill="#121212" d="M64 400h112l165 112H32l32-112Z"/><path fill="#1D1D1D" d="M142 400h34l165 112h-37L142 400ZM207 364l98-4v30l-98-8v-18Z"/><path fill="#454545" d="M207 346h98v14l-98 8v-22Z"/><path fill="#121212" d="m207 378 98 8v14h-98v-22Z"/></g><g beard='1'><path d="M166 266L206 286V346H166V266Z" fill="#121212"/><path d="M346 266L306 286V346H346V266Z" fill="#121212"/><rect x="206" y="322" width="100" height="24" fill="#121212"/></g><g face='26'><path d="M206 162H238" stroke="#121212" stroke-width="6"/><path d="M206 202C206 202 212 194 222 194C232 194 238 202 238 202" stroke="#121212" stroke-width="6"/><path d="M274 202C274 202 280 194 290 194C300 194 306 202 306 202" stroke="#121212" stroke-width="6"/><path d="M274 162H306" stroke="#121212" stroke-width="6"/><path d="M230.711 302H280" stroke="#121212" stroke-width="6"/><path d="M256 218L266 258H246" stroke="#121212" stroke-width="6"/><path d="M376 302C376 331.271 352.271 355 323 355C293.729 355 271.5 309 256 302C272 295 293.729 249 323 249C352.271 249 376 272.729 376 302Z" fill="#FF008A" stroke="#121212" stroke-width="6"/></g><g glass='2'><path fill="#121212" d="M190 175h56v56h-56v-56Z"/><path stroke="#121212" stroke-width="6" d="M190 175h56v56h-56v-56Zm0 0h-24M247 184h19"/><path fill="#121212" d="M266 175h56v56h-56v-56Z"/><path stroke="#121212" stroke-width="6" d="M322 175h-56v56h56v-56Zm0 0h24"/></g></svg>