<svg xmlns="http://www.w3.org/2000/svg" width="512" height="512" fill="none"><rect width="512" height="512" fill="#572828 "/><g skin='1'><path fill="#E24713" d="M134 178h32v64h-20l-12-64ZM378 178h-32v64h20l12-64ZM207 346h98v54h-98z"/><path fill="#F15824" d="M64 400h384l32 112H32l32-112Z"/><path fill="#1D1D1D" d="m42 477-6.571 23L106 489l-64-12ZM476.286 499l-6-21L405 488.5l71.286 10.5ZM466.429 464.5l-5.572-19.5-35.357 11.5 40.929 8ZM51.143 445l-5.572 19.5 41.429-8L51.143 445Z"/><path fill="#FF6F3F" d="M136 456h240v56H136z"/><path fill="#F15824" d="M166 106h180v240H166z"/><path fill="#1D1D1D" d="M96 400H80l8 24 8-24ZM158 178h-16l8 16 8-16ZM370 178h-16l8 16 8-16ZM210 106h-16l8 24 8-24ZM342 400h-16l8 40 8-40ZM141 400h-16l8 32 8-32ZM264 106h-16l8 40 8-40ZM387 400h-16l8 32 8-32ZM186 400h-16l8 40 8-40ZM318 106h-16l8 24 8-24ZM432 400h-16l8 24 8-24ZM190 262l-24-8v16l24-8ZM190 154l-24-8v16l24-8ZM231 362l-24-8v16l24-8ZM281 362l24-8v16l-24-8ZM231 385l-24-8v16l24-8ZM281 385l24-8v16l-24-8ZM322 262l24-8v16l-24-8ZM322 154l24-8v16l-24-8ZM198 294l-32-8v16l32-8ZM314 294l32-8v16l-32-8ZM214 326l-48-8v16l48-8ZM298 326l48-8v16l-48-8Z"/></g><g hair='23'><path fill="#121212" d="M166 106h180v48H166v-48ZM166 154h12v24h-12zM334 154h12v24h-12z"/><ellipse cx="256" cy="58" stroke="#E4A400" stroke-width="12" rx="90" ry="24"/></g><g dress='78'><g clip-path="url(#a)"><path fill="#D33600" d="M64 400h96s0 72 96 72 96-72 96-72h96l32 112H32l32-112Z"/><path fill="#FF784A" d="M150.5 400H207v133.5h-22l-52-90h31L150.5 400ZM361.5 400H305v133.5h22l52-90h-31l13.5-43.5Z"/><path fill="#D33600" d="M207 512h98v-73h-98v73Z"/><path fill="#FF926D" d="M207 439v-39l50 39h-50ZM305 439v-39l-48 39h48Z"/><path fill="#FFD600" d="M240 439h32l-8 24h-16l-8-24ZM240 512h32l-8-49h-16l-8 49Z"/></g><defs><clipPath id="a"><path fill="#fff" d="M0 0h512v512H0z"/></clipPath></defs></g><g beard='4'><rect x="201" y="286" width="12" height="40" fill="#121212"/><rect x="299" y="286" width="12" height="40" fill="#121212"/><rect x="201" y="274" width="110" height="12" fill="#121212"/></g><g face='0'><path d="M290.865 289.25L212.081 275.358C212.081 275.358 205.135 314.75 244.555 321.701C283.975 328.652 290.865 289.25 290.865 289.25Z" fill="white"/><rect width="20" height="20" x="212" y="194" fill="#121212" rx="10"><animate attributeName="rx" begin="1s" dur="2s" keyTimes="0;0.25;0.3;0.35;1" repeatCount="indefinite" values="10;10;1;10;10"/><animate attributeName="height" begin="1s" dur="2s" keyTimes="0;0.25;0.3;0.35;1" repeatCount="indefinite" values="20;20;2;20;20"/><animate attributeName="y" begin="1s" dur="2s" keyTimes="0;0.25;0.3;0.35;1" repeatCount="indefinite" values="194;194;203;194;194"/></rect><rect width="20" height="20" x="280" y="194" fill="#121212" rx="10"><animate attributeName="rx" begin="1s" dur="2s" keyTimes="0;0.25;0.3;0.35;1" repeatCount="indefinite" values="10;10;1;10;10"/><animate attributeName="height" begin="1s" dur="2s" keyTimes="0;0.25;0.3;0.35;1" repeatCount="indefinite" values="20;20;2;20;20"/><animate attributeName="y" begin="1s" dur="2s" keyTimes="0;0.25;0.3;0.35;1" repeatCount="indefinite" values="194;194;203;194;194"/></rect><path d="M206 162H238" stroke="#121212" stroke-width="6"/><path d="M274 162H306" stroke="#121212" stroke-width="6"/><path d="M256 218L266 258H246" stroke="#121212" stroke-width="6"/></g><g glass='13'><path fill="#D22D27" fill-opacity=".6" d="m189.583 182.714 19.58-8.714 10.878 8.893L230.919 174l19.581 8.714v26.143L220.041 235l-30.458-26.143v-26.143Z"/><path stroke="#D22D27" stroke-width="6" d="M189.583 182.714v26.143L220.041 235l30.459-26.143V190m-60.917-7.286 19.58-8.714 10.878 8.893L230.919 174l19.581 8.714V190m-60.917-7.286L163 175.5m87.5 14.5H262"/><path fill="#D22D27" fill-opacity=".6" d="m322.417 183.214-19.58-8.714-10.878 8.893-10.878-8.893-19.581 8.714v26.143l30.459 26.143 30.458-26.143v-26.143Z"/><path stroke="#D22D27" stroke-width="6" d="M322.417 183.214v26.143L291.959 235.5 261.5 209.357v-26.143l19.581-8.714 10.878 8.893 10.878-8.893 19.58 8.714Zm0 0L349 176"/></g></svg>