<svg xmlns="http://www.w3.org/2000/svg" width="512" height="512" fill="none"><rect width="512" height="512" fill="#007089 "/><g skin='8'><path fill="#B7009A" d="M134 178h32v64h-20l-12-64ZM378 178h-32v64h20l12-64Z"/><path fill="#D800B5" d="M64 400h384l32 112H32l32-112Z"/><path fill="#B7009A" d="M207 346h98v54h-98z"/><path fill="#D800B5" d="M166 106h180v240H166z"/><path fill="#fff" d="m256 174-12.161-28L256 118l12.161 28L256 174Z"/><circle cx="256" cy="146" r="7.92" fill="#007089" transform="rotate(-90 256 146)"/><path fill="#fff" d="m256 500-12.161-28L256 444l12.161 28L256 500Z"/><circle cx="256" cy="472" r="7.92" fill="#007089" transform="rotate(-90 256 472)"/><path fill="#fff" d="m284 484 28-12.161L340 484l-28 12.161L284 484Z"/><circle cx="312" cy="484" r="7.92" fill="#007089"/><path fill="#fff" d="m172 484 28-12.161L228 484l-28 12.161L172 484Z"/><circle cx="200" cy="484" r="7.92" fill="#007089"/><path fill="#fff" d="m92 484 28-12.161L148 484l-28 12.161L92 484Z"/><circle cx="120" cy="484" r="7.92" fill="#007089"/><path fill="#fff" d="m364 484 28-12.161L420 484l-28 12.161L364 484Z"/><circle cx="392" cy="484" r="7.92" fill="#007089"/><path fill="#fff" d="m197.799 411.799 11.2 28.398 28.398 11.2-11.2-28.398-28.398-11.2Z"/><circle cx="7.92" cy="7.92" r="7.92" fill="#007089" transform="scale(1 -1) rotate(-45 -417.786 -464.942)"/><path fill="#fff" d="m134.061 416.936 15.961 26.022 29.911 6.099-15.961-26.022-29.911-6.099Z"/><circle cx="7.92" cy="7.92" r="7.92" fill="#007089" transform="scale(1 -1) rotate(-35 -616.745 -448.945)"/><path fill="#fff" d="m72.06 420.936 15.962 26.022 29.911 6.099-15.961-26.022-29.911-6.099Z"/><circle cx="7.92" cy="7.92" r="7.92" fill="#007089" transform="scale(1 -1) rotate(-35 -654.089 -352.625)"/><path fill="#fff" d="m381.933 416.936-15.961 26.022-29.912 6.099 15.961-26.022 29.912-6.099Z"/><circle cx="358.997" cy="432.997" r="7.92" fill="#007089" transform="rotate(145 358.997 432.997)"/><path fill="#fff" d="m443.933 416.936-15.961 26.022-29.912 6.099 15.961-26.022 29.912-6.099Z"/><circle cx="420.997" cy="432.997" r="7.92" fill="#007089" transform="rotate(145 420.997 432.997)"/><path fill="#fff" d="m315.397 411.799-11.2 28.398-28.398 11.2 11.2-28.398 28.398-11.2Z"/><circle cx="295.599" cy="431.598" r="7.92" fill="#007089" transform="rotate(135 295.599 431.598)"/><path fill="#fff" d="m294.799 169.397 11.2-28.398 28.398-11.2-11.2 28.398-28.398 11.2Z"/><circle cx="314.597" cy="149.598" r="7.92" fill="#007089" transform="rotate(-45 314.597 149.598)"/><path fill="#fff" d="m177.799 129.799 11.2 28.398 28.398 11.2-11.2-28.398-28.398-11.2Z"/><circle cx="7.92" cy="7.92" r="7.92" fill="#007089" transform="scale(1 -1) rotate(-45 -87.382 -299.8)"/><path fill="#fff" d="m228 372 28-12.161L284 372l-28 12.161L228 372Z"/><circle cx="256" cy="372" r="7.92" fill="#007089"/></g><g hair='6'><path fill="#121212" d="M106 135h300v16H106z"/><path fill="#2D2D2D" d="M166 95h180v40H166z"/><path fill="#121212" d="m236 103 7.629 24h4.228l-7.565-24H236Zm36.078 0-8.01 24h4.292l7.947-24h-4.229Zm-22.425 12.652h6.2l-6.74 8.487V127h13.478v-4.101h-6.573l6.796-8.487v-2.861h-13.161v4.101ZM166 15h180v80H166z"/></g><g dress='8'><path fill="#D22D27" d="M64 400h96l96 72 96-72h96l32 112H32l32-112Z"/><path fill="#FF9490" d="m322 456 7.629 24h4.228l-7.565-24H322Zm36.078 0-8.01 24h4.292l7.947-24h-4.229Zm-22.425 12.652h6.2l-6.74 8.487V480h13.478v-4.101h-6.573l6.796-8.487v-2.861h-13.161v4.101Z"/></g><g beard='8'><rect x="204" y="286" width="12" height="60" fill="#121212"/><rect x="296" y="286" width="12" height="60" fill="#121212"/><rect x="244" y="322" width="24" height="12" fill="#121212"/><path d="M204 334H308V346L256 370L204 346V334Z" fill="#121212"/></g><g face='17'><path d="M231.114 302H280.403L292 290" stroke="#121212" stroke-width="6"/><path d="M206 162H238" stroke="#121212" stroke-width="6"/><path d="M206 202C206 202 212 194 222 194C232 194 238 202 238 202" stroke="#121212" stroke-width="6"/><path d="M274 202C274 202 280 194 290 194C300 194 306 202 306 202" stroke="#121212" stroke-width="6"/><path d="M274 162H306" stroke="#121212" stroke-width="6"/><path d="M256 218L266 258H246" stroke="#121212" stroke-width="6"/></g><g glass='22'><path fill="#FFD600" fill-opacity=".4" d="M192 203c0-15.464 12.536-28 28-28s28 12.536 28 28-12.536 28-28 28-28-12.536-28-28Z"/><path stroke="#121212" stroke-width="6" d="M192 203c0 15.464 12.536 28 28 28s28-12.536 28-28-12.536-28-28-28-28 12.536-28 28Zm0 0-28-27M248 202h16"/><path fill="#FFD600" fill-opacity=".4" d="M264 203c0-15.464 12.536-28 28-28s28 12.536 28 28-12.536 28-28 28-28-12.536-28-28Z"/><path stroke="#121212" stroke-width="6" d="M320 203c0-15.464-12.536-28-28-28s-28 12.536-28 28 12.536 28 28 28 28-12.536 28-28Zm0 0 28-27"/></g></svg>