<svg xmlns="http://www.w3.org/2000/svg" width="512" height="512" fill="none"><rect width="512" height="512" fill="#FF9900 "/><g skin='10'><path fill="#56C499" d="M134 178h32v64h-20l-12-64ZM378 178h-32v64h20l12-64Z"/><path fill="#82DCB9" d="M64 400h384l32 112H32l32-112Z"/><path fill="#D22D27" d="M87.5 427.5V400h68l-41 27.5h-27Z"/><path fill="#56C499" d="M207 346h98v54h-98z"/><path fill="#82DCB9" d="m207 377 98-12v4l-98 12v-4Z"/><path fill="#FF00B1" d="M190 118.5s-10.505-3.476-16.5 2.948c-5.596 5.995 0 18.552 0 18.552s-5.89 3.714-7 9c-2.205 10.5 4.499 15.5 4.499 15.5v8.5H192.5l35.5-63h-8s-5.5-3.667-16-2.5c-8.999 1-14 11-14 11Z"/><path fill="#82DCB9" d="M346 346V106H223l-16.5 20v16H188v15l-22 9v180h180Z"/><path fill="#D22D27" d="m294 136.5 52 12v9.5l-52-21.5Z"/><path fill="#fff" d="m313.762 134 3.625 1.69-6.762 14.501-3.625-1.69zM223 369.349l3.985-.349 1.394 15.94-3.985.348zM253 365.349l3.985-.349 1.394 15.94-3.985.348zM283 361.349l3.985-.349 1.394 15.94-3.985.348zM331.141 141l3.864 1.035-4.141 15.455-3.864-1.035zM147.129 383.208 124.576 375l-1.368 3.758 22.553 8.209zM136.364 383.547l-3.759-1.368-8.208 22.553 3.759 1.368zM115 385H91v4h24zM105 389h-4v24h4z"/></g><g hair='34'><path fill="#E3E3E3" d="M166 166h180V86H166z"/><path fill="#fff" d="m236 114 7.629 24h4.228l-7.565-24H236Zm36.078 0-8.01 24h4.292l7.947-24h-4.229Zm-22.425 12.652h6.2l-6.74 8.487V138h13.478v-4.101h-6.573l6.796-8.487v-2.861h-13.161v4.101Z"/><path fill="#E3E3E3" d="M166 242h180v-24H166z"/><path fill="#E3E3E3" d="M244 166h24v104h-24V166ZM166 166h24v140h-24V166ZM346 166h-24v140h24V166Z"/></g><g dress='56'><g clip-path="url(#a)"><path fill="#ECECEC" d="M166 346h180v54H166z"/><path fill="#fff" d="M166 346h180v16H166zM64 400h384l32 112H32l32-112Z"/><path fill="#ECECEC" d="m236 428 7.629 24h4.228l-7.565-24H236Zm36.078 0-8.01 24h4.292l7.947-24h-4.229Zm-22.425 12.652h6.2l-6.74 8.487V452h13.478v-4.101h-6.573l6.796-8.487v-2.861h-13.161v4.101ZM86 400h54v20H86zM372 400h54v20h-54z"/><circle cx="256" cy="528" r="39" fill="#ECECEC"/><path stroke="#ECECEC" stroke-width="6" d="m137 418 24 59m0 0h190m-190 0-24 39.5M351 477l24-59m-24 59 24 39.5M83 400v112M429 400v112"/></g><defs><clipPath id="a"><path fill="#fff" d="M0 0h512v512H0z"/></clipPath></defs></g><g beard='3'><path fill-rule="evenodd" clip-rule="evenodd" d="M207 346V271H305V346H256H207ZM219 283H293V315H219V283Z" fill="#121212"/></g><g face='7'><path d="M231.114 302H280.403L292 290" stroke="#121212" stroke-width="6"/><rect width="20" height="20" x="212" y="194" fill="#121212" rx="10"><animate attributeName="rx" begin="1s" dur="2s" keyTimes="0;0.25;0.3;0.35;1" repeatCount="indefinite" values="10;10;1;10;10"/><animate attributeName="height" begin="1s" dur="2s" keyTimes="0;0.25;0.3;0.35;1" repeatCount="indefinite" values="20;20;2;20;20"/><animate attributeName="y" begin="1s" dur="2s" keyTimes="0;0.25;0.3;0.35;1" repeatCount="indefinite" values="194;194;203;194;194"/></rect><rect width="20" height="20" x="280" y="194" fill="#121212" rx="10"><animate attributeName="rx" begin="1s" dur="2s" keyTimes="0;0.25;0.3;0.35;1" repeatCount="indefinite" values="10;10;1;10;10"/><animate attributeName="height" begin="1s" dur="2s" keyTimes="0;0.25;0.3;0.35;1" repeatCount="indefinite" values="20;20;2;20;20"/><animate attributeName="y" begin="1s" dur="2s" keyTimes="0;0.25;0.3;0.35;1" repeatCount="indefinite" values="194;194;203;194;194"/></rect><path d="M206 162H238" stroke="#121212" stroke-width="6"/><path d="M274 162H306" stroke="#121212" stroke-width="6"/><path d="M256 218L266 258H246" stroke="#121212" stroke-width="6"/></g><g glass='19'><path fill="#121212" fill-opacity=".4" d="M192 203c0-15.464 12.536-28 28-28s28 12.536 28 28-12.536 28-28 28-28-12.536-28-28Z"/><path stroke="#FFB74A" stroke-width="6" d="M220 175c-15.464 0-28 12.536-28 28m28-28c15.464 0 28 12.536 28 28s-12.536 28-28 28m0-56v28m-28 0c0 15.464 12.536 28 28 28m-28-28-28-27m56 55v-28m0 0-21 18.5m21-18.5 21.5 18.5M248 202h16"/><path fill="#121212" fill-opacity=".4" d="M320 203c0-15.464-12.536-28-28-28s-28 12.536-28 28 12.536 28 28 28 28-12.536 28-28Z"/><path stroke="#FFB74A" stroke-width="6" d="M292 175c15.464 0 28 12.536 28 28m-28-28c-15.464 0-28 12.536-28 28s12.536 28 28 28m0-56v28m28 0c0 15.464-12.536 28-28 28m28-28 28-27m-56 55v-28m0 0 21 18.5M292 203l-21.5 18.5"/></g></svg>