<svg xmlns="http://www.w3.org/2000/svg" width="512" height="512" fill="none"><rect width="512" height="512" fill="#7000FF "/><g skin='4'><path fill="#E24713" d="M134 178h32v64h-20l-12-64ZM378 178h-32v64h20l12-64ZM207 346h98v54h-98z"/><path fill="#F15824" d="M64 400h384l32 112H32l32-112ZM166 106h180v240H166z"/><path fill="#FF845A" d="m236 143 7.629 24h4.228l-7.565-24H236Zm36.078 0-8.01 24h4.292l7.947-24h-4.229Zm-22.425 12.652h6.2l-6.74 8.487V167h13.478v-4.101h-6.573l6.796-8.487v-2.861h-13.161v4.101Z"/><path stroke="#FF845A" stroke-width="6" d="M346 126h-21v43h-23v177M244 109h24v15l-12 13-12-13v-15ZM166 126h21v43h23v177"/><path fill="#FF845A" d="M299 134h6v6h-6zM293 140h6v6h-6zM305 140h6v6h-6zM299 146h6v6h-6zM321 276h6v6h-6zM315 282h6v6h-6zM327 282h6v6h-6zM321 288h6v6h-6zM185 276h6v6h-6zM179 282h6v6h-6zM191 282h6v6h-6zM185 288h6v6h-6zM321 242h6v6h-6zM315 248h6v6h-6zM327 248h6v6h-6zM321 254h6v6h-6zM185 242h6v6h-6zM179 248h6v6h-6zM191 248h6v6h-6zM185 254h6v6h-6zM253 416h6v6h-6zM247 422h6v6h-6zM259 422h6v6h-6zM253 428h6v6h-6zM66 478h6v6h-6zM60 484h6v6h-6zM72 484h6v6h-6zM66 490h6v6h-6zM199 416h6v6h-6zM193 422h6v6h-6zM205 422h6v6h-6zM199 428h6v6h-6zM199 447h6v6h-6zM193 453h6v6h-6zM205 453h6v6h-6zM199 459h6v6h-6zM308 416h6v6h-6zM302 422h6v6h-6zM314 422h6v6h-6zM308 428h6v6h-6zM308 447h6v6h-6zM302 453h6v6h-6zM314 453h6v6h-6zM308 459h6v6h-6zM440 478h6v6h-6zM434 484h6v6h-6zM446 484h6v6h-6zM440 490h6v6h-6zM308 478h6v6h-6zM302 484h6v6h-6zM314 484h106v6.057H314zM308 490h6v6h-6zM199 478h6v6h-6zM92 484h107v6H92zM205 484h6v6h-6zM199 490h6v6h-6zM321 310h6v6h-6zM315 316h6v6h-6zM327 316h6v6h-6zM321 322h6v24h-6zM185 310h6v6h-6zM179 316h6v6h-6zM191 316h6v6h-6zM185 322h6v24h-6zM207 134h6v6h-6zM201 140h6v6h-6zM213 140h6v6h-6zM207 146h6v6h-6z"/><path stroke="#FF845A" stroke-width="6" d="M235 373v-10h15v-17m-15 27v11h12v-11h-12ZM277 374v10h-15v16m15-26v-11h-12v11h12ZM384 428l10-4 6 5 6-5 10 4v10l-16 14-16-14v-10ZM250 452v44M258 452v4M258 492v4M270 462v9M270 477v9M243 459h24M250 474h17M243 489h24"/><path fill="#FF845A" d="M124 431h6v6h-6zM118 437h6v6h-6zM104 437h6v6h-6zM130 437h6v6h-6zM124 443h6v6h-6z"/><path stroke="#FF845A" stroke-width="6" d="M96 424h48v32H96z"/></g><g hair='28'><path fill="#D22D27" d="M196.5 144v-38H155l-41-58 16 96h66.5ZM316 144v-38h41.5l41-58-16 96H316Z"/></g><g dress='90'><path fill="#fff" d="M207 481h98v-73s-15.5 24-48 24-50-24-50-24v73Z"/><path fill="#D33600" d="M64 400h143l50 67 48-67h143l32 112H32l32-112Z"/><path fill="#FF9672" d="m338 456 7.629 24h4.228l-7.565-24H338Zm36.078 0-8.01 24h4.292l7.947-24h-4.229Zm-22.425 12.652h6.2l-6.74 8.487V480h13.478v-4.101h-6.573l6.796-8.487v-2.861h-13.161v4.101Z"/><path fill="#121212" d="m185.613 464.97 1.6-3.009-7.29-3.876 1.668-3.136 9.747-5.961 4.874 2.591-5.002 9.409 2.458 1.307-1.285 2.416-2.458-1.307-1.6 3.009-2.712-1.443Zm-1.82-7.926 4.704 2.502 4.079-7.671-.381-.203-8.222 5.033-.18.339Zm8.341 11.394.947-1.78c.548-1.031 1.172-1.796 1.871-2.294a4.93 4.93 0 0 1 2.364-.918c.89-.106 1.877-.053 2.959.16l1.657.31c.612.109 1.159.137 1.64.084a2.923 2.923 0 0 0 1.29-.483c.386-.248.698-.598.939-1.05l.045-.085c.376-.706.432-1.392.17-2.057-.255-.679-.8-1.24-1.633-1.683-.82-.436-1.604-.563-2.353-.381-.727.175-1.312.679-1.755 1.512l-.203.382-2.713-1.442.181-.339c.571-1.074 1.295-1.858 2.174-2.351a5.313 5.313 0 0 1 2.862-.68c1.044.048 2.074.342 3.091.883 1.017.541 1.831 1.227 2.44 2.058.616.817.97 1.703 1.06 2.657.113.948-.083 1.895-.586 2.841l-.113.212c-.503.947-1.129 1.647-1.878 2.1a5.376 5.376 0 0 1-2.424.777 11.447 11.447 0 0 1-2.808-.188l-1.582-.298c-.705-.139-1.287-.186-1.746-.14-.452.032-.82.144-1.104.337-.262.187-.491.464-.686.831l-.045.085 7.988 4.248-1.284 2.416-10.765-5.724Zm18.4 10.164c-1.752-.931-2.902-2.159-3.451-3.683-.541-1.538-.289-3.289.755-5.253l1.983-3.73c1.014-1.907 2.313-3.073 3.899-3.499 1.593-.439 3.265-.193 5.017.738 1.766.939 2.905 2.188 3.417 3.747.533 1.552.293 3.282-.721 5.189l-1.983 3.73c-1.044 1.963-2.355 3.151-3.933 3.562-1.556.405-3.217.138-4.983-.801Zm1.285-2.416c1.059.564 1.99.687 2.793.371.816-.309 1.51-1 2.081-2.074l2.095-3.941c.579-1.088.732-2.058.46-2.909-.251-.858-.849-1.539-1.796-2.042-.975-.518-1.891-.634-2.75-.348-.845.294-1.545.963-2.101 2.009l-2.096 3.941c-.593 1.116-.786 2.092-.578 2.927.23.829.86 1.518 1.892 2.066Z"/><path fill="#FF9672" d="m207 400 50 67-122-67h72ZM305 400l-48 67 122-67h-74Z"/><path stroke="#FF9672" stroke-width="6" d="M257 465v47"/></g><g beard='9'><rect x="236" y="322" width="40" height="24" fill="#121212"/><rect x="166" y="242" width="12" height="104" fill="#121212"/><rect x="334" y="242" width="12" height="104" fill="#121212"/><path d="M166 286H207V346H166V286Z" fill="#121212"/><path d="M346 286H305V346H346V286Z" fill="#121212"/></g><g face='9'><path d="M246 289.391C246 289.391 258.823 284.011 262 289.391C265.153 294.732 254.5 303.391 254.5 303.391C254.5 303.391 267.632 299.309 270.5 304.891C273.719 311.156 258 317.891 258 317.891" stroke="#121212" stroke-width="6"/><rect width="20" height="20" x="212" y="194" fill="#121212" rx="10"><animate attributeName="rx" begin="1s" dur="2s" keyTimes="0;0.25;0.3;0.35;1" repeatCount="indefinite" values="10;10;1;10;10"/><animate attributeName="height" begin="1s" dur="2s" keyTimes="0;0.25;0.3;0.35;1" repeatCount="indefinite" values="20;20;2;20;20"/><animate attributeName="y" begin="1s" dur="2s" keyTimes="0;0.25;0.3;0.35;1" repeatCount="indefinite" values="194;194;203;194;194"/></rect><rect width="20" height="20" x="280" y="194" fill="#121212" rx="10"><animate attributeName="rx" begin="1s" dur="2s" keyTimes="0;0.25;0.3;0.35;1" repeatCount="indefinite" values="10;10;1;10;10"/><animate attributeName="height" begin="1s" dur="2s" keyTimes="0;0.25;0.3;0.35;1" repeatCount="indefinite" values="20;20;2;20;20"/><animate attributeName="y" begin="1s" dur="2s" keyTimes="0;0.25;0.3;0.35;1" repeatCount="indefinite" values="194;194;203;194;194"/></rect><path d="M206 162H238" stroke="#121212" stroke-width="6"/><path d="M274 162H306" stroke="#121212" stroke-width="6"/><path d="M256 218L266 258H246" stroke="#121212" stroke-width="6"/></g><g glass='16'><path fill="#425824" fill-opacity=".6" d="M166 178h180v56h-69l-21-16-21 16h-69v-56Z"/><path stroke="#42B16C" stroke-width="2" d="M199 224h26.5l4 5M312.5 224H286l-4 5M174 194v24M182 222v4M329.5 222v4M186 222v4M325.5 222v4M190 222v4M321.5 222v4M194 222v4M317.5 222v4M338 194v24M178 190h59.5l4.5-4.5h8.5M334 190h-59.5l-4.5-4.5h-8.5M247 194l4.5 5h9l4.5-5"/></g></svg>