<svg xmlns="http://www.w3.org/2000/svg" width="512" height="512" fill="none"><rect width="512" height="512" fill="#FF9900 "/><g skin='12'><path fill="#80573E" d="M134 178h32v64h-20l-12-64ZM378 178h-32v64h20l12-64ZM207 346h98v54h-98z"/><path fill="#8B634A" d="M64 400h384l32 112H32l32-112Z"/><path fill="#AE7B5C" d="M136 456h240v56H136z"/><path fill="#8B634A" d="M166 106h180v240H166z"/><path fill="#AE7B5C" d="M207 242h98v104h-98zM182 178h148v64H182z"/></g><g hair='69'><path fill="#D22D27" d="M166 138h180V50H166z"/><path fill="#FFB74A" d="M150 162h212v-24H150zM230 24h52v114h-52z"/><path fill="#D22D27" d="m236 38 7.505 24h4.159l-7.442-24H236Zm35.492 0-7.88 24h4.222l7.818-24h-4.16Zm-22.061 12.652h6.099l-6.63 8.487V62h13.259v-4.1h-6.466l6.685-8.489v-2.86h-12.947v4.1Z"/><circle cx="256" cy="150" r="6" fill="#D22D27"/><circle cx="256" cy="116" r="6" fill="#D22D27"/><circle cx="256" cy="88" r="6" fill="#D22D27"/><circle cx="220" cy="150" r="6" fill="#D22D27"/><circle cx="184" cy="150" r="6" fill="#D22D27"/><circle cx="328" cy="150" r="6" fill="#D22D27"/><circle cx="292" cy="150" r="6" fill="#D22D27"/><path fill="#FFB74A" d="M166 50h24v88h-24zM322 50h24v88h-24z"/><circle cx="334" cy="116" r="6" fill="#D22D27"/><circle cx="178" cy="116" r="6" fill="#D22D27"/><circle cx="334" cy="88" r="6" fill="#D22D27"/><circle cx="334" cy="60" r="6" fill="#D22D27"/><circle cx="178" cy="88" r="6" fill="#D22D27"/><circle cx="178" cy="60" r="6" fill="#D22D27"/></g><g dress='63'><path fill="#77492D" d="M64 400h96s0 72 96 72 96-72 96-72h96l32 112H32l32-112Z"/><path fill="#fff" d="M207 512h98V408s-15.5 24-48 24-50-24-50-24v104Z"/><path fill="#8B634A" d="m137 400 70-54v166h-41l-29-55.5 29-21.5-29-35ZM375 400l-70-54v166h41l29-55.5-29-21.5 29-35Z"/></g><g beard='1'><path d="M166 266L206 286V346H166V266Z" fill="#121212"/><path d="M346 266L306 286V346H346V266Z" fill="#121212"/><rect x="206" y="322" width="100" height="24" fill="#121212"/></g><g face='8'><path d="M230.711 302H280" stroke="#121212" stroke-width="6"/><rect width="20" height="20" x="212" y="194" fill="#121212" rx="10"><animate attributeName="rx" begin="1s" dur="2s" keyTimes="0;0.25;0.3;0.35;1" repeatCount="indefinite" values="10;10;1;10;10"/><animate attributeName="height" begin="1s" dur="2s" keyTimes="0;0.25;0.3;0.35;1" repeatCount="indefinite" values="20;20;2;20;20"/><animate attributeName="y" begin="1s" dur="2s" keyTimes="0;0.25;0.3;0.35;1" repeatCount="indefinite" values="194;194;203;194;194"/></rect><rect width="20" height="20" x="280" y="194" fill="#121212" rx="10"><animate attributeName="rx" begin="1s" dur="2s" keyTimes="0;0.25;0.3;0.35;1" repeatCount="indefinite" values="10;10;1;10;10"/><animate attributeName="height" begin="1s" dur="2s" keyTimes="0;0.25;0.3;0.35;1" repeatCount="indefinite" values="20;20;2;20;20"/><animate attributeName="y" begin="1s" dur="2s" keyTimes="0;0.25;0.3;0.35;1" repeatCount="indefinite" values="194;194;203;194;194"/></rect><path d="M206 162H238" stroke="#121212" stroke-width="6"/><path d="M274 162H306" stroke="#121212" stroke-width="6"/><path d="M256 218L266 258H246" stroke="#121212" stroke-width="6"/></g><g glass='13'><path fill="#D22D27" fill-opacity=".6" d="m189.583 182.714 19.58-8.714 10.878 8.893L230.919 174l19.581 8.714v26.143L220.041 235l-30.458-26.143v-26.143Z"/><path stroke="#D22D27" stroke-width="6" d="M189.583 182.714v26.143L220.041 235l30.459-26.143V190m-60.917-7.286 19.58-8.714 10.878 8.893L230.919 174l19.581 8.714V190m-60.917-7.286L163 175.5m87.5 14.5H262"/><path fill="#D22D27" fill-opacity=".6" d="m322.417 183.214-19.58-8.714-10.878 8.893-10.878-8.893-19.581 8.714v26.143l30.459 26.143 30.458-26.143v-26.143Z"/><path stroke="#D22D27" stroke-width="6" d="M322.417 183.214v26.143L291.959 235.5 261.5 209.357v-26.143l19.581-8.714 10.878 8.893 10.878-8.893 19.58 8.714Zm0 0L349 176"/></g></svg>