<svg width="512" height="512" viewBox="0 0 512 512" fill="none" xmlns="http://www.w3.org/2000/svg">
<path d="M303.239 64.0032C302.67 63.365 301.855 63 301 63C300.145 63 299.33 63.365 298.761 64.0032L265.761 101.003C264.974 101.885 264.779 103.148 265.262 104.227C265.746 105.306 266.818 106 268 106H334C335.182 106 336.254 105.306 336.738 104.227C337.221 103.148 337.026 101.885 336.239 101.003L303.239 64.0032Z" fill="#B7B7B7" stroke="#121212" stroke-width="6" stroke-linejoin="round"/>
<path d="M212.239 64.0032C211.67 63.365 210.855 63 210 63C209.145 63 208.33 63.365 207.761 64.0032L174.761 101.003C173.974 101.885 173.779 103.148 174.262 104.227C174.746 105.306 175.818 106 177 106H243C244.182 106 245.254 105.306 245.738 104.227C246.221 103.148 246.026 101.885 245.239 101.003L212.239 64.0032Z" fill="#B7B7B7" stroke="#121212" stroke-width="6" stroke-linejoin="round"/>
<path d="M166 141C164.343 141 163 139.657 163 138V102V52.5C163 51.2606 163.762 50.1488 164.918 49.7018C166.074 49.2549 167.386 49.5649 168.22 50.482L210.975 97.5126L252.758 50.5069C253.319 49.8751 254.122 49.5095 254.967 49.5002C255.812 49.4908 256.622 49.8385 257.198 50.4578L300.976 97.5669L343.78 50.482C344.614 49.5649 345.926 49.2549 347.082 49.7018C348.238 50.1488 349 51.2606 349 52.5V102V138C349 139.657 347.657 141 346 141H166Z" fill="#F5EEE6" stroke="#121212" stroke-width="6" stroke-linejoin="round"/>
<path d="M241.881 100.169C241.308 100.74 240.99 101.52 241 102.329C241.01 103.139 241.347 103.91 241.934 104.468L254.258 116.175C255.439 117.297 257.299 117.271 258.449 116.118L270.124 104.411C271.272 103.26 271.294 101.405 270.175 100.227L258.5 87.934C257.943 87.3479 257.173 87.0112 256.365 87.0003C255.557 86.9894 254.778 87.3051 254.206 87.876L241.881 100.169Z" fill="#1FE4FF" stroke="#121212" stroke-width="6" stroke-linejoin="round"/>
<path d="M332.853 100.173C332.297 100.742 331.991 101.509 332 102.305C332.01 103.101 332.335 103.86 332.905 104.416L343.905 115.147C344.769 115.99 346.053 116.233 347.165 115.764C348.277 115.296 349 114.207 349 113V91C349 89.78 348.261 88.6816 347.131 88.2215C346.001 87.7614 344.705 88.0314 343.853 88.9044L332.853 100.173Z" fill="#FF0900" stroke="#121212" stroke-width="6" stroke-linejoin="round"/>
<path d="M179.147 100.173C179.703 100.742 180.009 101.509 180 102.305C179.99 103.101 179.665 103.86 179.095 104.416L168.095 115.147C167.231 115.99 165.947 116.233 164.835 115.764C163.723 115.296 163 114.207 163 113V91C163 89.78 163.739 88.6816 164.869 88.2215C165.999 87.7614 167.295 88.0314 168.147 88.9044L179.147 100.173Z" fill="#FF0900" stroke="#121212" stroke-width="6" stroke-linejoin="round"/>
<circle cx="167" cy="48" r="15" fill="#F5EEE6" stroke="#121212" stroke-width="6" stroke-linejoin="round"/>
<circle cx="256" cy="48" r="15" fill="#F5EEE6" stroke="#121212" stroke-width="6" stroke-linejoin="round"/>
<circle cx="345" cy="48" r="15" fill="#F5EEE6" stroke="#121212" stroke-width="6" stroke-linejoin="round"/>
<rect x="-3" y="3" width="186" height="30" transform="matrix(1 0 0 -1 166 168)" fill="#B7B7B7" stroke="#121212" stroke-width="6" stroke-linejoin="round"/>
</svg>
