<svg xmlns="http://www.w3.org/2000/svg" viewBox="0 0 512 512"><g id="layer1" transform="translate(0, 0)"><svg width="512" height="512" viewBox="0 0 512 512" fill="none" xmlns="http://www.w3.org/2000/svg">
<g clip-path="url(#clip0_75_1422)">
<path d="M512 0H0V512H512V0Z" fill="#FF9900"/>
<path d="M428 340H84V500H428V340Z" fill="#36CF00"/>
<path d="M316 176H196V472H316V176Z" fill="#3BE200"/>
<path d="M316 176H196V96H316V176Z" fill="#36CF00"/>
<path d="M262 96H250V132H262V96Z" fill="#3BE200"/>
</g>
<defs>
<clipPath id="clip0_75_1422">
<rect width="512" height="512" fill="white"/>
</clipPath>
</defs>
</svg>
</g><g id="layer2" transform="translate(84, 22)"><svg width="344" height="344" viewBox="0 0 344 344" fill="none" xmlns="http://www.w3.org/2000/svg">
<path d="M111.9 71.02H232.5V119.26L223.12 111.89C223.12 111.89 224.905 103.213 223.12 98.155C219.885 88.9846 212.074 84.42 202.35 84.42C187.275 84.42 172.2 103.85 172.2 103.85C172.2 103.85 154.11 84.42 142.05 84.42C132.651 84.42 125.418 89.293 122.285 98.155C120.497 103.212 122.285 111.89 122.285 111.89L111.9 119.26V71.02Z" fill="#121212"/>
</svg>
</g><g id="layer3" transform="translate(84, 55)"><svg width="344" height="344" viewBox="0 0 344 344" fill="none" xmlns="http://www.w3.org/2000/svg">
<path fill-rule="evenodd" clip-rule="evenodd" d="M112.18 113.9H232.78V151.42L186.55 159.46L172.48 148.74L158.41 159.46L112.18 151.42V113.9ZM163.77 136.68C163.77 144.451 157.471 150.75 149.7 150.75C141.929 150.75 135.63 144.451 135.63 136.68C135.63 128.91 141.929 122.61 149.7 122.61C157.471 122.61 163.77 128.91 163.77 136.68ZM195.26 150.75C203.031 150.75 209.33 144.451 209.33 136.68C209.33 128.91 203.031 122.61 195.26 122.61C187.489 122.61 181.19 128.91 181.19 136.68C181.19 144.451 187.489 150.75 195.26 150.75Z" fill="#121212"/>
</svg>
</g><g id="layer4" transform="translate(84, 140)"><svg width="344" height="344" viewBox="0 0 344 344" fill="none" xmlns="http://www.w3.org/2000/svg">
<path d="M154.577 202.82H187.6" stroke="#121212" stroke-width="4.02"/>
</svg>
</g></svg>