<svg xmlns="http://www.w3.org/2000/svg" viewBox="0 0 512 512"><g id="layer1" transform="translate(0, 0)"><svg width="512" height="512" viewBox="0 0 512 512" fill="none" xmlns="http://www.w3.org/2000/svg">
<g clip-path="url(#clip0_75_1422)">
<path d="M512 0H0V512H512V0Z" fill="#FF9900"/>
<path d="M428 340H84V500H428V340Z" fill="#36CF00"/>
<path d="M316 176H196V472H316V176Z" fill="#3BE200"/>
<path d="M316 176H196V96H316V176Z" fill="#36CF00"/>
<path d="M262 96H250V132H262V96Z" fill="#3BE200"/>
</g>
<defs>
<clipPath id="clip0_75_1422">
<rect width="512" height="512" fill="white"/>
</clipPath>
</defs>
</svg>
</g><g id="layer2" transform="translate(84, 22)"><svg width="344" height="344" viewBox="0 0 344 344" fill="none" xmlns="http://www.w3.org/2000/svg">
<rect width="120.6" height="32.16" transform="matrix(1 0 0 -1 111.54 103.22)" fill="#121212"/>
<path d="M216.06 76.4199L219.21 82.8036L226.255 83.8273L221.158 88.7963L222.361 95.8126L216.06 92.4999L209.759 95.8126L210.962 88.7963L205.865 83.8273L212.909 82.8036L216.06 76.4199Z" fill="#525252"/>
<rect width="120.6" height="8.04" transform="matrix(1 0 0 -1 111.54 111.26)" fill="#525252"/>
<path d="M91.105 106.905L111.54 71.0601H180.215L120.92 125.33L91.105 106.905Z" fill="#121212"/>
</svg>
</g><g id="layer3" transform="translate(256, 227)"><svg></svg></g><g id="layer4" transform="translate(84, 140)"><svg width="344" height="344" viewBox="0 0 344 344" fill="none" xmlns="http://www.w3.org/2000/svg">
<path d="M155.097 202.82H188.12" stroke="#121212" stroke-width="4.02"/>
<path d="M252.44 202.82C252.44 222.431 236.542 238.33 216.93 238.33C197.318 238.33 182.425 207.51 172.04 202.82C182.76 198.13 197.318 167.31 216.93 167.31C236.542 167.31 252.44 183.208 252.44 202.82Z" fill="#FF008A" fill-opacity="0.8" stroke="#121212" stroke-width="4.02"/>
</svg>
</g></svg>