<svg xmlns="http://www.w3.org/2000/svg" viewBox="0 0 512 512"><g id="layer1" transform="translate(0, 0)"><svg width="512" height="512" viewBox="0 0 512 512" fill="none" xmlns="http://www.w3.org/2000/svg">
<g clip-path="url(#clip0_75_1459)">
<path d="M512 0H0V512H512V0Z" fill="#FF9900"/>
<path d="M428 340H84V500H428V340Z" fill="#8B634A"/>
<path d="M316 176H196V472H316V176Z" fill="#AE7B5C"/>
<path d="M316 176H196V96H316V176Z" fill="#8B634A"/>
<path d="M262 96H250V132H262V96Z" fill="#AE7B5C"/>
</g>
<defs>
<clipPath id="clip0_75_1459">
<rect width="512" height="512" fill="white"/>
</clipPath>
</defs>
</svg>
</g><g id="layer2" transform="translate(84, 22)"><svg width="344" height="344" viewBox="0 0 344 344" fill="none" xmlns="http://www.w3.org/2000/svg">
<circle cx="170.35" cy="54.9399" r="24.79" fill="#121212"/>
<circle cx="154.27" cy="79.7299" r="24.79" fill="#121212"/>
<circle cx="188.44" cy="79.7299" r="24.79" fill="#121212"/>
<circle cx="127.47" cy="64.9897" r="24.79" fill="#121212"/>
<circle cx="112.06" cy="94.4697" r="24.79" fill="#121212"/>
<circle cx="232.66" cy="94.4697" r="24.79" fill="#121212"/>
<circle cx="215.91" cy="64.9897" r="24.79" fill="#121212"/>
</svg>
</g><g id="layer3" transform="translate(84, 55)"><svg width="344" height="344" viewBox="0 0 344 344" fill="none" xmlns="http://www.w3.org/2000/svg">
<path d="M111.7 119.26H232.3V154.1L186.07 156.78L172 146.06L157.93 156.78L111.7 154.1V119.26Z" fill="#121212"/>
<rect x="122.42" y="129.979" width="99.16" height="13.4" fill="#D22D27"/>
</svg>
</g><g id="layer4" transform="translate(84, 140)"><svg width="344" height="344" viewBox="0 0 344 344" fill="none" xmlns="http://www.w3.org/2000/svg">
<path d="M196.32 207.51H148.08L196.32 190.09V207.51Z" fill="white"/>
</svg>
</g></svg>