<svg xmlns="http://www.w3.org/2000/svg" viewBox="0 0 512 512"><g id="layer1" transform="translate(0, 0)"><svg width="512" height="512" viewBox="0 0 512 512" fill="none" xmlns="http://www.w3.org/2000/svg">
<g clip-path="url(#clip0_75_1405)">
<path d="M512 0H0V512H512V0Z" fill="#FF9900"/>
<path d="M428 340H84V500H428V340Z" fill="#0097D8"/>
<path d="M316 176H196V472H316V176Z" fill="#00B2FF"/>
<path d="M227.5 400.5L196 431V415L227.5 400.5Z" fill="#2C71A3"/>
<path d="M222 336L196 344V328L222 336Z" fill="#2C71A3"/>
<path d="M124 429.5L84 465V449L124 429.5Z" fill="#2C71A3"/>
<path d="M276 347.5L316 383V367L276 347.5Z" fill="#2C71A3"/>
<path d="M388 429.5L428 465V449L388 429.5Z" fill="#2C71A3"/>
<path d="M124 406L84 374V386.8L124 406Z" fill="#2C71A3"/>
<path d="M276 324L316 292V304.8L276 324Z" fill="#2C71A3"/>
<path d="M388 406L428 374V386.8L388 406Z" fill="#2C71A3"/>
<path d="M228 176H212L228 216V176Z" fill="#2C71A3"/>
<path d="M264 176H248L256 282L264 176Z" fill="#2C71A3"/>
<path d="M300 176H284V216L300 176Z" fill="#2C71A3"/>
<path d="M316 176H196V96H316V176Z" fill="#0097D8"/>
<path d="M262 96H250V132H262V96Z" fill="#00B2FF"/>
</g>
<defs>
<clipPath id="clip0_75_1405">
<rect width="512" height="512" fill="white"/>
</clipPath>
</defs>
</svg>
</g><g id="layer2" transform="translate(84, 22)"><svg width="344" height="344" viewBox="0 0 344 344" fill="none" xmlns="http://www.w3.org/2000/svg">
<path d="M112.011 71.57V232.37H71.3969C51.4231 201.55 87.3761 186.978 87.3761 186.978C87.3761 186.978 71.3969 182.455 71.3969 164.281C71.3969 146.107 87.3761 141.585 87.3761 141.585C87.3761 141.585 71.3969 134.885 71.3969 118.889C71.3969 102.893 87.3761 96.1925 87.3761 96.1925C87.3761 96.1925 79.5919 69.895 93.0359 57.165C106.48 44.435 129.821 50.8 129.821 50.8C129.821 50.8 135.647 24 172.266 24C208.885 24 214.711 50.8 214.711 50.8C214.711 50.8 239.512 44.9141 252.495 57.165C265.479 69.4159 257.322 96.1925 257.322 96.1925C257.322 96.1925 273.448 98.705 273.634 118.889C273.801 136.895 257.655 141.585 257.655 141.585C257.655 141.585 273.967 146.442 273.801 164.281C273.634 182.12 257.655 186.978 257.655 186.978C257.655 186.978 295.107 200.88 273.801 232.37H231.855V71.57H112.011Z" fill="#121212"/>
<ellipse cx="117.67" cy="83.965" rx="24.9676" ry="22.445" fill="#121212"/>
<ellipse cx="171.933" cy="71.5699" rx="40.6139" ry="30.15" fill="#121212"/>
<ellipse cx="224.532" cy="83.965" rx="26.6321" ry="22.445" fill="#121212"/>
</svg>
</g><g id="layer3" transform="translate(84, 55)"><svg width="344" height="344" viewBox="0 0 344 344" fill="none" xmlns="http://www.w3.org/2000/svg">
<path d="M111.7 119.26H232.3V154.1L186.07 156.78L172 146.06L157.93 156.78L111.7 154.1V119.26Z" fill="#121212"/>
<rect x="122.42" y="129.979" width="99.16" height="13.4" fill="#D22D27"/>
</svg>
</g><g id="layer4" transform="translate(84, 140)"><svg width="344" height="344" viewBox="0 0 344 344" fill="none" xmlns="http://www.w3.org/2000/svg">
<path d="M155.206 202.82H188.23L196 194.78" stroke="#121212" stroke-width="4.02"/>
</svg>
</g></svg>