<svg xmlns="http://www.w3.org/2000/svg" viewBox="0 0 512 512"><g id="layer1" transform="translate(0, 0)"><svg width="512" height="512" viewBox="0 0 512 512" fill="none" xmlns="http://www.w3.org/2000/svg">
<g clip-path="url(#clip0_75_1379)">
<path d="M512 0H0V512H512V0Z" fill="#FF9900"/>
<path d="M428 340H84V500H428V340Z" fill="#CACACA"/>
<path d="M316 176H196V472H316V176Z" fill="#E3E3E3"/>
<path d="M316 176H196V96H316V176Z" fill="#CACACA"/>
<path d="M300 251C300 246.582 296.418 243 292 243C287.582 243 284 246.582 284 251C284 255.418 287.582 259 292 259C296.418 259 300 255.418 300 251Z" fill="#1D1D1D"/>
<path d="M296 423C296 418.582 292.418 415 288 415C283.582 415 280 418.582 280 423C280 427.418 283.582 431 288 431C292.418 431 296 427.418 296 423Z" fill="#1D1D1D"/>
<path d="M164 468C164 463.582 160.418 460 156 460C151.582 460 148 463.582 148 468C148 472.418 151.582 476 156 476C160.418 476 164 472.418 164 468Z" fill="#1D1D1D"/>
<path d="M346 374C346 378.418 349.582 382 354 382C358.418 382 362 378.418 362 374C362 369.582 358.418 366 354 366C349.582 366 346 369.582 346 374Z" fill="#1D1D1D"/>
<path d="M364 431C364 435.418 367.582 439 372 439C376.418 439 380 435.418 380 431C380 426.582 376.418 423 372 423C367.582 423 364 426.582 364 431Z" fill="#1D1D1D"/>
<path d="M234 243C234 236.373 228.627 231 222 231C215.373 231 210 236.373 210 243C210 249.627 215.373 255 222 255C228.627 255 234 249.627 234 243Z" fill="#1D1D1D"/>
<path d="M234 443C234 436.373 228.627 431 222 431C215.373 431 210 436.373 210 443C210 449.627 215.373 455 222 455C228.627 455 234 449.627 234 443Z" fill="#1D1D1D"/>
<path d="M118 442C118 438.686 115.314 436 112 436C108.686 436 106 438.686 106 442C106 445.314 108.686 448 112 448C115.314 448 118 445.314 118 442Z" fill="#1D1D1D"/>
<path d="M262 96H250V132H262V96Z" fill="#E3E3E3"/>
</g>
<defs>
<clipPath id="clip0_75_1379">
<rect width="512" height="512" fill="white"/>
</clipPath>
</defs>
</svg>
</g><g id="layer2" transform="translate(84, 22)"><svg width="344" height="344" viewBox="0 0 344 344" fill="none" xmlns="http://www.w3.org/2000/svg">
<rect width="120.6" height="32.16" transform="matrix(1 0 0 -1 111.54 103.22)" fill="#121212"/>
<path d="M216.06 76.4199L219.21 82.8036L226.255 83.8273L221.158 88.7963L222.361 95.8126L216.06 92.4999L209.759 95.8126L210.962 88.7963L205.865 83.8273L212.909 82.8036L216.06 76.4199Z" fill="#525252"/>
<rect width="120.6" height="8.04" transform="matrix(1 0 0 -1 111.54 111.26)" fill="#525252"/>
<path d="M91.105 106.905L111.54 71.0601H180.215L120.92 125.33L91.105 106.905Z" fill="#121212"/>
</svg>
</g><g id="layer3" transform="translate(256, 227)"><svg></svg></g><g id="layer4" transform="translate(84, 140)"><svg width="344" height="344" viewBox="0 0 344 344" fill="none" xmlns="http://www.w3.org/2000/svg">
<path d="M155.097 202.82H188.12" stroke="#121212" stroke-width="4.02"/>
<path d="M252.44 202.82C252.44 222.431 236.542 238.33 216.93 238.33C197.318 238.33 182.425 207.51 172.04 202.82C182.76 198.13 197.318 167.31 216.93 167.31C236.542 167.31 252.44 183.208 252.44 202.82Z" fill="#FF008A" fill-opacity="0.8" stroke="#121212" stroke-width="4.02"/>
</svg>
</g></svg>