<svg xmlns="http://www.w3.org/2000/svg" viewBox="0 0 512 512"><g id="layer1" transform="translate(0, 0)"><svg width="512" height="512" viewBox="0 0 512 512" fill="none" xmlns="http://www.w3.org/2000/svg">
<g clip-path="url(#clip0_75_1471)">
<path d="M512 0H0V512H512V0Z" fill="#FF9900"/>
<path d="M428 340H84V500H428V340Z" fill="#B7009A"/>
<path d="M316 176H196V472H316V176Z" fill="#D800B5"/>
<path d="M316 176H196V96H316V176Z" fill="#B7009A"/>
<path d="M262 96H250V132H262V96Z" fill="#D800B5"/>
<path d="M256 295L243.839 267L256 239L268.161 267L256 295Z" fill="white"/>
<path d="M263.919 267C263.919 262.626 260.374 259.081 256 259.081C251.626 259.081 248.08 262.626 248.08 267C248.08 271.374 251.626 274.92 256 274.92C260.374 274.92 263.919 271.374 263.919 267Z" fill="#007089"/>
<path d="M228 448L256 435.839L284 448L256 460.161L228 448Z" fill="white"/>
<path d="M256 455.919C260.374 455.919 263.919 452.374 263.919 448C263.919 443.626 260.374 440.08 256 440.08C251.626 440.08 248.08 443.626 248.08 448C248.08 452.374 251.626 455.919 256 455.919Z" fill="#007089"/>
<path d="M228 392L256 379.839L284 392L256 404.161L228 392Z" fill="white"/>
<path d="M256 399.919C260.374 399.919 263.919 396.374 263.919 392C263.919 387.626 260.374 384.08 256 384.08C251.626 384.08 248.08 387.626 248.08 392C248.08 396.374 251.626 399.919 256 399.919Z" fill="#007089"/>
</g>
<defs>
<clipPath id="clip0_75_1471">
<rect width="512" height="512" fill="white"/>
</clipPath>
</defs>
</svg>
</g><g id="layer2" transform="translate(84, 22)"><svg width="344" height="344" viewBox="0 0 344 344" fill="none" xmlns="http://www.w3.org/2000/svg">
<path d="M112 94.96H232V72.46C232 60.0336 221.926 49.96 209.5 49.96H134.5C122.074 49.96 112 60.0336 112 72.46V94.96Z" fill="#96469A"/>
<rect width="120" height="16" transform="matrix(1 0 0 -1 112 110.96)" fill="#704B9F"/>
</svg>
</g><g id="layer3" transform="translate(84, 55)"><svg width="344" height="344" viewBox="0 0 344 344" fill="none" xmlns="http://www.w3.org/2000/svg">
<path d="M128.84 136.69C128.84 126.329 137.239 117.93 147.6 117.93V117.93V117.93C157.961 117.93 166.36 126.329 166.36 136.69V136.69C166.36 147.051 157.961 155.45 147.6 155.45V155.45C137.239 155.45 128.84 147.051 128.84 136.69V136.69V136.69Z" fill="#121212" fill-opacity="0.4"/>
<path d="M128.84 136.69V136.69C128.84 147.051 137.239 155.45 147.6 155.45V155.45C157.961 155.45 166.36 147.051 166.36 136.69V136.69C166.36 126.329 157.961 117.93 147.6 117.93V117.93V117.93C137.239 117.93 128.84 126.329 128.84 136.69V136.69ZM128.84 136.69L110.08 118.6" stroke="#121212" stroke-width="4.02"/>
<path d="M166.36 136.02H177.08" stroke="#121212" stroke-width="4.02"/>
<path d="M177.08 136.69C177.08 126.329 185.479 117.93 195.84 117.93V117.93V117.93C206.201 117.93 214.6 126.329 214.6 136.69V136.69V136.69C214.6 147.051 206.201 155.45 195.84 155.45V155.45C185.479 155.45 177.08 147.051 177.08 136.69V136.69Z" fill="#121212" fill-opacity="0.4"/>
<path d="M214.6 136.69V136.69C214.6 126.329 206.201 117.93 195.84 117.93V117.93V117.93C185.479 117.93 177.08 126.329 177.08 136.69V136.69C177.08 147.051 185.479 155.45 195.84 155.45V155.45C206.201 155.45 214.6 147.051 214.6 136.69V136.69ZM214.6 136.69L233.36 118.6" stroke="#121212" stroke-width="4.02"/>
</svg>
</g><g id="layer4" transform="translate(84, 140)"><svg width="344" height="344" viewBox="0 0 344 344" fill="none" xmlns="http://www.w3.org/2000/svg">
<path d="M144.8 190.76H198.4L195.72 202.15L193.04 212.87H150.16L147.48 202.15L144.8 190.76Z" fill="white"/>
<path d="M147.48 202.15L150.16 212.87H193.04L195.72 202.15M147.48 202.15L144.8 190.76H198.4L195.72 202.15M147.48 202.15H195.72" stroke="#121212" stroke-width="4.02"/>
<path d="M171.767 269.484C146.81 269.484 133.41 253.404 133.41 253.404L164.793 202.149H178.741L210.125 253.404C210.125 253.404 196.725 269.484 171.767 269.484Z" fill="#FFB74A" stroke="#121212" stroke-width="4.02"/>
<path d="M171.767 269.484C146.81 269.484 133.41 253.404 133.41 253.404L138.538 245.029C138.538 245.029 150.495 257.759 171.767 257.759C191.03 257.759 204.997 245.029 204.997 245.029L210.125 253.404C210.125 253.404 196.725 269.484 171.767 269.484Z" fill="#FF9900" stroke="#121212" stroke-width="4.02"/>
<circle cx="161.55" cy="241.01" r="8.04" fill="#D22D27"/>
<circle cx="172.27" cy="215.55" r="6.7" fill="#D22D27"/>
<circle cx="182.99" cy="235.649" r="6.7" fill="#D22D27"/>
</svg>
</g></svg>