<svg xmlns="http://www.w3.org/2000/svg" viewBox="0 0 512 512"><g id="layer1" transform="translate(0, 0)"><svg width="512" height="512" viewBox="0 0 512 512" fill="none" xmlns="http://www.w3.org/2000/svg">
<rect width="512" height="512" fill="#FF9900"/>
<rect x="84" y="340" width="344" height="160" fill="#DA420F"/>
<rect x="196" y="176" width="120" height="296" fill="#F15824"/>
<rect width="120" height="80" transform="matrix(1 0 0 -1 196 176)" fill="#DA420F"/>
</svg>
</g><g id="layer2" transform="translate(84, 22)"><svg width="344" height="344" viewBox="0 0 344 344" fill="none" xmlns="http://www.w3.org/2000/svg">
<path d="M171.521 50.96C146.729 50.96 126.631 71.0579 126.631 95.85H216.411C216.411 71.0579 196.313 50.96 171.521 50.96Z" fill="#ECECEC"/>
<path d="M95.1406 71.0601H247.901L231.821 108.58H111.221L95.1406 71.0601Z" fill="white"/>
</svg>
</g><g id="layer3" transform="translate(84, 55)"><svg width="344" height="344" viewBox="0 0 344 344" fill="none" xmlns="http://www.w3.org/2000/svg">
<path d="M122.06 117.251H164.94V130.651L156.9 154.771H122.06V117.251Z" fill="#121212"/>
<path d="M122.06 117.251H164.94V130.651L156.9 154.771H122.06V117.251ZM122.06 117.251H111.34" stroke="#FFB74A" stroke-width="4.02"/>
<path d="M165.61 117.251H178.34" stroke="#FFB74A" stroke-width="4.02"/>
<path d="M165.61 129.311H178.34" stroke="#FFB74A" stroke-width="4.02"/>
<path d="M178.34 117.251H221.22V154.771H186.38L178.34 130.986V117.251Z" fill="#121212"/>
<path d="M221.22 117.251H178.34V130.986L186.38 154.771H221.22V117.251ZM221.22 117.251H231.94" stroke="#FFB74A" stroke-width="4.02"/>
</svg>
</g><g id="layer4" transform="translate(84, 140)"><svg width="344" height="344" viewBox="0 0 344 344" fill="none" xmlns="http://www.w3.org/2000/svg">
<path d="M144.8 190.76H198.4L195.72 202.15L193.04 212.87H150.16L147.48 202.15L144.8 190.76Z" fill="white"/>
<path d="M147.48 202.15L150.16 212.87H193.04L195.72 202.15M147.48 202.15L144.8 190.76H198.4L195.72 202.15M147.48 202.15H195.72" stroke="#121212" stroke-width="4.02"/>
<path d="M171.767 269.484C146.81 269.484 133.41 253.404 133.41 253.404L164.793 202.149H178.741L210.125 253.404C210.125 253.404 196.725 269.484 171.767 269.484Z" fill="#FFB74A" stroke="#121212" stroke-width="4.02"/>
<path d="M171.767 269.484C146.81 269.484 133.41 253.404 133.41 253.404L138.538 245.029C138.538 245.029 150.495 257.759 171.767 257.759C191.03 257.759 204.997 245.029 204.997 245.029L210.125 253.404C210.125 253.404 196.725 269.484 171.767 269.484Z" fill="#FF9900" stroke="#121212" stroke-width="4.02"/>
<circle cx="161.55" cy="241.01" r="8.04" fill="#D22D27"/>
<circle cx="172.27" cy="215.55" r="6.7" fill="#D22D27"/>
<circle cx="182.99" cy="235.649" r="6.7" fill="#D22D27"/>
</svg>
</g></svg>