<svg xmlns="http://www.w3.org/2000/svg" viewBox="0 0 512 512"><g id="layer1" transform="translate(0, 0)"><svg width="512" height="512" viewBox="0 0 512 512" fill="none" xmlns="http://www.w3.org/2000/svg">
<g clip-path="url(#clip0_75_1357)">
<path d="M512 0H0V512H512V0Z" fill="#FF9900"/>
<path d="M428 340H84V500H428V340Z" fill="#DA420F"/>
<path d="M125 340H109L117 364L125 340Z" fill="#1D1D1D"/>
<path d="M170 340H154L162 372L170 340Z" fill="#1D1D1D"/>
<path d="M108 400L84 392V408L108 400Z" fill="#1D1D1D"/>
<path d="M404 400L428 392V408L404 400Z" fill="#1D1D1D"/>
<path d="M116 432L84 424V440L116 432Z" fill="#1D1D1D"/>
<path d="M396 432L428 424V440L396 432Z" fill="#1D1D1D"/>
<path d="M132 464L84 456V472L132 464Z" fill="#1D1D1D"/>
<path d="M380 464L428 456V472L380 464Z" fill="#1D1D1D"/>
<path d="M387 340H403L395 364L387 340Z" fill="#1D1D1D"/>
<path d="M342 340H358L350 372L342 340Z" fill="#1D1D1D"/>
<path d="M316 176H196V472H316V176Z" fill="#F15824"/>
<path d="M220 276L196 268V284L220 276Z" fill="#1D1D1D"/>
<path d="M220 244L196 236V252L220 244Z" fill="#1D1D1D"/>
<path d="M292 276L316 268V284L292 276Z" fill="#1D1D1D"/>
<path d="M292 244L316 236V252L292 244Z" fill="#1D1D1D"/>
<path d="M228 308L196 300V316L228 308Z" fill="#1D1D1D"/>
<path d="M284 308L316 300V316L284 308Z" fill="#1D1D1D"/>
<path d="M316 176H196V96H316V176Z" fill="#DA420F"/>
<path d="M262 96H250V132H262V96Z" fill="#F15824"/>
</g>
<defs>
<clipPath id="clip0_75_1357">
<rect width="512" height="512" fill="white"/>
</clipPath>
</defs>
</svg>
</g><g id="layer2" transform="translate(84, 22)"><svg width="344" height="344" viewBox="0 0 344 344" fill="none" xmlns="http://www.w3.org/2000/svg">
<path d="M35.5605 97.8597L172.241 20.1396L308.921 97.8597V108.58H35.5605V97.8597Z" fill="#8B634A"/>
<rect x="35.5605" y="97.8599" width="273.36" height="10.72" fill="#77492D"/>
</svg>
</g><g id="layer3" transform="translate(84, 55)"><svg width="344" height="344" viewBox="0 0 344 344" fill="none" xmlns="http://www.w3.org/2000/svg">
<path d="M111.82 119.26H162.74L168.1 124.62L157.38 154.77L111.82 141.37V119.26Z" fill="#121212"/>
<path d="M232.42 119.26H181.5L176.14 124.62L186.86 154.77L232.42 141.37V119.26Z" fill="#121212"/>
<rect x="162.74" y="119.26" width="18.76" height="8.04" fill="#121212"/>
</svg>
</g><g id="layer4" transform="translate(84, 140)"><svg width="344" height="344" viewBox="0 0 344 344" fill="none" xmlns="http://www.w3.org/2000/svg">
<path d="M154.737 202.82H187.76" stroke="#121212" stroke-width="4.02"/>
<path d="M187.09 202.821C187.09 202.821 246.641 246.706 250.198 248.716L258.238 234.981L187.09 202.821Z" fill="#D22D27" stroke="#121212" stroke-width="4.02"/>
<path d="M185.582 202.703L229.449 234.07L241.68 227.625L185.582 202.703Z" fill="#00FF94" stroke="#121212" stroke-width="4.02"/>
<path d="M187.425 202.82L217.89 225.804L227.827 221.47L187.425 202.82Z" fill="#00A8FF"/>
<path d="M217.89 225.804L216.68 227.409L217.618 228.116L218.694 227.647L217.89 225.804ZM187.425 202.82L188.267 200.995C187.335 200.565 186.228 200.907 185.7 201.788C185.173 202.669 185.394 203.806 186.214 204.425L187.425 202.82ZM227.827 221.47L228.63 223.312L232.735 221.521L228.669 219.645L227.827 221.47ZM219.101 224.2L188.635 201.216L186.214 204.425L216.68 227.409L219.101 224.2ZM186.582 204.645L226.984 223.295L228.669 219.645L188.267 200.995L186.582 204.645ZM218.694 227.647L228.63 223.312L227.023 219.627L217.087 223.962L218.694 227.647Z" fill="#121212"/>
<rect x="262.395" y="224.93" width="14.07" height="25.2607" rx="7.035" transform="rotate(42.3433 262.395 224.93)" fill="#FFB74A" stroke="#121212" stroke-width="4.02"/>
<path d="M261.46 243.69C261.46 246.17 260.113 248.335 258.11 249.494C257.125 250.064 255.98 250.39 254.76 250.39C251.06 250.39 248.06 247.391 248.06 243.69C248.06 239.99 251.06 236.99 254.76 236.99C258.46 236.99 261.46 239.99 261.46 243.69Z" fill="#FFB74A" stroke="#121212" stroke-width="4.02"/>
</svg>
</g></svg>