<svg xmlns="http://www.w3.org/2000/svg" viewBox="0 0 512 512"><g id="layer1" transform="translate(0, 0)"><svg width="512" height="512" viewBox="0 0 512 512" fill="none" xmlns="http://www.w3.org/2000/svg">
<g clip-path="url(#clip0_75_1428)">
<path d="M512 0H0V512H512V0Z" fill="#FF9900"/>
<mask id="mask0_75_1428" style="mask-type:alpha" maskUnits="userSpaceOnUse" x="84" y="340" width="344" height="160">
<rect x="84" y="340" width="344" height="160" fill="#DA420F"/>
</mask>
<g mask="url(#mask0_75_1428)">
<circle cx="256" cy="336.328" r="327" fill="#C2FD52"/>
<circle cx="255.999" cy="336.327" r="287.206" fill="#FF00B1"/>
<circle cx="256" cy="336.329" r="253.468" fill="#AD00FF"/>
<circle cx="256" cy="336.328" r="213.675" fill="#00A8FF"/>
<circle cx="256" cy="336.328" r="180.802" fill="#C2FD52"/>
<circle cx="256.001" cy="336.329" r="148.794" fill="#D22D27"/>
<circle cx="256.001" cy="336.329" r="120.246" fill="#FFB74A"/>
<circle cx="256.001" cy="336.329" r="87.373" fill="#AD00FF"/>
<circle cx="256.324" cy="336.652" r="53.8936" fill="#FF00B1"/>
<circle cx="256" cy="336.328" r="25.6689" fill="#C2FD52"/>
</g>
<mask id="mask1_75_1428" style="mask-type:alpha" maskUnits="userSpaceOnUse" x="196" y="96" width="120" height="376">
<rect x="196" y="96" width="120" height="376" fill="#F15824"/>
</mask>
<g mask="url(#mask1_75_1428)">
<circle cx="256" cy="269.672" r="335" fill="#C2FD52"/>
<circle cx="255.999" cy="269.671" r="294.233" fill="#FF00B1"/>
<circle cx="256" cy="269.672" r="259.669" fill="#AD00FF"/>
<circle cx="256" cy="269.672" r="218.902" fill="#00A8FF"/>
<circle cx="256" cy="269.672" r="185.225" fill="#C2FD52"/>
<circle cx="256" cy="269.672" r="152.434" fill="#D22D27"/>
<circle cx="256" cy="269.672" r="123.188" fill="#FFB74A"/>
<circle cx="256.001" cy="269.673" r="89.5106" fill="#AD00FF"/>
<circle cx="256.332" cy="270.004" r="55.2121" fill="#FF00B1"/>
<path d="M262 96H250V132H262V96Z" fill="#E3E3E3"/>
</g>
</g>
<defs>
<clipPath id="clip0_75_1428">
<rect width="512" height="512" fill="white"/>
</clipPath>
</defs>
</svg>
</g><g id="layer2" transform="translate(84, 22)"><svg width="344" height="344" viewBox="0 0 344 344" fill="none" xmlns="http://www.w3.org/2000/svg">
<path d="M112.14 71.0602L147.985 48.9502V71.0602L194.215 48.9502V71.0602L232.74 48.9502V71.0602V103.22L112.14 103.22V71.0602Z" fill="#121212"/>
<rect x="112.14" y="103.22" width="8.04" height="26.8" fill="#121212"/>
<rect x="224.7" y="103.22" width="8.04" height="26.8" fill="#121212"/>
<rect x="112.14" y="81.7803" width="120.6" height="21.44" fill="#00B2FE"/>
</svg>
</g><g id="layer3" transform="translate(84, 55)"><svg width="344" height="344" viewBox="0 0 344 344" fill="none" xmlns="http://www.w3.org/2000/svg">
<path d="M122.06 117.251H164.94V130.651L156.9 154.771H122.06V117.251Z" fill="#121212"/>
<path d="M122.06 117.251H164.94V130.651L156.9 154.771H122.06V117.251ZM122.06 117.251H111.34" stroke="#FFB74A" stroke-width="4.02"/>
<path d="M165.61 117.251H178.34" stroke="#FFB74A" stroke-width="4.02"/>
<path d="M165.61 129.311H178.34" stroke="#FFB74A" stroke-width="4.02"/>
<path d="M178.34 117.251H221.22V154.771H186.38L178.34 130.986V117.251Z" fill="#121212"/>
<path d="M221.22 117.251H178.34V130.986L186.38 154.771H221.22V117.251ZM221.22 117.251H231.94" stroke="#FFB74A" stroke-width="4.02"/>
</svg>
</g><g id="layer4" transform="translate(84, 140)"><svg width="344" height="344" viewBox="0 0 344 344" fill="none" xmlns="http://www.w3.org/2000/svg">
<path d="M145.16 190.76H198.76L196.08 202.15L193.4 212.87H150.52L147.84 202.15L145.16 190.76Z" fill="white"/>
<path d="M147.84 202.15L150.52 212.87H193.4L196.08 202.15M147.84 202.15L145.16 190.76H198.76L196.08 202.15M147.84 202.15H196.08" stroke="#121212" stroke-width="4.02"/>
<path d="M208.81 202.149L208.81 185.064M208.81 202.149L208.81 218.229M208.81 202.149H129.415M121.04 202.149H129.415M129.415 202.149L135.11 191.429M129.415 202.149L135.11 212.199" stroke="#42B16C" stroke-width="4.02"/>
<rect x="242.98" y="188.749" width="26.8" height="32.16" transform="rotate(90 242.98 188.749)" fill="#D22D27"/>
<path d="M242.98 207.509V215.549H210.82V196.789L242.98 207.509Z" fill="#7B0000"/>
</svg>
</g></svg>