<svg width="512" height="512" viewBox="0 0 512 512" fill="none" xmlns="http://www.w3.org/2000/svg">
<g clip-path="url(#clip0_1672_4258)">
<mask id="path-1-outside-1_1672_4258" maskUnits="userSpaceOnUse" x="26" y="370" width="460" height="148" fill="black">
<rect fill="white" x="26" y="370" width="460" height="148"/>
<path fill-rule="evenodd" clip-rule="evenodd" d="M305 376H207V400H100.206C82.7799 400 74.0666 400 67.6505 404.84C61.2345 409.679 58.8408 418.057 54.0533 434.813L32 512H480L457.947 434.813C453.159 418.057 450.766 409.679 444.349 404.84C437.933 400 429.22 400 411.794 400H305V376Z"/>
</mask>
<path fill-rule="evenodd" clip-rule="evenodd" d="M305 376H207V400H100.206C82.7799 400 74.0666 400 67.6505 404.84C61.2345 409.679 58.8408 418.057 54.0533 434.813L32 512H480L457.947 434.813C453.159 418.057 450.766 409.679 444.349 404.84C437.933 400 429.22 400 411.794 400H305V376Z" fill="#165B32"/>
<path d="M207 376V370C203.686 370 201 372.686 201 376H207ZM305 376H311C311 372.686 308.314 370 305 370V376ZM207 400V406C210.314 406 213 403.314 213 400H207ZM67.6505 404.84L71.2637 409.63L71.2637 409.63L67.6505 404.84ZM54.0533 434.813L48.2842 433.165L54.0533 434.813ZM32 512L26.2309 510.352C25.7136 512.162 26.0761 514.11 27.2099 515.613C28.3437 517.116 30.1173 518 32 518V512ZM480 512V518C481.883 518 483.656 517.116 484.79 515.613C485.924 514.11 486.286 512.162 485.769 510.352L480 512ZM457.947 434.813L452.178 436.462V436.462L457.947 434.813ZM305 400H299C299 403.314 301.686 406 305 406V400ZM207 382H305V370H207V382ZM213 400V376H201V400H213ZM100.206 406H207V394H100.206V406ZM71.2637 409.63C73.3094 408.087 75.927 407.1 80.4984 406.564C85.2271 406.01 91.3505 406 100.206 406V394C91.6359 394 84.6893 393.99 79.1007 394.646C73.3548 395.32 68.4078 396.753 64.0374 400.05L71.2637 409.63ZM59.8225 436.462C62.2554 427.946 63.9468 422.061 65.7791 417.667C67.5504 413.419 69.2181 411.173 71.2637 409.63L64.0374 400.05C59.667 403.346 56.9297 407.709 54.7033 413.049C52.5379 418.242 50.6387 424.924 48.2842 433.165L59.8225 436.462ZM37.7691 513.648L59.8225 436.462L48.2842 433.165L26.2309 510.352L37.7691 513.648ZM480 506H32V518H480V506ZM452.178 436.462L474.231 513.648L485.769 510.352L463.716 433.165L452.178 436.462ZM440.736 409.63C442.782 411.173 444.45 413.419 446.221 417.667C448.053 422.061 449.745 427.946 452.178 436.462L463.716 433.165C461.361 424.924 459.462 418.242 457.297 413.049C455.07 407.709 452.333 403.346 447.963 400.05L440.736 409.63ZM411.794 406C420.65 406 426.773 406.01 431.502 406.564C436.073 407.1 438.691 408.087 440.736 409.63L447.963 400.05C443.592 396.753 438.645 395.32 432.899 394.646C427.311 393.99 420.364 394 411.794 394V406ZM305 406H411.794V394H305V406ZM299 376V400H311V376H299Z" fill="#121212" mask="url(#path-1-outside-1_1672_4258)"/>
<path d="M363 448L368.086 464H370.905L365.861 448H363ZM387.052 448L381.712 464H384.573L389.871 448H387.053H387.052ZM372.102 456.434H376.235L371.742 462.093V464H380.727V461.266H376.345L380.876 455.608V453.701H372.102V456.434Z" fill="#FFD600"/>
<path d="M96 400H176V428C176 430.209 174.209 432 172 432H100C97.7909 432 96 430.209 96 428V400Z" fill="#0C4122"/>
<rect x="96" y="456" width="80" height="16" rx="4" fill="#0C4122"/>
<path d="M336 400H416V428C416 430.209 414.209 432 412 432H340C337.791 432 336 430.209 336 428V400Z" fill="#0C4122"/>
<path d="M111.103 409.817C111.47 409.074 112.53 409.074 112.897 409.817L114.118 412.292C114.264 412.588 114.546 412.792 114.871 412.84L117.603 413.236C118.424 413.356 118.751 414.364 118.158 414.942L116.181 416.869C115.945 417.099 115.837 417.43 115.893 417.754L116.36 420.475C116.5 421.292 115.642 421.915 114.909 421.529L112.465 420.245C112.174 420.091 111.826 420.091 111.535 420.245L109.091 421.529C108.358 421.915 107.5 421.292 107.64 420.475L108.107 417.754C108.163 417.43 108.055 417.099 107.819 416.869L105.842 414.942C105.249 414.364 105.576 413.356 106.397 413.236L109.129 412.84C109.454 412.792 109.736 412.588 109.882 412.292L111.103 409.817Z" fill="#FFD600"/>
<path d="M351.103 409.817C351.47 409.074 352.53 409.074 352.897 409.817L354.118 412.292C354.264 412.588 354.546 412.792 354.871 412.84L357.603 413.236C358.424 413.356 358.751 414.364 358.158 414.942L356.181 416.869C355.945 417.099 355.837 417.43 355.893 417.754L356.36 420.475C356.5 421.292 355.642 421.915 354.909 421.529L352.465 420.245C352.174 420.091 351.826 420.091 351.535 420.245L349.091 421.529C348.358 421.915 347.5 421.292 347.64 420.475L348.107 417.754C348.163 417.43 348.055 417.099 347.819 416.869L345.842 414.942C345.249 414.364 345.576 413.356 346.397 413.236L349.129 412.84C349.454 412.792 349.736 412.588 349.882 412.292L351.103 409.817Z" fill="#FFD600"/>
<path d="M159.103 409.817C159.47 409.074 160.53 409.074 160.897 409.817L162.118 412.292C162.264 412.588 162.546 412.792 162.871 412.84L165.603 413.236C166.424 413.356 166.751 414.364 166.158 414.942L164.181 416.869C163.945 417.099 163.837 417.43 163.893 417.754L164.36 420.475C164.5 421.292 163.642 421.915 162.909 421.529L160.465 420.245C160.174 420.091 159.826 420.091 159.535 420.245L157.091 421.529C156.358 421.915 155.5 421.292 155.64 420.475L156.107 417.754C156.163 417.43 156.055 417.099 155.819 416.869L153.842 414.942C153.249 414.364 153.576 413.356 154.397 413.236L157.129 412.84C157.454 412.792 157.736 412.588 157.882 412.292L159.103 409.817Z" fill="#FFD600"/>
<path d="M399.103 409.817C399.47 409.074 400.53 409.074 400.897 409.817L402.118 412.292C402.264 412.588 402.546 412.792 402.871 412.84L405.603 413.236C406.424 413.356 406.751 414.364 406.158 414.942L404.181 416.869C403.945 417.099 403.837 417.43 403.893 417.754L404.36 420.475C404.5 421.292 403.642 421.915 402.909 421.529L400.465 420.245C400.174 420.091 399.826 420.091 399.535 420.245L397.091 421.529C396.358 421.915 395.5 421.292 395.64 420.475L396.107 417.754C396.163 417.43 396.055 417.099 395.819 416.869L393.842 414.942C393.249 414.364 393.576 413.356 394.397 413.236L397.129 412.84C397.454 412.792 397.736 412.588 397.882 412.292L399.103 409.817Z" fill="#FFD600"/>
<path d="M135.103 409.817C135.47 409.074 136.53 409.074 136.897 409.817L138.118 412.292C138.264 412.588 138.546 412.792 138.871 412.84L141.603 413.236C142.424 413.356 142.751 414.364 142.158 414.942L140.181 416.869C139.945 417.099 139.837 417.43 139.893 417.754L140.36 420.475C140.5 421.292 139.642 421.915 138.909 421.529L136.465 420.245C136.174 420.091 135.826 420.091 135.535 420.245L133.091 421.529C132.358 421.915 131.5 421.292 131.64 420.475L132.107 417.754C132.163 417.43 132.055 417.099 131.819 416.869L129.842 414.942C129.249 414.364 129.576 413.356 130.397 413.236L133.129 412.84C133.454 412.792 133.736 412.588 133.882 412.292L135.103 409.817Z" fill="#FFD600"/>
<path d="M375.103 409.817C375.47 409.074 376.53 409.074 376.897 409.817L378.118 412.292C378.264 412.588 378.546 412.792 378.871 412.84L381.603 413.236C382.424 413.356 382.751 414.364 382.158 414.942L380.181 416.869C379.945 417.099 379.837 417.43 379.893 417.754L380.36 420.475C380.5 421.292 379.642 421.915 378.909 421.529L376.465 420.245C376.174 420.091 375.826 420.091 375.535 420.245L373.091 421.529C372.358 421.915 371.5 421.292 371.64 420.475L372.107 417.754C372.163 417.43 372.055 417.099 371.819 416.869L369.842 414.942C369.249 414.364 369.576 413.356 370.397 413.236L373.129 412.84C373.454 412.792 373.736 412.588 373.882 412.292L375.103 409.817Z" fill="#FFD600"/>
<circle cx="392.971" cy="484" r="15" fill="#D0B000" stroke="#165B32" stroke-width="6"/>
<circle cx="376" cy="484" r="15" fill="#E6C100" stroke="#165B32" stroke-width="6"/>
<circle cx="360" cy="484" r="15" fill="#FFD600" stroke="#165B32" stroke-width="6"/>
<circle cx="278" cy="426" r="6" fill="#FFD600"/>
<circle cx="278" cy="458" r="6" fill="#FFD600"/>
<circle cx="278" cy="490" r="6" fill="#FFD600"/>
<circle cx="274" cy="385" r="6" fill="#FFD600"/>
<circle cx="238" cy="385" r="6" fill="#FFD600"/>
<path d="M204 397H256.25M308.5 397H256.25M256.25 397V519" stroke="#121212" stroke-width="6" stroke-linecap="round" stroke-linejoin="round"/>
</g>
<defs>
<clipPath id="clip0_1672_4258">
<rect width="512" height="512" fill="white"/>
</clipPath>
</defs>
</svg>
