<svg width="512" height="512" viewBox="0 0 512 512" fill="none" xmlns="http://www.w3.org/2000/svg">
<path d="M157.926 197C141.951 197 129 209.951 129 225.926V246C129 250.971 133.029 255 138 255C142.971 255 147 250.971 147 246V229H152C158.075 229 163 224.075 163 218V202.074C163 199.272 160.728 197 157.926 197Z" fill="white" stroke="#121212" stroke-width="6" stroke-linecap="round" stroke-linejoin="round"/>
<path d="M354.074 197C370.049 197 383 209.951 383 225.926V246C383 250.971 378.971 255 374 255C369.029 255 365 250.971 365 246V229H360C353.925 229 349 224.075 349 218V202.074C349 199.272 351.272 197 354.074 197Z" fill="white" stroke="#121212" stroke-width="6" stroke-linecap="round" stroke-linejoin="round"/>
</svg>
